<?xml version='1.0' encoding='utf-8'?>
<svg width="268.1003410255mm" height="513.0000000003mm" viewBox="-2.8632864713 -4.8914334079 5.7213402947 10.9475711965" version="1.1" xmlns="http://www.w3.org/2000/svg">
  <g transform="scale(1,-1)" stroke-linecap="round">
    <g fill="none" stroke="rgb(64,192,64)" stroke-width="0.021340294730005125" id="Visible">
      <path d="M 0.9166394976,3.5416970986 A 1.3,0.7673277451795402 -1.9700693681601446e-15 0,1 -0.9218721454,4.6268423266 A 1.3,0.7673277451795402 -1.9700693681601446e-15 0,1 0.9166394976,3.5416970986" />
      <line x1="-0.3134076946" y1="3.399592005" x2="0.8465558297" y2="3.583062601" />
      <line x1="-1.1625798481" y1="3.9007991166" x2="-0.3134076946" y2="3.399592005" />
      <line x1="-0.8517884775" y1="4.5854768242" x2="-1.1625798481" y2="3.9007991166" />
      <line x1="0.3081750467" y1="4.7689474203" x2="-0.8517884775" y2="4.5854768242" />
      <line x1="1.1573472003" y1="4.2677403087" x2="0.3081750467" y2="4.7689474203" />
      <line x1="0.8465558297" y1="3.583062601" x2="1.1573472003" y2="4.2677403087" />
      <path d="M 2.0126752847,1.5628723181 A 2.8500000000000005,1.682218518278223 -1.9700693681601446e-15 0,1 2.6701424104,3.3363384773" />
      <path d="M -2.6753750583,3.3363384773 A 2.8500000000000005,1.682218518278223 -1.9700693681601446e-15 0,1 2.0126752847,1.5628723181" />
      <line x1="-0.8517884775" y1="4.5854768242" x2="-0.8517884775" y2="3.7459691089" />
      <line x1="-0.8517884775" y1="3.7459691089" x2="-0.8620304993" y2="3.7234057925" />
      <line x1="0.3081750467" y1="4.7689474203" x2="0.3081750467" y2="3.9294397049" />
      <line x1="0.3081750467" y1="3.9294397049" x2="-0.8517884775" y2="3.7459691089" />
      <line x1="0.8567978515" y1="3.6056259174" x2="0.3081750467" y2="3.9294397049" />
      <path d="M 0.8666935437,-5.0766207937 C 0.6667402983,-5.2101552087 0.3946091755,-5.3005089574 0.1121728029,-5.3304397818 C -0.1701102807,-5.3613718269 -0.46118175,-5.3318894123 -0.6950939975,-5.2519847464 C -1.0271260771,-5.1413100776 -1.2349152843,-4.9300485231 -1.2319812858,-4.7148718869" />
      <path d="M -1.2283342108,-4.6639694232 Q -1.2171780151,-4.5866197212 -1.1731691535,-4.5130797826" />
      <path d="M -1.1382011908,-4.462165725 Q -1.0743761192,-4.3801201761 -0.9721651212,-4.3112739827" />
      <path d="M 0.7990306701,-4.3112729315 Q 0.9165601724,-4.3790632461 1.0054084404,-4.4621620812" />
      <path d="M 1.0631151752,-5.3119335371 Q 0.981753941,-5.4037851935 0.8666935437,-5.480230176" />
      <path d="M 0.8666935437,-4.6730110994 C 0.4944429231,-4.9275196434 -0.1364491497,-5.0073094643 -0.5998383336,-4.8772146255 C -0.8381508175,-4.8136842392 -1.0297743581,-4.7019370733 -1.1350805592,-4.5679750328" />
      <path d="M 0.9068916692,-5.0486973484 L 0.8666935437,-5.0766207937" />
      <path d="M 0.8666935437,-4.2694016457 C 0.5072331214,-4.5145695682 -0.0931723854,-4.5989663604 -0.5514301491,-4.4858038796 C -0.7374336014,-4.4420323731 -0.8991480783,-4.3698221506 -1.0164481102,-4.279468351" />
      <path d="M 1.0631133123,-4.5047163326 Q 0.9818049705,-4.5965226352 0.8666935437,-4.6730110994" />
      <path d="M 0.8666935437,-3.8657923839 C 0.6598391177,-4.0039542039 0.3763538211,-4.0955612589 0.0835504067,-4.1224972937 C -0.287351765,-4.1586054044 -0.6663426926,-4.0879634623 -0.9142351186,-3.9436517026 C -1.007266164,-3.8900006918 -1.0808813942,-3.8290354555 -1.1350808093,-3.7607559936" />
      <path d="M -0.8873417591,-3.0495253343 Q -0.6845802478,-2.9412001019 -0.4101063907,-2.8986389384" />
      <path d="M 0.9068926327,-4.2414774891 L 0.8666935437,-4.2694016457" />
      <path d="M 0.8666935437,-3.4621827833 C 0.5332956029,-3.6884944705 -0.0065419398,-3.7801396011 -0.4490529624,-3.6995146195 C -0.6775621513,-3.6600454685 -0.8782477739,-3.5788954725 -1.0164488622,-3.4722492898" />
      <path d="M -1.1350798357,-3.3571475185 Q -1.2314607305,-3.2345592794 -1.231983301,-3.1004445474" />
      <path d="M 1.0631140815,-3.6974966099 Q 0.9817850999,-3.7893206783 0.8666935437,-3.8657923839" />
      <path d="M 0.8666935437,-3.058573401 C 0.6546489766,-3.2002677176 0.3618431901,-3.2928880681 0.0613352078,-3.3172436362 C -0.3738202281,-3.3557187471 -0.8122311325,-3.2444796446 -1.0417107637,-3.048403444 C -1.1654840037,-2.9453415396 -1.2323721865,-2.8211335435 -1.2319833625,-2.6968351905" />
      <path d="M 0.1917128788,-2.0914207382 Q 0.4702828447,-2.1327509167 0.7019730396,-2.2423100115" />
      <path d="M 1.0631151929,-3.2938861328 Q 0.9817783319,-3.3857171523 0.8666935437,-3.4621827833" />
      <path d="M 0.8666935437,-2.6549637067 C 0.6072193436,-2.8292126776 0.2247586636,-2.9273196565 -0.1419094964,-2.9205809132 C -0.4913224156,-2.9164707038 -0.8191330445,-2.8184146006 -1.0164456527,-2.6650315008" />
      <path d="M 0.1917133077,-1.6878112359 Q 0.4701384486,-1.7290992847 0.7019728322,-1.8387005666" />
      <path d="M 0.7990308681,-1.8896162067 Q 0.9166333446,-1.9574584796 1.0054085608,-2.0405053618" />
      <path d="M 1.2267509084,-2.4950291148 C 1.228077913,-2.7020361658 1.0955016012,-2.9077887368 0.8666935437,-3.058573401" />
      <path d="M 0.8666935437,-2.2513542531 C 0.5265971993,-2.4824983054 -0.028676261,-2.572556164 -0.475915262,-2.4838037953 C -0.6932955785,-2.4428341898 -0.8836508861,-2.363849742 -1.0164502299,-2.261419934" />
      <path d="M -1.2283354238,-1.8387064915 Q -1.2188829819,-1.773051553 -1.1856011402,-1.7098854124" />
      <path d="M 0.1917138021,-1.2842018012 Q 0.4702243327,-1.3255171514 0.7019730129,-1.4350911203" />
      <path d="M 0.7990298335,-1.4860072527 Q 0.9165669793,-1.5538092925 1.0054082417,-1.6368960745" />
      <path d="M 1.0556221677,-1.6878108403 Q 1.1211365387,-1.7599628582 1.1623171763,-1.8387068823" />
      <path d="M 1.2205863691,-2.0124252539 L 1.2241937877,-2.0405042138" />
      <path d="M 0.90688356,-2.6270446331 L 0.8666935437,-2.6549637067" />
      <path d="M 0.8666935437,-1.8477449912 C 0.6025805269,-2.0251933802 0.2111047792,-2.1234028276 -0.1613337855,-2.1129841573 C -0.5035754969,-2.1056886875 -0.8228159834,-2.0082529388 -1.016450863,-1.8578099469" />
      <path d="M -1.228328182,-1.4351007547 Q -1.2188760603,-1.3694194235 -1.1856060401,-1.3062729157" />
      <path d="M 0.7990311869,-1.0823969904 Q 0.9165501888,-1.150179169 1.0054083759,-1.233286499" />
      <path d="M 1.0556207401,-1.2842023544 Q 1.1211437838,-1.3563657529 1.1623204074,-1.435091099" />
      <path d="M 1.1860235054,-1.4860018554 Q 1.2164724677,-1.5603639836 1.2241942795,-1.6368958343" />
      <path d="M 1.2267507561,-1.6878115166 Q 1.2252906661,-1.8980692519 1.0631145064,-2.0830581809" />
      <path d="M 0.9068926215,-2.223430102 L 0.8666935437,-2.2513542531" />
      <path d="M 0.8666935437,-1.4441353906 C 0.5549068981,-1.6550326331 0.0632570994,-1.7506414251 -0.3615166536,-1.6945505382 C -0.625899796,-1.6617532976 -0.8608415745,-1.574456642 -1.0164292809,-1.4542113586" />
      <path d="M -1.2283334738,-1.0314673358 Q -1.2217312418,-0.9855489162 -1.2033677128,-0.9406457333" />
      <path d="M -0.8873469337,-0.6278730746 Q -0.6845653284,-0.5195351718 -0.4100860481,-0.4769868119" />
      <path d="M 0.1917127209,-0.4769829642 Q 0.4701907366,-0.5182856165 0.701973412,-0.6278721583" />
      <path d="M 1.0814490313,-0.9104362228 Q 1.1296507208,-0.9689794875 1.1623205299,-1.0314815859" />
      <path d="M 1.1860237878,-1.0824013851 Q 1.2164658246,-1.156762841 1.2241907787,-1.2333212508" />
      <path d="M 1.2267478492,-1.2841974627 C 1.2280467651,-1.4912613067 1.0955100894,-1.6969506347 0.8666935437,-1.8477449912" />
      <path d="M 0.8666935437,-1.0405260083 C 0.573179871,-1.2385079714 0.1210123738,-1.3360541303 -0.2855081824,-1.2989639685 C -0.5800534645,-1.2742804114 -0.8463402134,-1.1823406833 -1.0164486061,-1.0505925525" />
      <path d="M -0.8873488036,-0.2242625498 Q -0.6844635781,-0.1158985896 -0.4101124752,-0.0733734717" />
      <path d="M 0.1917128127,-0.0733733306 Q 0.4701879215,-0.114674697 0.701973054,-0.2242626116" />
      <path d="M 0.7990306457,-0.2751781518 Q 0.9165985596,-0.3429967786 1.0054083607,-0.4260671951" />
      <path d="M 1.2267507332,-0.8805922092 C 1.2281151612,-1.08753093 1.0954611011,-1.293404552 0.8666935437,-1.4441353906" />
      <path d="M 0.8666935437,-0.636916314 C 0.6704521167,-0.7678983067 0.4052629919,-0.8573068248 0.1284160453,-0.8889192373 C -0.130560731,-0.9192625108 -0.3981995269,-0.8990468339 -0.6228093347,-0.8347736531 C -0.848030143,-0.7711167975 -1.0293646373,-0.663734348 -1.1318155169,-0.5359645826 C -1.1329038493,-0.5346031468 -1.1339921818,-0.5332417109 -1.1350805142,-0.5318802751" />
      <path d="M -1.2283345699,-0.22426255 Q -1.2217325563,-0.1783266823 -1.2033716662,-0.1334232705" />
      <path d="M -1.1856038991,-0.0954454328 L -1.1731703852,-0.0733733944" />
      <path d="M -1.1382038668,-0.0224577569 Q -1.0743929255,0.0595702613 -0.9721637308,0.1284325977" />
      <path d="M -0.8873485915,0.1793467828 Q -0.6843915693,0.287738335 -0.4101149644,0.3302364778" />
      <path d="M 0.1917125868,0.3302361994 Q 0.4702498598,0.2889145359 0.7019723071,0.1793471063" />
      <path d="M 0.7990309281,0.1284312479 Q 0.9165562228,0.0606444646 1.0054084877,-0.0224581239" />
      <path d="M 1.0814478797,-0.1032175762 Q 1.1296269422,-0.1617309855 1.1623204997,-0.2242629155" />
      <path d="M 1.2120566036,-0.3551838359 Q 1.2206130338,-0.3904599705 1.2241929757,-0.4260540651" />
      <path d="M 0.9068916211,-1.0126025873 L 0.8666935437,-1.0405260083" />
      <path d="M 0.8666935437,-0.2333068604 C 0.4986448734,-0.4847466217 -0.1222125858,-0.5661249989 -0.5841215902,-0.4416424401 C -0.8295896562,-0.3788598767 -1.0274892872,-0.2652035396 -1.1350766265,-0.1282733242" />
      <path d="M -1.2283344798,0.1793488413 Q -1.2171816413,0.2566880033 -1.173169263,0.3302387382" />
      <path d="M -1.1382038986,0.3811514352 Q -1.0743737335,0.4631902218 -0.9721652784,0.5320403943" />
      <path d="M 1.0814481357,0.3003918666 Q 1.1296322534,0.2418705382 1.1623204487,0.1793467769" />
      <path d="M 1.1860255505,0.1284312693 Q 1.2164745215,0.0540648783 1.2241942686,-0.0224576202" />
      <path d="M 1.2267507292,-0.07337347 C 1.2281007036,-0.2803352915 1.0954807365,-0.4861611524 0.8666935437,-0.636916314" />
      <path d="M 0.8666935437,0.1703024014 C 0.501826497,-0.0788079125 -0.1114154028,-0.1613467691 -0.5720872224,-0.0410846298 C -0.8230813715,0.0210624851 -1.0257260195,0.1361571142 -1.1350798585,0.2753382078" />
      <path d="M -0.8873504463,0.9865656467 Q -0.7499463663,1.0602192845 -0.5750201157,1.1044178876" />
      <path d="M 0.4235141771,1.089050102 Q 0.5720812507,1.0483587526 0.7019734238,0.9865658161" />
      <path d="M 1.2267507347,0.3302358581 C 1.2280958208,0.1232800327 1.0955042509,-0.0825315098 0.8666935437,-0.2333068604" />
      <path d="M 0.8666935437,0.5739120021 C 0.6389188579,0.4215206805 0.3177115131,0.3263827646 -0.0056911428,0.3107579364 C -0.4032933923,0.2889344311 -0.7939725584,0.390055986 -1.0164489748,0.56384555" />
      <path d="M -1.2283345426,0.9865659195 Q -1.2171949482,1.0638606114 -1.1731703695,1.1374549" />
      <path d="M -1.1382020189,1.1883729404 L -1.124055727,1.2058445465" />
      <path d="M 1.0631140742,0.3385981706 Q 0.9817564347,0.2467498943 0.8666935437,0.1703024014" />
      <path d="M 0.8666935437,0.9775213844 C 0.6442863611,0.8287778272 0.3328007676,0.7344044852 0.0170870839,0.7156483741 C -0.4265780438,0.6857935821 -0.863650711,0.8114245698 -1.0760935777,1.0183069162 C -1.1450772838,1.0841316327 -1.1914010109,1.1546819081 -1.2150647592,1.2299577424" />
      <path d="M 1.2205884335,1.2164520487 L 1.2241942189,1.1883698267" />
      <path d="M 1.2267507285,1.1374551925 Q 1.2252817359,0.9271766359 1.0631150885,0.742208584" />
      <path d="M 0.9068922296,0.6018359181 L 0.8666935437,0.5739120021" />
      <path d="M 1.1094926971,1.2034989308 Q 1.0179123839,1.0780935893 0.8666935437,0.9775213844" />
      <path d="M 1.0580634701,-5.7188461295 C 1.3372431828,-5.5385643897 1.4989756954,-5.2912768413 1.4973842249,-5.0423506719" />
      <path d="M 1.4973842249,-5.0423506719 Q 1.4964886753,-4.831365769 1.3558161754,-4.6387415843" />
      <path d="M 1.2205884816,-4.4902444233 Q 1.1783743264,-4.4520203562 1.1305931636,-4.4163774213" />
      <path d="M 1.0814479893,-4.3814026608 Q 1.0002688559,-4.3262920119 0.9068888956,-4.2792353847" />
      <path d="M -1.0545493257,-4.2603573385 Q -1.135390097,-4.3024609586 -1.2033719043,-4.351196415" />
      <path d="M -1.2273068151,-4.3688674493 C -1.4056117681,-4.5038767399 -1.5032318482,-4.6719668116 -1.5026159008,-4.8405460699" />
      <path d="M -1.5026159008,-4.8405460699 C -1.5042076681,-5.055843855 -1.3424700068,-5.2695031364 -1.063276949,-5.4161517615 C -0.7863350885,-5.5641291263 -0.3958633726,-5.6427785218 -0.0026160848,-5.6250218777 C 0.3906312712,-5.6091443537 0.7811015181,-5.496860884 1.0580432852,-5.3152495232 C 1.3372360721,-5.1349669122 1.4989759129,-4.8876734677 1.4973842249,-4.6387414676" />
      <path d="M 1.4973842249,-4.6387414676 Q 1.4964886277,-4.427756491 1.3558158275,-4.2351323215" />
      <path d="M 1.2205885669,-4.0866352223 L 1.188410494,-4.0585528413" />
      <path d="M -1.045761573,-3.8522130445 Q -1.1316863016,-3.8961977849 -1.2033717132,-3.9475871253" />
      <path d="M -1.2273065775,-3.9652580778 Q -1.2705051131,-3.9981139273 -1.3074145205,-4.0333267283" />
      <path d="M -1.3327544108,-4.058552285 Q -1.5013211732,-4.2356500711 -1.5026163307,-4.4369364957" />
      <path d="M -1.5026163307,-4.4369364957 C -1.50420814,-4.6522344685 -1.3424696884,-4.8658941484 -1.0632764072,-5.0125425949 C -0.7863342647,-5.1605198151 -0.3958632634,-5.2391687434 -0.0026163239,-5.2214121395 C 0.3906306155,-5.2055346234 0.7811016168,-5.0932515753 1.0580437593,-4.9116402352 C 1.3372370405,-4.7313576689 1.4989754921,-4.4840638691 1.4973836828,-4.2351317763" />
      <path d="M 1.4973836828,-4.2351317763 Q 1.4973322625,-4.1331472646 1.4631571136,-4.0333265865" />
      <path d="M -1.4674801305,-3.8567479662 Q -1.5025626683,-3.9439122009 -1.5026168728,-4.0333272265" />
      <path d="M -1.5026168728,-4.0333272265 C -1.5042085608,-4.2486251053 -1.3424687197,-4.4622844285 -1.0632759327,-4.6089329181 C -0.7863341655,-4.7569101577 -0.3958639187,-4.835559506 -0.0026165629,-4.8178029088 C 0.3906307248,-4.8019254316 0.7811024406,-4.6896419149 1.0580443012,-4.5080304289 C 1.3372373589,-4.3277476826 1.4989750203,-4.0804542799 1.4973832529,-3.8315223736" />
      <path d="M 1.4973832529,-3.8315223736 Q 1.4973533023,-3.7425115156 1.4712437196,-3.6549438657" />
      <path d="M 1.4631571136,-3.6297181607 Q 1.4272777548,-3.5252652774 1.3558158274,-3.4279124257" />
      <path d="M 1.2205886016,-3.279415496 L 1.157418287,-3.2261078562" />
      <path d="M -1.0457613655,-3.0449939343 Q -1.1316861435,-3.0889787857 -1.2033716615,-3.140368303" />
      <path d="M -1.2273115911,-3.1580431389 C -1.4056133486,-3.2930516168 -1.5032327953,-3.4611399941 -1.5026168728,-3.629717521" />
      <path d="M -1.5026168728,-3.629717521 C -1.5042086334,-3.8450205543 -1.3424602095,-4.0586845845 -1.0632568731,-4.2053337493 C -0.6491272737,-4.4307214146 0.0263393116,-4.4847983351 0.5714218061,-4.3215685983 C 0.8438435956,-4.242680464 1.08132337,-4.1150291852 1.2445920062,-3.9576371788 C 1.408722535,-3.8005850887 1.497901975,-3.6144457217 1.4973836828,-3.4279129709" />
      <path d="M 1.4973836828,-3.4279129709 Q 1.4973322659,-3.3259287883 1.4631573225,-3.2261082914" />
      <path d="M -1.4565359301,-3.0243030708 Q -1.5025229503,-3.1235140045 -1.5026163307,-3.2261082515" />
      <path d="M -1.5026163307,-3.2261082515 C -1.5031346548,-3.3874181442 -1.4139523396,-3.5483346226 -1.2498169454,-3.6801624868 C -1.0865434917,-3.8123302931 -0.8490569775,-3.9147559877 -0.5766288161,-3.9684165827 C -0.0315333301,-4.0811915721 0.6439431261,-3.9766508028 1.0580634701,-3.7007987368 C 1.3372431828,-3.520516997 1.4989756954,-3.2732294486 1.4973842249,-3.0243032792" />
      <path d="M 1.4973842249,-3.0243032792 Q 1.4973327867,-2.9223191166 1.4631575425,-2.8224986771" />
      <path d="M -1.4565359301,-2.6206942836 Q -1.5025225236,-2.7199048165 -1.5026159008,-2.8224986772" />
      <path d="M -1.5026159008,-2.8224986772 C -1.5042076681,-3.0377964623 -1.3424700068,-3.2514557437 -1.063276949,-3.3981043688 C -0.7863350885,-3.5460817336 -0.3958633726,-3.6247311291 -0.0026160848,-3.606974485 C 0.3906312712,-3.591096961 0.7811015181,-3.4788134913 1.0580432852,-3.2972021305 C 1.3372360721,-3.1169195195 1.4989759129,-2.869626075 1.4973842249,-2.6206940749" />
      <path d="M 1.4973842249,-2.6206940749 Q 1.497332799,-2.5187096798 1.4631573225,-2.4188890629" />
      <path d="M -1.4674801927,-2.2423103346 Q -1.5025621331,-2.3294743075 -1.5026163307,-2.418889103" />
      <path d="M -1.5026163307,-2.418889103 C -1.50420814,-2.6341870758 -1.3424696884,-2.8478467558 -1.0632764072,-2.9944952022 C -0.7863342647,-3.1424724224 -0.3958632634,-3.2211213507 -0.0026163239,-3.2033647468 C 0.3906306155,-3.1874872308 0.7811016168,-3.0752041826 1.0580437593,-2.8935928425 C 1.3372370405,-2.7133102762 1.4989754921,-2.4660164764 1.4973836828,-2.2170843836" />
      <path d="M 1.4973836828,-2.2170843836 Q 1.4973537291,-2.128072877 1.4712437196,-2.0405046737" />
      <path d="M -1.4565360428,-1.8134749811 Q -1.5025234743,-1.9126857059 -1.5026168728,-2.0152798338" />
      <path d="M -1.5026168728,-2.0152798338 C -1.5042085608,-2.2305777126 -1.3424687197,-2.4442370358 -1.0632759327,-2.5908855255 C -0.7863341655,-2.738862765 -0.3958639187,-2.8175121133 -0.0026165629,-2.7997555161 C 0.3906307248,-2.7838780389 0.7811024406,-2.6715945222 1.0580443012,-2.4899830362 C 1.3372373589,-2.3097002899 1.4989750203,-2.0624068872 1.4973832529,-1.813474981" />
      <path d="M 1.4973832529,-1.813474981 C 1.497978207,-1.6202554422 1.4021181489,-1.4275040533 1.2267507374,-1.2669897275" />
      <path d="M 1.2205886048,-1.2613681062 Q 1.1783745912,-1.2231441366 1.1305935357,-1.1875012854" />
      <path d="M 1.0814482574,-1.152526468 Q 1.000269839,-1.0974163527 0.9068906871,-1.0503601049" />
      <path d="M -1.456536192,-1.4098653389 Q -1.5025234582,-1.5090760605 -1.5026168728,-1.6116701283" />
      <path d="M -1.5026168728,-1.6116701283 C -1.5042086334,-1.8269731617 -1.3424602095,-2.0406371918 -1.0632568731,-2.1872863567 C -0.6491272737,-2.4126740219 0.0263393116,-2.4667509424 0.5714218061,-2.3035212056 C 0.8438435956,-2.2246330713 1.08132337,-2.0969817925 1.2445920062,-1.9395897861 C 1.408722535,-1.782537696 1.497901975,-1.596398329 1.4973836828,-1.4098655782" />
      <path d="M 1.4973836828,-1.4098655782 C 1.497978657,-1.2166460296 1.4021182775,-1.0238944545 1.2267507374,-0.8633801813" />
      <path d="M 1.2205885845,-0.8577585467 L 1.188411159,-0.829676877" />
      <path d="M 1.1574186925,-0.8044512846 L 1.1305934863,-0.7838917644" />
      <path d="M 1.0814471948,-0.7489162838 Q 1.0002598222,-0.6938002384 0.9068692698,-0.6467399037" />
      <path d="M -1.4565359301,-1.0062556781 Q -1.5025229503,-1.1054666118 -1.5026163307,-1.2080608588" />
      <path d="M -1.5026163307,-1.2080608588 C -1.5031346548,-1.3693707515 -1.4139523396,-1.5302872299 -1.2498169454,-1.6621150941 C -1.0865434917,-1.7942829005 -0.8490569775,-1.8967085951 -0.5766288161,-1.95036919 C -0.0315333301,-2.0631441795 0.6439431261,-1.9586034101 1.0580634701,-1.6827513441 C 1.3372431828,-1.5024696043 1.4989756954,-1.2551820559 1.4973842249,-1.0062558865" />
      <path d="M 1.4973842249,-1.0062558865 Q 1.4973327867,-0.9042717239 1.4631575425,-0.8044512844" />
      <path d="M -1.4674798745,-0.6278725586 Q -1.5025617071,-0.7150365558 -1.5026159008,-0.8044512845" />
      <path d="M -1.5026159008,-0.8044512845 C -1.5042076681,-1.0197490696 -1.3424700068,-1.233408351 -1.063276949,-1.3800569762 C -0.7863350885,-1.5280343409 -0.3958633726,-1.6066837364 -0.0026160848,-1.5889270923 C 0.3906312712,-1.5730495683 0.7811015181,-1.4607660986 1.0580432852,-1.2791547378 C 1.3372360721,-1.0988721269 1.4989759129,-0.8515786823 1.4973842249,-0.6026466822" />
      <path d="M 1.4973842249,-0.6026466822 Q 1.4973542691,-0.5136352453 1.4712439854,-0.4260670718" />
      <path d="M -1.456536192,-0.1990372303 Q -1.5025229471,-0.2982477444 -1.5026163307,-0.4008417103" />
      <path d="M -1.5026163307,-0.4008417103 C -1.50420814,-0.6161396831 -1.3424696884,-0.8297993631 -1.0632764072,-0.9764478095 C -0.7863342647,-1.1244250297 -0.3958632634,-1.203073958 -0.0026163239,-1.1853173541 C 0.3906306155,-1.1694398381 0.7811016168,-1.0571567899 1.0580437593,-0.8755454498 C 1.3372370405,-0.6952628835 1.4989754921,-0.4479690837 1.4973836828,-0.1990369909" />
      <path d="M 1.4973836828,-0.1990369909 Q 1.4973322625,-0.0970524793 1.4631571136,0.0027681988" />
      <path d="M -1.4674801305,0.1793468192 Q -1.5025626683,0.0921825844 -1.5026168728,0.0027675589" />
      <path d="M -1.5026168728,0.0027675589 C -1.5042085608,-0.2125303199 -1.3424687197,-0.4261896431 -1.0632759327,-0.5728381328 C -0.7863341655,-0.7208153723 -0.3958639187,-0.7994647207 -0.0026165629,-0.7817081234 C 0.3906307248,-0.7658306463 0.7811024406,-0.6535471295 1.0580443012,-0.4719356435 C 1.3372373589,-0.2916528972 1.4989750203,-0.0443594946 1.4973832529,0.2045724117" />
      <path d="M 1.4973832529,0.2045724117 Q 1.4973318373,0.3065563755 1.4631571136,0.4063766247" />
      <path d="M -1.4674801927,0.5829565806 Q -1.5025626552,0.4957922975 -1.5026168728,0.4063772644" />
      <path d="M -1.5026168728,0.4063772644 C -1.5042086334,0.191074231 -1.3424602095,-0.0225897991 -1.0632568731,-0.169238964 C -0.6491272737,-0.3946266292 0.0263393116,-0.4487035497 0.5714218061,-0.2854738129 C 0.8438435956,-0.2065856787 1.08132337,-0.0789343999 1.2445920062,0.0784576066 C 1.408722535,0.2355096966 1.497901975,0.4216490637 1.4973836828,0.6081818145" />
      <path d="M 1.4973836828,0.6081818145 Q 1.4973322659,0.710165997 1.4631573225,0.8099864939" />
      <path d="M -1.4674798745,0.9865661975 Q -1.502562135,0.8994017267 -1.5026163307,0.8099865339" />
      <path d="M -1.5026163307,0.8099865339 C -1.5031346548,0.6486766412 -1.4139523396,0.4877601628 -1.2498169454,0.3559322986 C -1.0865434917,0.2237644922 -0.8490569775,0.1213387976 -0.5766288161,0.0676782027 C -0.0315333301,-0.0450967868 0.6439431261,0.0594439826 1.0580634701,0.3352960486 C 1.3372431828,0.5155777884 1.4989756954,0.7628653368 1.4973842249,1.0117915062" />
      <path d="M 1.4973842249,1.0117915062 Q 1.49735426,1.1008026188 1.4712442201,1.1883705159" />
      <path d="M 1.4631575425,1.2135961083 Q 1.4486200184,1.2559968657 1.4280568048,1.2974529013" />
      <path d="M -1.4905316044,1.3175955179 Q -1.5026095142,1.2658223805 -1.5026159008,1.2135961082" />
      <path d="M -1.5026159008,1.2135961082 C -1.504017592,1.0052917811 -1.3529872671,0.798380058 -1.0898448642,0.6524453507 C -0.8287344978,0.5053706319 -0.4587626888,0.4212918019 -0.0787027339,0.4270003008 C 0.3012150748,0.4310561954 0.6865076499,0.5250406279 0.9743133211,0.6882069158 C 1.2639447336,0.8501175333 1.4525098414,1.0793961312 1.4896652515,1.3191762646" />
      <path d="M -1.3653630927,1.2749087914 C -1.1565107488,1.0226428815 -0.6959915149,0.845071637 -0.1904917007,0.831635391 C 0.313948118,0.8132431828 0.8439283157,0.9604341301 1.1615880411,1.2168940345" />
      <path d="M 0.8666935598,-5.4802301605 L 1.0580635496,-5.718846105" />
      <path d="M 1.0580634701,-5.7692973143 L 1.0580634701,-5.7188461295" />
      <path d="M 1.0580634701,-5.7692973143 C 1.3372431828,-5.5890155745 1.4989756954,-5.3417280261 1.4973842249,-5.0928018567" />
      <path d="M 1.4968548984,-5.0675762621 Q 1.4925093109,-4.965313438 1.4539433683,-4.8657716622" />
      <path d="M -0.3592556285,-4.1164899857 Q -0.5197549842,-4.1326650115 -0.6678896854,-4.168846828" />
      <path d="M -1.1350797977,-4.3563483901 L -1.1856041372,-4.3891743154" />
      <path d="M -1.2176148313,-4.4120371586 C -1.4019971934,-4.5482771011 -1.5032765441,-4.7193698631 -1.5026159008,-4.8909972547" />
      <path d="M -1.5026159008,-4.8909972547 C -1.5042076681,-5.1062950398 -1.3424700068,-5.3199543212 -1.063276949,-5.4666029463 C -0.7863350885,-5.6145803111 -0.3958633726,-5.6932297066 -0.0026160848,-5.6754730625 C 0.3906312712,-5.6595955385 0.7811015181,-5.5473120688 1.0580432852,-5.365700708 C 1.3372360721,-5.1854180971 1.4989759129,-4.9381246525 1.4973842249,-4.6891926524" />
      <path d="M 1.4973842249,-4.6891926524 L 1.4968548984,-4.6639670622" />
      <path d="M -1.5019083515,-4.4621620892 L -1.5026163307,-4.4873876805" />
      <path d="M -1.5026163307,-4.4873876805 C -1.50420814,-4.7026856533 -1.3424696884,-4.9163453333 -1.0632764072,-5.0629937797 C -0.7863342647,-5.2109709999 -0.3958632634,-5.2896199282 -0.0026163239,-5.2718633243 C 0.3906306155,-5.2559858083 0.7811016168,-5.1437027601 1.0580437593,-4.96209142 C 1.3372370405,-4.7818088537 1.4989754921,-4.5345150539 1.4973836828,-4.2855829611" />
      <path d="M 1.4973836828,-4.2855829611 L 1.4968543625,-4.2603573695" />
      <path d="M -1.5019088852,-4.0585528215 L -1.5026168728,-4.0837784113" />
      <path d="M -1.5026168728,-4.0837784113 C -1.5042085608,-4.2990762901 -1.3424687197,-4.5127356133 -1.0632759327,-4.659384103 C -0.7863341655,-4.8073613425 -0.3958639187,-4.8860106908 -0.0026165629,-4.8682540936 C 0.3906307248,-4.8523766164 0.7811024406,-4.7400930997 1.0580443012,-4.5584816137 C 1.3372373589,-4.3781988674 1.4989750203,-4.1309054647 1.4973832529,-3.8819735585" />
      <path d="M 1.4973832529,-3.8819735585 L 1.4968539339,-3.8567479661" />
      <path d="M -1.5026168728,-3.6801687058 C -1.5042086334,-3.8954717392 -1.3424602095,-4.1091357693 -1.0632568731,-4.2557849342 C -0.6491272737,-4.4811725994 0.0263393116,-4.5352495199 0.5714218061,-4.3720197831 C 0.8438435956,-4.2931316488 1.08132337,-4.1654803701 1.2445920062,-4.0080883636 C 1.408722535,-3.8510362736 1.497901975,-3.6648969065 1.4973836828,-3.4783641557" />
      <path d="M -1.5019083515,-3.2513338428 L -1.5026163307,-3.2765594363" />
      <path d="M -1.5026163307,-3.2765594363 C -1.5031346548,-3.437869329 -1.4139523396,-3.5987858074 -1.2498169454,-3.7306136716 C -1.0865434917,-3.862781478 -0.8490569775,-3.9652071726 -0.5766288161,-4.0188677675 C -0.0315333301,-4.131642757 0.6439431261,-4.0271019876 1.0580634701,-3.7512499216 C 1.3372431828,-3.5709681818 1.4989756954,-3.3236806334 1.4973842249,-3.074754464" />
      <path d="M 1.4973842249,-3.074754464 L 1.4968548984,-3.0495288694" />
      <path d="M -1.5019079231,-2.8477242696 L -1.5026159008,-2.872949862" />
      <path d="M -1.5026159008,-2.872949862 C -1.5042076681,-3.0882476471 -1.3424700068,-3.3019069285 -1.063276949,-3.4485555537 C -0.7863350885,-3.5965329184 -0.3958633726,-3.6751823139 -0.0026160848,-3.6574256698 C 0.3906312712,-3.6415481458 0.7811015181,-3.5292646761 1.0580432852,-3.3476533153 C 1.3372360721,-3.1673707044 1.4989759129,-2.9200772598 1.4973842249,-2.6711452597" />
      <path d="M 1.4973842249,-2.6711452597 Q 1.497301257,-2.5560819269 1.4539431637,-2.4441148158" />
      <path d="M 0.4851354167,-1.7542539095 Q 0.3164800134,-1.7124699448 0.1389622248,-1.6948889444" />
      <path d="M -0.3592556657,-1.6948330033 Q -0.519747582,-1.7110074602 -0.66787614,-1.7471868953" />
      <path d="M -1.5019083515,-2.4441146965 L -1.5026163307,-2.4693402878" />
      <path d="M -1.5026163307,-2.4693402878 C -1.50420814,-2.6846382606 -1.3424696884,-2.8982979406 -1.0632764072,-3.044946387 C -0.7863342647,-3.1929236072 -0.3958632634,-3.2715725355 -0.0026163239,-3.2538159316 C 0.3906306155,-3.2379384156 0.7811016168,-3.1256553674 1.0580437593,-2.9440440273 C 1.3372370405,-2.763761461 1.4989754921,-2.5164676612 1.4973836828,-2.2675355684" />
      <path d="M 1.4973836828,-2.2675355684 L 1.4968543625,-2.2423099768" />
      <path d="M -1.5026168728,-2.0657310186 C -1.5042085608,-2.2810288974 -1.3424687197,-2.4946882206 -1.0632759327,-2.6413367103 C -0.7863341655,-2.7893139498 -0.3958639187,-2.8679632982 -0.0026165629,-2.8502067009 C 0.3906307248,-2.8343292238 0.7811024406,-2.722045707 1.0580443012,-2.540434221 C 1.3372373589,-2.3601514747 1.4989750203,-2.1128580721 1.4973832529,-1.8639261658" />
      <path d="M 1.4968539339,-1.8387005734 Q 1.4925084379,-1.7364379023 1.4539430159,-1.6368962677" />
      <path d="M -0.3592557417,-0.8876141779 Q -0.5197417886,-0.9037878701 -0.6678654045,-0.9399651671" />
      <path d="M -1.5026168728,-1.6621213132 C -1.5042086334,-1.8774243465 -1.3424602095,-2.0910883766 -1.0632568731,-2.2377375415 C -0.6491272737,-2.4631252067 0.0263393116,-2.5172021272 0.5714218061,-2.3539723904 C 0.8438435956,-2.2750842562 1.08132337,-2.1474329774 1.2445920062,-1.9900409709 C 1.408722535,-1.8329888809 1.497901975,-1.6468495138 1.4973836828,-1.460316763" />
      <path d="M 1.4973836828,-1.460316763 Q 1.4973007309,-1.3452534862 1.4539431637,-1.2332863306" />
      <path d="M -0.3592542406,-0.4840047324 Q -0.5197325887,-0.5001774752 -0.667850043,-0.5363519311" />
      <path d="M -1.5019083515,-1.2332864501 L -1.5026163307,-1.2585120436" />
      <path d="M -1.5026163307,-1.2585120436 C -1.5031346548,-1.4198219363 -1.4139523396,-1.5807384147 -1.2498169454,-1.7125662789 C -1.0865434917,-1.8447340853 -0.8490569775,-1.9471597799 -0.5766288161,-2.0008203748 C -0.0315333301,-2.1135953643 0.6439431261,-2.0090545949 1.0580634701,-1.7332025289 C 1.3372431828,-1.5529207891 1.4989756954,-1.3056332407 1.4973842249,-1.0567070713" />
      <path d="M 1.4973842249,-1.0567070713 Q 1.4973012417,-0.9416438938 1.4539433683,-0.8296768769" />
      <path d="M 0.4851351157,-0.1398156676 Q 0.3164792749,-0.0980319291 0.1389609143,-0.0804511371" />
      <path d="M -0.3592555242,-0.0803951898 Q -0.5197473018,-0.0965694375 -0.6678757594,-0.1327486405" />
      <path d="M -1.5019079231,-0.8296768769 L -1.5026159008,-0.8549024693" />
      <path d="M -1.5026159008,-0.8549024693 C -1.5042076681,-1.0702002544 -1.3424700068,-1.2838595359 -1.063276949,-1.430508161 C -0.7863350885,-1.5784855257 -0.3958633726,-1.6571349213 -0.0026160848,-1.6393782771 C 0.3906312712,-1.6235007531 0.7811015181,-1.5112172835 1.0580432852,-1.3296059226 C 1.3372360721,-1.1493233117 1.4989759129,-0.9020298671 1.4973842249,-0.653097867" />
      <path d="M 1.4973842249,-0.653097867 Q 1.497332799,-0.551113472 1.4631573225,-0.451292855" />
      <path d="M 1.4539431637,-0.4260674231 Q 1.3864395272,-0.2533754009 1.2257226869,-0.1056696445" />
      <path d="M 1.212056089,-0.0933417892 Q 1.1632896504,-0.0500625716 1.1073922266,-0.0102035754" />
      <path d="M 0.4851355136,0.2637934591 Q 0.3164789814,0.3055777098 0.1389599755,0.3231586709" />
      <path d="M -1.5026163307,-0.4512928951 C -1.50420814,-0.6665908679 -1.3424696884,-0.8802505479 -1.0632764072,-1.0268989943 C -0.7863342647,-1.1748762145 -0.3958632634,-1.2535251428 -0.0026163239,-1.2357685389 C 0.3906306155,-1.2198910229 0.7811016168,-1.1076079747 1.0580437593,-0.9259966346 C 1.3372370405,-0.7457140683 1.4989754921,-0.4984202685 1.4973836828,-0.2494881757" />
      <path d="M -0.3592552012,0.7268237884 Q -0.5197042454,0.7106535996 -0.6677974921,0.6744888872" />
      <path d="M -1.1350721134,0.4869697353 L -1.1856038652,0.454139095" />
      <path d="M -1.2176155751,0.4312753878 C -1.401996423,0.2950355738 -1.5032776934,0.123943407 -1.5026168728,-0.0476836259" />
      <path d="M -1.5026168728,-0.0476836259 C -1.5042085608,-0.2629815047 -1.3424687197,-0.476640828 -1.0632759327,-0.6232893176 C -0.7863341655,-0.7712665571 -0.3958639187,-0.8499159055 -0.0026165629,-0.8321593082 C 0.3906307248,-0.8162818311 0.7811024406,-0.7039983143 1.0580443012,-0.5223868283 C 1.3372373589,-0.342104082 1.4989750203,-0.0948106794 1.4973832529,0.1541212269" />
      <path d="M 1.4973832529,0.1541212269 L 1.4968539339,0.1793468193" />
      <path d="M -1.5019088852,0.3811516745 L -1.5026168728,0.3559260795" />
      <path d="M -1.5026168728,0.3559260795 C -1.5042086334,0.1406230462 -1.3424602095,-0.0730409839 -1.0632568731,-0.2196901488 C -0.6491272737,-0.445077814 0.0263393116,-0.4991547346 0.5714218061,-0.3359249977 C 0.8438435956,-0.2570368635 1.08132337,-0.1293855847 1.2445920062,0.0280064218 C 1.408722535,0.1850585118 1.497901975,0.3711978789 1.4973836828,0.5577306296" />
      <path d="M 1.4973836828,0.5577306296 L 1.4968543625,0.5829562229" />
      <path d="M -1.5019083515,0.7847609426 L -1.5026163307,0.7595353491" />
      <path d="M -1.5026163307,0.7595353491 C -1.5031346548,0.5982254564 -1.4139523396,0.437308978 -1.2498169454,0.3054811138 C -1.0865434917,0.1733133074 -0.8490569775,0.0708876128 -0.5766288161,0.0172270179 C -0.0315333301,-0.0955479716 0.6439431261,0.0089927978 1.0580634701,0.2848448637 C 1.3372431828,0.4651266035 1.4989756954,0.712414152 1.4973842249,0.9613403214" />
      <path d="M 1.4973842249,0.9613403214 L 1.4968548984,0.986565916" />
      <path d="M -1.5026159008,1.1631449234 C -1.5041196042,0.951008236 -1.3472708917,0.7403949946 -1.075368508,0.5940220757 C -0.8056170207,0.4464084034 -0.42441963,0.3652142039 -0.0370111607,0.3774288318 C 0.3503284107,0.3878687661 0.7387176018,0.4917873107 1.0209384138,0.6650713146 C 1.3052113153,0.8370576556 1.4795436874,1.0763304658 1.4958068483,1.3214105426" />
      <path d="M -1.4154927372,1.2914063264 C -1.2343204705,1.0048714798 -0.7382464849,0.7940038091 -0.1858122619,0.7810418686 C 0.3651912995,0.7612173738 0.9428012689,0.9414590591 1.2459820115,1.2401718974" />
      <path d="M 0.9917886049,1.1758593692 Q 0.9349748587,1.1247024082 0.8666935437,1.0793524203" />
      <path d="M 0.8666935437,1.0793524203 C 0.5327740456,0.8526559021 -0.0083454367,0.7611330848 -0.4511728166,0.8423908274 C -0.7755148129,0.898212044 -1.0393494449,1.0393975877 -1.157179584,1.2143598913" />
      <path d="M 1.2264491749,1.2217967718 C 1.2207050053,1.0206934334 1.0889473301,0.8222913942 0.8666935437,0.6757431585" />
      <path d="M -1.2319833418,1.0374814493 Q -1.2319237382,1.1140518503 -1.1995063248,1.1883684102" />
      <path d="M 1.2264493784,0.8181881451 C 1.2207063656,0.6170834261 1.0889377927,0.4186719649 0.8666935437,0.2721335579" />
      <path d="M 0.8666935437,0.2721335579 C 0.6723269088,0.1424190474 0.410368945,0.0534474999 0.136384273,0.0210693209 C -0.125835718,-0.0107006896 -0.3975153657,0.0094586499 -0.624834584,0.0748537931 C -0.8528004635,0.1396005629 -1.0355021929,0.2492228449 -1.1367858069,0.3793343399 C -1.199910739,0.460433057 -1.2316432852,0.5452788738 -1.2319834453,0.6338717904" />
      <path d="M -0.9721661815,1.0374809395 Q -0.8906224572,1.0922744178 -0.788783721,1.1354079589" />
      <path d="M 0.6449504293,1.1141395312 Q 0.7263935625,1.0793443549 0.7990307819,1.0374811977" />
      <path d="M 1.2267507346,0.4320670888 C 1.2280496823,0.2249978584 1.0955073831,0.0193248019 0.8666935437,-0.1314758244" />
      <path d="M 0.8666935437,-0.1314758244 C 0.6656898081,-0.2657207782 0.3917567852,-0.3562908538 0.1077588311,-0.3857663937 C -0.1760882671,-0.4162636323 -0.4684496291,-0.3856672641 -0.7024128738,-0.3043359126 C -1.0302412676,-0.1930910251 -1.2348585749,0.0167023171 -1.2319811086,0.2302560664" />
      <path d="M -1.2319811086,0.2302560664 Q -1.2319219461,0.3068211815 -1.1995039788,0.3811587387" />
      <path d="M -1.1731690274,0.4320648307 Q -1.1264460657,0.5099014653 -1.0457617065,0.5784209884" />
      <path d="M -0.3592543138,0.8426983785 Q -0.1147388265,0.8729408384 0.1389605254,0.8427544878" />
      <path d="M 1.226749948,0.0284577079 C 1.2280684794,-0.1785400865 1.0955284201,-0.3842847017 0.8666935437,-0.5350855187" />
      <path d="M 0.8666935437,-0.5350855187 C 0.5289786741,-0.7645033941 -0.0207521549,-0.8551544291 -0.4663997335,-0.7693124656 C -0.5367556114,-0.7563465876 -0.603914192,-0.7397044746 -0.6678754756,-0.7193861265" />
      <path d="M -1.2319833539,-0.1733473505 Q -1.2319707427,-0.1226255735 -1.2176201897,-0.0725783237" />
      <path d="M -0.9721658598,0.2302624613 Q -0.8331444263,0.3235276058 -0.6403422147,0.3811507704" />
      <path d="M 0.880113967,0.179347906 Q 0.9814416493,0.1100219296 1.0556150756,0.0284511578" />
      <path d="M 1.0981862978,-0.0224701657 Q 1.153965227,-0.095272759 1.1860221435,-0.1733546703" />
      <path d="M 1.2257196732,-0.3428592591 L 1.2267472488,-0.3751514628" />
      <path d="M -0.9721677609,-0.1733458095 Q -0.8331589474,-0.0800996785 -0.6403288922,-0.022462643" />
      <path d="M -0.4101119981,0.0284575729 Q -0.1425268567,0.068855972 0.138962314,0.0355351993" />
      <path d="M 0.4325925736,-0.022457871 Q 0.6347473202,-0.0789885338 0.7990308332,-0.1733470034" />
      <path d="M 1.2264493415,-0.7962504679 C 1.2207325724,-0.9973012075 1.0889368944,-1.1957724673 0.8666935437,-1.3423042342" />
      <path d="M 0.8666935437,-1.3423042342 C 0.494267747,-1.5969410825 -0.137017074,-1.6766531042 -0.6004462146,-1.5463446426 C -0.6229116544,-1.5397675051 -0.6453770941,-1.5331903676 -0.6678425338,-1.52661323" />
      <path d="M -1.2319803943,-0.9805580013 Q -1.2319793025,-0.9517010926 -1.2273109777,-0.9229685426" />
      <path d="M -0.9721562601,-0.5769628884 Q -0.8330486189,-0.4836491285 -0.6403431344,-0.4260664484" />
      <path d="M -0.359184454,-0.3681372511 Q -0.0879614901,-0.3346698459 0.1917027431,-0.3751535828" />
      <path d="M 0.4325951683,-0.4260665789 Q 0.6348078668,-0.4826185697 0.7990279359,-0.576958396" />
      <path d="M 0.8801083946,-0.6278746235 Q 0.9814501854,-0.697212323 1.0556194507,-0.7787596249" />
      <path d="M 1.130593462,-0.8754620077 Q 1.1640120252,-0.9268692214 1.1860255344,-0.9805661648" />
      <path d="M 1.2041339375,-1.0314816302 Q 1.2267254496,-1.1062985186 1.2267507336,-1.1823710768" />
      <path d="M 1.2267507336,-1.1823710768 C 1.2281108605,-1.3893064826 1.0954794429,-1.5951654746 0.8666935437,-1.7459138348" />
      <path d="M 0.8666935437,-1.7459138348 C 0.5704263206,-1.9458484707 0.1122323366,-2.0432145797 -0.2973237193,-2.0033016093 C -0.4296392773,-1.9909776673 -0.5531565594,-1.9666152613 -0.6678755657,-1.9302143916" />
      <path d="M -1.2319757267,-1.3841956245 Q -1.231966985,-1.3334737082 -1.2176193728,-1.2834080097" />
      <path d="M -0.410113355,-0.7787611637 C -0.2181451137,-0.74944582 -0.0092590789,-0.7490169983 0.1917112148,-0.7787616546" />
      <path d="M 0.880112216,-1.0314817108 Q 0.9814323498,-1.1008046699 1.0556208575,-1.1823707885" />
      <path d="M 1.0981955926,-1.2332867296 Q 1.1539905293,-1.3061028791 1.1860254107,-1.3841758344" />
      <path d="M 1.2041320566,-1.4350848369 Q 1.2267214171,-1.5098806998 1.2267506404,-1.5859805528" />
      <path d="M 1.2267506404,-1.5859805528 C 1.2280521277,-1.7930500895 1.0955017452,-1.9987263144 0.8666935437,-2.1495232171" />
      <path d="M 0.8666935437,-2.1495232171 Q 0.7005094889,-2.2594088061 0.4851346962,-2.3267571143" />
      <path d="M -1.2319816445,-1.7878065301 Q -1.2319679721,-1.7371006832 -1.2176090202,-1.6870248686" />
      <path d="M 0.4325922066,-1.2332863691 Q 0.6347956358,-1.289837749 0.7990306355,-1.3841755632" />
      <path d="M 0.8801110944,-1.4350918609 Q 0.9814431461,-1.5044313563 1.0556204999,-1.5859805226" />
      <path d="M 1.0981969325,-1.6368955047 Q 1.1539875063,-1.7097009833 1.1860226081,-1.7877922317" />
      <path d="M -0.3592523037,-1.5789588874 Q -0.088168025,-1.5454991222 0.1917125336,-1.5859804459" />
      <path d="M 0.4325926986,-1.6368958883 Q 0.6348888724,-1.6934848657 0.7990308337,-1.7877849865" />
      <path d="M 0.485136996,-3.1339753767 C 0.1098861109,-3.2531722515 -0.3468561187,-3.2499763602 -0.6860773079,-3.1351317922 C -1.0232061122,-3.0252218093 -1.235019594,-2.8121327015 -1.2319860704,-2.5950002241" />
      <path d="M -0.4101066258,-1.9895889748 C -0.218216153,-1.9602803498 -0.0091834108,-1.9598402928 0.1917132996,-1.9895899113" />
      <path d="M 0.4325879481,-2.0405065411 Q 0.6348382365,-2.0970728956 0.7990327739,-2.1913932785" />
      <path d="M -0.6678756914,-3.5446525227 C -1.0150391447,-3.4364616924 -1.235210993,-3.2198735245 -1.231983441,-2.9986133141" />
      <path d="M -0.3592551914,-2.3861775433 Q -0.1147293554,-2.3559341992 0.1389630697,-2.3861216209" />
      <path d="M 0.4851229326,-3.9411977289 C 0.4067619741,-3.9656161891 0.3257643478,-3.9850694068 0.2421300536,-3.999557382 C -0.0100806837,-4.0435841382 -0.2785164105,-4.0389622686 -0.5125310193,-3.9890674235 C -0.7470239622,-3.9397919178 -0.9462185438,-3.8455128081 -1.0725399361,-3.7265289622 C -1.1778978422,-3.6265473307 -1.2310456571,-3.5184453348 -1.2319833808,-3.4022229746" />
      <path d="M -0.4101116437,-3.2004182358 L -0.3592542516,-3.1933964132" />
      <path d="M 0.1389603953,-3.1933403105 L 0.1917126739,-3.2004181849" />
      <path d="M 0.8666935437,-4.5711803041 C 0.6705718357,-4.7021183918 0.4050835075,-4.7916212464 0.12846584,-4.823177057 C -0.1479983715,-4.8556540721 -0.4342154171,-4.8302277305 -0.6678755458,-4.7554808947" />
      <path d="M -0.4101128414,-3.6040277425 L -0.3592555448,-3.5970059547" />
      <path d="M 0.1389612978,-3.5969499715 L 0.1917098877,-3.604027313" />
      <path d="M 0.8666935437,-4.9747897577 C 0.671381046,-5.1051432738 0.4077886971,-5.1943398256 0.132356733,-5.226331914 C -0.1453898503,-5.2594985557 -0.43329735,-5.2341600267 -0.6678762499,-5.1590902062" />
      <path d="M -1.231983418,-4.6130514045 Q -1.2319236889,-4.5364843708 -1.1995051687,-4.4621576384" />
      <path d="M -1.1731704104,-4.4112467137 Q -1.1264677606,-4.3334304473 -1.045761588,-4.2648925967" />
      <path d="M -0.4101127107,-4.0076372836 C -0.2180341999,-3.9783133591 -0.0091812195,-3.9778978321 0.1917126622,-4.0076372101" />
      <path d="M 1.2267465203,-4.8148654045 C 1.2280331539,-5.0219546239 1.0955216135,-5.2275666372 0.8666935437,-5.3783990195" />
      <path d="M 0.8666935437,-5.3783990195 C 0.5430880406,-5.5976956559 0.0253748765,-5.6913553602 -0.409578174,-5.6221562004 C -0.5005772221,-5.6083074117 -0.5866764016,-5.5884886484 -0.6678757126,-5.5626999102" />
      <path d="M -1.2319833542,-5.0166607321 Q -1.2319270116,-4.940107792 -1.1995055042,-4.8657677124" />
      <path d="M -1.173170453,-4.8148561171 Q -1.1248806583,-4.7344090879 -1.040362595,-4.6639683554" />
      <path d="M -0.9721656251,-4.6130513961 Q -0.8331573733,-4.5197935315 -0.6403413358,-4.4621613376" />
      <path d="M 0.4325922318,-4.4621621768 Q 0.6347992228,-4.5187151669 0.7990309749,-4.6130514185" />
      <line x1="0.8666935437" y1="-5.48023017" x2="0.8666935437" y2="-5.3783990195" />
      <line x1="0.8666935437" y1="-5.0766207937" x2="0.8666935437" y2="-5.0683103797" />
      <line x1="0.8666935437" y1="-5.0178591949" x2="0.8666935437" y2="-4.9747897577" />
      <line x1="0.8666935437" y1="-4.6730110994" x2="0.8666935437" y2="-4.6647009807" />
      <line x1="0.8666935437" y1="-4.2694016457" x2="0.8666935437" y2="-4.261091038" />
      <line x1="0.8666935437" y1="-3.8657923839" x2="0.8666935437" y2="-3.8070302342" />
      <line x1="0.8666935437" y1="-3.4621827833" x2="0.8666935437" y2="-3.4034210517" />
      <line x1="0.8666935437" y1="-3.058573401" x2="0.8666935437" y2="-2.9998118022" />
      <line x1="0.8666935437" y1="-2.6549637067" x2="0.8666935437" y2="-2.646653588" />
      <line x1="0.8666935437" y1="-2.2513542531" x2="0.8666935437" y2="-2.2430436454" />
      <line x1="0.8666935437" y1="-2.1925924605" x2="0.8666935437" y2="-2.1495232171" />
      <line x1="0.8666935437" y1="-1.8477449912" x2="0.8666935437" y2="-1.7459138348" />
      <line x1="0.8666935437" y1="-1.4441353906" x2="0.8666935437" y2="-1.3423042342" />
      <line x1="0.8666935437" y1="-1.0405260083" x2="0.8666935437" y2="-1.0322155943" />
      <line x1="0.8666935437" y1="-0.636916314" x2="0.8666935437" y2="-0.5350855187" />
      <line x1="0.8666935437" y1="-0.2333068604" x2="0.8666935437" y2="-0.1314758244" />
      <line x1="0.8666935437" y1="0.1703024014" x2="0.8666935437" y2="0.2721335579" />
      <line x1="0.8666935437" y1="0.5739120021" x2="0.8666935437" y2="0.5822225489" />
      <line x1="0.8666935437" y1="0.6326737337" x2="0.8666935437" y2="0.6757431585" />
      <line x1="0.8666935437" y1="0.9775213844" x2="0.8666935437" y2="1.0793524203" />
      <path d="M 1.0580635496,-5.718846105 C 0.7613915738,-5.8564372489 0.3868892802,-5.9261708714 0.0282923434,-5.9162309347 C -0.274998762,-5.9087702542 -0.5647231095,-5.8462458355 -0.7941721972,-5.7433978994" />
      <path d="M -0.7941721972,-5.7433978994 C -0.7902928019,-5.7443476023 -0.7843053056,-5.7459021086 -0.7762097084,-5.7480614184 C -0.7640742049,-5.751188422 -0.7538055805,-5.7544404451 -0.7050903314,-5.7668122478 C -0.6617729347,-5.7779304252 -0.5775139042,-5.7961552731 -0.4956210421,-5.806095484 C -0.4097492538,-5.8170395616 -0.3203453536,-5.8220568985 -0.2274093412,-5.8211474947 C 0.1636043907,-5.8187458041 0.5869811496,-5.6945843567 0.8666935437,-5.4802301727" />
      <path d="M 1.0580635496,-5.7692972898 C 0.873387083,-5.8545011485 0.6589909866,-5.9145381928 0.436663505,-5.9445024474" />
      <path d="M 0.436663505,-5.9445024474 C -0.0015596073,-6.0050730605 -0.4630311578,-5.9435305937 -0.7941721972,-5.7938490842" />
      <path d="M -0.7941721972,-5.7433978994 L -0.7941721972,-5.7938490842" />
      <path d="M 1.2239979579,-5.2712982876 A 1.2293670613173628,0.7256365039681919 -1.9700693681601446e-15 0,1 1.2099695576,-5.2003450223" />
      <path d="M 0.9829875728,-4.886114974 A 1.2293670613173628,0.7256365039681919 -1.9700693681601446e-15 0,1 0.7456400439,-4.7440839119" />
      <path d="M 0.6278690095,-4.6968895574 A 1.2293670613173628,0.7256365039681919 -1.9700693681601446e-15 0,1 -0.7292042531,-4.7344946461" />
      <path d="M -1.1084723417,-5.0028345169 A 1.2293670613173628,0.7256365039681919 -1.9700693681601446e-15 0,1 -1.202234996,-5.1611659096" />
      <path d="M -1.2319833852,-5.3198311373 A 1.2293670613173628,0.7256365039681919 -1.9700693681601446e-15 0,1 0.8144876253,-5.8619912796" />
      <path d="M -0.7941721972,-5.7938490842 C -0.7862308331,-5.7985211069 -0.7793024368,-5.8030838937 -0.7515954451,-5.8172641733 C -0.7407190481,-5.8233213418 -0.7154114647,-5.8348780613 -0.6756726951,-5.8519343319 C -0.628330001,-5.8717596159 -0.5609173266,-5.8955912634 -0.4938577101,-5.9138280334 C -0.2438151869,-5.9830551163 0.0462117107,-6.0000765442 0.3115359142,-5.9618540658" />
      <path d="M 2.6701424104,3.3363384773 C 2.41002961,3.7520240449 2.0605433312,4.109246984 1.6598845466,4.3713434859 C 1.3636672763,4.5657436085 1.0408715672,4.707518838 0.7147697383,4.7902661723 C 0.4733664928,4.8513896583 0.2316815454,4.8815520276 -0.0102851039,4.8807532801 C -0.5742428135,4.8807268403 -1.1604554923,4.7055168082 -1.675278316,4.364655625 C -2.071714277,4.1031982911 -2.417453614,3.7484967793 -2.6753750583,3.3363384773" />
      <path d="M 1.4973842249,-5.0423506719 L 1.4973842249,-5.0928018567" />
      <path d="M -1.5026159008,-4.8405460699 L -1.5026159008,-4.8909972547" />
      <path d="M 1.4973842249,-4.6387414676 L 1.4973842249,-4.6891926524" />
      <path d="M -1.5026163307,-4.4369364957 L -1.5026163307,-4.4873876805" />
      <path d="M 1.4973836828,-4.2351317763 L 1.4973836828,-4.2855829611" />
      <path d="M -1.5026168728,-4.0333272265 L -1.5026168728,-4.0837784113" />
      <path d="M 1.4973832529,-3.8315223736 L 1.4973832529,-3.8819735585" />
      <path d="M -1.5026168728,-3.629717521 L -1.5026168728,-3.6801687058" />
      <path d="M 1.4973836828,-3.4279129709 L 1.4973836828,-3.4783641557" />
      <path d="M -1.5026163307,-3.2261082515 L -1.5026163307,-3.2765594363" />
      <path d="M 1.4973842249,-3.0243032792 L 1.4973842249,-3.074754464" />
      <path d="M -1.5026159008,-2.8224986772 L -1.5026159008,-2.872949862" />
      <path d="M 1.4973842249,-2.6206940749 L 1.4973842249,-2.6711452597" />
      <path d="M -1.5026163307,-2.418889103 L -1.5026163307,-2.4693402878" />
      <path d="M 1.4973836828,-2.2170843836 L 1.4973836828,-2.2675355684" />
      <path d="M -1.5026168728,-2.0152798338 L -1.5026168728,-2.0657310186" />
      <path d="M 1.4973832529,-1.813474981 L 1.4973832529,-1.8639261658" />
      <path d="M -1.5026168728,-1.6116701283 L -1.5026168728,-1.6621213132" />
      <path d="M 1.4973836828,-1.4098655782 L 1.4973836828,-1.460316763" />
      <path d="M -1.5026163307,-1.2080608588 L -1.5026163307,-1.2585120436" />
      <path d="M 1.4973842249,-1.0062558865 L 1.4973842249,-1.0567070713" />
      <path d="M -1.5026159008,-0.8044512845 L -1.5026159008,-0.8549024693" />
      <path d="M 1.4973842249,-0.6026466822 L 1.4973842249,-0.653097867" />
      <path d="M -1.5026163307,-0.4008417103 L -1.5026163307,-0.4512928951" />
      <path d="M 1.4973836828,-0.1990369909 L 1.4973836828,-0.2494881757" />
      <path d="M -1.5026168728,0.0027675589 L -1.5026168728,-0.0476836259" />
      <path d="M 1.4973832529,0.2045724117 L 1.4973832529,0.1541212269" />
      <path d="M -1.5026168728,0.4063772644 L -1.5026168728,0.3559260795" />
      <path d="M 1.4973836828,0.6081818145 L 1.4973836828,0.5577306296" />
      <path d="M -1.5026163307,0.8099865339 L -1.5026163307,0.7595353491" />
      <path d="M 1.4973842249,1.0117915062 L 1.4973842249,0.9613403214" />
      <path d="M -1.5026159008,1.2135961082 L -1.5026159008,1.1631449234" />
      <line x1="1.2267507374" y1="-4.024849012" x2="1.2267507374" y2="-4.109468236" />
      <line x1="-1.2319833852" y1="-1.7877852658" x2="-1.2319833852" y2="-1.8896158783" />
      <line x1="1.2267507374" y1="-1.5859803031" x2="1.2267507374" y2="-1.6878115123" />
      <line x1="1.2267507374" y1="-1.182371045" x2="1.2267507374" y2="-1.2842018536" />
      <line x1="1.2267507374" y1="-0.7959735727" x2="1.2267507374" y2="-0.8805921819" />
      <line x1="1.2267507374" y1="0.0284577584" x2="1.2267507374" y2="-0.0733734506" />
      <line x1="-1.2319833852" y1="-5.3086471339" x2="-1.2319833852" y2="-5.3198311373" />
      <path d="M 0.3115359145,-5.9618540658 L 0.436663505,-5.9445024474" />
    </g>
  </g>
</svg>