<?xml version='1.0' encoding='utf-8'?>
<svg width="314.1985700713mm" height="513.000000001mm" viewBox="-3.4643815693 -4.8556386383 6.9220309536 11.301776066" version="1.1" xmlns="http://www.w3.org/2000/svg">
  <g transform="scale(1,-1)" stroke-linecap="round">
    <g fill="none" stroke="rgb(64,192,64)" stroke-width="0.022030752565260193" id="Visible">
      <path d="M 0.9158946024,3.1665204972 A 1.300000000023981,0.7650298513634949 0.0 0,1 -0.9226267874,4.2484103367 A 1.300000000023981,0.7650298513634949 0.0 0,1 0.9158946024,3.1665204972" />
      <line x1="-0.3141513133" y1="3.0248371239" x2="0.8458105629" y2="3.2077619049" />
      <line x1="-1.1633279688" y1="3.5245406359" x2="-0.3141513133" y2="3.0248371239" />
      <line x1="-0.8525427479" y1="4.207168929" x2="-1.1633279688" y2="3.5245406359" />
      <line x1="0.3074191283" y1="4.3900937101" x2="-0.8525427479" y2="4.207168929" />
      <line x1="1.1565957838" y1="3.890390198" x2="0.3074191283" y2="4.3900937101" />
      <line x1="0.8458105629" y1="3.2077619049" x2="1.1565957838" y2="3.890390198" />
      <path d="M 1.8351552973,1.857492504 A 2.6000000000000005,1.530059702698765 0.0 0,1 1.9968445794,3.9168969532" />
      <path d="M -2.0035767643,3.9168969532 A 2.6000000000000005,1.530059702698765 0.0 0,1 1.8351552973,1.857492504" />
      <line x1="-0.8525427479" y1="4.207168929" x2="-0.8525427479" y2="3.3663200907" />
      <line x1="-0.8525427479" y1="3.3663200907" x2="-0.861398671" y2="3.3468683818" />
      <line x1="0.3074191283" y1="4.3900937101" x2="0.3074191283" y2="3.5492448717" />
      <line x1="0.3074191283" y1="3.5492448717" x2="-0.8525427479" y2="3.3663200907" />
      <line x1="0.854666486" y1="3.2272136138" x2="0.3074191283" y2="3.5492448717" />
      <path d="M 0.8659483837,-5.4657007863 C 0.6659962048,-5.5989039282 0.3938657603,-5.6890560661 0.1114295236,-5.7189661266 C -0.1708534152,-5.7498744113 -0.4619252825,-5.7205492882 -0.6958383807,-5.6409526445 C -1.0278734994,-5.5307054703 -1.2356651147,-5.320171135 -1.2327310544,-5.1057333002" />
      <path d="M -1.2290469307,-5.0547494104 Q -1.2177735653,-4.9772549956 -1.1733045445,-4.9036188241" />
      <path d="M -1.1379525142,-4.8526233823 Q -1.0733331376,-4.7703468247 -0.9698423145,-4.7014906809" />
      <path d="M 0.7938690761,-4.701489539 Q 0.912738266,-4.7692793297 1.0026111098,-4.8526197414" />
      <path d="M 1.0648809456,-5.6992358601 Q 0.9828225968,-5.792494721 0.8659483837,-5.8699549391" />
      <path d="M 0.8659483837,-5.061446321 C 0.4936998005,-5.3153209781 -0.1371918042,-5.3950009251 -0.6005824053,-5.2654242257 C -0.8404907171,-5.2017346784 -1.0330448649,-5.0893122867 -1.1379275247,-4.9546489241" />
      <path d="M 0.9105639505,-5.4346280911 L 0.8659483837,-5.4657007863" />
      <path d="M 0.8659483837,-4.6571920967 C 0.5064899235,-4.9017496771 -0.0939150653,-4.9860183295 -0.5521740854,-4.873318896 C -0.7402386836,-4.8292506829 -0.9034517756,-4.7561865722 -1.0210712725,-4.6647656416" />
      <path d="M 1.0648791041,-4.8907291037 Q 0.9828742875,-4.9839420116 0.8659483837,-5.061446321" />
      <path d="M 0.8659483837,-4.2529380646 C 0.6590950611,-4.3907571234 0.3756104498,-4.4821610313 0.0828071398,-4.5090876634 C -0.2880948818,-4.5451778367 -0.667086618,-4.4748376658 -0.9149805143,-4.3310478804 C -1.0092524493,-4.2768707864 -1.083568222,-4.2152349299 -1.1379278323,-4.1461403108" />
      <path d="M -0.8837398885,-3.4377262747 Q -0.6737352637,-3.3271968953 -0.3892225952,-3.2865987399" />
      <path d="M 0.9105649016,-4.6261186926 L 0.8659483837,-4.6571920967" />
      <path d="M 0.8659483837,-3.8486836931 C 0.5325522531,-4.0744324697 -0.0072846889,-4.1659186036 -0.4497966582,-4.0856502184 C -0.6804569381,-4.0459963754 -0.8827308668,-3.963983119 -1.0210724242,-3.8562568359" />
      <path d="M -1.1379268927,-3.7418870415 Q -1.2322330763,-3.6208662116 -1.2327330696,-3.4887268459" />
      <path d="M 1.0648798621,-4.0822198455 Q 0.9828541935,-4.1754507161 0.8659483837,-4.2529380646" />
      <path d="M 0.8659483837,-3.4444295402 C 0.6539049483,-3.5857722932 0.3610998527,-3.6781883202 0.0605919481,-3.70254399 C -0.3745633459,-3.7410093746 -0.8129754532,-3.6302089068 -1.0424570491,-3.4348247262 C -1.1662324984,-3.3321262876 -1.2331219689,-3.2083445921 -1.2327331311,-3.0844727187" />
      <path d="M 0.1676869039,-2.4780911056 Q 0.4556508968,-2.5174233094 0.6954480302,-2.6292214303" />
      <path d="M 1.0648809659,-3.6779646007 Q 0.9828473184,-3.771202525 0.8659483837,-3.8486836931" />
      <path d="M 0.8659483837,-3.0401750749 C 0.6064755759,-3.2139914089 0.2240156042,-3.311894194 -0.1426527893,-3.3052651751 C -0.4943730827,-3.3012454039 -0.8241265707,-3.2022592325 -1.0210695373,-3.0477493529" />
      <path d="M 0.1676874488,-2.0738368167 Q 0.4555001951,-2.113126263 0.6954478041,-2.2249672144" />
      <path d="M 0.7938692699,-2.2759641959 Q 0.9128150865,-2.3438081095 1.002611235,-2.4270943925" />
      <path d="M 1.2260011398,-2.8823442599 C 1.2273281106,-3.0888071981 1.0947536666,-3.2940195017 0.8659483837,-3.4444295402" />
      <path d="M 0.8659483837,-2.6359208506 C 0.5258538884,-2.866489845 -0.02941899,-2.9563958366 -0.4766590152,-2.8680267373 C -0.6961685273,-2.8268442461 -0.8880881428,-2.7469993171 -1.0210737472,-2.6434931949" />
      <path d="M -1.2290481418,-2.2249731056 Q -1.2193746631,-2.1583638731 -1.1850196058,-2.0943571349" />
      <path d="M 0.1676880285,-1.6695826271 Q 0.4555764143,-1.7088959325 0.6954480029,-1.820713001" />
      <path d="M 0.7938683891,-1.8717103833 Q 0.912744928,-1.9395118602 1.0026108523,-2.0228403968" />
      <path d="M 1.0533237681,-2.073836445 Q 1.1194447732,-2.1460718112 1.1610085388,-2.2249734136" />
      <path d="M 1.2194626137,-2.3969537697 L 1.223422319,-2.42709327" />
      <path d="M 0.91055468,-3.0091073576 L 0.8659483837,-3.0401750749" />
      <path d="M 0.8659483837,-2.2316668185 C 0.6018367848,-2.4086745928 0.2103617433,-2.5066811053 -0.1620770909,-2.496384764 C -0.5066219359,-2.4891645799 -0.8277771806,-2.390804864 -1.0210748191,-2.2392382172" />
      <path d="M -1.2290409162,-1.8207225639 Q -1.2193678418,-1.7540862775 -1.1850245062,-1.6900998898" />
      <path d="M 0.7938695884,-1.4674554377 Q 0.912728557,-1.5352373416 1.0026110573,-1.6185859818" />
      <path d="M 1.053322367,-1.6695831849 Q 1.1194525602,-1.7418308434 1.1610117319,-1.8207129747" />
      <path d="M 1.1849235151,-1.8717051213 Q 1.215634218,-1.946176847 1.2234228195,-2.0228400998" />
      <path d="M 1.2260009875,-2.0738371179 Q 1.2245860581,-2.2818241186 1.0648802821,-2.4652023394" />
      <path d="M 0.9105648883,-2.6048474532 L 0.8659483837,-2.6359208506" />
      <path d="M 0.8659483837,-1.827412447 C 0.5541634245,-2.037785444 0.0625142765,-2.1332158093 -0.3622601884,-2.0774005924 C -0.6288545326,-2.0445056112 -0.8654679417,-1.9563356273 -1.0210525903,-1.8349952113" />
      <path d="M -1.2290461876,-1.4164446104 Q -1.2222473831,-1.3695637245 -1.2031096687,-1.3237601121" />
      <path d="M -0.8837454531,-1.0122052657 Q -0.6737260958,-0.9016670923 -0.389204576,-0.8610776399" />
      <path d="M 0.1676867784,-0.8610742562 Q 0.4555571243,-0.9003791607 0.6954484031,-1.0122044954" />
      <path d="M 1.078370506,-1.2939840141 Q 1.127691143,-1.3531733758 1.1610118857,-1.4164586347" />
      <path d="M 1.1849238225,-1.4674597257 Q 1.215627562,-1.5419307352 1.223419312,-1.6186205713" />
      <path d="M 1.225998081,-1.6695783069 C 1.2272969619,-1.8760978765 1.0947621556,-2.0812471207 0.8659483837,-2.2316668185" />
      <path d="M 0.8659483837,-1.4231582942 C 0.5724362937,-1.6206483413 0.1202694768,-1.7180038655 -0.2862516082,-1.681126092 C -0.5830520179,-1.6564146019 -0.8510965356,-1.563583911 -1.0210721883,-1.4307314664" />
      <path d="M -0.883747048,-0.6079501014 C -0.7468736236,-0.5354121256 -0.5756021252,-0.4826861322 -0.3892299645,-0.4568199815" />
      <path d="M 0.1676868425,-0.4568198433 Q 0.4555580945,-0.4961245201 0.6954480449,-0.6079501772" />
      <path d="M 0.7938690485,-0.6589470536 Q 0.9127758068,-0.7267642785 1.0026110277,-0.8100771426" />
      <path d="M 1.2260009647,-1.2653282685 C 1.2273653584,-1.4717230566 1.094713166,-1.677056097 0.8659483837,-1.827412447" />
      <path d="M 0.8659483837,-1.0189038288 C 0.6697080027,-1.1495608957 0.4045195505,-1.2387692411 0.1276727573,-1.2703545765 C -0.1313038687,-1.3006702639 -0.3989429684,-1.280578505 -0.6235534758,-1.2165609672 C -0.8487749779,-1.153157911 -1.0301105591,-1.0461601431 -1.1325627086,-0.9188357949 C -1.1343509898,-0.9165926683 -1.136139271,-0.9143495417 -1.1379275522,-0.9121064151" />
      <path d="M -1.2290472851,-0.6079501182 Q -1.2222486883,-0.5610514386 -1.2031137529,-0.515248038" />
      <path d="M -1.1850223591,-0.4773380963 L -1.1733058013,-0.4568198992" />
      <path d="M -1.1379552225,-0.4058229435 Q -1.0733496223,-0.3235638759 -0.9698411113,-0.2546916313" />
      <path d="M -0.8837468527,-0.203696012 Q -0.6735436873,-0.0931005922 -0.3892307149,-0.0525655434" />
      <path d="M 0.1676860093,-0.0525654272 Q 0.4556094546,-0.0918871966 0.6954473135,-0.2036957117" />
      <path d="M 0.7938693279,-0.2546928879 Q 0.9127346513,-0.3224794031 1.0026111643,-0.4058233003" />
      <path d="M 1.0783694093,-0.4854757848 Q 1.1276666487,-0.5446345871 1.1610118288,-0.6079504905" />
      <path d="M 1.2107217724,-0.7372126164 Q 1.2197152721,-0.7734673455 1.2234215189,-0.8100641377" />
      <path d="M 0.9105638939,-1.3920856276 L 0.8659483837,-1.4231582942" />
      <path d="M 0.8659483837,-0.6146496046 C 0.497901726,-0.8654632163 -0.122955248,-0.9467255 -0.5848656163,-0.8227428423 C -0.8319428238,-0.7598147916 -1.0307857675,-0.6454817337 -1.1379238318,-0.5078545872" />
      <path d="M -1.229047208,-0.2036939409 Q -1.2177772188,-0.1262101269 -1.1733047225,-0.0525631395" />
      <path d="M -1.137955249,-0.0015689741 Q -1.0733292577,0.0807016288 -0.9698426612,0.1495611102" />
      <path d="M 1.0783696784,-0.0812215676 Q 1.1276714892,-0.1403875701 1.1610117732,-0.2036960189" />
      <path d="M 1.1849255533,-0.2546928648 Q 1.215636307,-0.3291689651 1.2234228091,-0.4058228065" />
      <path d="M 1.2260009607,-0.4568199883 C 1.227350901,-0.6632378164 1.0947328015,-0.8685232156 0.8659483837,-1.0189038288" />
      <path d="M 0.8659483837,-0.2103955724 C 0.5010833309,-0.4588856112 -0.1121580713,-0.5413037784 -0.5728312147,-0.4215278185 C -0.825444046,-0.3592458778 -1.0290437843,-0.2434716177 -1.1379271994,-0.1035982078" />
      <path d="M 1.2260009661,-0.0525658898 C 1.2273460183,-0.2589777378 1.0947563157,-0.4642488539 0.8659483837,-0.6146496046" />
      <path d="M 0.8659483837,0.1938587991 C 0.6381749152,0.0418456536 0.3169682734,-0.0530858355 -0.0064343937,-0.0687423519 C -0.4063678847,-0.0907510902 -0.7991874311,0.0113454122 -1.0210725406,0.1862857128" />
      <path d="M -1.2290472577,0.6048126646 L -1.2288776953,0.6059704491" />
      <path d="M 1.0648798535,-0.039677359 Q 0.9828251744,-0.1329327599 0.8659483837,-0.2103955724" />
      <path d="M 0.7213280302,0.5153001558 C 0.5181344283,0.4144920467 0.2682639187,0.3520618079 0.0163438322,0.3367945563 C -0.3606040009,0.3121656393 -0.7356074803,0.3971286641 -0.967625855,0.5523483964" />
      <path d="M 1.2021245219,0.6013501612 Q 1.1629812695,0.4764983478 1.0648808774,0.3645778333" />
      <path d="M 0.9105644873,0.2249319596 L 0.8659483837,0.1938587991" />
      <path d="M 1.0573193247,-6.1084327897 C 1.3364956525,-5.9286140451 1.4982258853,-5.6819914461 1.4966344564,-5.4337351878" />
      <path d="M 1.4966344564,-5.4337351878 Q 1.495722534,-5.2223306749 1.3537932829,-5.0294813308" />
      <path d="M 1.2194649103,-4.8827627573 Q 1.1766409347,-4.8441225406 1.1281001481,-4.8081309705" />
      <path d="M 1.0783695211,-4.7729672878 Q 1.0001141615,-4.720203344 0.9105604565,-4.6748643623" />
      <path d="M -1.0496806422,-4.6504926096 Q -1.1331635707,-4.693342003 -1.2031139922,-4.7431944914" />
      <path d="M -1.2276665041,-4.761228203 C -1.4062163328,-4.8958235605 -1.5039833847,-5.0634711318 -1.5033656693,-5.2316082001" />
      <path d="M -1.5033656693,-5.2316082001 C -1.5049574367,-5.4461840123 -1.3432197753,-5.6591262276 -1.0640267176,-5.8052584614 C -0.787084857,-5.9527154557 -0.3966131412,-6.0310520952 -0.0033658533,-6.0132713993 C 0.3898815027,-5.9973641962 0.7803517496,-5.8853397516 1.0572935167,-5.7041950299 C 1.3364863035,-5.524375079 1.4982261443,-5.2777449699 1.4966344564,-5.0294812121" />
      <path d="M 1.4966344564,-5.0294812121 Q 1.4957224842,-4.8180766262 1.3537929352,-4.6252272975" />
      <path d="M 1.2194649911,-4.4785087789 L 1.1847060809,-4.4483657192" />
      <path d="M -1.0430350364,-4.2428517108 Q -1.1303691401,-4.2870975181 -1.2031137998,-4.3389404312" />
      <path d="M -1.2276661907,-4.356974004 Q -1.269848587,-4.3889147641 -1.3060476671,-4.4230993222" />
      <path d="M -1.3316845219,-4.4483651755 Q -1.5020426394,-4.6256052895 -1.5033660992,-4.8273538555" />
      <path d="M -1.5033660992,-4.8273538555 C -1.5049579086,-5.0419298548 -1.3432194569,-5.2548724674 -1.0640261757,-5.4010045231 C -0.7870840333,-5.5484613733 -0.3966130319,-5.6267975469 -0.0033660925,-5.6090168912 C 0.3898808469,-5.5931096961 0.7803518482,-5.4810856716 1.0572939907,-5.2999409707 C 1.336487272,-5.1201210643 1.4982257236,-4.873490601 1.4966339142,-4.6252267508" />
      <path d="M 1.4966339142,-4.6252267508 Q 1.4965815936,-4.5230701687 1.4621098484,-4.4230991804" />
      <path d="M -1.467874993,-4.246238468 Q -1.5033113331,-4.3335300413 -1.5033666413,-4.4230998151" />
      <path d="M -1.5033666413,-4.4230998151 C -1.5049583293,-4.6376757206 -1.3432184882,-4.8506179775 -1.0640257012,-4.9967500762 C -0.787083934,-5.1442069457 -0.3966136873,-5.2225435381 -0.0033663314,-5.2047628891 C 0.3898809563,-5.1888557327 0.7803526721,-5.0768312411 1.0572945326,-4.8956863947 C 1.3364875904,-4.7158663088 1.4982252517,-4.4692362415 1.4966334844,-4.2209725772" />
      <path d="M 1.4966334844,-4.2209725772 Q 1.496603011,-4.1318134428 1.4702672927,-4.0441119766" />
      <path d="M 1.4621098484,-4.018845974 Q 1.4259032531,-3.9141933383 1.3537929351,-3.8167178568" />
      <path d="M 1.2194650328,-3.6699995212 L 1.1533759605,-3.6145909052" />
      <path d="M -1.04303483,-3.4343430569 Q -1.1303689793,-3.4785889733 -1.2031137439,-3.5304320626" />
      <path d="M -1.2276713804,-3.5484696389 C -1.4062179492,-3.6830641753 -1.5039843312,-3.8507100277 -1.5033666414,-4.0188453397" />
      <path d="M -1.5033666414,-4.0188453397 C -1.5049584436,-4.2334278395 -1.3432077397,-4.4463761899 -1.0640010183,-4.5925090685 C -0.6498700928,-4.8171041016 0.0255950781,-4.8709014882 0.5706757111,-4.7080442794 C 0.8430965875,-4.6293342199 1.0805753963,-4.5020073247 1.2438433421,-4.3450289632 C 1.4079731738,-4.1883894965 1.4971522019,-4.0027500506 1.4966339142,-3.8167184035" />
      <path d="M 1.4966339142,-3.8167184035 Q 1.4965815971,-3.7145621453 1.4621100552,-3.6145913327" />
      <path d="M -1.4568181786,-3.4124637368 Q -1.5032708071,-3.51181513 -1.5033660992,-3.6145912988" />
      <path d="M -1.5033660992,-3.6145912988 C -1.503884428,-3.7753605632 -1.4147017008,-3.9357375871 -1.2505656094,-4.0671129166 C -1.0872914654,-4.1988271739 -0.8498039854,-4.3008881896 -0.5773749111,-4.3543298617 C -0.0322775636,-4.4666507204 0.643200307,-4.3623053092 1.0573193247,-4.0871615436 C 1.3364956525,-3.9073427991 1.4982258853,-3.6607202 1.4966344564,-3.4124639417" />
      <path d="M 1.4966344564,-3.4124639417 Q 1.4965821176,-3.3103077064 1.4621102748,-3.210336954" />
      <path d="M -1.4568181786,-3.0082101714 Q -1.5032703806,-3.1075611676 -1.5033656693,-3.210336954" />
      <path d="M -1.5033656693,-3.210336954 C -1.5049574367,-3.4249127662 -1.3432197753,-3.6378549815 -1.0640267176,-3.7839872153 C -0.787084857,-3.9314442096 -0.3966131412,-4.0097808491 -0.0033658533,-3.9920001533 C 0.3898815027,-3.9760929502 0.7803517496,-3.8640685055 1.0572935167,-3.6829237839 C 1.3364863035,-3.5031038329 1.4982261443,-3.2564737238 1.4966344564,-3.008209966" />
      <path d="M 1.4966344564,-3.008209966 Q 1.49658213,-2.9060535017 1.4621100553,-2.8060825754" />
      <path d="M -1.4678750582,-2.629221748 Q -1.5033107981,-2.7165130624 -1.5033660992,-2.8060826094" />
      <path d="M -1.5033660992,-2.8060826094 C -1.5049579086,-3.0206586087 -1.3432194569,-3.2336012213 -1.0640261757,-3.379733277 C -0.7870840333,-3.5271901272 -0.3966130319,-3.6055263008 -0.0033660925,-3.5877456451 C 0.3898808469,-3.57183845 0.7803518482,-3.4598144256 1.0572939907,-3.2786697246 C 1.336487272,-3.0988498182 1.4982257236,-2.8522193549 1.4966339142,-2.6039555047" />
      <path d="M 1.4966339142,-2.6039555047 Q 1.4966034377,-2.5147957269 1.4702672927,-2.4270937129" />
      <path d="M -1.4568182852,-2.1997013313 Q -1.5032713307,-2.2990525172 -1.5033666413,-2.401828569" />
      <path d="M -1.5033666413,-2.401828569 C -1.5049583293,-2.6164044746 -1.3432184882,-2.8293467315 -1.0640257012,-2.9754788302 C -0.787083934,-3.1229356996 -0.3966136873,-3.2012722921 -0.0033663314,-3.183491643 C 0.3898809563,-3.1675844866 0.7803526721,-3.055559995 1.0572945326,-2.8744151486 C 1.3364875904,-2.6945950627 1.4982252517,-2.4479649954 1.4966334844,-2.1997013312" />
      <path d="M 1.4966334844,-2.1997013312 C 1.4972284385,-2.0070004288 1.4013683803,-1.8147662745 1.2260009688,-1.6546726438" />
      <path d="M 1.2194650365,-1.6487282785 Q 1.1766412041,-1.6100881599 1.1281005252,-1.5740966738" />
      <path d="M 1.0783697939,-1.5389329351 Q 1.0001154875,-1.4861697478 0.9105630227,-1.4408313093" />
      <path d="M -1.456818438,-1.7954469231 Q -1.5032713145,-1.8947981041 -1.5033666414,-1.9975740936" />
      <path d="M -1.5033666414,-1.9975740936 C -1.5049584436,-2.2121565935 -1.3432077397,-2.4251049438 -1.0640010183,-2.5712378224 C -0.6498700928,-2.7958328555 0.0255950781,-2.8496302421 0.5706757111,-2.6867730334 C 0.8430965875,-2.6080629738 1.0805753963,-2.4807360786 1.2438433421,-2.3237577171 C 1.4079731738,-2.1671182505 1.4971522019,-1.9814788046 1.4966339142,-1.7954471575" />
      <path d="M 1.4966339142,-1.7954471575 C 1.4972288884,-1.6027462453 1.401368509,-1.4105119054 1.2260009688,-1.2504183271" />
      <path d="M 1.2194650166,-1.2444739493 L 1.1847067423,-1.2143315986" />
      <path d="M 1.1533763654,-1.189065708 L 1.1281004741,-1.169842382" />
      <path d="M 1.0783686479,-1.1346779299 Q 1.0001056904,-1.0819090589 0.9105423008,-1.0365666378" />
      <path d="M -1.4568181786,-1.3911924907 Q -1.5032708071,-1.4905438839 -1.5033660992,-1.5933200527" />
      <path d="M -1.5033660992,-1.5933200527 C -1.503884428,-1.7540893171 -1.4147017008,-1.914466341 -1.2505656094,-2.0458416705 C -1.0872914654,-2.1775559279 -0.8498039854,-2.2796169435 -0.5773749111,-2.3330586156 C -0.0322775636,-2.4453794744 0.643200307,-2.3410340632 1.0573193247,-2.0658902975 C 1.3364956525,-1.886071553 1.4982258853,-1.6394489539 1.4966344564,-1.3911926956" />
      <path d="M 1.4966344564,-1.3911926956 Q 1.4965821176,-1.2890364603 1.4621102748,-1.1890657079" />
      <path d="M -1.4678747418,-1.0122048906 Q -1.5033103722,-1.0994962288 -1.5033656693,-1.189065708" />
      <path d="M -1.5033656693,-1.189065708 C -1.5049574367,-1.4036415201 -1.3432197753,-1.6165837354 -1.0640267176,-1.7627159692 C -0.787084857,-1.9101729635 -0.3966131412,-1.988509603 -0.0033658533,-1.9707289072 C 0.3898815027,-1.9548217041 0.7803517496,-1.8427972594 1.0572935167,-1.6616525378 C 1.3364863035,-1.4818325869 1.4982261443,-1.2352024777 1.4966344564,-0.98693872" />
      <path d="M 1.4966344564,-0.98693872 Q 1.4966039777,-0.8977790131 1.4702675568,-0.8100770299" />
      <path d="M -1.4568184381,-0.5826844931 Q -1.5032708039,-0.6820354705 -1.5033660992,-0.7848113633" />
      <path d="M -1.5033660992,-0.7848113633 C -1.5049579086,-0.9993873626 -1.3432194569,-1.2123299752 -1.0640261757,-1.3584620309 C -0.7870840333,-1.5059188811 -0.3966130319,-1.5842550547 -0.0033660925,-1.5664743991 C 0.3898808469,-1.5505672039 0.7803518482,-1.4385431795 1.0572939907,-1.2573984786 C 1.336487272,-1.0775785722 1.4982257236,-0.8309481088 1.4966339142,-0.5826842587" />
      <path d="M 1.4966339142,-0.5826842587 Q 1.4965815936,-0.4805276765 1.4621098484,-0.3805566882" />
      <path d="M -1.467874993,-0.2036959758 Q -1.5033113331,-0.2909875491 -1.5033666413,-0.3805573229" />
      <path d="M -1.5033666413,-0.3805573229 C -1.5049583293,-0.5951332285 -1.3432184882,-0.8080754854 -1.0640257012,-0.9542075841 C -0.787083934,-1.1016644535 -0.3966136873,-1.180001046 -0.0033663314,-1.1622203969 C 0.3898809563,-1.1463132405 0.7803526721,-1.0342887489 1.0572945326,-0.8531439025 C 1.3364875904,-0.6733238166 1.4982252517,-0.4266937493 1.4966334844,-0.1784300851" />
      <path d="M 1.4966334844,-0.1784300851 Q 1.4965811685,-0.0762740463 1.4621098484,0.0236965181" />
      <path d="M -1.4678750581,0.2005585507 Q -1.5033113198,0.1132669312 -1.5033666414,0.0236971525" />
      <path d="M -1.5033666414,0.0236971525 C -1.5049584436,-0.1908853474 -1.3432077397,-0.4038336977 -1.0640010183,-0.5499665763 C -0.6498700928,-0.7745616095 0.0255950781,-0.828358996 0.5706757111,-0.6655017873 C 0.8430965875,-0.5867917278 1.0805753963,-0.4594648325 1.2438433421,-0.302486471 C 1.4079731738,-0.1458470044 1.4971522019,0.0397924415 1.4966339142,0.2258240886" />
      <path d="M 1.4966339142,0.2258240886 Q 1.4965815971,0.3279803468 1.4621100552,0.4279511595" />
      <path d="M -1.4678747418,0.6048129395 Q -1.5033108,0.5175211321 -1.5033660992,0.4279511934" />
      <path d="M -1.5033660992,0.4279511934 C -1.503884428,0.2671819289 -1.4147017008,0.1068049051 -1.2505656094,-0.0245704245 C -1.0872914654,-0.1562846818 -0.8498039854,-0.2583456974 -0.5773749111,-0.3117873695 C -0.0322775636,-0.4241082283 0.643200307,-0.3197628171 1.0573193247,-0.0446190514 C 1.3364956525,0.1351996931 1.4982258853,0.3818222922 1.4966344564,0.6300785505" />
      <path d="M 1.4966344564,0.6300785505 L 1.4947213804,0.6778961093" />
      <path d="M -1.4734692487,0.6697123403 C -1.4116651651,0.5017767927 -1.2495388517,0.3463598062 -1.0174090588,0.2350465864 C -0.7861826617,0.1231539052 -0.486306794,0.0560960794 -0.1738620631,0.0489341951 C 0.1384308058,0.0409910289 0.4614665176,0.0930666976 0.7348339786,0.1979429374 C 1.0088590658,0.3021346256 1.2316166844,0.4585946971 1.3614493774,0.6405840622" />
      <path d="M -0.5867888333,0.4986001819 C -0.3395850101,0.4484643754 -0.0639515073,0.4385909305 0.2019564097,0.4719401442" />
      <path d="M 0.8659483999,-5.8699549237 L 1.0573194041,-6.1084327652" />
      <path d="M 1.0573193247,-6.1589645708 L 1.0573193247,-6.1084327897" />
      <path d="M 1.0573193247,-6.1589645708 C 1.3364956525,-5.9791458263 1.4982258853,-5.7325232272 1.4966344564,-5.4842669689" />
      <path d="M 1.4961005745,-5.4590010762 Q 1.4917166102,-5.3565633063 1.4528149594,-5.2568740906" />
      <path d="M -0.3255705556,-4.5071531376 Q -0.5106992866,-4.5230841763 -0.6799389229,-4.5652635238" />
      <path d="M -1.1379268459,-4.7505898651 L -1.185022596,-4.7811044949" />
      <path d="M -1.2176710548,-4.8042864933 C -1.4024877627,-4.9401414855 -1.5040295725,-5.11087255 -1.5033656693,-5.2821399813" />
      <path d="M -1.5033656693,-5.2821399813 C -1.5049574367,-5.4967157934 -1.3432197753,-5.7096580087 -1.0640267176,-5.8557902425 C -0.787084857,-6.0032472368 -0.3966131412,-6.0815838763 -0.0033658533,-6.0638031805 C 0.3898815027,-6.0478959774 0.7803517496,-5.9358715327 1.0572935167,-5.7547268111 C 1.3364863035,-5.5749068602 1.4982261443,-5.328276751 1.4966344564,-5.0800129933" />
      <path d="M 1.4966344564,-5.0800129933 L 1.4961005745,-5.0547471049" />
      <path d="M -1.5026510661,-4.8526197472 L -1.5033660992,-4.8778856366" />
      <path d="M -1.5033660992,-4.8778856366 C -1.5049579086,-5.092461636 -1.3432194569,-5.3054042486 -1.0640261757,-5.4515363042 C -0.7870840333,-5.5989931544 -0.3966130319,-5.6773293281 -0.0033660925,-5.6595486724 C 0.3898808469,-5.6436414772 0.7803518482,-5.5316174528 1.0572939907,-5.3504727519 C 1.336487272,-5.1706528455 1.4982257236,-4.9240223821 1.4966339142,-4.675758532" />
      <path d="M 1.4966339142,-4.675758532 L 1.4961000387,-4.6504926422" />
      <path d="M -1.5026515997,-4.4483657082 L -1.5033666413,-4.4736315962" />
      <path d="M -1.5033666413,-4.4736315962 C -1.5049583293,-4.6882075018 -1.3432184882,-4.9011497587 -1.0640257012,-5.0472818574 C -0.787083934,-5.1947387268 -0.3966136873,-5.2730753193 -0.0033663314,-5.2552946702 C 0.3898809563,-5.2393875139 0.7803526721,-5.1273630222 1.0572945326,-4.9462181758 C 1.3364875904,-4.76639809 1.4982252517,-4.5197680226 1.4966334844,-4.2715043584" />
      <path d="M 1.4966334844,-4.2715043584 L 1.49609961,-4.2462384678" />
      <path d="M -1.5033666414,-4.0693771209 C -1.5049584436,-4.2839596207 -1.3432077397,-4.496907971 -1.0640010183,-4.6430408496 C -0.6498700928,-4.8676358828 0.0255950781,-4.9214332694 0.5706757111,-4.7585760606 C 0.8430965875,-4.6798660011 1.0805753963,-4.5525391059 1.2438433421,-4.3955607443 C 1.4079731738,-4.2389212777 1.4971522019,-4.0532818318 1.4966339142,-3.8672501847" />
      <path d="M -1.5026510661,-3.6398571882 L -1.5033660992,-3.6651230799" />
      <path d="M -1.5033660992,-3.6651230799 C -1.503884428,-3.8258923444 -1.4147017008,-3.9862693682 -1.2505656094,-4.1176446978 C -1.0872914654,-4.2493589551 -0.8498039854,-4.3514199707 -0.5773749111,-4.4048616428 C -0.0322775636,-4.5171825016 0.643200307,-4.4128370904 1.0573193247,-4.1376933247 C 1.3364956525,-3.9578745802 1.4982258853,-3.7112519811 1.4966344564,-3.4629957229" />
      <path d="M 1.4966344564,-3.4629957229 L 1.4961005745,-3.4377298301" />
      <path d="M -1.5026506377,-3.2356028446 L -1.5033656693,-3.2608687352" />
      <path d="M -1.5033656693,-3.2608687352 C -1.5049574367,-3.4754445473 -1.3432197753,-3.6883867626 -1.0640267176,-3.8345189964 C -0.787084857,-3.9819759907 -0.3966131412,-4.0603126302 -0.0033658533,-4.0425319344 C 0.3898815027,-4.0266247313 0.7803517496,-3.9146002867 1.0572935167,-3.733455565 C 1.3364863035,-3.5536356141 1.4982261443,-3.307005505 1.4966344564,-3.0587417472" />
      <path d="M 1.4966344564,-3.0587417472 Q 1.4965500305,-2.9434814406 1.4528147554,-2.8313486258" />
      <path d="M 0.4965396161,-2.1472763921 Q 0.3048491016,-2.098815009 0.1020929257,-2.0816624948" />
      <path d="M -0.3255708601,-2.0816275184 Q -0.5106943372,-2.0975583272 -0.6799297424,-2.1397359987" />
      <path d="M -1.5026510661,-2.8313485011 L -1.5033660992,-2.8566143906" />
      <path d="M -1.5033660992,-2.8566143906 C -1.5049579086,-3.0711903899 -1.3432194569,-3.2841330025 -1.0640261757,-3.4302650582 C -0.7870840333,-3.5777219083 -0.3966130319,-3.656058082 -0.0033660925,-3.6382774263 C 0.3898808469,-3.6223702312 0.7803518482,-3.5103462067 1.0572939907,-3.3292015058 C 1.336487272,-3.1493815994 1.4982257236,-2.902751136 1.4966339142,-2.6544872859" />
      <path d="M 1.4966339142,-2.6544872859 L 1.4961000387,-2.6292213961" />
      <path d="M -1.5033666413,-2.4523603501 C -1.5049583293,-2.6669362557 -1.3432184882,-2.8798785126 -1.0640257012,-3.0260106113 C -0.787083934,-3.1734674808 -0.3966136873,-3.2518040732 -0.0033663314,-3.2340234241 C 0.3898809563,-3.2181162678 0.7803526721,-3.1060917762 1.0572945326,-2.9249469298 C 1.3364875904,-2.7451268439 1.4982252517,-2.4984967765 1.4966334844,-2.2502331123" />
      <path d="M 1.49609961,-2.2249672217 Q 1.4917157382,-2.1225296029 1.4528146099,-2.0228405262" />
      <path d="M -0.3255709956,-1.2731191892 Q -0.5106876083,-1.2890492105 -0.6799173804,-1.3312242638" />
      <path d="M -1.5033666414,-2.0481058748 C -1.5049584436,-2.2626883746 -1.3432077397,-2.4756367249 -1.0640010183,-2.6217696036 C -0.6498700928,-2.8463646367 0.0255950781,-2.9001620233 0.5706757111,-2.7373048145 C 0.8430965875,-2.658594755 1.0805753963,-2.5312678598 1.2438433421,-2.3742894983 C 1.4079731738,-2.2176500316 1.4971522019,-2.0320105857 1.4966339142,-1.8459789386" />
      <path d="M 1.4966339142,-1.8459789386 Q 1.4965495048,-1.7307186823 1.4528147553,-1.6185858173" />
      <path d="M -0.3255691311,-0.8688649754 Q -0.5106835924,-0.8847945987 -0.6799118955,-0.9269686322" />
      <path d="M -1.5026510661,-1.6185859421 L -1.5033660992,-1.6438518338" />
      <path d="M -1.5033660992,-1.6438518338 C -1.503884428,-1.8046210983 -1.4147017008,-1.9649981222 -1.2505656094,-2.0963734517 C -1.0872914654,-2.228087709 -0.8498039854,-2.3301487247 -0.5773749111,-2.3835903968 C -0.0322775636,-2.4959112555 0.643200307,-2.3915658443 1.0573193247,-2.1164220786 C 1.3364956525,-1.9366033341 1.4982258853,-1.6899807351 1.4966344564,-1.4417244768" />
      <path d="M 1.4966344564,-1.4417244768 Q 1.4965500151,-1.3264643223 1.4528149594,-1.2143315985" />
      <path d="M 0.4965391204,-0.5302589976 Q 0.3048481197,-0.4817978946 0.102091298,-0.464645623" />
      <path d="M -0.3255704771,-0.4646106388 Q -0.5106939243,-0.4805412094 -0.6799293348,-0.5227186409" />
      <path d="M -1.5026506377,-1.2143315985 L -1.5033656693,-1.2395974891" />
      <path d="M -1.5033656693,-1.2395974891 C -1.5049574367,-1.4541733013 -1.3432197753,-1.6671155166 -1.0640267176,-1.8132477504 C -0.787084857,-1.9607047447 -0.3966131412,-2.0390413841 -0.0033658533,-2.0212606883 C 0.3898815027,-2.0053534852 0.7803517496,-1.8933290406 1.0572935167,-1.7121843189 C 1.3364863035,-1.532364368 1.4982261443,-1.2857342589 1.4966344564,-1.0374705011" />
      <path d="M 1.4966344564,-1.0374705011 Q 1.49658213,-0.9353140368 1.4621100553,-0.8353431104" />
      <path d="M 1.4528147554,-0.8100773797 Q 1.3851908914,-0.6383050219 1.2248188229,-0.4913604418" />
      <path d="M 1.2107212471,-0.4786881278 Q 1.1613192377,-0.435019204 1.1046209138,-0.3948488293" />
      <path d="M 0.496539688,-0.1260051642 Q 0.3048478368,-0.0775434391 0.1020902186,-0.0603910201" />
      <path d="M -1.5033660992,-0.8353431445 C -1.5049579086,-1.0499191438 -1.3432194569,-1.2628617564 -1.0640261757,-1.4089938121 C -0.7870840333,-1.5564506623 -0.3966130319,-1.6347868359 -0.0033660925,-1.6170061802 C 0.3898808469,-1.6010989851 0.7803518482,-1.4890749606 1.0572939907,-1.3079302597 C 1.336487272,-1.1281103533 1.4982257236,-0.88147989 1.4966339142,-0.6332160398" />
      <path d="M -0.3255705992,0.3438978936 Q -0.5106546606,0.3279704097 -0.6798585443,0.2858069478" />
      <path d="M -1.1379191839,0.1004654942 L -1.1850223255,0.0699461683" />
      <path d="M -1.217671679,0.0467633974 C -1.402486941,-0.0890914834 -1.5040307225,-0.2598219916 -1.5033666413,-0.431089104" />
      <path d="M -1.5033666413,-0.431089104 C -1.5049583293,-0.6456650096 -1.3432184882,-0.8586072665 -1.0640257012,-1.0047393652 C -0.787083934,-1.1521962347 -0.3966136873,-1.2305328271 -0.0033663314,-1.212752178 C 0.3898809563,-1.1968450217 0.7803526721,-1.0848205301 1.0572945326,-0.9036756837 C 1.3364875904,-0.7238555978 1.4982252517,-0.4772255304 1.4966334844,-0.2289618662" />
      <path d="M 1.4966334844,-0.2289618662 L 1.49609961,-0.2036959757" />
      <path d="M -1.5026515997,-0.0015687355 L -1.5033666414,-0.0268346287" />
      <path d="M -1.5033666414,-0.0268346287 C -1.5049584436,-0.2414171285 -1.3432077397,-0.4543654788 -1.0640010183,-0.6004983575 C -0.6498700928,-0.8250933906 0.0255950781,-0.8788907772 0.5706757111,-0.7160335684 C 0.8430965875,-0.6373235089 1.0805753963,-0.5099966137 1.2438433421,-0.3530182522 C 1.4079731738,-0.1963787855 1.4971522019,-0.0107393396 1.4966339142,0.1752923075" />
      <path d="M 1.4966339142,0.1752923075 L 1.4961000387,0.2005581989" />
      <path d="M -1.5026510661,0.4026853039 L -1.5033660992,0.3774194122" />
      <path d="M -1.5033660992,0.3774194122 C -1.503884428,0.2166501478 -1.4147017008,0.0562731239 -1.2505656094,-0.0751022056 C -1.0872914654,-0.2068164629 -0.8498039854,-0.3088774786 -0.5773749111,-0.3623191507 C -0.0322775636,-0.4746400094 0.643200307,-0.3702945982 1.0573193247,-0.0951508326 C 1.3364956525,0.0846679119 1.4982258853,0.331290511 1.4966344564,0.5795467693" />
      <path d="M 1.4966344564,0.5795467693 L 1.4961005745,0.6048126621" />
      <path d="M -1.490482383,0.6746673323 C -1.4479092144,0.4952567932 -1.2918545827,0.325367676 -1.0546125917,0.2031007172 C -0.8185257594,0.0801418688 -0.5029623315,0.0057944139 -0.1732274465,-0.0016128343 C 0.1563208227,-0.0099837924 0.4976570903,0.048745262 0.7801434369,0.1653634119 C 1.063490696,0.2811544555 1.2859434037,0.4540973503 1.4014663377,0.6513453163" />
      <path d="M -0.9118158765,0.5427104273 C -0.4964471536,0.3755937999 0.0923872664,0.3537259825 0.57545435,0.4981217465" />
      <path d="M 0.3019701862,0.476481984 C -0.0079308268,0.4121997307 -0.3486671068,0.4235714675 -0.6243018708,0.5026691502" />
      <path d="M 1.1532024071,0.5904246233 Q 1.0594552285,0.4244882508 0.8659483837,0.295852632" />
      <path d="M 1.2257746188,0.4385653663 C 1.2209501812,0.2371999596 1.0890634659,0.038335526 0.8659483837,-0.1084017395" />
      <path d="M 0.8659483837,-0.1084017395 C 0.6715827847,-0.2377944732 0.4096254908,-0.3265665014 0.1356409803,-0.358914663 C -0.1265788492,-0.3906536529 -0.3982588018,-0.3706189074 -0.6255787314,-0.3054836017 C -0.8535453162,-0.2409947304 -1.0362481541,-0.1317646724 -1.1375330606,-0.0021064373 C -1.2006596518,0.0787113963 -1.2323930362,0.1632652435 -1.2327332139,0.2515551042" />
      <path d="M 1.226000966,0.0494280173 C 1.22729988,-0.1570969402 1.0947594491,-0.3622299312 0.8659483837,-0.5126558924" />
      <path d="M 0.8659483837,-0.5126558924 C 0.6649457202,-0.6465678067 0.391013377,-0.7369359831 0.1070155539,-0.7663924806 C -0.1768314041,-0.7968676191 -0.4691931748,-0.7664322371 -0.7031572837,-0.6854135381 C -1.0309887097,-0.5745971257 -1.2356084031,-0.3655258556 -1.232730877,-0.1527053728" />
      <path d="M -1.232730877,-0.1527053728 Q -1.2326705236,-0.0760058127 -1.1999191439,-0.0015617675" />
      <path d="M -1.1733044221,0.0494257291 Q -1.1256325591,0.1281185771 -1.0430352502,0.1971711692" />
      <path d="M -0.3255691661,0.4614730272 Q -0.2573802022,0.4686751651 -0.1875185066,0.4712120694" />
      <path d="M 0.0214048742,0.468257396 L 0.1020908604,0.4615081569" />
      <path d="M 1.2260001795,-0.3548261339 C 1.2273186768,-0.5612798427 1.0947804853,-0.7664842047 0.8659483837,-0.9169103577" />
      <path d="M 0.8659483837,-0.9169103577 C 0.5282353493,-1.1457575164 -0.0214948908,-1.2362540565 -0.4671434659,-1.1507858261 C -0.5416998827,-1.1371032598 -0.612628423,-1.1193199893 -0.6799290868,-1.0974360145" />
      <path d="M -1.2327331225,-0.5569535783 Q -1.2327193835,-0.5051927019 -1.2176763713,-0.4541518834" />
      <path d="M -0.969843135,-0.1526989913 Q -0.8280494381,-0.0587488758 -0.6313460381,-0.0015696837" />
      <path d="M 0.8759521053,-0.2036949557 Q 0.9783524447,-0.2730557712 1.0533168443,-0.3548324796" />
      <path d="M 1.0962935113,-0.405835167 Q 1.1525747627,-0.4787296136 1.1849220698,-0.5569610462" />
      <path d="M 1.2248158631,-0.7245435328 L 1.2259974803,-0.759080077" />
      <path d="M -0.9698450403,-0.5569520615 Q -0.8280646352,-0.4630222422 -0.6313335221,-0.4058275493" />
      <path d="M -0.3892295272,-0.3548262924 Q -0.1493984318,-0.3215420874 0.1020930617,-0.3470006909" />
      <path d="M 0.4205229778,-0.4058230528 Q 0.6264495262,-0.4618936638 0.7938692438,-0.5569532256" />
      <path d="M 1.225774588,-1.178452322 C 1.2209761542,-1.3797637275 1.0890630916,-1.5786875359 0.8659483837,-1.7254186141" />
      <path d="M 0.8659483837,-1.7254186141 C 0.4935246255,-1.9794212519 -0.1377597283,-2.0590236864 -0.6011902881,-1.9292340588 C -0.6274230366,-1.9214742823 -0.6536557851,-1.9137145058 -0.6798885336,-1.9059547294" />
      <path d="M -1.232730163,-1.3654537937 Q -1.2327288709,-1.3355171122 -1.2276708531,-1.3057200408" />
      <path d="M -0.9698334286,-0.9612138755 Q -0.8279538262,-0.8672146971 -0.6313468442,-0.8100768634" />
      <path d="M -0.325490339,-0.7512967066 Q -0.0820270892,-0.7257239705 0.1676756132,-0.7590822542" />
      <path d="M 0.4205252335,-0.8100766521 Q 0.6265123806,-0.8661686729 0.793866448,-0.9612093135" />
      <path d="M 0.8759465888,-1.0122069499 Q 0.9783610279,-1.0815801159 1.0533210481,-1.1633329851" />
      <path d="M 1.1281004489,-1.2588208339 Q 1.1624182561,-1.3109498888 1.1849255379,-1.3654619335" />
      <path d="M 1.2031909205,-1.4164587374 Q 1.2259752386,-1.4913899341 1.226000965,-1.5675892312" />
      <path d="M 1.226000965,-1.5675892312 C 1.2273610577,-1.7739807123 1.0947315076,-1.9792991536 0.8659483837,-2.1296729856" />
      <path d="M 0.8659483837,-2.1296729856 C 0.5696827589,-2.3291108148 0.1114894518,-2.4262878327 -0.2980671602,-2.3865966972 C -0.4348675278,-2.373912869 -0.5621555139,-2.3484466704 -0.6799311185,-2.3101981015" />
      <path d="M -1.2327254952,-1.7697361038 Q -1.2327157352,-1.717974566 -1.2176757272,-1.6669157458" />
      <path d="M -0.3892317547,-1.1633344422 Q -0.1165660383,-1.1255980409 0.1676831841,-1.1633353049" />
      <path d="M 0.8759504283,-1.4164588202 Q 0.9783424972,-1.4858164938 1.0533224893,-1.5675889362" />
      <path d="M 1.0963027475,-1.6185862143 Q 1.1526003058,-1.6914941197 1.1849254097,-1.7697163807" />
      <path d="M 1.203189032,-1.820706729 Q 1.2259711415,-1.8956166479 1.2260008718,-1.9718434769" />
      <path d="M 1.2260008718,-1.9718434769 C 1.2273023255,-2.1783687395 1.0947538113,-2.3835048917 0.8659483837,-2.5339271384" />
      <path d="M 0.8659483837,-2.5339271384 Q 0.7046461209,-2.6403570134 0.4965388185,-2.7069127308" />
      <path d="M -1.2327314127,-2.1739917781 Q -1.2327165767,-2.1222473257 -1.2176651193,-2.0711775243" />
      <path d="M 0.4205226449,-1.6185858602 Q 0.62649728,-1.6746766391 0.7938690376,-1.769716103" />
      <path d="M 0.8759494169,-1.8207136574 Q 0.9783527647,-1.8900874405 1.0533220791,-1.9718434982" />
      <path d="M 1.0963040779,-2.0228397961 Q 1.1525975339,-2.0957373133 1.1849226399,-2.1739774206" />
      <path d="M -0.3255627096,-1.9640532227 Q -0.08219251,-1.9384889507 0.1676865594,-1.971843373" />
      <path d="M 0.4205230954,-2.022840152 Q 0.626595493,-2.0789699125 0.7938692351,-2.1739702919" />
      <path d="M 0.4965409556,-3.5154205825 C 0.1190317138,-3.6381199144 -0.3439292028,-3.6364088634 -0.6868216588,-3.5207014625 C -1.0239535102,-3.4112175775 -1.2357694264,-3.1988620498 -1.2327358391,-2.9824750869" />
      <path d="M -0.3892250535,-2.3760968715 Q -0.1165675075,-2.3383610876 0.1676874085,-2.3760976308" />
      <path d="M 0.4205183137,-2.4270955545 Q 0.6265418902,-2.4832022401 0.7938712212,-2.5782233457" />
      <path d="M -0.6799291791,-3.9272158413 C -1.0207720482,-3.8183934572 -1.2358272199,-3.6047736492 -1.2327332096,-3.3867329362" />
      <path d="M -0.3255705783,-2.7725610925 Q -0.1151139512,-2.7504054353 0.1020939846,-2.7725261228" />
      <path d="M 0.4965288385,-4.3239320297 C 0.4144501622,-4.3500928843 0.3294027734,-4.3707853301 0.2413866722,-4.3860093671 C -0.0108237904,-4.4299668085 -0.2792596795,-4.425421426 -0.5132748572,-4.375738463 C -0.7477683635,-4.3266729862 -0.9469639128,-4.2327386435 -1.0732864946,-4.114173252 C -1.1786465029,-4.0145409145 -1.2317953879,-3.9068122864 -1.2327331494,-3.7909873676" />
      <path d="M -0.389229159,-3.5888602355 L -0.3255691817,-3.5810694637" />
      <path d="M 0.1020907594,-3.5810343438 L 0.1676867239,-3.5888601903" />
      <path d="M 0.8659483837,-4.9594528498 C 0.6682461974,-5.0911344821 0.4000293433,-5.1807905421 0.1210108888,-5.2116632138 C -0.1578553123,-5.2434852485 -0.446089915,-5.2165595145 -0.679929134,-5.139978495" />
      <path d="M -0.389230422,-3.9931144977 L -0.3255703076,-3.9853238191" />
      <path d="M 0.8659483837,-5.3637070741 C 0.6706369271,-5.4937372264 0.4070452494,-5.5827339163 0.1316134427,-5.6146974688 C -0.1506218102,-5.6483887147 -0.4432896557,-5.6217709612 -0.6799297728,-5.5442325997" />
      <path d="M -1.2327331866,-5.0037501094 Q -1.2326722396,-4.9270487412 -1.1999203635,-4.8526154149" />
      <path d="M -1.1733058339,-4.8016230324 Q -1.1256551127,-4.7229514911 -1.0430350528,-4.6538797008" />
      <path d="M -0.3892304653,-4.3973688664 Q -0.149320494,-4.3640816665 0.102092895,-4.3895431972" />
      <path d="M 1.2259967514,-5.2058864689 C 1.2272833524,-5.4124313392 1.0947736785,-5.6175035038 0.8659483837,-5.7679611063" />
      <path d="M 0.8659483837,-5.7679611063 C 0.5423446344,-5.9867124388 0.0246320956,-6.0802036811 -0.4103217924,-6.0113235114 C -0.5056230276,-5.9968819119 -0.5954922028,-5.9759364257 -0.6799293182,-5.9484870527" />
      <path d="M -1.2327331228,-5.4080042075 Q -1.232675623,-5.3313170033 -1.1999206277,-5.2568700909" />
      <path d="M -1.1733058775,-5.2058772088 Q -1.1244540245,-5.1252339127 -1.0389490476,-5.0547483927" />
      <path d="M -0.9698428898,-5.0037501017 Q -0.8280656217,-4.9098086246 -0.6313457565,-4.8526191253" />
      <path d="M 0.4205226692,-4.8526198342 Q 0.6264987385,-4.908711418 0.7938693791,-5.0037501236" />
      <line x1="0.8659483837" y1="-5.8699549332" x2="0.8659483837" y2="-5.7679611063" />
      <line x1="0.8659483837" y1="-5.4657007863" x2="0.8659483837" y2="-5.4564207811" />
      <line x1="0.8659483837" y1="-5.405889" x2="0.8659483837" y2="-5.3637070741" />
      <line x1="0.8659483837" y1="-5.061446321" x2="0.8659483837" y2="-5.0521666113" />
      <line x1="0.8659483837" y1="-4.6571920967" x2="0.8659483837" y2="-4.6479118993" />
      <line x1="0.8659483837" y1="-4.2529380646" x2="0.8659483837" y2="-4.1931257288" />
      <line x1="0.8659483837" y1="-3.8486836931" x2="0.8659483837" y2="-3.7888717747" />
      <line x1="0.8659483837" y1="-3.4444295402" x2="0.8659483837" y2="-3.3846177539" />
      <line x1="0.8659483837" y1="-3.0401750749" x2="0.8659483837" y2="-3.0308953653" />
      <line x1="0.8659483837" y1="-2.6359208506" x2="0.8659483837" y2="-2.6266406532" />
      <line x1="0.8659483837" y1="-2.5761088721" x2="0.8659483837" y2="-2.5339271384" />
      <line x1="0.8659483837" y1="-2.2316668185" x2="0.8659483837" y2="-2.1296729856" />
      <line x1="0.8659483837" y1="-1.827412447" x2="0.8659483837" y2="-1.7254186141" />
      <line x1="0.8659483837" y1="-1.4231582942" x2="0.8659483837" y2="-1.413878289" />
      <line x1="0.8659483837" y1="-1.0189038288" x2="0.8659483837" y2="-0.9169103577" />
      <line x1="0.8659483837" y1="-0.6146496046" x2="0.8659483837" y2="-0.5126558924" />
      <line x1="0.8659483837" y1="-0.2103955724" x2="0.8659483837" y2="-0.1084017395" />
      <line x1="0.8659483837" y1="0.1938587991" x2="0.8659483837" y2="0.2031389363" />
      <line x1="0.8659483837" y1="0.2536707175" x2="0.8659483837" y2="0.295852632" />
      <path d="M 1.0573194041,-6.1084327652 C 0.7606485276,-6.245682691 0.3861467146,-6.3152831246 0.0275495314,-6.3054544443 C -0.2757417736,-6.2980848252 -0.565466824,-6.2358207631 -0.7949169789,-6.1333548572" />
      <path d="M -0.7949169789,-6.1333548572 C -0.7910375661,-6.1342971309 -0.7850500436,-6.1358407051 -0.7769544115,-6.1379855799 C -0.764818858,-6.1410920116 -0.7545501828,-6.14432323 -0.7058347511,-6.1566212878 C -0.6625171908,-6.1676734216 -0.5782578877,-6.1857877568 -0.49636484,-6.1956487157 C -0.4104928524,-6.2065080964 -0.3210888064,-6.2114586688 -0.228152702,-6.210500433 C 0.1628614315,-6.2078884172 0.5862374948,-6.0838828914 0.8659483837,-5.8699549359" />
      <path d="M 1.0573194041,-6.1589645463 C 0.8744318259,-6.2431301032 0.6624050119,-6.3027026667 0.4423819346,-6.3329011731" />
      <path d="M 0.4423819346,-6.3329011731 C 0.0022834611,-6.3948308429 -0.4621601743,-6.3337684362 -0.7949169789,-6.1838866383" />
      <path d="M -0.7949169789,-6.1333548572 L -0.7949169789,-6.1838866383" />
      <path d="M 1.2232238503,-5.6630578798 A 1.2293670613173628,0.7234634616718839 0.0 0,1 1.2085466391,-5.5901812158" />
      <path d="M 0.9798394007,-5.2773545043 A 1.2293670613173628,0.7234634616718839 0.0 0,1 0.7394021175,-5.1351723849" />
      <path d="M 0.6195744675,-5.0879515124 A 1.2293670613173628,0.7234634616718839 0.0 0,1 -0.723162118,-5.1251674093" />
      <path d="M -1.1079547234,-5.3940800906 A 1.2293670613173628,0.7234634616718839 0.0 0,1 -1.2026934101,-5.5527052802" />
      <path d="M -1.2327331538,-5.7116585898 A 1.2293670613173628,0.7234634616718839 0.0 0,1 0.8172340983,-6.2503577965" />
      <path d="M -0.7949169789,-6.1838866383 C -0.7869755801,-6.1885483732 -0.7800471508,-6.1931015199 -0.7523400452,-6.2072461854 C -0.7414636,-6.2132883612 -0.7161559214,-6.2248147781 -0.6764170095,-6.2418254361 C -0.6290741497,-6.2615974891 -0.5616612735,-6.2853638857 -0.4946015039,-6.3035512757 C -0.2427922235,-6.3730865828 0.0495443163,-6.3897944335 0.3163982083,-6.350682266" />
      <path d="M 2.2134664294,1.6348728639 A 3.135000000034102,1.844898910774156 0.0 0,1 -2.2201986144,4.243891823 A 3.135000000034102,1.844898910774156 0.0 0,1 2.2134664294,1.6348728639" />
      <path d="M 2.436210367,1.2491175718 A 3.45,2.0302715285810535 0.0 0,1 3.4466339075,2.6847021665" />
      <path d="M -3.4533660925,2.6847021665 A 3.45,2.0302715285810535 0.0 0,1 2.436210367,1.2491175718" />
      <path d="M 2.436210367,1.1925219769 A 3.45,2.0302715285810535 0.0 0,1 3.4466339075,2.6281065716" />
      <path d="M -3.4533660925,2.6281065716 A 3.45,2.0302715285810535 0.0 0,1 2.436210367,1.1925219769" />
      <path d="M 1.9968445794,3.9168969532 C 1.7762124267,4.0728426496 1.5434690862,4.2010265564 1.298614558,4.3014486738 C 0.8808600295,4.4729405475 0.4428054972,4.5581666443 0.0082603694,4.5596016052 C -0.4302874451,4.5611535724 -0.872570323,4.4774345514 -1.2946163879,4.3058339048 C -1.5433460452,4.204790432 -1.7796661707,4.0751447815 -2.0035767643,3.9168969532" />
      <path d="M 3.4466339075,2.6847021665 C 3.4459545253,2.9386290133 3.3793497821,3.1836804236 3.2468196779,3.4198563974 C 3.0229199878,3.8191092725 2.6128700956,4.1659766018 2.0819029678,4.4137577567 C 1.499455999,4.687616605 0.7707213026,4.8402078872 0.0360712956,4.8444856877 C -0.7063288752,4.850575249 -1.4484554345,4.705014829 -2.0442224623,4.4342003071 C -2.3729575039,4.2852642113 -2.6506198823,4.104653878 -2.8772095974,3.8923693073 C -3.2492718676,3.5442058442 -3.4545897733,3.1169512083 -3.4533660925,2.6847021665" />
      <line x1="-3.4533660925" y1="2.6847021665" x2="-3.4533660925" y2="2.6281065716" />
      <line x1="3.4466339075" y1="2.6847021665" x2="3.4466339075" y2="2.6281065716" />
      <path d="M 3.4466339075,2.6281065716 C 3.445953653,2.3741783935 3.37935002,2.1291286776 3.2468230084,1.8929574237 C 3.0655563209,1.5703836901 2.7635230398,1.2814123814 2.3732336782,1.0521207096" />
      <path d="M -3.4533660925,2.6281065716 C -3.4526867103,2.3741797248 -3.3860819671,2.1291283145 -3.2535518629,1.8929523407 C -3.0296521728,1.4936994655 -2.6196022806,1.1468321363 -2.0886351528,0.8990509814 C -1.5061881713,0.625193736 -0.7774535342,0.4725949734 -0.0428033027,0.4683454913 C 0.8468400178,0.4603159526 1.7330559991,0.6726430984 2.3732336782,1.0521207096" />
      <path d="M 1.4966344564,-5.4337351878 L 1.4966344564,-5.4842669689" />
      <path d="M -1.5033656693,-5.2316082001 L -1.5033656693,-5.2821399813" />
      <path d="M 1.4966344564,-5.0294812121 L 1.4966344564,-5.0800129933" />
      <path d="M -1.5033660992,-4.8273538555 L -1.5033660992,-4.8778856366" />
      <path d="M 1.4966339142,-4.6252267508 L 1.4966339142,-4.675758532" />
      <path d="M -1.5033666413,-4.4230998151 L -1.5033666413,-4.4736315962" />
      <path d="M 1.4966334844,-4.2209725772 L 1.4966334844,-4.2715043584" />
      <path d="M -1.5033666414,-4.0188453397 L -1.5033666414,-4.0693771209" />
      <path d="M 1.4966339142,-3.8167184035 L 1.4966339142,-3.8672501847" />
      <path d="M -1.5033660992,-3.6145912988 L -1.5033660992,-3.6651230799" />
      <path d="M 1.4966344564,-3.4124639417 L 1.4966344564,-3.4629957229" />
      <path d="M -1.5033656693,-3.210336954 L -1.5033656693,-3.2608687352" />
      <path d="M 1.4966344564,-3.008209966 L 1.4966344564,-3.0587417472" />
      <path d="M -1.5033660992,-2.8060826094 L -1.5033660992,-2.8566143906" />
      <path d="M 1.4966339142,-2.6039555047 L 1.4966339142,-2.6544872859" />
      <path d="M -1.5033666413,-2.401828569 L -1.5033666413,-2.4523603501" />
      <path d="M 1.4966334844,-2.1997013312 L 1.4966334844,-2.2502331123" />
      <path d="M -1.5033666414,-1.9975740936 L -1.5033666414,-2.0481058748" />
      <path d="M 1.4966339142,-1.7954471575 L 1.4966339142,-1.8459789386" />
      <path d="M -1.5033660992,-1.5933200527 L -1.5033660992,-1.6438518338" />
      <path d="M 1.4966344564,-1.3911926956 L 1.4966344564,-1.4417244768" />
      <path d="M -1.5033656693,-1.189065708 L -1.5033656693,-1.2395974891" />
      <path d="M 1.4966344564,-0.98693872 L 1.4966344564,-1.0374705011" />
      <path d="M -1.5033660992,-0.7848113633 L -1.5033660992,-0.8353431445" />
      <path d="M 1.4966339142,-0.5826842587 L 1.4966339142,-0.6332160398" />
      <path d="M -1.5033666413,-0.3805573229 L -1.5033666413,-0.431089104" />
      <path d="M 1.4966334844,-0.1784300851 L 1.4966334844,-0.2289618662" />
      <path d="M -1.5033666414,0.0236971525 L -1.5033666414,-0.0268346287" />
      <path d="M 1.4966339142,0.2258240886 L 1.4966339142,0.1752923075" />
      <path d="M -1.5033660992,0.4279511934 L -1.5033660992,0.3774194122" />
      <path d="M 1.4966344564,0.6300785505 L 1.4966344564,0.5795467693" />
      <line x1="1.2260009688" y1="-4.412278476" x2="1.2260009688" y2="-4.4993624612" />
      <line x1="-1.2327331538" y1="-2.1739705764" x2="-1.2327331538" y2="-2.2759638644" />
      <line x1="1.2260009688" y1="-1.971843228" x2="1.2260009688" y2="-2.0738371136" />
      <line x1="1.2260009688" y1="-1.5675891995" x2="1.2260009688" y2="-1.669582684" />
      <line x1="1.2260009688" y1="-1.1782448701" x2="1.2260009688" y2="-1.2653282413" />
      <line x1="1.2260009688" y1="-0.3548260836" x2="1.2260009688" y2="-0.456819969" />
      <line x1="-1.2327331538" y1="-5.6981274784" x2="-1.2327331538" y2="-5.7116585898" />
      <path d="M 0.3163982084,-6.350682266 L 0.4423819346,-6.3329011731" />
    </g>
  </g>
</svg>