<?xml version='1.0' encoding='utf-8'?>
<svg width="151.2039699519mm" height="512.9999999995mm" viewBox="-1.4418181179 -4.3888711195 3.0199728409 10.2460674007" version="1.1" xmlns="http://www.w3.org/2000/svg">
  <g transform="scale(1,-1)" stroke-linecap="round">
    <g fill="none" stroke="rgb(64,192,64)" stroke-width="0.019972840937057833" id="Visible">
      <path d="M 1.1283170889,1.9648593376 A 1.5,0.8842456242402315 -1.9687241984799954e-15 0,1 1.565107781,2.6468738043" />
      <path d="M -1.4287711758,2.6468738043 A 1.5,0.8842456242402315 -1.9687241984799954e-15 0,1 1.1283170889,1.9648593376" />
      <path d="M 1.0743802082,2.7012918604 A 1.4236849374322151,0.8392581174807761 -1.9687241984799954e-15 0,1 1.2640212821,2.8396142483" />
      <path d="M 1.2640212821,2.8396142483 L 1.251432091,3.0077630416" />
      <path d="M -0.6906269615,4.1537053961 L -0.7032161526,4.0004135014" />
      <path d="M -0.7032161526,4.0004135014 A 1.4236849374322151,0.8392581174807761 -1.9687241984799954e-15 0,1 -0.8373786516,3.942628766" />
      <path d="M 0.8269635667,2.7577811949 L 0.8395527578,2.5896324016" />
      <path d="M 0.8395527578,2.5896324016 A 1.4236849374322151,0.8392581174807761 -1.9687241984799954e-15 0,1 1.0743802082,2.7012918604" />
      <path d="M 0.6261203938,1.7696196826 Q 0.5798471761,1.7002281073 0.4996891039,1.6446015698" />
      <path d="M 0.3061081172,1.5504676242 C 0.1734629776,1.5064516223 0.0205003386,1.4916637626 -0.1169938351,1.5070733992 C -0.3583737519,1.5317518463 -0.5371284864,1.652492342 -0.5420434299,1.7826461816" />
      <path d="M 0.6787252273,1.6518691034 C 0.6793722762,1.5456653447 0.6134681465,1.4401409539 0.4996891039,1.3618818693" />
      <path d="M 0.4996891039,1.3618818693 C 0.3677201318,1.2694078286 0.1720497488,1.2167250112 -0.0138227415,1.2184669831 C -0.1588132118,1.2190051924 -0.295792854,1.251686945 -0.391636189,1.3060200609 C -0.4881898296,1.3599925011 -0.5428439183,1.4350238848 -0.5423879443,1.5105083721" />
      <path d="M -0.5423879443,1.5105083721 Q -0.5422632347,1.5650556532 -0.506863674,1.6160656616" />
      <path d="M -0.4766805519,1.6518690243 Q -0.4253695215,1.7031746553 -0.3415193489,1.7397914299" />
      <path d="M 0.678725246,1.3691493968 C 0.6793741852,1.2629445938 0.6134615415,1.1574156266 0.4996891039,1.0791622406" />
      <path d="M 0.4996891039,1.0791622406 C 0.3749733852,0.991853913 0.1930557589,0.9396414992 0.0165614148,0.9360281899 C -0.1601038199,0.9312410932 -0.3281947745,0.9748279363 -0.4299247159,1.0473836785 C -0.503937577,1.1006395674 -0.5414255538,1.1607748925 -0.5423886464,1.227789654" />
      <path d="M -0.5423886464,1.227789654 Q -0.5422468773,1.2823802246 -0.5068633435,1.3333456288" />
      <path d="M -0.4766803681,1.3691493418 Q -0.4113967654,1.4342658414 -0.2961461576,1.4747053869" />
      <path d="M -0.1444357628,1.5105092787 Q -0.0363033213,1.5256646822 0.0789105498,1.5161838061" />
      <path d="M 0.6787141784,1.0864055885 C 0.6793603297,0.9802011112 0.6134860353,0.87474337 0.4996891039,0.7964425178" />
      <path d="M 0.4996891039,0.7964425178 C 0.3220401125,0.67015971 0.0261434466,0.6226330262 -0.2009491071,0.6721387481 C -0.406730174,0.7133682113 -0.5449102409,0.8274486281 -0.5423886428,0.9450698975" />
      <path d="M -0.0943698479,1.2334475572 Q -0.0093564867,1.2407977821 0.078905623,1.2334639774" />
      <path d="M 0.6787252351,0.8037100502 C 0.6793697444,0.6974890297 0.6134548901,0.5919730891 0.4996891039,0.513722787" />
      <path d="M 0.4996891039,0.513722787 C 0.364966437,0.4192605677 0.163777112,0.3664611399 -0.0254704685,0.3704385373 C -0.1680962242,0.3726011364 -0.3019722556,0.4059198667 -0.3954842372,0.4600494224 C -0.4896769509,0.5138416647 -0.542818733,0.5878759853 -0.5423876186,0.6623489347" />
      <path d="M -0.5423876186,0.6623489347 Q -0.5423307698,0.7054802447 -0.5199571251,0.7467789865" />
      <path d="M -0.0943746015,0.9507281625 Q 0.0164138577,0.9602816698 0.1307943777,0.9450698567" />
      <path d="M 0.5543912047,0.7679060454 Q 0.6089766623,0.7188499942 0.6404988045,0.66235021" />
      <path d="M 0.6576701188,0.6265463807 Q 0.6786762313,0.5745912401 0.678725247,0.5209904579" />
      <path d="M 0.678725247,0.5209904579 C 0.6793725078,0.4147816106 0.6134616592,0.3092574748 0.4996891039,0.2310032335" />
      <path d="M 0.4996891039,0.2310032335 C 0.3814029845,0.1483114775 0.2118812521,0.0968641263 0.0440797486,0.0888934041 C -0.1237881765,0.0799671992 -0.2875102082,0.1144026945 -0.3960414423,0.1776508215 C -0.4899227312,0.2314450702 -0.5428113106,0.3053078009 -0.5423884979,0.3796307802" />
      <path d="M -0.5423884979,0.3796307802 Q -0.5422474599,0.4342095759 -0.5068633377,0.485186523" />
      <path d="M -0.1444354681,0.6623502888 Q -0.0108663618,0.6810146046 0.1307952585,0.6623502358" />
      <path d="M 0.2932086317,0.6265460804 Q 0.4174130071,0.5875864042 0.5099424726,0.5209893727" />
      <path d="M 0.5543892684,0.4851845501 Q 0.6089644917,0.4361614076 0.6404907709,0.3796160063" />
      <path d="M 0.6576524985,0.3437927001 Q 0.6786571214,0.2917798034 0.6787097439,0.2382061002" />
      <path d="M 0.6787097439,0.2382061002 C 0.6793917384,0.1321352214 0.613475084,0.026619506 0.4996891039,-0.0517165692" />
      <path d="M 0.4996891039,-0.0517165692 C 0.2821931257,-0.2088515503 -0.1125962248,-0.2374718829 -0.3412302591,-0.132496593 C -0.4682531603,-0.077933607 -0.5432069425,0.0089798841 -0.5423683547,0.096857518" />
      <path d="M -0.144433664,0.3796311472 Q -0.0108975141,0.3982948148 0.1307898426,0.3796309796" />
      <path d="M 0.2932074712,0.3438276847 Q 0.4174136591,0.3048680286 0.5099438188,0.2382707934" />
      <path d="M 0.5543813289,0.2024759785 Q 0.6089688065,0.1534213059 0.6404900583,0.0969267612" />
      <path d="M 0.6576697792,0.0611079938 Q 0.6786778769,0.0091453167 0.6787252433,-0.0444489708" />
      <path d="M 0.6787252433,-0.0444489708 C 0.6794107746,-0.1505867771 0.613418838,-0.2562398556 0.4996891039,-0.3344361694" />
      <path d="M 0.3062449784,-0.4285367308 C 0.1123806118,-0.4936165144 -0.1239537254,-0.4928378998 -0.2932307661,-0.4337274928" />
      <path d="M -0.1444361946,0.0969110124 Q -0.0108928664,0.1155757396 0.1307940743,0.0969107253" />
      <path d="M 0.5543919326,-0.0802530637 Q 0.608977304,-0.1293087615 0.6404986772,-0.1858091113" />
      <path d="M 0.6576701015,-0.2216127615 Q 0.6786784006,-0.2735754156 0.6787254989,-0.3271686073" />
      <path d="M 0.6787254989,-0.3271686073 C 0.6794072097,-0.4333101531 0.6134229562,-0.5389556564 0.4996891039,-0.6171558564" />
      <path d="M 0.3062308576,-0.7112599368 C 0.1124745313,-0.7763238314 -0.1240280259,-0.7755602701 -0.2932301183,-0.7164473231" />
      <path d="M -0.0943751914,-0.1801504789 Q 0.0164303353,-0.1705967437 0.1307935743,-0.1858085771" />
      <path d="M 0.5543914535,-0.3629725063 Q 0.6089801302,-0.4120314951 0.6404986991,-0.4685281826" />
      <path d="M 0.6711225282,-0.5461576138 Q 0.6787190488,-0.5778461264 0.6787252382,-0.6098882834" />
      <path d="M -0.144436915,-0.4685287152 Q -0.0363498748,-0.4533752235 0.078910613,-0.4628537966" />
      <path d="M 0.6787253317,-0.8926076949 C 0.6793882534,-0.9987895787 0.6134437314,-1.1043633955 0.4996891039,-1.1825952662" />
      <path d="M 0.4996891039,-1.1825952662 C 0.2967208894,-1.328275071 -0.0607815858,-1.3655528021 -0.2932316913,-1.2818861565" />
      <path d="M -0.5423886407,-1.0339677277 Q -0.5423344265,-0.9908540098 -0.5199572346,-0.949539136" />
      <path d="M 0.0789107649,-0.7455736137 L 0.1307896544,-0.751247406" />
      <path d="M 0.5608966087,-0.9343577858 Q 0.6109182078,-0.9809226463 0.6404988561,-1.0339678685" />
      <path d="M 0.6576700911,-1.0697715894 Q 0.6786772443,-1.1217310348 0.6787252344,-1.1753277648" />
      <path d="M 0.6787252344,-1.1753277648 C 0.6793826212,-1.2815134268 0.6134546195,-1.3870729952 0.4996891039,-1.4653148979" />
      <path d="M 0.3062409669,-1.5594164123 C 0.1412630934,-1.6144561461 -0.0549947936,-1.6230695368 -0.2138560239,-1.5868360195 C -0.4127872486,-1.5435845531 -0.5446623362,-1.4319100533 -0.5423561646,-1.3166188924" />
      <path d="M -0.5423561646,-1.3166188924 Q -0.5422077435,-1.2620315855 -0.5068624772,-1.2111329437" />
      <path d="M 0.3062404373,-1.8421362999 C 0.0329374328,-1.9361710384 -0.3172253981,-1.8885280265 -0.4611049229,-1.7553568238 C -0.5148014267,-1.7075686635 -0.5418960002,-1.6555854317 -0.5423886435,-1.5994071284" />
      <path d="M 0.0789094108,-1.3110129448 L 0.1307945747,-1.3166875361" />
      <path d="M 0.4996891039,-2.0307542388 C 0.3253756731,-2.1543059367 0.0386701782,-2.2027932869 -0.1867890352,-2.157869447 C -0.3999894399,-2.1189359953 -0.5450632253,-2.0026225477 -0.5423886814,-1.8821268277" />
      <path d="M -0.5423886814,-1.8821268277 Q -0.5422483839,-1.8275401997 -0.5068634189,-1.7765708913" />
      <path d="M -0.4766803223,-1.7407670813 Q -0.411335986,-1.6756149996 -0.2961459994,-1.6352110747" />
      <path d="M -0.1444353107,-1.5994072162 Q -0.0108644167,-1.580743671 0.1307951812,-1.5994071555" />
      <path d="M 0.2932094804,-1.6352110082 Q 0.417368506,-1.6741499901 0.5099438667,-1.7407670023" />
      <path d="M 0.5543914249,-1.776570889 Q 0.6089656957,-1.8256121872 0.6404987331,-1.8821266588" />
      <path d="M 0.6576701575,-1.9179307394 Q 0.6786807488,-1.9699051035 0.6787252451,-2.0234866936" />
      <path d="M 0.6787252451,-2.0234866936 C 0.6793817568,-2.1296735262 0.613455778,-2.2352307973 0.4996891039,-2.313473917" />
      <path d="M 0.4996891039,-2.313473917 C 0.3748198102,-2.4008787185 0.1927024873,-2.4530944819 0.0160246699,-2.4566209031 C -0.1608234442,-2.4613239136 -0.3289985957,-2.4175401466 -0.4305729248,-2.3447950564 C -0.5041827614,-2.2915359785 -0.5414542094,-2.2315530993 -0.5423872688,-2.1648464187" />
      <path d="M -0.5423872688,-2.1648464187 Q -0.5422497057,-2.1103313182 -0.5068448524,-2.0593174848" />
      <path d="M -0.1444348651,-1.8821267644 L -0.0943740134,-1.8764685103" />
      <path d="M 0.2932053508,-1.9179318464 Q 0.4174445526,-1.9569136189 0.5099436923,-2.0234868014" />
      <path d="M 0.3062408795,-2.6902951157 C 0.1274714537,-2.7501058451 -0.0877820118,-2.754696244 -0.2527287574,-2.7079880716 C -0.430563486,-2.6596247402 -0.5440349208,-2.554952111 -0.5423844628,-2.4475717753" />
      <path d="M -0.5423844628,-2.4475717753 Q -0.5422699318,-2.3930334194 -0.5068632456,-2.3420099342" />
      <path d="M -0.1444219567,-2.16484466 L -0.0943753874,-2.1591883421" />
      <path d="M 0.0789097527,-2.1591719883 L 0.1307996626,-2.1648471869" />
      <path d="M 0.6787252547,-2.5889261103 C 0.6794357447,-2.6950289079 0.6133748365,-2.8007682589 0.4996891039,-2.8789132738" />
      <path d="M 0.4996891039,-2.8789132738 C 0.3684081441,-2.9709250518 0.1738492172,-3.0235970611 -0.0111492836,-3.0223395535 C -0.156032962,-3.0221770924 -0.29312601,-2.989950899 -0.3894519578,-2.9359968911 C -0.4864776149,-2.8824088023 -0.5419121475,-2.8076376481 -0.5423762583,-2.7322915125 C -0.5423803856,-2.7316229647 -0.542384513,-2.730954417 -0.5423886404,-2.7302858693" />
      <path d="M -0.1444353248,-2.447566199 Q -0.0107958698,-2.4288986618 0.1307732999,-2.447569756" />
      <path d="M 0.5543565342,-2.6247473083 Q 0.608853251,-2.6737695248 0.6404557553,-2.7303632157" />
      <path d="M 0.6576444543,-2.7661531813 Q 0.6787044245,-2.8181269321 0.6787252958,-2.8716456739" />
      <path d="M 0.6787252958,-2.8716456739 C 0.6793791513,-2.977841325 0.6134534327,-3.0833903243 0.4996891039,-3.1616329925" />
      <path d="M 0.4996891039,-3.1616329925 C 0.3649175363,-3.2561349748 0.1635884557,-3.308937126 -0.0256849832,-3.304913697 C -0.249062544,-3.3023829068 -0.4453291603,-3.2203023408 -0.5126564321,-3.1098538231 C -0.5324109275,-3.0784974108 -0.5423216469,-3.0462146675 -0.5423885904,-3.0130055931" />
      <path d="M -0.4766802735,-2.8716456073 Q -0.4113551895,-2.8065052715 -0.2961462109,-2.7660896352" />
      <path d="M -0.1444348793,-2.7302857905 Q -0.0363277404,-2.7151323889 0.07890936,-2.7246113229" />
      <path d="M 0.2932096548,-2.7660897836 Q 0.417367196,-2.8050283882 0.5099438627,-2.8716456899" />
      <path d="M 0.6787242818,-3.1543605729 C 0.6793694185,-3.2606082498 0.6134286036,-3.3661244112 0.4996891039,-3.4443527576" />
      <path d="M 0.4996891039,-3.4443527576 C 0.3706961901,-3.5347465124 0.1803209443,-3.5873289768 -0.0017373436,-3.5877630944 C -0.1840584695,-3.5895351776 -0.3543433959,-3.5394812525 -0.4502908784,-3.460777706 C -0.5110385674,-3.4108539502 -0.5417378198,-3.3558364349 -0.5423886356,-3.29572516" />
      <path d="M -0.4766803504,-3.1543653711 Q -0.4113952171,-3.0892474798 -0.2961453274,-3.0488092319" />
      <path d="M -0.144435493,-3.0130055925 Q -0.0106629843,-2.9943394828 0.1307951333,-3.0130055512" />
      <path d="M 0.2931968756,-3.0488054342 Q 0.4173822668,-3.0877543827 0.509943852,-3.154365403" />
      <path d="M 0.6787253021,-3.4370851224 C 0.6793856455,-3.5432632705 0.6134554191,-3.6488307617 0.4996891039,-3.7270722793" />
      <path d="M 0.4996891039,-3.7270722793 C 0.2967913043,-3.872750047 -0.0607846093,-3.910019591 -0.2932309916,-3.8263635054" />
      <path d="M -0.4766803548,-3.4370851319 Q -0.4113317537,-3.3719310918 -0.2961461917,-3.3315290884" />
      <path d="M -0.1444351153,-3.2957251901 Q -0.0363485802,-3.2805718517 0.0789112299,-3.2900507416" />
      <path d="M 0.2932095431,-3.33152913 Q 0.417397702,-3.3704827828 0.509943859,-3.4370851195" />
      <path d="M 0.6787253348,-3.7198046022 C 0.6793772098,-3.8260017147 0.6134592439,-3.9315432737 0.4996891039,-4.0097919853" />
      <path d="M 0.4996891039,-4.0097919853 Q 0.415575364,-4.0678009238 0.3062402931,-4.1038937838" />
      <path d="M -0.4766802836,-3.7198046744 Q -0.4113693107,-3.654672424 -0.296146117,-3.6142487459" />
      <path d="M -0.0943734295,-3.5727867408 Q 0.016462095,-3.5632337738 0.1307945466,-3.5784449194" />
      <path d="M 0.5543911792,-3.7556089184 Q 0.6089740052,-3.8046586811 0.6404988574,-3.8611645371" />
      <path d="M 0.6576702413,-3.8969686579 Q 0.6786781799,-3.9489329338 0.6787252519,-4.0025244067" />
      <path d="M 0.6787252519,-4.0025244067 C 0.6793832142,-4.108707209 0.6134577063,-4.2142670771 0.4996891039,-4.2925117111" />
      <path d="M 0.4996891039,-4.2925117111 C 0.2968298344,-4.4381574923 -0.0607049505,-4.4754743817 -0.2932307682,-4.3918029311" />
      <path d="M -0.1444351018,-3.8611646699 L -0.094374477,-3.8555064158" />
      <path d="M 0.0789100955,-3.8554899971 L 0.1307951637,-3.8611645611" />
      <path d="M 0.5543908396,-4.0383277716 Q 0.6089834472,-4.0873907779 0.6404988189,-4.1438842346" />
      <path d="M 0.6576701332,-4.1796881387 Q 0.678676854,-4.2316452028 0.6787252511,-4.2852441662" />
      <path d="M 0.6787252511,-4.2852441662 C 0.6794233687,-4.3913644168 0.6133964945,-4.4970608888 0.4996891039,-4.5752312722" />
      <path d="M 0.4996891039,-4.5752312722 C 0.2966844091,-4.7209367857 -0.060903141,-4.7581775305 -0.2932316349,-4.6745222357" />
      <path d="M 0.0789099574,-4.1382097208 L 0.1307950474,-4.1438842803" />
      <path d="M 0.5543914496,-4.3210480519 Q 0.6089852528,-4.3701127801 0.6404988189,-4.4266038935" />
      <path d="M 0.6711224889,-4.504232937 Q 0.6787187271,-4.5359186043 0.6787252531,-4.5679637074" />
      <path d="M 0.6787252531,-4.5679637074 C 0.6794262975,-4.6740802707 0.613391053,-4.7797869228 0.4996891039,-4.8579510909" />
      <path d="M 0.4996891039,-4.8579510909 C 0.2967957203,-5.0036330972 -0.0608694163,-5.0408977903 -0.2932283315,-4.9572426855" />
      <path d="M -0.542385919,-4.7093274254 Q -0.5422449658,-4.6547888543 -0.5068471174,-4.6037910006" />
      <path d="M -0.1444047967,-4.42660828 Q -0.0109870082,-4.4079366641 0.1307883329,-4.426603102" />
      <path d="M 0.2932094658,-4.4624077986 Q 0.4174225206,-4.501372956 0.5099438514,-4.5679636925" />
      <path d="M 0.5543914742,-4.6037675818 Q 0.6089497646,-4.6527888557 0.6404988088,-4.7093235976" />
      <path d="M 0.6711225593,-4.7869529579 Q 0.6787200755,-4.8186498092 0.678725304,-4.8506835348" />
      <path d="M -0.2932327711,-5.2399614462 C -0.4481739095,-5.1878706911 -0.54366094,-5.0907712945 -0.5423867693,-4.9920477329" />
      <path d="M -0.5423867693,-4.9920477329 Q -0.542254482,-4.9374700725 -0.5068634833,-4.8864873961" />
      <path d="M -0.0943747002,-4.7036653755 Q 0.0164487813,-4.694111884 0.1307954728,-4.709323608" />
      <path d="M 0.2932096772,-4.7451274463 Q 0.4173731024,-4.7840690387 0.509943859,-4.8506835114" />
      <path d="M 0.554391404,-4.8864873661 Q 0.6089616379,-4.9355227714 0.6404988399,-4.9920432914" />
      <path d="M 0.6576701965,-5.0278473556 Q 0.6786780334,-5.0798109716 0.6787252606,-5.1334030895" />
      <path d="M 0.3062400947,-5.5174922787 C 0.0843132982,-5.5925825185 -0.1922304893,-5.5788551956 -0.3620288627,-5.4946663497 C -0.4765883929,-5.4399818783 -0.543055482,-5.3577307208 -0.5423820931,-5.2747551155" />
      <path d="M -0.5423820931,-5.2747551155 Q -0.5421939176,-5.220150381 -0.5068428191,-5.1691982912" />
      <path d="M -0.1444354645,-4.9920432212 Q -0.0108593642,-4.9733799242 0.1307946158,-4.9920432954" />
      <path d="M 0.6335809886,-5.6972290745 C 0.7826484979,-5.5983614781 0.8690192201,-5.4637364508 0.8681681998,-5.3282366944" />
      <path d="M 0.8677000937,-5.3105667179 Q 0.8580355896,-5.1565349224 0.7209157522,-5.0278471483" />
      <path d="M 0.3062372838,-4.820921098 Q 0.1951886211,-4.794075763 0.0789101722,-4.7866059055" />
      <path d="M -0.094374579,-4.7865896588 Q -0.1984024137,-4.7934109899 -0.2932280683,-4.8157319877" />
      <path d="M -0.5140738179,-4.897464545 C -0.652968359,-4.9723958351 -0.7325628937,-5.0792756657 -0.7318316994,-5.18687672" />
      <path d="M -0.7318316994,-5.18687672 C -0.7329382598,-5.3067460675 -0.6333341261,-5.4253889596 -0.4650530331,-5.5005907137 C -0.2982471115,-5.5767651843 -0.0658640012,-5.6078649193 0.1573566796,-5.5798279389 C 0.3509601528,-5.5564610169 0.5352253301,-5.489451813 0.6645537033,-5.392675682 C 0.7948328846,-5.2964008042 0.868805958,-5.1712620226 0.8681682476,-5.0455171237" />
      <path d="M 0.8681682476,-5.0455171237 Q 0.8680439909,-4.9642153924 0.8294320886,-4.8864873542" />
      <path d="M -0.0943750595,-4.5038699146 Q -0.1984043665,-4.5106912407 -0.2932311615,-4.5330127736" />
      <path d="M -0.7311450703,-4.8864871876 L -0.7318316663,-4.9041571661" />
      <path d="M -0.7318316663,-4.9041571661 C -0.7340485657,-5.0482748566 -0.5876433892,-5.1893847673 -0.3577838214,-5.2579340675 C -0.1174677351,-5.3329510694 0.2062785614,-5.3223833288 0.4549745111,-5.2235780117 C 0.7063053527,-5.1275842571 0.8708929067,-4.9471601254 0.8681684782,-4.7627975671" />
      <path d="M 0.8681684782,-4.7627975671 Q 0.8680441969,-4.6814956768 0.8294319796,-4.6037675996" />
      <path d="M 0.4737534641,-4.30954422 Q 0.2907002087,-4.2350528925 0.0789108647,-4.221166548" />
      <path d="M -0.7311453508,-4.6037682002 L -0.7318319515,-4.621438194" />
      <path d="M -0.7318319515,-4.621438194 C -0.7317210428,-4.6697261398 -0.7167989375,-4.7165326981 -0.6870656355,-4.761857869 C -0.6258403555,-4.8556224754 -0.5000213844,-4.93555645 -0.3385407892,-4.980861053 C -0.1776166814,-5.0267211453 0.0175131433,-5.0374454121 0.201982947,-5.0081491913 C 0.3866357393,-4.9794889584 0.5589617733,-4.91097482 0.6793362332,-4.8159417645 C 0.800546723,-4.721324957 0.8687152004,-4.6009504476 0.8681680729,-4.4800777846" />
      <path d="M 0.8681680729,-4.4800777846 L 0.8676999674,-4.4624078048" />
      <path d="M -0.7311453499,-4.3210474079 L -0.7318319505,-4.3387173737" />
      <path d="M -0.7318319505,-4.3387173737 C -0.7326806843,-4.4505739799 -0.6464201509,-4.5615576135 -0.497517545,-4.6368476631 C -0.3498154601,-4.7128455218 -0.1415638694,-4.7519161259 0.0681681651,-4.7396357846 C 0.2779002048,-4.7283563664 0.4861512025,-4.6657258693 0.6338535832,-4.5661678903 C 0.7827565527,-4.4673176566 0.8690174217,-4.3327742987 0.8681684784,-4.1973580069" />
      <path d="M 0.8681684784,-4.1973580069 Q 0.8680442108,-4.1160562865 0.829432088,-4.0383282579" />
      <path d="M 0.3062414134,-3.6900435338 Q 0.1951908521,-3.663197369 0.0789098322,-3.6557272345" />
      <path d="M -0.0943752752,-3.6557108018 Q -0.1984037566,-3.6625320754 -0.2932294089,-3.6848533755" />
      <path d="M -0.7318316666,-4.0559984047 C -0.7326806432,-4.1678543764 -0.6464201964,-4.2788379411 -0.4975170771,-4.3541282953 C -0.349814569,-4.4301263948 -0.1415633803,-4.4691965214 0.0681682654,-4.4569159394 C 0.2778999096,-4.4456362641 0.4861511378,-4.3830062067 0.6338536635,-4.2834484588 C 0.782756804,-4.1845984835 0.8690172274,-4.0500547573 0.8681682476,-3.9146384468" />
      <path d="M 0.8681682476,-3.9146384468 L 0.867700141,-3.8969684678" />
      <path d="M -0.7318316999,-3.7732788526 C -0.7326806963,-3.885135292 -0.6464200319,-3.9961187389 -0.4975167946,-4.0714086792 C -0.3498141624,-4.1474063754 -0.1415630565,-4.1864766795 0.0681685433,-4.1741963597 C 0.2779001348,-4.1629169655 0.4861514452,-4.1002865358 0.6338539252,-4.0007284625 C 0.7827570313,-3.9018781105 0.8690171766,-3.7673350096 0.8681681996,-3.6319188755" />
      <path d="M 0.8681681996,-3.6319188755 L 0.8677000935,-3.6142488924" />
      <path d="M -0.7311451611,-3.472888507 L -0.7318317568,-3.4905584845" />
      <path d="M -0.7318317568,-3.4905584845 C -0.7326806559,-3.6024146372 -0.6464203958,-3.7133980815 -0.4975179165,-3.7886884295 C -0.349816047,-3.8646865295 -0.1415650685,-3.9037570682 0.0681669146,-3.8914767455 C 0.2778989315,-3.8801973251 0.4861499495,-3.81756735 0.6338523247,-3.7180098129 C 0.7827551987,-3.6191600836 0.8690175086,-3.4846162827 0.8681684677,-3.3492003028" />
      <path d="M 0.8681684677,-3.3492003028 L 0.8677003566,-3.3315302925" />
      <path d="M -0.7311449705,-3.1901696698 L -0.731831563,-3.2078396519" />
      <path d="M -0.731831563,-3.2078396519 C -0.7373379885,-3.3932508901 -0.4887598354,-3.5686621652 -0.1534847811,-3.6029265253 C 0.1787378812,-3.6434282094 0.5650619607,-3.5372421145 0.745342422,-3.3428414535 C 0.8263712273,-3.2575353778 0.8673131769,-3.1654149025 0.8681682708,-3.0664800276" />
      <path d="M 0.8681682708,-3.0664800276 L 0.8677001662,-3.0488100455" />
      <path d="M -0.7311452293,-2.9074493102 L -0.7318318247,-2.9251192877" />
      <path d="M -0.7318318247,-2.9251192877 C -0.7336183797,-3.061149822 -0.6039052132,-3.1949062212 -0.3949262123,-3.2667682932 C -0.188015737,-3.3403480055 0.0918719705,-3.3494020421 0.3320275429,-3.2845238394 C 0.6469421224,-3.204078206 0.8728617406,-2.9979561119 0.8681682769,-2.7837598143" />
      <path d="M 0.8681682769,-2.7837598143 L 0.8677001687,-2.7660898329" />
      <path d="M -0.7311450769,-2.6247299973 L -0.7318316719,-2.6423999794" />
      <path d="M -0.7318316719,-2.6423999794 C -0.736511747,-2.8194158945 -0.5109753791,-2.9883883085 -0.1964188948,-3.0319453979 C 0.043775808,-3.068378854 0.3238616077,-3.0308215019 0.5309483213,-2.9286459176 C 0.7401061327,-2.8281918659 0.8699584222,-2.6657556996 0.8681684303,-2.5010397309" />
      <path d="M 0.8681684303,-2.5010397309 Q 0.8680917667,-2.4291152263 0.8377043908,-2.3596801402" />
      <path d="M 0.306193408,-1.9937137896 Q 0.1951662785,-1.9668777504 0.0789122973,-1.9594092011" />
      <path d="M -0.0943752927,-1.9593927778 Q -0.1984044524,-1.9662142315 -0.2932311295,-1.988535803" />
      <path d="M -0.514019606,-2.070238347 C -0.652947299,-2.1451716264 -0.7325631373,-2.2520651055 -0.7318316666,-2.3596807214" />
      <path d="M -0.7318316666,-2.3596807214 C -0.7309823878,-2.4416242061 -0.690177212,-2.5167878486 -0.6094161393,-2.5851716487 C -0.4293568013,-2.7410385591 -0.0429479937,-2.8087267396 0.2894508399,-2.7295876393 C 0.6249010911,-2.6566951765 0.8736820487,-2.442517098 0.8681681674,-2.2183208672" />
      <path d="M 0.8681681674,-2.2183208672 Q 0.8680438929,-2.1370188471 0.8294318091,-2.0592905756" />
      <path d="M -0.0943751978,-1.6766732116 Q -0.1984047764,-1.6834946236 -0.2932316605,-1.7058162604" />
      <path d="M -0.7311452649,-2.0592915128 L -0.7318318643,-2.0769615291" />
      <path d="M -0.7318318643,-2.0769615291 C -0.7326809012,-2.1888175484 -0.6464185945,-2.299801387 -0.4975157232,-2.3750911533 C -0.3498133498,-2.451088728 -0.1415623286,-2.4901587421 0.0681696884,-2.4778782006 C 0.2779016718,-2.4665985613 0.4861526488,-2.4039680598 0.6338545194,-2.3044099974 C 0.7827569995,-2.2055596869 0.869017262,-2.0710162805 0.8681683627,-1.9356001652" />
      <path d="M 0.8681683627,-1.9356001652 Q 0.8680917105,-1.8636758353 0.8377044262,-1.7942408149" />
      <path d="M -0.094374235,-1.3939534666 Q -0.1984037522,-1.4007747447 -0.2932306919,-1.4230961794" />
      <path d="M -0.7311450029,-1.7765709987 L -0.7318315946,-1.7942409833" />
      <path d="M -0.7318315946,-1.7942409833 C -0.7326805718,-1.9060971472 -0.6464204245,-2.0170802808 -0.4975173179,-2.0923706644 C -0.3498148374,-2.1683687693 -0.141563528,-2.2074392288 0.0681680632,-2.1951586539 C 0.2778996628,-2.1838790046 0.4861507692,-2.1212487329 0.633853401,-2.0216910682 C 0.782756638,-1.9228411595 0.869017301,-1.7882977429 0.8681683046,-1.652881335" />
      <path d="M 0.8681683046,-1.652881335 Q 0.8680440246,-1.5715793519 0.829431974,-1.4938512204" />
      <path d="M -0.0943755037,-1.1112337686 Q -0.1983904887,-1.118054046 -0.2932060738,-1.1403707067" />
      <path d="M -0.7311450501,-1.4938511905 L -0.7318316425,-1.511521169" />
      <path d="M -0.7318316425,-1.511521169 C -0.7326806224,-1.6233775109 -0.6464201984,-1.7343612665 -0.4975170576,-1.8096512718 C -0.3498145314,-1.8856490497 -0.1415633036,-1.9247191385 0.0681683401,-1.9124388449 C 0.2778999854,-1.9011594579 0.4861511741,-1.8385293608 0.6338536824,-1.7389712918 C 0.7827568019,-1.6401209679 0.8690172482,-1.5055774358 0.8681682715,-1.3701614947" />
      <path d="M 0.8681682715,-1.3701614947 Q 0.8680440023,-1.2888597207 0.8294319174,-1.2111315246" />
      <path d="M -0.0943745939,-0.8285141908 Q -0.1984045271,-0.8353355815 -0.293231667,-0.8576572331" />
      <path d="M -0.5260964253,-0.9460818249 C -0.6576710438,-1.0205677252 -0.7324832402,-1.1243736304 -0.731831873,-1.22880143" />
      <path d="M -0.731831873,-1.22880143 C -0.7326808162,-1.3406577378 -0.646419949,-1.4516411127 -0.4975169814,-1.5269313638 C -0.3498146028,-1.6029293601 -0.1415636055,-1.641999874 0.0681684347,-1.6297193094 C 0.2779004698,-1.6184396678 0.4861520593,-1.5558090823 0.6338541443,-1.4562512415 C 0.7827567498,-1.3574012101 0.8690172901,-1.2228575911 0.8681685566,-1.0874410031" />
      <path d="M 0.8681685566,-1.0874410031 Q 0.8680442379,-1.0061394251 0.8294320341,-0.9284118461" />
      <path d="M -0.094372805,-0.5457943396 Q -0.1984037483,-0.5526156742 -0.2932320051,-0.5749376074" />
      <path d="M -0.7311448769,-0.9284118461 L -0.7318314677,-0.946081826" />
      <path d="M -0.7318314677,-0.946081826 C -0.7323778633,-1.0458807443 -0.6642579246,-1.1451823573 -0.5431240214,-1.2187518932 C -0.4228251993,-1.2927370017 -0.2506006843,-1.3402299599 -0.0660265096,-1.3479010115 C 0.118364402,-1.3562071482 0.3134412124,-1.324524607 0.4743791887,-1.2577171236 C 0.6358722274,-1.1914646229 0.7617723816,-1.0905921518 0.8231475175,-0.9758627537 C 0.8530493606,-0.9203101603 0.8680563733,-0.8632634596 0.8681685556,-0.8047226517" />
      <path d="M 0.8681685556,-0.8047226517 Q 0.8680918369,-0.7327977036 0.8377041627,-0.6633621181" />
      <path d="M 0.8294319171,-0.6456921659 Q 0.7786729696,-0.5446304793 0.671122519,-0.4625070264" />
      <path d="M 0.6511008277,-0.4477928271 L 0.6071722698,-0.4188174474" />
      <path d="M 0.3062408231,-0.2974072428 Q 0.1951915257,-0.2705613853 0.0789122109,-0.2630911798" />
      <path d="M -0.7318318732,-0.6633622179 C -0.734551685,-0.8156730438 -0.5701235379,-0.9640541739 -0.3189754099,-1.0281099733 C -0.0704600034,-1.0949718241 0.2531114782,-1.073706273 0.4934674021,-0.9668951416 C 0.7236897234,-0.868107061 0.8703931792,-0.6965655776 0.8681682717,-0.5220021562" />
      <path d="M 0.8681682717,-0.5220021562 Q 0.8680440122,-0.4407004828 0.8294319739,-0.3629724698" />
      <path d="M 0.306239284,-0.0146871108 Q 0.1951801155,0.0121608639 0.0788904909,0.0196297529" />
      <path d="M -0.0943492475,0.0196464266 Q -0.1983926829,0.012826137 -0.2932316905,-0.0094982643" />
      <path d="M -0.7311450501,-0.3629725007 L -0.7318316425,-0.3806424819" />
      <path d="M -0.7318316425,-0.3806424819 C -0.7324677169,-0.4844340933 -0.6585961536,-0.5876215688 -0.5284740527,-0.6620001731 C -0.3993007292,-0.7368784754 -0.2152409587,-0.7820474455 -0.0217864614,-0.7836396596 C 0.2015375038,-0.7865706792 0.4341284952,-0.7302982052 0.6011021054,-0.6288762979 C 0.7695533449,-0.5284296729 0.869277307,-0.3844709585 0.8681683051,-0.2392823138" />
      <path d="M 0.8681683051,-0.2392823138 C 0.868764934,-0.1156833141 0.7973796151,0.0073592982 0.6711219729,0.1029327845" />
      <path d="M 0.6510933369,0.1176518427 L 0.607172421,0.1466217532" />
      <path d="M 0.306241415,0.2680318605 Q 0.1951738835,0.2948821793 0.0788753599,0.3023505051" />
      <path d="M -0.0943755635,0.3023646406 Q -0.1984043655,0.2955432536 -0.2932307669,0.273221786" />
      <path d="M -0.7311450027,-0.080252693 L -0.7318315944,-0.0979226681" />
      <path d="M -0.7318315944,-0.0979226681 C -0.7326785845,-0.209709862 -0.6465289604,-0.3206276244 -0.4977897299,-0.3959136529 C -0.2769886304,-0.511825409 0.0833334288,-0.5364817533 0.37413637,-0.4453267982 C 0.6679641328,-0.3584783409 0.872121963,-0.1607355935 0.8681683619,0.0434365143" />
      <path d="M 0.8681683619,0.0434365143 C 0.8687649346,0.1670358803 0.797379149,0.290079036 0.6711210321,0.3856530636" />
      <path d="M 0.651101104,0.4003659611 L 0.6071715746,0.429342022" />
      <path d="M 0.3062406562,0.5507519511 Q 0.1951906526,0.5775978884 0.0789105002,0.5850678994" />
      <path d="M -0.0943747888,0.5850842143 Q -0.1984046243,0.5782627889 -0.2932316721,0.5559411452" />
      <path d="M -0.7311452633,0.2024678255 L -0.7318318625,0.1847978827" />
      <path d="M -0.7318318625,0.1847978827 C -0.7318304875,0.1688930051 -0.7301680495,0.1530428678 -0.7268445485,0.137247471 C -0.7050323001,0.0300858797 -0.6031349533,-0.071045935 -0.4481898059,-0.1363013374 C -0.2941973442,-0.2022211932 -0.0890473455,-0.2313230869 0.1128323411,-0.2128718173 C 0.3147943655,-0.1952891384 0.5110140995,-0.1302345559 0.6494308672,-0.0319536945 C 0.7889199215,0.0657294285 0.8689059969,0.1955786187 0.8681681681,0.3261572187" />
      <path d="M 0.8681681681,0.3261572187 Q 0.8680439234,0.4074587345 0.8294321623,0.4851865181" />
      <path d="M -0.094374354,0.8678039201 Q -0.1984045123,0.8609825003 -0.2932322806,0.8386606988" />
      <path d="M -0.7311450767,0.485187046 L -0.7318316657,0.4675170685" />
      <path d="M -0.7318316657,0.4675170685 C -0.7326805527,0.3556604847 -0.6464207599,0.2446773429 -0.4975178807,0.1693870467 C -0.3498156174,0.0933890072 -0.1415640363,0.0543182585 0.0681677338,0.066598669 C 0.2778995228,0.0778781447 0.4861505492,0.1405085813 0.6338532069,0.2400663632 C 0.7827564544,0.3389164014 0.8690174154,0.4734596854 0.8681684298,0.60887608" />
      <path d="M 0.8681684298,0.60887608 L 0.8677003211,0.6265460616" />
      <path d="M -0.7311450767,0.7679063076 L -0.7318316718,0.7502363301" />
      <path d="M -0.7318316718,0.7502363301 C -0.732680638,0.6383802118 -0.6464202112,0.5273963435 -0.4975171219,0.4521061468 C -0.3498146437,0.3761081786 -0.1415634091,0.3370381902 0.0681683026,0.3493186247 C 0.2779000144,0.3605981619 0.4861512487,0.4232281227 0.6338537269,0.5227860641 C 0.7827568162,0.6216362341 0.8690172433,0.7561800744 0.8681682771,0.891596164" />
      <path d="M 0.8681682771,0.891596164 L 0.8677001688,0.9092661423" />
      <path d="M -0.7318318252,1.0329556387 C -0.7326808106,0.9210992236 -0.6464198488,0.8101159189 -0.4975166017,0.7348258592 C -0.3498139445,0.6588280558 -0.1415629181,0.6197575981 0.0681688721,0.6320381025 C 0.2779006435,0.6433176721 0.4861522256,0.7059484007 0.6338544877,0.8055064191 C 0.7827573654,0.904356694 0.8690171581,1.0388998166 0.8681682718,1.1743163813" />
      <path d="M 0.8681682718,1.1743163813 Q 0.8663099994,1.33798057 0.7209159939,1.4747053054" />
      <path d="M -0.1254736042,1.7135702233 Q -0.2128593574,1.7057440898 -0.2932318354,1.6868198159" />
      <path d="M -0.5140745556,1.6050876915 C -0.6529688282,1.5301562412 -0.7325627526,1.4232766379 -0.7318315622,1.315676001" />
      <path d="M -0.7318315622,1.315676001 C -0.7325684812,1.2078540669 -0.6526354068,1.1007603938 -0.5132267207,1.0258033386 C -0.3748892429,0.9502494342 -0.178773056,0.9078909304 0.023119254,0.9129710278 C 0.2249286184,0.9171836291 0.4300460886,0.9689166648 0.5840844713,1.0574644284 C 0.7390735509,1.1453481525 0.8410951014,1.2691073419 0.8630948026,1.3989371028 C 0.8664758243,1.418247449 0.8681670466,1.4376139644 0.8681684695,1.4570366491" />
      <path d="M 0.8681684695,1.4570366491 Q 0.8663097847,1.6207000502 0.7209156955,1.757425059" />
      <path d="M -0.6283141101,1.8072698554 Q -0.7309261044,1.7107167559 -0.7318317575,1.5983948357" />
      <path d="M -0.7318317575,1.5983948357 C -0.7357793935,1.4296409647 -0.5318022185,1.26730361 -0.2381560307,1.2157383442 C 0.0524663839,1.159873936 0.4126512751,1.2196945142 0.6335809886,1.3707628475 C 0.7826484979,1.4696304439 0.8690192201,1.6042554711 0.8681681998,1.7397552275" />
      <path d="M 0.8681681998,1.7397552275 Q 0.8681513076,1.7888618098 0.8538319921,1.837166647" />
      <path d="M -0.7283075216,1.841122976 C -0.7093014426,1.7284914647 -0.6016313872,1.6217097266 -0.4364759499,1.5551489109 C -0.2724392497,1.4877767393 -0.0533460673,1.4617894699 0.1573566796,1.488163983 C 0.4391342309,1.5210911803 0.6962100582,1.6498882236 0.8045067535,1.8200440231" />
      <path d="M 0.6335809886,-5.6972290745 L 0.6335809886,-5.6618891148" />
      <path d="M 0.6335809886,-5.6618891148 C 0.7826484979,-5.5630215185 0.8690192201,-5.4283964912 0.8681681998,-5.2928967348" />
      <path d="M 0.8681681998,-5.2928967348 Q 0.866750101,-5.1405224531 0.7391509828,-5.0101771706" />
      <path d="M -0.461011084,-4.8360113958 L -0.4816685274,-4.8455627457" />
      <path d="M -0.5199572757,-4.8653600262 C -0.6552751999,-4.9400933655 -0.7325232277,-5.0454792406 -0.7318316994,-5.1515367604" />
      <path d="M -0.7318316994,-5.1515367604 C -0.7329382598,-5.2714061079 -0.6333341261,-5.3900489999 -0.4650530331,-5.4652507541 C -0.2982471115,-5.5414252247 -0.0658640012,-5.5725249597 0.1573566796,-5.5444879793 C 0.3509601528,-5.5211210573 0.5352253301,-5.4541118534 0.6645537033,-5.3573357224 C 0.7948328846,-5.2610608446 0.868805958,-5.135922063 0.8681682476,-5.0101771641" />
      <path d="M 0.8681682476,-5.0101771641 Q 0.8680915905,-4.9382526499 0.8377043241,-4.8688174262" />
      <path d="M -0.6864437677,-4.7274575466 Q -0.7316607181,-4.7958687917 -0.7318316663,-4.8688172065" />
      <path d="M -0.7318316663,-4.8688172065 C -0.7340485657,-5.012934897 -0.5876433892,-5.1540448076 -0.3577838214,-5.2225941079 C -0.1174677351,-5.2976111098 0.2062785614,-5.2870433692 0.4549745111,-5.1882380521 C 0.7063053527,-5.0922442975 0.8708929067,-4.9118201658 0.8681684782,-4.7274576075" />
      <path d="M 0.8681684782,-4.7274576075 Q 0.8680918041,-4.6555328728 0.8377042155,-4.5860975398" />
      <path d="M -0.4610103576,-4.2705716719 L -0.4816686256,-4.2801234102" />
      <path d="M -0.5199572382,-4.2999206678 L -0.5260964866,-4.3033780107" />
      <path d="M -0.5552776506,-4.3210479797 C -0.6689065876,-4.3937442082 -0.7323091429,-4.4897118398 -0.7318319515,-4.5860982344" />
      <path d="M -0.7318319515,-4.5860982344 C -0.7317210428,-4.6343861802 -0.7167989375,-4.6811927385 -0.6870656355,-4.7265179094 C -0.6258403555,-4.8202825158 -0.5000213844,-4.9002164904 -0.3385407892,-4.9455210934 C -0.1776166814,-4.9913811857 0.0175131433,-5.0021054525 0.201982947,-4.9728092317 C 0.3866357393,-4.9441489988 0.5589617733,-4.8756348604 0.6793362332,-4.7806018049 C 0.800546723,-4.6859849974 0.8687152004,-4.565610488 0.8681680729,-4.444737825" />
      <path d="M 0.8681680729,-4.444737825 C 0.868730649,-4.3229950671 0.7995443599,-4.2017684444 0.6767307894,-4.1068382385" />
      <path d="M 0.6622995878,-4.095909341 Q 0.615699857,-4.0615514211 0.5608958597,-4.0323819598" />
      <path d="M -0.6864437675,-4.1620181059 Q -0.7316609007,-4.2304290042 -0.7318319505,-4.3033774141" />
      <path d="M -0.7318319505,-4.3033774141 C -0.7326806843,-4.4152340203 -0.6464201509,-4.5262176539 -0.497517545,-4.6015077035 C -0.3498154601,-4.6775055622 -0.1415638694,-4.7165761663 0.0681681651,-4.704295825 C 0.2779002048,-4.6930164068 0.4861512025,-4.6303859097 0.6338535832,-4.5308279307 C 0.7827565527,-4.4319776969 0.8690174217,-4.2974343391 0.8681684784,-4.1620180473" />
      <path d="M 0.8681684784,-4.1620180473 C 0.8687311018,-4.0402755802 0.7995442468,-3.9190490767 0.6767310431,-3.8241190071" />
      <path d="M 0.6622993852,-3.8131897535 Q 0.6157000158,-3.77883209 0.5608966304,-3.7496628262" />
      <path d="M -0.4610105048,-3.7051321686 L -0.4816687799,-3.7146838832" />
      <path d="M -0.519949798,-3.7344768996 L -0.5260966423,-3.73793847" />
      <path d="M -0.5552777628,-3.7556084382 Q -0.6408622872,-3.810891528 -0.6864438326,-3.8792987025" />
      <path d="M -0.6973583975,-3.8969687096 Q -0.7317333732,-3.9573144514 -0.7318316666,-4.020658445" />
      <path d="M -0.7318316666,-4.020658445 C -0.7326806432,-4.1325144168 -0.6464201964,-4.2434979815 -0.4975170771,-4.3187883357 C -0.349814569,-4.3947864352 -0.1415633803,-4.4338565618 0.0681682654,-4.4215759798 C 0.2778999096,-4.4102963045 0.4861511378,-4.3476662471 0.6338536635,-4.2481084992 C 0.782756804,-4.1492585239 0.8690172274,-4.0147147977 0.8681682476,-3.8792984872" />
      <path d="M 0.8681682476,-3.8792984872 Q 0.868091581,-3.8073738267 0.8377042336,-3.7379386356" />
      <path d="M -0.4610110231,-3.4224129946 L -0.4816687194,-3.4319644771" />
      <path d="M -0.5199572362,-3.4517616712 C -0.6552751248,-3.5264951099 -0.7325231541,-3.6318811329 -0.7318316999,-3.737938893" />
      <path d="M -0.7318316999,-3.737938893 C -0.7326806963,-3.8497953324 -0.6464200319,-3.9607787793 -0.4975167946,-4.0360687196 C -0.3498141624,-4.1120664158 -0.1415630565,-4.1511367199 0.0681685433,-4.1388564001 C 0.2779001348,-4.1275770059 0.4861514452,-4.0649465762 0.6338539252,-3.9653885029 C 0.7827570313,-3.8665381509 0.8690171766,-3.73199505 0.8681681996,-3.5965789158" />
      <path d="M 0.8681681996,-3.5965789158 Q 0.8680915434,-3.524654459 0.8377043706,-3.4552191548" />
      <path d="M -0.4610110368,-3.1396932717 L -0.4816686864,-3.149244739" />
      <path d="M -0.519957209,-3.1690419442 C -0.6552752067,-3.2437754644 -0.7325233108,-3.3491613089 -0.7318317568,-3.4552185249" />
      <path d="M -0.7318317568,-3.4552185249 C -0.7326806559,-3.5670746775 -0.6464203958,-3.6780581219 -0.4975179165,-3.7533484699 C -0.349816047,-3.8293465699 -0.1415650685,-3.8684171086 0.0681669146,-3.8561367859 C 0.2778989315,-3.8448573655 0.4861499495,-3.7822273904 0.6338523247,-3.6826698533 C 0.7827551987,-3.583820124 0.8690175086,-3.4492763231 0.8681684677,-3.3138603432" />
      <path d="M 0.8681684677,-3.3138603432 Q 0.8680917521,-3.2419351635 0.8377045374,-3.1724993189" />
      <path d="M -0.4610106833,-2.8569732965 L -0.4816686608,-2.8665249163" />
      <path d="M -0.5199574876,-2.8863223196 C -0.6552753147,-2.9610560261 -0.732523013,-3.0664421722 -0.731831563,-3.1724996923" />
      <path d="M -0.731831563,-3.1724996923 C -0.7373379885,-3.3579109305 -0.4887598354,-3.5333222056 -0.1534847811,-3.5675865657 C 0.1787378812,-3.6080882498 0.5650619607,-3.5019021549 0.745342422,-3.3075014939 C 0.8263712273,-3.2221954182 0.8673131769,-3.1300749429 0.8681682708,-3.031140068" />
      <path d="M 0.8681682708,-3.031140068 Q 0.8680915974,-2.9592151006 0.8377041854,-2.8897796641" />
      <path d="M -0.6864438309,-2.7484195914 Q -0.7316608656,-2.8168307574 -0.7318318247,-2.889779328" />
      <path d="M -0.7318318247,-2.889779328 C -0.7336183797,-3.0258098624 -0.6039052132,-3.1595662616 -0.3949262123,-3.2314283336 C -0.188015737,-3.3050080459 0.0918719705,-3.3140620825 0.3320275429,-3.2491838798 C 0.6469421224,-3.1687382464 0.8728617406,-2.9626161523 0.8681682769,-2.7484198547" />
      <path d="M 0.8681682769,-2.7484198547 Q 0.8681238016,-2.685747087 0.8449387354,-2.6247299645" />
      <path d="M 0.8377042198,-2.607059955 Q 0.8091356078,-2.5420846644 0.7558968379,-2.4833701514" />
      <path d="M -0.4610105814,-2.291533871 L -0.4816465838,-2.3010749243" />
      <path d="M -0.5199570895,-2.3208826943 C -0.6552751582,-2.3956163229 -0.7325231774,-2.5010026703 -0.7318316719,-2.6070600198" />
      <path d="M -0.7318316719,-2.6070600198 C -0.736511747,-2.7840759349 -0.5109753791,-2.9530483489 -0.1964188948,-2.9966054383 C 0.043775808,-3.0330388944 0.3238616077,-2.9954815423 0.5309483213,-2.893305958 C 0.7401061327,-2.7928519063 0.8699584222,-2.63041574 0.8681684303,-2.4656997713" />
      <path d="M 0.8681684303,-2.4656997713 Q 0.8681239537,-2.4030270396 0.8449388897,-2.3420101011" />
      <path d="M 0.8377043908,-2.3243401806 Q 0.809135641,-2.2593647852 0.7558965756,-2.200650268" />
      <path d="M -0.4609894971,-2.0088050056 L -0.4816686891,-2.0183660577" />
      <path d="M -0.519957362,-2.0381633491 C -0.6552754607,-2.1128970161 -0.7325231028,-2.2182828474 -0.7318316666,-2.3243407618" />
      <path d="M -0.7318316666,-2.3243407618 C -0.7309823878,-2.4062842465 -0.690177212,-2.481447889 -0.6094161393,-2.5498316891 C -0.4293568013,-2.7056985995 -0.0429479937,-2.7733867799 0.2894508399,-2.6942476797 C 0.6249010911,-2.6213552169 0.8736820487,-2.4071771384 0.8681681674,-2.1829809076" />
      <path d="M 0.8681681674,-2.1829809076 C 0.8687307199,-2.0612380439 0.7995442441,-1.9400112559 0.6767307815,-1.845080912" />
      <path d="M 0.6622993822,-1.8341518466 Q 0.6204372802,-1.8032825118 0.5718842013,-1.7765708478" />
      <path d="M -0.461010856,-1.7260948454 L -0.4816687059,-1.735646406" />
      <path d="M -0.5199572097,-1.7554436024 C -0.6552763962,-1.8301775228 -0.732523714,-1.9355639956 -0.7318318643,-2.0416215695" />
      <path d="M -0.7318318643,-2.0416215695 C -0.7326809012,-2.1534775888 -0.6464185945,-2.2644614274 -0.4975157232,-2.3397511937 C -0.3498133498,-2.4157487684 -0.1415623286,-2.4548187825 0.0681696884,-2.442538241 C 0.2779016718,-2.4312586017 0.4861526488,-2.3686281002 0.6338545194,-2.2690700378 C 0.7827569995,-2.1702197273 0.869017262,-2.0356763209 0.8681683627,-1.9002602055" />
      <path d="M 0.8681683627,-1.9002602055 Q 0.8681238936,-1.8375876534 0.8449389253,-1.7765708113" />
      <path d="M -0.4610107844,-1.4433750218 L -0.4816684843,-1.4529265429" />
      <path d="M -0.5199572612,-1.4727238666 C -0.6552754998,-1.5474568938 -0.732523103,-1.6528436378 -0.7318315946,-1.7589010237" />
      <path d="M -0.7318315946,-1.7589010237 C -0.7326805718,-1.8707571876 -0.6464204245,-1.9817403212 -0.4975173179,-2.0570307048 C -0.3498148374,-2.1330288097 -0.141563528,-2.1720992692 0.0681680632,-2.1598186943 C 0.2778996628,-2.148539045 0.4861507692,-2.0859087733 0.633853401,-1.9863511086 C 0.782756638,-1.8875011999 0.869017301,-1.7529577833 0.8681683046,-1.6175413754" />
      <path d="M 0.8681683046,-1.6175413754 Q 0.8667500557,-1.4651666289 0.7391509809,-1.3348213505" />
      <path d="M -0.4609443674,-1.1606259073 L -0.4816686568,-1.1702070409" />
      <path d="M -0.5199572194,-1.1900042971 C -0.6552752697,-1.2647379605 -0.732523105,-1.3701235759 -0.7318316425,-1.4761812094" />
      <path d="M -0.7318316425,-1.4761812094 C -0.7326806224,-1.5880375513 -0.6464201984,-1.6990213069 -0.4975170576,-1.7743113122 C -0.3498145314,-1.8503090901 -0.1415633036,-1.8893791789 0.0681683401,-1.8770988853 C 0.2778999854,-1.8658194982 0.4861511741,-1.8031894012 0.6338536824,-1.7036313322 C 0.7827568019,-1.6047810082 0.8690172482,-1.4702374762 0.8681682715,-1.3348215351" />
      <path d="M 0.8681682715,-1.3348215351 C 0.8687308429,-1.2130789887 0.7995441924,-1.0918519515 0.6767304965,-0.9969214854" />
      <path d="M 0.6622996925,-0.9859928814 Q 0.6204374569,-0.955123459 0.5718842346,-0.9284118458" />
      <path d="M -0.4610108385,-0.8779357536 L -0.4816688645,-0.887487401" />
      <path d="M -0.5199572424,-0.9072845586 L -0.5260964253,-0.9107418653" />
      <path d="M -0.5552776119,-0.9284118451 C -0.6689067195,-1.0011081399 -0.7323092264,-1.0970755253 -0.731831873,-1.1934614704" />
      <path d="M -0.731831873,-1.1934614704 C -0.7326808162,-1.3053177782 -0.646419949,-1.416301153 -0.4975169814,-1.4915914042 C -0.3498146028,-1.5675894005 -0.1415636055,-1.6066599144 0.0681684347,-1.5943793497 C 0.2779004698,-1.5830997081 0.4861520593,-1.5204691227 0.6338541443,-1.4209112819 C 0.7827567498,-1.3220612505 0.8690172901,-1.1875176314 0.8681685566,-1.0521010435" />
      <path d="M 0.8681685566,-1.0521010435 Q 0.8680918749,-0.9801766614 0.8377043225,-0.9107418673" />
      <path d="M -0.697358378,-0.7870521569 Q -0.7317331851,-0.8473978103 -0.7318314677,-0.9107418664" />
      <path d="M -0.7318314677,-0.9107418664 C -0.7323778633,-1.0105407847 -0.6642579246,-1.1098423977 -0.5431240214,-1.1834119336 C -0.4228251993,-1.257397042 -0.2506006843,-1.3048900003 -0.0660265096,-1.3125610519 C 0.118364402,-1.3208671886 0.3134412124,-1.2891846474 0.4743791887,-1.222377164 C 0.6358722274,-1.1561246633 0.7617723816,-1.0552521922 0.8231475175,-0.9405227941 C 0.8530493606,-0.8849702007 0.8680563733,-0.8279235 0.8681685556,-0.7693826921" />
      <path d="M 0.8681685556,-0.7693826921 Q 0.8681240409,-0.7067095286 0.8449386878,-0.6456920997" />
      <path d="M -0.6864437676,-0.4866623708 Q -0.7316608971,-0.5550736396 -0.7318318732,-0.6280222583" />
      <path d="M -0.7318318732,-0.6280222583 C -0.734551685,-0.7803330841 -0.5701235379,-0.9287142143 -0.3189754099,-0.9927700137 C -0.0704600034,-1.0596318645 0.2531114782,-1.0383663134 0.4934674021,-0.931555182 C 0.7236897234,-0.8327671014 0.8703931792,-0.661225618 0.8681682717,-0.4866621966" />
      <path d="M 0.8681682717,-0.4866621966 C 0.8687308749,-0.3649197617 0.7995442764,-0.2436932395 0.6767307773,-0.1487629154" />
      <path d="M 0.6622995605,-0.1378339891 Q 0.6157003914,-0.1034764235 0.5608972045,-0.0743072054" />
      <path d="M -0.6864438933,-0.2039427105 Q -0.7316606975,-0.2723540048 -0.7318316425,-0.3453025223" />
      <path d="M -0.7318316425,-0.3453025223 C -0.7324677169,-0.4490941337 -0.6585961536,-0.5522816092 -0.5284740527,-0.6266602135 C -0.3993007292,-0.7015385158 -0.2152409587,-0.7467074859 -0.0217864614,-0.7482997 C 0.2015375038,-0.7512307196 0.4341284952,-0.6949582456 0.6011021054,-0.5935363382 C 0.7695533449,-0.4930897133 0.869277307,-0.3491309989 0.8681683051,-0.2039423542" />
      <path d="M 0.8681683051,-0.2039423542 C 0.8687309236,-0.0821995119 0.7995441436,0.0390270308 0.6767304958,0.133956989" />
      <path d="M 0.6622967059,0.1448877672 Q 0.6156921451,0.1792488379 0.5608819268,0.208420393" />
      <path d="M -0.6864439435,0.0787767515 Q -0.7316606562,0.0103657061 -0.7318315944,-0.0625827084" />
      <path d="M -0.7318315944,-0.0625827084 C -0.7326785845,-0.1743699024 -0.6465289604,-0.2852876648 -0.4977897299,-0.3605736933 C -0.2769886304,-0.4764854494 0.0833334288,-0.5011417937 0.37413637,-0.4099868386 C 0.6679641328,-0.3231383813 0.872121963,-0.1253956339 0.8681683619,0.0787764739" />
      <path d="M 0.8681683619,0.0787764739 C 0.8687309585,0.2005214046 0.7995416908,0.3217501652 0.6767243954,0.4166812753" />
      <path d="M 0.6622995327,0.4276052737 Q 0.61570016,0.4619630292 0.5608966644,0.4911323952" />
      <path d="M -0.4610102213,0.5356628923 L -0.4816687856,0.526111005" />
      <path d="M -0.519957103,0.5063138775 L -0.5260965441,0.5028564234" />
      <path d="M -0.5552777024,0.4851864421 C -0.6689061317,0.412490484 -0.7323093047,0.3165232581 -0.7318318625,0.2201378423" />
      <path d="M -0.7318318625,0.2201378423 C -0.7318304875,0.2042329647 -0.7301680495,0.1883828274 -0.7268445485,0.1725874306 C -0.7050323001,0.0654258393 -0.6031349533,-0.0357059754 -0.4481898059,-0.1009613778 C -0.2941973442,-0.1668812336 -0.0890473455,-0.1959831273 0.1128323411,-0.1775318576 C 0.3147943655,-0.1599491788 0.5110140995,-0.0948945963 0.6494308672,0.0033862651 C 0.7889199215,0.1010693881 0.8689059969,0.2309185783 0.8681681681,0.3614971783" />
      <path d="M 0.8681681681,0.3614971783 Q 0.8667501037,0.5138712689 0.7391511739,0.6442164183" />
      <path d="M -0.461010523,0.8183826627 L -0.4816688637,0.8088308949" />
      <path d="M -0.5199563585,0.7890342309 L -0.5260965256,0.78557637" />
      <path d="M -0.5552776845,0.7679063486 Q -0.6408619411,0.7126234524 -0.6864439379,0.6442166432" />
      <path d="M -0.6973585078,0.6265467141 Q -0.731733423,0.5662011382 -0.7318316657,0.5028570281" />
      <path d="M -0.7318316657,0.5028570281 C -0.7326805527,0.3910004443 -0.6464207599,0.2800173025 -0.4975178807,0.2047270063 C -0.3498156174,0.1287289668 -0.1415640363,0.0896582181 0.0681677338,0.1019386286 C 0.2778995228,0.1132181043 0.4861505492,0.1758485409 0.6338532069,0.2754063228 C 0.7827564544,0.374256361 0.8690174154,0.5087996451 0.8681684298,0.6442160397" />
      <path d="M 0.8681684298,0.6442160397 Q 0.8680917561,0.7161408009 0.8377042195,0.785576224" />
      <path d="M -0.6973584275,0.9092658547 Q -0.7317333817,0.8489202973 -0.7318316718,0.7855762897" />
      <path d="M -0.7318316718,0.7855762897 C -0.732680638,0.6737201714 -0.6464202112,0.5627363031 -0.4975171219,0.4874461065 C -0.3498146437,0.4114481383 -0.1415634091,0.3723781498 0.0681683026,0.3846585843 C 0.2779000144,0.3959381215 0.4861512487,0.4585680823 0.6338537269,0.5581260238 C 0.7827568162,0.6569761937 0.8690172433,0.791520034 0.8681682771,0.9269361236" />
      <path d="M 0.8681682771,0.9269361236 Q 0.8667501156,1.0793102173 0.7391510354,1.2096556079" />
      <path d="M -0.4610108183,1.3838216671 L -0.48166879,1.3742700562" />
      <path d="M -0.5199571039,1.3544729536 C -0.6552749387,1.279739496 -0.7325233154,1.1743532295 -0.7318318252,1.0682955983" />
      <path d="M -0.7318318252,1.0682955983 C -0.7326808106,0.9564391833 -0.6464198488,0.8454558785 -0.4975166017,0.7701658188 C -0.3498139445,0.6941680154 -0.1415629181,0.6550975577 0.0681688721,0.6673780621 C 0.2779006435,0.6786576317 0.4861522256,0.7412883604 0.6338544877,0.8408463787 C 0.7827573654,0.9396966536 0.8690171581,1.0742397762 0.8681682718,1.2096563409" />
      <path d="M 0.8681682718,1.2096563409 Q 0.8667502152,1.3620306422 0.7391512002,1.492375226" />
      <path d="M -0.4610106165,1.6665414705 L -0.4816689663,1.6569896942" />
      <path d="M -0.5199572262,1.6371926363 C -0.6552753506,1.5624591163 -0.7325230908,1.4570732751 -0.7318315622,1.3510159606" />
      <path d="M -0.7318315622,1.3510159606 C -0.7325684812,1.2431940265 -0.6526354068,1.1361003534 -0.5132267207,1.0611432983 C -0.3748892429,0.9855893938 -0.178773056,0.94323089 0.023119254,0.9483109874 C 0.2249286184,0.9525235887 0.4300460886,1.0042566244 0.5840844713,1.092804388 C 0.7390735509,1.1806881121 0.8410951014,1.3044473015 0.8630948026,1.4342770624 C 0.8664758243,1.4535874086 0.8681670466,1.472953924 0.8681684695,1.4923766087" />
      <path d="M 0.8681684695,1.4923766087 Q 0.8667500026,1.6447501211 0.7391509301,1.7750950334" />
      <path d="M -0.6548576359,1.8156745776 Q -0.7313351679,1.7297393784 -0.7318317575,1.6337347953" />
      <path d="M -0.7318317575,1.6337347953 C -0.7357793935,1.4649809243 -0.5318022185,1.3026435696 -0.2381560307,1.2510783038 C 0.0524663839,1.1952138957 0.4126512751,1.2550344738 0.6335809886,1.4061028071 C 0.7826484979,1.5049704035 0.8690192201,1.6395954307 0.8681681998,1.7750951871" />
      <path d="M 0.8681681998,1.7750951871 Q 0.8681648916,1.8077061345 0.8618160197,1.8400808841" />
      <path d="M -0.7179313664,1.8373247329 C -0.6815613717,1.7328039661 -0.5681706805,1.6375569847 -0.4071439665,1.5791735081 C -0.246951855,1.5201238087 -0.0409929427,1.498751643 0.1573566796,1.5235039426 C 0.4123256387,1.5536594638 0.6485372087,1.6614579168 0.7699893856,1.8089278558" />
      <path d="M 0.6335809886,-5.6618891148 L 0.4996891039,-5.4949981303" />
      <path d="M 0.4996891039,-5.2122785016 C 0.3860524734,-5.2916312845 0.2254584314,-5.3423339276 0.064116949,-5.3531832496 C -0.1093793765,-5.3657724647 -0.280539396,-5.3320183523 -0.3934710833,-5.2671022862 C -0.4889436014,-5.2131265352 -0.542847486,-5.1385584224 -0.542382488,-5.0636875433" />
      <path d="M -0.5384171119,-5.0278865468 Q -0.5258371498,-4.9718664854 -0.4766803846,-4.9222911695" />
      <path d="M 0.5099439222,-4.9222911496 Q 0.575886577,-4.9701062362 0.6176817786,-5.0278471593" />
      <path d="M 0.6511010694,-5.084386446 Q 0.6705332441,-5.1260080072 0.6763344379,-5.1692071422" />
      <path d="M 0.6071721194,-5.396081759 Q 0.5642029018,-5.4502653735 0.4996891039,-5.4949981303" />
      <path d="M 0.4996891039,-4.9295587788 C 0.3909563338,-5.0053974269 0.2395167338,-5.0551928411 0.0852953169,-5.0687689926 C -0.180228684,-5.0950489178 -0.4381245235,-5.0062664878 -0.5140738321,-4.8755102078" />
      <path d="M -0.5384219595,-4.7451026983 Q -0.5258327491,-4.6891023156 -0.4766802997,-4.6395714959" />
      <path d="M 0.1307938005,-4.4982117889 Q 0.3123813782,-4.5230208883 0.4545622072,-4.6037676264" />
      <path d="M 0.5099438388,-4.6395714778 Q 0.5758854115,-4.6873871 0.6176814847,-4.7451279048" />
      <path d="M 0.6511011757,-4.8016669238 Q 0.6705333396,-4.8432878944 0.6763345421,-4.8864866181" />
      <path d="M 0.6787254386,-4.9222908628 C 0.6793932749,-5.0284578518 0.6134460411,-5.1340462999 0.4996891039,-5.2122785016" />
      <path d="M 0.4996891039,-4.646839048 C 0.3682903499,-4.7389827005 0.1729960463,-4.7917335822 -0.0120856786,-4.7902621263 C -0.1974949889,-4.7902239444 -0.3686905108,-4.7364505326 -0.4610108605,-4.6542437164" />
      <path d="M -0.434462596,-4.3210479636 C -0.3640063687,-4.2697247969 -0.2611821924,-4.2317291164 -0.1444350176,-4.2154920004" />
      <path d="M 0.1307954639,-4.2154920081 Q 0.312452313,-4.2403274781 0.4545588473,-4.3210460766" />
      <path d="M 0.5099438553,-4.3568519168 Q 0.5759095549,-4.4046896 0.6176817395,-4.4624077984" />
      <path d="M 0.6511010247,-4.5189469836 Q 0.6705326084,-4.560566401 0.6763344241,-4.6037676348" />
      <path d="M 0.6071719819,-4.8306426911 Q 0.5641860517,-4.8848414516 0.4996891039,-4.9295587788" />
      <path d="M 0.4996891039,-4.3641194945 C 0.3722688728,-4.4533729186 0.1850767279,-4.5058206211 0.0050597936,-4.507465015 C -0.175181185,-4.5103835229 -0.3447438396,-4.462758202 -0.4429518675,-4.3863240251 C -0.4735026938,-4.3628167132 -0.4972100059,-4.3373989713 -0.5140738039,-4.3100707992" />
      <path d="M 0.5099438142,-4.0741320734 Q 0.5759195757,-4.1219795053 0.6176817897,-4.1796881123" />
      <path d="M 0.6404988345,-4.2154920025 Q 0.6690321194,-4.2668649345 0.6763344224,-4.3210480823" />
      <path d="M 0.6787252436,-4.3568519391 C 0.6794136225,-4.4629849666 0.6134147422,-4.5686477534 0.4996891039,-4.646839048" />
      <path d="M 0.4996891039,-4.0813996918 C 0.368260767,-4.1735522091 0.1730444417,-4.2262816581 -0.012065437,-4.2248228571 C -0.1974971896,-4.2247993945 -0.3687646955,-4.1709700111 -0.4610111047,-4.0888042065" />
      <path d="M 0.509943852,-3.7914125184 Q 0.5759074324,-3.8392481018 0.6176818681,-3.8969685775" />
      <path d="M 0.6511010954,-3.9535077453 Q 0.6705326387,-3.9951271431 0.6763344392,-4.0383283664" />
      <path d="M 0.6787252467,-4.0741321049 C 0.6794093404,-4.180273008 0.6134197002,-4.2859216482 0.4996891039,-4.3641194945" />
      <path d="M 0.4996891039,-3.7986800916 C 0.3718811059,-3.8882117329 0.1839371761,-3.9406883904 0.0034192095,-3.9420454451 C -0.1773299023,-3.9446923396 -0.347103827,-3.8964728868 -0.4447707282,-3.8194798918 C -0.4744405967,-3.7963560193 -0.4975357801,-3.7714096821 -0.5140562784,-3.7446408801" />
      <path d="M -0.4344545538,-3.4728948342 Q -0.3240914043,-3.3937542739 -0.1443991385,-3.3673380738" />
      <path d="M 0.1307951487,-3.3673329599 Q 0.3124019057,-3.3921490294 0.4545623114,-3.472888999" />
      <path d="M 0.6787255101,-3.7914128516 C 0.6794006297,-3.8975687554 0.6134337938,-4.0031808625 0.4996891039,-4.0813996918" />
      <path d="M 0.4996891039,-3.5159604046 C 0.2886964855,-3.6679696511 -0.0894024112,-3.7006910328 -0.3203507885,-3.6053366067 C -0.459591747,-3.551629046 -0.543440668,-3.4599925908 -0.5423886382,-3.367332957" />
      <path d="M -0.4344626156,-3.1901692482 Q -0.3240897068,-3.1110439765 -0.1444336557,-3.0846130795" />
      <path d="M 0.1307973921,-3.0846136966 Q 0.3123698837,-3.1094199002 0.4545585373,-3.1901670902" />
      <path d="M 0.6787252518,-3.5086928364 C 0.6793852864,-3.6148767689 0.613449106,-3.7204435155 0.4996891039,-3.7986800916" />
      <path d="M 0.4996891039,-3.2332406222 C 0.3858459393,-3.3127489222 0.2247673465,-3.363501277 0.0632056206,-3.3742087716 C -0.098364262,-3.3857372417 -0.2584076537,-3.3572341617 -0.3703501574,-3.3004232271 C -0.4798832723,-3.2458326756 -0.543010203,-3.1654759647 -0.5423886389,-3.0846133479" />
      <path d="M -0.4344625869,-2.9074495696 Q -0.324047453,-2.8283088756 -0.1444335091,-2.8018938283" />
      <path d="M 0.1307949782,-2.8018935574 Q 0.3124318766,-2.8267204349 0.4545622147,-2.9074495666" />
      <path d="M 0.678725241,-3.2259730937 C 0.6793762447,-3.3321664866 0.6134660982,-3.4377061381 0.4996891039,-3.5159604046" />
      <path d="M 0.4996891039,-2.9505209948 C 0.3484781641,-3.056970837 0.1130565391,-3.109391492 -0.0943129936,-3.0902769012 C -0.290770912,-3.0742234642 -0.4544468127,-2.9961119828 -0.514074184,-2.8964722248" />
      <path d="M -0.4344586806,-2.6247270896 Q -0.3241557533,-2.5456317458 -0.1444353166,-2.5191739815" />
      <path d="M 0.5099431993,-2.6605335228 Q 0.5759028915,-2.7083649819 0.6176818367,-2.7660896234" />
      <path d="M 0.6511012638,-2.8226289304 Q 0.6705324574,-2.8642479777 0.6763344372,-2.9074499228" />
      <path d="M 0.6787252451,-2.9432534793 C 0.6793750403,-3.0494554761 0.6134555779,-3.1549961918 0.4996891039,-3.2332406222" />
      <path d="M 0.4996891039,-2.6678013631 C 0.3002286952,-2.8108183173 -0.0488466259,-2.8498271518 -0.2813963836,-2.7710161304 C -0.4430523908,-2.7199227091 -0.5438663074,-2.620332901 -0.5423886333,-2.5191739637" />
      <path d="M 0.678725245,-2.6605337818 C 0.67939379,-2.7666980799 0.6134446458,-2.8722933643 0.4996891039,-2.9505209948" />
      <path d="M 0.4996891039,-2.385081665 C 0.309798138,-2.5206976557 -0.0155132844,-2.5639686234 -0.2469653542,-2.4984515943 C -0.4279077966,-2.4508317481 -0.544192211,-2.344939831 -0.5423884533,-2.236450003" />
      <path d="M -0.5384231106,-2.2006310599 Q -0.5258357442,-2.1446370388 -0.4766804335,-2.0950945933" />
      <path d="M 0.6071344723,-2.5689081824 Q 0.5641800785,-2.6230651096 0.4996891039,-2.6678013631" />
      <path d="M 0.4996891039,-2.1023620222 C 0.3544978034,-2.2044117171 0.1318537023,-2.2571854058 -0.0693284661,-2.2439516101 C -0.3399172625,-2.2301589332 -0.5472500672,-2.0966222024 -0.5423876089,-1.9537358193" />
      <path d="M -0.5384268786,-1.9179333378 Q -0.5258384524,-1.8619044864 -0.476680373,-1.8123747071" />
      <path d="M 0.5099438725,-1.8123747444 Q 0.5758821942,-1.8601858842 0.6176815465,-1.9179310991" />
      <path d="M 0.6622995852,-2.001709334 Q 0.6724385478,-2.0302034702 0.6763344893,-2.0592900179" />
      <path d="M 0.6071712718,-2.2861658973 Q 0.564200698,-2.3403500654 0.4996891039,-2.385081665" />
      <path d="M 0.4996891039,-1.819642344 C 0.3817237261,-1.9020961785 0.2128676766,-1.9534930911 0.0455098286,-1.9616789812 C -0.1219076615,-1.9708086606 -0.2853827223,-1.9368205972 -0.3942078573,-1.8740465063 C -0.4892229598,-1.8201679105 -0.5428323558,-1.7457894125 -0.5423886324,-1.6710149791" />
      <path d="M 0.509943822,-1.5296550764 Q 0.5758864801,-1.5774703068 0.6176817862,-1.6352109984" />
      <path d="M 0.6404988096,-1.6710148131 Q 0.6690323247,-1.7223884189 0.6763344484,-1.7765710272" />
      <path d="M 0.6071724258,-2.0034454412 Q 0.5642002383,-2.0576319024 0.4996891039,-2.1023620222" />
      <path d="M 0.4996891039,-1.5369226281 C 0.4294973784,-1.5851291033 0.3473442497,-1.6217378622 0.2532297178,-1.6467489048 C 0.0813670245,-1.6929106469 -0.1147656877,-1.6904905469 -0.2654383618,-1.645069382 C -0.4172840152,-1.6007107096 -0.5207446847,-1.514496081 -0.5389202923,-1.4218060886 C -0.5400737355,-1.4106312921 -0.5412271787,-1.3994564956 -0.5423806219,-1.388281699" />
      <path d="M -0.5384068867,-1.3524597874 Q -0.5258139606,-1.2964344238 -0.4766788623,-1.2469369423" />
      <path d="M 0.6071719289,-1.7207262092 Q 0.5642056434,-1.7749072574 0.4996891039,-1.819642344" />
      <path d="M 0.4996891039,-1.2542029872 C 0.3608104742,-1.3517665622 0.1503791796,-1.4047216133 -0.0436622492,-1.3970166193 C -0.2382610486,-1.3910809865 -0.4111555648,-1.3251218746 -0.4899682461,-1.2327028814 C -0.5246989441,-1.1925179663 -0.5421724015,-1.1501421694 -0.5423886183,-1.1055754907" />
      <path d="M -0.5384274841,-1.0697716397 Q -0.5265242215,-1.0167191458 -0.4816686843,-0.9693363759" />
      <path d="M 0.5099438881,-0.9642156505 Q 0.5759081408,-1.0120519601 0.6176817335,-1.0697716258" />
      <path d="M 0.6511011395,-1.1263111266 Q 0.6705327189,-1.1679307751 0.6763344254,-1.2111315716" />
      <path d="M 0.6787252461,-1.246935413 Q 0.6781741699,-1.3476117182 0.6071722482,-1.4380062561" />
      <path d="M 0.5264948494,-1.5172022983 L 0.4996891039,-1.5369226281" />
      <path d="M 0.4996891039,-0.9714832685 C 0.3108283336,-1.1063172398 -0.0120320968,-1.1499988368 -0.2432560216,-1.0858419084 C -0.3347627584,-1.0612432818 -0.4073476897,-1.0255919614 -0.4610108154,-0.978887947" />
      <path d="M 0.6787250463,-0.9642154712 C 0.6793861421,-1.0703938663 0.6134534873,-1.1759638006 0.4996891039,-1.2542029872" />
      <path d="M 0.4996891039,-0.6887635034 C 0.4345419454,-0.7335778878 0.3587327106,-0.7684358406 0.2722613997,-0.7933373616 C 0.0114641923,-0.8712656761 -0.3059468821,-0.8263197556 -0.4494343782,-0.7058788056 C -0.4768968683,-0.6837723438 -0.4984433581,-0.6600510209 -0.5140738477,-0.6347148369" />
      <path d="M 0.509943855,-0.3987763965 Q 0.5759006134,-0.446605155 0.6176817904,-0.504332327" />
      <path d="M 0.6404988158,-0.5401361525 Q 0.6690288657,-0.5914992358 0.6763344248,-0.6456921368" />
      <path d="M 0.5264944879,-0.9517631677 L 0.4996891039,-0.9714832685" />
      <path d="M 0.4996891039,-0.4060439817 C 0.3807124176,-0.4891837993 0.210313672,-0.5406547439 0.0415423221,-0.5482785863 C -0.2089153987,-0.5621737009 -0.4419164251,-0.4751507464 -0.5140730969,-0.3519956833" />
      <path d="M 0.1307982895,0.0253031525 Q 0.3124365517,0.0004756288 0.4545617634,-0.0802529333" />
      <path d="M 0.6787252811,-0.3987765301 C 0.6793739792,-0.5049911468 0.6134479258,-0.6105216707 0.4996891039,-0.6887635034" />
      <path d="M 0.4996891039,-0.1233242757 C 0.4102087006,-0.1855722356 0.2921382508,-0.2305823673 0.1670466476,-0.2518680153 C -0.0775453477,-0.2956897599 -0.3400868631,-0.2404255746 -0.4610099625,-0.1307292424" />
      <path d="M -0.5140738616,-0.0692755133 Q -0.5423075776,-0.0232458554 -0.542388744,0.0253030698" />
      <path d="M -0.434461564,0.2024676005 C -0.3640003666,0.2537899729 -0.2612211095,0.291775123 -0.144435733,0.3080228222" />
      <path d="M 0.1307821232,0.3080245431 Q 0.3123611876,0.2832213589 0.4545621233,0.2024668818" />
      <path d="M 0.5099431878,0.1666634613 Q 0.5759022805,0.1188295449 0.6176667213,0.0611279545" />
      <path d="M 0.6404986554,0.0253035266 Q 0.6690318598,-0.0260688388 0.6763344252,-0.0802528443" />
      <path d="M 0.6787252453,-0.1160566996 C 0.6794121473,-0.2221936414 0.6134150432,-0.3278514375 0.4996891039,-0.4060439817" />
      <path d="M 0.4996891039,0.1593954501 C 0.3358073282,0.0435945176 0.0726546172,-0.0071747356 -0.1458439579,0.0255019798 C -0.3799482495,0.0568580709 -0.5457387197,0.1796126375 -0.5423886657,0.3080228589" />
      <path d="M -0.4344627015,0.4851864473 Q -0.3241667154,0.5642816256 -0.1444351619,0.5907424808" />
      <path d="M 0.1307952827,0.5907424734 Q 0.3122475532,0.5659792443 0.454559197,0.4851889421" />
      <path d="M 0.5099439451,0.4493826629 Q 0.575925554,0.4015280712 0.6176815055,0.343826299" />
      <path d="M 0.6404922049,0.3080347871 Q 0.6690251601,0.2566707307 0.6763321238,0.2024883632" />
      <path d="M 0.6787254077,0.1666630111 C 0.6794214685,0.060546465 0.6134006338,-0.045153404 0.4996891039,-0.1233242757" />
      <path d="M 0.4996891039,0.4421150111 C 0.356192978,0.3412756159 0.1370210299,0.2884682809 -0.062355146,0.3001274595 C -0.3360533016,0.3120948331 -0.5473962523,0.4465303767 -0.5423887691,0.5907424363" />
      <path d="M -0.5384270924,0.6265485656 Q -0.526536626,0.6795765504 -0.4816686291,0.7269818055" />
      <path d="M 0.5099251406,0.7320888471 Q 0.5758739088,0.684260964 0.6176815468,0.6265460466" />
      <path d="M 0.6510868514,0.5699968072 Q 0.6705217418,0.5283200953 0.6763210091,0.4850863103" />
      <path d="M 0.6787087848,0.4493204229 C 0.6793884995,0.3432283259 0.6134765686,0.2377265568 0.4996891039,0.1593954501" />
      <path d="M 0.4996891039,0.7248348299 C 0.2891898698,0.5732136294 -0.0876387726,0.5401895549 -0.3187668697,0.6348421054 C -0.4590169722,0.6886089707 -0.5433826596,0.7803362167 -0.5423664918,0.8734168758" />
      <path d="M 0.6787252428,0.7321023916 C 0.679365736,0.6258772698 0.6134638328,0.520375055 0.4996891039,0.4421150111" />
      <path d="M 0.4996891039,1.0075544083 C 0.2825334285,0.850693879 -0.111348784,0.8218439334 -0.3401367111,0.9263015329 C -0.4677964891,0.9808723709 -0.5432461911,1.0680950736 -0.5423675554,1.1561007823" />
      <path d="M -0.5384052031,1.1918856923 Q -0.5258333815,1.2479335325 -0.4766801805,1.2975415338" />
      <path d="M 0.6787252429,1.0148219889 C 0.6794136545,0.9086918785 0.6134181309,0.803028556 0.4996891039,0.7248348299" />
      <path d="M 0.4996891039,1.2902740911 C 0.3638462881,1.1950092315 0.1604091005,1.1421698866 -0.0301675013,1.1470800049 C -0.2926110685,1.150457 -0.5109799527,1.2655323065 -0.5381184052,1.4017325699 C -0.5409638989,1.4140723712 -0.5423873088,1.4264620117 -0.5423886347,1.4389014912" />
      <path d="M -0.5384270587,1.4747073479 Q -0.5258491039,1.5307095403 -0.4766803395,1.5802614124" />
      <path d="M -0.4344625561,1.6160653287 Q -0.3334076926,1.6887673465 -0.1710268552,1.7174860584" />
      <path d="M 0.6787252714,1.2975416829 C 0.679389982,1.1913718286 0.6134503599,1.0857889032 0.4996891039,1.0075544083" />
      <path d="M 0.4996891039,1.5729937916 C 0.3374502035,1.4582725467 0.0769892256,1.4071940308 -0.1402033988,1.4383175632 C -0.3771346473,1.4685202525 -0.545914791,1.5922245607 -0.5423886431,1.7216212323" />
      <path d="M -0.5384273634,1.7574256187 L -0.5317950426,1.7799827984" />
      <path d="M 0.6112009177,1.7661497952 L 0.6176816163,1.7574249158" />
      <path d="M 0.6510996045,1.7008847863 Q 0.6705262467,1.65927087 0.6763323538,1.6160498785" />
      <path d="M 0.67872431,1.5802631403 C 0.6793627842,1.4740175416 0.6134595798,1.3685402861 0.4996891039,1.2902740911" />
      <path d="M 0.6071721075,1.6719101556 Q 0.5642181327,1.617740303 0.4996891039,1.5729937916" />
      <line x1="1.2640212821" y1="2.8396142483" x2="-0.7032161526" y2="4.0004135014" />
      <line x1="1.0520917088" y1="3.328163339" x2="-0.4912865793" y2="4.2388578655" />
      <path d="M -0.6906269615,4.1537053961 Q -0.6824709316,4.2385581523 -0.6218853225,4.2623538949" />
      <path d="M -0.6218853225,4.2623538949 Q -0.5654435062,4.2817572815 -0.4912865793,4.2388578655" />
      <path d="M 1.251432091,3.0077630416 C 1.2449015933,3.1233637537 1.1530676495,3.2711589206 1.0520917088,3.328163339" />
      <line x1="-0.9157551036" y1="3.9888760188" x2="0.6276231845" y2="3.0781814923" />
      <path d="M 0.8269635667,2.7577811949 C 0.820433069,2.8733819069 0.7285991251,3.0211770738 0.6276231845,3.0781814923" />
      <path d="M -1.0774987489,3.9932455989 C -1.0408234734,4.0283323003 -0.9789404458,4.0266352152 -0.9157551036,3.9888760188" />
      <line x1="0.4996891039" y1="1.5729937916" x2="0.4996891039" y2="1.6156619102" />
      <line x1="0.4996891039" y1="1.2902740911" x2="0.4996891039" y2="1.3618818693" />
      <line x1="0.4996891039" y1="1.0075544083" x2="0.4996891039" y2="1.0791622406" />
      <line x1="0.4996891039" y1="0.7248348299" x2="0.4996891039" y2="0.7964425178" />
      <line x1="0.4996891039" y1="0.4421150111" x2="0.4996891039" y2="0.513722787" />
      <line x1="0.4996891039" y1="0.1593954501" x2="0.4996891039" y2="0.2310032335" />
      <line x1="0.4996891039" y1="-0.1233242757" x2="0.4996891039" y2="-0.0517165692" />
      <line x1="0.4996891039" y1="-0.4060439817" x2="0.4996891039" y2="-0.3344361694" />
      <line x1="0.4996891039" y1="-0.6887635034" x2="0.4996891039" y2="-0.6171558564" />
      <line x1="0.4996891039" y1="-0.9714832685" x2="0.4996891039" y2="-0.9641550791" />
      <line x1="0.4996891039" y1="-1.2542029872" x2="0.4996891039" y2="-1.2468746701" />
      <line x1="0.4996891039" y1="-1.2115347105" x2="0.4996891039" y2="-1.1825952662" />
      <line x1="0.4996891039" y1="-1.5369226281" x2="0.4996891039" y2="-1.4942544533" />
      <line x1="0.4996891039" y1="-1.819642344" x2="0.4996891039" y2="-1.7769742637" />
      <line x1="0.4996891039" y1="-2.1023620222" x2="0.4996891039" y2="-2.0596936788" />
      <line x1="0.4996891039" y1="-2.385081665" x2="0.4996891039" y2="-2.313473917" />
      <line x1="0.4996891039" y1="-2.6678013631" x2="0.4996891039" y2="-2.6251331435" />
      <line x1="0.4996891039" y1="-2.9505209948" x2="0.4996891039" y2="-2.8789132738" />
      <line x1="0.4996891039" y1="-3.2332406222" x2="0.4996891039" y2="-3.1616329925" />
      <line x1="0.4996891039" y1="-3.5159604046" x2="0.4996891039" y2="-3.4443527576" />
      <line x1="0.4996891039" y1="-3.7986800916" x2="0.4996891039" y2="-3.7270722793" />
      <line x1="0.4996891039" y1="-4.0813996918" x2="0.4996891039" y2="-4.0097919853" />
      <line x1="0.4996891039" y1="-4.3641194945" x2="0.4996891039" y2="-4.2925117111" />
      <line x1="0.4996891039" y1="-4.646839048" x2="0.4996891039" y2="-4.5752312722" />
      <line x1="0.4996891039" y1="-4.9295587788" x2="0.4996891039" y2="-4.8579510909" />
      <line x1="0.4996891039" y1="-5.2122785016" x2="0.4996891039" y2="-5.1406706693" />
      <line x1="0.4996891039" y1="-5.4949981303" x2="0.4996891039" y2="-5.4523300118" />
      <path d="M -0.3173380273,-5.6734288125 C -0.3090629158,-5.6745464728 -0.3120444475,-5.6740967697 -0.2695484994,-5.6813644101 C -0.2499205468,-5.6846874095 -0.2065620408,-5.6910421317 -0.1610302176,-5.693338455 C -0.113688717,-5.695977131 -0.064290632,-5.695025595 -0.0128359627,-5.6904838471 C 0.1724738299,-5.6745375203 0.3679907009,-5.6046182423 0.4996891039,-5.4949979862" />
      <path d="M -0.3173380273,-5.6734288125 L -0.3173380273,-5.7087687721" />
      <path d="M -0.3173380273,-5.7087687721 C -0.3149643431,-5.7106099007 -0.3069583468,-5.7151311957 -0.2933200386,-5.7223326571 C -0.2834926185,-5.7270759602 -0.2645487164,-5.7374115695 -0.2162362755,-5.7543079708 C -0.0897732796,-5.7982880204 0.0757811968,-5.8140889865 0.2212944059,-5.7937849578" />
      <path d="M -0.5423886403,-5.487288324 A 0.610556942922154,0.3599215367522717 -1.9687241984799954e-15 0,1 0.4919648762,-5.7463830184" />
      <path d="M 0.633581027,-5.6972290514 Q 0.4837333957,-5.7606351831 0.3092726032,-5.7824632482" />
      <path d="M 0.3092726032,-5.7824632482 C 0.0836018847,-5.8111251054 -0.147841176,-5.7797945804 -0.3173380273,-5.7087687721" />
      <path d="M 0.633581027,-5.6618890918 C 0.3411586119,-5.7904166894 -0.0637261852,-5.783478686 -0.3173380273,-5.6734288125" />
      <path d="M 1.251432091,3.0077630416 A 1.406277507965988,0.8289964885909215 -1.9687241984799954e-15 0,1 1.4715765154,3.5086728382" />
      <path d="M -1.3352399103,3.5086728382 A 1.406277507965988,0.8289964885909215 -1.9687241984799954e-15 0,1 0.8269635667,2.7577811949" />
      <path d="M 1.0520917088,3.328163339 A 1.1323239659907578,0.6675016747664482 -1.9687241984799954e-15 0,1 -0.4912865793,4.2388578655" />
      <path d="M -0.9157551036,3.9888760188 A 1.1323239659907578,0.6675016747664482 -1.9687241984799954e-15 0,1 0.6276231845,3.0781814923" />
      <line x1="1.4715765154" y1="3.5086728382" x2="1.565107781" y2="2.6468738043" />
      <line x1="-1.3352399103" y1="3.5086728382" x2="-1.4287711758" y2="2.6468738043" />
      <path d="M 0.8681681998,-5.2928967348 L 0.8681681998,-5.3282366944" />
      <path d="M -0.7318316994,-5.1515367604 L -0.7318316994,-5.18687672" />
      <path d="M 0.8681682476,-5.0101771641 L 0.8681682476,-5.0455171237" />
      <path d="M -0.7318316663,-4.8688172065 L -0.7318316663,-4.9041571661" />
      <path d="M 0.8681684782,-4.7274576075 L 0.8681684782,-4.7627975671" />
      <path d="M -0.7318319515,-4.5860982344 L -0.7318319515,-4.621438194" />
      <path d="M 0.8681680729,-4.444737825 L 0.8681680729,-4.4800777846" />
      <path d="M -0.7318319505,-4.3033774141 L -0.7318319505,-4.3387173737" />
      <path d="M 0.8681684784,-4.1620180473 L 0.8681684784,-4.1973580069" />
      <path d="M -0.7318316666,-4.020658445 L -0.7318316666,-4.0559984047" />
      <path d="M 0.8681682476,-3.8792984872 L 0.8681682476,-3.9146384468" />
      <path d="M -0.7318316999,-3.737938893 L -0.7318316999,-3.7732788526" />
      <path d="M 0.8681681996,-3.5965789158 L 0.8681681996,-3.6319188755" />
      <path d="M -0.7318317568,-3.4552185249 L -0.7318317568,-3.4905584845" />
      <path d="M 0.8681684677,-3.3138603432 L 0.8681684677,-3.3492003028" />
      <path d="M -0.731831563,-3.1724996923 L -0.731831563,-3.2078396519" />
      <path d="M 0.8681682708,-3.031140068 L 0.8681682708,-3.0664800276" />
      <path d="M -0.7318318247,-2.889779328 L -0.7318318247,-2.9251192877" />
      <path d="M 0.8681682769,-2.7484198547 L 0.8681682769,-2.7837598143" />
      <path d="M -0.7318316719,-2.6070600198 L -0.7318316719,-2.6423999794" />
      <path d="M 0.8681684303,-2.4656997713 L 0.8681684303,-2.5010397309" />
      <path d="M -0.7318316666,-2.3243407618 L -0.7318316666,-2.3596807214" />
      <path d="M 0.8681681674,-2.1829809076 L 0.8681681674,-2.2183208672" />
      <path d="M -0.7318318643,-2.0416215695 L -0.7318318643,-2.0769615291" />
      <path d="M 0.8681683627,-1.9002602055 L 0.8681683627,-1.9356001652" />
      <path d="M -0.7318315946,-1.7589010237 L -0.7318315946,-1.7942409833" />
      <path d="M 0.8681683046,-1.6175413754 L 0.8681683046,-1.652881335" />
      <path d="M -0.7318316425,-1.4761812094 L -0.7318316425,-1.511521169" />
      <path d="M 0.8681682715,-1.3348215351 L 0.8681682715,-1.3701614947" />
      <path d="M -0.731831873,-1.1934614704 L -0.731831873,-1.22880143" />
      <path d="M 0.8681685566,-1.0521010435 L 0.8681685566,-1.0874410031" />
      <path d="M -0.7318314677,-0.9107418664 L -0.7318314677,-0.946081826" />
      <path d="M 0.8681685556,-0.7693826921 L 0.8681685556,-0.8047226517" />
      <path d="M -0.7318318732,-0.6280222583 L -0.7318318732,-0.6633622179" />
      <path d="M 0.8681682717,-0.4866621966 L 0.8681682717,-0.5220021562" />
      <path d="M -0.7318316425,-0.3453025223 L -0.7318316425,-0.3806424819" />
      <path d="M 0.8681683051,-0.2039423542 L 0.8681683051,-0.2392823138" />
      <path d="M -0.7318315944,-0.0625827084 L -0.7318315944,-0.0979226681" />
      <path d="M 0.8681683619,0.0787764739 L 0.8681683619,0.0434365143" />
      <path d="M -0.7318318625,0.2201378423 L -0.7318318625,0.1847978827" />
      <path d="M 0.8681681681,0.3614971783 L 0.8681681681,0.3261572187" />
      <path d="M -0.7318316657,0.5028570281 L -0.7318316657,0.4675170685" />
      <path d="M 0.8681684298,0.6442160397 L 0.8681684298,0.60887608" />
      <path d="M -0.7318316718,0.7855762897 L -0.7318316718,0.7502363301" />
      <path d="M 0.8681682771,0.9269361236 L 0.8681682771,0.891596164" />
      <path d="M -0.7318318252,1.0682955983 L -0.7318318252,1.0329556387" />
      <path d="M 0.8681682718,1.2096563409 L 0.8681682718,1.1743163813" />
      <path d="M -0.7318315622,1.3510159606 L -0.7318315622,1.315676001" />
      <path d="M 0.8681684695,1.4923766087 L 0.8681684695,1.4570366491" />
      <path d="M -0.7318317575,1.6337347953 L -0.7318317575,1.5983948357" />
      <path d="M 0.8681681998,1.7750951871 L 0.8681681998,1.7397552275" />
      <path d="M -0.6218853222,4.2623538948 C -0.1632108613,4.4340417839 0.4541946736,4.4135595393 0.8810545291,4.2118317981 C 1.2320892144,4.0522705411 1.4445829087,3.7840250682 1.4715765154,3.5086728382" />
      <path d="M -1.3352399103,3.5086728382 C -1.3167582094,3.6812535868 -1.2297624622,3.8511969628 -1.0774987489,3.993245599" />
      <line x1="-0.5423886403" y1="1.7827368356" x2="-0.5423886403" y2="1.7216212323" />
      <line x1="0.6787252455" y1="1.6518691422" x2="0.6787252455" y2="1.5802614275" />
      <line x1="-0.5423886403" y1="1.5105092649" x2="-0.5423886403" y2="1.4389014838" />
      <line x1="0.6787252455" y1="1.3691493968" x2="0.6787252455" y2="1.2975416839" />
      <line x1="-0.5423886403" y1="1.2277896571" x2="-0.5423886403" y2="1.1561819006" />
      <line x1="-0.5423886403" y1="0.6623502793" x2="-0.5423886403" y2="0.5907424837" />
      <line x1="0.6787252455" y1="0.5209903785" x2="0.6787252455" y2="0.4493826123" />
      <line x1="-0.5423886403" y1="0.3796305838" x2="-0.5423886403" y2="0.3080228681" />
      <line x1="0.6787252455" y1="0.2382707927" x2="0.6787252455" y2="0.1666630027" />
      <line x1="0.6787252455" y1="-0.0444489609" x2="0.6787252455" y2="-0.116056688" />
      <line x1="0.6787252455" y1="-0.327168613" x2="0.6787252455" y2="-0.398776385" />
      <line x1="0.6787252455" y1="-0.892608019" x2="0.6787252455" y2="-0.9642156821" />
      <line x1="-0.5423886403" y1="-1.033967725" x2="-0.5423886403" y2="-1.1055755059" />
      <line x1="0.6787252455" y1="-1.1753277471" x2="0.6787252455" y2="-1.2469354043" />
      <line x1="-0.5423886403" y1="-1.3166875346" x2="-0.5423886403" y2="-1.3882952454" />
      <line x1="-0.5423886403" y1="-1.5994071281" x2="-0.5423886403" y2="-1.6710149656" />
      <line x1="-0.5423886403" y1="-1.8821268155" x2="-0.5423886403" y2="-1.9537345098" />
      <line x1="-0.5423886403" y1="-2.1648465845" x2="-0.5423886403" y2="-2.2364542695" />
      <line x1="0.6787252455" y1="-3.1543653821" x2="0.6787252455" y2="-3.2259730859" />
      <line x1="-0.5423886403" y1="-3.2957251737" x2="-0.5423886403" y2="-3.3673329578" />
      <line x1="0.6787252455" y1="-3.4370851203" x2="0.6787252455" y2="-3.5086928363" />
      <line x1="0.6787252455" y1="-3.7198046889" x2="0.6787252455" y2="-3.791412521" />
      <line x1="0.6787252455" y1="-4.0025244066" x2="0.6787252455" y2="-4.0741320979" />
      <line x1="0.6787252455" y1="-4.2852441442" x2="0.6787252455" y2="-4.3568519261" />
      <line x1="0.6787252455" y1="-4.5679636864" x2="0.6787252455" y2="-4.6395714676" />
      <line x1="-0.5423886403" y1="-4.7093237064" x2="-0.5423886403" y2="-4.7809313669" />
      <line x1="-0.5423886403" y1="-4.9920432617" x2="-0.5423886403" y2="-5.0636510392" />
      <line x1="-0.5423886403" y1="-5.2747629631" x2="-0.5423886403" y2="-5.487288324" />
      <path d="M 0.2212944038,-5.7937849582 L 0.3092726032,-5.7824632482" />
    </g>
  </g>
</svg>