<?xml version='1.0' encoding='utf-8'?>
<svg width="178.7006282019mm" height="512.9999999995mm" viewBox="-1.9193762624 -4.474864044 3.8213842801 10.97013567" version="1.1" xmlns="http://www.w3.org/2000/svg">
  <g transform="scale(1,-1)" stroke-linecap="round">
    <g fill="none" stroke="rgb(64,192,64)" stroke-width="0.021384280058500432" id="Visible">
      <path d="M 1.3349012586,1.2820614582 A 1.9,1.1154341179774374 0.0 0,1 1.8874878641,2.1415141836" />
      <path d="M -1.9048561087,2.1415141836 A 1.9,1.1154341179774374 0.0 0,1 1.3349012586,1.2820614582" />
      <path d="M 0.7478547419,1.0475473914 Q 0.6925692286,0.915693618 0.5453635687,0.8150182885" />
      <path d="M 0.5453635687,0.8150182885 C 0.3995925857,0.7151321723 0.1936724287,0.6518833663 -0.0133032875,0.639501304 C -0.2146758951,0.6265074492 -0.4144627511,0.6616168507 -0.5575582416,0.7315277403 C -0.7017847558,0.800762705 -0.7878226758,0.903883499 -0.7919450033,1.0088545543 C -0.7920225961,1.0121728724 -0.792100189,1.0154911906 -0.7921777818,1.0188095087" />
      <path d="M -0.7921777818,1.0188095087 L -0.7892966593,1.05379882" />
      <path d="M 0.7224364762,1.0411985324 L 0.7346685535,1.0188093976" />
      <path d="M 0.7526283562,0.9778679539 Q 0.7747700137,0.9181547701 0.7748097456,0.8569029018" />
      <path d="M 0.7748097456,0.8569029018 C 0.7756731107,0.722897169 0.6911541878,0.589588763 0.5453635687,0.491203815" />
      <path d="M 0.5453635687,0.491203815 C 0.3746576908,0.3737734159 0.1207245001,0.3081461385 -0.1195895702,0.3132944564 C -0.4628690928,0.3161967184 -0.7518515446,0.4675174337 -0.7867640235,0.6470788913 C -0.7903709394,0.662983196 -0.7921755544,0.6789553832 -0.7921778685,0.6949954529" />
      <path d="M -0.7921778685,0.6949954529 Q -0.7920719858,0.7570419104 -0.7568868733,0.8159603096" />
      <path d="M -0.7275030076,0.8569026081 Q -0.6690778343,0.9261336485 -0.5665069592,0.9778674502" />
      <path d="M 0.4007456642,0.9778691346 Q 0.5159600666,0.927486231 0.6010851268,0.8569025861" />
      <path d="M 0.6457828088,0.8159606775 Q 0.7021923601,0.7588568703 0.7346687891,0.6949952282" />
      <path d="M 0.7526282468,0.6540534741 Q 0.7747673284,0.5943529281 0.7748095421,0.5330881448" />
      <path d="M 0.7748095421,0.5330881448 C 0.7757265065,0.3991664889 0.6910709413,0.2656718952 0.5453635687,0.1673895224" />
      <path d="M 0.5453635687,0.1673895224 Q 0.4429419104,0.0980199285 0.3108206422,0.0537991681" />
      <path d="M -0.7921777731,0.3711811499 Q -0.7921551549,0.4135119759 -0.7755351789,0.454840124" />
      <path d="M -0.7603891632,0.4861404187 L -0.7568869049,0.4921459093" />
      <path d="M -0.727503097,0.5330881748 Q -0.6690669739,0.6023277654 -0.5665065842,0.6540531953" />
      <path d="M -0.4684384872,0.6949950199 C -0.2533703058,0.7706204665 0.0447919133,0.7737735382 0.2909773289,0.6949951045" />
      <path d="M 0.4007496724,0.654053112 Q 0.5158721514,0.6037252994 0.6010848373,0.5330886283" />
      <path d="M 0.6457829507,0.4921461947 Q 0.7021912086,0.4350437254 0.7346686887,0.3711810186" />
      <path d="M 0.7526282927,0.3302390119 Q 0.7636389379,0.3005843829 0.7692055236,0.2703570534" />
      <path d="M 0.7739145062,0.2337168953 L 0.7748095233,0.209273926" />
      <path d="M 0.7748095233,0.209273926 C 0.7756953341,0.0753189055 0.6911362549,-0.0580718255 0.5453635687,-0.1564249965" />
      <path d="M 0.5453635687,-0.1564249965 C 0.4103868753,-0.2488038063 0.2237964276,-0.3101908262 0.0325138177,-0.328297995 C -0.1586980921,-0.3471822625 -0.3530037536,-0.3227661565 -0.5015135516,-0.2643138575 C -0.6836014331,-0.1941180158 -0.7934915444,-0.0742209078 -0.7921769625,0.0473684302" />
      <path d="M -0.7921769625,0.0473684302 Q -0.7921445511,0.0897024818 -0.7755303788,0.1310228388" />
      <path d="M -0.468428809,0.3711842646 C -0.2541139276,0.4465217574 0.0426371885,0.4499370828 0.2881351755,0.3720700777" />
      <path d="M 0.6596014603,0.1538564652 Q 0.7063361976,0.103114806 0.7346685693,0.0473666897" />
      <path d="M 0.7526282076,0.0064247419 Q 0.7747697413,-0.0532889577 0.7748095239,-0.1145402481" />
      <path d="M 0.7748095239,-0.1145402481 C 0.7756805704,-0.2485270945 0.6911469304,-0.3818686427 0.5453635687,-0.4802394699" />
      <path d="M 0.5453635687,-0.4802394699 C 0.3272224616,-0.6320628625 -0.0300127051,-0.6931037437 -0.3160025997,-0.639372047 C -0.599850163,-0.5907519943 -0.7959128955,-0.4366337445 -0.7921778122,-0.2764474596" />
      <path d="M -0.7921778122,-0.2764474596 Q -0.7920700303,-0.2143891651 -0.7568857412,-0.1554845456" />
      <path d="M -0.7275024798,-0.1145407558 Q -0.6690812198,-0.0453096826 -0.5665032404,0.0064229906" />
      <path d="M 0.400746165,0.0064263812 Q 0.5160129372,-0.0439879726 0.6010850918,-0.1145405871" />
      <path d="M 0.6457827661,-0.1554825846 Q 0.7021723114,-0.2125584126 0.734668416,-0.2764477438" />
      <path d="M 0.7526240592,-0.3173801809 Q 0.7747698226,-0.3770843241 0.7748058102,-0.4383623877" />
      <path d="M 0.7748058102,-0.4383623877 C 0.775621196,-0.572466921 0.69118175,-0.7056130577 0.5453635687,-0.8040535653" />
      <path d="M 0.5453635687,-0.8040535653 C 0.368057429,-0.9262294121 0.1003813166,-0.9919898113 -0.1478758464,-0.9811620788 C -0.3258235767,-0.974490717 -0.4915351884,-0.9301085992 -0.6076373753,-0.860680242 C -0.7245445028,-0.7916518107 -0.7910574108,-0.6981354646 -0.7921466541,-0.6039020945 C -0.7921569881,-0.6026886856 -0.7921673221,-0.6014752766 -0.7921776562,-0.6002618677" />
      <path d="M -0.7921776562,-0.6002618677 Q -0.7920732596,-0.5414485909 -0.7603810936,-0.4853072633" />
      <path d="M -0.4684302231,-0.2764505544 C -0.2540737109,-0.2011030705 0.0424996231,-0.1976848605 0.2881353073,-0.2755584824" />
      <path d="M 0.4007494009,-0.3173892182 Q 0.5158943903,-0.3677309877 0.601085483,-0.4383548565" />
      <path d="M 0.6457838222,-0.4792977664 Q 0.702190784,-0.5363991254 0.7346683502,-0.6002615138" />
      <path d="M 0.752628473,-0.6412046429 Q 0.7747684164,-0.7009106932 0.7748095197,-0.7621689701" />
      <path d="M 0.7748095197,-0.7621689701 C 0.7757091513,-0.8961066131 0.6911100669,-1.029543973 0.5453635687,-1.1278677535" />
      <path d="M 0.5453635687,-1.1278677535 C 0.319383824,-1.2854827301 -0.0559979255,-1.3444283505 -0.3465340743,-1.2811045443 C -0.6145475052,-1.2273374027 -0.7954155609,-1.0782529451 -0.7921777749,-0.9240761599" />
      <path d="M -0.7921777749,-0.9240761599 Q -0.7921573367,-0.8817537828 -0.7755352084,-0.8404170921" />
      <path d="M -0.4684387687,-0.6002618201 C -0.2533299551,-0.5246273418 0.044863778,-0.5214955743 0.2909745097,-0.600262903" />
      <path d="M 0.4007503507,-0.6412033241 Q 0.5160020764,-0.6916046408 0.6010839071,-0.7621669549" />
      <path d="M 0.6457815236,-0.8031116518 Q 0.7021673976,-0.8601895421 0.7346670532,-0.9240791283" />
      <path d="M 0.7526277934,-0.9650192162 Q 0.7747682632,-1.0247207194 0.7748095058,-1.0859833398" />
      <path d="M 0.7748095058,-1.0859833398 C 0.7756508127,-1.22003615 0.6911631152,-1.3532821895 0.5453635687,-1.4516819264" />
      <path d="M -0.7921777719,-1.2478906502 Q -0.7921548818,-1.2055582985 -0.7755352424,-1.1642313527" />
      <path d="M -0.4684288776,-0.9240728448 C -0.2533821872,-0.8484360177 0.0448948859,-0.845317796 0.2909716344,-0.9240780403" />
      <path d="M 0.4007425962,-0.9650213108 Q 0.5160402007,-1.0154395479 0.6010826626,-1.085985427" />
      <path d="M 0.6457747298,-1.1269334493 Q 0.7021394759,-1.1840017435 0.7346632465,-1.2479011988" />
      <path d="M 0.7526283346,-1.2888342434 Q 0.7636372836,-1.3184782224 0.7691984356,-1.3487201052" />
      <path d="M 0.7739007603,-1.385365812 L 0.7747932359,-1.4098311674" />
      <path d="M 0.7747932359,-1.4098311674 C 0.7756210227,-1.5439105516 0.6911977272,-1.6770297359 0.5453635687,-1.7754965915" />
      <path d="M 0.5453635687,-1.7754965915 C 0.2861259174,-1.9581196355 -0.1699444168,-2.0036486655 -0.4684944535,-1.8954996718" />
      <path d="M -0.7921777655,-1.5717046859 Q -0.7921547822,-1.5293716194 -0.7755352904,-1.488045613" />
      <path d="M -0.4684286306,-1.2478872288 C -0.253339921,-1.1722505064 0.0449444189,-1.1691338441 0.2909774398,-1.247890295" />
      <path d="M 0.4007454596,-1.288831166 Q 0.5160309712,-1.3392583475 0.6010850654,-1.4097977084" />
      <path d="M 0.659601524,-1.4652149636 Q 0.7063302119,-1.5159477038 0.734668936,-1.5717053208" />
      <path d="M 0.7526282416,-1.6126467936 Q 0.7747698199,-1.6723612329 0.7748096017,-1.7336117407" />
      <path d="M 0.7748096017,-1.7336117407 C 0.7756703177,-1.867621684 0.6911541581,-2.0009277966 0.5453635687,-2.099310666" />
      <path d="M 0.5453635687,-2.099310666 C 0.2860152036,-2.2819615839 -0.169973628,-2.3274566063 -0.4684948275,-2.2193138901" />
      <path d="M -0.7921687757,-1.8955412388 Q -0.7920847986,-1.8367080416 -0.7603892145,-1.7805596821" />
      <path d="M 0.4007495108,-1.6126469354 Q 0.5160540136,-1.6630834255 0.6010824079,-1.7336095648" />
      <path d="M 0.6457826771,-1.7745537004 Q 0.7021777196,-1.8316382138 0.7346686423,-1.8955189746" />
      <path d="M 0.7526282855,-1.9364610362 Q 0.7747702243,-1.9961774105 0.7748095244,-2.0574261408" />
      <path d="M 0.7748095244,-2.0574261408 C 0.7756741083,-2.1914283256 0.6911514164,-2.3247457479 0.5453635687,-2.4231249723" />
      <path d="M 0.5453635687,-2.4231249723 C 0.2860745003,-2.6057532239 -0.1699305342,-2.6512810374 -0.4684979857,-2.543127378" />
      <path d="M -0.7921754147,-2.2193456955 Q -0.7921010226,-2.1605324621 -0.7603849284,-2.104376498" />
      <path d="M -0.4684179746,-1.8955259982 C -0.2532463087,-1.8198498566 0.0448776696,-1.8167780536 0.2909768173,-1.8955188927" />
      <path d="M 0.4007496733,-1.9364610644 Q 0.5158887302,-1.9867992438 0.6010853906,-2.0574262547" />
      <path d="M 0.6457829554,-2.0983682904 Q 0.7021899746,-2.155469158 0.7346685713,-2.2193333967" />
      <path d="M 0.7526282541,-2.260275559 Q 0.7636385641,-2.2899289724 0.769205481,-2.3201573712" />
      <path d="M 0.7739144913,-2.3567975062 L 0.7748095232,-2.381240547" />
      <path d="M 0.7748095232,-2.381240547 C 0.7757078998,-2.5151848424 0.6911059783,-2.648617266 0.5453635687,-2.7469395187" />
      <path d="M 0.5453635687,-2.7469395187 C 0.2862510873,-2.9295161491 -0.1699011163,-2.9751128383 -0.4684894325,-2.8669437786" />
      <path d="M -0.7921772627,-2.5431483963 Q -0.7920900916,-2.4843222831 -0.7603893549,-2.4281882102" />
      <path d="M -0.4684289888,-2.2193300812 C -0.2534602988,-2.1436935038 0.045032803,-2.1405837342 0.2909681561,-2.219336084" />
      <path d="M 0.4007450469,-2.2602771672 Q 0.5160134418,-2.3106803078 0.6010799447,-2.3812448773" />
      <path d="M 0.6457744725,-2.4221910934 Q 0.7021650837,-2.4792713321 0.7346685084,-2.5431475987" />
      <path d="M 0.7691871978,-2.6439864028 Q 0.774789134,-2.674456421 0.7747914232,-2.7051110296" />
      <path d="M -0.4684291097,-2.5431443161 C -0.2534511619,-2.4674949179 0.0449176142,-2.4644234341 0.2909795108,-2.5431470848" />
      <path d="M 0.4007265031,-2.5840851224 Q 0.5158821918,-2.6344662667 0.6010603963,-2.705075554" />
      <path d="M 0.7748102887,-3.0288688217 C 0.7756628387,-3.1629149781 0.6911493467,-3.2961713135 0.5453635687,-3.3945678168" />
      <path d="M 0.5453635687,-3.3945678168 C 0.2861550053,-3.5771979719 -0.1700037944,-3.6227118776 -0.4684954966,-3.5145708698" />
      <path d="M -0.7921757998,-3.190780435 Q -0.7921618691,-3.1484679129 -0.7755214892,-3.1071256579" />
      <path d="M -0.4683926716,-2.8669675724 C -0.2532911045,-2.7912923565 0.0449248777,-2.7882257605 0.2909775585,-2.8669618342" />
      <path d="M 0.6596015678,-3.0842864254 Q 0.7063249988,-3.1350119297 0.7346688468,-3.1907766609" />
      <path d="M 0.7526282197,-3.2317182991 Q 0.7747697436,-3.291432683 0.774809549,-3.3526833289" />
      <path d="M 0.774809549,-3.3526833289 C 0.77566224,-3.4866994984 0.6911730774,-3.6199800309 0.5453635687,-3.7183822368" />
      <path d="M 0.5453635687,-3.7183822368 Q 0.4428067777,-3.7878036982 0.3107259171,-3.8319963487" />
      <path d="M -0.7921777733,-3.5145906167 Q -0.7921532877,-3.4722500917 -0.775535219,-3.4309314584" />
      <path d="M 0.4007495215,-3.2317183234 Q 0.5160421054,-3.2821489564 0.6010841919,-3.3526826222" />
      <path d="M 0.645782733,-3.3936253256 Q 0.7021689011,-3.4506974315 0.7346686573,-3.5145903951" />
      <path d="M 0.7526268515,-3.5555285186 Q 0.7747692229,-3.6152408436 0.7748095257,-3.6764975717" />
      <path d="M 0.7748095257,-3.6764975717 C 0.7756440383,-3.8105698429 0.6911582345,-3.9437981853 0.5453635687,-4.0421967028" />
      <path d="M 0.5453635687,-4.0421967028 Q 0.4429123331,-4.1115811824 0.3108202928,-4.1557868268" />
      <path d="M -0.7921777707,-3.8384048078 Q -0.7920955086,-3.7796007055 -0.760389331,-3.7234453866" />
      <path d="M 0.288134678,-3.5137016382 L 0.2909767435,-3.5145906348" />
      <path d="M 0.6457794428,-3.7174354503 Q 0.7021607315,-3.7745083997 0.7346656759,-3.8384109626" />
      <path d="M 0.7526269431,-3.8793499067 Q 0.7747719113,-3.9390568117 0.7748029658,-4.0003313846" />
      <path d="M 0.7748029658,-4.0003313846 C 0.775632671,-4.1344089297 0.6911881679,-4.2675473911 0.5453635687,-4.3660109052" />
      <path d="M 0.3107808435,-4.4796111043 C 0.0612869205,-4.5646188742 -0.2473210633,-4.5639096652 -0.4684928973,-4.4860144308" />
      <path d="M -0.7921780196,-4.1622191123 Q -0.7920675918,-4.1001500009 -0.7568851892,-4.0412507671" />
      <path d="M -0.7275032463,-4.0003118945 Q -0.6690622609,-3.9310698351 -0.5665065569,-3.8793469667" />
      <path d="M 0.2881368018,-3.8375154224 L 0.2909693058,-3.838401386" />
      <path d="M 0.6457803378,-4.0412532021 Q 0.702171597,-4.0983277716 0.7346684528,-4.1622194201" />
      <path d="M 0.769205512,-4.2630430847 Q 0.7748071041,-4.2934877748 0.7748095985,-4.3241257479" />
      <path d="M -0.7921720519,-4.4860460829 Q -0.7920838332,-4.4240072135 -0.756881256,-4.3650757902" />
      <path d="M -0.727499623,-4.3241305597 Q -0.6690780251,-4.2548834707 -0.5664963881,-4.2031650907" />
      <path d="M -0.4684198827,-4.1622255781 C -0.2534583843,-4.0865776917 0.0449627591,-4.0834640801 0.290977129,-4.1622190544" />
      <path d="M 0.3108274473,-5.1272279522 C 0.2544558233,-5.1460341122 0.1959349022,-5.160794 0.1352646839,-5.1715076155 C -0.0577425776,-5.2060290843 -0.2641565347,-5.1955107461 -0.4294729903,-5.1461125038 C -0.5955792163,-5.0974398801 -0.719077828,-5.0105151119 -0.7674053336,-4.9116022574 C -0.7838815638,-4.8783131222 -0.7921390645,-4.8443949364 -0.7921778355,-4.8098476999" />
      <path d="M -0.7921778355,-4.8098476999 Q -0.7921533644,-4.7675086551 -0.7755352167,-4.7261886882" />
      <path d="M -0.46843806,-4.4860333081 C -0.2532168986,-4.4103660591 0.0448521074,-4.407293776 0.2909739841,-4.4860323853" />
      <path d="M 0.6596015989,-4.7033579461 Q 0.706327325,-4.7540871431 0.734668486,-4.8098478611" />
      <path d="M 0.7526280995,-4.8507898387 Q 0.7747698015,-4.9105043357 0.7748095891,-4.9717549854" />
      <path d="M 0.5453635687,-5.3374533836 C 0.3484022191,-5.4737791056 0.0388871687,-5.538492909 -0.230195948,-5.5086806043 C -0.5565601874,-5.4774924714 -0.7975457507,-5.3102877963 -0.7921777869,-5.1336620178" />
      <path d="M -0.7921777869,-5.1336620178 Q -0.792077154,-5.0716333687 -0.7568869008,-5.0126970426" />
      <path d="M -0.7275033431,-4.9717551747 Q -0.6690585907,-4.902509286 -0.5664980139,-4.850794299" />
      <path d="M 0.6457830788,-5.0126968267 Q 0.7021836272,-5.0697888596 0.7346686104,-5.1336620562" />
      <path d="M 0.7692054159,-5.2344860462 Q 0.7748069796,-5.2649302358 0.7748095599,-5.2955691566" />
      <path d="M 0.5453635687,-5.6612678524 C 0.4016165361,-5.7597749668 0.1989953819,-5.822797 -0.0051085453,-5.8362487806 C -0.2092052702,-5.850702542 -0.4125836461,-5.8156308059 -0.557661055,-5.744708594 C -0.7065340971,-5.6731835273 -0.7930387741,-5.5658444947 -0.7921674627,-5.4575056237" />
      <path d="M -0.7921674627,-5.4575056237 Q -0.792074106,-5.3954279558 -0.7568867222,-5.3365107324" />
      <path d="M -0.7275035967,-5.2955687183 Q -0.6690840339,-5.2263457998 -0.5665061483,-5.1746043622" />
      <path d="M -0.4684380603,-5.1336619102 C -0.2540464108,-5.058320786 0.0424888382,-5.0548962421 0.2881348737,-5.1327730939" />
      <path d="M 0.645782949,-5.3365111718 Q 0.702186949,-5.3936079497 0.7346686548,-5.457476353" />
      <path d="M 0.7739145008,-5.5949404528 L 0.7748095211,-5.6193834192" />
      <path d="M 0.7748095211,-5.6193834192 C 0.7756941747,-5.7533451732 0.6911317899,-5.8867320471 0.5453635687,-5.985082427" />
      <path d="M 0.5453635687,-5.985082427 C 0.3516215409,-6.1189671757 0.0499007302,-6.1839615704 -0.2160579154,-6.1577047068 C -0.5489884219,-6.1298393698 -0.7977483774,-5.9607053687 -0.7921778662,-5.7812904204" />
      <path d="M -0.7921778662,-5.7812904204 Q -0.7920758613,-5.7192527784 -0.7568817245,-5.6603172093" />
      <path d="M -0.7274985686,-5.6193783292 Q -0.6690605423,-5.5501402187 -0.5665066213,-5.4984181705" />
      <path d="M 0.2881358599,-5.4565871272 L 0.2909781175,-5.4574761238" />
      <path d="M 0.4007519567,-5.4984173146 Q 0.5159886418,-5.5488140099 0.6010833109,-5.6193848488" />
      <path d="M 0.6457805426,-5.6603277008 Q 0.7021884863,-5.7174280002 0.7346685824,-5.7812906663" />
      <path d="M 0.7526278451,-5.8222337609 Q 0.7747662045,-5.8819400167 0.7748087971,-5.9431971443" />
      <path d="M 0.6984660781,-6.2980407552 C 0.8845687517,-6.1761617312 0.9923767584,-6.0098592242 0.991315873,-5.8424710071" />
      <path d="M 0.990813586,-5.822232614 Q 0.9808324125,-5.6480659955 0.8353094417,-5.4984183718" />
      <path d="M 0.0745218598,-5.1807757542 Q -0.0978664734,-5.1636289929 -0.2651100452,-5.1807116313" />
      <path d="M -0.4684289221,-5.215549319 Q -0.6072135654,-5.2498348551 -0.7175990933,-5.3068513348" />
      <path d="M -0.7603891747,-5.3305053729 C -0.9194292838,-5.4238808501 -1.0094421496,-5.55186896 -1.0086841148,-5.6805639189" />
      <path d="M -1.0086841148,-5.6805639189 C -1.0111802229,-5.8564723207 -0.8386287491,-6.0291109295 -0.5642032971,-6.1181161139 C -0.2654208293,-6.2192748163 0.1454250858,-6.2125614557 0.4627395204,-6.0920523212 C 0.7834230479,-5.9752429593 0.9948889769,-5.7495606015 0.9913158679,-5.518656907" />
      <path d="M 0.9913158679,-5.518656907 Q 0.9896592236,-5.3335936658 0.8353094118,-5.1746040414" />
      <path d="M -0.4684293283,-4.8917351313 L -0.4684945543,-4.8917511716" />
      <path d="M -0.7603893648,-5.0066911956 C -0.9194293099,-5.1000666649 -1.0094421089,-5.228054392 -1.0086841409,-5.3567494357" />
      <path d="M -1.0086841409,-5.3567494357 C -1.0097453028,-5.4971664919 -0.9019198387,-5.6364968225 -0.7157910828,-5.7313942765 C -0.5311630764,-5.8271727935 -0.2708489676,-5.8769819041 -0.0086842938,-5.8628666285 C 0.253480381,-5.8499973519 0.5137943871,-5.7732038377 0.6984225271,-5.6504408929 C 0.8845514292,-5.5285590019 0.9923770766,-5.3622440094 0.9913158611,-5.1948425099" />
      <path d="M 0.9913158611,-5.1948425099 Q 0.9896592296,-5.0097792486 0.8353094265,-4.8507897412" />
      <path d="M -0.0056855567,-4.5269754088 Q -0.1375932543,-4.5200289708 -0.2651107017,-4.5330830743" />
      <path d="M -0.4684288838,-4.5679207318 L -0.4684922651,-4.5679363185" />
      <path d="M -0.7603893251,-4.6828769092 L -0.7703867175,-4.6888826121" />
      <path d="M -0.801803674,-4.7091210133 C -0.9352646647,-4.7993943512 -1.0092075175,-4.9159442308 -1.0086841702,-5.0329353225" />
      <path d="M -1.0086841702,-5.0329353225 C -1.0097453674,-5.1733522527 -0.9019196193,-5.3126826307 -0.7157908469,-5.4075800786 C -0.531162833,-5.5033585781 -0.2708488945,-5.553167609 -0.0086841195,-5.5390523076 C 0.2534806675,-5.5261829944 0.5137946628,-5.4493894909 0.6984226216,-5.3266265339 C 0.8845513568,-5.2047446265 0.9923772778,-5.0384294592 0.9913158777,-4.8710281354" />
      <path d="M 0.9913158777,-4.8710281354 Q 0.991202358,-4.7781954905 0.9498730976,-4.6888825191" />
      <path d="M 0.0745203172,-4.2093326797 L -0.0056855564,-4.2031611379" />
      <path d="M -0.1867698941,-4.2031611268 L -0.265111312,-4.2092688124" />
      <path d="M -0.4684290175,-4.2441064441 L -0.4684943803,-4.2441225181" />
      <path d="M -1.0079697996,-4.6888825541 L -1.0086841702,-4.7091209473" />
      <path d="M -1.0086841702,-4.7091209473 C -1.0103545257,-4.8672379171 -0.8723024394,-5.0234096995 -0.6430536986,-5.1174061398 C -0.4159242702,-5.2129186767 -0.1027199938,-5.2437882631 0.1864664254,-5.1938282072 C 0.4114345708,-5.1561219556 0.6194031751,-5.0711297385 0.7643458958,-4.9550490727 C 0.9102651046,-4.8394388757 0.9919474519,-4.6936065873 0.9913158611,-4.5472137599" />
      <path d="M 0.9913158611,-4.5472137599 Q 0.9912456652,-4.4650328789 0.9587019418,-4.3853065767" />
      <path d="M 0.0745222463,-3.885518564 L -0.0056853165,-3.8793468388" />
      <path d="M -0.1867702953,-3.8793468449 L -0.2651106978,-3.8854544525" />
      <path d="M -0.4684287,-3.9202920792 L -0.4684966038,-3.9203087782" />
      <path d="M -1.0086841409,-4.385306834 C -1.0084262923,-4.4563924289 -0.9830449634,-4.5245436915 -0.932540154,-4.5897606219 C -0.8453777306,-4.7024393602 -0.6825302945,-4.7961039773 -0.4800401123,-4.8474115423 C -0.2781454467,-4.8993732058 -0.0382918588,-4.9084495224 0.1864364099,-4.87001898 C 0.4114111662,-4.8323158428 0.6193876533,-4.7473244996 0.7643362219,-4.6312425034 C 0.9102613754,-4.5156310058 0.9919475159,-4.3697954079 0.9913158679,-4.2233993628" />
      <path d="M 0.9908135811,-4.2031609699 Q 0.9808324318,-4.028994366 0.8353094437,-3.8793468339" />
      <path d="M 0.0745212031,-3.5617041755 L -0.0056853658,-3.5555325643" />
      <path d="M -0.4684304978,-3.5964782018 L -0.4684625505,-3.5964860838" />
      <path d="M -0.7603893362,-3.7114339646 C -0.9194293429,-3.8048094756 -1.0094421624,-3.9327974883 -1.0086841148,-4.0614923509" />
      <path d="M -1.0086841148,-4.0614923509 C -1.0097453106,-4.2019091971 -0.9019197566,-4.3412397607 -0.7157909362,-4.4361372179 C -0.5311628761,-4.5319157255 -0.270848824,-4.5817246022 -0.0086841375,-4.5676093722 C 0.2534805493,-4.5547401372 0.5137945918,-4.4779467133 0.6984226613,-4.3551836345 C 0.8845514904,-4.2333015975 0.9923770705,-4.066986632 0.991315873,-3.8995852626" />
      <path d="M 0.991315873,-3.8995852626 C 0.9919203866,-3.7548340012 0.9121163222,-3.6106124166 0.7691966436,-3.4956433998" />
      <path d="M 0.7499857309,-3.4805565748 Q 0.7172933111,-3.4556233768 0.6809563707,-3.4327223737" />
      <path d="M -0.4684287439,-3.2726635057 L -0.4684972598,-3.2726803552" />
      <path d="M -0.7603894281,-3.3876197438 C -0.9194294315,-3.480995164 -1.0094421101,-3.6089830924 -1.008684069,-3.7376780197" />
      <path d="M -1.008684069,-3.7376780197 C -1.0091570186,-3.8516719226 -0.9390583112,-3.9652778014 -0.8118826194,-4.054514651 C -0.6854666968,-4.1440823122 -0.5027611969,-4.2086575838 -0.2989394208,-4.233698475 C 0.1100427895,-4.2886603272 0.589790272,-4.1659458755 0.8228196038,-3.9322543357 C 0.9322201055,-3.8263678482 0.9916612781,-3.7011996485 0.9913158661,-3.5757709587" />
      <path d="M 0.9913158661,-3.5757709587 C 0.9919203226,-3.4310225719 0.9121197296,-3.2868042956 0.7692055116,-3.1718363271" />
      <path d="M 0.7499869595,-3.1567432535 Q 0.7172940806,-3.1318095848 0.6809565459,-3.1089081988" />
      <path d="M 0.0745226393,-2.9140757139 Q -0.0978655053,-2.8969288987 -0.2651089525,-2.9140114397" />
      <path d="M -0.4684288314,-2.9488492408 L -0.4684947188,-2.9488654438" />
      <path d="M -0.7603882054,-3.0638047068 L -0.7703867073,-3.0698110623" />
      <path d="M -0.8018036692,-3.090049458 C -0.9352647412,-3.1803228084 -1.0092074453,-3.296872732 -1.0086840999,-3.4138638212" />
      <path d="M -1.0086840999,-3.4138638212 C -1.0136231347,-3.6257517144 -0.7585114724,-3.8296419706 -0.3913108222,-3.8955417416 C -0.0889148259,-3.9537842199 0.2753019961,-3.9158498536 0.5469115392,-3.7906724236 C 0.8212938496,-3.6679308659 0.9938111242,-3.4615781666 0.9913159153,-3.2519567524" />
      <path d="M 0.9913159153,-3.2519567524 Q 0.9912023141,-3.1591241098 0.9498730889,-3.0698111914" />
      <path d="M 0.0745212815,-2.5902612889 Q -0.0978665389,-2.5731146387 -0.2651095466,-2.5901971809" />
      <path d="M -0.4684288695,-2.6250349288 L -0.468492248,-2.6250505148" />
      <path d="M -1.0079698057,-3.0698111239 L -1.0086841783,-3.0900495157" />
      <path d="M -1.0086841783,-3.0900495157 C -1.0097453123,-3.2304664595 -0.9019195555,-3.3697969863 -0.7157908741,-3.4646943086 C -0.5311629104,-3.5604727225 -0.2708488058,-3.6102817851 -0.0086841146,-3.5961665368 C 0.2534805743,-3.5832972826 0.5137944674,-3.5065037175 0.6984225461,-3.3837407532 C 0.8845513833,-3.2618588398 0.9923771092,-3.0955439484 0.9913158956,-2.9281424728" />
      <path d="M 0.9913158956,-2.9281424728 Q 0.9912456928,-2.8459615596 0.9587019473,-2.7662352289" />
      <path d="M 0.0745213208,-2.2664469774 Q -0.0978668567,-2.2493002652 -0.2651103064,-2.2663829112" />
      <path d="M -0.4684240586,-2.3012194473 L -0.4684938124,-2.301236601" />
      <path d="M -1.0086841403,-2.7662353041 C -1.0097453538,-2.9066522576 -0.901919628,-3.0459826269 -0.7157907907,-3.1408800182 C -0.5311627119,-3.2366584604 -0.2708488187,-3.2864675033 -0.0086841298,-3.2723522355 C 0.2534805614,-3.2594829617 0.513794666,-3.1826893769 0.6984226297,-3.0599264408 C 0.8845513111,-2.9380445963 0.9923770676,-2.7717295475 0.9913159337,-2.6043280815" />
      <path d="M 0.990813645,-2.5840896891 C 0.9844672467,-2.4461650439 0.9053769233,-2.3100127122 0.7692055136,-2.2003934151" />
      <path d="M 0.7499857225,-2.1852994028 Q 0.7172932629,-2.1603661558 0.6809562795,-2.1374651392" />
      <path d="M 0.0745211603,-1.9426326877 Q -0.0978674362,-1.9254859439 -0.265111212,-1.9425687242" />
      <path d="M -0.4684288495,-1.977406296 L -0.4684938201,-1.9774222736" />
      <path d="M -1.0086841599,-2.4424209864 C -1.0111799604,-2.6183239625 -0.8386397394,-2.7909572171 -0.5642287265,-2.8799647274 C -0.2925908836,-2.9714087875 0.0716567638,-2.9755943966 0.3740560411,-2.8835944678 C 0.7411988634,-2.777199909 0.9962529905,-2.5328536239 0.9913158552,-2.2805137756" />
      <path d="M 0.9913158552,-2.2805137756 C 0.9919203172,-2.1357654705 0.9121197481,-1.9915470146 0.7692055746,-1.876579116" />
      <path d="M 0.7499857541,-1.8614850771 Q 0.7172933348,-1.836551858 0.6809563823,-1.8136508644" />
      <path d="M -0.4684289051,-1.6535920149 L -0.4684960817,-1.653608535" />
      <path d="M -1.0086841108,-2.1186066069 C -1.0090298056,-2.2238209924 -0.9495631843,-2.3287746178 -0.8401196177,-2.4144347602 C -0.6070569118,-2.6042488231 -0.1273240943,-2.6830810762 0.281629938,-2.584258921 C 0.4854380985,-2.5372874542 0.6681280429,-2.4507862968 0.7945326644,-2.3392963013 C 0.9216969294,-2.2281370414 0.9917886849,-2.0926121689 0.9913158244,-1.956699365" />
      <path d="M 0.9913158244,-1.956699365 L 0.9908135382,-1.9364609717" />
      <path d="M 0.0745216733,-1.2950041319 Q -0.0978669726,-1.2778573307 -0.265110952,-1.2949401199" />
      <path d="M -1.0079697474,-1.77455393 L -1.0086841176,-1.7947923243" />
      <path d="M -1.0086841176,-1.7947923243 C -1.0097453152,-1.9352091683 -0.9019197351,-2.0745396082 -0.715790906,-2.1694371198 C -0.5311628364,-2.2652156732 -0.2708487939,-2.3150245718 -0.0086841071,-2.3009092813 C 0.2534805793,-2.2880399858 0.5137946314,-2.2112465836 0.6984226916,-2.0884835507 C 0.884551512,-1.966601568 0.9923770659,-1.800286479 0.9913158702,-1.6328851074" />
      <path d="M 0.9913158702,-1.6328851074 L 0.9908135832,-1.6126467141" />
      <path d="M 0.074521083,-0.9711897781 Q -0.0978669681,-0.9540431196 -0.2651100879,-0.971125734" />
      <path d="M -1.0079697427,-1.4507394618 L -1.0086841126,-1.4709778546" />
      <path d="M -1.0086841126,-1.4709778546 C -1.0093158706,-1.5937684708 -0.9276221754,-1.7159985156 -0.7816849888,-1.8080005436 C -0.6367245326,-1.9004731698 -0.4287319934,-1.9618510563 -0.2037444285,-1.9759357349 C 0.020996682,-1.9907479543 0.26085943,-1.958048332 0.4627531005,-1.8824613888 C 0.6652424941,-1.8075286258 0.8280786959,-1.6902370447 0.9152189075,-1.5539349629 C 0.965692706,-1.4752452487 0.9910583689,-1.3936239355 0.9913158963,-1.3090710233" />
      <path d="M 0.9913158963,-1.3090710233 L 0.9908136097,-1.2888326279" />
      <path d="M 0.0745218842,-0.647375529 Q -0.0569458651,-0.6342166772 -0.1867696585,-0.6412038599" />
      <path d="M -1.0086841058,-1.147163642 C -1.0093159166,-1.2699570731 -0.92761846,-1.3921897168 -0.7816751849,-1.4841924359 C -0.6367086891,-1.5766658231 -0.4287079803,-1.638042588 -0.2037142179,-1.6521233839 C 0.0854592667,-1.6717023731 0.3986307845,-1.6104620148 0.6257329215,-1.4845916077 C 0.8549539651,-1.3602368173 0.9929858363,-1.1737189247 0.9913159255,-0.9852565118" />
      <path d="M 0.9908136382,-0.9650181184 Q 0.9866443618,-0.8825172448 0.9498730997,-0.8031110107" />
      <path d="M 0.310819754,-0.3647637027 L 0.2881349358,-0.3592205111" />
      <path d="M -0.005685504,-0.3173895573 Q -0.1375934145,-0.310443122 -0.2651109566,-0.3234972382" />
      <path d="M -0.4684286905,-0.3583348074 L -0.4684931813,-0.3583506669" />
      <path d="M -1.0086841223,-0.8233494039 C -1.0086841217,-0.8233603657 -1.0086841211,-0.8233713275 -1.0086841204,-0.8233822894 C -1.0097293424,-0.9637963654 -0.9018918382,-1.1031204649 -0.7157583004,-1.1980109736 C -0.5311253566,-1.2937825058 -0.2708130245,-1.3435844728 -0.0086534225,-1.3294648469 C 0.2535062325,-1.316591115 0.5138118872,-1.239795715 0.6984334572,-1.1170334629 C 0.8845556954,-0.9951521822 0.9923770426,-0.828840463 0.9913159256,-0.6614422968" />
      <path d="M 0.9913159256,-0.6614422968 L 0.9908136382,-0.6412039029" />
      <path d="M -1.0086841057,-0.4995351667 C -1.0097453213,-0.6399521405 -0.901919674,-0.7792826076 -0.7157907718,-0.874179973 C -0.5311626318,-0.9699583922 -0.2708486257,-1.0197673807 -0.0086839509,-1.0056521318 C 0.2534807229,-0.9927828818 0.5137948316,-0.9159892457 0.6984228381,-0.7932262031 C 0.8845515941,-0.6713442234 0.9923770581,-0.5050293672 0.9913158962,-0.3376277855" />
      <path d="M 0.9913158962,-0.3376277855 L 0.9908136097,-0.3173893935" />
      <path d="M 0.0745149662,0.3240680291 Q -0.0978692719,0.3412137041 -0.2651089064,0.3241315809" />
      <path d="M -1.0079697427,-0.1554825596 L -1.0086841125,-0.1757209541" />
      <path d="M -1.0086841125,-0.1757209541 C -1.012257982,-0.3695332344 -0.8007662548,-0.5581227216 -0.4800536097,-0.6378222112 C -0.1627103877,-0.7212223824 0.2481627429,-0.6908089705 0.5469371669,-0.5525178032 C 0.8213052141,-0.4297751753 0.9938107951,-0.2234283283 0.9913158702,-0.0138137013" />
      <path d="M 0.9913158702,-0.0138137013 L 0.9908135832,0.0064246927" />
      <path d="M -0.0056859109,0.6540533164 Q -0.1375922831,0.6609996739 -0.2651084384,0.6479459356" />
      <path d="M -1.0079697474,0.1683319085 L -1.0086841177,0.1480935156" />
      <path d="M -1.0086841177,0.1480935156 C -1.0097456449,0.0076656241 -0.9019024303,-0.1316757167 -0.7157474816,-0.2265736413 C -0.4396543038,-0.372501253 0.0106498135,-0.4048352066 0.3740275517,-0.2930885804 C 0.7411849752,-0.1866979145 0.996253446,0.0576538333 0.9913158244,0.3100005562" />
      <path d="M 0.9913158244,0.3100005562 Q 0.9912456257,0.3921814364 0.9587019308,0.4719077445" />
      <path d="M -0.4684290983,0.9369222975 L -0.4684980199,0.9369053482" />
      <path d="M -1.0086841108,0.4719077983 C -1.0097453062,0.3314908472 -0.9019197905,0.192160546 -0.7157909639,0.0972630285 C -0.5311628983,0.0014844694 -0.2708488378,-0.0483245352 -0.0086841674,-0.0342092211 C 0.253480503,-0.0213399049 0.5137945534,0.0554535446 0.6984226481,0.1782165181 C 0.8845515055,0.3000984367 0.9923770599,0.4664135227 0.9913158552,0.6338149668" />
      <path d="M 0.9908135687,0.6540533601 C 0.9844672713,0.7919780494 0.9053767267,0.9281302905 0.7692054968,1.0377495827" />
      <path d="M -1.0079697893,0.8159605709 L -1.00868416,0.7957221777" />
      <path d="M -1.00868416,0.7957221777 C -1.0095105306,0.6641237884 -0.9152471016,0.5333146913 -0.7496250182,0.4394107431 C -0.58522754,0.344855175 -0.3512769766,0.2883744428 -0.1066707928,0.2873721977 C 0.1377734543,0.285404334 0.3901970483,0.3390695229 0.5870520758,0.4380419745 C 0.784891748,0.536235113 0.925003514,0.678795269 0.9721131359,0.833016772 C 0.9848988196,0.8741852127 0.9912997522,0.915722713 0.9913159337,0.9576292731" />
      <path d="M 0.9913159337,0.9576292731 Q 0.9912584312,1.0357662433 0.961789547,1.1117896547" />
      <path d="M -1.0086708484,1.1222976675 L -1.0086841403,1.1195364953" />
      <path d="M -1.0086841403,1.1195364953 C -1.0097454695,0.9791139811 -0.9019110865,0.8397782102 -0.7157692958,0.744880476 C -0.5311284425,0.6491015193 -0.2707974803,0.599297084 -0.0086227163,0.6134225383 C 0.2078393278,0.6242821482 0.4235787637,0.6780418876 0.5957235656,0.7662338239 C 0.7684788903,0.8539532827 0.8964948373,0.9755950489 0.9543324742,1.1092021714" />
      <path d="M -0.5523287603,1.0019449206 C -0.3303255499,0.9303987549 -0.0493148312,0.9144503645 0.2092899277,0.9626745895" />
      <path d="M 0.6984660781,-6.2980407552 L 0.6984660781,-6.2575639679" />
      <path d="M 0.6984660781,-6.2575639679 C 0.8845687517,-6.1356849439 0.9923767584,-5.9693824369 0.991315873,-5.8019942198" />
      <path d="M 0.991315873,-5.8019942198 Q 0.990045717,-5.6293919216 0.8543799736,-5.4781799848" />
      <path d="M 0.6055231449,-5.2918423271 L 0.580722391,-5.2792683161" />
      <path d="M -0.679371461,-5.2477003905 L -0.7407528496,-5.2787802559" />
      <path d="M -0.7755339499,-5.2992043047 C -0.9252667475,-5.3916493729 -1.0093511387,-5.5155679702 -1.0086841148,-5.6400871316" />
      <path d="M -1.0086841148,-5.6400871316 C -1.0111802229,-5.8159955334 -0.8386287491,-5.9886341422 -0.5642032971,-6.0776393266 C -0.2654208293,-6.178798029 0.1454250858,-6.1720846684 0.4627395204,-6.0515755339 C 0.7834230479,-5.934766172 0.9948889769,-5.7090838141 0.9913158679,-5.4781801196" />
      <path d="M 0.9913158679,-5.4781801196 Q 0.9900456932,-5.3055776652 0.8543799396,-5.1543656561" />
      <path d="M 0.605523065,-4.968027976 L 0.5807226587,-4.9554541415" />
      <path d="M -0.6793729339,-4.9238868062 L -0.7407530802,-4.9549661031" />
      <path d="M -0.7755353312,-4.9753908654 C -0.9252672025,-5.0678358278 -1.0093511084,-5.1917537363 -1.0086841409,-5.3162726484" />
      <path d="M -1.0086841409,-5.3162726484 C -1.0097453028,-5.4566897046 -0.9019198387,-5.5960200352 -0.7157910828,-5.6909174892 C -0.5311630764,-5.7866960062 -0.2708489676,-5.8365051168 -0.0086842938,-5.8223898412 C 0.253480381,-5.8095205645 0.5137943871,-5.7327270504 0.6984225271,-5.6099641056 C 0.8845514292,-5.4880822146 0.9923770766,-5.3217672221 0.9913158611,-5.1543657226" />
      <path d="M 0.9913158611,-5.1543657226 Q 0.9900456965,-4.9817632479 0.8543799578,-4.8305513476" />
      <path d="M -0.6793737272,-4.6000728815 L -0.7407523751,-4.63115144" />
      <path d="M -0.7755354353,-4.6515766743 L -0.801803674,-4.668644226" />
      <path d="M -0.8300601885,-4.6888826254 C -0.945841425,-4.7759369693 -1.0090728621,-4.884046497 -1.0086841702,-4.9924585352" />
      <path d="M -1.0086841702,-4.9924585352 C -1.0097453674,-5.1328754654 -0.9019196193,-5.2722058434 -0.7157908469,-5.3671032913 C -0.531162833,-5.4628817908 -0.2708488945,-5.5126908217 -0.0086841195,-5.4985755203 C 0.2534806675,-5.4857062071 0.5137946628,-5.4089127036 0.6984226216,-5.2861497466 C 0.8845513568,-5.1642678392 0.9923772778,-4.9979526719 0.9913158777,-4.8305513481" />
      <path d="M 0.9913158777,-4.8305513481 Q 0.9912457397,-4.7483704526 0.9587019749,-4.6686441052" />
      <path d="M -0.9729751064,-4.5269754633 Q -1.0085999494,-4.5964032012 -1.0086841702,-4.66864416" />
      <path d="M -1.0086841702,-4.66864416 C -1.0103545257,-4.8267611298 -0.8723024394,-4.9829329122 -0.6430536986,-5.0769293525 C -0.4159242702,-5.1724418894 -0.1027199938,-5.2033114758 0.1864664254,-5.1533514199 C 0.4114345708,-5.1156451683 0.6194031751,-5.0306529512 0.7643458958,-4.9145722854 C 0.9102651046,-4.7989620884 0.9919474519,-4.6531298 0.9913158611,-4.5067369726" />
      <path d="M 0.9913158611,-4.5067369726 Q 0.9912750776,-4.4350854501 0.9664329842,-4.3650681794" />
      <path d="M 0.9587019418,-4.3448297894 Q 0.923773339,-4.2596846702 0.8543799736,-4.1829227104" />
      <path d="M -0.6793726192,-3.952443791 L -0.7407528078,-3.9835230961" />
      <path d="M -0.7755340382,-4.003947216 C -0.9252667878,-4.0963922338 -1.0093511403,-4.2203106943 -1.0086841409,-4.3448300467" />
      <path d="M -1.0086841409,-4.3448300467 C -1.0084262923,-4.4159156416 -0.9830449634,-4.4840669042 -0.932540154,-4.5492838345 C -0.8453777306,-4.6619625729 -0.6825302945,-4.75562719 -0.4800401123,-4.806934755 C -0.2781454467,-4.8588964184 -0.0382918588,-4.8679727351 0.1864364099,-4.8295421927 C 0.4114111662,-4.7918390555 0.6193876533,-4.7068477123 0.7643362219,-4.5907657161 C 0.9102613754,-4.4751542185 0.9919475159,-4.3293186206 0.9913158679,-4.1829225755" />
      <path d="M 0.9913158679,-4.1829225755 C 0.9918946266,-4.0397821315 0.9139111096,-3.8971431249 0.7739131748,-3.7828236615" />
      <path d="M 0.7609363339,-3.7723855212 Q 0.7141247887,-3.7354960717 0.6595971117,-3.7029617248" />
      <path d="M -0.6793731854,-3.6286296933 L -0.7407527478,-3.6597086958" />
      <path d="M -0.7755353129,-3.6801336483 C -0.9252672721,-3.77257867 -1.0093511422,-3.8964968296 -1.0086841148,-4.0210155636" />
      <path d="M -1.0086841148,-4.0210155636 C -1.0097453106,-4.1614324098 -0.9019197566,-4.3007629734 -0.7157909362,-4.3956604306 C -0.5311628761,-4.4914389382 -0.270848824,-4.5412478148 -0.0086841375,-4.5271325849 C 0.2534805493,-4.5142633499 0.5137945918,-4.437469926 0.6984226613,-4.3147068472 C 0.8845514904,-4.1928248102 0.9923770705,-4.0265098447 0.991315873,-3.8591084753" />
      <path d="M 0.991315873,-3.8591084753 C 0.9918946793,-3.7159643815 0.9139070324,-3.5733214799 0.7739025126,-3.4590005766" />
      <path d="M 0.7609362984,-3.4485711641 Q 0.7141266104,-3.4116832109 0.659601412,-3.3791499597" />
      <path d="M 0.6055218443,-3.3489558513 L 0.5807213892,-3.3363820221" />
      <path d="M -0.6793731568,-3.3048154154 L -0.7407537174,-3.3358949657" />
      <path d="M -0.775535379,-3.3563194073 C -0.9252673408,-3.4487643301 -1.0093510909,-3.5726824338 -1.008684069,-3.6972012323" />
      <path d="M -1.008684069,-3.6972012323 C -1.0091570186,-3.8111951353 -0.9390583112,-3.9248010141 -0.8118826194,-4.0140378637 C -0.6854666968,-4.1036055249 -0.5027611969,-4.1681807965 -0.2989394208,-4.1932216877 C 0.1100427895,-4.2481835399 0.589790272,-4.1254690882 0.8228196038,-3.8917775484 C 0.9322201055,-3.7858910609 0.9916612781,-3.6607228612 0.9913158661,-3.5352941713" />
      <path d="M 0.9913158661,-3.5352941713 C 0.9918945998,-3.3921540537 0.9139116164,-3.2495155358 0.773914507,-3.1351961804" />
      <path d="M 0.76093805,-3.1247582945 Q 0.7244259142,-3.0959799928 0.683139408,-3.0698111018" />
      <path d="M -0.6793748717,-2.9810018922 L -0.740752895,-3.0120801937" />
      <path d="M -0.7755318566,-3.0325029064 L -0.8018036692,-3.0495726707" />
      <path d="M -0.8300601904,-3.0698110686 C -0.9458414805,-3.1568654284 -1.0090727886,-3.2649749962 -1.0086840999,-3.3733870339" />
      <path d="M -1.0086840999,-3.3733870339 C -1.0136231347,-3.5852749271 -0.7585114724,-3.7891651833 -0.3913108222,-3.8550649543 C -0.0889148259,-3.9133074326 0.2753019961,-3.8753730663 0.5469115392,-3.7501956363 C 0.8212938496,-3.6274540786 0.9938111242,-3.4211013793 0.9913159153,-3.2114799651" />
      <path d="M 0.9913159153,-3.2114799651 Q 0.9912457124,-3.1292990937 0.9587019692,-3.0495728002" />
      <path d="M 0.6055232202,-2.70132799 L 0.5805628406,-2.6886754323" />
      <path d="M -0.9729751086,-2.9079039811 Q -1.008599907,-2.9773317592 -1.0086841783,-3.0495727284" />
      <path d="M -1.0086841783,-3.0495727284 C -1.0097453123,-3.1899896722 -0.9019195555,-3.329320199 -0.7157908741,-3.4242175213 C -0.5311629104,-3.5199959352 -0.2708488058,-3.5698049978 -0.0086841146,-3.5556897495 C 0.2534805743,-3.5428204952 0.5137944674,-3.4660269302 0.6984225461,-3.3432639659 C 0.8845513833,-3.2213820525 0.9923771092,-3.0550671611 0.9913158956,-2.8876656855" />
      <path d="M 0.9913158956,-2.8876656855 Q 0.9912751075,-2.8160141393 0.9664329969,-2.7459968473" />
      <path d="M 0.9587019473,-2.7257584416 Q 0.9048141641,-2.595349222 0.7739144614,-2.4875675276" />
      <path d="M 0.760936249,-2.4771282593 Q 0.7141266964,-2.4402403708 0.659601614,-2.4077071995" />
      <path d="M 0.6055231356,-2.3775136707 L 0.5807029834,-2.3649301165" />
      <path d="M -0.6793733216,-2.3333726106 L -0.7407491723,-2.3644495711" />
      <path d="M -0.7755350961,-2.3848763683 Q -0.9017197369,-2.4636970292 -0.9617404244,-2.563851308" />
      <path d="M -0.9729750809,-2.5840897139 Q -1.0085999169,-2.6535175096 -1.0086841403,-2.7257585168" />
      <path d="M -1.0086841403,-2.7257585168 C -1.0097453538,-2.8661754703 -0.901919628,-3.0055058396 -0.7157907907,-3.1004032309 C -0.5311627119,-3.1961816731 -0.2708488187,-3.245990716 -0.0086841298,-3.2318754482 C 0.2534805614,-3.2190061744 0.513794666,-3.1422125896 0.6984226297,-3.0194496534 C 0.8845513111,-2.897567809 0.9923770676,-2.7312527602 0.9913159337,-2.5638512942" />
      <path d="M 0.9913159337,-2.5638512942 C 0.9918945556,-2.4207112628 0.9139118273,-2.2780726616 0.773914492,-2.1637532526" />
      <path d="M 0.7609362667,-2.153313978 Q 0.7141266826,-2.1164260784 0.6596016125,-2.0838929109" />
      <path d="M 0.6055232962,-2.0536994616 L 0.5807222808,-2.0411253178" />
      <path d="M -0.9729750774,-2.2602754237 Q -1.0085999364,-2.3297032073 -1.0086841599,-2.4019441991" />
      <path d="M -1.0086841599,-2.4019441991 C -1.0111799604,-2.5778471752 -0.8386397394,-2.7504804298 -0.5642287265,-2.8394879401 C -0.2925908836,-2.9309320002 0.0716567638,-2.9351176093 0.3740560411,-2.8431176805 C 0.7411988634,-2.7367231217 0.9962529905,-2.4923768366 0.9913158552,-2.2400369883" />
      <path d="M 0.9913158552,-2.2400369883 C 0.9918945943,-2.0968969489 0.913911631,-1.9542582513 0.7739145591,-1.8399389601" />
      <path d="M 0.7609363236,-1.8294996735 Q 0.7141266056,-1.7926116581 0.6596013186,-1.7600784021" />
      <path d="M 0.6055193579,-1.729883089 L 0.580721773,-1.7173107602" />
      <path d="M -0.9617404075,-1.9162226483 Q -1.0085381616,-1.9950531527 -1.0086841108,-2.0781298196" />
      <path d="M -1.0086841108,-2.0781298196 C -1.0090298056,-2.1833442051 -0.9495631843,-2.2882978304 -0.8401196177,-2.3739579729 C -0.6070569118,-2.5637720358 -0.1273240943,-2.6426042889 0.281629938,-2.5437821337 C 0.4854380985,-2.4968106669 0.6681280429,-2.4103095095 0.7945326644,-2.298819514 C 0.9216969294,-2.1876602541 0.9917886849,-2.0521353816 0.9913158244,-1.9162225777" />
      <path d="M 0.9913158244,-1.9162225777 C 0.9918945638,-1.773082558 0.9139116689,-1.6304439766 0.7739145788,-1.5161246853" />
      <path d="M 0.7609312124,-1.5056813553 Q 0.724422044,-1.4769060077 0.6831394263,-1.4507395986" />
      <path d="M 0.6055231357,-1.4060707764 L 0.5807200663,-1.3934956324" />
      <path d="M -0.9617403863,-1.5924083112 Q -1.0085381692,-1.6712389151 -1.0086841176,-1.754315537" />
      <path d="M -1.0086841176,-1.754315537 C -1.0097453152,-1.894732381 -0.9019197351,-2.0340628209 -0.715790906,-2.1289603325 C -0.5311628364,-2.2247388859 -0.2708487939,-2.2745477844 -0.0086841071,-2.260432494 C 0.2534805793,-2.2475631985 0.5137946314,-2.1707697963 0.6984226916,-2.0480067634 C 0.884551512,-1.9261247807 0.9923770659,-1.7598096917 0.9913158702,-1.59240832" />
      <path d="M 0.9913158702,-1.59240832 Q 0.9903552498,-1.4319366058 0.8719622344,-1.2888324423" />
      <path d="M 0.8543799469,-1.2685940456 Q 0.8183314022,-1.2287688157 0.7739141494,-1.192310037" />
      <path d="M 0.7609363259,-1.181871083 Q 0.7141266676,-1.144983094 0.6596014758,-1.1124498843" />
      <path d="M 0.6055231548,-1.0822564669 L 0.5807183103,-1.0696804538" />
      <path d="M -0.972975087,-1.288832395 Q -1.0085998987,-1.3582601307 -1.0086841126,-1.4305010673" />
      <path d="M -1.0086841126,-1.4305010673 C -1.0093158706,-1.5532916835 -0.9276221754,-1.6755217283 -0.7816849888,-1.7675237563 C -0.6367245326,-1.8599963825 -0.4287319934,-1.921374269 -0.2037444285,-1.9354589475 C 0.020996682,-1.950271167 0.26085943,-1.9175715447 0.4627531005,-1.8419846015 C 0.6652424941,-1.7670518385 0.8280786959,-1.6497602574 0.9152189075,-1.5134581755 C 0.965692706,-1.4347684614 0.9910583689,-1.3531471482 0.9913158963,-1.268594236" />
      <path d="M 0.9913158963,-1.268594236 Q 0.9912751064,-1.1969426508 0.966433001,-1.1269253459" />
      <path d="M 0.9587019536,-1.1066869388 Q 0.90481421,-0.976277759 0.7739144985,-0.868496075" />
      <path d="M 0.760936255,-0.858056783 Q 0.7141264853,-0.8211687295 0.6596011233,-0.788635429" />
      <path d="M 0.6055206152,-0.7584408728 L 0.5807285768,-0.7458712275" />
      <path d="M -0.9617404604,-0.9447797667 Q -1.0085381611,-1.023610261 -1.0086841058,-1.1066868547" />
      <path d="M -1.0086841058,-1.1066868547 C -1.0093159166,-1.2294802858 -0.92761846,-1.3517129294 -0.7816751849,-1.4437156486 C -0.6367086891,-1.5361890357 -0.4287079803,-1.5975658007 -0.2037142179,-1.6116465966 C 0.0854592667,-1.6312255858 0.3986307845,-1.5699852275 0.6257329215,-1.4441148204 C 0.8549539651,-1.31976003 0.9929858363,-1.1332421374 0.9913159255,-0.9447797245" />
      <path d="M 0.9913159255,-0.9447797245 C 0.9918946673,-0.8016395221 0.913911377,-0.6590008217 0.7739140604,-0.5446814652" />
      <path d="M 0.7609324757,-0.5342395509 Q 0.7141249846,-0.497353707 0.6596027905,-0.4648221457" />
      <path d="M 0.6055233987,-0.4346280355 L 0.5807223946,-0.4220538891" />
      <path d="M -0.9617404604,-0.6209654674 Q -1.0085382565,-0.6997960257 -1.0086841223,-0.7828726166" />
      <path d="M -1.0086841223,-0.7828726166 C -1.0086841217,-0.7828835784 -1.0086841211,-0.7828945402 -1.0086841204,-0.7829055021 C -1.0097293424,-0.9233195781 -0.9018918382,-1.0626436776 -0.7157583004,-1.1575341863 C -0.5311253566,-1.2533057185 -0.2708130245,-1.3031076855 -0.0086534225,-1.2889880596 C 0.2535062325,-1.2761143277 0.5138118872,-1.1993189277 0.6984334572,-1.0765566756 C 0.8845556954,-0.9546753949 0.9923770426,-0.7883636757 0.9913159256,-0.6209655095" />
      <path d="M 0.9913159256,-0.6209655095 C 0.9918946671,-0.4778253892 0.9139114585,-0.3351866607 0.7739143336,-0.2208673503" />
      <path d="M 0.7609362056,-0.2104281512 Q 0.7244248736,-0.1816506415 0.6831394263,-0.1554824228" />
      <path d="M 0.6055231964,-0.1108136095 L 0.5807209458,-0.0982388621" />
      <path d="M -0.972975087,-0.3173896264 Q -1.0085998844,-0.3868173858 -1.0086841057,-0.4590583794" />
      <path d="M -1.0086841057,-0.4590583794 C -1.0097453213,-0.5994753532 -0.901919674,-0.7388058202 -0.7157907718,-0.8337031857 C -0.5311626318,-0.9294816048 -0.2708486257,-0.9792905934 -0.0086839509,-0.9651753444 C 0.2534807229,-0.9523060945 0.5137948316,-0.8755124583 0.6984228381,-0.7527494158 C 0.8845515941,-0.6308674361 0.9923770581,-0.4645525799 0.9913158962,-0.2971509982" />
      <path d="M 0.9913158962,-0.2971509982 Q 0.9903551976,-0.1366792163 0.8719622972,0.0064247253" />
      <path d="M 0.8543800161,0.0266631273 Q 0.8183316941,0.0664881273 0.7739146842,0.1029467329" />
      <path d="M 0.7609362814,0.1133861516 Q 0.7244249327,0.1421636559 0.6831394531,0.1683318768" />
      <path d="M -0.9729750365,0.0064246828 Q -1.0085998899,-0.0630031409 -1.0086841125,-0.1352441668" />
      <path d="M -1.0086841125,-0.1352441668 C -1.012257982,-0.3290564471 -0.8007662548,-0.5176459342 -0.4800536097,-0.5973454239 C -0.1627103877,-0.6807455951 0.2481627429,-0.6503321832 0.5469371669,-0.5120410159 C 0.8213052141,-0.3892983879 0.9938107951,-0.182951541 0.9913158702,0.026663086" />
      <path d="M 0.9913158702,0.026663086 Q 0.9903552404,0.1871348406 0.8719622693,0.3302390097" />
      <path d="M 0.854379986,0.3504774059 Q 0.818331575,0.3903024938 0.773914506,0.4267611571" />
      <path d="M 0.7609363483,0.4372003852 Q 0.7141267295,0.4740883418 0.6596015708,0.5066215546" />
      <path d="M 0.6055225664,0.5368153524 L 0.5807221717,0.5493891639" />
      <path d="M -0.9729750628,0.3302390217 Q -1.008599899,0.2608112645 -1.0086841177,0.1885703029" />
      <path d="M -1.0086841177,0.1885703029 C -1.0097456449,0.0481424114 -0.9019024303,-0.0911989294 -0.7157474816,-0.186096854 C -0.4396543038,-0.3320244657 0.0106498135,-0.3643584193 0.3740275517,-0.2526117931 C 0.7411849752,-0.1462211272 0.996253446,0.0981306206 0.9913158244,0.3504773435" />
      <path d="M 0.9913158244,0.3504773435 Q 0.9912750388,0.4221288609 0.9664329696,0.4921461302" />
      <path d="M 0.9587019308,0.5123845318 Q 0.9048142466,0.6427937071 0.7739145551,0.7505754325" />
      <path d="M 0.7609365372,0.7610145496 Q 0.7141267609,0.7979026431 0.6596013741,0.830435968" />
      <path d="M 0.6055230454,0.8606293918 L 0.5807216423,0.8732037119" />
      <path d="M -0.6793729471,0.9047705911 L -0.7407523768,0.8736916771" />
      <path d="M -0.7755353308,0.8532665027 L -0.8018036616,0.8361988849" />
      <path d="M -0.830060165,0.8159604851 Q -0.915958799,0.7509209031 -0.9617404251,0.6742918046" />
      <path d="M -0.9729750775,0.6540534023 Q -1.008599896,0.5846255868 -1.0086841108,0.5123845856" />
      <path d="M -1.0086841108,0.5123845856 C -1.0097453062,0.3719676345 -0.9019197905,0.2326373333 -0.7157909639,0.1377398158 C -0.5311628983,0.0419612567 -0.2708488378,-0.0078477479 -0.0086841674,0.0062675662 C 0.253480503,0.0191368824 0.5137945534,0.0959303319 0.6984226481,0.2186933054 C 0.8845515055,0.340575224 0.9923770599,0.50689031 0.9913158552,0.6742917541" />
      <path d="M 0.9913158552,0.6742917541 C 0.9918015136,0.8111371206 0.9207168256,0.9475810562 0.7919226439,1.0591703543" />
      <path d="M -0.8943474162,1.0839064151 Q -1.0078037027,0.9681897028 -1.00868416,0.836198965" />
      <path d="M -1.00868416,0.836198965 C -1.0095105306,0.7046005757 -0.9152471016,0.5737914786 -0.7496250182,0.4798875304 C -0.58522754,0.3853319623 -0.3512769766,0.3288512301 -0.1066707928,0.327848985 C 0.1377734543,0.3258811213 0.3901970483,0.3795463102 0.5870520758,0.4785187618 C 0.784891748,0.5767119003 0.925003514,0.7192720563 0.9721131359,0.8734935593 C 0.9848988196,0.914662 0.9912997522,0.9561995003 0.9913159337,0.9981060604" />
      <path d="M 0.9913159337,0.9981060604 Q 0.9912964597,1.0575840839 0.9741075072,1.1161231179" />
      <path d="M -1.0060750054,1.1213560794 C -0.9889053197,0.9877726971 -0.8734627431,0.859228104 -0.6897673106,0.7724967567 C -0.5072765301,0.6850050855 -0.2586793546,0.6404988301 -0.0086227163,0.6538993256 C 0.4004802579,0.6715600238 0.7935494895,0.8534173622 0.9296986794,1.1008441459" />
      <path d="M 0.5453635687,-5.7431517798 C 0.347833699,-5.8798952319 0.0370227647,-5.9445523648 -0.2326100744,-5.9141241281 C -0.5577474096,-5.8824376369 -0.7974217188,-5.715569496 -0.7921779504,-5.5393554619" />
      <path d="M -0.7882256162,-5.498407953 Q -0.7758834335,-5.4352020647 -0.7274987378,-5.3774562597" />
      <path d="M -0.6873782121,-5.3365111032 Q -0.6035445615,-5.2624800091 -0.4684382683,-5.215546102" />
      <path d="M -0.3054758132,-5.174604007 Q -0.1221482897,-5.1437956186 0.0745211667,-5.1684324428" />
      <path d="M 0.2909769322,-5.2155460774 Q 0.4358453855,-5.2611388974 0.5467458801,-5.3365109825" />
      <path d="M 0.6809558213,-5.9450431349 Q 0.6264072413,-6.0118162415 0.5453635687,-6.0669662941" />
      <path d="M 0.5453635687,-5.4193377339 C 0.4102154739,-5.5118381164 0.2232790564,-5.5732732418 0.031713737,-5.5912883732 C -0.159782888,-5.610086306 -0.3542914601,-5.5854501801 -0.5027502597,-5.5267424047 C -0.6840522217,-5.4565317367 -0.793518082,-5.3368488688 -0.7921710435,-5.2155231416" />
      <path d="M -0.7882285845,-5.1746095495 Q -0.7759017728,-5.1113759252 -0.7274993737,-5.0536436215" />
      <path d="M -0.6873743875,-5.0127004211 Q -0.6036892635,-4.9387405397 -0.4684386436,-4.8917319249" />
      <path d="M 0.2909771859,-4.8917316246 Q 0.4358199838,-4.9373138033 0.5467458461,-5.012696875" />
      <path d="M 0.6010854144,-5.0536390853 Q 0.6684159245,-5.1097072607 0.710943078,-5.1746040748" />
      <path d="M 0.7346685988,-5.2155460486 Q 0.764651672,-5.2747035632 0.7722962128,-5.3365114948" />
      <path d="M 0.5807215067,-5.7175687278 L 0.5453635687,-5.7431517798" />
      <path d="M 0.5453635687,-5.0955236657 C 0.3761291946,-5.2120139149 0.1241568117,-5.2776994496 -0.1141724242,-5.2735160814 C -0.3529398342,-5.2712303877 -0.5731364578,-5.1995550668 -0.6904626231,-5.0918213838 C -0.7576653808,-5.0302954996 -0.7915704313,-4.963598959 -0.7921777745,-4.8917317619" />
      <path d="M -0.7882297444,-4.8507901256 Q -0.7777419022,-4.7968574536 -0.740752983,-4.7466134335" />
      <path d="M -0.305476034,-4.5269754839 Q -0.1222678655,-4.4961669144 0.0745207759,-4.5208038375" />
      <path d="M 0.6055230004,-4.7335515402 Q 0.6698730273,-4.7880977986 0.7109427739,-4.8507899693" />
      <path d="M 0.7346684906,-4.8917315774 Q 0.7646467567,-4.9508734879 0.7722962389,-5.01269721" />
      <path d="M 0.5807223589,-5.3937540419 L 0.5453635687,-5.4193377339" />
      <path d="M 0.5453635687,-4.7717091923 C 0.4318967309,-4.849167996 0.2824427847,-4.905173926 0.1238972836,-4.9315334997 C -0.1859356475,-4.9857628732 -0.5199751647,-4.916716495 -0.6793712638,-4.7776934467" />
      <path d="M -0.6873783339,-4.3650683457 Q -0.6035745959,-4.2910536059 -0.4684383528,-4.2441032309" />
      <path d="M -0.3054767082,-4.2031612777 C -0.1727319242,-4.1805644352 -0.0247010409,-4.1800781157 0.1169772537,-4.2031609059" />
      <path d="M 0.7748095817,-4.7298245204 C 0.7756665807,-4.8638384132 0.6911606476,-4.9971330783 0.5453635687,-5.0955236657" />
      <path d="M 0.5453635687,-4.4478948996 C 0.3958624976,-4.5504391042 0.1824467244,-4.6143428602 -0.0298223366,-4.6243387698 C -0.2421466158,-4.6355064163 -0.4506368373,-4.5928753497 -0.5917964752,-4.513623177 C -0.7199994471,-4.4428644768 -0.7928035539,-4.343817586 -0.792169666,-4.2440819532" />
      <path d="M -0.7882273595,-4.2031738938 Q -0.775901868,-4.1399263038 -0.7274988528,-4.0821984801" />
      <path d="M -0.3054765888,-3.8793467886 L -0.265110841,-3.8732392218" />
      <path d="M 0.0745211001,-3.873175231 L 0.1169810412,-3.8793474908" />
      <path d="M 0.6010837527,-4.082194888 Q 0.6684582582,-4.1383099835 0.7109414471,-4.2031585844" />
      <path d="M 0.7346687258,-4.2441032995 Q 0.7646505141,-4.3032571795 0.772296199,-4.3650685442" />
      <path d="M 0.5807227551,-4.7461252935 L 0.5453635687,-4.7717091923" />
      <path d="M 0.5453635687,-4.1240803808 C 0.4102811975,-4.2165340221 0.2234874424,-4.2779456524 0.032051081,-4.2959986037 C -0.1593170484,-4.3148312549 -0.3537171982,-4.2902936336 -0.5021960405,-4.2317026163 C -0.683837757,-4.1614986296 -0.793539328,-4.0417122568 -0.7921596324,-3.920259415" />
      <path d="M -0.7882175723,-3.8794092142 Q -0.7758882436,-3.8160959571 -0.7275037475,-3.7583811602" />
      <path d="M 0.0745208519,-3.5493609882 L 0.1169768003,-3.5555326006" />
      <path d="M 0.6010819538,-3.7583797046 Q 0.6684171584,-3.8144505367 0.7109427941,-3.8793475252" />
      <path d="M 0.7346685501,-3.9202896376 Q 0.7646456623,-3.9794342111 0.7722933154,-4.0412291834" />
      <path d="M 0.7748096667,-4.0821953385 C 0.7756628899,-4.2162238708 0.6911595001,-4.3495008141 0.5453635687,-4.4478948996" />
      <path d="M 0.5453635687,-3.8002659073 C 0.3736305222,-3.9184298244 0.117562614,-3.9841005009 -0.1239871849,-3.9780909462 C -0.3078893453,-3.9746087252 -0.4812984571,-3.9307977147 -0.6021820131,-3.8600966753 C -0.7239863479,-3.7898338666 -0.7927178147,-3.6934976752 -0.792177778,-3.5964746047" />
      <path d="M -0.7882296405,-3.5555325952 Q -0.7777293679,-3.5015746827 -0.7407527978,-3.4513563177" />
      <path d="M 0.601078178,-3.4345731429 Q 0.6684512195,-3.4906659556 0.7109412507,-3.555535345" />
      <path d="M 0.7346621221,-3.5964874372 Q 0.7646293043,-3.6556423322 0.7722865303,-3.7175181793" />
      <path d="M 0.7748019084,-3.7583709579 C 0.7756529283,-3.8924477145 0.691187299,-4.0256411206 0.5453635687,-4.1240803808" />
      <path d="M 0.5453635687,-3.476451812 C 0.4002333001,-3.5758712558 0.1955596218,-3.6390316643 -0.0104972156,-3.6517905779 C -0.3355038532,-3.6752330572 -0.6464781102,-3.5662601969 -0.7488015502,-3.4063536295" />
      <path d="M -0.7882267368,-3.2317031717 Q -0.7777357255,-3.1777768103 -0.7407529272,-3.1275419132" />
      <path d="M -0.2651102175,-2.9017963565 Q -0.0781769239,-2.8769968526 0.1169778838,-2.9079041337" />
      <path d="M 0.6055226272,-3.1144801911 Q 0.6698441928,-3.1690063562 0.7109337078,-3.2317305199" />
      <path d="M 0.7346624576,-3.2726723127 Q 0.764665769,-3.3318318979 0.7722924733,-3.393655955" />
      <path d="M 0.7747972147,-3.434594 C 0.7756179006,-3.5686885986 0.6911921057,-3.7018048914 0.5453635687,-3.8002659073" />
      <path d="M 0.5453635687,-3.1526376237 C 0.4017739532,-3.2510323027 0.1994768751,-3.3140184438 -0.0043784707,-3.3275683146 C -0.2082243595,-3.3421140793 -0.4114338591,-3.3072600529 -0.5566015181,-3.2365904136 C -0.6040705692,-3.2136410443 -0.6449915673,-3.1876525803 -0.6793645124,-3.1586250215" />
      <path d="M -0.3054755363,-2.5840896725 C -0.172578243,-2.5614765998 -0.0246651828,-2.5610197697 0.1169779772,-2.5840896077" />
      <path d="M 0.290967259,-2.6250285341 Q 0.4358246255,-2.6706149477 0.5467461183,-2.7459969508" />
      <path d="M 0.7748095271,-3.1107532234 C 0.775663149,-3.2447622299 0.6911789587,-3.378045044 0.5453635687,-3.476451812" />
      <path d="M 0.5453635687,-2.8288234508 C 0.3913932161,-2.9345071258 0.1695128904,-2.998971851 -0.0489128702,-3.0060848056 C -0.2674529049,-3.0145123503 -0.4794344661,-2.9657339934 -0.6166324644,-2.8800002693 C -0.6396068008,-2.8657995218 -0.6605204955,-2.8507349608 -0.6793735485,-2.8348065863" />
      <path d="M -0.7882295703,-2.5840890378 Q -0.7758982231,-2.5208618667 -0.7275032948,-2.463124486" />
      <path d="M -0.2651098625,-2.2541678111 Q -0.0781873103,-2.2293687955 0.1169772734,-2.2602753452" />
      <path d="M 0.2909772678,-2.3012171266 Q 0.4358499978,-2.3468124759 0.5467459431,-2.4221825265" />
      <path d="M 0.601085175,-2.4631245407 Q 0.6684265103,-2.5192062203 0.7109426391,-2.5840900356" />
      <path d="M 0.7499857819,-2.6590655665 Q 0.7668620212,-2.7019456553 0.7722910814,-2.7459551301" />
      <path d="M 0.5807222765,-3.1270539847 L 0.5453635687,-3.1526376237" />
      <path d="M 0.5453635687,-2.5050087858 C 0.3565176644,-2.6353795533 0.0651755033,-2.7007592675 -0.1958468459,-2.6793447449 C -0.3956735259,-2.6645112387 -0.5738911446,-2.6010376936 -0.6793732943,-2.5109924523" />
      <path d="M -0.3054766252,-1.9364611408 C -0.1726662383,-1.9138554919 -0.0246469088,-1.9133860607 0.11697731,-1.9364609681" />
      <path d="M 0.2909773319,-1.9774030786 Q 0.4358388455,-2.0230012011 0.5467458716,-2.0983682723" />
      <path d="M 0.6010854055,-2.1393102527 Q 0.6684308036,-2.1953953799 0.7109431396,-2.2602752077" />
      <path d="M 0.7346687206,-2.3012174444 Q 0.7646503264,-2.3603707879 0.7722961959,-2.4221824344" />
      <path d="M 0.7748095156,-2.463124249 C 0.7756472175,-2.597174678 0.6911785789,-2.7304093328 0.5453635687,-2.8288234508" />
      <path d="M 0.5453635687,-2.1811947112 C 0.312973771,-2.3435571619 -0.0773784057,-2.4005007638 -0.3709421448,-2.3290687291 C -0.5003209751,-2.29835226 -0.6031314363,-2.251055361 -0.6793735283,-2.1871780321" />
      <path d="M 0.2909775682,-1.653588939 Q 0.4358808985,-1.6991959421 0.5467460611,-1.7745540641" />
      <path d="M 0.6010850618,-1.8154958139 Q 0.6684465586,-1.8715988216 0.7109431362,-1.9364610057" />
      <path d="M 0.7346686667,-1.9774029664 Q 0.7646513438,-2.0365589614 0.7722961865,-2.0983681306" />
      <path d="M 0.7748095159,-2.1393101248 C 0.7757084844,-2.2732570142 0.691101871,-2.4066912778 0.5453635687,-2.5050087858" />
      <path d="M 0.5453635687,-1.8573804049 C 0.2797937257,-2.0449160517 -0.1925655241,-2.0869196786 -0.4902214865,-1.9695844945 C -0.6112144289,-1.9234099229 -0.6974081207,-1.8626422871 -0.7488025619,-1.7872815873" />
      <path d="M -0.265111326,-1.2827247454 Q -0.0781063316,-1.2579274296 0.1169770847,-1.288832557" />
      <path d="M 0.2909776803,-1.3297745418 Q 0.4358154706,-1.3753535064 0.5467460064,-1.4507394413" />
      <path d="M 0.605523268,-1.4954083745 Q 0.6698652469,-1.5499438348 0.7109428654,-1.6126463774" />
      <path d="M 0.7346686042,-1.653588754 Q 0.7646513682,-1.7127455299 0.7722962202,-1.7745543404" />
      <path d="M 0.7748095594,-1.8154959511 C 0.7756636974,-1.9495184368 0.6911607189,-2.0828025263 0.5453635687,-2.1811947112" />
      <path d="M 0.5453635687,-1.5335658585 C 0.3930933809,-1.6380498564 0.1745168529,-1.7022960221 -0.041558836,-1.7105448556 C -0.2577199046,-1.720052013 -0.4684619494,-1.6736592863 -0.6072786766,-1.5904059355 C -0.6339466214,-1.5745772756 -0.6579781783,-1.5576251264 -0.6793733472,-1.539549488" />
      <path d="M -0.2651002207,-0.9589115844 Q -0.0781209253,-0.934110545 0.1169657932,-0.9650200165" />
      <path d="M 0.290975998,-1.0059606706 Q 0.4358411684,-1.0515505989 0.5467461727,-1.1269251521" />
      <path d="M 0.6010854936,-1.1678671634 Q 0.6684353273,-1.2239573996 0.7109430628,-1.2888326504" />
      <path d="M 0.7346687525,-1.3297755307 L 0.7499854235,-1.3638086297" />
      <path d="M 0.7609360564,-1.3957939878 Q 0.7688858843,-1.4230583575 0.7722890192,-1.4506814777" />
      <path d="M 0.7748095976,-1.4916814301 C 0.7756562962,-1.6257210664 0.6911648253,-1.7589795243 0.5453635687,-1.8573804049" />
      <path d="M 0.5453635687,-1.2097519606 C 0.4010970331,-1.3085752852 0.1980076339,-1.371589359 -0.00684104,-1.3848499297 C -0.2767796764,-1.4042867199 -0.5416875103,-1.3345258254 -0.6793739474,-1.2157349211" />
      <path d="M -0.7488013454,-1.1396536587 Q -0.7920159737,-1.0749463641 -0.7921777887,-1.0059600105" />
      <path d="M -0.6873780919,-0.8031110091 Q -0.6034631853,-0.7290342093 -0.4684383187,-0.6821459234" />
      <path d="M -0.2651101003,-0.6350962862 Q -0.0782816327,-0.6102959491 0.1169779002,-0.6412039684" />
      <path d="M 0.290977264,-0.682145752 Q 0.4358861201,-0.7277607299 0.5467473146,-0.8031101773" />
      <path d="M 0.6010835817,-0.8440539996 Q 0.6684056183,-0.9001295386 0.710937343,-0.9650268268" />
      <path d="M 0.7346666678,-1.0059638133 Q 0.764649248,-1.0651019752 0.7722957615,-1.1269288665" />
      <path d="M 0.7748088539,-1.167867108 Q 0.7740524016,-1.2965996347 0.6809551892,-1.4116433682" />
      <path d="M 0.5807200974,-1.5079835768 L 0.5453635687,-1.5335658585" />
      <path d="M 0.5453635687,-0.8859375605 C 0.3926440117,-0.9907426466 0.1731382993,-1.0550627815 -0.0435894953,-1.0629982783 C -0.2604125041,-1.0722077024 -0.4714769056,-1.025167801 -0.6098650858,-0.9412346293 C -0.7269501527,-0.8714136388 -0.7926862997,-0.7770475517 -0.7921762928,-0.6821484614" />
      <path d="M -0.6873779235,-0.4792970432 Q -0.6035526865,-0.4052791037 -0.4684379012,-0.3583316371" />
      <path d="M -0.3054772076,-0.3173896474 Q -0.1220947502,-0.2865789867 0.0745216111,-0.3112178958" />
      <path d="M 0.2909769407,-0.358331551 Q 0.4358101337,-0.4039083565 0.5467461697,-0.4792968735" />
      <path d="M 0.6010856437,-0.520239072 Q 0.668428135,-0.5763202006 0.7109429262,-0.6412037403" />
      <path d="M 0.7346688653,-0.6821464834 Q 0.7646508789,-0.7413011851 0.7722961781,-0.8031110111" />
      <path d="M 0.7748095256,-0.8440530343 C 0.7756652662,-0.9780792853 0.691150589,-1.1113676818 0.5453635687,-1.2097519606" />
      <path d="M 0.5453635687,-0.5621231404 C 0.3763615436,-0.6784507707 0.1248216368,-0.7441365535 -0.1132405462,-0.7401281355 C -0.3517358669,-0.7380083933 -0.571852316,-0.6666836195 -0.6895382025,-0.5592538163 C -0.7573383616,-0.4975349056 -0.7915515532,-0.4305607583 -0.792177777,-0.3583313742" />
      <path d="M -0.7882296576,-0.3173893833 Q -0.7758877919,-0.2541409251 -0.7275031703,-0.1964244999" />
      <path d="M -0.6873777953,-0.1554823707 Q -0.6035770987,-0.0814694054 -0.4684383308,-0.0345171374" />
      <path d="M 0.2909770511,-0.0345177989 Q 0.4358506431,-0.0801142597 0.5467465042,-0.155482167" />
      <path d="M 0.6055236736,-0.200150964 Q 0.6698672948,-0.2546900755 0.7109425058,-0.317390353" />
      <path d="M 0.7346652997,-0.3583265237 Q 0.7646439216,-0.4174666488 0.7722927978,-0.479273549" />
      <path d="M 0.7748089096,-0.5202387267 C 0.7756465603,-0.6543051823 0.6911660303,-0.7875296014 0.5453635687,-0.8859375605" />
      <path d="M 0.5453635687,-0.2383086744 C 0.4322174603,-0.3155445007 0.2833255177,-0.3714494795 0.1252488403,-0.3979059506 C -0.2251459809,-0.4605773759 -0.6021478668,-0.3618879844 -0.7326540501,-0.1901555066 C -0.7721283803,-0.1405835003 -0.7919695948,-0.0887041133 -0.7921776935,-0.0345173456" />
      <path d="M -0.7882283762,0.0064310251 Q -0.7777381314,0.0603633498 -0.7407528871,0.1106010289" />
      <path d="M -0.2651112535,0.336346707 Q -0.0781347462,0.3611458893 0.1169760115,0.3302391682" />
      <path d="M 0.6055201801,0.123661497 Q 0.6698808602,0.0691110836 0.7109428876,0.0064244954" />
      <path d="M 0.7346666772,-0.0345208922 Q 0.7646382978,-0.0936646142 0.7722932861,-0.1555057392" />
      <path d="M 0.7748086445,-0.1964228166 C 0.7756189388,-0.3305074815 0.691173835,-0.4637204143 0.5453635687,-0.5621231404" />
      <path d="M 0.5453635687,0.085505528 C 0.4062757962,-0.0096964295 0.2126935509,-0.071807397 0.0153403329,-0.0879189399 C -0.2620770214,-0.1126155824 -0.5381630297,-0.0425706174 -0.6793722999,0.0795215205" />
      <path d="M -0.6873782608,0.4921462315 Q -0.6035436169,0.5661792089 -0.4684382925,0.613111265" />
      <path d="M -0.2651105998,0.6601609198 Q -0.0995100967,0.6821942953 0.0745213078,0.6602249547" />
      <path d="M 0.2909773022,0.6131111982 Q 0.4358586599,0.5675115103 0.5467459037,0.4921462297" />
      <path d="M 0.6010854894,0.451204239 Q 0.6684254001,0.3951248041 0.7109431027,0.3302389701" />
      <path d="M 0.7346685946,0.2892968435 L 0.7499856764,0.2552629964" />
      <path d="M 0.7609362753,0.223277614 Q 0.7688945298,0.1959839318 0.772296254,0.1683324884" />
      <path d="M 0.7748097242,0.1273897148 C 0.7756816916,-0.0065959279 0.6911439837,-0.1399414143 0.5453635687,-0.2383086744" />
      <path d="M 0.5453635687,0.4093196256 C 0.3875143284,0.3009387483 0.1586284975,0.2361449035 -0.0650900915,0.2315787595 C -0.314864776,0.2247116632 -0.5515390098,0.2934480032 -0.6793731426,0.4033361968" />
      <path d="M -0.7488015088,0.4794179428 Q -0.7920279945,0.5441601547 -0.7921777137,0.6131113606" />
      <path d="M -0.7882296453,0.6540533125 Q -0.7758915774,0.717294278 -0.7275033649,0.7750185431" />
      <path d="M -0.6873782914,0.8159605046 Q -0.6035240445,0.8900030698 -0.4684389417,0.9369256856" />
      <path d="M 0.2909770387,0.9369258548 Q 0.4357189361,0.891394299 0.546745772,0.8159606162" />
      <path d="M 0.6010851866,0.7750184881 Q 0.6684521381,0.7189093395 0.7109429817,0.6540534359" />
      <path d="M 0.7346685504,0.6131114167 Q 0.7646513307,0.5539553054 0.7722961989,0.4921459362" />
      <path d="M 0.7748095186,0.4512041295 Q 0.7740830233,0.3225580561 0.6809563766,0.2074288394" />
      <path d="M 0.5807217684,0.1110887365 L 0.5453635687,0.085505528" />
      <path d="M 0.5453635687,0.7331338801 C 0.3975861327,0.6317971264 0.1873985767,0.5681381432 -0.0224341456,0.5570796287 C -0.2323054075,0.5449026689 -0.4393004405,0.5852094788 -0.5817925793,0.6619592595 C -0.7160317096,0.7329926617 -0.7929172923,0.8347085509 -0.7921777671,0.9369255142" />
      <path d="M -0.7882292829,0.9778694697 Q -0.7814110504,1.0130713461 -0.7630908474,1.047004965" />
      <path d="M 0.6721031408,1.0293713915 Q 0.6936891048,1.0042570241 0.710943036,0.9778675403" />
      <path d="M 0.7346685203,0.9369255976 Q 0.7646516555,0.8777680065 0.7722962839,0.8159595933" />
      <path d="M 0.7748095659,0.7750185318 C 0.7756629962,0.6409997144 0.6911671901,0.5077173112 0.5453635687,0.4093196256" />
      <path d="M 0.4123943421,0.9830473779 C 0.2704855391,0.918596812 0.0986333788,0.882302758 -0.0694501034,0.8791118885 C -0.2909548717,0.8739813861 -0.5026576153,0.9276214136 -0.6351142802,1.0176786252" />
      <path d="M 0.7717618185,1.0537547515 C 0.7562182155,0.9351708011 0.6745688216,0.8205422486 0.5453635687,0.7331338801" />
      <path d="M 0.5453640881,-6.0669656811 L 0.6984661309,-6.2575639424" />
      <line x1="0.5453635687" y1="0.7331338801" x2="0.5453635687" y2="0.8150182885" />
      <line x1="0.5453635687" y1="0.4093196256" x2="0.5453635687" y2="0.491203815" />
      <line x1="0.5453635687" y1="0.085505528" x2="0.5453635687" y2="0.094397232" />
      <line x1="0.5453635687" y1="0.1348740193" x2="0.5453635687" y2="0.1673895224" />
      <line x1="0.5453635687" y1="-0.2383086744" x2="0.5453635687" y2="-0.1564249965" />
      <line x1="0.5453635687" y1="-0.5621231404" x2="0.5453635687" y2="-0.4802394699" />
      <line x1="0.5453635687" y1="-0.8859375605" x2="0.5453635687" y2="-0.8040535653" />
      <line x1="0.5453635687" y1="-1.2097519606" x2="0.5453635687" y2="-1.1278677535" />
      <line x1="0.5453635687" y1="-1.5335658585" x2="0.5453635687" y2="-1.5246742674" />
      <line x1="0.5453635687" y1="-1.4841974801" x2="0.5453635687" y2="-1.4516819264" />
      <line x1="0.5453635687" y1="-1.8573804049" x2="0.5453635687" y2="-1.7754965915" />
      <line x1="0.5453635687" y1="-2.1811947112" x2="0.5453635687" y2="-2.099310666" />
      <line x1="0.5453635687" y1="-2.5050087858" x2="0.5453635687" y2="-2.4231249723" />
      <line x1="0.5453635687" y1="-2.8288234508" x2="0.5453635687" y2="-2.7469395187" />
      <line x1="0.5453635687" y1="-3.1526376237" x2="0.5453635687" y2="-3.1437457466" />
      <line x1="0.5453635687" y1="-3.476451812" x2="0.5453635687" y2="-3.3945678168" />
      <line x1="0.5453635687" y1="-3.8002659073" x2="0.5453635687" y2="-3.7183822368" />
      <line x1="0.5453635687" y1="-4.1240803808" x2="0.5453635687" y2="-4.0421967028" />
      <line x1="0.5453635687" y1="-4.4478948996" x2="0.5453635687" y2="-4.3660109052" />
      <line x1="0.5453635687" y1="-4.7717091923" x2="0.5453635687" y2="-4.7628172896" />
      <line x1="0.5453635687" y1="-5.0955236657" x2="0.5453635687" y2="-5.0866315632" />
      <line x1="0.5453635687" y1="-5.4193377339" x2="0.5453635687" y2="-5.3699690574" />
      <line x1="0.5453635687" y1="-5.7431517798" x2="0.5453635687" y2="-5.6612678524" />
      <line x1="0.5453635687" y1="-6.066965986" x2="0.5453635687" y2="-5.985082427" />
      <path d="M -0.5070511021,-6.2733970915 C -0.5041241871,-6.2738036503 -0.4943067301,-6.2757434658 -0.477598731,-6.279216538 C -0.4702739371,-6.2809487067 -0.4512023281,-6.2846371696 -0.4203839041,-6.2902819266 C -0.3758257717,-6.2982121495 -0.3097640756,-6.3060961388 -0.2458154491,-6.3076042845 C 0.0259491186,-6.3173239751 0.3445972447,-6.2297825065 0.5453635687,-6.0669660949" />
      <path d="M -0.5070511021,-6.2733970915 L -0.5070511021,-6.3138738788" />
      <path d="M -0.5070511021,-6.3138738788 C -0.5041200575,-6.3160625937 -0.4943373324,-6.321512063 -0.4777029267,-6.3302222868 C -0.4712603189,-6.3336757656 -0.4588081624,-6.3394579405 -0.440346457,-6.3475688114 C -0.4206337067,-6.3563160004 -0.3935650006,-6.3663522341 -0.3591403389,-6.3776775126 C -0.1936072773,-6.4311516127 0.011602146,-6.4474603766 0.194952123,-6.4209595768" />
      <path d="M 0.7720536249,-5.9860679966 A 0.7834936490538903,0.4599660775649211 0.0 0,1 0.7584602683,-5.9311386032" />
      <path d="M 0.5136260715,-5.6817650093 A 0.7834936490538903,0.4599660775649211 0.0 0,1 0.1510785887,-5.5743114482" />
      <path d="M -0.254213665,-5.5878165012 A 0.7834936490538903,0.4599660775649211 0.0 0,1 -0.599600861,-5.7225830173" />
      <path d="M -0.6573531915,-5.7666423158 A 0.7834936490538903,0.4599660775649211 0.0 0,1 -0.7607407699,-5.8956273108" />
      <path d="M -0.7921777714,-6.0246134084 A 0.7834936490538903,0.4599660775649211 0.0 0,1 0.5302057407,-6.3585012645" />
      <path d="M 0.6984661309,-6.2980407298 Q 0.5137214559,-6.3781829814 0.2964849416,-6.4071097838" />
      <path d="M 0.2964849416,-6.4071097838 C 0.0087512052,-6.446000766 -0.2902157341,-6.4067757976 -0.5070511021,-6.3138738788" />
      <path d="M 0.6984661309,-6.2575639424 C 0.498807775,-6.3454901426 0.251067621,-6.3885417581 0.0164393777,-6.3806868057 C -0.1768930964,-6.3747917668 -0.3599429544,-6.3358712757 -0.5070511021,-6.2733970915" />
      <path d="M -0.0886530957,4.0425902852 A 0.42408819458648656,0.24896970593327447 -1.964431278519113e-15 0,1 0.4552511867,3.9570523881" />
      <path d="M -0.3342770513,4.0039428962 A 0.13400000000000004,0.07866745884682984 -180.0 0,0 -0.0886530957,4.0425902852" />
      <path d="M -0.7324116199,3.7701810937 A 0.42408819458648656,0.2489697059332745 -1.227769549074446e-15 0,1 -0.3342770513,4.0039428962" />
      <path d="M -0.7982123603,3.6259777483 A 0.13400000000000004,0.07866745884682984 -180.0 0,0 -0.858446935,3.6916527188" />
      <path d="M -0.858446935,3.6916527188 A 0.13400000000000004,0.07866745884682984 -180.0 0,0 -0.7324116199,3.7701810937" />
      <path d="M -0.6524426465,3.3066780487 A 0.42408819458648656,0.2489697059332745 -1.964431278519113e-15 0,1 -0.6075797331,3.4181271539" />
      <path d="M -0.6075797331,3.4181271539 A 0.42408819458648656,0.2489697059332745 -1.964431278519113e-15 0,1 -0.7982123603,3.6259777483" />
      <path d="M -0.4726194314,3.2011220923 A 0.13400000000000004,0.07866745884682984 -180.0 0,0 -0.6666180715,3.2714632507" />
      <path d="M -0.6666180715,3.2714632507 A 0.13400000000000004,0.07866745884682984 -180.0 0,0 -0.6524426465,3.3066780487" />
      <path d="M 0.071284851,3.1155841952 A 0.42408819458648656,0.2489697059332745 0.0 0,1 -0.4726194314,3.2011220923" />
      <path d="M 0.3169088066,3.1542315842 A 0.13400000000000004,0.07866745884682982 180.0 0,0 0.071284851,3.1155841952" />
      <path d="M 0.7150433752,3.3879933866 A 0.42408819458648656,0.2489697059332745 -4.911078196297784e-16 0,1 0.3169088066,3.1542315842" />
      <path d="M 0.7808441156,3.5321967321 A 0.13400000000000004,0.07866745884682984 180.0 0,0 0.8410786903,3.4665217616" />
      <path d="M 0.8410786903,3.4665217616 A 0.13400000000000004,0.07866745884682984 180.0 0,0 0.7150433752,3.3879933866" />
      <path d="M 0.6350744019,3.8514964317 A 0.42408819458648656,0.2489697059332745 0.0 0,1 0.5902114885,3.7400473264" />
      <path d="M 0.5902114885,3.7400473264 A 0.42408819458648656,0.2489697059332745 0.0 0,1 0.7808441156,3.5321967321" />
      <path d="M 0.4552511867,3.9570523881 A 0.13400000000000004,0.07866745884682984 -180.0 0,0 0.6492498269,3.8867112296" />
      <path d="M 0.6492498269,3.8867112296 A 0.13400000000000004,0.07866745884682984 -180.0 0,0 0.6350744019,3.8514964317" />
      <path d="M 0.0879825673,3.1035131437 A 0.42408819458648656,0.24896970593327447 -1.964431278519113e-15 0,1 0.214835877,3.0824620114" />
      <line x1="-0.3342770513" y1="4.0039428962" x2="-0.3342770513" y2="3.225627759" />
      <path d="M -0.2322041217,3.2256999356 A 0.13400000000000004,0.07866745884682984 -180.0 0,0 -0.1053508119,3.2046488033" />
      <line x1="0.7808441156" y1="3.5321967321" x2="0.7808441156" y2="3.4008467912" />
      <path d="M 1.2415125199,2.5588689226 A 1.7679364884975284,1.0379035145722992 0.0 0,1 1.7556904267,3.3585835718" />
      <path d="M -1.7730586714,3.3585835718 A 1.7679364884975284,1.0379035145722992 0.0 0,1 1.2415125199,2.5588689226" />
      <path d="M 0.9685345487,3.0054613525 A 1.3819110429869772,0.811279329135505 0.0 0,1 -0.9859027934,4.1527131279 A 1.3819110429869772,0.811279329135505 0.0 0,1 0.9685345487,3.0054613525" />
      <line x1="-0.0886530957" y1="4.0425902852" x2="-0.0886530957" y2="3.1998718874" />
      <line x1="0.4552511867" y1="3.9570523881" x2="0.4552511867" y2="3.3238323448" />
      <line x1="-0.7324116199" y1="3.7701810937" x2="-0.7324116199" y2="3.5945381626" />
      <line x1="-0.6524426465" y1="3.3066780487" x2="-0.6524426465" y2="3.2362484528" />
      <line x1="1.7556904267" y1="3.3585835718" x2="1.8874878641" y2="2.1415141836" />
      <line x1="-1.7730586714" y1="3.3585835718" x2="-1.9048561087" y2="2.1415141836" />
      <path d="M 0.991315873,-5.8019942198 L 0.991315873,-5.8424710071" />
      <path d="M -1.0086841148,-5.6400871316 L -1.0086841148,-5.6805639189" />
      <path d="M 0.9913158679,-5.4781801196 L 0.9913158679,-5.518656907" />
      <path d="M -1.0086841409,-5.3162726484 L -1.0086841409,-5.3567494357" />
      <path d="M 0.9913158611,-5.1543657226 L 0.9913158611,-5.1948425099" />
      <path d="M -1.0086841702,-4.9924585352 L -1.0086841702,-5.0329353225" />
      <path d="M 0.9913158777,-4.8305513481 L 0.9913158777,-4.8710281354" />
      <path d="M -1.0086841702,-4.66864416 L -1.0086841702,-4.7091209473" />
      <path d="M 0.9913158611,-4.5067369726 L 0.9913158611,-4.5472137599" />
      <path d="M -1.0086841409,-4.3448300467 L -1.0086841409,-4.385306834" />
      <path d="M 0.9913158679,-4.1829225755 L 0.9913158679,-4.2233993628" />
      <path d="M -1.0086841148,-4.0210155636 L -1.0086841148,-4.0614923509" />
      <path d="M 0.991315873,-3.8591084753 L 0.991315873,-3.8995852626" />
      <path d="M -1.008684069,-3.6972012323 L -1.008684069,-3.7376780197" />
      <path d="M 0.9913158661,-3.5352941713 L 0.9913158661,-3.5757709587" />
      <path d="M -1.0086840999,-3.3733870339 L -1.0086840999,-3.4138638212" />
      <path d="M 0.9913159153,-3.2114799651 L 0.9913159153,-3.2519567524" />
      <path d="M -1.0086841783,-3.0495727284 L -1.0086841783,-3.0900495157" />
      <path d="M 0.9913158956,-2.8876656855 L 0.9913158956,-2.9281424728" />
      <path d="M -1.0086841403,-2.7257585168 L -1.0086841403,-2.7662353041" />
      <path d="M 0.9913159337,-2.5638512942 L 0.9913159337,-2.6043280815" />
      <path d="M -1.0086841599,-2.4019441991 L -1.0086841599,-2.4424209864" />
      <path d="M 0.9913158552,-2.2400369883 L 0.9913158552,-2.2805137756" />
      <path d="M -1.0086841108,-2.0781298196 L -1.0086841108,-2.1186066069" />
      <path d="M 0.9913158244,-1.9162225777 L 0.9913158244,-1.956699365" />
      <path d="M -1.0086841176,-1.754315537 L -1.0086841176,-1.7947923243" />
      <path d="M 0.9913158702,-1.59240832 L 0.9913158702,-1.6328851074" />
      <path d="M -1.0086841126,-1.4305010673 L -1.0086841126,-1.4709778546" />
      <path d="M 0.9913158963,-1.268594236 L 0.9913158963,-1.3090710233" />
      <path d="M -1.0086841058,-1.1066868547 L -1.0086841058,-1.147163642" />
      <path d="M 0.9913159255,-0.9447797245 L 0.9913159255,-0.9852565118" />
      <path d="M -1.0086841223,-0.7828726166 L -1.0086841223,-0.8233494039" />
      <path d="M 0.9913159256,-0.6209655095 L 0.9913159256,-0.6614422968" />
      <path d="M -1.0086841057,-0.4590583794 L -1.0086841057,-0.4995351667" />
      <path d="M 0.9913158962,-0.2971509982 L 0.9913158962,-0.3376277855" />
      <path d="M -1.0086841125,-0.1352441668 L -1.0086841125,-0.1757209541" />
      <path d="M 0.9913158702,0.026663086 L 0.9913158702,-0.0138137013" />
      <path d="M -1.0086841177,0.1885703029 L -1.0086841177,0.1480935156" />
      <path d="M 0.9913158244,0.3504773435 L 0.9913158244,0.3100005562" />
      <path d="M -1.0086841108,0.5123845856 L -1.0086841108,0.4719077983" />
      <path d="M 0.9913158552,0.6742917541 L 0.9913158552,0.6338149668" />
      <path d="M -1.00868416,0.836198965 L -1.00868416,0.7957221777" />
      <path d="M 0.9913159337,0.9981060604 L 0.9913159337,0.9576292731" />
      <path d="M -1.0086841403,1.1223024976 L -1.0086841403,1.1195364953" />
      <path d="M 1.7556904267,3.3585835718 C 1.7235997735,3.6711813729 1.5131633525,3.9667010235 1.1776793759,4.1654974387 C 0.7297586366,4.438357798 0.0530188114,4.5332162718 -0.5317656661,4.4130174403 C -0.9229003411,4.3352039282 -1.266281662,4.1664254183 -1.4879014119,3.9364248303 C -1.652158873,3.767577281 -1.7509483442,3.5659513984 -1.7730586714,3.3585835718" />
      <line x1="-0.7921777714" y1="1.0188095033" x2="-0.7921777714" y2="0.9369255087" />
      <line x1="0.7748095267" y1="0.8569023117" x2="0.7748095267" y2="0.7750185366" />
      <line x1="-0.7921777714" y1="0.6949954061" x2="-0.7921777714" y2="0.6131112385" />
      <line x1="0.7748095267" y1="0.5330881147" x2="0.7748095267" y2="0.4512041174" />
      <line x1="0.7748095267" y1="0.2092739244" x2="0.7748095267" y2="0.1273897118" />
      <line x1="-0.7921777714" y1="0.0473670235" x2="-0.7921777714" y2="-0.0345173245" />
      <line x1="0.7748095267" y1="-0.1145402482" x2="0.7748095267" y2="-0.1964241874" />
      <line x1="-0.7921777714" y1="-0.2764474446" x2="-0.7921777714" y2="-0.3583313709" />
      <line x1="0.7748095267" y1="-0.4383549094" x2="0.7748095267" y2="-0.5202387285" />
      <line x1="0.7748095267" y1="-0.7621689889" x2="0.7748095267" y2="-0.8440530332" />
      <line x1="0.7748095267" y1="-1.085983294" x2="0.7748095267" y2="-1.1678671204" />
      <line x1="0.7748095267" y1="-1.4097976402" x2="0.7748095267" y2="-1.4916817724" />
      <line x1="0.7748095267" y1="-1.7336117362" x2="0.7748095267" y2="-1.8154959461" />
      <line x1="0.7748095267" y1="-2.0574261389" x2="0.7748095267" y2="-2.1393101355" />
      <line x1="0.7748095267" y1="-2.3812405572" x2="0.7748095267" y2="-2.4631242298" />
      <line x1="0.7748095267" y1="-3.0288692284" x2="0.7748095267" y2="-3.1107532217" />
      <line x1="-0.7921777714" y1="-3.1907765043" x2="-0.7921777714" y2="-3.2726601931" />
      <line x1="0.7748095267" y1="-3.3526833251" x2="0.7748095267" y2="-3.4345675334" />
      <line x1="-0.7921777714" y1="-3.5145906178" x2="-0.7921777714" y2="-3.5964746126" />
      <line x1="0.7748095267" y1="-3.6764975715" x2="0.7748095267" y2="-3.7583819783" />
      <line x1="-0.7921777714" y1="-3.8384048061" x2="-0.7921777714" y2="-3.920288938" />
      <line x1="0.7748095267" y1="-4.0003117389" x2="0.7748095267" y2="-4.0821960539" />
      <line x1="-0.7921777714" y1="-4.1622189822" x2="-0.7921777714" y2="-4.2441029484" />
      <line x1="0.7748095267" y1="-4.6479407496" x2="0.7748095267" y2="-4.7298245175" />
      <line x1="-0.7921777714" y1="-4.8098477182" x2="-0.7921777714" y2="-4.8917317637" />
      <line x1="0.7748095267" y1="-4.9717549795" x2="0.7748095267" y2="-5.0536387335" />
      <line x1="-0.7921777714" y1="-5.1336620244" x2="-0.7921777714" y2="-5.2155460115" />
      <line x1="-0.7921777714" y1="-5.4574765345" x2="-0.7921777714" y2="-5.5393604984" />
      <line x1="-0.7921777714" y1="-5.7812904704" x2="-0.7921777714" y2="-6.0246134084" />
      <path d="M 0.1949521214,-6.4209595769 L 0.2964849416,-6.4071097838" />
      <line x1="-0.6075797331" y1="3.2062567803" x2="-0.6075797331" y2="3.4181271539" />
      <line x1="0.5902114885" y1="3.3723312739" x2="0.5902114885" y2="3.7400473264" />
    </g>
  </g>
</svg>