<?xml version='1.0' encoding='utf-8'?>
<svg width="201.4390072125mm" height="512.9999999991mm" viewBox="-2.258755435 -4.7570724016 4.5224507199 11.5172192884" version="1.1" xmlns="http://www.w3.org/2000/svg">
  <g transform="scale(1,-1)" stroke-linecap="round">
    <g fill="none" stroke="rgb(64,192,64)" stroke-width="0.022450719860469533" id="Visible">
      <path d="M 1.5934323957,1.0079895828 A 2.25,1.319544631058906 -1.963365736521791e-15 0,1 2.2479510302,2.0246531884" />
      <path d="M -2.2430111803,2.0246531884 A 2.25,1.319544631058906 -1.963365736521791e-15 0,1 1.5934323957,1.0079895828" />
      <path d="M 0.5208264644,0.6570151884 C 0.1903444072,0.5152116479 -0.2573539821,0.5019268858 -0.5732553365,0.6121048966 C -0.6460085304,0.6368099142 -0.7109771484,0.6665517608 -0.7681611905,0.7013304364" />
      <path d="M 0.9966506923,0.7573212094 C 0.964261934,0.6227787998 0.8637721352,0.4948148159 0.7141112247,0.3952609418" />
      <path d="M 0.7141112247,0.3952609418 C 0.5031412827,0.2528790809 0.1933896536,0.1714923619 -0.1048056508,0.173999737 C -0.3252311729,0.1747636892 -0.5369358853,0.2199750032 -0.6960664005,0.2976530513 C -0.8559890033,0.3748499282 -0.9625323047,0.4840206751 -0.9936401004,0.599950229 C -1.0005142729,0.625127181 -1.0039543873,0.6504589433 -1.0039604437,0.6759455158" />
      <path d="M 1.0089002874,0.4937011402 C 1.0100025071,0.3238376939 0.9014258985,0.1549069436 0.7141112247,0.0307723054" />
      <path d="M 0.7141112247,0.0307723054 C 0.5505174199,-0.0790877631 0.3280646487,-0.1538415537 0.0970459085,-0.1795853465 C -0.1338443395,-0.2061298391 -0.3719384399,-0.1836284233 -0.5634225502,-0.1201557614 C -0.5666529829,-0.1190773564 -0.5698834156,-0.1179989514 -0.5731138482,-0.1169205464" />
      <path d="M 0.653008479,0.6299208914 Q 0.7590086166,0.5692232582 0.8368291606,0.4937013516" />
      <path d="M 0.7141112247,-0.3337165112 C 0.4621193179,-0.504999417 0.0667845483,-0.5852399602 -0.2778353229,-0.5451641547 C -0.6281695488,-0.5086433261 -0.9098572131,-0.3518549335 -0.9819743348,-0.1635823556 C -0.996610442,-0.1271833964 -1.0039391402,-0.0903332648 -1.0039604294,-0.0530319606" />
      <path d="M -0.0307535113,0.447674816 C 0.1788666492,0.4399060117 0.3899786163,0.3922965646 0.5637217421,0.3114595954" />
      <path d="M 0.7141112247,-0.698205353 C 0.5303273524,-0.8218950765 0.2715350758,-0.9005251725 0.0106587055,-0.9161425627 C -0.2502030933,-0.9330410719 -0.5106711768,-0.8870097268 -0.6974833765,-0.7951241363 C -0.8918647295,-0.7011782845 -1.0050902008,-0.5600477218 -1.0039489831,-0.4175445782" />
      <path d="M -1.0039489831,-0.4175445782 Q -1.003897159,-0.3481417515 -0.9703512285,-0.2813108028" />
      <path d="M -0.9428279587,-0.2352847413 Q -0.8909954554,-0.1609251824 -0.8002564,-0.0990575428" />
      <path d="M -0.0307398717,0.0831854821 C 0.178753795,0.0754271882 0.3899638869,0.0278259592 0.5637346886,-0.0530320967" />
      <path d="M 0.7141112247,-1.0626941638 C 0.5349916393,-1.1831759127 0.284811828,-1.2610288462 0.03068709,-1.2792642355 C -0.2233816481,-1.2986558241 -0.4792163793,-1.2584480454 -0.6681663431,-1.1732965312 C -0.8800034444,-1.0796302171 -1.0053365577,-0.9316106979 -1.0039589905,-0.7820074876" />
      <path d="M -1.0039589905,-0.7820074876 Q -1.0038686357,-0.7126145652 -0.9703522731,-0.6457975757" />
      <path d="M -0.9428338019,-0.5997660173 Q -0.8910334633,-0.5254489953 -0.8002519767,-0.4635515563" />
      <path d="M 0.4201092967,-1.5675689065 C 0.0462225573,-1.6949019018 -0.4305692817,-1.6666253362 -0.7160602047,-1.5147880442 C -0.899217606,-1.4211243345 -1.0050034006,-1.2842833744 -1.0039604281,-1.146498474" />
      <path d="M -1.0039604281,-1.146498474 Q -1.0038891899,-1.0771230343 -0.9703549982,-1.0102808598" />
      <path d="M -0.9428331352,-0.9642531344 Q -0.8909897609,-0.889897786 -0.8002580534,-0.8280362398" />
      <path d="M -0.7233498652,-0.7820078959 C -0.5745839448,-0.7031720724 -0.3744183551,-0.6537322806 -0.1618646949,-0.6457922457" />
      <path d="M -0.0307418003,-0.6457922253 C 0.1788386545,-0.6535634054 0.3899397074,-0.7011492871 0.5637348867,-0.7820095222" />
      <path d="M 0.4201180942,-1.9320556652 C 0.1036840572,-2.0387509058 -0.2884665085,-2.03793077 -0.5731163938,-1.9393637806" />
      <path d="M -1.0039604396,-1.510987288 Q -1.0038853422,-1.4415931212 -0.9703549839,-1.3747696638" />
      <path d="M -0.9428337445,-1.3287428299 Q -0.8910168575,-1.254412325 -0.800257757,-1.1925252432" />
      <path d="M -0.0307399441,-1.0102809137 C 0.1787489575,-1.0180362826 0.3899898183,-1.0656492098 0.5637343388,-1.1464985459" />
      <path d="M 0.4201183978,-2.29654429 C 0.1243556394,-2.3959436149 -0.2376793867,-2.4026321603 -0.5160262404,-2.3216291982 C -0.8147973109,-2.2382613039 -1.006965052,-2.0589694846 -1.0039604321,-1.8754760927" />
      <path d="M -1.0039604321,-1.8754760927 Q -1.0039296872,-1.8196538445 -0.9820680728,-1.765165555" />
      <path d="M 0.9034339063,-1.767886508 Q 0.9432787262,-1.8199879316 0.9684084955,-1.8754797111" />
      <path d="M 1.008853029,-2.05144008 L 1.0089001244,-2.0577206354" />
      <path d="M 1.0089001244,-2.0577206354 C 1.0099431446,-2.2276858534 0.9014578269,-2.3964689573 0.7141112247,-2.5206493732" />
      <path d="M -0.5731158762,-2.6683414683 C -0.8400050574,-2.5794648365 -1.0062473452,-2.4112744794 -1.0039604321,-2.2399649174" />
      <path d="M 1.0089002758,-2.4222092192 C 1.0100307149,-2.5920141701 0.9014036806,-2.7610378685 0.7141112247,-2.8851381224" />
      <path d="M 0.7141112247,-2.8851381224 Q 0.5853510194,-2.9707793712 0.4200835786,-3.0255308976" />
      <path d="M -1.003960433,-2.6044536445 Q -1.0039288003,-2.5486246774 -0.9820701747,-2.4941415288" />
      <path d="M -0.7233487142,-2.2399649081 C -0.5745014273,-2.1610905033 -0.3744021866,-2.1116821821 -0.1618617257,-2.1037475175" />
      <path d="M 0.880190814,-2.4682329109 Q 0.9361870726,-2.5333839443 0.9684101245,-2.6044535861" />
      <path d="M 1.0059812206,-2.7373572698 L 1.0089002809,-2.7866979876" />
      <path d="M 0.6530123577,-2.6504804139 Q 0.7590280904,-2.7111890029 0.8368288071,-2.7866980158" />
      <path d="M 1.0089002837,-3.151186819 C 1.009939455,-3.3212196783 0.9014370756,-3.4899262345 0.7141112247,-3.61411564" />
      <path d="M 0.7141112247,-3.61411564 C 0.503037819,-3.7565754939 0.1930691593,-3.837961986 -0.105273027,-3.8353747224 C -0.2759215526,-3.8338918669 -0.4318689206,-3.809369676 -0.5731151312,-3.7618081496" />
      <path d="M -1.0039604312,-3.3334311937 Q -1.0039544788,-3.2966356961 -0.9943884851,-3.2602275053" />
      <path d="M 0.880193579,-3.197213677 Q 0.9362175057,-3.2624091695 0.9684101292,-3.3334312403" />
      <path d="M 0.9864600602,-3.3794580349 Q 1.0088658049,-3.4468615281 1.0089002786,-3.5156756084" />
      <path d="M 1.0089002786,-3.5156756084 C 1.0099747543,-3.6856067947 0.901430336,-3.8544515864 0.7141112247,-3.9786044164" />
      <path d="M 0.7141112247,-3.9786044164 C 0.6002103288,-4.0540475523 0.4670450543,-4.1110572245 0.314615401,-4.1496334328 C -0.0279325344,-4.2380770893 -0.4284754235,-4.2060870421 -0.6888449672,-4.0796797518 C -0.8883372523,-3.9858217686 -1.0052023694,-3.8425018613 -1.0039604192,-3.6979199426" />
      <path d="M 0.6530085021,-3.379455822 Q 0.7590615525,-3.4401910194 0.8368288615,-3.5156755733" />
      <path d="M 1.0089003052,-3.8801643911 C 1.0100154046,-4.0500015905 0.9014151954,-4.2189748713 0.7141112247,-4.343093337" />
      <path d="M 0.7141112247,-4.343093337 C 0.4326549129,-4.5355325037 -0.0287188754,-4.6102871377 -0.396762179,-4.5367593095 C -0.7591348377,-4.4704239291 -1.0086884026,-4.2701977744 -1.003960431,-4.0624087607" />
      <path d="M -0.0307708172,-3.5617012186 C 0.1788702256,-3.5694723725 0.3899698529,-3.6170740921 0.5637263766,-3.6979161753" />
      <path d="M 0.6530106897,-3.7439459016 Q 0.7590025615,-3.8046362708 0.8368289182,-3.8801643397" />
      <path d="M 1.0089002734,-4.24465322 C 1.0099861629,-4.4145522753 0.9014353495,-4.5834307738 0.7141112247,-4.7075820715" />
      <path d="M 0.7141112247,-4.7075820715 C 0.5046118137,-4.8489664331 0.1976464991,-4.9302580765 -0.0985916235,-4.9288624864 C -0.4107172433,-4.929583449 -0.70244105,-4.8388060233 -0.8615084221,-4.6983788415 C -0.9555595511,-4.6153623023 -1.0030441698,-4.5248677745 -1.0039622783,-4.4268952583" />
      <path d="M -0.7233458335,-4.0624104133 C -0.5744848216,-3.983510199 -0.3744564808,-3.9341598117 -0.1617623924,-3.9261952827" />
      <path d="M -0.0307393527,-3.9261912497 C 0.1787976937,-3.9339561318 0.3899699065,-3.9815546987 0.5637350319,-4.0624089914" />
      <path d="M 0.6530122892,-4.1084356117 Q 0.7590329992,-4.1691475499 0.836828828,-4.2446533391" />
      <path d="M 0.7141112247,-5.0720708763 C 0.5330104513,-5.1939148969 0.2791773986,-5.2721109526 0.0221596793,-5.2892516598 C -0.2348184204,-5.3076010871 -0.4926624238,-5.2649367502 -0.6807662861,-5.1769376879 C -0.8851344573,-5.0830412142 -1.005224782,-4.9380006428 -1.0039535539,-4.7914019301" />
      <path d="M -0.7233396757,-4.4269024593 C -0.5745322441,-4.3480726946 -0.3745251129,-4.2986146642 -0.1618647014,-4.2906801301" />
      <path d="M -0.0307378542,-4.2906800154 C 0.1788132435,-4.298453 0.3898922849,-4.346017799 0.5637342993,-4.4268977411" />
      <path d="M 0.6530073601,-4.4729227949 Q 0.7590596291,-4.5336566277 0.8368288747,-4.6091420149" />
      <path d="M 0.7141112247,-5.4365596911 C 0.4711724361,-5.6014006178 0.0955392209,-5.6824896101 -0.2400453197,-5.6517136502 C -0.5005504746,-5.6298796617 -0.7316395566,-5.543914569 -0.8661052559,-5.4233182198 C -0.9571532301,-5.3413193885 -1.0031055436,-5.2521757443 -1.0039621963,-5.1558872873" />
      <path d="M -1.0039621963,-5.1558872873 Q -1.0038908694,-5.0865078304 -0.9703516274,-5.0196517753" />
      <path d="M -0.9428329026,-4.9736333083 Q -0.8909849817,-4.8992849518 -0.8002525677,-4.837410055" />
      <path d="M -0.0307465156,-4.6551686592 C 0.1788512653,-4.6629416404 0.3899333714,-4.7105250675 0.5637348494,-4.7913862347" />
      <path d="M 0.7141112247,-5.8010484198 C 0.5537979416,-5.9086504212 0.337396307,-5.9825533112 0.1113141877,-6.0097293385 C -0.3035196587,-6.063578843 -0.7325360511,-5.9469137399 -0.9065585989,-5.7479470473 C -0.9710656968,-5.676332558 -1.0035330341,-5.6004718555 -1.0039606108,-5.5203649399" />
      <path d="M -1.0039606108,-5.5203649399 Q -1.0038854501,-5.4509586647 -0.9703418029,-5.3841199285" />
      <path d="M -0.9428280097,-5.3381109046 Q -0.8910209344,-5.2637942281 -0.8002557707,-5.2019013124" />
      <path d="M -0.7233455703,-5.1558736375 C -0.5745371038,-5.0770131961 -0.3744362865,-5.0275983879 -0.1618690258,-5.0196576041" />
      <path d="M -0.0307388867,-5.0196575952 C 0.1787557956,-5.0274072575 0.3901060386,-5.0750631209 0.5637345795,-5.1558751742" />
      <path d="M 0.6530122479,-5.2019019954 Q 0.7589955575,-5.2625860815 0.836828911,-5.3381195955" />
      <path d="M 0.4201174148,-6.305921397 C 0.3029128376,-6.3444618609 0.1800189665,-6.3693025895 0.0514358015,-6.3804435827 C -0.3752191731,-6.4208103662 -0.7974268883,-6.2820174878 -0.9406492508,-6.0702057406 C -0.9826763191,-6.0106431384 -1.0037800456,-5.9488587966 -1.0039604303,-5.8848527151" />
      <path d="M -1.0039604303,-5.8848527151 Q -1.0038867223,-5.8154667788 -0.9703549383,-5.748635048" />
      <path d="M -0.942833435,-5.7026079047 Q -0.8910187359,-5.6282790254 -0.800255882,-5.5663895488" />
      <path d="M -0.723348591,-5.5203638111 C -0.5744368997,-5.4414574329 -0.3743472303,-5.3920850648 -0.1618765943,-5.3841466953" />
      <path d="M -0.030738133,-5.3841463977 C 0.1788510074,-5.3919031413 0.3901738947,-5.4395812178 0.5637332351,-5.5203646173" />
      <path d="M 0.8863379643,-6.5175973671 C 1.119008039,-6.3670616453 1.2537965835,-6.1610396711 1.2524700131,-5.95366021" />
      <path d="M 1.2519516452,-5.9308796585 Q 1.2482414936,-5.8501605704 1.218893663,-5.771415567" />
      <path d="M 0.4201187437,-5.1913494968 C 0.0984015165,-5.1076543035 -0.270331142,-5.1067411036 -0.5730995146,-5.1840366584" />
      <path d="M -0.9365830434,-5.3293800543 L -0.9452387167,-5.3346074152" />
      <path d="M -0.9820455452,-5.3582240641 C -1.1531524443,-5.472998915 -1.248219963,-5.621912624 -1.2475299883,-5.7714157909" />
      <path d="M -1.2475299883,-5.7714157909 C -1.2488564774,-5.9484165607 -1.1140745861,-6.1240604799 -0.8814135782,-6.2442206277 C -0.6506285307,-6.3654809401 -0.3252358216,-6.4293388847 0.0024701853,-6.4133739467 C 0.3301762007,-6.3989649077 0.6555686999,-6.304732862 0.8863536146,-6.1530982857 C 1.1190144712,-6.0025638741 1.2537964349,-5.796545794 1.2524699673,-5.5891710819" />
      <path d="M 1.2524699673,-5.5891710819 Q 1.252373961,-5.4850193081 1.2098338256,-5.3841462584" />
      <path d="M 0.420117294,-4.8268603216 C 0.0983942781,-4.7431637296 -0.2703467828,-4.7422526072 -0.5731177498,-4.8195526949" />
      <path d="M -0.936575415,-4.9648867507 L -0.9452478562,-4.9701242464" />
      <path d="M -0.9820672986,-4.9937499727 C -1.1531606614,-5.1085227316 -1.2482200357,-5.2574302754 -1.2475301493,-5.4069269427" />
      <path d="M -1.2475301493,-5.4069269427 C -1.2488566288,-5.5839276515 -1.1140745349,-5.7595714822 -0.8814136119,-5.8797317389 C -0.6506286266,-6.0009921524 -0.3252361891,-6.0648501889 0.0024697432,-6.0488852052 C 0.3301756662,-6.0344761243 0.655568336,-5.9402440741 0.8863534079,-5.788609642 C 1.119014438,-5.6380753732 1.2537963615,-5.4320573998 1.2524698674,-5.2246826443" />
      <path d="M 1.2524698674,-5.2246826443 Q 1.2523738551,-5.1205307365 1.2098337057,-5.0196575749" />
      <path d="M 0.4201174018,-4.4623713648 C 0.0983928722,-4.3786744599 -0.2703487344,-4.3777639285 -0.5731205579,-4.4550645965" />
      <path d="M -0.9365601845,-4.6003889207 L -0.9452256379,-4.605621938" />
      <path d="M -0.9820494048,-4.629249145 C -1.1531538848,-4.7440234338 -1.2482200685,-4.8929360533 -1.2475301164,-5.0424382833" />
      <path d="M -1.2475301164,-5.0424382833 C -1.2503942724,-5.2591620678 -1.0447947524,-5.4722298659 -0.7145185035,-5.5872502874 C -0.3429802326,-5.7220535003 0.1765836324,-5.7209363598 0.5796460605,-5.5737267177 C 0.9869911744,-5.4313425251 1.2571076996,-5.1491935465 1.2524697346,-4.8601937517" />
      <path d="M 1.2524697346,-4.8601937517 Q 1.2523737271,-4.75604195 1.2098337441,-4.6551688986" />
      <path d="M 0.4201182056,-4.097882869 C 0.0983950201,-4.0141862268 -0.2703447954,-4.0132749685 -0.5731158526,-4.0905745379" />
      <path d="M -1.2468181739,-4.6551691058 L -1.2475301219,-4.677949656" />
      <path d="M -1.2475301219,-4.677949656 C -1.2488566448,-4.8549504675 -1.1140745054,-5.0305945064 -0.8814132425,-5.1507545202 C -0.6506279239,-5.2720147125 -0.3252353357,-5.335872372 0.0024702602,-5.3199074575 C 0.3301758425,-5.3054984325 0.6555682642,-5.2112666192 0.8863535911,-5.0596320377 C 1.1190149874,-4.9090975626 1.2537963325,-4.7030797228 1.2524696335,-4.4957050699" />
      <path d="M 1.2524696335,-4.4957050699 C 1.2530637914,-4.3271580784 1.1652544981,-4.1590980466 1.005981217,-4.0215589148" />
      <path d="M 0.989335726,-4.0074357474 Q 0.9401206706,-3.9665980855 0.8832296981,-3.9297476353" />
      <path d="M 0.4201182644,-3.733394088 C 0.0983949478,-3.6496973531 -0.2703447557,-3.6487860561 -0.5731155669,-3.7260856614" />
      <path d="M -0.9365828743,-3.8714250739 L -0.9452469339,-3.876657554" />
      <path d="M -0.9820701515,-3.9002857724 L -1.0185119392,-3.9261913259" />
      <path d="M -1.0475312639,-3.9489718796 C -1.1775678008,-4.0555261251 -1.2479191323,-4.1843509337 -1.2475302608,-4.3134607297" />
      <path d="M -1.2475302608,-4.3134607297 C -1.2488567792,-4.4904614423 -1.1140744714,-4.6661054806 -0.8814133486,-4.7862655997 C -0.6506281564,-4.9075258982 -0.3252358877,-4.9713836458 0.0024696917,-4.9554186983 C 0.3301752631,-4.9410096326 0.6555677544,-4.846777876 0.886353061,-4.6951435657 C 1.1190143126,-4.5446094344 1.2537965484,-4.3385913738 1.2524700189,-4.1312165987" />
      <path d="M 1.2524700189,-4.1312165987 Q 1.2523739985,-4.0270646335 1.2098338008,-3.9261914565" />
      <path d="M 0.4201178112,-3.368905155 C 0.0984010091,-3.2852101454 -0.2703318462,-3.2842972637 -0.5730994393,-3.3615927521" />
      <path d="M -1.2468180036,-3.9261919236 L -1.2475299523,-3.9489724796" />
      <path d="M -1.2475299523,-3.9489724796 C -1.2488565904,-4.1259728002 -1.11407423,-4.301616929 -0.8814129335,-4.4217771075 C -0.6506276164,-4.5430374409 -0.325235441,-4.6068948943 0.0024701653,-4.5909298169 C 0.3301757621,-4.5765206123 0.6555683289,-4.4822889383 0.8863534367,-4.3306546608 C 1.119014501,-4.1801205686 1.2537963941,-3.9741024388 1.2524698834,-3.766727631" />
      <path d="M 1.2524698834,-3.766727631 C 1.2530634464,-3.5981805062 1.1652548904,-3.4301204527 1.0059812336,-3.2925811739" />
      <path d="M 0.9893357552,-3.278458047 Q 0.9528117417,-3.2481470893 0.911992566,-3.2199941816" />
      <path d="M 0.420118668,-3.0044166893 C 0.0984101142,-2.9207237782 -0.270311466,-2.9198082416 -0.5730751295,-2.9970977591" />
      <path d="M -1.2468179827,-3.5617026785 L -1.2475299301,-3.5844832291" />
      <path d="M -1.2475299301,-3.5844832291 C -1.2509198089,-3.8112028377 -1.0249349889,-4.0333740177 -0.6691635657,-4.1445368762 C -0.3170347118,-4.259053078 0.1517955177,-4.257671859 0.5307229662,-4.1324519091 C 0.9639323802,-3.9955220198 1.2578377593,-3.7030324165 1.2524699471,-3.4022385477" />
      <path d="M 1.2524699471,-3.4022385477 Q 1.2523739335,-3.2980866583 1.209833868,-3.197213635" />
      <path d="M 0.4201185676,-2.639927915 C 0.0983959166,-2.5562311112 -0.2703435421,-2.5553194704 -0.5731146974,-2.6326189491" />
      <path d="M -1.2475300434,-3.2199942326 C -1.2488565388,-3.3969948678 -1.1140745914,-3.5726388365 -0.8814135735,-3.6927990987 C -0.6506285102,-3.8140595284 -0.3252359048,-3.8779174914 0.0024699742,-3.8619524446 C 0.3301758592,-3.8475432983 0.6555683159,-3.7533112056 0.8863533622,-3.6016768495 C 1.1190143499,-3.4511426528 1.2537964671,-3.245124828 1.2524699752,-3.0377499124" />
      <path d="M 1.2524699752,-3.0377499124 L 1.2519516083,-3.014969362" />
      <path d="M -1.2475300282,-2.8555050686 C -1.2488564943,-3.0325057259 -1.1140747003,-3.2081499013 -0.8814138468,-3.328310249 C -0.6506289471,-3.4495707727 -0.3252363056,-3.51342864 0.0024697727,-3.4974635798 C 0.3301758497,-3.4830544113 0.6555685091,-3.3888224568 0.8863534952,-3.2371880899 C 1.119014439,-3.0866538931 1.2537963191,-2.8806358281 1.2524698368,-2.6732609133" />
      <path d="M -1.247530133,-2.4910162787 C -1.2480281657,-2.6285482439 -1.1679489204,-2.7656904125 -1.0214826522,-2.8760483317 C -0.8706584823,-2.9907268073 -0.6493042949,-3.0758762677 -0.3993449066,-3.1130517746 C -0.1497528669,-3.1508621619 0.1269460054,-3.140399985 0.3783423269,-3.0813296897 C 0.6300824509,-3.0228988408 0.8550098946,-2.9161391322 1.0105226998,-2.7789542109 C 1.1669574592,-2.6421657503 1.2530414962,-2.4757008802 1.2524698873,-2.3087717248" />
      <path d="M 1.2524698873,-2.3087717248 Q 1.2523738817,-2.2046198465 1.2098337468,-2.1037467657" />
      <path d="M 0.4201184284,-1.5464614813 C 0.0983951818,-1.4627646843 -0.2703445435,-1.4618533198 -0.5731157919,-1.5391529844" />
      <path d="M -1.2468183269,-2.1037473404 L -1.2475302765,-2.1265278903" />
      <path d="M -1.2475302765,-2.1265278903 C -1.2487196988,-2.2985835978 -1.1216313669,-2.4694591984 -0.9004885671,-2.5891648647 C -0.6810641029,-2.7098352384 -0.3703682,-2.7776309519 -0.0520653767,-2.7703196695 C 0.2661336077,-2.7644021562 0.5879197564,-2.6832744955 0.8266401572,-2.5448072826 C 1.0669288545,-2.4073889873 1.2211260579,-2.2141873729 1.2477113947,-2.0132516897 C 1.2508828891,-1.9903032788 1.2524690277,-1.9673142548 1.2524698105,-1.9442846176" />
      <path d="M 1.2524698105,-1.9442846176 Q 1.2523737415,-1.8401322194 1.2098336975,-1.7392587942" />
      <path d="M 0.4201179885,-1.1819724895 C 0.098394625,-1.0982756938 -0.2703449203,-1.097364623 -0.5731162492,-1.1746643967" />
      <path d="M -0.9365827787,-1.3200033721 L -0.9452469839,-1.3252359314" />
      <path d="M -0.9820702207,-1.3488641279 C -1.1531618649,-1.4636364787 -1.2482200804,-1.6125428557 -1.2475302185,-1.7620387545" />
      <path d="M -1.2475302185,-1.7620387545 C -1.2488567054,-1.9390395561 -1.1140745554,-2.1146837068 -0.8814137005,-2.2348438811 C -0.6506287729,-2.3561042381 -0.3252366001,-2.4199620283 0.002469244,-2.4039971447 C 0.3301750629,-2.3895881405 0.6555679467,-2.2953564431 0.886353203,-2.1437221002 C 1.1190144327,-1.993187942 1.2537962934,-1.7871697628 1.2524697751,-1.5797949277" />
      <path d="M 1.2524697751,-1.5797949277 Q 1.2524103334,-1.4875279623 1.2188935544,-1.39755038" />
      <path d="M 0.4201182758,-0.81748378 C 0.0983971959,-0.733787609 -0.2703390998,-0.7328757113 -0.5731084698,-0.8101736922" />
      <path d="M -0.9365828309,-0.955514631 L -0.9452459211,-0.9607465337" />
      <path d="M -0.9820701582,-0.9843754506 C -1.1531615693,-1.0991482735 -1.2482200257,-1.2480540927 -1.2475301632,-1.397550125" />
      <path d="M -1.2475301632,-1.397550125 C -1.2488566495,-1.5745509293 -1.1140743907,-1.7501953429 -0.8814134362,-1.8703553377 C -0.6506284127,-1.9916155456 -0.3252360439,-2.0554731555 0.00246986,-2.0395082935 C 0.3301757511,-2.0250992995 0.6555684215,-1.9308676047 0.8863534644,-1.7792331333 C 1.1190144682,-1.6286988537 1.2537963323,-1.4226805561 1.2524698382,-1.2153057688" />
      <path d="M 1.2519514717,-1.1925252198 Q 1.2476764725,-1.0999620613 1.2098337986,-1.0102809861" />
      <path d="M 0.4201399363,-0.4530005957 C 0.0984120619,-0.3692984328 -0.2703372172,-0.3683849747 -0.5731150086,-0.4456863118" />
      <path d="M -0.9365831282,-0.5910260741 L -0.945247502,-0.5962587531" />
      <path d="M -0.9820701909,-0.6198866681 C -1.1531617592,-0.7346592637 -1.2482199502,-0.8835657273 -1.2475301174,-1.0330616348" />
      <path d="M -1.2475301174,-1.0330616348 C -1.2491644873,-1.2199606952 -1.0982423895,-1.4050875455 -0.8420255654,-1.525449099 C -0.5880170339,-1.6472238813 -0.2331715826,-1.7018376594 0.1113928552,-1.6671697835 C 0.4197253815,-1.6376345981 0.715802011,-1.5376653614 0.9240590446,-1.3891143006 C 1.1338835345,-1.2414054902 1.2535330139,-1.0466221693 1.2524699992,-0.8508170482" />
      <path d="M 1.2524699992,-0.8508170482 Q 1.2523739815,-0.7466651729 1.2098338195,-0.6457921322" />
      <path d="M 0.4201170175,-0.088505826 C 0.0983944535,-0.0048093093 -0.2703447536,-0.0038981644 -0.5731156167,-0.0811977683" />
      <path d="M -0.9365625931,-0.2265249842 L -0.9452469488,-0.2317695826" />
      <path d="M -0.9820702112,-0.2553978221 C -1.1531617902,-0.3701702836 -1.2482198624,-0.5190766474 -1.2475300176,-0.6685725392" />
      <path d="M -1.2475300176,-0.6685725392 C -1.2488565101,-0.8455732137 -1.1140745959,-1.0212174062 -0.8814135982,-1.1413776886 C -0.650628557,-1.2626381568 -0.3252359308,-1.3264958998 0.0024699907,-1.3105307766 C 0.3301759182,-1.2961215322 0.6555684005,-1.2018896708 0.8863534165,-1.0502554282 C 1.1190143746,-0.8997213839 1.2537964517,-0.6937031609 1.2524699662,-0.4863280971" />
      <path d="M 1.2524699662,-0.4863280971 Q 1.2523739542,-0.3821761391 1.2098338096,-0.2813031125" />
      <path d="M 0.4201197605,0.2759819976 C 0.0983909701,0.359680808 -0.2703564794,0.360590916 -0.573131946,0.283286939" />
      <path d="M -0.9365825359,0.1379520313 L -0.9452449024,0.1327205935" />
      <path d="M -0.9820682406,0.1090924356 L -1.0185119459,0.0831855929" />
      <path d="M -1.0475312494,0.0604050512 C -1.1775677262,-0.0461491903 -1.2479187387,-0.1749739898 -1.2475298847,-0.3040838384" />
      <path d="M -1.2475298847,-0.3040838384 C -1.2488563829,-0.4810845992 -1.1140746708,-0.6567288076 -0.8814135815,-0.7768889863 C -0.6506284679,-0.8981493517 -0.3252355608,-0.9620070168 0.002470413,-0.9460419422 C 0.3301764077,-0.931632748 0.6555687268,-0.8374008777 0.8863536117,-0.6857664675 C 1.1190144338,-0.5352322386 1.2537964501,-0.3292140233 1.2524699718,-0.1218390987" />
      <path d="M 1.2524699718,-0.1218390987 Q 1.2523739638,-0.0176873168 1.2098339104,0.0831856665" />
      <path d="M 0.420119152,0.6404710154 L 0.4091599162,0.643254596" />
      <path d="M -0.5274072436,0.6586335643 L -0.5731154377,0.6477799235" />
      <path d="M -1.2468178427,0.0831856014 L -1.2475297836,0.0604050588" />
      <path d="M -1.2475297836,0.0604050588 C -1.2474659839,0.0011350795 -1.2332703921,-0.0570438851 -1.2049430081,-0.114131835 C -1.128144097,-0.2704561961 -0.9422014437,-0.4087173814 -0.692006662,-0.4921731418 C -0.4428634716,-0.5765520116 -0.1319677242,-0.6051457629 0.1656172598,-0.5676894421 C 0.4634493723,-0.5313338366 0.7449902253,-0.4291583881 0.9422660454,-0.2824709779 C 1.140965095,-0.1365155754 1.2534166383,0.0526261555 1.2524701107,0.2426495373" />
      <path d="M 1.2524701107,0.2426495373 C 1.2530636938,0.4111964966 1.1652549454,0.5792564488 1.0059810787,0.7167956864" />
      <path d="M 0.9893357455,0.7309186718 L 0.9670234747,0.7489203532" />
      <path d="M -1.0608564268,0.7781729973 Q -1.2341399798,0.6271650505 -1.24681822,0.4476746459" />
      <path d="M -1.247530169,0.4248940974 C -1.2482720068,0.2725806244 -1.1494857624,0.1209136432 -0.9723892399,0.0052771643 C -0.7964498072,-0.1109039472 -0.543580019,-0.1900461901 -0.2680908286,-0.2123424547 C 0.0070771755,-0.2354882289 0.3027122338,-0.2015081109 0.5553161747,-0.1148916037 C 0.8085761646,-0.0290555041 1.0168283251,0.1088450639 1.1353454323,0.2720006389 C 1.2129381478,0.3787010738 1.2519796044,0.4904138423 1.2524698022,0.6071389444" />
      <path d="M 1.2524698022,0.6071389444 L 1.2519514352,0.6299194885" />
      <path d="M -1.246818086,0.8121632814 L -1.2475300335,0.7893827323" />
      <path d="M -1.2475300335,0.7893827323 C -1.248597592,0.6220776595 -1.1286715795,0.4558005743 -0.9184227363,0.3367486982 C -0.7097468835,0.2168500863 -0.413118433,0.145691132 -0.1043990944,0.1451428687 C 0.2041376857,0.1433470063 0.5212726798,0.2123376702 0.7658991669,0.3381432261 C 1.0118297027,0.4629572533 1.1824760376,0.643330571 1.2341962996,0.8368053661" />
      <path d="M -1.0153697385,0.7642570088 C -0.8228821729,0.6199283872 -0.5168200628,0.5249018334 -0.1868627735,0.5115505937 C 0.1426642202,0.4965525289 0.4910944569,0.5636786525 0.7563340425,0.6977897608" />
      <path d="M 0.8863379643,-6.5175973671 L 0.8863379643,-6.4720362682" />
      <path d="M 0.8863379643,-6.4720362682 C 1.119008039,-6.3215005465 1.2537965835,-6.1154785723 1.2524700131,-5.9080991111" />
      <path d="M 1.2524700131,-5.9080991111 Q 1.2524354241,-5.8276041534 1.2268375254,-5.7486350134" />
      <path d="M 1.218893663,-5.7258544682 Q 1.1880659437,-5.6433572811 1.1304837732,-5.5663907239" />
      <path d="M 0.999164712,-5.4280934931 Q 0.9583642283,-5.3933483057 0.9119927012,-5.3613658393" />
      <path d="M -0.8445076685,-5.2346479603 Q -0.9094508068,-5.2656529609 -0.9653473775,-5.3016582706" />
      <path d="M -0.9943633264,-5.3211147617 C -1.1578045923,-5.4346696133 -1.2481566,-5.5800013716 -1.2475299883,-5.725854692" />
      <path d="M -1.2475299883,-5.725854692 C -1.2488564774,-5.9028554619 -1.1140745861,-6.0784993811 -0.8814135782,-6.1986595288 C -0.6506285307,-6.3199198413 -0.3252358216,-6.3837777859 0.0024701853,-6.3678128478 C 0.3301762007,-6.3534038088 0.6555686999,-6.2591717632 0.8863536146,-6.1075371868 C 1.1190144712,-5.9570027753 1.2537964349,-5.7509846951 1.2524699673,-5.5436099831" />
      <path d="M 1.2524699673,-5.5436099831 Q 1.2514186784,-5.3515464155 1.1127387876,-5.1791214312" />
      <path d="M 0.9991647055,-5.0636047333 Q 0.9546042831,-5.0256592109 0.9034297567,-4.9910268503" />
      <path d="M 0.8522234214,-4.9582127992 Q 0.8066854885,-4.9305804259 0.7571913722,-4.9057146604" />
      <path d="M -0.8444944732,-4.8701529507 Q -0.9094500037,-4.901162885 -0.9653558151,-4.9371749495" />
      <path d="M -0.994388442,-4.9566435346 C -1.1578140397,-5.0701957089 -1.2481566592,-5.2155201595 -1.2475301493,-5.3613658438" />
      <path d="M -1.2475301493,-5.3613658438 C -1.2488566288,-5.5383665526 -1.1140745349,-5.7140103834 -0.8814136119,-5.83417064 C -0.6506286266,-5.9554310536 -0.3252361891,-6.0192890901 0.0024697432,-6.0033241064 C 0.3301756662,-5.9889150255 0.655568336,-5.8946829752 0.8863534079,-5.7430485431 C 1.119014438,-5.5925142744 1.2537963615,-5.386496301 1.2524698674,-5.1791215455" />
      <path d="M 1.2524698674,-5.1791215455 Q 1.2516714752,-5.0002719595 1.1304837977,-4.8374133125" />
      <path d="M 0.9991640681,-4.6991154059 Q 0.954605534,-4.6611715291 0.9034334329,-4.6265405157" />
      <path d="M 0.8522240986,-4.593724375 Q 0.8066867448,-4.5660923041 0.75719327,-4.5412267576" />
      <path d="M -0.8445155829,-4.5056743176 Q -0.9094458029,-4.5366736806 -0.9653329494,-4.5726714701" />
      <path d="M -0.9943639348,-4.5921376534 C -1.1578048064,-4.7056922485 -1.2481567233,-4.8510238587 -1.2475301164,-4.9968771845" />
      <path d="M -1.2475301164,-4.9968771845 C -1.2503942724,-5.2136009689 -1.0447947524,-5.4266687671 -0.7145185035,-5.5416891885 C -0.3429802326,-5.6764924015 0.1765836324,-5.6753752609 0.5796460605,-5.5281656189 C 0.9869911744,-5.3857814262 1.2571076996,-5.1036324476 1.2524697346,-4.8146326529" />
      <path d="M 1.2524697346,-4.8146326529 Q 1.251418456,-4.6225689105 1.1127388828,-4.4501439242" />
      <path d="M 0.9991647384,-4.334627033 Q 0.9546059381,-4.2966828788 0.903433462,-4.2620516376" />
      <path d="M 0.852224183,-4.2292355573 Q 0.806688231,-4.201604358 0.7571963877,-4.176739508" />
      <path d="M -0.8445065273,-4.1411812146 Q -0.9094547735,-4.1721885748 -0.9653550284,-4.2081969926" />
      <path d="M -1.201015733,-4.4501440988 Q -1.2474157557,-4.5393975379 -1.2475301219,-4.6323885572" />
      <path d="M -1.2475301219,-4.6323885572 C -1.2488566448,-4.8093893687 -1.1140745054,-4.9850334076 -0.8814132425,-5.1051934213 C -0.6506279239,-5.2264536136 -0.3252353357,-5.2903112732 0.0024702602,-5.2743463586 C 0.3301758425,-5.2599373336 0.6555682642,-5.1657055204 0.8863535911,-5.0140709389 C 1.1190149874,-4.8635364638 1.2537963325,-4.6575186239 1.2524696335,-4.4501439711" />
      <path d="M 1.2524696335,-4.4501439711 Q 1.2524102457,-4.3578772394 1.218893782,-4.2678997579" />
      <path d="M -1.2010157352,-4.085655127 Q -1.2474158939,-4.174908585 -1.2475302608,-4.2678996308" />
      <path d="M -1.2475302608,-4.2678996308 C -1.2488567792,-4.4449003435 -1.1140744714,-4.6205443817 -0.8814133486,-4.7407045009 C -0.6506281564,-4.8619647994 -0.3252358877,-4.925822547 0.0024696917,-4.9098575995 C 0.3301752631,-4.8954485337 0.6555677544,-4.8012167771 0.886353061,-4.6495824669 C 1.1190143126,-4.4990483356 1.2537965484,-4.2930302749 1.2524700189,-4.0856554998" />
      <path d="M 1.2524700189,-4.0856554998 Q 1.2524105749,-3.9933885082 1.2188936881,-3.9034108865" />
      <path d="M -1.2010155552,-3.7211665234 Q -1.2474155568,-3.8104202912 -1.2475299523,-3.9034113807" />
      <path d="M -1.2475299523,-3.9034113807 C -1.2488565904,-4.0804117014 -1.11407423,-4.2560558302 -0.8814129335,-4.3762160086 C -0.6506276164,-4.497476342 -0.325235441,-4.5613337954 0.0024701653,-4.545368718 C 0.3301757621,-4.5309595134 0.6555683289,-4.4367278394 0.8863534367,-4.285093562 C 1.119014501,-4.1345594698 1.2537963941,-3.9285413399 1.2524698834,-3.7211665321" />
      <path d="M 1.2524698834,-3.7211665321 C 1.2530495192,-3.553641003 1.1663319801,-3.3865880886 1.0088530381,-3.2495210868" />
      <path d="M 0.9991646873,-3.2411608325 L 0.9438431566,-3.197213635" />
      <path d="M 0.911992566,-3.1744330827 L 0.9034334195,-3.1685854444" />
      <path d="M 0.8522240019,-3.1357692732 Q 0.8066884486,-3.1081383162 0.7571970762,-3.083273656" />
      <path d="M -1.2120959812,-3.3794581976 Q -1.2474637082,-3.4579489736 -1.2475299301,-3.5389221302" />
      <path d="M -1.2475299301,-3.5389221302 C -1.2509198089,-3.7656417388 -1.0249349889,-3.9878129188 -0.6691635657,-4.0989757774 C -0.3170347118,-4.2134919792 0.1517955177,-4.2121107601 0.5307229662,-4.0868908102 C 0.9639323802,-3.9499609209 1.2578377593,-3.6574713176 1.2524699471,-3.3566774488" />
      <path d="M 1.2524699471,-3.3566774488 Q 1.252410508,-3.2644105594 1.2188937531,-3.174433098" />
      <path d="M -1.2120959724,-3.0149691241 Q -1.2474638213,-3.0934599276 -1.2475300434,-3.1744331337" />
      <path d="M -1.2475300434,-3.1744331337 C -1.2488565388,-3.3514337689 -1.1140745914,-3.5270777377 -0.8814135735,-3.6472379998 C -0.6506285102,-3.7684984296 -0.3252359048,-3.8323563926 0.0024699742,-3.8163913457 C 0.3301758592,-3.8019821994 0.6555683159,-3.7077501067 0.8863533622,-3.5561157506 C 1.1190143499,-3.4055815539 1.2537964671,-3.1995637291 1.2524699752,-2.9921888136" />
      <path d="M 1.2524699752,-2.9921888136 Q 1.252435388,-2.911693824 1.2268375064,-2.8327246743" />
      <path d="M 1.2188936581,-2.8099441513 Q 1.1833873716,-2.7150038735 1.1127387021,-2.6276997359" />
      <path d="M 0.9991646867,-2.5121831328 Q 0.9583642022,-2.4774379702 0.9119926759,-2.4454555408" />
      <path d="M -0.8445092896,-2.3187385267 Q -0.9094559836,-2.3497453521 -0.9653550613,-2.3857529979" />
      <path d="M -1.2010155826,-2.6276995838 Q -1.2474156762,-2.7169529917 -1.2475300282,-2.8099439698" />
      <path d="M -1.2475300282,-2.8099439698 C -1.2488564943,-2.9869446271 -1.1140747003,-3.1625888025 -0.8814138468,-3.2827491502 C -0.6506289471,-3.4040096738 -0.3252363056,-3.4678675412 0.0024697727,-3.451902481 C 0.3301758497,-3.4374933125 0.6555685091,-3.343261358 0.8863534952,-3.191626991 C 1.119014439,-3.0410927942 1.2537963191,-2.8350747292 1.2524698368,-2.6276998144" />
      <path d="M 1.2524698368,-2.6276998144 Q 1.2524104003,-2.5354328734 1.2188935918,-2.4454552839" />
      <path d="M -1.2010157834,-2.2632111919 Q -1.2474157753,-2.3524644849 -1.247530133,-2.4454551799" />
      <path d="M -1.247530133,-2.4454551799 C -1.2480281657,-2.5829871451 -1.1679489204,-2.7201293137 -1.0214826522,-2.8304872328 C -0.8706584823,-2.9451657085 -0.6493042949,-3.0303151688 -0.3993449066,-3.0674906758 C -0.1497528669,-3.105301063 0.1269460054,-3.0948388861 0.3783423269,-3.0357685909 C 0.6300824509,-2.977337742 0.8550098946,-2.8705780334 1.0105226998,-2.7333931121 C 1.1669574592,-2.5966046514 1.2530414962,-2.4301397813 1.2524698873,-2.2632106259" />
      <path d="M 1.2524698873,-2.2632106259 Q 1.2524104537,-2.1709437411 1.2188936442,-2.0809662315" />
      <path d="M -1.2010157227,-1.8987222205 Q -1.2474159114,-1.9879757184 -1.2475302765,-2.0809667914" />
      <path d="M -1.2475302765,-2.0809667914 C -1.2487196988,-2.2530224989 -1.1216313669,-2.4238980995 -0.9004885671,-2.5436037659 C -0.6810641029,-2.6642741395 -0.3703682,-2.7320698531 -0.0520653767,-2.7247585707 C 0.2661336077,-2.7188410573 0.5879197564,-2.6377133967 0.8266401572,-2.4992461838 C 1.0669288545,-2.3618278885 1.2211260579,-2.168626274 1.2477113947,-1.9676905909 C 1.2508828891,-1.9447421799 1.2524690277,-1.9217531559 1.2524698105,-1.8987235188" />
      <path d="M 1.2524698105,-1.8987235188 Q 1.2516713965,-1.7198730383 1.1304837784,-1.5570140827" />
      <path d="M 0.9991647225,-1.4187167578 L 0.943843308,-1.3747696705" />
      <path d="M -0.8445099133,-1.2252725716 Q -0.909456231,-1.2562792243 -0.9653550334,-1.2922866469" />
      <path d="M -0.9943885204,-1.3117557603 C -1.1578141605,-1.4253077819 -1.2481567197,-1.5706319081 -1.2475302185,-1.7164776556" />
      <path d="M -1.2475302185,-1.7164776556 C -1.2488567054,-1.8934784572 -1.1140745554,-2.0691226079 -0.8814137005,-2.1892827823 C -0.6506287729,-2.3105431393 -0.3252366001,-2.3744009295 0.002469244,-2.3584360459 C 0.3301750629,-2.3440270416 0.6555679467,-2.2497953442 0.886353203,-2.0981610014 C 1.1190144327,-1.9476268432 1.2537962934,-1.7416086639 1.2524697751,-1.5342338289" />
      <path d="M 1.2524697751,-1.5342338289 Q 1.2524351861,-1.453738895 1.2268374005,-1.3747698496" />
      <path d="M 1.2188935544,-1.3519892812 Q 1.1880658949,-1.2694920096 1.1304837397,-1.1925253712" />
      <path d="M 0.9991590627,-1.0542232289 L 0.9438432507,-1.0102808764" />
      <path d="M -0.8445084182,-0.8607829999 Q -0.9094540388,-0.891789176 -0.9653522345,-0.9277961556" />
      <path d="M -0.9943884482,-0.9472671147 C -1.1578138718,-1.0608195563 -1.2481566681,-1.206143147 -1.2475301632,-1.3519890261" />
      <path d="M -1.2475301632,-1.3519890261 C -1.2488566495,-1.5289898305 -1.1140743907,-1.704634244 -0.8814134362,-1.8247942389 C -0.6506284127,-1.9460544467 -0.3252360439,-2.0099120567 0.00246986,-1.9939471946 C 0.3301757511,-1.9795382007 0.6555684215,-1.8853065058 0.8863534644,-1.7336720344 C 1.1190144682,-1.5831377548 1.2537963323,-1.3771194573 1.2524698382,-1.1697446699" />
      <path d="M 1.2524698382,-1.1697446699 Q 1.2524104,-1.0774778715 1.2188936845,-0.9875004633" />
      <path d="M -0.8444930207,-0.4962868932 Q -0.909449139,-0.5272970722 -0.9653553801,-0.5633094049" />
      <path d="M -0.9943884623,-0.5827782997 C -1.1578140409,-0.6963305588 -1.2481565923,-0.8416547712 -1.2475301174,-0.9875005359" />
      <path d="M -1.2475301174,-0.9875005359 C -1.2491644873,-1.1743995964 -1.0982423895,-1.3595264467 -0.8420255654,-1.4798880001 C -0.5880170339,-1.6016627824 -0.2331715826,-1.6562765605 0.1113928552,-1.6216086847 C 0.4197253815,-1.5920734992 0.715802011,-1.4921042626 0.9240590446,-1.3435532018 C 1.1338835345,-1.1958443914 1.2535330139,-1.0010610704 1.2524699992,-0.8052559493" />
      <path d="M 1.2524699992,-0.8052559493 Q 1.2514186517,-0.6131920987 1.1127386372,-0.4407671677" />
      <path d="M 0.9991594436,-0.325246183 Q 0.958361079,-0.2905032822 0.9119923634,-0.2585227535" />
      <path d="M -0.8445117079,-0.1318070411 Q -0.9094570028,-0.1628133681 -0.9653550008,-0.1988203134" />
      <path d="M -0.9943885056,-0.2182894609 C -1.1578140766,-0.3318415864 -1.2481565031,-0.4771656986 -1.2475300176,-0.6230114403" />
      <path d="M -1.2475300176,-0.6230114403 C -1.2488565101,-0.8000121148 -1.1140745959,-0.9756563073 -0.8814135982,-1.0958165897 C -0.650628557,-1.217077058 -0.3252359308,-1.2809348009 0.0024699907,-1.2649696777 C 0.3301759182,-1.2505604334 0.6555684005,-1.156328572 0.8863534165,-1.0046943293 C 1.1190143746,-0.854160285 1.2537964517,-0.648142062 1.2524699662,-0.4407669983" />
      <path d="M 1.2524699662,-0.4407669983 Q 1.2524105282,-0.3485000346 1.2188937011,-0.2585225476" />
      <path d="M -1.20101563,-0.0762784495 Q -1.2474155256,-0.1655317935 -1.2475298847,-0.2585227395" />
      <path d="M -1.2475298847,-0.2585227395 C -1.2488563829,-0.4355235003 -1.1140746708,-0.6111677088 -0.8814135815,-0.7313278875 C -0.6506284679,-0.8525882529 -0.3252355608,-0.9164459179 0.002470413,-0.9004808433 C 0.3301764077,-0.8860716491 0.6555687268,-0.7918397789 0.8863536117,-0.6402053687 C 1.1190144338,-0.4896711398 1.2537964501,-0.2836529245 1.2524699718,-0.0762779998" />
      <path d="M 1.2524699718,-0.0762779998 Q 1.2514186754,0.1157857514 1.1127388465,0.2882105864" />
      <path d="M 0.9991647194,0.4037272211 Q 0.9546059044,0.4416713236 0.9034334336,0.4763025192" />
      <path d="M 0.8522240184,0.5091186472 Q 0.8066869759,0.5367504743 0.7571938772,0.5616158248" />
      <path d="M -0.8444875726,0.5971821518 Q -0.9094461821,0.5661712191 -0.9653543621,0.5301577935" />
      <path d="M -1.2010156212,0.288210531 Q -1.2474154744,0.1989571856 -1.2475297836,0.1059661576" />
      <path d="M -1.2475297836,0.1059661576 C -1.2474659839,0.0466961784 -1.2332703921,-0.0114827862 -1.2049430081,-0.0685707362 C -1.128144097,-0.2248950972 -0.9422014437,-0.3631562825 -0.692006662,-0.4466120429 C -0.4428634716,-0.5309909128 -0.1319677242,-0.5595846641 0.1656172598,-0.5221283432 C 0.4634493723,-0.4857727377 0.7449902253,-0.3835972893 0.9422660454,-0.236909879 C 1.140965095,-0.0909544766 1.2534166383,0.0981872544 1.2524701107,0.2882106362" />
      <path d="M 1.2524701107,0.2882106362 Q 1.2514187831,0.4802743963 1.1127387589,0.6526993184" />
      <path d="M -1.2010157394,0.6526995121 Q -1.2474158129,0.5634461461 -1.247530169,0.4704551963" />
      <path d="M -1.247530169,0.4704551963 C -1.2482720068,0.3181417233 -1.1494857624,0.166474742 -0.9723892399,0.0508382632 C -0.7964498072,-0.0653428483 -0.543580019,-0.1444850912 -0.2680908286,-0.1667813558 C 0.0070771755,-0.18992713 0.3027122338,-0.1559470121 0.5553161747,-0.0693305048 C 0.8085761646,0.0165055947 1.0168283251,0.1544061627 1.1353454323,0.3175617378 C 1.2129381478,0.4242621726 1.2519796044,0.5359749411 1.2524698022,0.6527000433" />
      <path d="M 1.2524698022,0.6527000433 Q 1.2524148519,0.7431647195 1.2201765516,0.8314702984" />
      <path d="M -1.2474212932,0.8438480085 L -1.2475300335,0.8349438312" />
      <path d="M -1.2475300335,0.8349438312 C -1.2485069261,0.6714345865 -1.1341423814,0.508843286 -0.9324692627,0.3904642632 C -0.7322574972,0.2713246826 -0.4468146839,0.1977703329 -0.1461079185,0.1912709399 C 0.154366598,0.1836338331 0.4669970301,0.2432699423 0.7151515749,0.3590017791 C 0.9644200978,0.4737922459 1.1466411325,0.6436317962 1.2171493426,0.8303296795" />
      <path d="M -0.8849929163,0.7284998061 C -0.518105665,0.5293674762 0.0989872196,0.4951767927 0.5672663358,0.6637697301" />
      <path d="M 0.7141112247,-5.8931021384 C 0.5414713392,-6.0091425381 0.3030223748,-6.0857970204 0.0584481068,-6.1073888954 C -0.1860326874,-6.1299746583 -0.4348316591,-6.0974969508 -0.6257292056,-6.0215363746 C -0.8623063937,-5.9293559548 -1.0057224876,-5.772014672 -1.0039604588,-5.6124179268" />
      <path d="M -1.0001889304,-5.56639097 Q -0.988566136,-5.496060432 -0.9428296442,-5.4301673252" />
      <path d="M -0.9059287314,-5.3841431372 Q -0.8358152981,-5.3074468925 -0.7233359808,-5.2479266917" />
      <path d="M -0.6221676834,-5.2019038137 C -0.3257079994,-5.0829446397 0.1106540702,-5.0779578117 0.4508462034,-5.2019020171" />
      <path d="M 0.5637346369,-5.2479288043 Q 0.6896152798,-5.3063023423 0.7851250773,-5.384146415" />
      <path d="M 0.836828881,-5.4301732271 Q 0.9030192215,-5.4945684289 0.9446965032,-5.5663907217" />
      <path d="M 0.9893357454,-5.6673907305 Q 1.0018320752,-5.7076926831 1.0063606011,-5.7486351364" />
      <path d="M 0.8832298939,-6.1095673417 Q 0.8144237289,-6.1905521186 0.7141112247,-6.2575908893" />
      <path d="M 0.7141112247,-5.5286133506 C 0.4620296631,-5.6999805725 0.066343074,-5.7802197203 -0.2784019268,-5.7399983606 C -0.5614455045,-5.7096488503 -0.8028777267,-5.6022955136 -0.9194638949,-5.4607195604 C -0.9754653607,-5.3931664685 -1.0036275738,-5.322216909 -1.0039505343,-5.2478708818" />
      <path d="M -1.0001896065,-5.2019030138 Q -0.9885809804,-5.1315974306 -0.9428179857,-5.0656982117" />
      <path d="M -0.9059102158,-5.0196750308 Q -0.835753289,-4.9429267114 -0.7233489499,-4.8834400552" />
      <path d="M -0.6221730367,-4.8374134199 C -0.3254870626,-4.7183740097 0.1109547003,-4.7135460599 0.4508459463,-4.8374132514" />
      <path d="M 0.8368230729,-5.0656786553 Q 0.9030147673,-5.1300725721 0.9446964119,-5.2019020348" />
      <path d="M 0.989335517,-5.3029022871 Q 1.0018352729,-5.3432194168 1.0063606077,-5.3841464374" />
      <path d="M 0.8832297966,-5.7450786241 Q 0.8144209815,-5.8260656756 0.7141112247,-5.8931021384" />
      <path d="M 0.7141112247,-5.1641245024 C 0.4050656708,-5.3767909414 -0.1218337846,-5.4425028645 -0.5025530531,-5.3333576419 C -0.8087389529,-5.2515258012 -1.007102676,-5.0697845088 -1.0039597402,-4.8834400977" />
      <path d="M -1.0001844145,-4.8373891456 Q -0.988879247,-4.7689768442 -0.94524739,-4.7047023003" />
      <path d="M -0.6221718437,-4.472924666 C -0.3257453045,-4.353959401 0.1106965022,-4.3489880011 0.4508462688,-4.4729243514" />
      <path d="M 0.5637248914,-4.5189466193 Q 0.6895995699,-4.5773143262 0.7851250314,-4.6551688252" />
      <path d="M 0.8368288389,-4.7011956358 Q 0.9030171932,-4.7655884082 0.9446962022,-4.8374126422" />
      <path d="M 0.9893357681,-4.9384132657 Q 1.0018311208,-4.9787105487 1.006360615,-5.0196577512" />
      <path d="M 0.8832294368,-5.3805902074 Q 0.8144341282,-5.461565477 0.7141112247,-5.5286133506" />
      <path d="M 0.7141112247,-4.7996357191 C 0.4730464708,-4.9631412739 0.1014381875,-5.0443739179 -0.2321828568,-5.0154485477 C -0.5494609128,-4.9909394511 -0.8215611688,-4.869950682 -0.9365821272,-4.7099354999" />
      <path d="M -1.0001860447,-4.4729162536 Q -0.9888980723,-4.4045077376 -0.945233141,-4.3402222695" />
      <path d="M -0.6221724311,-4.1084356244 C -0.3252501573,-3.9893705834 0.1108018511,-3.9845745589 0.4508451106,-4.1084351832" />
      <path d="M 0.5637347468,-4.1544624228 Q 0.6896259583,-4.2128458226 0.7851251311,-4.2906800251" />
      <path d="M 0.8368293814,-4.3367063066 Q 0.9030171581,-4.4011003361 0.9446935914,-4.4729294849" />
      <path d="M 0.989334562,-4.5739254846 Q 1.001836736,-4.6142351 1.0063587224,-4.6551844971" />
      <path d="M 0.883210671,-5.0161135267 Q 0.8144124608,-5.0970799688 0.7141112247,-5.1641245024" />
      <path d="M 0.7141112247,-4.4351469336 C 0.5087586005,-4.5736285209 0.2099928235,-4.6546500297 -0.0808362846,-4.6563574544 C -0.2947666818,-4.658589146 -0.5022919291,-4.619130563 -0.6629559726,-4.5480596172 C -0.8242841558,-4.4774292679 -0.9380441639,-4.3755907748 -0.9820796883,-4.2647508106 C -0.9966427989,-4.2284503514 -1.003936383,-4.1916875352 -1.0039604408,-4.154462362" />
      <path d="M -1.0001888996,-4.1084355921 Q -0.9888809824,-4.0399982649 -0.9452470188,-3.9757250115" />
      <path d="M -0.622172375,-3.7439468325 C -0.325322504,-3.6248537094 0.111034889,-3.6201283209 0.450841234,-3.7439450005" />
      <path d="M 0.5637315029,-3.7899721482 Q 0.6896236986,-3.8483522305 0.7851249692,-3.9261912333" />
      <path d="M 0.8368287881,-3.9722180731 Q 0.9030162593,-4.036609542 0.9446964772,-4.1084356285" />
      <path d="M 0.9893358013,-4.209435792 Q 1.0018318682,-4.2497366783 1.0063605979,-4.2906800852" />
      <path d="M 0.8832294799,-4.6516125249 Q 0.8144201388,-4.7325998602 0.7141112247,-4.7996357191" />
      <path d="M 0.7141112247,-4.0706580874 C 0.5391271329,-4.1883057556 0.2964302236,-4.2654204139 0.0483546315,-4.2858275556 C -0.1996391247,-4.3072870124 -0.451074826,-4.2720449859 -0.6413995022,-4.192763207 C -0.8689712017,-4.0998474684 -1.0055596277,-3.9459202505 -1.0039604481,-3.7899736996" />
      <path d="M 0.5637249018,-3.425480335 Q 0.6896005643,-3.4838488052 0.7851249645,-3.5617024278" />
      <path d="M 1.0089002732,-3.9722180094 C 1.0099898884,-4.1421147557 0.9014255126,-4.31100517 0.7141112247,-4.4351469336" />
      <path d="M 0.7141112247,-3.706169451 C 0.5485603616,-3.817326731 0.3230850467,-3.8924335724 0.0890875156,-3.9174093919 C -0.1263599766,-3.941084286 -0.347556255,-3.9223467419 -0.5306967689,-3.8673575117 C -0.7143876385,-3.8128820611 -0.8592320989,-3.7224915297 -0.9365827311,-3.6164687267" />
      <path d="M 0.8368288642,-3.2432404788 Q 0.9029931305,-3.3076030062 0.9446965012,-3.3794580331" />
      <path d="M 0.968410119,-3.4254848658 Q 0.9986707687,-3.4924155739 1.0063605882,-3.5617024901" />
      <path d="M 1.0089002915,-3.6077292801 C 1.0100059626,-3.7775857466 0.9014228903,-3.9465277533 0.7141112247,-4.0706580874" />
      <path d="M 0.7141112247,-3.3416806344 C 0.4972191873,-3.4881847981 0.1757249706,-3.569822152 -0.1299991036,-3.5626318108 C -0.4195137683,-3.5578065394 -0.6882597237,-3.4744390959 -0.8445098452,-3.3467109108" />
      <path d="M 0.5637345485,-2.6965072981 Q 0.6895869841,-2.7548636222 0.7851249981,-2.8327248228" />
      <path d="M 1.008900276,-3.2432404507 C 1.0099727274,-3.4131662519 0.9014472785,-3.582000342 0.7141112247,-3.706169451" />
      <path d="M 0.7141112247,-2.9771917925 C 0.5373275643,-3.096016023 0.2919184179,-3.173364628 0.0412219799,-3.1929486162 C -0.3782248625,-3.2299249931 -0.7910576903,-3.094589234 -0.9365829709,-2.8874909537" />
      <path d="M -1.0001888913,-2.6504804255 Q -0.9888804272,-2.5820418213 -0.9452469545,-2.5177697286" />
      <path d="M -0.6221724678,-2.2859916347 C -0.3252387654,-2.1668738551 0.1110997743,-2.1621951424 0.4508453227,-2.2859919722" />
      <path d="M 0.8368242875,-2.5142584531 Q 0.9030268007,-2.5786666962 0.9446964885,-2.6504804029" />
      <path d="M 0.989335815,-2.7514803478 Q 1.0018327229,-2.791784771 1.0063606278,-2.8327246638" />
      <path d="M 0.757197073,-3.3111535941 L 0.7141112247,-3.3416806344" />
      <path d="M 0.7141112247,-2.6127029817 C 0.5043417567,-2.7543095015 0.1965384936,-2.8356504277 -0.1000392961,-2.8339809318 C -0.4695608796,-2.8353871194 -0.806560005,-2.7056982607 -0.936583217,-2.5230020121" />
      <path d="M 1.0089002763,-2.5142629134 C 1.0100307362,-2.6840758429 0.9013939755,-2.8530986776 0.7141112247,-2.9771917925" />
      <path d="M 0.7141112247,-2.2482141667 C 0.4527178682,-2.4262197866 0.0366504634,-2.5051418828 -0.3163956712,-2.4549372864 C -0.5977357571,-2.4178342685 -0.8315862644,-2.3038626653 -0.9365820465,-2.1585139886" />
      <path d="M 1.0088819254,-2.1498108793 C 1.0099434245,-2.3197652217 0.9014692948,-2.4884806964 0.7141112247,-2.6127029817" />
      <path d="M 0.7141112247,-1.8837253342 C 0.5322754498,-2.0060745479 0.2770878037,-2.0843930233 0.0190038425,-2.1011214743 C -0.2390460813,-2.1190790833 -0.4976408565,-2.0754933673 -0.6854125026,-1.9864227733 C -0.8870085052,-1.8925370914 -1.0052007046,-1.7484848057 -1.0039604278,-1.6030408404" />
      <path d="M -1.0001889097,-1.5570140678 Q -0.9885564707,-1.4866635084 -0.942833739,-1.4207964423" />
      <path d="M -0.9059318606,-1.3747696481 Q -0.8358172224,-1.2980756582 -0.7233488706,-1.2385521221" />
      <path d="M -0.6221724362,-1.1925253403 C -0.3257525351,-1.0735178546 0.1110616826,-1.0686447619 0.4508461612,-1.1925252604" />
      <path d="M 0.8522240648,-1.4362140841 Q 0.908039659,-1.4938115727 0.944696485,-1.5570140435" />
      <path d="M 0.9991646488,-1.6953114666 L 1.0063605798,-1.7392584071" />
      <path d="M 0.7571963082,-2.2176877421 L 0.7141112247,-2.2482141667" />
      <path d="M 0.7141112247,-1.5192365377 C 0.5339666029,-1.6404228941 0.2819014063,-1.7184539881 0.0262830856,-1.7361274613 C -0.2292883123,-1.7549833906 -0.4861607581,-1.7135157363 -0.6746966083,-1.6268929586 C -0.8826082682,-1.5331801794 -1.0053603399,-1.3864802429 -1.0039604534,-1.2385520854" />
      <path d="M -1.0001889073,-1.1925253209 Q -0.9885722844,-1.1222119567 -0.9428337235,-1.0563077249" />
      <path d="M -0.9059320425,-1.0102811755 Q -0.8357549766,-0.9335399415 -0.7233495647,-0.8740629462" />
      <path d="M -0.6221727524,-0.8280364287 C -0.3257168813,-0.7090230353 0.1110675236,-0.704161132 0.45084626,-0.8280364842" />
      <path d="M 0.8368288186,-1.0563076655 Q 0.9030047933,-1.1206849438 0.9446966892,-1.1925256485" />
      <path d="M 0.9893357309,-1.2935253959 Q 1.001834035,-1.3338367161 1.0063605994,-1.3747698565" />
      <path d="M 0.7571959995,-1.8531991694 L 0.7141112247,-1.8837253342" />
      <path d="M 0.7141112247,-1.1547477724 C 0.5191423901,-1.2861064052 0.2398880685,-1.3661721236 -0.0369185758,-1.3749953519 C -0.2645125952,-1.3832528628 -0.4883018501,-1.3442008349 -0.65940878,-1.2692131408 C -0.8313546915,-1.1947846814 -0.9496918344,-1.0849620736 -0.9886506604,-0.9664912602 C -0.9988445528,-0.9359574843 -1.0039478121,-0.9051481594 -1.0039604384,-0.8740632855" />
      <path d="M -1.0001882638,-0.828032627 Q -0.988558579,-0.7576918353 -0.9428337384,-0.6918189875" />
      <path d="M -0.9059288838,-0.6457889156 Q -0.8358191916,-0.5690999813 -0.7233487769,-0.5095745107" />
      <path d="M 0.5637339592,-0.5095748575 Q 0.6896278246,-0.5679564488 0.7851190979,-0.6457874562" />
      <path d="M 0.883229358,-1.3712135581 Q 0.8144225526,-1.4521985426 0.7141112247,-1.5192365377" />
      <path d="M 0.7141112247,-0.7902590232 C 0.3932232606,-1.0117248794 -0.1626802151,-1.0723056661 -0.5457359261,-0.9468566748 C -0.8280113966,-0.8604105957 -1.0066336961,-0.6867207717 -1.003960417,-0.5095745271" />
      <path d="M -1.0001831297,-0.4635125444 Q -0.9885433649,-0.3931774458 -0.9428337233,-0.3273301338" />
      <path d="M -0.9059318013,-0.2813032609 Q -0.8358110262,-0.204605244 -0.7233481504,-0.1450854059" />
      <path d="M -0.622167979,-0.099057207 C -0.325652309,0.0199570095 0.1110463796,0.0248185807 0.4508462689,-0.0990589316" />
      <path d="M 0.8368247272,-0.3273260093 Q 0.9030188621,-0.3917248959 0.9446956432,-0.4635470192" />
      <path d="M 0.9893357074,-0.564547691 Q 1.0018318914,-0.6048494831 1.0063605369,-0.6457926363" />
      <path d="M 0.8832295027,-1.0067246045 Q 0.8144266431,-1.0877061851 0.7141112247,-1.1547477724" />
      <path d="M 0.7141112247,-0.4257702461 C 0.4598455559,-0.5986750663 0.0595741599,-0.678626716 -0.2871913158,-0.6361600634 C -0.4928518932,-0.6125783596 -0.6775061144,-0.5489902487 -0.8051266531,-0.4602078245 C -0.9335514162,-0.3717717668 -1.0044451017,-0.2586223353 -1.0039604346,-0.1450858176" />
      <path d="M -1.000188879,-0.0990588701 Q -0.9888878457,-0.0306380271 -0.9452469358,0.0336517814" />
      <path d="M -0.6221747257,0.2654305518 C -0.3258974543,0.384327057 0.1106353251,0.3894149252 0.4508395827,0.2654321731" />
      <path d="M 0.5637345987,0.21940303 Q 0.689606695,0.1610347404 0.7851249372,0.0831854758" />
      <path d="M 0.8368288607,0.0371585901 Q 0.9030118913,-0.0272272838 0.9446966367,-0.0990591397" />
      <path d="M 0.9893357039,-0.2000587791 Q 1.0018281868,-0.2403548929 1.0063543074,-0.2812463851" />
      <path d="M 0.8832295223,-0.6422357606 Q 0.8144250129,-0.723219001 0.7141112247,-0.7902590232" />
      <path d="M 0.7141112247,-0.0612815056 C 0.532198608,-0.1836833649 0.2768741664,-0.2620119975 0.0186871214,-0.2786987672 C -0.2394680915,-0.2966150565 -0.4981128263,-0.2529430882 -0.6858539227,-0.1637711012 C -0.797424768,-0.1107665354 -0.881000628,-0.0467033423 -0.9365815028,0.0284184779" />
      <path d="M -1.0001845994,0.2654048743 Q -0.9888828807,0.3338590756 -0.9452474856,0.3981408185" />
      <path d="M -0.6221723778,0.6299187166 Q -0.5805025779,0.64620103 -0.535587813,0.6598056136" />
      <path d="M 0.4110030506,0.6434537132 L 0.4508462223,0.629918615" />
      <path d="M 0.5637241062,0.5838958728 Q 0.6896181563,0.5255058752 0.7851238742,0.4476732766" />
      <path d="M 0.8368293976,0.4016478885 Q 0.9030183305,0.3372547063 0.9446923889,0.2654228756" />
      <path d="M 0.9893313815,0.1644265326 Q 1.0018320766,0.124126566 1.0063572807,0.0832093413" />
      <path d="M 0.883218139,-0.2777542253 Q 0.8144178022,-0.358724773 0.7141112247,-0.4257702461" />
      <path d="M 0.7141112247,0.3032072708 C 0.4388651854,0.1152417671 -0.0084074184,0.0389909369 -0.3722676391,0.1050866757 C -0.7471254984,0.1670797634 -1.0090890706,0.3711718316 -1.0039324926,0.5839579249" />
      <path d="M -1.000179536,0.6298616868 Q -0.9918251447,0.680764794 -0.9653567925,0.729681178" />
      <path d="M 0.8759388255,0.7250099612 Q 0.9161947354,0.679088937 0.9446964955,0.6299187389" />
      <path d="M 0.9893357949,0.5289186117 Q 1.0018330375,0.4886122367 1.0063606111,0.4476742446" />
      <path d="M 0.8832300022,0.0867422997 Q 0.8144182092,0.0057526481 0.7141112247,-0.0612815056" />
      <path d="M 0.7141112247,0.6676961914 C 0.5035972199,0.5256309223 0.1947420353,0.44426953 -0.1028644025,0.4464264123 C -0.4578179137,0.4459267472 -0.7829871891,0.5656310707 -0.9213664573,0.7378798945" />
      <path d="M 1.0088666804,0.7608769676 C 1.0077468793,0.5926081908 0.8994593878,0.4261091471 0.7141112247,0.3032072708" />
      <path d="M 0.7567303011,0.6978724248 L 0.7141112247,0.6676961914" />
      <path d="M 0.7141112381,-6.2575908765 L 0.8863380318,-6.472036243" />
      <line x1="0.7141112247" y1="0.6676961914" x2="0.7141112247" y2="0.6892600693" />
      <line x1="0.7141112247" y1="0.3032072708" x2="0.7141112247" y2="0.3952609418" />
      <line x1="0.7141112247" y1="-0.0612815056" x2="0.7141112247" y2="0.0307723054" />
      <line x1="0.7141112247" y1="-0.4257702461" x2="0.7141112247" y2="-0.3337165112" />
      <line x1="0.7141112247" y1="-0.7902590232" x2="0.7141112247" y2="-0.698205353" />
      <line x1="0.7141112247" y1="-1.1547477724" x2="0.7141112247" y2="-1.0626941638" />
      <line x1="0.7141112247" y1="-1.5192365377" x2="0.7141112247" y2="-1.4639237188" />
      <line x1="0.7141112247" y1="-1.8837253342" x2="0.7141112247" y2="-1.873973774" />
      <line x1="0.7141112247" y1="-2.2482141667" x2="0.7141112247" y2="-2.2384624871" />
      <line x1="0.7141112247" y1="-2.6127029817" x2="0.7141112247" y2="-2.5573901667" />
      <line x1="0.7141112247" y1="-2.9771917925" x2="0.7141112247" y2="-2.8851381224" />
      <line x1="0.7141112247" y1="-3.3416806344" x2="0.7141112247" y2="-3.3319287409" />
      <line x1="0.7141112247" y1="-3.706169451" x2="0.7141112247" y2="-3.61411564" />
      <line x1="0.7141112247" y1="-4.0706580874" x2="0.7141112247" y2="-3.9786044164" />
      <line x1="0.7141112247" y1="-4.4351469336" x2="0.7141112247" y2="-4.343093337" />
      <line x1="0.7141112247" y1="-4.7996357191" x2="0.7141112247" y2="-4.7075820715" />
      <line x1="0.7141112247" y1="-5.1641245024" x2="0.7141112247" y2="-5.0720708763" />
      <line x1="0.7141112247" y1="-5.5286133506" x2="0.7141112247" y2="-5.4365596911" />
      <line x1="0.7141112247" y1="-5.8931021384" x2="0.7141112247" y2="-5.8010484198" />
      <line x1="0.7141112247" y1="-6.2575908844" x2="0.7141112247" y2="-6.2022780423" />
      <path d="M -0.6420003923,-6.4928844978 C -0.6386960196,-6.4935794917 -0.6335799328,-6.4947471721 -0.626652132,-6.4963875388 C -0.6165360979,-6.4987107119 -0.6079582448,-6.5011274642 -0.5683303809,-6.5102214348 C -0.5391225794,-6.5169379491 -0.481235601,-6.5287346793 -0.4208980935,-6.5360330046 C -0.3487636276,-6.5450915871 -0.273041043,-6.549008576 -0.1937303397,-6.5477839712 C 0.1295754917,-6.5438765714 0.482225784,-6.4384873958 0.7141112247,-6.2575908869" />
      <path d="M -0.6420003923,-6.4928844978 L -0.6420003923,-6.5384455966" />
      <path d="M -0.6420003923,-6.5384455966 C -0.6352341976,-6.5424470341 -0.6293654922,-6.5463595183 -0.6056824021,-6.5584150727 C -0.5965450656,-6.563568449 -0.5739366535,-6.5737247291 -0.5378571657,-6.5888839129 C -0.5047234633,-6.6024981401 -0.46526105,-6.6161061308 -0.4194699258,-6.629707885 C -0.2087517634,-6.6916315305 0.0414307524,-6.7077519756 0.2678682645,-6.6743447695" />
      <path d="M 1.0061440239,-6.1150334165 A 1.0064303551856266,0.590235454097734 -1.963365736521791e-15 0,1 0.9976044153,-6.0705028146" />
      <path d="M 0.7588187853,-5.7692992014 A 1.0064303551856266,0.590235454097734 -1.963365736521791e-15 0,1 0.4921000764,-5.6430094034" />
      <path d="M 0.3364967187,-5.6019068301 A 1.0064303551856266,0.590235454097734 -1.963365736521791e-15 0,1 -0.4254291401,-5.6244546297" />
      <path d="M -0.5755113171,-5.6754879969 A 1.0064303551856266,0.590235454097734 -1.963365736521791e-15 0,1 -0.8240567697,-5.8219127281" />
      <path d="M -0.8761014624,-5.8707719019 A 1.0064303551856266,0.590235454097734 -1.963365736521791e-15 0,1 -0.9735193204,-6.0146173856" />
      <path d="M -1.0039604302,-6.1586860728 A 1.0064303551856266,0.590235454097734 -1.963365736521791e-15 0,1 0.6846578725,-6.5926385979" />
      <path d="M 0.8863380318,-6.5175973419 Q 0.656047607,-6.6202929576 0.3822313763,-6.6581915037" />
      <path d="M 0.3822313763,-6.6581915037 C 0.0172838719,-6.7094654215 -0.3661534363,-6.6597942473 -0.6420003923,-6.5384455966" />
      <path d="M 0.8863380318,-6.472036243 C 0.6381338317,-6.5843696878 0.3270216065,-6.6405884478 0.0304183035,-6.631825682 C -0.2176532879,-6.6252514745 -0.453811168,-6.5749460004 -0.6420003923,-6.4928844978" />
      <line x1="-0.7282262241" y1="3.0508733457" x2="-0.9108986662" y2="2.9437462254" />
      <path d="M 0.7331277901,3.0508583777 A 1.0333333333333334,0.6060130898196459 -1.963365736521791e-15 0,1 -0.7282262241,3.0508733457" />
      <line x1="0.9157938516" y1="2.9437275153" x2="0.7331277901" y2="3.0508583777" />
      <line x1="1.2811387358" y1="3.1579817559" x2="0.9157938516" y2="2.9437275153" />
      <line x1="1.2811387358" y1="3.1579817559" x2="1.0984726743" y2="3.2651126183" />
      <path d="M 1.0984981969,4.1221445487 A 1.0333333333333334,0.6060130898196459 -1.963365736521791e-15 0,1 0.8904489486,3.9469538161" />
      <path d="M 0.8904489486,3.9469538161 A 1.0333333333333334,0.6060130898196459 -1.963365736521791e-15 0,1 1.0984726743,3.2651126183" />
      <line x1="1.0984981969" y1="4.1221445487" x2="1.281170639" y2="4.229271669" />
      <line x1="0.9158385161" y1="4.4435333937" x2="1.281170639" y2="4.229271669" />
      <line x1="0.733166074" y1="4.3364062734" x2="0.9158385161" y2="4.4435333937" />
      <path d="M -0.7281879403,4.3364212414 A 1.0333333333333334,0.6060130898196459 -1.963365736521791e-15 0,1 0.733166074,4.3364062734" />
      <line x1="-0.9108540017" y1="4.4435521037" x2="-0.7281879403" y2="4.3364212414" />
      <line x1="-1.2761988859" y1="4.2292978631" x2="-0.9108540017" y2="4.4435521037" />
      <line x1="-1.2761988859" y1="4.2292978631" x2="-1.0935328244" y2="4.1221670008" />
      <path d="M -1.093558347,3.2651350704 A 1.0333333333333334,0.6060130898196459 -1.963365736521791e-15 0,1 -0.8855090987,3.9469912362" />
      <path d="M -0.8855090987,3.9469912362 A 1.0333333333333334,0.6060130898196459 -1.963365736521791e-15 0,1 -1.0935328244,4.1221670008" />
      <line x1="-1.093558347" y1="3.2651350704" x2="-1.2762307891" y2="3.1580079501" />
      <line x1="-0.9108986662" y1="2.9437462254" x2="-1.2762307891" y2="3.1580079501" />
      <path d="M 0.5781391816,3.5489288202 Q 0.4483336607,3.3803762348 0.3378474363,3.1955503464" />
      <line x1="0.9158385161" y1="4.4435333937" x2="0.915833355" y2="3.977076799" />
      <path d="M -0.573215487,3.5489868299 Q -0.443396351,3.3804156544 -0.3329003764,3.1955646373" />
      <line x1="-0.9108540017" y1="4.4435521037" x2="-0.910859163" y2="3.9770761574" />
      <path d="M 1.4849895103,2.4914431578 A 2.096635922126162,1.229602077478585 -1.963365736521791e-15 0,1 2.0948949683,3.4388091295" />
      <path d="M -2.0899551185,3.4388091295 A 2.096635922126162,1.229602077478585 -1.963365736521791e-15 0,1 1.4849895103,2.4914431578" />
      <path d="M 1.1680078346,3.0100695813 A 1.6483483079848769,0.9666974044073229 -1.963365736521791e-15 0,1 -1.1630679847,4.3772100378 A 1.6483483079848769,0.9666974044073229 -1.963365736521791e-15 0,1 1.1680078346,3.0100695813" />
      <line x1="1.0984726743" y1="3.2651126183" x2="0.9904811372" y2="2.9875274106" />
      <line x1="0.733166074" y1="4.3364062734" x2="0.8865867224" y2="3.942031578" />
      <line x1="-0.7281879403" y1="4.3364212414" x2="-0.8816198392" y2="3.9420345454" />
      <line x1="-1.093558347" y1="3.2651350704" x2="-0.9855668098" y2="2.9875379542" />
      <line x1="2.0948949683" y1="3.4388091295" x2="2.2479510302" y2="2.0246531884" />
      <line x1="-2.0899551185" y1="3.4388091295" x2="-2.2430111803" y2="2.0246531884" />
      <path d="M 1.2524700131,-5.9080991111 L 1.2524700131,-5.95366021" />
      <path d="M -1.2475299883,-5.725854692 L -1.2475299883,-5.7714157909" />
      <path d="M 1.2524699673,-5.5436099831 L 1.2524699673,-5.5891710819" />
      <path d="M -1.2475301493,-5.3613658438 L -1.2475301493,-5.4069269427" />
      <path d="M 1.2524698674,-5.1791215455 L 1.2524698674,-5.2246826443" />
      <path d="M -1.2475301164,-4.9968771845 L -1.2475301164,-5.0424382833" />
      <path d="M 1.2524697346,-4.8146326529 L 1.2524697346,-4.8601937517" />
      <path d="M -1.2475301219,-4.6323885572 L -1.2475301219,-4.677949656" />
      <path d="M 1.2524696335,-4.4501439711 L 1.2524696335,-4.4957050699" />
      <path d="M -1.2475302608,-4.2678996308 L -1.2475302608,-4.3134607297" />
      <path d="M 1.2524700189,-4.0856554998 L 1.2524700189,-4.1312165987" />
      <path d="M -1.2475299523,-3.9034113807 L -1.2475299523,-3.9489724796" />
      <path d="M 1.2524698834,-3.7211665321 L 1.2524698834,-3.766727631" />
      <path d="M -1.2475299301,-3.5389221302 L -1.2475299301,-3.5844832291" />
      <path d="M 1.2524699471,-3.3566774488 L 1.2524699471,-3.4022385477" />
      <path d="M -1.2475300434,-3.1744331337 L -1.2475300434,-3.2199942326" />
      <path d="M 1.2524699752,-2.9921888136 L 1.2524699752,-3.0377499124" />
      <path d="M -1.2475300282,-2.8099439698 L -1.2475300282,-2.8555050686" />
      <path d="M 1.2524698368,-2.6276998144 L 1.2524698368,-2.6732609133" />
      <path d="M -1.247530133,-2.4454551799 L -1.247530133,-2.4910162787" />
      <path d="M 1.2524698873,-2.2632106259 L 1.2524698873,-2.3087717248" />
      <path d="M -1.2475302765,-2.0809667914 L -1.2475302765,-2.1265278903" />
      <path d="M 1.2524698105,-1.8987235188 L 1.2524698105,-1.9442846176" />
      <path d="M -1.2475302185,-1.7164776556 L -1.2475302185,-1.7620387545" />
      <path d="M 1.2524697751,-1.5342338289 L 1.2524697751,-1.5797949277" />
      <path d="M -1.2475301632,-1.3519890261 L -1.2475301632,-1.397550125" />
      <path d="M 1.2524698382,-1.1697446699 L 1.2524698382,-1.2153057688" />
      <path d="M -1.2475301174,-0.9875005359 L -1.2475301174,-1.0330616348" />
      <path d="M 1.2524699992,-0.8052559493 L 1.2524699992,-0.8508170482" />
      <path d="M -1.2475300176,-0.6230114403 L -1.2475300176,-0.6685725392" />
      <path d="M 1.2524699662,-0.4407669983 L 1.2524699662,-0.4863280971" />
      <path d="M -1.2475298847,-0.2585227395 L -1.2475298847,-0.3040838384" />
      <path d="M 1.2524699718,-0.0762779998 L 1.2524699718,-0.1218390987" />
      <path d="M -1.2475297836,0.1059661576 L -1.2475297836,0.0604050588" />
      <path d="M 1.2524701107,0.2882106362 L 1.2524701107,0.2426495373" />
      <path d="M -1.247530169,0.4704551963 L -1.247530169,0.4248940974" />
      <path d="M 1.2524698022,0.6527000433 L 1.2524698022,0.6071389444" />
      <path d="M -1.2475300335,0.8349438312 L -1.2475300335,0.7893827323" />
      <path d="M 2.0948949683,3.4388091295 C 2.060634867,3.7670178627 1.8614164049,4.0770104965 1.5459843901,4.3030154374 C 1.3757507797,4.4253831634 1.1790450218,4.5235865474 0.9558671164,4.5976255894 C 0.4990742075,4.7502508229 -0.0477441205,4.7865745573 -0.5442621746,4.699128673 C -0.9281972749,4.6324889989 -1.2797237025,4.4940336621 -1.5470429782,4.2986594931 C -1.6712811458,4.2081304059 -1.7760638979,4.1068981587 -1.8613912345,3.9949627517 C -1.9914413634,3.8230464851 -2.0676293248,3.6376619443 -2.0899551185,3.4388091295" />
      <line x1="-1.0039604302" y1="0.6759455082" x2="-1.0039604302" y2="0.5838918768" />
      <line x1="-1.0039604302" y1="-0.0530319637" x2="-1.0039604302" y2="-0.1450858037" />
      <line x1="1.0089002801" y1="-0.2352764979" x2="1.0089002801" y2="-0.327330125" />
      <line x1="-1.0039604302" y1="-0.4175208023" x2="-1.0039604302" y2="-0.509574543" />
      <line x1="-1.0039604302" y1="-0.7820096385" x2="-1.0039604302" y2="-0.8740632981" />
      <line x1="-1.0039604302" y1="-1.1464984686" x2="-1.0039604302" y2="-1.2385520622" />
      <line x1="-1.0039604302" y1="-1.5109872694" x2="-1.0039604302" y2="-1.6030408449" />
      <line x1="1.0089002801" y1="-1.6932315917" x2="1.0089002801" y2="-1.785285347" />
      <line x1="-1.0039604302" y1="-1.8754760911" x2="-1.0039604302" y2="-1.9675296212" />
      <line x1="1.0089002801" y1="-2.0577203948" x2="1.0089002801" y2="-2.1497741007" />
      <line x1="1.0089002801" y1="-2.4222092103" x2="1.0089002801" y2="-2.514262904" />
      <line x1="1.0089002801" y1="-3.1511868173" x2="1.0089002801" y2="-3.2432404544" />
      <line x1="1.0089002801" y1="-3.5156756094" x2="1.0089002801" y2="-3.6077292701" />
      <line x1="-1.0039604302" y1="-4.0624087456" x2="-1.0039604302" y2="-4.1544623657" />
      <line x1="1.0089002801" y1="-4.6091418631" x2="1.0089002801" y2="-4.7011956866" />
      <line x1="-1.0039604302" y1="-4.7913863852" x2="-1.0039604302" y2="-4.8834400108" />
      <line x1="1.0089002801" y1="-4.9736306855" x2="1.0089002801" y2="-5.0656844288" />
      <line x1="-1.0039604302" y1="-5.1558751874" x2="-1.0039604302" y2="-5.2479288037" />
      <line x1="-1.0039604302" y1="-5.5203639854" x2="-1.0039604302" y2="-5.6124176419" />
      <line x1="-1.0039604302" y1="-5.8848527155" x2="-1.0039604302" y2="-6.1586860728" />
      <path d="M 0.2678682661,-6.6743447693 L 0.3822313763,-6.6581915037" />
      <line x1="0.8904489486" y1="3.9469538161" x2="0.5781393119" y2="3.5489288651" />
      <line x1="-0.8855090987" y1="3.9469912362" x2="-0.5732156176" y2="3.5489868748" />
    </g>
  </g>
</svg>