<?xml version='1.0' encoding='utf-8'?>
<svg width="278.6072741559mm" height="513.0000000023mm" viewBox="-2.8094199396 -5.0696143629 5.65968595 10.4211883956" version="1.1" xmlns="http://www.w3.org/2000/svg">
  <g transform="scale(1,-1)" stroke-linecap="round">
    <g fill="none" stroke="rgb(64,192,64)" stroke-width="0.02031420739874046" id="Visible">
      <line x1="-0.2935475017" y1="2.7419681331" x2="0.8776206282" y2="2.9280895889" />
      <line x1="-1.1507450947" y1="3.2508090823" x2="-0.2935475017" y2="2.7419681331" />
      <line x1="-0.8367745577" y1="3.9457714873" x2="-1.1507450947" y2="3.2508090823" />
      <line x1="0.3343935722" y1="4.1318929432" x2="-0.8367745577" y2="3.9457714873" />
      <line x1="1.1915911652" y1="3.623051994" x2="0.3343935722" y2="4.1318929432" />
      <line x1="0.8776206282" y1="2.9280895889" x2="1.1915911652" y2="3.623051994" />
      <line x1="-0.8367745577" y1="3.9457714873" x2="-0.8367745577" y2="3.0644330736" />
      <line x1="0.3343935722" y1="4.1318929432" x2="0.3343935722" y2="3.166037688" />
      <line x1="0.3343935722" y1="3.166037688" x2="-0.7244642016" y2="2.997764538" />
      <line x1="0.765310272" y1="2.9102412831" x2="0.3343935722" y2="3.166037688" />
      <path d="M -0.8578105374,1.4998299413 A 1.3000000000000003,0.7714699749204571 1.9757958541112684e-15 0,1 -0.5153841984,1.3657402346" />
      <path d="M 0.9384690187,1.5214778586 C 0.5411550013,1.3004371365 -0.0581021337,1.241754099 -0.5153841984,1.3657402346" />
      <path d="M 0.8895912748,-4.3736987356 C 0.5439617398,-4.6097954402 -0.0238229965,-4.6986265005 -0.4745316899,-4.602400808 C -0.9131111851,-4.5162321465 -1.2144962656,-4.2673005051 -1.208944032,-4.0086574914" />
      <path d="M -1.2053610876,-3.95788987 Q -1.1944056744,-3.8807925048 -1.1512199545,-3.8074348093" />
      <path d="M -1.1169352118,-3.7566688152 Q -1.0545297609,-3.6750570921 -0.9545556008,-3.6062177519" />
      <path d="M -0.8719746626,-3.5554495568 Q -0.6804085689,-3.4504047696 -0.4219017179,-3.4049981789" />
      <path d="M 0.2525155451,-3.4049979136 Q 0.5162986642,-3.4493086731 0.7352188699,-3.5554498413" />
      <path d="M 0.8298889773,-3.6062177428 Q 0.9450630405,-3.6740097493 1.0320904661,-3.7566697311" />
      <path d="M 1.0815395152,-4.6121799551 Q 1.0014952319,-4.7014752201 0.8895912748,-4.7761383564" />
      <path d="M 0.8895912748,-3.9712589969 C 0.5431392703,-4.2079585936 -0.0265808094,-4.296548302 -0.4777318292,-4.19930478 C -0.9149078484,-4.1125945739 -1.2145498835,-3.8638793265 -1.2089438465,-3.6062248482" />
      <path d="M -1.2053588802,-3.5554478087 Q -1.1944048124,-3.4783615447 -1.1512216207,-3.4049979306" />
      <path d="M -1.1169361858,-3.3542304218 Q -1.054503737,-3.2725932446 -0.954554045,-3.2037770183" />
      <path d="M -0.8719750763,-3.1530101276 Q -0.6805853248,-3.0480263404 -0.4219003954,-3.0025582013" />
      <path d="M 0.2525151089,-3.002558171 Q 0.5162056128,-3.0468400069 0.7352187431,-3.1530101159" />
      <path d="M 0.8298889818,-3.2037781162 Q 0.9450814288,-3.2715836531 1.0320905276,-3.3542300389" />
      <path d="M 1.081416838,-3.4049979481 Q 1.1458569541,-3.4770049324 1.1863557843,-3.5554497636" />
      <path d="M 1.2361208073,-3.6893862251 Q 1.2439170859,-3.7228864621 1.2472723029,-3.7566696068" />
      <path d="M 1.0815394809,-4.2097403461 Q 1.0015020182,-4.2990300229 0.8895912748,-4.3736987356" />
      <path d="M 0.8895912748,-3.5688191872 C 0.6538990571,-3.7273374689 0.3175683796,-3.8238711187 -0.0170209729,-3.8343345945 C -0.3001554409,-3.8444501698 -0.5793732255,-3.7938202336 -0.7914706778,-3.6971939666 C -1.0046851445,-3.6013222078 -1.1496457197,-3.4600933428 -1.193534487,-3.3087755102 C -1.2037977144,-3.2740266854 -1.2089342231,-3.2390275477 -1.208944013,-3.2037780969" />
      <path d="M -1.2053583557,-3.1529911227 Q -1.1944005911,-3.0759053407 -1.1512204681,-3.0025562974" />
      <path d="M -1.1169358548,-2.951790297 Q -1.0545178177,-2.8701665209 -0.9545556081,-2.8013384227" />
      <path d="M -0.8719750804,-2.7505704407 Q -0.680575995,-2.6455822247 -0.4219008331,-2.6001185047" />
      <path d="M 0.2525145962,-2.6001184934 Q 0.5163061185,-2.644433888 0.7352187878,-2.7505704497" />
      <path d="M 0.8298891428,-2.8013384593 Q 0.9450448469,-2.8691167829 1.0320905696,-2.9517902661" />
      <path d="M 1.0814168256,-3.0025581491 Q 1.1458359604,-3.0745344521 1.1863557646,-3.1530101389" />
      <path d="M 1.2361208481,-3.2869467026 Q 1.2439175382,-3.3204494502 1.2472723146,-3.3542298389" />
      <path d="M 1.2497901144,-3.4049979638 C 1.2511245853,-3.613008219 1.1184839094,-3.8197958037 0.8895912748,-3.9712589969" />
      <path d="M 0.8895912748,-3.1663795306 C 0.6769382838,-3.3090972899 0.3829074323,-3.4021995677 0.0815473899,-3.4261939433 C -0.213412845,-3.4508241699 -0.5123489026,-3.4093225732 -0.7432446274,-3.3153819674 C -1.0344830343,-3.1992405342 -1.2111065841,-3.0017540619 -1.2089439753,-2.8013383997" />
      <path d="M -1.2053610331,-2.7505704364 Q -1.1944042319,-2.6734706331 -1.1512216195,-2.6001185616" />
      <path d="M -1.1169358666,-2.5493506625 Q -1.0545143021,-2.4677235327 -0.9545556092,-2.3988986953" />
      <path d="M 0.2525143389,-2.1976788673 Q 0.5161517102,-2.241944001 0.7352190157,-2.348130754" />
      <path d="M 0.8298892494,-2.3988987261 Q 0.9451055144,-2.4667215092 1.0320904763,-2.5493505485" />
      <path d="M 1.0814167967,-2.6001185087 Q 1.1458569954,-2.6721255397 1.1863557874,-2.7505704727" />
      <path d="M 1.2096891036,-2.8013384281 Q 1.239667744,-2.8754904118 1.2472723026,-2.9517902512" />
      <path d="M 1.2497900716,-3.0025581171 C 1.251087884,-3.2106546252 1.118483289,-3.4173435675 0.8895912748,-3.5688191872" />
      <path d="M 0.8895912748,-2.7639399775 C 0.5466777245,-2.998073679 -0.0148522214,-3.0876300864 -0.4638295898,-2.9947915078 C -0.9082080795,-2.9103910737 -1.2147689532,-2.6594569494 -1.2089440306,-2.398898728" />
      <path d="M -1.205361004,-2.3481306778 Q -1.1991037461,-2.3039285186 -1.1820989218,-2.2606803115" />
      <path d="M 0.2525146167,-1.7952392022 Q 0.5161871764,-1.8395162596 0.7352191393,-1.9456910843" />
      <path d="M 0.829889183,-1.9964589701 Q 0.9450378117,-2.0642325095 1.0320904573,-2.1469108557" />
      <path d="M 1.0814168538,-2.1976788983 Q 1.1458541938,-2.2696819128 1.1863557973,-2.3481307566" />
      <path d="M 1.2096891051,-2.3988986175 Q 1.2396677437,-2.4730507706 1.2472722544,-2.5493511464" />
      <path d="M 1.24979003,-2.6001184497 C 1.2511022559,-2.8081960602 1.1184623881,-3.0149259411 0.8895912748,-3.1663795306" />
      <path d="M 0.8895912748,-2.361500343 C 0.5607611358,-2.5854636291 0.0313731135,-2.6783642686 -0.407674022,-2.6025218066 C -0.6398203016,-2.5645402806 -0.8446574801,-2.4835728634 -0.9862746696,-2.3760454715" />
      <path d="M -1.2053610356,-1.9456910886 Q -1.1991136121,-1.901525796 -1.1820989202,-1.8582405751" />
      <path d="M 0.2525151321,-1.3927994728 Q 0.5162172747,-1.4370848697 0.7352190526,-1.5432513875" />
      <path d="M 0.8298890252,-1.5940192795 Q 0.9450523623,-1.6618031749 1.0320904964,-1.7444712281" />
      <path d="M 1.0814168973,-1.7952392306 Q 1.1458545609,-1.8672426786 1.1863557474,-1.9456910293" />
      <path d="M 1.2096890713,-1.9964589617 Q 1.2396680617,-2.0706125178 1.2472722831,-2.1469110581" />
      <path d="M 1.2497900817,-2.1976788649 C 1.2510993268,-2.405727642 1.1184892565,-2.6124756205 0.8895912748,-2.7639399775" />
      <path d="M 0.8895912748,-1.9590605729 C 0.5562891387,-2.186239143 0.0168281845,-2.2781628609 -0.425583315,-2.1970378466 C -0.6504364544,-2.1579184667 -0.8482549818,-2.0783535033 -0.9862748264,-1.9736057096" />
      <path d="M -1.2053610261,-1.5432512498 Q -1.196298645,-1.4793248037 -1.1649071129,-1.4176991147" />
      <path d="M 0.8298890241,-1.1915795945 Q 0.9450492403,-1.2593612122 1.0320905548,-1.3420315562" />
      <path d="M 1.081416579,-1.3927992109 Q 1.1458586945,-1.4648092002 1.1863557202,-1.5432513508" />
      <path d="M 1.2096890844,-1.5940193873 Q 1.2396670943,-1.6681693578 1.2472723155,-1.744471187" />
      <path d="M 1.2497901119,-1.7952390906 C 1.2511074752,-2.003288834 1.1184900935,-2.2100228692 0.8895912748,-2.361500343" />
      <path d="M 0.8895912748,-1.5566207717 C 0.5702430826,-1.7737870256 0.0620854516,-1.8684780941 -0.3692378549,-1.8035643667 C -0.8277442761,-1.7412172199 -1.1717524426,-1.5056147394 -1.2049068866,-1.2454634419 C -1.2075973758,-1.2275391297 -1.2089430799,-1.2095778315 -1.2089439988,-1.1915795471" />
      <path d="M -1.2053610402,-1.1408117687 Q -1.1962963681,-1.0768781377 -1.1649071793,-1.0152594944" />
      <path d="M 1.1086204837,-1.0223637307 Q 1.1548376809,-1.0797260942 1.1863557795,-1.1408116469" />
      <path d="M 1.2096891543,-1.1915796788 Q 1.2396722015,-1.2657494075 1.2472723023,-1.3420314548" />
      <path d="M 1.2497900943,-1.3927993991 C 1.2511687731,-1.6007158286 1.1184527697,-1.8076485272 0.8895912748,-1.9590605729" />
      <path d="M 0.8895912748,-1.1541810508 C 0.605588572,-1.3462912705 0.1734441826,-1.4447070496 -0.2226254009,-1.4164307314 C -0.5188819479,-1.3973010516 -0.7903302846,-1.3104195644 -0.9688308634,-1.1815633212 C -1.1240101983,-1.0709008548 -1.209537532,-0.9302087637 -1.2089440166,-0.789139835" />
      <path d="M -1.2053610545,-0.7383719484 Q -1.1944125205,-0.6612952364 -1.1512215813,-0.5879200335" />
      <path d="M -1.116935878,-0.5371522137 Q -1.054484939,-0.4554974588 -0.954555469,-0.3867002659" />
      <path d="M -0.8719752019,-0.3359324214 Q -0.6805733621,-0.2309447473 -0.4219007785,-0.1854803646" />
      <path d="M 1.249789899,-0.9903597961 C 1.2510925382,-1.198443361 1.1184842993,-1.4051462239 0.8895912748,-1.5566207717" />
      <path d="M 0.8895912748,-0.7517414146 C 0.57446546,-0.9658743137 0.0757874555,-1.0612474183 -0.351846986,-1.0010958625 C -0.7903113664,-0.9452342049 -1.1312041691,-0.7320846897 -1.1950659406,-0.4863787956 C -1.2043093694,-0.4533712585 -1.208935391,-0.4201450633 -1.2089440056,-0.3867002101" />
      <path d="M -1.2053610417,-0.3359322882 Q -1.1944055002,-0.2588361348 -1.1512215741,-0.1854804206" />
      <path d="M -1.1169358309,-0.1347125288 Q -1.0545141133,-0.0530852781 -0.9545554925,0.0157394909" />
      <path d="M -0.8719752291,0.0665073653 Q -0.6805630839,0.1715005431 -0.4219003549,0.2169593527" />
      <path d="M 0.2525150527,0.2169592699 Q 0.5162282882,0.1726685497 0.7352188775,0.0665073656" />
      <path d="M 1.249790043,-0.5879202062 Q 1.248232481,-0.8023494259 1.0815378247,-0.9902240564" />
      <path d="M 0.9218018689,-1.1319163696 L 0.8895912748,-1.1541810508" />
      <path d="M 0.8895912748,-0.3493017873 C 0.5763964682,-0.5620645745 0.0818882699,-0.6577353606 -0.3439971545,-0.5996904996 C -0.7179429458,-0.552799724 -1.0268125989,-0.3931204143 -1.1468504649,-0.1927453841 C -1.1880938225,-0.1252560731 -1.2087916813,-0.0557611717 -1.2089440412,0.01573932" />
      <path d="M -1.2053610117,0.066507567 Q -1.1944026677,0.1436114161 -1.1512216082,0.2169592125" />
      <path d="M -1.1169358147,0.2677272519 Q -1.0545247947,0.3493446987 -0.9545553545,0.4181793791" />
      <path d="M -0.8719752159,0.468947157 Q -0.680339405,0.5740108212 -0.4219001042,0.6193990114" />
      <path d="M 0.2525148813,0.619398932 Q 0.5162142881,0.575114992 0.7352190106,0.4689471107" />
      <path d="M 0.9218036157,-0.7294757082 L 0.8895912748,-0.7517414146" />
      <path d="M 0.8895912748,0.0531378874 C 0.7173047054,-0.0621628048 0.4922114328,-0.1457059095 0.2524689925,-0.185488112 C -0.2435000278,-0.2724793671 -0.7853404047,-0.1538674276 -1.0373597508,0.0806667628 C -1.1506667944,0.1840547242 -1.2078615492,0.2965588097 -1.2089440151,0.4181790193" />
      <path d="M -1.2053610198,0.4689470316 Q -1.1944125915,0.5460244906 -1.1512201943,0.6194014539" />
      <path d="M -1.1169358702,0.6701670027 Q -1.0544816831,0.7518234681 -0.9545557592,0.8206187936" />
      <path d="M -0.8719750836,0.8713868382 Q -0.6805125062,0.9763940879 -0.4219003305,1.0218386877" />
      <path d="M 0.2525146853,1.021838661 Q 0.5162198266,0.977551148 0.7352190302,0.8713868374" />
      <path d="M 0.8298891789,0.8206188435 Q 0.9450424464,0.7528420772 1.0320890307,0.6701682654" />
      <path d="M 1.0815394057,-0.1853434135 Q 1.0014795158,-0.2746518276 0.8895912748,-0.3493017873" />
      <path d="M 0.8895912748,0.455577594 C 0.5219683318,0.2034153173 -0.0976458426,0.1216924908 -0.5593639351,0.2464483774 C -0.9534735864,0.3455191066 -1.2133213613,0.5798374125 -1.2089449326,0.8206214822" />
      <path d="M -1.2053607974,0.8713850454 Q -1.1944071929,0.9484541732 -1.1512185792,1.021833437" />
      <path d="M -1.1169352703,1.0726057783 Q -1.0545437692,1.154206828 -0.9545556789,1.2230584457" />
      <path d="M -0.8719751121,1.2738264764 Q -0.7465584862,1.3428192992 -0.5884035665,1.3869997447" />
      <path d="M 0.5141795903,1.3616621386 Q 0.6312111364,1.324544524 0.7352189357,1.273826454" />
      <path d="M 0.8298891013,1.2230584507 Q 0.9450549194,1.1552722485 1.0320904503,1.0726065533" />
      <path d="M 1.0815394316,0.2170962437 Q 1.0014558631,0.1277678707 0.8895912748,0.0531378874" />
      <path d="M 0.8895912748,0.8580172837 C 0.6934363535,0.7265197443 0.4280474171,0.6367127737 0.1514520924,0.605110015 C -0.124974735,0.5725794525 -0.4112414583,0.5982953627 -0.644740365,0.6735088453 C -0.9920967751,0.7825092346 -1.2122107963,1.0005245371 -1.2089440093,1.2230585909" />
      <path d="M -1.2053610361,1.2738263671 Q -1.1944073104,1.3509197789 -1.1512215312,1.424278302" />
      <path d="M -1.1169358899,1.4750461871 Q -1.0733969596,1.5320262844 -1.0110489289,1.583152974" />
      <path d="M 0.9630244345,1.5348298031 Q 0.9996577444,1.5058909691 1.0320875868,1.4750456859" />
      <path d="M 1.0814151299,1.4242764304 Q 1.1458573119,1.3522708782 1.1863560715,1.2738270799" />
      <path d="M 1.2096888998,1.2230580023 Q 1.2396628432,1.1489104584 1.2472700807,1.072607719" />
      <path d="M 1.081535528,0.6195333435 Q 1.001499736,0.5302499217 0.8895912748,0.455577594" />
      <path d="M 0.8895912748,1.2604569457 C 0.5998395149,1.064308304 0.1557557681,0.9661977505 -0.2467243592,0.9999577458 C -0.7194122245,1.0338066135 -1.1077624169,1.2481937097 -1.1888651921,1.5057735033 C -1.202233292,1.5453029016 -1.2089262257,1.5852111503 -1.2089439933,1.6254982496" />
      <path d="M -1.2053610484,1.6762662148 L -1.2035401848,1.6878196639" />
      <path d="M 1.2096891207,1.6254982562 Q 1.239670884,1.5513336866 1.2472723131,1.4750464192" />
      <path d="M 1.2497900907,1.4242783358 C 1.251142265,1.2162991761 1.1184636547,1.0094544974 0.8895912748,0.8580172837" />
      <path d="M 1.2283565157,1.6791035289 C 1.1832228533,1.523245913 1.0634072642,1.3759549492 0.8895912748,1.2604569457" />
      <path d="M 1.0809300232,-5.0150183418 C 1.3602144536,-4.8338933384 1.5220162028,-4.5853591689 1.520423294,-4.3351767347" />
      <path d="M 1.520423294,-4.3351767347 Q 1.5203942528,-4.2464340507 1.4946871505,-4.1591089088" />
      <path d="M 1.4867267168,-4.1339565219 Q 1.4560376724,-4.0433957412 1.3986687827,-3.9578896488" />
      <path d="M 1.2442736959,-3.781006929 Q 1.2031506571,-3.7435373064 1.156724958,-3.7085295999" />
      <path d="M 1.1086203239,-3.6738980155 Q 1.0221725241,-3.6144896773 0.9218040775,-3.5643462587" />
      <path d="M -1.0288532932,-3.5488252897 Q -1.1122882676,-3.5923285131 -1.1820986447,-3.6429000546" />
      <path d="M -1.2049351845,-3.6599155323 C -1.382820957,-3.7956745142 -1.4801898317,-3.9645713893 -1.4795769049,-4.1339571834" />
      <path d="M -1.4795769049,-4.1339571834 C -1.4803297907,-4.312499058 -1.3718362796,-4.4904065001 -1.1755904433,-4.6296922704 C -0.980545215,-4.7695173495 -0.6990383114,-4.8697090363 -0.3868413823,-4.9076776552 C -0.0750532522,-4.9465062453 0.2653670168,-4.9227672892 0.5669775118,-4.8384223825 C 0.8691367671,-4.7549095042 1.1304942279,-4.6112535655 1.2992700853,-4.4331754552 C 1.4433569523,-4.2823946741 1.5208185437,-4.1077060002 1.520423099,-3.9327361815" />
      <path d="M 1.520423099,-3.9327361815 Q 1.5195564992,-3.722508967 1.3811223393,-3.530297169" />
      <path d="M 1.2442737332,-3.3785670997 Q 1.2031506806,-3.3410975487 1.1567249738,-3.3060899095" />
      <path d="M 1.1086203471,-3.2714583979 Q 1.0221665559,-3.2120460595 0.9217903447,-3.1618999137" />
      <path d="M -1.0288535192,-3.1463857702 Q -1.1122869504,-3.1898882141 -1.1820962927,-3.2404587012" />
      <path d="M -1.2049348031,-3.2574755838 C -1.382820853,-3.3932345878 -1.4801897841,-3.5621313617 -1.4795768491,-3.7315171316" />
      <path d="M -1.4795768491,-3.7315171316 C -1.4806341613,-3.9263471323 -1.3507488057,-4.1202002747 -1.1202211064,-4.2643319797 C -0.8913014476,-4.4092786697 -0.5638780976,-4.5030176843 -0.2143354185,-4.5201609912 C 0.1348763308,-4.5385436923 0.5029547492,-4.4800251701 0.8040322861,-4.3547354587 C 1.1062145904,-4.2305156753 1.3385875788,-4.0405458353 1.4469408558,-3.8256246748 C 1.4957698926,-3.729470671 1.5202639042,-3.6310282089 1.5204228907,-3.5302972886" />
      <path d="M 1.5204228907,-3.5302972886 Q 1.5203938713,-3.4415549154 1.4946871412,-3.354229927" />
      <path d="M 1.4867267406,-3.3290773752 Q 1.4514298985,-3.224985939 1.3811225455,-3.1278575512" />
      <path d="M 1.2442737741,-2.9761270931 Q 1.2031507477,-2.9386575746 1.1567250584,-2.9036499871" />
      <path d="M 1.1086204788,-2.8690185516 Q 1.0221724501,-2.809610254 0.9218037499,-2.7594668848" />
      <path d="M -1.0414071846,-2.7505704444 Q -1.1176019662,-2.7912972411 -1.1820989272,-2.8380209696" />
      <path d="M -1.2049347593,-2.8550359174 C -1.382820867,-2.9907950121 -1.4801898436,-3.1596917324 -1.4795769017,-3.3290773419" />
      <path d="M -1.4795769017,-3.3290773419 C -1.4810198127,-3.5402216287 -1.3276180507,-3.749913359 -1.0608949809,-3.8969664293 C -0.7962522563,-4.0452064365 -0.4216819233,-4.1287125633 -0.0385748912,-4.1204561562 C 0.3444186413,-4.1139109408 0.7310558976,-4.015489598 1.0166801927,-3.8474069556 C 1.3042212096,-3.6806044751 1.4870883114,-3.4460703507 1.5157820245,-3.202866514 C 1.5188753943,-3.177899756 1.5204223921,-3.1528969002 1.520423018,-3.1278579466" />
      <path d="M 1.520423018,-3.1278579466 Q 1.5195564567,-2.9176310864 1.3811224912,-2.7254181319" />
      <path d="M 1.2442737912,-2.5736873664 Q 1.2031507823,-2.5362177742 1.1567251051,-2.5012101393" />
      <path d="M 1.1086205458,-2.4665786713 Q 1.0221721519,-2.4071700587 0.9218029435,-2.3570265462" />
      <path d="M -1.0414073517,-2.3481307136 Q -1.1176020257,-2.3888574892 -1.182098911,-2.4355812021" />
      <path d="M -1.2049348295,-2.4525962303 C -1.3828208897,-2.5883554408 -1.4801898717,-2.757252304 -1.4795769297,-2.9266378436" />
      <path d="M -1.4795769297,-2.9266378436 C -1.481168725,-3.1432372316 -1.3194303775,-3.3581893899 -1.0402370957,-3.5057693774 C -0.7632949579,-3.6546852802 -0.3728237655,-3.733898794 0.0204232614,-3.7161855342 C 0.4136702853,-3.7003615132 0.8041412574,-3.587611452 1.0810834119,-3.405159442 C 1.360276769,-3.2240434893 1.5220148335,-2.9755534419 1.5204229663,-2.7254174903" />
      <path d="M 1.5204229663,-2.7254174903 C 1.5210179325,-2.5312636744 1.4251576822,-2.3375808683 1.2497900965,-2.1763080595" />
      <path d="M 1.2442737428,-2.1712479155 Q 1.203150738,-2.1337782915 1.1567250734,-2.0987705983" />
      <path d="M 1.1086204504,-2.064139017 Q 1.0221720354,-2.0047302648 0.9218028285,-1.9545866681" />
      <path d="M -1.4343271269,-2.3229783163 Q -1.4794868475,-2.4219334116 -1.4795768803,-2.5241982767" />
      <path d="M -1.4795768803,-2.5241982767 C -1.4811686691,-2.7407977215 -1.3194305252,-2.9557495695 -1.0402374006,-3.103329432 C -0.7632954275,-3.2522451854 -0.3728242961,-3.3314590297 0.0204226279,-3.3137460244 C 0.4136695637,-3.2979222977 0.804140285,-3.185171933 1.0810825756,-3.0027200112 C 1.3602760423,-2.821604065 1.5220148646,-2.573115479 1.5204229207,-2.3229787351" />
      <path d="M 1.5204229207,-2.3229787351 C 1.521017848,-2.1288239936 1.4251578312,-1.9351408441 1.2497900965,-1.7738684153" />
      <path d="M 1.2442737515,-1.7688082899 Q 1.2031507534,-1.7313387498 1.1567250512,-1.6963310737" />
      <path d="M 1.1086203593,-1.6616994788 Q 1.0221722563,-1.6022909793 0.9218034248,-1.5521474327" />
      <path d="M -1.4450711466,-1.9456909536 Q -1.4795245902,-2.0326236062 -1.4795768505,-2.1217583706" />
      <path d="M -1.4795768505,-2.1217583706 C -1.481168617,-2.3383580207 -1.3194305881,-2.5533099273 -1.040237612,-2.700889653 C -0.7632957942,-2.8498052691 -0.3728246032,-2.9290191163 0.0204225232,-2.9113063394 C 0.4136696758,-2.8954828532 0.8041403808,-2.7827324957 1.0810824752,-2.6002802612 C 1.3602756634,-2.4191639106 1.5220149928,-2.1706757542 1.5204231976,-1.9205392907" />
      <path d="M 1.5204231976,-1.9205392907 C 1.5210180668,-1.7263846809 1.4251572108,-1.5327007075 1.2497900965,-1.3714286244" />
      <path d="M 1.2442737458,-1.3663684901 Q 1.2031510114,-1.3288991703 1.1567257757,-1.2938918233" />
      <path d="M 1.1086204718,-1.2592597958 Q 1.0221726239,-1.199851548 0.9218038868,-1.1497080955" />
      <path d="M -1.44507131,-1.5432511543 Q -1.4795246993,-1.6301836599 -1.4795769573,-1.7193183212" />
      <path d="M -1.4795769573,-1.7193183212 C -1.4811687075,-1.9359181638 -1.3194304121,-2.1508704183 -1.040237421,-2.2984501134 C -0.7632955752,-2.447365718 -0.3728243897,-2.5265793132 0.0204230775,-2.5088665096 C 0.4136705559,-2.4930429843 0.8041417115,-2.3802927078 1.081083468,-2.1978401029 C 1.3602763164,-2.0167233845 1.5220149367,-1.7682346378 1.5204232678,-1.5180984674" />
      <path d="M 1.5204232678,-1.5180984674 C 1.5210183779,-1.3239448069 1.4251573105,-1.1302612653 1.2497900965,-0.968989101" />
      <path d="M 1.2442737044,-0.9639289251 L 1.21670173,-0.9395920305" />
      <path d="M -1.0288531258,-0.7317475585 Q -1.1122883475,-0.7752508838 -1.1820989606,-0.825822545" />
      <path d="M -1.2049347818,-0.8428374544 C -1.3828209304,-0.9785962907 -1.4801901291,-1.1474929796 -1.4795771569,-1.3168786168" />
      <path d="M -1.4795771569,-1.3168786168 C -1.4811689238,-1.533478424 -1.3194301415,-1.7484308941 -1.0402370329,-1.8960106189 C -0.7632950399,-2.0449262682 -0.3728241783,-2.1241396347 0.0204232655,-2.1064267122 C 0.4136706856,-2.0906030524 0.8041423222,-1.9778529052 1.0810840728,-1.7954002833 C 1.3602769752,-1.6142835751 1.5220146613,-1.3657944109 1.5204229708,-1.1156582388" />
      <path d="M 1.5204229708,-1.1156582388 Q 1.5197630036,-0.9196654807 1.3986691585,-0.7383720127" />
      <path d="M 1.3811226099,-0.7132195589 Q 1.3254876001,-0.6364582308 1.2497900965,-0.5665492648" />
      <path d="M 1.2442737323,-0.5614891281 L 1.2167016489,-0.5371522038" />
      <path d="M -1.0288531004,-0.329307826 Q -1.112288265,-0.3728112181 -1.1820988404,-0.4233829465" />
      <path d="M -1.2049347547,-0.4403979571 C -1.382820785,-0.576156993 -1.4801902029,-0.7450537678 -1.4795772417,-0.9144394484" />
      <path d="M -1.4795772417,-0.9144394484 C -1.4811690628,-1.1310390457 -1.3194299699,-1.3459913907 -1.0402366527,-1.493571093 C -0.763294435,-1.6424867184 -0.3728239327,-1.7217000043 0.0204230478,-1.7039870235 C 0.4136699873,-1.6881632999 0.8041416134,-1.5754132806 1.0810836992,-1.3929609198 C 1.3602769739,-1.2118444793 1.5220145192,-0.9633554706 1.5204227211,-0.7132192845" />
      <path d="M 1.5204227211,-0.7132192845 Q 1.5203936925,-0.6244771274 1.494687104,-0.5371524438" />
      <path d="M 1.4867267324,-0.5119999212 Q 1.4560379651,-0.4214387765 1.3986691218,-0.3359323523" />
      <path d="M 1.2442738052,-0.1590492018 L 1.2167017381,-0.1347122806" />
      <path d="M -1.0288533022,0.0731320074 Q -1.112288436,0.0296286013 -1.1820989157,-0.0209431614" />
      <path d="M -1.2049348043,-0.0379581871 C -1.3828206892,-0.1737174375 -1.4801899842,-0.3426145012 -1.4795770632,-0.512000348" />
      <path d="M -1.4795770632,-0.512000348 C -1.4811689404,-0.7285997953 -1.3194300615,-0.9435518909 -1.0402365225,-1.0911315109 C -0.7632941055,-1.2400470453 -0.3728235335,-1.3192603402 0.0204229755,-1.3015473781 C 0.4136694642,-1.2857236747 0.8041405709,-1.1729737288 1.0810829652,-0.9905215763 C 1.3602765275,-0.8094053375 1.5220147025,-0.5609166263 1.5204228245,-0.3107805301" />
      <path d="M 1.5204228245,-0.3107805301 Q 1.5197627059,-0.1147868936 1.3986688342,0.0665072212" />
      <path d="M 1.2442737941,0.2433903893 L 1.2167017125,0.2677273875" />
      <path d="M -1.0288517642,0.4755726388 Q -1.1122878679,0.4320689612 -1.1820989659,0.3814967955" />
      <path d="M -1.2049348611,0.3644817773 C -1.3828208373,0.2287225215 -1.4801896359,0.0598253566 -1.4795767543,-0.1095605881" />
      <path d="M -1.4795767543,-0.1095605881 C -1.4811686324,-0.3261600606 -1.3194304564,-0.5411121482 -1.0402368939,-0.6886917634 C -0.7632944995,-0.8376072923 -0.3728233936,-0.9168206147 0.0204230949,-0.8991076945 C 0.4136696035,-0.8832840331 0.8041401759,-0.7705341146 1.0810825931,-0.5880819569 C 1.3602761323,-0.4069657135 1.5220150105,-0.1584769946 1.5204231333,0.0916590761" />
      <path d="M 1.5204231333,0.0916590761 Q 1.5203940947,0.1804015594 1.4946871971,0.2677265763" />
      <path d="M 1.4867267617,0.292879116 Q 1.4560377242,0.383440374 1.3986686645,0.4689469013" />
      <path d="M 1.2442737322,0.6458297601 Q 1.2031509028,0.6832992457 1.1567254516,0.7183068251" />
      <path d="M 1.1086201035,0.7529389523 Q 1.0221720061,0.8123474959 0.9218030919,0.8624910207" />
      <path d="M -1.0414071414,0.8713869201 Q -1.1176020317,0.8306601719 -1.18209902,0.7839364898" />
      <path d="M -1.2049341453,0.7669221048 C -1.3828209046,0.6311629063 -1.4801895552,0.4622658541 -1.4795766506,0.2928799147" />
      <path d="M -1.4795766506,0.2928799147 C -1.4811684488,0.0762803693 -1.319430903,-0.1386719984 -1.0402376278,-0.2862517979 C -0.7632955416,-0.4351675177 -0.3728239159,-0.5143808963 0.0204230229,-0.4966679793 C 0.4136700028,-0.4808443195 0.8041405048,-0.3680943929 1.0810827228,-0.185642127 C 1.3602760403,-0.0045257842 1.5220151333,0.2439632012 1.5204233121,0.4940994389" />
      <path d="M 1.5204233121,0.4940994389 Q 1.5203942776,0.5828420344 1.4946872529,0.6701671329" />
      <path d="M 1.4867268171,0.6953195753 Q 1.4514297267,0.7994108387 1.3811222033,0.8965391971" />
      <path d="M 1.2442719485,1.0482709383 Q 1.2031496611,1.0857396986 1.1567249563,1.1207466405" />
      <path d="M 1.10862031,1.1553782218 Q 1.0221725474,1.2147865159 0.9218042023,1.2649299056" />
      <path d="M -1.0414071153,1.2738264796 Q -1.117601894,1.2330997133 -1.182098978,1.1863759686" />
      <path d="M -1.2049348227,1.1693610365 C -1.3828211966,1.033602008 -1.4801899068,0.8647054915 -1.4795768999,0.6953202356" />
      <path d="M -1.4795768999,0.6953202356 C -1.4811685905,0.4787207197 -1.3194309051,0.2637682116 -1.0402380024,0.1161881598 C -0.7632962516,-0.0327278056 -0.3728246146,-0.1119412963 0.0204228051,-0.0942283 C 0.4136702485,-0.0784045665 0.8041411096,0.0343454561 1.0810831028,0.2167977617 C 1.3602762116,0.3979141428 1.5220149945,0.6464032691 1.5204232276,0.8965397324" />
      <path d="M 1.5204232276,0.8965397324 Q 1.5203733967,0.99821222 1.4867268314,1.097759682" />
      <path d="M -1.1099793871,1.6369461894 L -1.1820989374,1.5888156423" />
      <path d="M -1.2049347548,1.5718006908 C -1.3828205321,1.4360417896 -1.4801902864,1.2671447175 -1.4795771972,1.0977594415" />
      <path d="M -1.4795771972,1.0977594415 C -1.481168866,0.8811599242 -1.319430247,0.6662078295 -1.0402373988,0.5186277638 C -0.7632956426,0.3697118115 -0.3728244862,0.290498188 0.0204229923,0.3082113154 C 0.4136704598,0.3240351646 0.8041416451,0.4367854123 1.0810834911,0.6192376699 C 1.3602764822,0.8003540179 1.5220147782,1.0488429257 1.520423028,1.2989794214" />
      <path d="M 1.520423028,1.2989794214 Q 1.5190897448,1.5340255713 1.3481106094,1.7442195495" />
      <path d="M -1.3859545766,1.7870070815 Q -1.4791885333,1.6485471341 -1.4795771275,1.5001981514" />
      <path d="M -1.4795771275,1.5001981514 C -1.4811689225,1.2835983252 -1.3194295933,1.0686468053 -1.0402364055,0.9210670909 C -0.7632943116,0.7721514927 -0.3728236063,0.692937772 0.0204235468,0.7106509227 C 0.4136706736,0.7264747827 0.8041418647,0.8392252666 1.0810836824,1.0216775194 C 1.3602766585,1.2027938818 1.5220146875,1.4512824255 1.520422921,1.7014187128" />
      <path d="M 1.520422921,1.7014187128 Q 1.5204146302,1.7662004982 1.5066560055,1.8304282541" />
      <path d="M -1.4745682172,1.8351905504 C -1.4476080803,1.6477703697 -1.2995127934,1.4670632171 -1.062623605,1.3357119967 C -0.8270650889,1.2036040894 -0.5046254488,1.1220361289 -0.1657177165,1.1120023506 C 0.1729613076,1.1008833402 0.5253654994,1.1615023515 0.8145376266,1.2838025979 C 1.104685437,1.4051750063 1.3292558605,1.5873599166 1.4392079737,1.7937535376" />
      <path d="M 0.889591291,-4.7761383408 L 1.0809301027,-5.0150183171" />
      <path d="M 1.0809300232,-5.065323303 L 1.0809300232,-5.0150183418" />
      <path d="M 1.0809300232,-5.065323303 C 1.3602144536,-4.8841982996 1.5220162028,-4.6356641301 1.520423294,-4.3854816959" />
      <path d="M 1.5199020897,-4.3603292152 Q 1.5156248809,-4.2583830764 1.4776571298,-4.1591090869" />
      <path d="M -0.3874661806,-3.4106178993 Q -0.5092369636,-3.4256590675 -0.6235352929,-3.4524970379" />
      <path d="M -1.1081814672,-3.6439704348 L -1.1649074359,-3.6810022451" />
      <path d="M -1.1957864496,-3.7032882244 C -1.3794102746,-3.8402244318 -1.4802318751,-4.0119773764 -1.4795769049,-4.1842621446" />
      <path d="M -1.4795769049,-4.1842621446 C -1.4803297907,-4.3628040192 -1.3718362796,-4.5407114613 -1.1755904433,-4.6799972316 C -0.980545215,-4.8198223107 -0.6990383114,-4.9200139975 -0.3868413823,-4.9579826164 C -0.0750532522,-4.9968112065 0.2653670168,-4.9730722504 0.5669775118,-4.8887273437 C 0.8691367671,-4.8052144654 1.1304942279,-4.6615585267 1.2992700853,-4.4834804164 C 1.4433569523,-4.3326996353 1.5208185437,-4.1580109614 1.520423099,-3.9830411427" />
      <path d="M 1.520423099,-3.9830411427 Q 1.5203732704,-3.8813688716 1.4867268597,-3.7818217146" />
      <path d="M 0.4853309768,-3.056292824 Q 0.3536072024,-3.0249286851 0.2162595544,-3.0082795496" />
      <path d="M -0.3874649547,-3.0081779459 Q -0.5092360473,-3.0232191081 -0.6235346929,-3.0500571536" />
      <path d="M -1.1081815882,-3.241530872 L -1.1649065598,-3.2785619905" />
      <path d="M -1.195786975,-3.3008489646 C -1.3794105116,-3.4377850829 -1.4802318239,-3.6095376392 -1.4795768491,-3.7818220928" />
      <path d="M -1.4795768491,-3.7818220928 C -1.4806341613,-3.9766520935 -1.3507488057,-4.1705052359 -1.1202211064,-4.3146369409 C -0.8913014476,-4.4595836309 -0.5638780976,-4.5533226455 -0.2143354185,-4.5704659524 C 0.1348763308,-4.5888486535 0.5029547492,-4.5303301313 0.8040322861,-4.4050404199 C 1.1062145904,-4.2808206365 1.3385875788,-4.0908507965 1.4469408558,-3.875929636 C 1.4957698926,-3.7797756322 1.5202639042,-3.6813331702 1.5204228907,-3.5806022498" />
      <path d="M 1.5204228907,-3.5806022498 Q 1.5203425279,-3.4658958236 1.4776571846,-3.3542297972" />
      <path d="M -0.3874656232,-2.6057382308 Q -0.5092357236,-2.6207792752 -0.6235335135,-2.6476170555" />
      <path d="M -1.1081816408,-2.8390912349 L -1.164907065,-2.8761226955" />
      <path d="M -1.1957869517,-2.8984093115 C -1.3794105319,-3.035345522 -1.4802318838,-3.2070980206 -1.4795769017,-3.3793823032" />
      <path d="M -1.4795769017,-3.3793823032 C -1.4810198127,-3.5905265899 -1.3276180507,-3.8002183202 -1.0608949809,-3.9472713905 C -0.7962522563,-4.0955113977 -0.4216819233,-4.1790175245 -0.0385748912,-4.1707611174 C 0.3444186413,-4.164215902 0.7310558976,-4.0657945592 1.0166801927,-3.8977119168 C 1.3042212096,-3.7309094363 1.4870883114,-3.4963753119 1.5157820245,-3.2531714752 C 1.5188753943,-3.2282047172 1.5204223921,-3.2032018614 1.520423018,-3.1781629078" />
      <path d="M 1.520423018,-3.1781629078 Q 1.5203426236,-3.0634565534 1.4776570587,-2.9517903258" />
      <path d="M -0.3874656113,-2.2032985675 Q -0.5092354798,-2.2183395196 -0.6235330645,-2.2451771763" />
      <path d="M -1.1081814193,-2.4366513037 L -1.1649070918,-2.473682948" />
      <path d="M -1.1957869832,-2.495969588 C -1.3794105392,-2.6329059194 -1.4802319121,-2.8046585808 -1.4795769297,-2.9769428048" />
      <path d="M -1.4795769297,-2.9769428048 C -1.481168725,-3.1935421928 -1.3194303775,-3.4084943511 -1.0402370957,-3.5560743386 C -0.7632949579,-3.7049902414 -0.3728237655,-3.7842037552 0.0204232614,-3.7664904954 C 0.4136702853,-3.7506664744 0.8041412574,-3.6379164132 1.0810834119,-3.4554644032 C 1.360276769,-3.2743484505 1.5220148335,-3.0258584031 1.5204229663,-2.7757224515" />
      <path d="M 1.5204229663,-2.7757224515 Q 1.5203425999,-2.661016454 1.4776572588,-2.5493508365" />
      <path d="M -0.3874649519,-1.8008589679 Q -0.5092360822,-1.815900013 -0.6235347711,-1.8427379678" />
      <path d="M -1.4788814382,-2.5493507562 L -1.4795768803,-2.5745032379" />
      <path d="M -1.4795768803,-2.5745032379 C -1.4811686691,-2.7911026827 -1.3194305252,-3.0060545307 -1.0402374006,-3.1536343932 C -0.7632954275,-3.3025501466 -0.3728242961,-3.3817639909 0.0204226279,-3.3640509856 C 0.4136695637,-3.3482272589 0.804140285,-3.2354768942 1.0810825756,-3.0530249724 C 1.3602760423,-2.8719090262 1.5220148646,-2.6234204402 1.5204229207,-2.3732836964" />
      <path d="M 1.5204229207,-2.3732836964 C 1.5210213115,-2.1788407875 1.4248690136,-1.9848729492 1.2490127972,-1.8234563029" />
      <path d="M 1.2361207683,-1.8117547927 Q 1.188489203,-1.7691818082 1.1340189361,-1.7298905744" />
      <path d="M -0.3874643519,-1.3984193525 Q -0.5092365946,-1.4134605537 -0.6235362815,-1.4402988296" />
      <path d="M -1.4788814096,-2.1469108507 L -1.4795768505,-2.1720633318" />
      <path d="M -1.4795768505,-2.1720633318 C -1.481168617,-2.3886629819 -1.3194305881,-2.6036148885 -1.040237612,-2.7511946142 C -0.7632957942,-2.9001102303 -0.3728246032,-2.9793240775 0.0204225232,-2.9616113006 C 0.4136696758,-2.9457878144 0.8041403808,-2.8330374569 1.0810824752,-2.6505852224 C 1.3602756634,-2.4694688718 1.5220149928,-2.2209807154 1.5204231976,-1.9708442519" />
      <path d="M 1.5204231976,-1.9708442519 C 1.5210215285,-1.7764014706 1.4248683908,-1.5824328062 1.2490127896,-1.4210165044" />
      <path d="M 1.2361207673,-1.4093149929 Q 1.1884893587,-1.3667421297 1.134019439,-1.3274511551" />
      <path d="M 0.485330863,-1.0440943181 Q 0.3536071432,-1.0127302171 0.2162597301,-0.9960811415" />
      <path d="M -1.4795769573,-1.7696232824 C -1.4811687075,-1.986223125 -1.3194304121,-2.2011753795 -1.040237421,-2.3487550746 C -0.7632955752,-2.4976706792 -0.3728243897,-2.5768842744 0.0204230775,-2.5591714708 C 0.4136705559,-2.5433479455 0.8041417115,-2.430597669 1.081083468,-2.2481450641 C 1.3602763164,-2.0670283457 1.5220149367,-1.818539599 1.5204232678,-1.5684034286" />
      <path d="M 1.5204232678,-1.5684034286 L 1.5199020639,-1.5432509496" />
      <path d="M -1.478881714,-1.342031099 L -1.4795771569,-1.367183578" />
      <path d="M -1.4795771569,-1.367183578 C -1.4811689238,-1.5837833852 -1.3194301415,-1.7987358553 -1.0402370329,-1.9463155801 C -0.7632950399,-2.0952312294 -0.3728241783,-2.1744445959 0.0204232655,-2.1567316734 C 0.4136706856,-2.1409080136 0.8041423222,-2.0281578664 1.0810840728,-1.8457052445 C 1.3602769752,-1.6645885363 1.5220146613,-1.4160993721 1.5204229708,-1.1659632" />
      <path d="M 1.5204229708,-1.1659632 Q 1.519556536,-0.9557365336 1.3811226099,-0.7635245201" />
      <path d="M 1.3622162437,-0.7383720642 Q 1.312630109,-0.6747744895 1.2490124627,-0.6161368449" />
      <path d="M 1.2361207578,-0.604435648 L 1.1863073334,-0.5623046862" />
      <path d="M 1.1538460375,-0.5371522046 L 1.1340188102,-0.5225714412" />
      <path d="M -0.3874655632,-0.1911001095 Q -0.5092357373,-0.2061411254 -0.6235334594,-0.2329788912" />
      <path d="M -1.1081820256,-0.4244534866 L -1.1649069988,-0.4614846852" />
      <path d="M -1.1957868949,-0.4837713111 C -1.3794104134,-0.6207074671 -1.4802322439,-0.7924600363 -1.4795772417,-0.9647444096" />
      <path d="M -1.4795772417,-0.9647444096 C -1.4811690628,-1.1813440069 -1.3194299699,-1.3962963519 -1.0402366527,-1.5438760542 C -0.763294435,-1.6927916796 -0.3728239327,-1.7720049655 0.0204230478,-1.7542919847 C 0.4136699873,-1.7384682611 0.8041416134,-1.6257182418 1.0810836992,-1.4432658811 C 1.3602769739,-1.2621494405 1.5220145192,-1.0136604318 1.5204227211,-0.7635242457" />
      <path d="M 1.5204227211,-0.7635242457 Q 1.5203728931,-0.6618520717 1.4867267324,-0.5623048824" />
      <path d="M 0.4853317951,0.163224416 Q 0.3536074161,0.1945887046 0.216259216,0.211237838" />
      <path d="M -0.3874647186,0.2113395521 Q -0.5092357666,0.1962985176 -0.6235342753,0.1694606187" />
      <path d="M -1.1081815466,-0.0220132831 L -1.1649070727,-0.0590448762" />
      <path d="M -1.19578693,-0.081331516 C -1.3794103189,-0.2182678889 -1.4802320221,-0.390020761 -1.4795770632,-0.5623053092" />
      <path d="M -1.4795770632,-0.5623053092 C -1.4811689404,-0.7789047565 -1.3194300615,-0.9938568521 -1.0402365225,-1.1414364721 C -0.7632941055,-1.2903520065 -0.3728235335,-1.3695653014 0.0204229755,-1.3518523393 C 0.4136694642,-1.3360286359 0.8041405709,-1.2232786901 1.0810829652,-1.0408265376 C 1.3602765275,-0.8597102987 1.5220147025,-0.6112215875 1.5204228245,-0.3610854913" />
      <path d="M 1.5199016244,-0.3359330088 Q 1.5156244682,-0.2339871002 1.4776571658,-0.1347132527" />
      <path d="M -0.3874643837,0.6137792119 Q -0.509236023,0.5987380479 -0.6235353582,0.5718998939" />
      <path d="M -1.1081810026,0.3804269739 L -1.1649071141,0.3433950746" />
      <path d="M -1.1957870578,0.3211083908 C -1.379410515,0.1841720251 -1.4802316716,0.0124190742 -1.4795767543,-0.1598655493" />
      <path d="M -1.4795767543,-0.1598655493 C -1.4811686324,-0.3764650218 -1.3194304564,-0.5914171094 -1.0402368939,-0.7389967246 C -0.7632944995,-0.8879122535 -0.3728233936,-0.9671255759 0.0204230949,-0.9494126557 C 0.4136696035,-0.9335889943 0.8041401759,-0.8208390758 1.0810825931,-0.6383869181 C 1.3602761323,-0.4572706747 1.5220150105,-0.2087819559 1.5204231333,0.0413541149" />
      <path d="M 1.5204231333,0.0413541149 Q 1.5203732896,0.143026623 1.4867267617,0.2425741548" />
      <path d="M -0.3874647331,1.0162189211 Q -0.5092361342,1.0011777784 -0.6235351343,0.9743396244" />
      <path d="M -1.1081810518,0.782866558 L -1.1649071688,0.7458347384" />
      <path d="M -1.1957842357,0.723550265 C -1.3794098089,0.5866136981 -1.4802316042,0.4148602223 -1.4795766506,0.2425749535" />
      <path d="M -1.4795766506,0.2425749535 C -1.4811684488,0.0259754081 -1.319430903,-0.1889769596 -1.0402376278,-0.3365567592 C -0.7632955416,-0.4854724789 -0.3728239159,-0.5646858575 0.0204230229,-0.5469729405 C 0.4136700028,-0.5311492807 0.8041405048,-0.4183993541 1.0810827228,-0.2359470882 C 1.3602760403,-0.0548307454 1.5220151333,0.19365824 1.5204233121,0.4437944777" />
      <path d="M 1.519902109,0.4689469581 Q 1.5161850715,0.5578968271 1.4867268171,0.6450146141" />
      <path d="M -0.5840757592,1.3856446095 L -0.6235346496,1.3767794728" />
      <path d="M -1.1081815539,1.185305732 L -1.1649071254,1.1482742197" />
      <path d="M -1.1957869922,1.1259876491 C -1.3794108534,0.9890515038 -1.4802319544,0.8172992006 -1.4795768999,0.6450152744" />
      <path d="M -1.4795768999,0.6450152744 C -1.4811685905,0.4284157584 -1.3194309051,0.2134632504 -1.0402380024,0.0658831986 C -0.7632962516,-0.0830327668 -0.3728246146,-0.1622462575 0.0204228051,-0.1445332613 C 0.4136702485,-0.1287095277 0.8041411096,-0.0159595051 1.0810831028,0.1664928005 C 1.3602762116,0.3476091816 1.5220149945,0.5960983079 1.5204232276,0.8462347712" />
      <path d="M 1.5204232276,0.8462347712 Q 1.520342843,0.9609412257 1.4776572633,1.0726071371" />
      <path d="M -1.1081815522,1.5877454764 L -1.1649071109,1.5507139026" />
      <path d="M -1.1957869319,1.5284273139 C -1.3794101441,1.3914913201 -1.4802323357,1.2197384339 -1.4795771972,1.0474544803" />
      <path d="M -1.4795771972,1.0474544803 C -1.481168866,0.830854963 -1.319430247,0.6159028683 -1.0402373988,0.4683228026 C -0.7632956426,0.3194068503 -0.3728244862,0.2401932268 0.0204229923,0.2579063542 C 0.4136704598,0.2737302034 0.8041416451,0.3864804511 1.0810834911,0.5689327087 C 1.3602764822,0.7500490567 1.5220147782,0.9985379645 1.520423028,1.2486744601" />
      <path d="M 1.520423028,1.2486744601 Q 1.5193017573,1.4733896109 1.362216113,1.6762663783" />
      <path d="M -1.3597434715,1.7727548517 Q -1.4789377349,1.6184995339 -1.4795771275,1.4498931901" />
      <path d="M -1.4795771275,1.4498931901 C -1.4811689225,1.233293364 -1.3194295933,1.0183418441 -1.0402364055,0.8707621297 C -0.7632943116,0.7218465315 -0.3728236063,0.6426328108 0.0204235468,0.6603459615 C 0.4136706736,0.6761698215 0.8041418647,0.7889203054 1.0810836824,0.9713725582 C 1.3602766585,1.1524889206 1.5220146875,1.4009774643 1.520422921,1.6511137515" />
      <path d="M 1.520422921,1.6511137515 Q 1.5203957202,1.7384155066 1.495509378,1.8243673003" />
      <path d="M -1.4793443169,1.8377875439 C -1.4741440931,1.6402035115 -1.3341417908,1.4450768539 -1.0928685645,1.3028057943 C -0.8532532686,1.1596462852 -0.514734128,1.0708970391 -0.1583863664,1.0614795535 C 0.1976951055,1.0507458989 0.5680990855,1.1195941471 0.864113185,1.2552003059 C 1.1613837099,1.3897104181 1.3813443856,1.5897994292 1.4713145972,1.8112114424" />
      <path d="M 1.1707439467,1.6477768233 Q 1.076602739,1.4870995934 0.8895912748,1.3619929171" />
      <path d="M 0.8895912748,1.3619929171 C 0.6208250589,1.1805473502 0.2198714855,1.0818899177 -0.1582737504,1.0964954266 C -0.4334960776,1.1055558773 -0.6936238638,1.1724163873 -0.8818646918,1.2793400681 C -1.0712550759,1.3856310936 -1.1878192423,1.5313487021 -1.206066366,1.6815293092 C -1.206380378,1.6842547059 -1.2066943899,1.6869801025 -1.2070084019,1.6897054992" />
      <path d="M 1.2275177988,1.6762661827 Q 1.2497625865,1.601676394 1.2497900967,1.5258143039" />
      <path d="M 1.2497900967,1.5258143039 C 1.2511019825,1.3177459839 1.1184829311,1.1110272166 0.8895912748,0.9595532158" />
      <path d="M 0.8895912748,0.9595532158 C 0.6955697435,0.8295077997 0.433879305,0.740201169 0.1605508181,0.7077219589 C -0.1126064315,0.6743565931 -0.3961079325,0.6978629905 -0.6292554873,0.7701837555 C -0.9852156691,0.8776100461 -1.2123938656,1.0987028169 -1.2089440261,1.3245943332" />
      <path d="M -1.2089440261,1.3245943332 Q -1.208890482,1.4008956885 -1.1770620454,1.4750463857" />
      <path d="M -1.1512216794,1.5258142336 Q -1.1223200494,1.574809387 -1.0797615157,1.6205152894" />
      <path d="M 1.0348913474,1.5739072763 L 1.0814166604,1.525815361" />
      <path d="M 1.1232701227,1.4750454943 Q 1.1781572002,1.4024113958 1.2096865414,1.3245881333" />
      <path d="M 1.2275167508,1.2738229991 Q 1.2497641103,1.1992360811 1.2497879159,1.1233747527" />
      <path d="M 0.8895912748,0.5571135162 C 0.6339916015,0.3848399041 0.2593494808,0.2866082263 -0.1021792617,0.2904496873 C -0.4486805288,0.2919249356 -0.776066506,0.3860354304 -0.9778108064,0.5362541776 C -1.1273838046,0.6458867771 -1.2094891322,0.7838440765 -1.2089440204,0.9221546126" />
      <path d="M -1.2089440204,0.9221546126 Q -1.2088914235,0.9984523928 -1.1770620564,1.0726065508" />
      <path d="M -1.1512216358,1.1233744917 Q -1.1061765536,1.1996677961 -1.028853239,1.267202007" />
      <path d="M -0.9545556508,1.3245944171 Q -0.858200438,1.390765332 -0.7334250808,1.4401192776" />
      <path d="M 0.6688262524,1.4057888018 Q 0.7542219812,1.3690931384 0.8298891979,1.3245944791" />
      <path d="M 0.4853325808,-0.0302094301 C 0.2148716822,-0.1115883051 -0.095781541,-0.1325705709 -0.3727071345,-0.091768968 C -0.7947902102,-0.0329818303 -1.1222740262,0.1718595729 -1.1918258074,0.4090931243 C -1.2032260323,0.4456750043 -1.2089321046,0.4825489791 -1.2089440244,0.5197150488" />
      <path d="M -1.2089440244,0.5197150488 Q -1.208888234,0.5960305545 -1.17705949,0.6701727914" />
      <path d="M -1.1512215785,0.720934834 Q -1.1039231878,0.801033366 -1.0211515348,0.8713866913" />
      <path d="M -0.9545555621,0.9221547845 Q -0.8203278973,1.0142312991 -0.6341577201,1.0726065885" />
      <path d="M -0.387464906,1.1289943598 C -0.1833444607,1.160494113 0.0399208574,1.159070578 0.2525149966,1.1233744733" />
      <path d="M 0.4752935069,1.0726065586 Q 0.6710292238,1.0152975433 0.8298891505,0.9221547701" />
      <path d="M 0.4853323556,-0.4326491961 C 0.192070952,-0.5210526311 -0.1483812185,-0.5377957483 -0.4419719285,-0.4827951056 C -0.6671723442,-0.4414848775 -0.8640904103,-0.3592801334 -0.9993311209,-0.2522347416 C -1.1353319917,-0.145483159 -1.2093779057,-0.0142922857 -1.2089439644,0.1172754478" />
      <path d="M -1.2089439644,0.1172754478 Q -1.2088847637,0.1936086308 -1.177062042,0.2677270679" />
      <path d="M -1.151221548,0.3184951974 Q -1.1039143527,0.3986040941 -1.0211500995,0.4689481247" />
      <path d="M -0.9545554918,0.5197150377 Q -0.8202726259,0.6118167102 -0.6341575357,0.6701669724" />
      <path d="M -0.4218989721,0.720934554 C -0.2085860642,0.758056084 0.0279129417,0.7586687482 0.2525134088,0.7209345824" />
      <path d="M 0.4752936154,0.670166865 Q 0.6710711191,0.6128404746 0.8298890672,0.5197150038" />
      <path d="M 0.4853321816,-0.8350888985 C 0.3147107173,-0.885565692 0.1374742435,-0.912706828 -0.0463772398,-0.9165123066 C -0.5360700741,-0.9297650775 -0.9906708229,-0.7508298626 -1.1430615981,-0.499723898 C -1.1868190879,-0.4303738169 -1.2087799069,-0.3588539449 -1.2089440549,-0.2851642821" />
      <path d="M -1.2089440549,-0.2851642821 Q -1.2088869805,-0.2088452627 -1.1770620504,-0.1347123616" />
      <path d="M -1.1512216498,-0.0839444884 Q -1.1039304741,-0.0038542075 -1.0211514204,0.06650743" />
      <path d="M -0.9545555721,0.1172752959 Q -0.8202136791,0.2094057249 -0.6341559975,0.2677276854" />
      <path d="M -0.4219010374,0.3184951633 C -0.2084993494,0.3556226773 0.027972615,0.3562261114 0.2525149052,0.3184951961" />
      <path d="M 0.4752937693,0.2677272262 Q 0.6711499029,0.2103660119 0.8298890243,0.117275311" />
      <path d="M 0.9092091205,0.0665073193 Q 1.0086412147,-0.0027584083 1.0814168312,-0.0839444971" />
      <path d="M 1.1567250205,-0.1828526216 Q 1.188553243,-0.2329437407 1.209689134,-0.2851643535" />
      <path d="M -1.2089440228,-0.6876040523 Q -1.2088899514,-0.6112988168 -1.1770620395,-0.5371520395" />
      <path d="M -1.1512216733,-0.4863841763 Q -1.1039356694,-0.4063000829 -1.021151467,-0.3359321986" />
      <path d="M -0.954555713,-0.2851643849 Q -0.8202509416,-0.1930501467 -0.6341573272,-0.1347124891" />
      <path d="M -0.4219005584,-0.0839445648 C -0.2086102875,-0.0468319473 0.0278978488,-0.0461995755 0.2525148048,-0.0839444945" />
      <path d="M 1.2493262206,-0.9106231212 C 1.2419530233,-1.1112689447 1.1103441887,-1.308900453 0.8895912748,-1.4550850537" />
      <path d="M 0.8895912748,-1.4550850537 Q 0.7142712905,-1.5714100545 0.4853329034,-1.6399681116" />
      <path d="M -1.2089440325,-1.0900438368 Q -1.2089343759,-1.0412193648 -1.1957869813,-0.9929729676" />
      <path d="M -0.4219002528,-0.4863842425 C -0.2200464375,-0.4512945897 0.0025489928,-0.4487606865 0.2162593253,-0.4806627165" />
      <path d="M 0.9092091632,-0.7383719458 Q 1.0086390909,-0.8076356137 1.0814168696,-0.8888239614" />
      <path d="M 1.1232709547,-0.9395922305 L 1.1340189756,-0.9541727264" />
      <path d="M 1.1567251032,-0.9877322449 Q 1.1885518898,-1.0378207217 1.2096890591,-1.0900437363" />
      <path d="M 1.2275173879,-1.1408103999 Q 1.2497652538,-1.2154161132 1.2497900931,-1.2912635561" />
      <path d="M 1.2497900931,-1.2912635561 C 1.251083053,-1.4993695069 1.1184901769,-1.7060387526 0.8895912748,-1.8575247066" />
      <path d="M 0.8895912748,-1.8575247066 C 0.5864497731,-2.0631425096 0.1138128913,-2.1601084593 -0.3025876621,-2.1128232064 C -0.4161718793,-2.1005082361 -0.5231544251,-2.0791151302 -0.6235352994,-2.0486438889" />
      <path d="M -1.2089440074,-1.4924834945 Q -1.208934334,-1.4436587506 -1.1957869675,-1.3954125286" />
      <path d="M -0.421900504,-0.8888238741 C -0.220006132,-0.8537252721 0.0026300328,-0.8512092669 0.2162589666,-0.8831024614" />
      <path d="M 0.9092090335,-1.1408115818 Q 1.0086375796,-1.2100739878 1.0814168806,-1.2912635986" />
      <path d="M 1.1232709921,-1.3420318935 Q 1.1781675054,-1.4146730097 1.2096890666,-1.49248339" />
      <path d="M 1.2275177921,-1.5432513995 Q 1.2497623221,-1.6178394931 1.2497900964,-1.6937033461" />
      <path d="M 1.2497900964,-1.6937033461 C 1.2511040795,-1.9017656413 1.1184823619,-2.1084923563 0.8895912748,-2.259964281" />
      <path d="M 0.8895912748,-2.259964281 C 0.546272603,-2.4943740366 -0.0160565746,-2.5838277621 -0.465327823,-2.4905191298 C -0.9088229774,-2.4059016452 -1.2147096705,-2.1552543961 -1.2089440376,-1.8949231155" />
      <path d="M -1.2089440376,-1.8949231155 Q -1.2089430972,-1.868025131 -1.2049348158,-1.8412255726" />
      <path d="M 0.4752935399,-1.342031549 Q 0.6711149385,-1.3993746799 0.8298891416,-1.4924834953" />
      <path d="M 0.9092090716,-1.543251286 Q 1.0086457887,-1.6125208337 1.0814168122,-1.6937032429" />
      <path d="M 1.1232707656,-1.7444712658 Q 1.1781636298,-1.8171054328 1.2096890998,-1.8949230658" />
      <path d="M 1.2275177247,-1.9456911848 Q 1.2497647195,-2.0202978346 1.249790079,-2.0961429797" />
      <path d="M 1.249790079,-2.0961429797 C 1.2510887713,-2.3042264817 1.1185021215,-2.5109111811 0.8895912748,-2.662403894" />
      <path d="M 0.8895912748,-2.662403894 C 0.5848799344,-2.8691288417 0.1088940147,-2.9659100328 -0.3089729005,-2.9170048514 C -0.5656421835,-2.8889031613 -0.7975953194,-2.8094173611 -0.9581815959,-2.6972978203 C -1.1198170515,-2.5856522113 -1.2094167631,-2.4419259168 -1.2089437633,-2.2977978747 C -1.2089438509,-2.2976528399 -1.2089439385,-2.2975078051 -1.2089440261,-2.2973627704" />
      <path d="M -1.2089440261,-2.2973627704 Q -1.2089432858,-2.2704676858 -1.2049348104,-2.2436653178" />
      <path d="M 0.4752932935,-1.7444712462 Q 0.6710797944,-1.8018013495 0.8298892122,-1.8949231489" />
      <path d="M 0.9092092457,-1.9456910632 Q 1.0086301891,-2.0149468752 1.0814168039,-2.0961428783" />
      <path d="M 1.1232707089,-2.1469109231 Q 1.1781763882,-2.2195680917 1.2096891167,-2.2973628419" />
      <path d="M 1.2275177923,-2.3481307142 Q 1.249762166,-2.4227177888 1.2497901012,-2.4985826171" />
      <path d="M 1.2497901012,-2.4985826171 C 1.2510969461,-2.7066745423 1.1184702268,-2.9133762401 0.8895912748,-3.0648436374" />
      <path d="M 0.8895912748,-3.0648436374 C 0.5717039577,-3.2809639716 0.0667990173,-3.3758963431 -0.363237345,-3.3126378103 C -0.6074240229,-3.2787686395 -0.825178327,-3.1978045902 -0.9753242429,-3.0875270431 C -1.1264010796,-2.9776356815 -1.209483301,-2.8389684478 -1.2089440021,-2.6998025128" />
      <path d="M -1.2089440021,-2.6998025128 Q -1.2088812162,-2.6234533081 -1.1770620668,-2.5493505886" />
      <path d="M -1.1512216442,-2.4985826484 Q -1.1061834579,-2.4222983268 -1.028853281,-2.3547553004" />
      <path d="M -0.3874647206,-2.0905231492 C -0.18334776,-2.0590209292 0.0399763735,-2.0604509784 0.2525152145,-2.0961429151" />
      <path d="M 0.4752934207,-2.1469108666 Q 0.6710374823,-2.2042230197 0.8298890222,-2.2973628387" />
      <path d="M 0.9092092187,-2.3481308433 Q 1.0085918571,-2.4173520113 1.0814168268,-2.4985826069" />
      <path d="M 1.1232706767,-2.5493505148 Q 1.1781710091,-2.6219981076 1.209689117,-2.6998024914" />
      <path d="M 1.2275178099,-2.750570448 Q 1.2497658056,-2.8251809835 1.2497900943,-2.9010223589" />
      <path d="M 1.2497900943,-2.9010223589 C 1.2511633209,-3.1089547163 1.1184523847,-3.3158672542 0.8895912748,-3.4672834459" />
      <path d="M 0.8895912748,-3.4672834459 C 0.6449488649,-3.6319585742 0.2917231034,-3.7293838723 -0.0551397952,-3.7337458829 C -0.3520849839,-3.7389334648 -0.6404484143,-3.6771688397 -0.8498660756,-3.5672916029 C -1.0781106965,-3.4493345897 -1.2102164281,-3.2765269058 -1.2089423065,-3.1022455226" />
      <path d="M -1.2089423065,-3.1022455226 Q -1.2088963053,-3.0259596119 -1.1770615644,-2.9517891382" />
      <path d="M -1.1512216354,-2.901022311 Q -1.106176571,-2.8247299165 -1.0288532769,-2.7571949429" />
      <path d="M -0.9545555802,-2.6998024594 Q -0.8202883865,-2.6077081077 -0.6341574641,-2.5493506507" />
      <path d="M -0.3874643796,-2.4929628752 C -0.1833321807,-2.4614533402 0.0400791292,-2.4629011114 0.2525155228,-2.4985826285" />
      <path d="M 0.4752937237,-2.5493505257 Q 0.6709990206,-2.6066465158 0.8298889596,-2.6998024732" />
      <path d="M 0.909209126,-2.7505705294 Q 1.0086759928,-2.8198656794 1.0814168359,-2.9010224007" />
      <path d="M 1.1232706617,-2.951790263 Q 1.1781641539,-3.0244257277 1.209689108,-3.1022421286" />
      <path d="M 1.2490128077,-3.2752452523 L 1.2497900927,-3.3034620126" />
      <path d="M 1.2497900927,-3.3034620126 C 1.251095347,-3.5115391389 1.1184872474,-3.7182458216 0.8895912748,-3.8697231584" />
      <path d="M 0.8895912748,-3.8697231584 C 0.6099328916,-4.0587839103 0.1868063509,-4.157341983 -0.2043048605,-4.1331073241 C -0.4947437178,-4.1169783595 -0.7632760358,-4.0360243788 -0.9452619238,-3.9134229679 C -1.1151552142,-3.800342369 -1.2096275367,-3.6528455433 -1.2089429012,-3.504684608" />
      <path d="M -1.2089429012,-3.504684608 Q -1.2088966871,-3.4284039305 -1.1770620465,-3.354229986" />
      <path d="M -1.1512219405,-3.3034625435 Q -1.1039110976,-3.2233493808 -1.0211515829,-3.1530102099" />
      <path d="M -0.9545555922,-3.1022421451 Q -0.8202917481,-3.0101491792 -0.6341575273,-2.951790289" />
      <path d="M -0.3874644824,-2.8954026399 C -0.183298518,-2.8638968429 0.0399515121,-2.8653326002 0.2525098969,-2.9010232819" />
      <path d="M 0.4752918987,-2.9517908685 Q 0.6710813008,-3.0091224755 0.8298897287,-3.1022417227" />
      <path d="M 0.9092074557,-3.1530112479 Q 1.0086179713,-3.2222670436 1.0814143705,-3.3034648577" />
      <path d="M 1.1232705213,-3.3542302663 Q 1.1781471529,-3.4268360881 1.2096890751,-3.5046819185" />
      <path d="M 1.2490128265,-3.6776846976 L 1.2497901159,-3.7059016525" />
      <path d="M 1.2497901159,-3.7059016525 C 1.2511206154,-3.9139266466 1.1184796766,-4.1206996834 0.8895912748,-4.2721627621" />
      <path d="M 0.8895912748,-4.2721627621 C 0.5622493176,-4.4950565395 0.0362606527,-4.5882497259 -0.40161913,-4.5141721578 C -0.6587929477,-4.4730633093 -0.8823425221,-4.3791568371 -1.0255085349,-4.2550681314 C -1.1449837895,-4.1524464367 -1.2092817282,-4.0299043818 -1.2089412136,-3.9071402117" />
      <path d="M -1.2089412136,-3.9071402117 Q -1.2088857337,-3.8308282892 -1.1770602333,-3.7566674856" />
      <path d="M -1.1512218415,-3.7059020604 Q -1.1039172888,-3.625796338 -1.0211514776,-3.5554498154" />
      <path d="M -0.9545509817,-3.5046786686 Q -0.8202620911,-3.4125756321 -0.6341562595,-3.3542295305" />
      <path d="M -0.3874653401,-3.2978423492 C -0.1832734451,-3.2663289479 0.0400562307,-3.2677828546 0.2525146673,-3.3034620876" />
      <path d="M 0.4752938454,-3.3542300287 Q 0.6710325648,-3.411540443 0.8298892065,-3.5046818454" />
      <path d="M 0.8895912748,-4.6746024359 C 0.5504805192,-4.9059605156 -0.0021298686,-4.9964977927 -0.4486076103,-4.9083932385 C -0.880661869,-4.829987786 -1.1890315118,-4.5949832713 -1.2073724079,-4.3432001037 C -1.2078962801,-4.3319871435 -1.2084201522,-4.3207741834 -1.2089440243,-4.3095612232" />
      <path d="M -1.2089440243,-4.3095612232 Q -1.2088884689,-4.2332497919 -1.1770620534,-4.1591092857" />
      <path d="M -1.1512188869,-4.1083367103 Q -1.1039212708,-4.0282411452 -1.021150517,-3.957888679" />
      <path d="M -0.95455559,-3.9071215281 Q -0.8203497415,-3.8150552087 -0.634157462,-3.756669601" />
      <path d="M -0.4218992646,-3.705901448 C -0.2200373951,-3.6708107752 0.00255462,-3.6682793684 0.216258465,-3.7001802632" />
      <path d="M 0.4752934532,-3.7566697417 Q 0.6710145576,-3.8139714481 0.8298892405,-3.907121575" />
      <line x1="0.8895912748" y1="-4.7761383504" x2="0.8895912748" y2="-4.6746024359" />
      <line x1="0.8895912748" y1="-4.3736987356" x2="0.8895912748" y2="-4.2721627621" />
      <line x1="0.8895912748" y1="-3.9712589969" x2="0.8895912748" y2="-3.8697231584" />
      <line x1="0.8895912748" y1="-3.5688191872" x2="0.8895912748" y2="-3.4672834459" />
      <line x1="0.8895912748" y1="-3.1663795306" x2="0.8895912748" y2="-3.0648436374" />
      <line x1="0.8895912748" y1="-2.7639399775" x2="0.8895912748" y2="-2.662403894" />
      <line x1="0.8895912748" y1="-2.361500343" x2="0.8895912748" y2="-2.259964281" />
      <line x1="0.8895912748" y1="-1.9590605729" x2="0.8895912748" y2="-1.8575247066" />
      <line x1="0.8895912748" y1="-1.5566207717" x2="0.8895912748" y2="-1.4550850537" />
      <line x1="0.8895912748" y1="-1.1541810508" x2="0.8895912748" y2="-1.1475968249" />
      <line x1="0.8895912748" y1="-0.7517414146" x2="0.8895912748" y2="-0.6948520901" />
      <line x1="0.8895912748" y1="-0.3493017873" x2="0.8895912748" y2="-0.292412426" />
      <line x1="0.8895912748" y1="0.0531378874" x2="0.8895912748" y2="0.1100272187" />
      <line x1="0.8895912748" y1="0.455577594" x2="0.8895912748" y2="0.5571135162" />
      <line x1="0.8895912748" y1="0.8580172837" x2="0.8895912748" y2="0.9595532158" />
      <line x1="0.8895912748" y1="1.2604569457" x2="0.8895912748" y2="1.3619929171" />
      <path d="M 1.0809301027,-5.0150183171 C 0.784224356,-5.1531972494 0.4097072964,-5.2231365582 0.0511179384,-5.2129630911 C -0.2521670304,-5.2053103712 -0.5418697768,-5.142289956 -0.7712860681,-5.0387321764" />
      <path d="M -0.7712860681,-5.0387321764 C -0.7674072098,-5.0396956431 -0.7614205188,-5.0412704263 -0.7533259951,-5.0434565262 C -0.7411920261,-5.0466217633 -0.7309249627,-5.0499122692 -0.6822153252,-5.0624215893 C -0.638902958,-5.0736628944 -0.5546523049,-5.0920948525 -0.4727651462,-5.1021855804 C -0.3868994844,-5.1132903624 -0.297500063,-5.1184363993 -0.2045668821,-5.1176236912 C 0.1864345073,-5.1156376166 0.6098326329,-4.9912345229 0.8895912748,-4.7761383531" />
      <path d="M 1.0809301027,-5.0653232783 C 0.8930235511,-5.1523854902 0.6743480284,-5.213226488 0.4478841687,-5.2427142477" />
      <path d="M 0.4478841687,-5.2427142477 C 0.0130451143,-5.3008147146 -0.4430896559,-5.2383811261 -0.7712860681,-5.0890371376" />
      <path d="M -0.7712860681,-5.0387321764 L -0.7712860681,-5.0890371376" />
      <path d="M 1.2470801411,-4.5634490202 A 1.2293670613173628,0.7295536738173398 1.9757958541112684e-15 0,1 1.2434643349,-4.537948953" />
      <path d="M 1.0102811347,-4.1792127213 A 1.2293670613173628,0.7295536738173398 1.9757958541112684e-15 0,1 0.7783598837,-4.0374604853" />
      <path d="M 0.6641446299,-3.9903187437 A 1.2293670613173628,0.7295536738173398 1.9757958541112684e-15 0,1 -0.7180586826,-4.0286040931" />
      <path d="M -0.8265486895,-4.0830758798 A 1.2293670613173628,0.7295536738173398 1.9757958541112684e-15 0,1 -1.039730952,-4.2424904191" />
      <path d="M -1.0876804127,-4.2959164278 A 1.2293670613173628,0.7295536738173398 1.9757958541112684e-15 0,1 -1.1797117137,-4.4537144645" />
      <path d="M -1.2089440261,-4.6118632551 A 1.2293670613173628,0.7295536738173398 1.9757958541112684e-15 0,1 0.8311116323,-5.1603131977" />
      <path d="M -0.7712860681,-5.0890371376 C -0.7633457696,-5.0937284133 -0.7564183896,-5.098309192 -0.728714895,-5.1125561649 C -0.7178399788,-5.1186413369 -0.692535322,-5.1302549669 -0.6528009246,-5.1473970551 C -0.6054633251,-5.1673225796 -0.538056849,-5.1912779621 -0.4710019397,-5.2096098291 C -0.2241464945,-5.2783014816 0.0617409154,-5.2959010787 0.3243036205,-5.2592894262" />
      <path d="M 1.9238123311,2.3070598712 A 2.6921877707974304,1.5976477169371188 1.9757958541112684e-15 0,1 -1.8829662606,4.566801205 A 2.6921877707974304,1.5976477169371188 1.9757958541112684e-15 0,1 1.9238123311,2.3070598712" />
      <path d="M -1.8592291268,2.0443490598 A 2.7823438853987152,1.6511498211451028 1.9757958541112684e-15 0,1 1.9000751973,2.0443490598" />
      <path d="M 1.9000751973,2.0443490598 A 2.7823438853987152,1.6511498211451028 1.9757958541112684e-15 0,1 1.9875531241,2.0940357891" />
      <path d="M -1.8592291268,2.0443490598 C -2.2900602878,2.2774396339 -2.5908752509,2.591791139 -2.7201251053,2.9249447431 C -2.7722433999,3.0582007927 -2.7986183128,3.1928999606 -2.7992498438,3.329042247 C -2.7999756347,3.4704069873 -2.7729589555,3.6102380184 -2.7181998062,3.7485353402 C -2.6422344691,3.9401066284 -2.5146741856,4.1197423951 -2.3355189557,4.2874426403 C -2.0103248368,4.5916408004 -1.5150787857,4.8315672795 -0.9456717383,4.9562201396 C -0.3140692236,5.0970578185 0.4033889423,5.0934029468 1.0308759014,4.9461706417 C 1.5821507557,4.8190251461 2.0601909308,4.5833351002 2.3769793679,4.2868713695 C 2.5573053316,4.1179065947 2.6852816152,3.9368911244 2.7609082184,3.7438249585 C 2.8671314359,3.4731956556 2.8665310039,3.1907214822 2.7591092562,2.9202341991 C 2.6378433055,2.6123099247 2.3708937067,2.3205330461 1.9888668652,2.0947830305" />
      <path d="M 1.9000751973,2.0443490598 L 1.9527079789,2.0737122869 L 1.9888668652,2.0947830305" />
      <line x1="0.9384690548" y1="1.5214778703" x2="1.9000751973" y2="2.0443490598" />
      <line x1="-0.8578105374" y1="1.4998299413" x2="-1.8592291268" y2="2.0443490598" />
      <path d="M 1.520423294,-4.3351767347 L 1.520423294,-4.3854816959" />
      <path d="M -1.4795769049,-4.1339571834 L -1.4795769049,-4.1842621446" />
      <path d="M 1.520423099,-3.9327361815 L 1.520423099,-3.9830411427" />
      <path d="M -1.4795768491,-3.7315171316 L -1.4795768491,-3.7818220928" />
      <path d="M 1.5204228907,-3.5302972886 L 1.5204228907,-3.5806022498" />
      <path d="M -1.4795769017,-3.3290773419 L -1.4795769017,-3.3793823032" />
      <path d="M 1.520423018,-3.1278579466 L 1.520423018,-3.1781629078" />
      <path d="M -1.4795769297,-2.9266378436 L -1.4795769297,-2.9769428048" />
      <path d="M 1.5204229663,-2.7254174903 L 1.5204229663,-2.7757224515" />
      <path d="M -1.4795768803,-2.5241982767 L -1.4795768803,-2.5745032379" />
      <path d="M 1.5204229207,-2.3229787351 L 1.5204229207,-2.3732836964" />
      <path d="M -1.4795768505,-2.1217583706 L -1.4795768505,-2.1720633318" />
      <path d="M 1.5204231976,-1.9205392907 L 1.5204231976,-1.9708442519" />
      <path d="M -1.4795769573,-1.7193183212 L -1.4795769573,-1.7696232824" />
      <path d="M 1.5204232678,-1.5180984674 L 1.5204232678,-1.5684034286" />
      <path d="M -1.4795771569,-1.3168786168 L -1.4795771569,-1.367183578" />
      <path d="M 1.5204229708,-1.1156582388 L 1.5204229708,-1.1659632" />
      <path d="M -1.4795772417,-0.9144394484 L -1.4795772417,-0.9647444096" />
      <path d="M 1.5204227211,-0.7132192845 L 1.5204227211,-0.7635242457" />
      <path d="M -1.4795770632,-0.512000348 L -1.4795770632,-0.5623053092" />
      <path d="M 1.5204228245,-0.3107805301 L 1.5204228245,-0.3610854913" />
      <path d="M -1.4795767543,-0.1095605881 L -1.4795767543,-0.1598655493" />
      <path d="M 1.5204231333,0.0916590761 L 1.5204231333,0.0413541149" />
      <path d="M -1.4795766506,0.2928799147 L -1.4795766506,0.2425749535" />
      <path d="M 1.5204233121,0.4940994389 L 1.5204233121,0.4437944777" />
      <path d="M -1.4795768999,0.6953202356 L -1.4795768999,0.6450152744" />
      <path d="M 1.5204232276,0.8965397324 L 1.5204232276,0.8462347712" />
      <path d="M -1.4795771972,1.0977594415 L -1.4795771972,1.0474544803" />
      <path d="M 1.520423028,1.2989794214 L 1.520423028,1.2486744601" />
      <path d="M -1.4795771275,1.5001981514 L -1.4795771275,1.4498931901" />
      <path d="M 1.520422921,1.7014187128 L 1.520422921,1.6511137515" />
      <line x1="-1.2089440261" y1="-3.9071215058" x2="-1.2089440261" y2="-4.0086574747" />
      <line x1="-1.2089440261" y1="-3.5046818394" x2="-1.2089440261" y2="-3.6062178008" />
      <line x1="-1.2089440261" y1="-3.1022421708" x2="-1.2089440261" y2="-3.2037780935" />
      <line x1="-1.2089440261" y1="-2.6998024716" x2="-1.2089440261" y2="-2.8013384036" />
      <line x1="1.2497900965" y1="-2.9010223263" x2="1.2497900965" y2="-3.0025582321" />
      <line x1="-1.2089440261" y1="-2.2973627704" x2="-1.2089440261" y2="-2.3988987417" />
      <line x1="1.2497900965" y1="-2.498582619" x2="1.2497900965" y2="-2.6001185858" />
      <line x1="1.2497900965" y1="-2.0961430111" x2="1.2497900965" y2="-2.197678912" />
      <line x1="1.2497900965" y1="-1.6937033473" x2="1.2497900965" y2="-1.7952390941" />
      <line x1="1.2497900965" y1="-1.2912635549" x2="1.2497900965" y2="-1.3927993769" />
      <line x1="-1.2089440261" y1="-0.68760408" x2="-1.2089440261" y2="-0.7891398299" />
      <line x1="1.2497900965" y1="-0.9101950254" x2="1.2497900965" y2="-0.9903598098" />
      <line x1="-1.2089440261" y1="-0.2851642734" x2="-1.2089440261" y2="-0.3867002111" />
      <line x1="1.2497900965" y1="-0.5077551328" x2="1.2497900965" y2="-0.5879202182" />
      <line x1="-1.2089440261" y1="0.1172754579" x2="-1.2089440261" y2="0.0157393608" />
      <line x1="1.2497900965" y1="-0.1053152561" x2="1.2497900965" y2="-0.1854804871" />
      <line x1="-1.2089440261" y1="0.5197150492" x2="-1.2089440261" y2="0.4181790133" />
      <line x1="-1.2089440261" y1="0.922154616" x2="-1.2089440261" y2="0.8206187957" />
      <line x1="-1.2089440261" y1="1.3245943331" x2="-1.2089440261" y2="1.2230585868" />
      <line x1="-1.2089440261" y1="1.6907579905" x2="-1.2089440261" y2="1.6254982515" />
      <line x1="1.2497900965" y1="1.5258143023" x2="1.2497900965" y2="1.4242783527" />
      <line x1="-1.2089440261" y1="-4.3095612234" x2="-1.2089440261" y2="-4.6118632551" />
      <path d="M 0.3243036209,-5.2592894262 L 0.4478841687,-5.2427142477" />
    </g>
  </g>
</svg>