<?xml version='1.0' encoding='utf-8'?>
<svg width="219.5862468921mm" height="513.0000000013mm" viewBox="-2.0867758339 -4.5434720496 4.1644024965 9.7289266106" version="1.1" xmlns="http://www.w3.org/2000/svg">
  <g transform="scale(1,-1)" stroke-linecap="round">
    <g fill="none" stroke="rgb(64,192,64)" stroke-width="0.01896476922139303" id="Visible">
      <path d="M 0.4593774597,3.7224910974 A 0.13400000000000004,0.07946081858917932 180.0 0,0 0.6533726198,3.6514395164" />
      <path d="M 0.6533726198,3.6514395164 A 0.13400000000000004,0.07946081858917932 180.0 0,0 0.6391954525,3.6158675142" />
      <path d="M 0.6391954525,3.6158675142 A 0.42408819458648656,0.2514805604167864 -1.9749871594120985e-15 0,1 0.5943270251,3.5032879155" />
      <path d="M 0.5943270251,3.5032879155 A 0.42408819458648656,0.2514805604167864 -1.9749871594120985e-15 0,1 0.784949369,3.293345173" />
      <path d="M 0.784949369,3.293345173 A 0.13400000000000004,0.07946081858917932 180.0 0,0 0.8451806946,3.2270091423" />
      <path d="M 0.8451806946,3.2270091423 A 0.13400000000000004,0.07946081858917932 180.0 0,0 0.7191414943,3.1476886731" />
      <path d="M 0.7191414943,3.1476886731 A 0.42408819458648656,0.2514805604167864 -3.456227528971172e-15 0,1 0.3209953606,2.9115762449" />
      <path d="M 0.3209953606,2.9115762449 A 0.13400000000000004,0.07946081858917932 180.0 0,0 0.0753694931,2.8725433282" />
      <path d="M 0.0753694931,2.8725433282 A 0.42408819458648656,0.2514805604167864 -3.949974318824196e-15 0,1 -0.4685305571,2.9589532412" />
      <path d="M -0.4685305571,2.9589532412 A 0.13400000000000004,0.07946081858917932 180.0 0,0 -0.6625257172,3.0300048221" />
      <path d="M -0.6625257172,3.0300048221 A 0.13400000000000004,0.07946081858917932 180.0 0,0 -0.6483485499,3.0655768244" />
      <path d="M -0.6483485499,3.0655768244 A 0.42408819458648656,0.2514805604167863 1.974987159412098e-15 0,1 -0.6034801225,3.1781564231" />
      <path d="M -0.6034801225,3.1781564231 A 0.42408819458648656,0.2514805604167863 1.974987159412098e-15 0,1 -0.7941024665,3.3880991656" />
      <path d="M -0.7941024665,3.3880991656 A 0.13400000000000004,0.07946081858917932 180.0 0,0 -0.854333792,3.4544351963" />
      <path d="M -0.854333792,3.4544351963 A 0.13400000000000004,0.07946081858917932 180.0 0,0 -0.7282945917,3.5337556655" />
      <path d="M -0.7282945917,3.5337556655 A 0.42408819458648656,0.2514805604167864 -1.9749871594120985e-15 0,1 -0.3301484581,3.7698680937" />
      <path d="M -0.3301484581,3.7698680937 A 0.13400000000000004,0.07946081858917932 180.0 0,0 -0.0845225905,3.8089010103" />
      <path d="M -0.0845225905,3.8089010103 A 0.42408819458648656,0.2514805604167864 0.0 0,1 0.4593774597,3.7224910974" />
      <line x1="0.784949369" y1="3.293345173" x2="0.784949369" y2="3.1606731116" />
      <line x1="-0.3301484581" y1="3.7698680937" x2="-0.3301484581" y2="2.9837064585" />
      <path d="M -0.2713888254,2.9855301882 A 0.13400000000000004,0.07946081858917932 180.0 0,0 -0.0845225905,2.9634316108" />
      <path d="M -0.0845225905,2.9634316108 A 0.42408819458648656,0.2514805604167864 0.0 0,1 -0.0738803453,2.9543074412" />
      <path d="M 0.0647272479,2.8816674979 A 0.42408819458648656,0.2514805604167864 0.0 0,1 0.2622357279,2.8504447508" />
      <path d="M -0.6810752187,1.9377667146 A 1.0000000000000004,0.5929911835013383 -1.974987159412098e-15 0,1 0.6719221213,1.9377667146" />
      <path d="M 0.7025531148,-4.9897503011 L 0.7025531148,-4.9494898535" />
      <path d="M 0.7025531148,-4.9494898535 C 0.8886680128,-4.8265879722 0.9964845081,-4.6588111428 0.995423505,-4.4899366213" />
      <path d="M 0.995423505,-4.4899366213 Q 0.9953849931,-4.4186901755 0.9712425906,-4.349024919" />
      <path d="M 0.9637326806,-4.3288946891 Q 0.9298624374,-4.2443343852 0.8625547091,-4.1678529299" />
      <path d="M 0.6178815394,-3.9797505776 L 0.5751302404,-3.9579298422" />
      <path d="M -0.6671157107,-3.9281254385 Q -0.705967452,-3.9458488502 -0.7410575819,-3.9658450633" />
      <path d="M -0.7736731706,-3.9854376928 C -0.9220205601,-4.0788399257 -1.0052305259,-4.2035715467 -1.0045764929,-4.3288948194" />
      <path d="M -1.0045764929,-4.3288948194 C -1.0056376858,-4.4709360198 -0.8978121589,-4.6118796818 -0.7116833462,-4.7079423372 C -0.5270553007,-4.8048949202 -0.2667411527,-4.8554145193 -0.0045763798,-4.8413651074 C 0.2575884,-4.8285742674 0.5179023792,-4.7512143392 0.7025303409,-4.6274213456 C 0.8886590545,-4.5045182777 0.9964846771,-4.3367342929 0.9954234984,-4.1678528538" />
      <path d="M 0.9954234984,-4.1678528538 Q 0.994228915,-3.9964910906 0.8625546862,-3.8457693495" />
      <path d="M -0.6671158145,-3.6060419522 Q -0.7059673711,-3.6237652791 -0.7410573682,-3.6437613994" />
      <path d="M -0.9592338913,-3.8457693218 Q -1.00444049,-3.9242549445 -1.0045765959,-4.0068110921" />
      <path d="M -1.0045765959,-4.0068110921 C -1.0056377746,-4.1488522302 -0.8978121519,-4.289795914 -0.7116834382,-4.3858586809 C -0.5270554765,-4.4828113734 -0.2667414974,-4.5333310006 -0.0045767176,-4.5192815396 C 0.2575880553,-4.5064906505 0.5179022033,-4.4291307505 0.7025302488,-4.3053378664 C 0.8886590614,-4.1824349099 0.9964845884,-4.014650947 0.9954233955,-3.8457694456" />
      <path d="M 0.9954233955,-3.8457694456 Q 0.9945193117,-3.6864095633 0.8795842507,-3.5438159998" />
      <path d="M 0.6178761187,-3.3355804081 L 0.5751297435,-3.3137623314" />
      <path d="M -0.6671159217,-3.2839584432 Q -0.7059674109,-3.3016817343 -0.7410573411,-3.321677801" />
      <path d="M -0.7736731622,-3.3412705462 L -0.8056019748,-3.3626439592" />
      <path d="M -0.8326268792,-3.3827741819 C -0.94420569,-3.4699456729 -1.0049364697,-3.5771981676 -1.0045766024,-3.6847276751" />
      <path d="M -1.0045766024,-3.6847276751 C -1.0056379438,-3.8267747779 -0.8978028938,-3.9677237407 -0.7116604468,-4.0637871449 C -0.4355711693,-4.2115053067 0.0147363906,-4.2444842565 0.3781221086,-4.1319243275 C 0.7452866266,-4.0247747093 1.0003609773,-3.7782682475 0.9954233549,-3.5236855612" />
      <path d="M 0.9954233549,-3.5236855612 Q 0.9953848481,-3.452439128 0.9712424986,-3.3827739319" />
      <path d="M 0.61788159,-3.0134998109 L 0.5751301409,-2.9916790053" />
      <path d="M -0.9700770265,-3.221732448 Q -1.0044980739,-3.2908392882 -1.0045766646,-3.3626441684" />
      <path d="M -1.0045766646,-3.3626441684 C -1.0056378825,-3.5046853963 -0.8978120436,-3.6456291096 -0.7116831026,-3.7416916988 C -0.5270549007,-3.8386442201 -0.2667410844,-3.8891637171 -0.004576543,-3.8751143247 C 0.2575879604,-3.8623235066 0.5179023609,-3.7849636061 0.7025304442,-3.6611706751 C 0.8886592056,-3.5382677027 0.996484086,-3.3704839166 0.9954234513,-3.2016022234" />
      <path d="M 0.9954234513,-3.2016022234 C 0.9959997844,-3.0573227545 0.9181575303,-2.9135479042 0.778386675,-2.7983055232" />
      <path d="M 0.7666732086,-2.7887739886 Q 0.7218137496,-2.7529424637 0.6697851369,-2.7211542897" />
      <path d="M 0.617881555,-2.6914162403 L 0.5751312106,-2.6695959629" />
      <path d="M -0.6671163693,-2.6397915991 Q -0.7059675775,-2.6575147916 -0.7410572826,-2.677510719" />
      <path d="M -0.7736731193,-2.69710346 C -0.92202057,-2.7905055613 -1.0052307124,-2.9152370103 -1.0045766646,-3.0405602799" />
      <path d="M -1.0045766646,-3.0405602799 C -1.0056378579,-3.1826015061 -0.8978121206,-3.323545336 -0.7116833996,-3.4196079996 C -0.5270554214,-3.5165606041 -0.2667416587,-3.5670800767 -0.0045770075,-3.5530307058 C 0.2575876261,-3.5402398919 0.517901882,-3.4628802259 0.7025300788,-3.3390873855 C 0.8886590511,-3.2161844869 0.9964845696,-3.0484003948 0.9954233549,-2.8795188871" />
      <path d="M 0.9954233549,-2.8795188871 C 0.996000104,-2.7352395811 0.9181577219,-2.5914646144 0.778386894,-2.4762221659" />
      <path d="M 0.7666732087,-2.4666904454 Q 0.7218137349,-2.4308588893 0.6697851323,-2.399070703" />
      <path d="M 0.6178748952,-2.3693290648 L 0.5751302223,-2.3475118788" />
      <path d="M -0.9592338913,-2.5574351265 Q -1.0044404862,-2.6359205796 -1.0045766024,-2.7184767732" />
      <path d="M -1.0045766024,-2.7184767732 C -1.0056377933,-2.8605180236 -0.8978120328,-3.0014620406 -0.7116832579,-3.0975245729 C -0.5270552314,-3.1944770679 -0.2667413023,-3.2449964274 -0.0045765803,-3.2309470834 C 0.2575881338,-3.2181562887 0.5179022477,-3.1407966164 0.7025302807,-3.0170036661 C 0.8886590805,-2.8941006629 0.9964845904,-2.7263164732 0.9954233954,-2.5574350027" />
      <path d="M 0.9954233954,-2.5574350027 C 0.9960001606,-2.413155812 0.9181577506,-2.2693810097 0.7783868835,-2.1541386348" />
      <path d="M 0.7666709875,-2.1446051554 Q 0.7218124093,-2.1087745849 0.6697850804,-2.0769871865" />
      <path d="M -0.9592338378,-2.2353514896 Q -1.0044404781,-2.313837116 -1.0045765959,-2.3963933562" />
      <path d="M -1.0045765959,-2.3963933562 C -1.0056379188,-2.5384373765 -0.8978074555,-2.6793841803 -0.7116716965,-2.7754470185 C -0.5270368275,-2.8723998305 -0.266714576,-2.9229163524 -0.0045441876,-2.9088619013 C 0.2576154079,-2.8960658967 0.5179201969,-2.8187045917 0.7025414818,-2.6949125683 C 0.8886634663,-2.5720103482 0.9964846522,-2.4042294676 0.9954234985,-2.2353515944" />
      <path d="M 0.9954234985,-2.2353515944 Q 0.9953572282,-2.1536433974 0.9637326806,-2.0743097591" />
      <path d="M 0.6178814903,-1.7251655324 L 0.575128974,-1.7033441725" />
      <path d="M -0.9700770131,-1.9333981854 Q -1.0044979064,-2.002504877 -1.0045764929,-2.0743096288" />
      <path d="M -1.0045764929,-2.0743096288 C -1.0056376879,-2.2163508016 -0.897812178,-2.3572946936 -0.7116833781,-2.4533573992 C -0.5270553451,-2.5503100518 -0.2667412312,-2.6008294264 -0.0045765171,-2.5867799233 C 0.2575882049,-2.5739889696 0.5179021341,-2.4966293124 0.7025301605,-2.3728365197 C 0.8886589354,-2.2499336897 0.9964846959,-2.0821493751 0.995423505,-1.9132678269" />
      <path d="M 0.995423505,-1.9132678269 Q 0.9953572364,-1.831559657 0.9637327014,-1.7522261416" />
      <path d="M 0.6178814391,-1.4030819825 L 0.5751310508,-1.3812617206" />
      <path d="M -0.9700768432,-1.6113144784 Q -1.0044978614,-1.680421363 -1.0045764524,-1.7522263112" />
      <path d="M -1.0045764524,-1.7522263112 C -1.005637667,-1.8942675221 -0.8978121486,-2.0352113173 -0.7116831763,-2.1312739191 C -0.5270549795,-2.2282264627 -0.2667407236,-2.2787458318 -0.0045760899,-2.2646963489 C 0.2575885613,-2.2519054229 0.517902324,-2.1745456536 0.7025303022,-2.0507527522 C 0.8886590231,-1.9278497917 0.9964847605,-1.760065665 0.9954235672,-1.591184142" />
      <path d="M 0.9954235672,-1.591184142 Q 0.9953573022,-1.5094760579 0.9637328292,-1.4301425298" />
      <path d="M 0.6178814205,-1.0809984037 L 0.5751307728,-1.0591779765" />
      <path d="M -0.9592337408,-1.269100791 Q -1.0044402252,-1.3475863259 -1.0045765487,-1.4301425305" />
      <path d="M -1.0045765487,-1.4301425305 C -1.0045765485,-1.4301483739 -1.0045765484,-1.4301542174 -1.0045765482,-1.4301600608 C -1.0056286566,-1.5722000059 -0.8977976711,-1.7131400104 -0.7116663788,-1.8091990249 C -0.5270356681,-1.906147984 -0.2667221441,-1.9566638532 -0.0045603733,-1.9426120227 C 0.2576014699,-1.9298187165 0.5179109203,-1.8524579389 0.702535726,-1.7286655301 C 0.8886612233,-1.6057630106 0.9964847428,-1.4379806935 0.9954235672,-1.2691009177" />
      <path d="M 0.9954235672,-1.2691009177 C 0.9960003351,-1.124821699 0.918157753,-0.9810467583 0.7783868826,-0.8658043449" />
      <path d="M 0.7666731809,-0.8562726157 Q 0.7339539974,-0.8301332878 0.6973454355,-0.8061055981" />
      <path d="M -0.9592339135,-0.9470170897 Q -1.0044403505,-1.0255026257 -1.0045764524,-1.1080587485" />
      <path d="M -1.0045764524,-1.1080587485 C -1.0095145752,-1.3223875894 -0.754425064,-1.5286391216 -0.3872453083,-1.5955234941 C -0.0238444405,-1.6678187984 0.4264746306,-1.594564561 0.7025531148,-1.406570465 C 0.8886680128,-1.2836685837 0.9964845081,-1.1158917542 0.995423505,-0.9470172328" />
      <path d="M 0.995423505,-0.9470172328 Q 0.995357236,-0.8653090212 0.9637326806,-0.7859753006" />
      <path d="M -0.9700769557,-0.6450638175 Q -1.0044979067,-0.7141706187 -1.0045764929,-0.7859754309" />
      <path d="M -1.0045764929,-0.7859754309 C -1.0056376858,-0.9280166313 -0.8978121589,-1.0689602932 -0.7116833462,-1.1650229487 C -0.5270553007,-1.2619755317 -0.2667411527,-1.3124951307 -0.0045763798,-1.2984457188 C 0.2575884,-1.2856548789 0.5179023792,-1.2082949507 0.7025303409,-1.0845019571 C 0.8886590545,-0.9615988892 0.9964846771,-0.7938149043 0.9954234984,-0.6249334653" />
      <path d="M 0.9954234984,-0.6249334653 Q 0.9953849906,-0.553687079 0.9712426024,-0.4840218936" />
      <path d="M -0.9592338913,-0.3028499333 Q -1.00444049,-0.381335556 -1.0045765959,-0.4638917036" />
      <path d="M -1.0045765959,-0.4638917036 C -1.0056377746,-0.6059328417 -0.8978121519,-0.7468765254 -0.7116834382,-0.8429392923 C -0.5270554765,-0.9398919849 -0.2667414974,-0.9904116121 -0.0045767176,-0.9763621511 C 0.2575880553,-0.9635712619 0.5179022033,-0.8862113619 0.7025302488,-0.7624184778 C 0.8886590614,-0.6395155214 0.9964845884,-0.4717315584 0.9954233955,-0.3028500571" />
      <path d="M 0.9954233955,-0.3028500571 Q 0.9953848857,-0.2316035785 0.9712424946,-0.1619383188" />
      <path d="M -0.9592339703,0.0192334822 Q -1.0044404869,-0.059252142 -1.0045766024,-0.1418082866" />
      <path d="M -1.0045766024,-0.1418082866 C -1.0056379438,-0.2838553893 -0.8978028938,-0.4248043521 -0.7116604468,-0.5208677564 C -0.4355711693,-0.6685859182 0.0147363906,-0.701564868 0.3781221086,-0.589004939 C 0.7452866266,-0.4818553208 1.0003609773,-0.235348859 0.9954233549,0.0192338273" />
      <path d="M 0.9954233549,0.0192338273 Q 0.9953848481,0.0904802605 0.9712424986,0.1601454566" />
      <path d="M 0.9637326037,0.1802756679 Q 0.9343727681,0.2536491956 0.8795844091,0.3211869406" />
      <path d="M -0.6671160173,0.5810444228 Q -0.705967432,0.5633211419 -0.7410573037,0.5433250973" />
      <path d="M -0.7736731378,0.5237323353 C -0.9220205332,0.4303301449 -1.0052306991,0.3055985486 -1.0045766646,0.1802752202" />
      <path d="M -1.0045766646,0.1802752202 C -1.0056378825,0.0382339922 -0.8978120436,-0.102709721 -0.7116831026,-0.1987723103 C -0.5270549007,-0.2957248315 -0.2667410844,-0.3462443286 -0.004576543,-0.3321949361 C 0.2575879604,-0.319404118 0.5179023609,-0.2420442176 0.7025304442,-0.1182512866 C 0.8886592056,0.0046516859 0.996484086,0.172435472 0.9954234513,0.3413171652" />
      <path d="M 0.9954234513,0.3413171652 Q 0.994518949,0.5006771695 0.8795842506,0.6432704924" />
      <path d="M 0.617880788,0.8515035602 L 0.5751301929,0.873323919" />
      <path d="M -0.6671145625,0.9031286135 Q -0.7059667628,0.8854050616 -0.741057289,0.8654086659" />
      <path d="M -0.7736731241,0.8458159255 L -0.8056019753,0.8244425063" />
      <path d="M -0.8326268916,0.8043122973 C -0.9442057733,0.7171408541 -1.0049365387,0.6098885937 -1.0045766646,0.5023591087" />
      <path d="M -1.0045766646,0.5023591087 C -1.0056378579,0.3603178825 -0.8978121206,0.2193740526 -0.7116833996,0.123311389 C -0.5270554214,0.0263587844 -0.2667416587,-0.0241606881 -0.0045770075,-0.0101113173 C 0.2575876261,0.0026794967 0.517901882,0.0800391626 0.7025300788,0.203832003 C 0.8886590511,0.3267349017 0.9964845696,0.4945189937 0.9954233549,0.6634005014" />
      <path d="M 0.9954233549,0.6634005014 Q 0.9953848427,0.7346469734 0.9712424946,0.8043122" />
      <path d="M 0.9637325956,0.8244424368 Q 0.9298623997,0.9090027778 0.8625546862,0.9854842898" />
      <path d="M -0.6671161943,1.2252115016 Q -0.7059675638,1.2074882907 -0.7410572978,1.1874922836" />
      <path d="M -0.7736731115,1.1678994851 C -0.9220203997,1.0744969988 -1.0052306429,0.9497659813 -1.0045766024,0.8244426154" />
      <path d="M -1.0045766024,0.8244426154 C -1.0056377933,0.6824013649 -0.8978120328,0.541457348 -0.7116832579,0.4453948157 C -0.5270552314,0.3484423207 -0.2667413023,0.2979229612 -0.0045765803,0.3119723052 C 0.2575881338,0.3247630999 0.5179022477,0.4021227721 0.7025302807,0.5259157224 C 0.8886590805,0.6488187257 0.9964845904,0.8166029154 0.9954233954,0.9854843859" />
      <path d="M 0.9954233954,0.9854843859 Q 0.9942288084,1.1568462713 0.8625547091,1.3075678702" />
      <path d="M -0.6671162356,1.5472950411 Q -0.7059676833,1.529571719 -0.7410575726,1.5095756351" />
      <path d="M -0.7736731073,1.4899830346 C -0.9220205107,1.396580782 -1.0052306206,1.2718493079 -1.0045765959,1.1465260324" />
      <path d="M -1.0045765959,1.1465260324 C -1.0056379188,1.0044820121 -0.8978074555,0.8635352082 -0.7116716965,0.7674723701 C -0.5270368275,0.6705195581 -0.2667145759,0.6200030361 -0.0045441876,0.6340574872 C 0.2576154079,0.6468534918 0.5179201969,0.7242147968 0.7025414818,0.8480068202 C 0.8886634663,0.9709090404 0.9964846522,1.138689921 0.9954234985,1.3075677942" />
      <path d="M 0.9954234985,1.3075677942 C 0.9960002573,1.4518469591 0.9181577377,1.5956217763 0.7783868842,1.7108642446" />
      <path d="M 0.7666746424,1.7203948118 Q 0.7218145356,1.7562270332 0.6697850799,1.7880157631" />
      <path d="M 0.6178815098,1.8177538457 L 0.5751304222,1.8395745139" />
      <path d="M -0.6671181097,1.8693777694 Q -0.7059683657,1.8516549156 -0.7410572705,1.8316594334" />
      <path d="M -0.7736731283,1.8120666673 C -0.9220205378,1.7186645117 -1.0052305249,1.5939330601 -1.0045764929,1.4686097597" />
      <path d="M -1.0045764929,1.4686097597 C -1.0056376879,1.326568587 -0.897812178,1.185624695 -0.7116833781,1.0895619894 C -0.5270553451,0.9926093367 -0.2667412312,0.9420899622 -0.0045765171,0.9561394652 C 0.2575882049,0.9689304189 0.5179021341,1.0462900761 0.7025301605,1.1700828689 C 0.8886589354,1.2929856988 0.9964846959,1.4607700135 0.995423505,1.6296515617" />
      <path d="M 0.995423505,1.6296515617 Q 0.9953572364,1.7113597316 0.9637327014,1.7906932469" />
      <path d="M -0.8835058996,2.0480353189 Q -1.0035875406,1.9283275268 -1.0045764524,1.7906930774" />
      <path d="M -1.0045764524,1.7906930774 C -1.005637667,1.6486518665 -0.8978121486,1.5077080713 -0.7116831763,1.4116454694 C -0.5270549795,1.3146929259 -0.2667407236,1.2641735567 -0.0045760899,1.2782230396 C 0.2575885613,1.2910139656 0.517902324,1.368373735 0.7025303022,1.4921666364 C 0.8886590231,1.6150695968 0.9964847605,1.7828537236 0.9954235672,1.9517352466" />
      <path d="M 0.9954235672,1.9517352466 Q 0.9953768871,2.0265246226 0.9688086105,2.0994875499" />
      <path d="M -1.0045740663,2.1139839079 L -1.0045765487,2.1127768581" />
      <path d="M -1.0045765487,2.1127768581 C -1.0045765485,2.1127710146 -1.0045765484,2.1127651712 -1.0045765482,2.1127593277 C -1.0053010505,1.9837128114 -0.9168987911,1.8553522299 -0.7603782051,1.7610821517 C -0.6049650737,1.6662430445 -0.3829436699,1.6065281591 -0.1470802424,1.5990285759 C 0.0885743927,1.5906688833 0.3357883642,1.6347192866 0.5358095391,1.7236096899 C 0.7366225724,1.8117689371 0.8883020859,1.9440291405 0.954799748,2.0918566033" />
      <path d="M 0.7025531148,-4.9897503011 C 0.8886680128,-4.8668484198 0.9964845081,-4.6990715904 0.995423505,-4.5301970689" />
      <path d="M 0.9949352456,-4.5100668434 Q 0.9914267796,-4.4385870193 0.9637326806,-4.3691551367" />
      <path d="M 0.9551581653,-4.3490249066 Q 0.9165504325,-4.2640099535 0.8440954949,-4.1879831515" />
      <path d="M 0.1378787734,-3.8700601277 L 0.1051330417,-3.8658996588" />
      <path d="M -0.2849331029,-3.8658995809 L -0.3157316383,-3.8699020023" />
      <path d="M -0.7595514385,-4.016959967 C -0.9165866287,-4.1112828472 -1.005314369,-4.2398741077 -1.0045764929,-4.369155267" />
      <path d="M -1.0045764929,-4.369155267 C -1.0056376858,-4.5111964674 -0.8978121589,-4.6521401294 -0.7116833462,-4.7482027848 C -0.5270553007,-4.8451553678 -0.2667411527,-4.8956749668 -0.0045763798,-4.881625555 C 0.2575884,-4.868834715 0.5179023792,-4.7914747868 0.7025303409,-4.6676817932 C 0.8886590545,-4.5447787253 0.9964846771,-4.3769947405 0.9954234984,-4.2081133014" />
      <path d="M 0.9954234984,-4.2081133014 Q 0.9938666176,-4.0244336001 0.8440954801,-3.8658995848" />
      <path d="M 0.137878708,-3.5479765433 Q -0.0767305842,-3.5190372101 -0.2849325208,-3.543816082" />
      <path d="M -0.7595424651,-3.6948709982 C -0.9165831454,-3.7891943773 -1.0053145563,-3.9177880394 -1.0045765959,-4.0470715397" />
      <path d="M -1.0045765959,-4.0470715397 C -1.0056377746,-4.1891126778 -0.8978121519,-4.3300563616 -0.7116834382,-4.4261191285 C -0.5270554765,-4.523071821 -0.2667414974,-4.5735914482 -0.0045767176,-4.5595419872 C 0.2575880553,-4.5467510981 0.5179022033,-4.4693911981 0.7025302488,-4.345598314 C 0.8886590614,-4.2226953575 0.9964845884,-4.0549113946 0.9954233955,-3.8860298932" />
      <path d="M 0.9954233955,-3.8860298932 Q 0.9953161954,-3.7937416811 0.9551580926,-3.7048577315" />
      <path d="M 0.1378789065,-3.2258929278 Q -0.0934727862,-3.1948072409 -0.3157312791,-3.225734904" />
      <path d="M -1.0038859318,-3.7048578965 L -1.0045766024,-3.7249881227" />
      <path d="M -1.0045766024,-3.7249881227 C -1.0056379438,-3.8670352255 -0.8978028938,-4.0079841883 -0.7116604468,-4.1040475925 C -0.4355711693,-4.2517657543 0.0147363906,-4.2847447041 0.3781221086,-4.1721847751 C 0.7452866266,-4.0650351569 1.0003609773,-3.8185286951 0.9954233549,-3.5639460088" />
      <path d="M 0.9954233549,-3.5639460088 L 0.994935097,-3.5438157856" />
      <path d="M 0.1378751127,-2.9038088523 Q -0.0767324075,-2.8748703166 -0.2849325208,-2.8996488138" />
      <path d="M -1.0038859942,-3.3827743915 L -1.0045766646,-3.402904616" />
      <path d="M -1.0045766646,-3.402904616 C -1.0056378825,-3.5449458439 -0.8978120436,-3.6858895572 -0.7116831026,-3.7819521464 C -0.5270549007,-3.8789046677 -0.2667410844,-3.9294241647 -0.004576543,-3.9153747723 C 0.2575879604,-3.9025839542 0.5179023609,-3.8252240537 0.7025304442,-3.7014311227 C 0.8886592056,-3.5785281503 0.996484086,-3.4107443642 0.9954234513,-3.241862671" />
      <path d="M 0.9954234513,-3.241862671 Q 0.9953160601,-3.1495746329 0.955158108,-3.0606909302" />
      <path d="M 0.1051330417,-2.5775652371 Q -0.0932659123,-2.5547126121 -0.2849331031,-2.5775653149" />
      <path d="M -1.0038859942,-3.0606905044 L -1.0045766646,-3.0808207275" />
      <path d="M -1.0045766646,-3.0808207275 C -1.0056378579,-3.2228619537 -0.8978121206,-3.3638057836 -0.7116833996,-3.4598684472 C -0.5270554214,-3.5568210517 -0.2667416587,-3.6073405243 -0.0045770075,-3.5932911534 C 0.2575876261,-3.5805003395 0.517901882,-3.5031406735 0.7025300788,-3.3793478331 C 0.8886590511,-3.2564449345 0.9964845696,-3.0886608424 0.9954233549,-2.9197793347" />
      <path d="M 0.9954233549,-2.9197793347 L 0.994935097,-2.8996491103" />
      <path d="M -1.0038859318,-2.7386069994 L -1.0045766024,-2.7587372208" />
      <path d="M -1.0045766024,-2.7587372208 C -1.0056377933,-2.9007784712 -0.8978120328,-3.0417224882 -0.7116832579,-3.1377850205 C -0.5270552314,-3.2347375155 -0.2667413023,-3.285256875 -0.0045765803,-3.271207531 C 0.2575881338,-3.2584167363 0.5179022477,-3.181057064 0.7025302807,-3.0572641137 C 0.8886590805,-2.9343611105 0.9964845904,-2.7665769207 0.9954233954,-2.5976954503" />
      <path d="M 0.9954233954,-2.5976954503 L 0.994935137,-2.5775652269" />
      <path d="M 0.1378791177,-1.9375585754 L 0.1051335032,-1.9333981092" />
      <path d="M -1.0038859251,-2.4165235799 L -1.0045765959,-2.4366538038" />
      <path d="M -1.0045765959,-2.4366538038 C -1.0056379188,-2.5786978241 -0.8978074555,-2.7196446279 -0.7116716965,-2.8157074661 C -0.5270368275,-2.9126602781 -0.266714576,-2.9631768 -0.0045441876,-2.9491223489 C 0.2576154079,-2.9363263443 0.5179201969,-2.8589650393 0.7025414818,-2.7351730159 C 0.8886634663,-2.6122707958 0.9964846522,-2.4444899152 0.9954234985,-2.275612042" />
      <path d="M 0.9954234985,-2.275612042 L 0.9949352391,-2.255481818" />
      <path d="M -0.2849331662,-1.611314546 L -0.3157316325,-1.6153169768" />
      <path d="M -1.0038858235,-2.0944398532 L -1.0045764929,-2.1145700764" />
      <path d="M -1.0045764929,-2.1145700764 C -1.0056376879,-2.2566112492 -0.897812178,-2.3975551412 -0.7116833781,-2.4936178468 C -0.5270553451,-2.5905704994 -0.2667412312,-2.641089874 -0.0045765171,-2.6270403709 C 0.2575882049,-2.6142494172 0.5179021341,-2.53688976 0.7025301605,-2.4130969673 C 0.8886589354,-2.2901941373 0.9964846959,-2.1224098227 0.995423505,-1.9535282744" />
      <path d="M 0.995423505,-1.9535282744 L 0.9949352456,-1.9333980524" />
      <path d="M -1.0045764524,-1.7924867588 C -1.005637667,-1.9345279697 -0.8978121486,-2.0754717649 -0.7116831763,-2.1715343667 C -0.5270549795,-2.2684869103 -0.2667407236,-2.3190062794 -0.0045760899,-2.3049567965 C 0.2575885613,-2.2921658705 0.517902324,-2.2148061012 0.7025303022,-2.0910131998 C 0.8886590231,-1.9681102393 0.9964847605,-1.8003261126 0.9954235672,-1.6314445896" />
      <path d="M -1.0045765487,-1.4704029781 C -1.0045765485,-1.4704088215 -1.0045765484,-1.470414665 -1.0045765482,-1.4704205084 C -1.0056286566,-1.6124604535 -0.8977976711,-1.753400458 -0.7116663788,-1.8494594725 C -0.5270356681,-1.9464084316 -0.2667221441,-1.9969243008 -0.0045603733,-1.9828724703 C 0.2576014699,-1.9700791641 0.5179109203,-1.8927183865 0.702535726,-1.7689259777 C 0.8886612233,-1.6460234582 0.9964847428,-1.4782411411 0.9954235672,-1.3093613653" />
      <path d="M 0.9954235672,-1.3093613653 C 0.9960225384,-1.1636752198 0.9166066521,-1.0185181647 0.7743089738,-0.9027068279" />
      <path d="M 0.7563523542,-0.8884145531 Q 0.7202236081,-0.8604403031 0.6796182929,-0.8349975728" />
      <path d="M 0.1378789342,-0.649224284 L 0.1051332148,-0.6450638182" />
      <path d="M -1.0045764524,-1.1483191961 C -1.0095145752,-1.362648037 -0.754425064,-1.5688995692 -0.3872453083,-1.6357839417 C -0.0238444405,-1.708079246 0.4264746306,-1.6348250086 0.7025531148,-1.4468309126 C 0.8886680128,-1.3239290313 0.9964845081,-1.1561522018 0.995423505,-0.9872776804" />
      <path d="M 0.995423505,-0.9872776804 Q 0.9953162997,-0.8949894837 0.9551581653,-0.806105518" />
      <path d="M -1.0038858235,-0.8061056541 L -1.0045764929,-0.8262358785" />
      <path d="M -1.0045764929,-0.8262358785 C -1.0056376858,-0.9682770789 -0.8978121589,-1.1092207408 -0.7116833462,-1.2052833962 C -0.5270553007,-1.3022359793 -0.2667411527,-1.3527555783 -0.0045763798,-1.3387061664 C 0.2575884,-1.3259153264 0.5179023792,-1.2485553983 0.7025303409,-1.1247624047 C 0.8886590545,-1.0018593368 0.9964846771,-0.8340753519 0.9954234984,-0.6651939129" />
      <path d="M 0.9954234984,-0.6651939129 L 0.9949352391,-0.6450636892" />
      <path d="M 0.1051327965,-0.0008966478 Q -0.1099620241,0.0237890642 -0.3157312489,-0.0048991312" />
      <path d="M -1.0045765959,-0.5041521512 C -1.0056377746,-0.6461932893 -0.8978121519,-0.787136973 -0.7116834382,-0.8831997399 C -0.5270554765,-0.9801524325 -0.2667414974,-1.0306720597 -0.0045767176,-1.0166225987 C 0.2575880553,-1.0038317095 0.5179022033,-0.9264718095 0.7025302488,-0.8026789254 C 0.8886590614,-0.679775969 0.9964845884,-0.511992006 0.9954233955,-0.3431105047" />
      <path d="M 0.994935137,-0.3229802805 Q 0.9914266785,-0.2515004374 0.9637325956,-0.1820685556" />
      <path d="M 0.1051329893,0.3211869406 Q -0.1099618904,0.3458725877 -0.3157312785,0.3171844846" />
      <path d="M -1.0038859318,-0.161938508 L -1.0045766024,-0.1820687342" />
      <path d="M -1.0045766024,-0.1820687342 C -1.0056379438,-0.3241158369 -0.8978028938,-0.4650647997 -0.7116604468,-0.561128204 C -0.4355711693,-0.7088463658 0.0147363906,-0.7418253156 0.3781221086,-0.6292653866 C 0.7452866266,-0.5221157684 1.0003609773,-0.2756093066 0.9954233549,-0.0210266203" />
      <path d="M 0.994935097,-0.0008963971 Q 0.9914266467,0.0705834015 0.9637326037,0.1400152203" />
      <path d="M 0.1378786623,0.6391100495 Q -0.0767306051,0.6680492811 -0.2849325208,0.6432705747" />
      <path d="M -1.0038859942,0.1601449971 L -1.0045766646,0.1400147726" />
      <path d="M -1.0045766646,0.1400147726 C -1.0056378825,-0.0020264554 -0.8978120436,-0.1429701686 -0.7116831026,-0.2390327579 C -0.5270549007,-0.3359852791 -0.2667410844,-0.3865047762 -0.004576543,-0.3724553837 C 0.2575879604,-0.3596645656 0.5179023609,-0.2823046652 0.7025304442,-0.1585117342 C 0.8886592056,-0.0356087617 0.996484086,0.1321750244 0.9954234513,0.3010567176" />
      <path d="M 0.9954234513,0.3010567176 Q 0.9953570351,0.3827647458 0.9637326037,0.4620982133" />
      <path d="M 0.1051330417,0.9653541515 Q -0.1099621231,0.9900399067 -0.3157317295,0.9613516214" />
      <path d="M -1.0038859942,0.4822288842 L -1.0045766646,0.4620986611" />
      <path d="M -1.0045766646,0.4620986611 C -1.0056378579,0.3200574349 -0.8978121206,0.179113605 -0.7116833996,0.0830509414 C -0.5270554214,-0.0139016632 -0.2667416587,-0.0644211357 -0.0045770075,-0.0503717649 C 0.2575876261,-0.0375809509 0.517901882,0.039778715 0.7025300788,0.1635715554 C 0.8886590511,0.2864744541 0.9964845696,0.4542585461 0.9954233549,0.6231400538" />
      <path d="M 0.9954233549,0.6231400538 Q 0.9953570856,0.7048483008 0.9637325956,0.7841819892" />
      <path d="M 0.1378789926,1.2832772213 Q -0.0767308552,1.3122165822 -0.2849329377,1.2874376894" />
      <path d="M -1.0038859318,0.8043123892 L -1.0045766024,0.7841821678" />
      <path d="M -1.0045766024,0.7841821678 C -1.0056377933,0.6421409173 -0.8978120328,0.5011969004 -0.7116832579,0.4051343681 C -0.5270552314,0.3081818731 -0.2667413023,0.2576625136 -0.0045765803,0.2717118576 C 0.2575881338,0.2845026523 0.5179022477,0.3618623245 0.7025302807,0.4856552748 C 0.8886590805,0.6085582781 0.9964845904,0.7763424678 0.9954233954,0.9452239383" />
      <path d="M 0.994935137,0.9653541617 Q 0.9908865159,1.0473715058 0.9551581917,1.1263958185" />
      <path d="M 0.1051335032,1.6095212794 Q -0.0932659008,1.6323740591 -0.2849335484,1.6095212872" />
      <path d="M -1.0045765959,1.1062655848 C -1.0056379188,0.9642215645 -0.8978074555,0.8232747606 -0.7116716965,0.7272119225 C -0.5270368275,0.6302591105 -0.2667145759,0.5797425885 -0.0045441876,0.5937970396 C 0.2576154079,0.6065930442 0.5179201969,0.6839543492 0.7025414818,0.8077463726 C 0.8886634663,0.9306485928 0.9964846522,1.0984294734 0.9954234985,1.2673073466" />
      <path d="M 0.9954234985,1.2673073466 Q 0.9938665729,1.450987228 0.8440953764,1.6095212245" />
      <path d="M -0.7595513731,1.7805443993 C -0.9165865972,1.6862215903 -1.0053143679,1.5576305062 -1.0045764929,1.4283493121" />
      <path d="M -1.0045764929,1.4283493121 C -1.0056376879,1.2863081394 -0.897812178,1.1453642474 -0.7116833781,1.0493015418 C -0.5270553451,0.9523488891 -0.2667412312,0.9018295146 -0.0045765171,0.9158790176 C 0.2575882049,0.9286699713 0.5179021341,1.0060296286 0.7025301605,1.1298224213 C 0.8886589354,1.2527252512 0.9964846959,1.4205095659 0.995423505,1.5893911141" />
      <path d="M 0.995423505,1.5893911141 Q 0.9938665476,1.7730709063 0.8440953885,1.931604723" />
      <path d="M -0.8560641771,2.0330871874 Q -1.0030780285,1.9039793037 -1.0045764524,1.7504326298" />
      <path d="M -1.0045764524,1.7504326298 C -1.005637667,1.6083914189 -0.8978121486,1.4674476237 -0.7116831763,1.3713850218 C -0.5270549795,1.2744324783 -0.2667407236,1.2239131091 -0.0045760899,1.237962592 C 0.2575885613,1.250753518 0.517902324,1.3281132874 0.7025303022,1.4519061888 C 0.8886590231,1.5748091492 0.9964847605,1.742593276 0.9954235672,1.911474799" />
      <path d="M 0.9954235672,1.911474799 Q 0.995317519,2.0035105725 0.9553740793,2.0921694547" />
      <path d="M -1.0018486391,2.1124993056 L -1.0045765487,2.0725164105" />
      <path d="M -1.0045765487,2.0725164105 C -1.0045765485,2.072510567 -1.0045765484,2.0725047236 -1.0045765482,2.0724988801 C -1.0053855093,1.9397537938 -0.9116646299,1.8077971305 -0.7468839647,1.7128175372 C -0.583316732,1.6171883457 -0.3504664081,1.5597034972 -0.1066487105,1.5579018075 C 0.1370021538,1.5551357469 0.3889828852,1.6082132093 0.5861881154,1.7069834751 C 0.784359106,1.8049715756 0.9256150242,1.9477236169 0.9745794982,2.1026310839" />
      <path d="M 0.7415436703,1.9756911587 Q 0.683069357,1.8565605368 0.5494550517,1.7645964897" />
      <path d="M 0.5494550517,1.7645964897 C 0.2967829742,1.585509564 -0.1431490968,1.5366318138 -0.4416236041,1.6369100032 C -0.655615215,1.7040924827 -0.7899977429,1.8369097707 -0.7880701984,1.9723280485" />
      <path d="M -0.7880701984,1.9723280485 L -0.7868501676,1.9953847394" />
      <path d="M 0.7389278534,1.9742662636 L 0.7398953172,1.9723266575" />
      <path d="M 0.7573477166,1.9316018396 Q 0.7788764613,1.8721921793 0.7789171918,1.8112865585" />
      <path d="M 0.7789171918,1.8112865585 C 0.7797646157,1.6760875985 0.695264692,1.5417069224 0.5494550517,1.4425128985" />
      <path d="M 0.5494550517,1.4425128985 C 0.4116579005,1.3474147072 0.2199231658,1.2850299169 0.0244693169,1.2683807219 C -0.1709344489,1.2508768334 -0.3682787087,1.2790872536 -0.5160037152,1.3423363773 C -0.6872228901,1.4142566214 -0.7892104324,1.5314853594 -0.7880650863,1.6502352328" />
      <path d="M -0.7880650863,1.6502352328 Q -0.7879828985,1.7118694566 -0.7540064638,1.770548034" />
      <path d="M -0.7257114769,1.8112781575 Q -0.683701941,1.8628656157 -0.6168203554,1.9056116608" />
      <path d="M 0.5276035276,1.8724265975 Q 0.5725300402,1.8437658328 0.6104482053,1.8112862732" />
      <path d="M 0.6536802449,1.7705630905 Q 0.7083747618,1.7136942597 0.7398963595,1.6502437182" />
      <path d="M 0.7573488015,1.6095212621 Q 0.7788796684,1.5501052947 0.7789170991,1.4892026399" />
      <path d="M 0.2880532751,0.9973205342 C 0.067787598,0.9282578917 -0.193181065,0.9238574504 -0.3982905187,0.9800088439 C -0.6363468356,1.0425257777 -0.7905616223,1.1836105517 -0.7880702001,1.3281609087" />
      <path d="M -0.7880702001,1.3281609087 Q -0.7879738273,1.3898100599 -0.7540152107,1.4484794726" />
      <path d="M -0.7257180014,1.4892027863 Q -0.6699485255,1.5575489307 -0.5720216979,1.6095212819" />
      <path d="M -0.4803041794,1.6502444567 C -0.2583331475,1.7345522771 0.0592629408,1.7382012371 0.3151622653,1.6502410348" />
      <path d="M 0.2880540176,0.6752371608 C 0.1801281487,0.6421839926 0.0681468695,0.6237278038 -0.04788982,0.6198685944 C -0.2421030761,0.613122999 -0.4312191532,0.6514690083 -0.566270359,0.7217151417 C -0.702332038,0.7913798325 -0.7831379359,0.8921621444 -0.7877760486,0.9947521161 C -0.7878740981,0.9985271742 -0.7879721476,1.0023022323 -0.7880701972,1.0060772904" />
      <path d="M -0.7880701972,1.0060772904 Q -0.7879807734,1.0677000838 -0.7540152073,1.1263959137" />
      <path d="M -0.7257181032,1.1671191176 Q -0.6698992481,1.2355041911 -0.5720217535,1.2874377179" />
      <path d="M -0.4803042249,1.3281608739 C -0.2583059138,1.412507801 0.0595996842,1.4160632533 0.3151710063,1.3281603624" />
      <path d="M 0.2880531022,0.353153226 C 0.1551681119,0.3119180765 0.0073390533,0.2929965717 -0.1340214021,0.2977865076 C -0.3151202715,0.3034413886 -0.4844868136,0.348553833 -0.6026084285,0.4198385273 C -0.7215889528,0.4906998778 -0.7886064832,0.5870748054 -0.7880701926,0.6839937022" />
      <path d="M -0.7880701926,0.6839937022 Q -0.7880480965,0.7238366827 -0.7736731675,0.7628086378" />
      <path d="M -0.759551566,0.7943309927 L -0.7540153275,0.8043125217" />
      <path d="M -0.725718052,0.8450354564 Q -0.6699327147,0.9133932538 -0.5720217638,0.9653541138" />
      <path d="M -0.4803043111,1.0060772987 C -0.258326587,1.0903882491 0.0592509923,1.0940295259 0.3151724771,1.0060773271" />
      <path d="M 0.5494550517,0.1541785044 C 0.3327982212,0.0022668573 -0.0208576897,-0.0594126879 -0.3058325135,-0.0066878745 C -0.592810407,0.0416482701 -0.7919125999,0.1986126163 -0.788070199,0.3619101014" />
      <path d="M -0.788070199,0.3619101014 Q -0.7879646719,0.4235903531 -0.7540151972,0.4822287044" />
      <path d="M -0.7257181036,0.5229519294 Q -0.6699257116,0.5913155647 -0.5720217645,0.6432705363" />
      <path d="M -0.4803043164,0.6839937456 C -0.2582833488,0.7683192635 0.0593396029,0.7719298108 0.3151725102,0.6839937284" />
      <path d="M 0.2880529568,-0.2910139528 C -0.0143313294,-0.3875297364 -0.3897044347,-0.3543844952 -0.5995525262,-0.2261481403 C -0.7203590797,-0.1551855009 -0.7886963751,-0.0577931558 -0.7880702068,0.0398265386" />
      <path d="M -0.7880702068,0.0398265386 Q -0.7879690768,0.1014941446 -0.7540151806,0.1601451585" />
      <path d="M -0.7257180884,0.2008683541 Q -0.669976839,0.2691925712 -0.5720218318,0.3211869407" />
      <path d="M 0.4183333897,0.3211869825 Q 0.5288979501,0.2705132728 0.6104480101,0.2008681542" />
      <path d="M 0.2880531533,-0.6130974813 C 0.0525202579,-0.6871217194 -0.229028949,-0.6864581064 -0.4398370792,-0.6182442078" />
      <path d="M -0.7880701954,-0.2822570472 Q -0.7879751576,-0.2206111149 -0.7540152107,-0.1619384339" />
      <path d="M -0.7257181001,-0.1212152355 Q -0.669926492,-0.0528526096 -0.5720217818,-0.0008966712" />
      <path d="M -0.4803041613,0.0398265613 C -0.2581627837,0.1241714028 0.0593763011,0.1277480306 0.315172477,0.0398265502" />
      <path d="M 0.6697851378,-0.179391217 Q 0.7132442889,-0.2285601931 0.739895944,-0.2822569315" />
      <path d="M 0.7783868963,-0.4243233394 L 0.7789171001,-0.4432987874" />
      <path d="M -0.4803016142,-0.2822579277 C -0.2583105603,-0.1979703377 0.0593095722,-0.1942933704 0.3151726279,-0.2822570058" />
      <path d="M 0.7789170967,-0.7653824053 C 0.7797939257,-0.9005099733 0.6952385278,-1.0350107559 0.5494550517,-1.134155742" />
      <path d="M 0.5494550517,-1.134155742 Q 0.4362190816,-1.2113496152 0.2880524606,-1.2572648781" />
      <path d="M -0.7880702038,-0.9264241582 Q -0.7880533083,-0.8866097512 -0.7736731052,-0.8476091546" />
      <path d="M 0.669785077,-0.8235583228 Q 0.7132504876,-0.8727364548 0.739895974,-0.9264241848" />
      <path d="M 0.7573488015,-0.9671473876 Q 0.7788771476,-1.0265494829 0.7789170975,-1.0874659844" />
      <path d="M 0.7789170975,-1.0874659844 C 0.779752337,-1.2226703497 0.6952826522,-1.3570350407 0.5494550517,-1.4562393553" />
      <path d="M 0.5494550517,-1.4562393553 C 0.2971798241,-1.6349443277 -0.1413392773,-1.6840717162 -0.439836617,-1.5844951618" />
      <path d="M 0.418333317,-0.9671473702 Q 0.5288643846,-1.0177970011 0.6104481574,-1.087465943" />
      <path d="M 0.6536802474,-1.1281892025 Q 0.7083936406,-1.1850841948 0.7398959799,-1.2485077571" />
      <path d="M 0.7573487915,-1.2892309386 Q 0.7788787117,-1.3486413127 0.7789170943,-1.4095495917" />
      <path d="M 0.7789170943,-1.4095495917 C 0.7798042885,-1.5446611853 0.6952225437,-1.6791972994 0.5494550517,-1.7783228988" />
      <path d="M 0.5494550517,-1.7783228988 C 0.297147397,-1.9570424152 -0.1414250474,-2.0061525139 -0.4398365734,-1.9065787519" />
      <path d="M -0.7880686912,-1.5705977401 Q -0.7880559172,-1.5307788905 -0.7736707318,-1.4917779479" />
      <path d="M 0.4183334079,-1.2892309879 Q 0.5289079696,-1.3399098608 0.6104481751,-1.4095495279" />
      <path d="M 0.6536802014,-1.4502727512 Q 0.7083760498,-1.5071435385 0.7398959814,-1.5705913981" />
      <path d="M 0.7743089799,-1.6757551138 Q 0.7789154459,-1.7036214498 0.7789171006,-1.7316331819" />
      <path d="M 0.7789171006,-1.7316331819 C 0.7797740135,-1.8667946444 0.6952647377,-2.0012282917 0.5494550517,-2.10040649" />
      <path d="M 0.5494550517,-2.10040649 Q 0.4362559879,-2.1775821656 0.2880532015,-2.2235153524" />
      <path d="M 0.418333434,-1.6113145343 Q 0.5289119533,-1.6619982405 0.6104483119,-1.7316329975" />
      <path d="M 0.7789063372,-2.0537477842 C 0.7797414779,-2.1889595418 0.6952926835,-2.3232318499 0.5494550517,-2.4224901089" />
      <path d="M 0.5494550517,-2.4224901089 C 0.3947313695,-2.5295487028 0.1713944834,-2.5945267264 -0.0480533511,-2.6009725372 C -0.2676277105,-2.6087718418 -0.4801383851,-2.5582071584 -0.6165905946,-2.4702742042 C -0.7269234734,-2.400401788 -0.7885738921,-2.3076839232 -0.7880702024,-2.2147584692" />
      <path d="M -0.7880702024,-2.2147584692 Q -0.7880520715,-2.1749368524 -0.773673175,-2.1359436589" />
      <path d="M 0.6536802326,-2.0944398901 Q 0.708376644,-2.1513114702 0.7398958897,-2.2147583012" />
      <path d="M 0.7573488072,-2.2554817087 Q 0.7788794638,-2.3148964672 0.7789170999,-2.3758003232" />
      <path d="M 0.7789170999,-2.3758003232 C 0.7797775565,-2.5109612395 0.6952536049,-2.6454062054 0.5494550517,-2.7445736884" />
      <path d="M 0.5494550517,-2.7445736884 C 0.4165214418,-2.8362310889 0.2338482747,-2.8975461277 0.0455944983,-2.9166877122 C -0.2127686816,-2.9446051174 -0.4755966528,-2.8899907205 -0.630013962,-2.7835407246 C -0.7320608051,-2.7147713343 -0.7884680831,-2.625950888 -0.788070216,-2.5368421013" />
      <path d="M -0.788070216,-2.5368421013 Q -0.7880033561,-2.480534535 -0.7595514275,-2.4265049355" />
      <path d="M 0.4183333489,-2.2554817028 Q 0.528946557,-2.3061827901 0.6104434424,-2.3757962214" />
      <path d="M 0.6536801999,-2.4165234775 Q 0.70838969,-2.4734130928 0.7398959876,-2.5368420924" />
      <path d="M 0.7573488087,-2.5775652935 Q 0.7788793495,-2.6369792411 0.7789170965,-2.6978838642" />
      <path d="M 0.7789170965,-2.6978838642 C 0.7797920719,-2.8330164699 0.6952389243,-2.9675106187 0.5494550517,-3.0666572991" />
      <path d="M 0.5494550517,-3.0666572991 C 0.4040568387,-3.1671102173 0.1983873768,-3.230819764 -0.0080654487,-3.243233221 C -0.2145259294,-3.2567050804 -0.4194364404,-3.2189344474 -0.5635289657,-3.1446945217 C -0.7063896588,-3.0723901389 -0.7888721609,-2.9660489986 -0.7880702004,-2.8589256794" />
      <path d="M -0.7880702004,-2.8589256794 Q -0.7880023997,-2.8026139534 -0.7595514171,-2.7485884859" />
      <path d="M -0.4803043256,-2.5368420838 C -0.2582704996,-2.4525187264 0.0592679125,-2.4488999169 0.3151718932,-2.5368422897" />
      <path d="M 0.4183255554,-2.5775680494 Q 0.5289281935,-2.6282583623 0.6104481517,-2.6978839028" />
      <path d="M 0.6536775307,-2.7386098408 Q 0.7083573171,-2.7954761704 0.7398910899,-2.8589355283" />
      <path d="M 0.7743057279,-2.9640922269 Q 0.7789093282,-2.9919680126 0.7789080915,-3.0199913196" />
      <path d="M 0.7789080915,-3.0199913196 C 0.7797374111,-3.1552150251 0.6952948585,-3.2894877132 0.5494550517,-3.3887408842" />
      <path d="M 0.5494550517,-3.3887408842 C 0.3053894038,-3.5612491987 -0.1133102776,-3.6140045313 -0.4105418145,-3.525781938 C -0.6418641435,-3.4618080002 -0.7903903802,-3.3230185506 -0.7880701984,-3.1810092883" />
      <path d="M -0.4803042792,-2.8589256554 C -0.2583724505,-2.7746034151 0.0593538628,-2.7709913727 0.3151726051,-2.8589256832" />
      <path d="M 0.4183332795,-2.8996488505 Q 0.5289025716,-2.9503239347 0.6104481888,-3.0199674742" />
      <path d="M 0.5494550517,-3.7108244498 C 0.2971024659,-3.8896608829 -0.1420090744,-3.9386977889 -0.4404699261,-3.8388788493 C -0.6551068297,-3.7718395941 -0.7901098576,-3.6386003355 -0.7880701905,-3.5030928864" />
      <path d="M -0.7880701905,-3.5030928864 Q -0.7880543362,-3.4632835517 -0.7736731304,-3.4242778472" />
      <path d="M -0.7595513899,-3.3927555743 L -0.7540152041,-3.3827742095" />
      <path d="M -0.7257180968,-3.342051025 Q -0.6698837525,-3.2736556472 -0.5720218037,-3.2217324445" />
      <path d="M -0.4803042115,-3.1810092448 C -0.2580966074,-3.0966656093 0.0592369663,-3.0930772722 0.3151726314,-3.1810092671" />
      <path d="M 0.4183332804,-3.2217324404 Q 0.5289505298,-3.2724375346 0.6104442241,-3.342047701" />
      <path d="M 0.5494550517,-4.0329080245 C 0.3735729116,-4.1550389747 0.1087306885,-4.2212137963 -0.1378539788,-4.2112515245 C -0.2613069118,-4.206420055 -0.3733527022,-4.1858605345 -0.4739913499,-4.1495729632 C -0.6695553529,-4.0797756951 -0.7896052496,-3.9536150385 -0.7880701894,-3.8251764067" />
      <path d="M -0.7880701894,-3.8251764067 Q -0.7879720892,-3.7635167982 -0.7540092103,-3.7048475068" />
      <path d="M -0.7257181133,-3.6641346423 Q -0.669898621,-3.5957489097 -0.5720217732,-3.5438160562" />
      <path d="M -0.4803041557,-3.5030928291 C -0.2583288213,-3.4187315997 0.0597338376,-3.4152117609 0.3151643394,-3.503095558" />
      <path d="M 0.5494550517,-4.3549915687 C 0.3971098448,-4.4603621753 0.1783302436,-4.5250566016 -0.0378586346,-4.5331027752 C -0.2541389775,-4.5424224695 -0.4648914482,-4.4952307937 -0.6036348256,-4.4107986104 C -0.7219784699,-4.3400263891 -0.7886480177,-4.2437885966 -0.7880702008,-4.1472600051" />
      <path d="M -0.7880702008,-4.1472600051 Q -0.787972467,-4.0856045074 -0.7540152038,-4.0269414233" />
      <path d="M -0.7257186326,-3.9862188752 Q -0.6699532176,-3.9178759143 -0.5720221297,-3.8658998197" />
      <path d="M -0.4803040926,-3.8251763962 C -0.2582663934,-3.7408567153 0.0592106228,-3.7372279635 0.315172632,-3.8251763928" />
      <path d="M 0.4183333062,-3.8658996141 Q 0.5288792018,-3.9165602038 0.6104481694,-3.9862182132" />
      <path d="M 0.288052361,-4.80018429 C 0.1004920577,-4.858702274 -0.1167512681,-4.8713633895 -0.3036425228,-4.8383250757 C -0.5917249797,-4.7903954979 -0.7919418255,-4.6330846875 -0.7880702566,-4.4693435769" />
      <path d="M -0.4803036331,-4.1472600938 C -0.2584515879,-4.0629609939 0.0593879592,-4.0593079451 0.3151726314,-4.1472599833" />
      <path d="M 0.4183333645,-4.1879831962 Q 0.528892219,-4.238652386 0.6104473786,-4.3083011307" />
      <path d="M 0.7738410026,1.9932842515 C 0.7544050506,1.8784639567 0.6737791265,1.7679302006 0.5494550517,1.6831500431" />
      <line x1="0.5494550517" y1="1.6831500431" x2="0.5494550517" y2="1.7645964897" />
      <path d="M 0.5494550517,-4.4364380153 C 0.2988916871,-4.6139002324 -0.135771609,-4.6637834792 -0.4340579309,-4.5665080339 C -0.5742378862,-4.5232330169 -0.6834081059,-4.4525358627 -0.7404975107,-4.3701795536" />
      <path d="M -0.6871756714,-4.0269415581 Q -0.6079288328,-3.954330049 -0.4803037428,-3.9066225932" />
      <path d="M -0.3157316219,-3.8618971438 C -0.1740446699,-3.8354637491 -0.0139053253,-3.8348285329 0.1378789191,-3.8617391722" />
      <path d="M 0.3151725114,-3.9066228163 Q 0.4527953724,-3.9530286977 0.5580324815,-4.0269414054" />
      <path d="M 0.6796184977,-4.642216434 Q 0.6264322212,-4.7057309676 0.5494550517,-4.7585215588" />
      <path d="M 0.5494550517,-4.1143544241 C 0.397396999,-4.2195214122 0.1791650534,-4.2841798549 -0.0366291501,-4.2924154125 C -0.2525106915,-4.3019150767 -0.4630439693,-4.2551246035 -0.6020472021,-4.1711139654 C -0.7213674403,-4.1002481474 -0.7886583546,-4.0035844547 -0.7880702008,-3.9066227856" />
      <path d="M -0.687175516,-3.7048578239 Q -0.6078971635,-3.632229093 -0.4803042705,-3.5845392402" />
      <path d="M -0.3362533215,-3.5438160945 C -0.1827061695,-3.5121058469 -0.0054328675,-3.5113221253 0.1603247696,-3.543816053" />
      <path d="M 0.679618401,-4.3201329397 Q 0.6264259388,-4.3836529062 0.5494550517,-4.4364380153" />
      <path d="M 0.5494550517,-3.7922708052 C 0.3551405787,-3.9277483055 0.051406623,-3.9930931483 -0.2150983175,-3.9654823627 C -0.5464969836,-3.9362724947 -0.7935703276,-3.7654960863 -0.7880703892,-3.584540989" />
      <path d="M -0.7842551563,-3.5438253455 Q -0.774522737,-3.4922685149 -0.7410502618,-3.4438746173" />
      <path d="M -0.336253358,-3.2217324468 C -0.1827335575,-3.1900343783 -0.0055571794,-3.1892236376 0.1603249736,-3.2217324474" />
      <path d="M 0.3151726212,-3.2624556325 Q 0.452772357,-3.3088469041 0.5580323618,-3.3827741366" />
      <path d="M 0.6796181567,-3.998049607 Q 0.6263956554,-4.061595988 0.5494550517,-4.1143544241" />
      <path d="M 0.5494550517,-3.4701872257 C 0.3977648997,-3.5750933818 0.1802332487,-3.63970552 -0.0350554321,-3.6481825044 C -0.2504265723,-3.6579116771 -0.4606743591,-3.6116322403 -0.6000019429,-3.5281642829 C -0.6611251109,-3.4917723394 -0.7079569248,-3.4503605565 -0.7404973847,-3.4039289341" />
      <path d="M -0.7842569076,-3.2217324768 Q -0.7723665836,-3.1589394359 -0.7257180892,-3.1014138704" />
      <path d="M -0.3157312401,-2.8956463773 C -0.1670805213,-2.8678845131 0.0019328417,-2.8686235004 0.1603215695,-2.8996482285" />
      <path d="M 0.3151724636,-2.9403720483 Q 0.4528166551,-2.9867884851 0.5580325201,-3.0606906527" />
      <path d="M 0.6104476195,-3.1014133248 Q 0.6756765501,-3.1573373303 0.7168542563,-3.2217305099" />
      <path d="M 0.7563524178,-3.3004654277 Q 0.771458303,-3.3411425715 0.7764725203,-3.3827742246" />
      <path d="M 0.6796181735,-3.6759660161 Q 0.6264201934,-3.7394907235 0.5494550517,-3.7922708052" />
      <path d="M 0.5494550517,-3.1481036151 C 0.379507196,-3.2660337418 0.1260578636,-3.3321695449 -0.1131614753,-3.3270997074 C -0.3528405424,-3.3239790909 -0.5732615399,-3.2501744024 -0.6894011149,-3.1400769004 C -0.7546057478,-3.0785029233 -0.7874954435,-3.0119346308 -0.7880702021,-2.9403720228" />
      <path d="M -0.7842569136,-2.8996488279 Q -0.7723631152,-2.8368487993 -0.7257180977,-2.7793302531" />
      <path d="M -0.336253526,-2.5775653256 C -0.1827895526,-2.5458610149 -0.0053834368,-2.5450687338 0.1603248791,-2.5775652605" />
      <path d="M 0.3151728583,-2.6182885804 Q 0.4527985611,-2.6646958544 0.5580324857,-2.7386070671" />
      <path d="M 0.6104481739,-2.7793302464 Q 0.675691989,-2.8352706666 0.7168555102,-2.8996487994" />
      <path d="M 0.7563520277,-2.9783821027 Q 0.771449749,-3.0190381686 0.7764677329,-3.0606636126" />
      <path d="M 0.679619392,-3.353881714 Q 0.6264621352,-3.4173689031 0.5494550517,-3.4701872257" />
      <path d="M 0.5494550517,-2.82602003 C 0.3303148413,-2.979781341 -0.0290593792,-3.0408501195 -0.3156442839,-2.9851139015 C -0.5976139305,-2.9350307036 -0.7918348954,-2.779522654 -0.7880702073,-2.6182884601" />
      <path d="M -0.6871754485,-2.4165235367 Q -0.6079232235,-2.3439077796 -0.4803040612,-2.2962048989" />
      <path d="M 0.3151717714,-2.2962052057 Q 0.4528411805,-2.3426382009 0.5580324299,-2.4165232768" />
      <path d="M 0.6104469842,-2.4572476873 Q 0.6756691136,-2.5131730091 0.7168538294,-2.5775678726" />
      <path d="M 0.7398959739,-2.6182885192 Q 0.7690381091,-2.6771518662 0.776471957,-2.7386117558" />
      <path d="M 0.7789165133,-2.7793301093 C 0.7797585645,-2.9145387475 0.6952688807,-3.0489066652 0.5494550517,-3.1481036151" />
      <path d="M 0.5494550517,-2.5039364644 C 0.4251826083,-2.589535128 0.2575933347,-2.6488592067 0.0824189827,-2.6717124035 C -0.2663647385,-2.7211818439 -0.625515575,-2.6120081564 -0.7404973572,-2.4376783363" />
      <path d="M 0.1378790567,-1.9292376505 L 0.1603249901,-1.9333981178" />
      <path d="M 0.6104481793,-2.1351631247 Q 0.6756729941,-2.1910829163 0.7168534152,-2.2554784926" />
      <path d="M 0.7398959813,-2.2962049153 Q 0.7690438527,-2.3550843251 0.7764725234,-2.4165235181" />
      <path d="M 0.7789170983,-2.4572467214 C 0.7797841156,-2.5923924738 0.6952499628,-2.7268596901 0.5494550517,-2.82602003" />
      <path d="M 0.5494550517,-2.1818528897 C 0.4092914238,-2.2786135011 0.2132913795,-2.3414297361 0.0143937204,-2.3568278101 C -0.1844673377,-2.373139097 -0.3842913816,-2.3420519013 -0.5311461464,-2.2754108832 C -0.5837703987,-2.2516776941 -0.6290935888,-2.2242926812 -0.6671157166,-2.1932558445" />
      <path d="M 0.3151726482,-1.6520377475 Q 0.4527718364,-1.6984287127 0.5580324065,-1.7723563364" />
      <path d="M 0.7789170901,-2.1351630892 C 0.7798167743,-2.2702546385 0.6952045823,-2.4048328561 0.5494550517,-2.5039364644" />
      <path d="M 0.5494550517,-1.8597693454 C 0.2965102907,-2.0390585606 -0.1440631405,-2.0878024645 -0.4425154502,-1.987170126 C -0.5785861868,-1.9437557869 -0.684618286,-1.8741440937 -0.740497314,-1.7935111505" />
      <path d="M -0.6871754731,-1.4502727558 Q -0.6079061276,-1.3776542237 -0.4802933868,-1.3299581305" />
      <path d="M 0.3151725375,-1.3299542128 Q 0.4528234816,-1.3763737143 0.5580324512,-1.4502727585" />
      <path d="M 0.610448163,-1.4909959728 Q 0.6756936109,-1.5469382443 0.7168554767,-1.6113145726" />
      <path d="M 0.7563523625,-1.6900473719 Q 0.7714573573,-1.730720931 0.7764725113,-1.7723564681" />
      <path d="M 0.7789170888,-1.8130795219 C 0.7797603082,-1.948278251 0.6952651537,-2.082665693 0.5494550517,-2.1818528897" />
      <path d="M 0.5494550517,-1.5376857836 C 0.3888040439,-1.6489639931 0.1539246675,-1.7145327341 -0.0734576734,-1.7167515728 C -0.3010734701,-1.7205389299 -0.5173681162,-1.6612537589 -0.6470750097,-1.5646144207 C -0.6859715842,-1.5359516332 -0.7171123946,-1.5048893219 -0.7404974409,-1.4714274867" />
      <path d="M 0.3151724538,-1.0078705902 Q 0.4527675671,-1.0542595493 0.5580324042,-1.1281891769" />
      <path d="M 0.6104481933,-1.168912406 Q 0.6757070895,-1.2248699001 0.7168554733,-1.2892309174" />
      <path d="M 0.7398959824,-1.3299541156 Q 0.7690427042,-1.3888295397 0.7764725216,-1.4502727871" />
      <path d="M 0.7789170925,-1.4909958942 C 0.779819782,-1.6260791631 0.6952042695,-1.7606681238 0.5494550517,-1.8597693454" />
      <path d="M 0.5494550517,-1.2156021703 C 0.3004999863,-1.3918331372 -0.1301794116,-1.4424545846 -0.4282620056,-1.3474510667 C -0.5710314524,-1.3044130596 -0.6827404057,-1.232781142 -0.7404975218,-1.1493437845" />
      <path d="M 0.1378789929,-0.64090334 L 0.160324952,-0.6450638066" />
      <path d="M 0.6178814786,-0.8532963911 Q 0.6780957613,-0.9065127522 0.7168554576,-0.9671473777" />
      <path d="M 0.7398959876,-1.0078705968 Q 0.7690435436,-1.066748929 0.7764725245,-1.1281891361" />
      <path d="M 0.7789170985,-1.1689123274 C 0.7797882191,-1.3040519315 0.695243159,-1.4385334733 0.5494550517,-1.5376857836" />
      <path d="M 0.5494550517,-0.8935186268 C 0.3846092274,-1.0077998213 0.1413461838,-1.0736912578 -0.0914700411,-1.0727015951 C -0.3246161215,-1.0734425493 -0.5430240992,-1.0077527315 -0.6671161441,-0.9049212016" />
      <path d="M -0.3362278742,-0.3229854374 C -0.1896300947,-0.2927486809 -0.0214533545,-0.2905505088 0.1378789214,-0.3188197833" />
      <path d="M 0.7789170975,-0.8468287606 C 0.7797551435,-0.9820429863 0.6952605863,-1.1164170867 0.5494550517,-1.2156021703" />
      <path d="M 0.5494550517,-0.5714350356 C 0.4096727947,-0.6679266309 0.2143717553,-0.7306740719 0.0160187359,-0.7462791322 C -0.1822937282,-0.7627882996 -0.3817422483,-0.7321616069 -0.5287358809,-0.6660723303 C -0.6248642738,-0.6227226683 -0.695451467,-0.5690907868 -0.7404974604,-0.5051766859" />
      <path d="M -0.6871754966,-0.161938414 Q -0.6078567363,-0.0892868338 -0.4803042721,-0.0416198493" />
      <path d="M -0.3362547235,-0.0008963854 C -0.1896336941,0.0293481359 -0.0213873936,0.0315213814 0.1378786647,0.0032638321" />
      <path d="M 0.5751306738,-0.8751168997 L 0.5494550517,-0.8935186268" />
      <path d="M 0.5494550517,-0.2493514167 C 0.2926302336,-0.4316175586 -0.1576052059,-0.4784309774 -0.4561274576,-0.3722681977 C -0.6618681856,-0.3038119698 -0.7897979349,-0.1740105684 -0.7880701991,-0.0416198084" />
      <path d="M -0.6871755007,0.1601451718 Q -0.6079185922,0.2327634161 -0.4803042353,0.2804637297" />
      <path d="M -0.3362533778,0.3211869451 L -0.3157313016,0.3251893998" />
      <path d="M 0.5751300048,-0.5530337339 L 0.5494550517,-0.5714350356" />
      <path d="M 0.5494550517,0.0727321628 C 0.4612518278,0.0127743384 0.3581631328,-0.0328296563 0.2401889667,-0.064079821 C 0.0164858203,-0.1240242922 -0.2407192381,-0.119007344 -0.4366201957,-0.056538546 C -0.6341815208,0.0044405835 -0.7666999344,0.1213070334 -0.785248044,0.2454174514 C -0.7861887592,0.2570995672 -0.7871294744,0.2687816831 -0.7880701896,0.2804637989" />
      <path d="M -0.7842569054,0.3211868932 Q -0.772362622,0.3839865754 -0.7257180959,0.44150554" />
      <path d="M -0.6871755029,0.482228721 Q -0.6078838994,0.554867115 -0.480304159,0.6025473192" />
      <path d="M -0.3157312748,0.6472730161 C -0.1671306536,0.6750490481 0.0021701513,0.674273567 0.1603216257,0.6432699329" />
      <path d="M 0.6796155781,-0.1330482538 Q 0.626443505,-0.1965488631 0.5494550517,-0.2493514167" />
      <path d="M 0.5494550517,0.3948157735 C 0.3778659629,0.275758041 0.1216636509,0.2096431328 -0.1197292271,0.2159473618 C -0.3036644033,0.2196315075 -0.4771192863,0.2640698192 -0.5980239797,0.3356712928 C -0.7198499596,0.4068312185 -0.7886068655,0.5043259614 -0.788070207,0.6025473982" />
      <path d="M -0.7842569074,0.6432705324 Q -0.7745216405,0.6948550099 -0.7410573531,0.7432158835" />
      <path d="M -0.6871754961,0.8043123057 Q -0.6079078565,0.8769356537 -0.480304091,0.9246308847" />
      <path d="M -0.3362536482,0.965354061 C -0.1896443984,0.9955909274 -0.0214987957,0.9977832724 0.1378787744,0.9695146206" />
      <path d="M 0.6796180714,0.189036847 Q 0.6264515846,0.125539905 0.5494550517,0.0727321628" />
      <path d="M 0.5494550517,0.7168993586 C 0.4098021369,0.6204997166 0.214749996,0.5577801229 0.0165956369,0.5421020005 C -0.1815170496,0.5255235237 -0.38082712,0.55598414 -0.5278735532,0.6218783033 C -0.5818742711,0.6459320456 -0.6282883534,0.6738047573 -0.6671158,0.7054964383" />
      <path d="M -0.7404973362,0.7831574983 Q -0.7878805369,0.8514245081 -0.7880701974,0.9246309303" />
      <path d="M -0.7842569107,0.965354113 Q -0.7723718071,1.0281355777 -0.725718065,1.085672673" />
      <path d="M -0.6871754518,1.1263958488 Q -0.6078994055,1.1990257258 -0.4803040582,1.2467144936" />
      <path d="M -0.3157314067,1.2914401053 C -0.1670785076,1.3191974814 0.001869967,1.3184700973 0.1603249749,1.2874376924" />
      <path d="M 0.5751297501,0.4132168273 L 0.5494550517,0.3948157735" />
      <path d="M 0.5494550517,1.0389829242 C 0.3833454125,0.9238518495 0.1381944529,0.8579762227 -0.0963884055,0.8598107117 C -0.2824037123,0.8602306394 -0.4594424641,0.9020568006 -0.5848059954,0.9722815967 C -0.7110677653,1.0420228503 -0.7846862911,1.1395007232 -0.7879072208,1.238284166 C -0.7879615464,1.2410942801 -0.788015872,1.2439043942 -0.7880701976,1.2467145083" />
      <path d="M -0.7842569043,1.287437697 Q -0.7723660698,1.3502305772 -0.7257180806,1.4077562522" />
      <path d="M -0.6871718297,1.4484827901 Q -0.6079143577,1.5210992471 -0.4803041173,1.5687980751" />
      <path d="M -0.3157317956,1.613523691 C -0.1740457099,1.6399486918 -0.0140634612,1.6406046491 0.1378790638,1.613681739" />
      <path d="M 0.6104481588,1.4077562819 Q 0.6756921916,1.3518153411 0.716855469,1.287437676" />
      <path d="M 0.7398959785,1.2467144779 Q 0.7690369722,1.1878573455 0.7764725798,1.1263953388" />
      <path d="M 0.6796181427,0.8332041072 Q 0.6264498381,0.7697055175 0.5494550517,0.7168993586" />
      <path d="M 0.5494550517,1.3610664989 C 0.3074719286,1.1901413363 -0.1061582132,1.1365173486 -0.4029372212,1.2219080153 C -0.6384582699,1.2849768186 -0.7905439793,1.4252906243 -0.7880701966,1.5687980379" />
      <path d="M -0.7842524787,1.6095448556 Q -0.7723670798,1.6723051106 -0.7257180696,1.7298398676" />
      <path d="M -0.687175476,1.7705630425 Q -0.6247404694,1.8278700731 -0.5308241366,1.8702324084" />
      <path d="M 0.4356377332,1.8420289439 Q 0.5021213343,1.8099923629 0.5580324114,1.7705630543" />
      <path d="M 0.610448156,1.7298398299 Q 0.6756899803,1.6739013224 0.7168551468,1.6095217413" />
      <path d="M 0.7398959768,1.5687980587 Q 0.7690439493,1.5099184516 0.7764725242,1.44847946" />
      <path d="M 0.7789170957,1.4077562884 C 0.7797960247,1.2726305175 0.6952337977,1.1381229489 0.5494550517,1.0389829242" />
      <path d="M 0.5494550517,1.6831500431 C 0.3849177954,1.5690951567 0.1423315466,1.5032333305 -0.0900898148,1.5039672469 C -0.3228307823,1.5029795191 -0.5411254362,1.5682101713 -0.6656121803,1.6705240656 C -0.7463697128,1.7370631264 -0.7871890532,1.8105156438 -0.7880702016,1.8908816178" />
      <path d="M -0.7842569005,1.9316048421 Q -0.7791925216,1.9585536243 -0.767509787,1.9848495934" />
      <path d="M 0.7016618596,1.9539666277 L 0.7168554626,1.9316048176" />
      <path d="M 0.7398959819,1.8908816345 Q 0.7690438805,1.8320046162 0.7764731206,1.7705581452" />
      <path d="M 0.7789171007,1.7298398662 C 0.7797430073,1.5946001572 0.695270146,1.4602667897 0.5494550517,1.3610664989" />
      <path d="M 0.5494555712,-4.7585209444 L 0.7025531676,-4.9494898278" />
      <path d="M 0.7025531676,-4.9897502754 Q 0.5113054148,-5.0733093462 0.2860557598,-5.1014270952" />
      <path d="M 0.2860557598,-5.1014270952 C 0.0026905357,-5.13730472 -0.2897353996,-5.0970587642 -0.5029610876,-5.0045495236" />
      <path d="M -0.5029610876,-4.964289076 L -0.5029610876,-5.0045495236" />
      <path d="M 0.7025531676,-4.9494898278 C 0.5028910533,-5.0381148065 0.2551494052,-5.0813980636 0.0205222507,-5.0732415248 C -0.1728093571,-5.0671045171 -0.3558566674,-5.0275943486 -0.5029610876,-4.964289076" />
      <line x1="0.5494550517" y1="1.3610664989" x2="0.5494550517" y2="1.4425128985" />
      <line x1="0.5494550517" y1="1.0389829242" x2="0.5494550517" y2="1.0855685654" />
      <line x1="0.5494550517" y1="0.7168993586" x2="0.5494550517" y2="0.7634849564" />
      <line x1="0.5494550517" y1="0.3948157735" x2="0.5494550517" y2="0.4011408423" />
      <line x1="0.5494550517" y1="0.0727321628" x2="0.5494550517" y2="0.1541785044" />
      <line x1="0.5494550517" y1="-0.2493514167" x2="0.5494550517" y2="-0.2027657878" />
      <line x1="0.5494550517" y1="-0.5714350356" x2="0.5494550517" y2="-0.5248493944" />
      <line x1="0.5494550517" y1="-0.8935186268" x2="0.5494550517" y2="-0.8871933373" />
      <line x1="0.5494550517" y1="-1.2156021703" x2="0.5494550517" y2="-1.134155742" />
      <line x1="0.5494550517" y1="-1.5376857836" x2="0.5494550517" y2="-1.4562393553" />
      <line x1="0.5494550517" y1="-1.8597693454" x2="0.5494550517" y2="-1.7783228988" />
      <line x1="0.5494550517" y1="-2.1818528897" x2="0.5494550517" y2="-2.10040649" />
      <line x1="0.5494550517" y1="-2.5039364644" x2="0.5494550517" y2="-2.4224901089" />
      <line x1="0.5494550517" y1="-2.82602003" x2="0.5494550517" y2="-2.7445736884" />
      <line x1="0.5494550517" y1="-3.1481036151" x2="0.5494550517" y2="-3.0666572991" />
      <line x1="0.5494550517" y1="-3.4701872257" x2="0.5494550517" y2="-3.3887408842" />
      <line x1="0.5494550517" y1="-3.7922708052" x2="0.5494550517" y2="-3.7108244498" />
      <line x1="0.5494550517" y1="-4.1143544241" x2="0.5494550517" y2="-4.0329080245" />
      <line x1="0.5494550517" y1="-4.4364380153" x2="0.5494550517" y2="-4.3549915687" />
      <line x1="0.5494550517" y1="-4.7585212524" x2="0.5494550517" y2="-4.7119359001" />
      <path d="M -0.5029610876,-4.964289076 C -0.5000342497,-4.9647175337 -0.4902170165,-4.9667169586 -0.4735093881,-4.9702873506 C -0.4661847727,-4.9720660576 -0.4471135406,-4.9758526766 -0.4162956919,-4.9816472078 C -0.3717383721,-4.9897892486 -0.305677617,-4.9979257073 -0.2417295646,-4.9996059201 C 0.0300324026,-5.0100893138 0.3486827688,-4.9223225968 0.5494550517,-4.7585213607" />
      <path d="M -0.5029610876,-5.0045495236 C -0.5000301202,-5.0067506241 -0.4902476181,-5.0122407089 -0.4736135815,-5.0210197777 C -0.4671711205,-5.0245006759 -0.4547192182,-5.0303314401 -0.4362578745,-5.0385120705 C -0.4165455163,-5.0473351389 -0.3894772642,-5.0574597695 -0.3550531182,-5.0688859624 C -0.1932323781,-5.1216063329 0.0067677865,-5.1386001562 0.1868347708,-5.1141237034" />
      <path d="M 0.7762404095,-4.6729958447 A 0.7834936490538903,0.46460482621824845 -1.974987159412098e-15 0,1 0.7525087682,-4.5917592188" />
      <path d="M 0.5268069064,-4.3699496589 A 0.7834936490538903,0.46460482621824845 -1.974987159412098e-15 0,1 0.1952351929,-4.2621251327" />
      <path d="M -0.6580597238,-4.455059275 A 0.7834936490538903,0.46460482621824845 -1.974987159412098e-15 0,1 -0.7576641169,-4.5831914961" />
      <path d="M -0.7880701978,-4.7113673502 A 0.7834936490538903,0.46460482621824845 -1.974987159412098e-15 0,1 0.5266537774,-5.0528688252" />
      <path d="M 1.3974641289,2.5093782166 A 1.9827207793968764,1.175735941527249 -1.974987159412098e-15 0,1 -1.4066172264,4.1720661219 A 1.9827207793968764,1.175735941527249 -1.974987159412098e-15 0,1 1.3974641289,2.5093782166" />
      <path d="M -1.3889366307,2.3233549544 A 2.046360389693211,1.2134736693544366 -1.974987159412098e-15 0,1 1.3797835333,2.3233549544" />
      <path d="M 1.3797835333,2.3233549544 A 2.046360389693211,1.2134736693544366 -1.974987159412098e-15 0,1 1.4424655852,2.3589824874" />
      <line x1="0.4593774597" y1="3.7224910974" x2="0.4593774597" y2="3.0829018993" />
      <line x1="-0.6483485499" y1="3.0655768244" x2="-0.6483485499" y2="2.9944328198" />
      <line x1="-0.7282945917" y1="3.5337556655" x2="-0.7282945917" y2="3.3563362467" />
      <line x1="-0.0845225905" y1="3.8089010103" x2="-0.0845225905" y2="2.9634316108" />
      <path d="M -1.3889366307,2.3233549544 C -1.6989345109,2.4913465022 -1.9122868642,2.7142223904 -2.0091239062,2.9436463725 C -2.0542018951,3.0498214148 -2.0769218837,3.1567362385 -2.0772838718,3.2643908437 C -2.0780070333,3.3758241522 -2.0547878251,3.4864738413 -2.0076262471,3.596339911 C -1.9408638524,3.7527159067 -1.8246375104,3.8987387288 -1.6589472209,4.0344083773 C -1.4009025077,4.2441856846 -1.0219512065,4.4061399481 -0.5965094979,4.4818598662 C -0.0741333434,4.5775098371 0.5124085348,4.5398218654 0.9881897542,4.3809479427 C 1.4305447857,4.2366004409 1.7691387205,3.9908167336 1.9332661873,3.7207333164 C 2.0235170239,3.5726524325 2.0684761379,3.4221760854 2.0681435292,3.2693042751 C 2.0684699293,3.1577642062 2.0448006392,3.0470270035 1.9971356588,2.9370926668 C 1.9058158518,2.726081683 1.7167118583,2.5209551771 1.4433713768,2.3594980126" />
      <path d="M 1.3797835333,2.3233549544 L 1.4183309274,2.3448971501 L 1.4433713768,2.3594980126" />
      <line x1="0.5943270251" y1="3.1318748382" x2="0.5943270251" y2="3.5032879155" />
      <line x1="-0.6034801225" y1="2.9641378419" x2="-0.6034801225" y2="3.1781564231" />
      <line x1="0.6719221213" y1="1.9377667146" x2="1.3797835333" y2="2.3233549544" />
      <line x1="-0.6810752187" y1="1.9377667146" x2="-1.3889366307" y2="2.3233549544" />
      <path d="M 0.995423505,-4.4899366213 L 0.995423505,-4.5301970689" />
      <path d="M -1.0045764929,-4.3288948194 L -1.0045764929,-4.369155267" />
      <path d="M 0.9954234984,-4.1678528538 L 0.9954234984,-4.2081133014" />
      <path d="M -1.0045765959,-4.0068110921 L -1.0045765959,-4.0470715397" />
      <path d="M 0.9954233955,-3.8457694456 L 0.9954233955,-3.8860298932" />
      <path d="M -1.0045766024,-3.6847276751 L -1.0045766024,-3.7249881227" />
      <path d="M 0.9954233549,-3.5236855612 L 0.9954233549,-3.5639460088" />
      <path d="M -1.0045766646,-3.3626441684 L -1.0045766646,-3.402904616" />
      <path d="M 0.9954234513,-3.2016022234 L 0.9954234513,-3.241862671" />
      <path d="M -1.0045766646,-3.0405602799 L -1.0045766646,-3.0808207275" />
      <path d="M 0.9954233549,-2.8795188871 L 0.9954233549,-2.9197793347" />
      <path d="M -1.0045766024,-2.7184767732 L -1.0045766024,-2.7587372208" />
      <path d="M 0.9954233954,-2.5574350027 L 0.9954233954,-2.5976954503" />
      <path d="M -1.0045765959,-2.3963933562 L -1.0045765959,-2.4366538038" />
      <path d="M 0.9954234985,-2.2353515944 L 0.9954234985,-2.275612042" />
      <path d="M -1.0045764929,-2.0743096288 L -1.0045764929,-2.1145700764" />
      <path d="M 0.995423505,-1.9132678269 L 0.995423505,-1.9535282744" />
      <path d="M -1.0045764524,-1.7522263112 L -1.0045764524,-1.7924867588" />
      <path d="M 0.9954235672,-1.591184142 L 0.9954235672,-1.6314445896" />
      <path d="M -1.0045765487,-1.4301425305 L -1.0045765487,-1.4704029781" />
      <path d="M 0.9954235672,-1.2691009177 L 0.9954235672,-1.3093613653" />
      <path d="M -1.0045764524,-1.1080587485 L -1.0045764524,-1.1483191961" />
      <path d="M 0.995423505,-0.9470172328 L 0.995423505,-0.9872776804" />
      <path d="M -1.0045764929,-0.7859754309 L -1.0045764929,-0.8262358785" />
      <path d="M 0.9954234984,-0.6249334653 L 0.9954234984,-0.6651939129" />
      <path d="M -1.0045765959,-0.4638917036 L -1.0045765959,-0.5041521512" />
      <path d="M 0.9954233955,-0.3028500571 L 0.9954233955,-0.3431105047" />
      <path d="M -1.0045766024,-0.1418082866 L -1.0045766024,-0.1820687342" />
      <path d="M 0.9954233549,0.0192338273 L 0.9954233549,-0.0210266203" />
      <path d="M -1.0045766646,0.1802752202 L -1.0045766646,0.1400147726" />
      <path d="M 0.9954234513,0.3413171652 L 0.9954234513,0.3010567176" />
      <path d="M -1.0045766646,0.5023591087 L -1.0045766646,0.4620986611" />
      <path d="M 0.9954233549,0.6634005014 L 0.9954233549,0.6231400538" />
      <path d="M -1.0045766024,0.8244426154 L -1.0045766024,0.7841821678" />
      <path d="M 0.9954233954,0.9854843859 L 0.9954233954,0.9452239383" />
      <path d="M -1.0045765959,1.1465260324 L -1.0045765959,1.1062655848" />
      <path d="M 0.9954234985,1.3075677942 L 0.9954234985,1.2673073466" />
      <path d="M -1.0045764929,1.4686097597 L -1.0045764929,1.4283493121" />
      <path d="M 0.995423505,1.6296515617 L 0.995423505,1.5893911141" />
      <path d="M -1.0045764524,1.7906930774 L -1.0045764524,1.7504326298" />
      <path d="M 0.9954235672,1.9517352466 L 0.9954235672,1.911474799" />
      <path d="M -1.0045765487,2.1127768581 L -1.0045765487,2.0725164105" />
      <line x1="-0.7880701978" y1="1.9723280487" x2="-0.7880701978" y2="1.8908816141" />
      <line x1="0.7789171003" y1="1.8112862079" x2="0.7789171003" y2="1.7298398662" />
      <line x1="-0.7880701978" y1="1.6502444982" x2="-0.7880701978" y2="1.5687980522" />
      <line x1="-0.7880701978" y1="1.3281609077" x2="-0.7880701978" y2="1.246714508" />
      <line x1="-0.7880701978" y1="1.0060772888" x2="-0.7880701978" y2="0.9246309336" />
      <line x1="-0.7880701978" y1="0.6839937093" x2="-0.7880701978" y2="0.6025473677" />
      <line x1="-0.7880701978" y1="0.3619100986" x2="-0.7880701978" y2="0.2804637827" />
      <line x1="-0.7880701978" y1="0.0398265136" x2="-0.7880701978" y2="-0.0416198282" />
      <line x1="0.7789171003" y1="-0.1212151954" x2="0.7789171003" y2="-0.2026616419" />
      <line x1="0.7789171003" y1="-0.7653824055" x2="0.7789171003" y2="-0.8468287611" />
      <line x1="0.7789171003" y1="-1.0874659848" x2="0.7789171003" y2="-1.1689123265" />
      <line x1="0.7789171003" y1="-2.0537167443" x2="0.7789171003" y2="-2.135163102" />
      <line x1="0.7789171003" y1="-2.3758003211" x2="0.7789171003" y2="-2.4572467207" />
      <line x1="-0.7880701978" y1="-2.8589256793" x2="-0.7880701978" y2="-2.9403720208" />
      <line x1="-0.7880701978" y1="-3.5030928751" x2="-0.7880701978" y2="-3.5845392143" />
      <line x1="-0.7880701978" y1="-4.4693435595" x2="-0.7880701978" y2="-4.7113673502" />
      <path d="M 0.1868347705,-5.1141237034 L 0.2860557598,-5.1014270952" />
    </g>
  </g>
</svg>