<?xml version='1.0' encoding='utf-8'?>
<svg width="156.5071101843mm" height="513.0000000009mm" viewBox="-1.2843931728 -4.4603128781 2.8143351769 9.2248457214" version="1.1" xmlns="http://www.w3.org/2000/svg">
  <g transform="scale(1,-1)" stroke-linecap="round">
    <g fill="none" stroke="rgb(64,192,64)" stroke-width="0.017982155402308082" id="Visible">
      <line x1="-0.437698611" y1="3.1833433607" x2="-0.6614212812" y2="3.3165604563" />
      <line x1="-0.5493655533" y1="3.3830534524" x2="-0.6614212812" y2="3.3165604563" />
      <path d="M -0.5493655533,3.3830534524 A 0.6333333333333333,0.3764681590245909 0.0 0,1 -0.4240503522,3.8101541149" />
      <path d="M -0.4240503522,3.8101541149 A 0.6333333333333333,0.3764681590245909 0.0 0,1 -0.5485879819,3.915459628" />
      <line x1="-0.660449317" y1="3.9820681758" x2="-0.5485879819" y2="3.915459628" />
      <line x1="-0.660449317" y1="3.9820681758" x2="-0.4363378612" y2="4.1150541681" />
      <line x1="-0.4363378612" y1="4.1150541681" x2="-0.3244765261" y2="4.0484456203" />
      <path d="M -0.3244765261,4.0484456203 A 0.6333333333333333,0.3764681590245909 0.0 0,1 0.5711917259,4.0479834137" />
      <line x1="0.5711917259" y1="4.0479834137" x2="0.6832474538" y2="4.1144764098" />
      <line x1="0.6832474538" y1="4.1144764098" x2="0.9069701239" y2="3.9812593143" />
      <line x1="0.794914396" y1="3.9147663181" x2="0.9069701239" y2="3.9812593143" />
      <path d="M 0.794914396,3.9147663181 A 0.6333333333333333,0.3764681590245909 0.0 0,1 0.6695991949,3.8089985984" />
      <path d="M 0.6695991949,3.8089985984 A 0.6333333333333333,0.3764681590245909 0.0 0,1 0.7941368247,3.3823601425" />
      <line x1="0.9059981598" y1="3.3157515947" x2="0.7941368247" y2="3.3823601425" />
      <line x1="0.9059981598" y1="3.3157515947" x2="0.6818867039" y2="3.1827656024" />
      <line x1="0.6818867039" y1="3.1827656024" x2="0.5700253689" y2="3.2493741502" />
      <path d="M 0.5700253689,3.2493741502 A 0.6333333333333333,0.3764681590245909 0.0 0,1 -0.3256428831,3.2498363568" />
      <line x1="-0.3256428831" y1="3.2498363568" x2="-0.437698611" y2="3.1833433607" />
      <path d="M -0.236410869,3.5738000042 Q -0.1540811019,3.468545002 -0.0779016374,3.3406646718" />
      <line x1="-0.4363378612" y1="4.1150541681" x2="-0.4364973164" y2="3.8249783136" />
      <path d="M 0.4814858748,3.5720476259 Q 0.3995317421,3.4672943509 0.323665353,3.3402357226" />
      <line x1="0.6832474538" y1="4.1144764098" x2="0.6830883246" y2="3.8249935232" />
      <path d="M -0.0530405063,2.5734246838 A 0.5400000000000001,0.320988640852546 0.0 0,1 0.4864612119,2.6396513032" />
      <line x1="-0.0530405063" y1="2.5859221504" x2="-0.0964050062" y2="2.621252242" />
      <path d="M -0.0964050062,2.621252242 Q -0.2584852879,2.6493177634 -0.3783795909,2.714102421" />
      <path d="M 0.4111582463,2.5577039633 C 0.5419302556,2.5991208966 0.645201286,2.6700040196 0.6954849141,2.7528568155" />
      <path d="M -0.1377355979,2.5486888043 A 0.610556942922154,0.3629293393919772 0.0 0,1 0.4171586454,2.5589668291" />
      <path d="M 0.4171586455,2.558966829 L 0.4111582463,2.5577039633" />
      <path d="M -0.0530405063,2.5651694397 L -0.1079701281,2.5447308528" />
      <path d="M -0.0530405063,2.5859221504 L -0.0530405063,2.5651694397" />
      <path d="M -0.1079701281,2.5799125129 L -0.0964050062,2.621252242" />
      <path d="M -0.1079701281,2.5447308528 L -0.1079701281,2.5799125129" />
      <path d="M 0.4111582463,2.5577039633 Q 0.574557275,2.6239859289 0.6622732102,2.7348696307" />
      <path d="M 0.6879685355,-4.5708434076 L 0.5541284094,-4.4036551375" />
      <path d="M 0.5541284094,-4.1222017567 C 0.4242805323,-4.2136546436 0.2329340891,-4.2664360006 0.0498365422,-4.2661862237 C -0.2245294579,-4.2694524413 -0.4582139972,-4.1493438376 -0.4840151841,-4.0061318949 C -0.4852709709,-3.9943730775 -0.4865267578,-3.98261426 -0.4877825446,-3.9708554425" />
      <path d="M -0.4839360101,-3.9352116346 Q -0.4727211805,-3.8838874991 -0.4311330508,-3.8376329477" />
      <path d="M -0.3833944909,-3.7944852791 Q -0.2820228919,-3.7191266313 -0.1171922811,-3.6894022104" />
      <path d="M 0.6581837146,-4.3084783515 Q 0.616036752,-4.3604857732 0.5541284094,-4.4036551375" />
      <path d="M 0.5541284094,-3.8407486271 C 0.4254729618,-3.9314082014 0.2359044823,-3.9841735119 0.0543582954,-3.9847122723 C -0.1274385318,-3.9865835348 -0.2975405839,-3.9365089397 -0.3940004938,-3.8575228368 C -0.4558689851,-3.8067247317 -0.4871295123,-3.7506858006 -0.4877820754,-3.6894060435" />
      <path d="M -0.4839360031,-3.6537590784 Q -0.4717502682,-3.5981100123 -0.4241063581,-3.5486683005" />
      <path d="M -0.3833944518,-3.5130319524 Q -0.2819611516,-3.4376503201 -0.1171912536,-3.4079487792" />
      <path d="M 0.6581838873,-4.027024942 Q 0.6160229471,-4.0790448411 0.5541284094,-4.1222017567" />
      <path d="M 0.5541284094,-3.5592950923 C 0.4269574579,-3.6488828583 0.2402667761,-3.7015439309 0.0606282492,-3.7031973786 C -0.1192319843,-3.7061263217 -0.2885823025,-3.6583337595 -0.3871221455,-3.581487861 C -0.4166541084,-3.5587114616 -0.4398856105,-3.534116801 -0.456816652,-3.5077038791" />
      <path d="M -0.483932468,-3.3723219168 Q -0.4727180816,-3.3210194345 -0.4311303275,-3.2747276892" />
      <path d="M 0.658184195,-3.7455715114 Q 0.6160392635,-3.7975770581 0.5541284094,-3.8407486271" />
      <path d="M 0.5541284094,-3.2778416706 C 0.441488676,-3.3569277429 0.2828656019,-3.4076701672 0.1230438267,-3.4190419949 C -0.0878299481,-3.4356001905 -0.2944569168,-3.381407385 -0.4011135615,-3.2887247617" />
      <path d="M 0.2159372581,-2.8450431221 Q 0.3842606002,-2.8732333603 0.5152500165,-2.9501291842" />
      <path d="M 0.5746388984,-3.5443370943 L 0.5541284094,-3.5592950923" />
      <path d="M 0.5541284094,-2.9963889204 C 0.4266485631,-3.0861410323 0.2399334161,-3.1387355292 0.05986928,-3.1403002268 C -0.1286416763,-3.1432994049 -0.3049834159,-3.0903642143 -0.4011149971,-3.0072708461" />
      <path d="M 0.215943433,-2.5635890508 Q 0.3842199349,-2.591779184 0.51525512,-2.6686729847" />
      <path d="M 0.5688802584,-2.7043157129 Q 0.6330542397,-2.7520660875 0.6737163982,-2.8094050376" />
      <path d="M 0.7076023621,-2.8684727901 Q 0.7255192585,-2.9085874397 0.7309945801,-2.9501252492" />
      <path d="M 0.5746385896,-3.2628839367 L 0.5541284094,-3.2778416706" />
      <path d="M 0.5541284094,-2.7149355692 C 0.4295810008,-2.8026181651 0.2480868046,-2.855031559 0.0718819939,-2.8586300216 C -0.1044879453,-2.8634049689 -0.2724434799,-2.8195628974 -0.3743739976,-2.7465288355 C -0.4099762085,-2.7212485035 -0.437457595,-2.693519966 -0.456818157,-2.6633432229" />
      <path d="M -0.3833913664,-2.3872211403 Q -0.2819502311,-2.3118203693 -0.1171658336,-2.28214024" />
      <path d="M 0.2159435217,-2.2821358033 Q 0.3842185112,-2.3103174973 0.515256387,-2.387218924" />
      <path d="M 0.5688801023,-2.4228623619 Q 0.6330745689,-2.4706256854 0.6737208621,-2.5279456715" />
      <path d="M 0.7076025905,-2.5870193753 Q 0.7255180734,-2.6271304317 0.7309944854,-2.6686721284" />
      <path d="M 0.7333313575,-2.7043156464 C 0.7339852406,-2.8113093988 0.6679872026,-2.9176339875 0.5541284094,-2.9963889204" />
      <path d="M 0.5541284094,-2.4334820577 C 0.3421091362,-2.587161604 -0.038310602,-2.6192247988 -0.2689649339,-2.5213543925 C -0.4063771185,-2.4668129477 -0.4887433188,-2.3750928166 -0.4877823199,-2.2821362542" />
      <path d="M -0.3833912451,-2.105767821 Q -0.2820417114,-2.0304378566 -0.1171916895,-2.0006823249" />
      <path d="M 0.2159416731,-2.0006825927 Q 0.3841595599,-2.028843349 0.515255126,-2.1057649052" />
      <path d="M 0.5688800183,-2.1414090122 Q 0.6330698136,-2.1891664858 0.6737206445,-2.2464925375" />
      <path d="M 0.70760254,-2.305566134 Q 0.7255210642,-2.3456872113 0.7309945385,-2.3872183721" />
      <path d="M 0.7333314693,-2.4228620374 C 0.7339958661,-2.5298304023 0.6679859877,-2.636186494 0.5541284094,-2.7149355692" />
      <path d="M 0.5541284094,-2.1520286843 C 0.4325265585,-2.2375800262 0.2567759893,-2.2896662811 0.0845186665,-2.2953437822 C -0.0878504225,-2.3020925126 -0.2539520419,-2.2625650358 -0.3592514865,-2.1938358686 C -0.3744401986,-2.1840350573 -0.3883943068,-2.1737269406 -0.4011138112,-2.1629115185" />
      <path d="M -0.4568473516,-2.1004207358 Q -0.4876823416,-2.0520120246 -0.4877825243,-2.0006825944" />
      <path d="M -0.3833949347,-1.8243125816 Q -0.2819538337,-1.7489244011 -0.1171924149,-1.7192292844" />
      <path d="M 0.568880538,-1.859955894 Q 0.6330864099,-1.9077306381 0.6737208735,-1.9650388371" />
      <path d="M 0.6959880501,-2.000682363 Q 0.723862144,-2.051855607 0.730994253,-2.1057641384" />
      <path d="M 0.7333313563,-2.1414094408 C 0.7340174403,-2.2483350638 0.6679612933,-2.354768229 0.5541284094,-2.4334820577" />
      <path d="M 0.5541284094,-1.870575882 C 0.4621667715,-1.9349402675 0.3399068992,-1.9809265906 0.2109822162,-2.0014933498 C -0.0730071248,-2.0503170254 -0.3715874711,-1.9616726839 -0.45684711,-1.8189676198" />
      <path d="M -0.4839348118,-1.6835799825 Q -0.4727236898,-1.6322679342 -0.4311329413,-1.586006749" />
      <path d="M 0.7333313701,-1.8599555733 C 0.7339785404,-1.9669546651 0.6680042469,-2.0732563397 0.5541284094,-2.1520286843" />
      <path d="M 0.5541284094,-1.5891224223 C 0.4306941242,-1.675954036 0.2517906082,-1.7281897444 0.0770242517,-1.7326813497 C -0.1177818397,-1.7390850254 -0.3020567387,-1.6857168415 -0.4011133477,-1.6000052038" />
      <path d="M 0.5746404787,-1.8556166805 L 0.5541284094,-1.870575882" />
      <path d="M 0.5541284094,-1.3076690649 C 0.4166046071,-1.4048041689 0.2089888828,-1.4579660146 0.0165917046,-1.4511883269 C -0.1763175888,-1.4461286196 -0.3489717229,-1.3817614133 -0.4304791142,-1.2902666189 C -0.4405551736,-1.2791779301 -0.4493385763,-1.2677792854 -0.4568293225,-1.2560706847" />
      <path d="M -0.3833933624,-0.979953423 Q -0.2820203522,-0.9045903089 -0.1171912525,-0.8748696994" />
      <path d="M 0.2159417893,-0.8748694016 Q 0.3841730232,-0.9030348577 0.5152538974,-0.9799508615" />
      <path d="M 0.5688804342,-1.0155959917 Q 0.6330593863,-1.063343478 0.6737209062,-1.1206792978" />
      <path d="M 0.7076025949,-1.1797529272 Q 0.7255211521,-1.2198746636 0.7309945021,-1.2614058696" />
      <path d="M 0.5746399038,-1.5741636562 L 0.5541284094,-1.5891224223" />
      <path d="M 0.5541284094,-1.026215968 C 0.4166890047,-1.1232851595 0.2092948701,-1.1764368941 0.0170041458,-1.169747286 C -0.1757936533,-1.1647708291 -0.3484581224,-1.1005518671 -0.4301384292,-1.0091876291 C -0.440361055,-0.9979793663 -0.4492640559,-0.9864526804 -0.4568474319,-0.9746075715" />
      <path d="M 0.2159468788,-0.5934163868 Q 0.3841712535,-0.6215890832 0.5152562298,-0.6984994174" />
      <path d="M 0.5688798595,-0.7341430265 Q 0.6330512881,-0.7818947638 0.6737150283,-0.8392337595" />
      <path d="M 0.7076022481,-0.8982999062 Q 0.7255231065,-0.9384290916 0.7309885116,-0.9799981046" />
      <path d="M 0.6581614201,-1.2125058806 Q 0.6160208713,-1.2644983605 0.5541284094,-1.3076690649" />
      <path d="M 0.5541284094,-0.7447624649 C 0.4588842202,-0.8114495302 0.3310976881,-0.8583453043 0.1971504819,-0.8778087173 C -0.0828930113,-0.9218700845 -0.3727726829,-0.8334122875 -0.4568467421,-0.6931547191" />
      <path d="M 0.5688800155,-0.4526895598 Q 0.6331081245,-0.500485624 0.6737207755,-0.5577725728" />
      <path d="M 0.6959881585,-0.593416111 Q 0.7238607159,-0.6445839918 0.7309945193,-0.6984991562" />
      <path d="M 0.7333313616,-0.7341426012 C 0.7339821551,-0.8411269831 0.6680068466,-0.9474449587 0.5541284094,-1.026215968" />
      <path d="M 0.5541284094,-0.4633091399 C 0.4225111329,-0.55604041 0.2276936078,-0.6089195868 0.0423741895,-0.607284557 C -0.1849804487,-0.6075354424 -0.3872437946,-0.5246892956 -0.4568469993,-0.4117012298" />
      <path d="M 0.733331364,-0.4526892381 C 0.7339975558,-0.5596520289 0.6679851597,-0.6660173974 0.5541284094,-0.7447624649" />
      <path d="M 0.5541284094,-0.181855978 C 0.4377438349,-0.2636471256 0.271930963,-0.3150329852 0.1068596259,-0.3241201023 C -0.0582512935,-0.3341092564 -0.2203975163,-0.3018654524 -0.3305128714,-0.2407648823 C -0.3571444762,-0.2261218842 -0.3806780458,-0.2101131329 -0.4011135802,-0.1927386283" />
      <path d="M 0.5746396375,-0.4483506107 L 0.5541284094,-0.4633091399" />
      <path d="M 0.5541284094,0.0995970892 C 0.4287049913,0.0112808676 0.2454978485,-0.04121808 0.0681350609,-0.0441801024 C -0.1094098784,-0.0483502751 -0.2778689069,-0.0031982492 -0.3787092548,0.0711132711 C -0.4122534075,0.0955809824 -0.438299474,0.1222784168 -0.4568474542,0.1512055744" />
      <path d="M 0.5688758251,0.3916674255 Q 0.6330606724,0.3439063072 0.6737175806,0.2865914799" />
      <path d="M 0.6959879348,0.2509438577 Q 0.723859322,0.1997801501 0.7309945608,0.1458613776" />
      <path d="M 0.574639871,-0.1668972348 L 0.5541284094,-0.181855978" />
      <path d="M 0.5541284094,0.3810509406 C 0.4666548953,0.3210302365 0.3627690922,0.2792509506 0.2424710001,0.255713083 C -0.0497591738,0.1955339645 -0.3687745213,0.2842032531 -0.4568475893,0.4326588912" />
      <path d="M 0.5688795859,0.673124096 Q 0.6330678947,0.6253680192 0.6737209667,0.5680407727" />
      <path d="M 0.6959882157,0.5323970317 Q 0.7238512859,0.4812438893 0.7309889793,0.4273560443" />
      <path d="M 0.7333314332,0.3916705491 C 0.7339977099,0.2847127369 0.6679891342,0.1783452524 0.5541284094,0.0995970892" />
      <path d="M 0.5541284094,0.6625041459 C 0.4077705595,0.5590005425 0.1826998494,0.506083345 -0.0196629341,0.5207513073 C -0.2218524567,0.5333636603 -0.3932974212,0.6118730237 -0.4568471249,0.7141119586" />
      <path d="M -0.3833944806,0.9902204829 Q -0.2820172524,1.0655831633 -0.1171919148,1.0953035126" />
      <path d="M 0.733331291,0.6731238703 C 0.7339898495,0.5661449887 0.6679908601,0.4598047411 0.5541284094,0.3810509406" />
      <path d="M 0.5541284094,0.9439571766 C 0.4189000198,0.8485840832 0.2167760921,0.7955652444 0.0269982156,0.8001748175 C -0.1943207315,0.8033727478 -0.3887209134,0.8852323368 -0.4568474371,0.9955654288" />
      <path d="M 0.5688777064,1.236028333 Q 0.6330312255,1.1882821979 0.673703331,1.1309285167" />
      <path d="M 0.7075958598,1.0718684662 Q 0.7255333057,1.0317409131 0.7309908033,0.9901922332" />
      <path d="M 0.7333202203,0.9545523419 C 0.7339624657,0.8475458406 0.6680248879,0.7413206517 0.5541284094,0.6625041459" />
      <path d="M 0.5541284094,1.22541046 C 0.4239185994,1.1336074509 0.231096909,1.0807111053 0.0475807848,1.0814229013 C -0.1362317735,1.0807407827 -0.3069179719,1.1332190731 -0.4011140906,1.2145279718" />
      <path d="M -0.3833944557,1.5531268468 Q -0.2819895322,1.6284985141 -0.1171922962,1.658210304" />
      <path d="M 0.7333315965,1.23603042 Q 0.7327200263,1.1319935446 0.658184619,1.0391345314" />
      <path d="M 0.5746400202,0.9589159681 L 0.5541284094,0.9439571766" />
      <path d="M 0.5541284094,1.5068638454 C 0.3865195404,1.3874513835 0.1139857063,1.3372479538 -0.1070563977,1.3750510792 C -0.2708552618,1.4010886747 -0.4023210631,1.4716671624 -0.4568474867,1.5584719247" />
      <path d="M -0.3833944208,1.834580193 Q -0.2820124945,1.909944061 -0.1171920236,1.9396636151" />
      <path d="M 0.215943297,1.939663408 Q 0.3841912806,1.9114907815 0.5152563793,1.8345803215" />
      <path d="M 0.56888029,1.798937086 Q 0.6330835925,1.7511651126 0.6737208919,1.6938536172" />
      <path d="M 0.7076025397,1.6347798471 Q 0.7255202119,1.5946613681 0.7309945113,1.5531274493" />
      <path d="M 0.5746396724,1.2403690373 L 0.5541284094,1.22541046" />
      <path d="M 0.5541284094,1.7883172303 C 0.4281163298,1.6996299248 0.2442520535,1.6471453583 0.0660959375,1.6445004775 C -0.1703827009,1.6386305964 -0.3849762047,1.7228274938 -0.4568476743,1.8399253656" />
      <path d="M -0.3833947146,2.1160338203 Q -0.2820765066,2.1913717545 -0.1171925165,2.2211165975" />
      <path d="M 0.5688803197,2.080390142 Q 0.633075581,2.0326260683 0.6737208212,1.9753071629" />
      <path d="M 0.7076026146,1.9162332206 Q 0.7255191373,1.8761183614 0.730994505,1.8345800285" />
      <path d="M 0.6581837961,1.6020406022 Q 0.616040044,1.5500362896 0.5541284094,1.5068638454" />
      <path d="M 0.5541284094,2.0697702944 C 0.441311419,1.9905402866 0.2821456428,1.9397222424 0.1221019585,1.9285016737 C -0.0379438838,1.9164828823 -0.1969508262,1.9440269655 -0.3095177496,1.9999451049 C -0.3448212201,2.0173607673 -0.3753346475,2.0370000963 -0.4010580319,2.0588630918" />
      <path d="M -0.3833873407,2.397481557 Q -0.282033809,2.4728558439 -0.1171499351,2.5025628116" />
      <path d="M 0.6581839432,1.883494004 Q 0.6160410068,1.8314904576 0.5541284094,1.7883172303" />
      <path d="M 0.5541284094,2.3512237882 C 0.4067141365,2.246944886 0.1794164878,2.1940834498 -0.0240452742,2.2097751013 C -0.224371769,2.223182745 -0.3937800012,2.3013847848 -0.4568471719,2.4028316191" />
      <path d="M 0.6581842714,2.1649474435 Q 0.6160247991,2.1129286565 0.5541284094,2.0697702944" />
      <path d="M 0.4171586454,2.5589668291 C 0.280544612,2.502404191 0.1140241337,2.479049572 -0.0366551521,2.4922147804 C -0.1876633509,2.5046815936 -0.3212606332,2.5532780399 -0.4011137353,2.6217941923" />
      <path d="M 0.7080233146,2.7596475098 Q 0.725586099,2.7199803189 0.7309945119,2.6789404859" />
      <path d="M 0.658184089,2.4464005334 Q 0.6160360549,2.3943925277 0.5541284094,2.3512237882" />
      <path d="M 0.6879685355,-4.5708434076 C 0.8371673246,-4.4712861384 0.9236270118,-4.335622515 0.9227744106,-4.1990743649" />
      <path d="M 0.9227744106,-4.1990743649 Q 0.9214273497,-4.0476587674 0.7969686424,-3.917621102" />
      <path d="M -0.4011128336,-3.7373389438 L -0.4311330146,-3.7513376469" />
      <path d="M -0.4675108785,-3.7705679917 C -0.6015132901,-3.8459857742 -0.6779027876,-3.9518372304 -0.6772255604,-4.0583478155" />
      <path d="M -0.6772255604,-4.0583478155 C -0.6807643513,-4.2236448505 -0.4894003063,-4.3833424066 -0.2087046001,-4.4399183885 C 0.0337403518,-4.4920057022 0.3320030228,-4.4642517907 0.555681235,-4.3622695017 C 0.7816676147,-4.2624192134 0.9249070718,-4.0914628539 0.9227744703,-3.9176212277" />
      <path d="M 0.9227744703,-3.9176212277 Q 0.9214273564,-3.7662055393 0.7969686384,-3.6361678749" />
      <path d="M -0.4011143262,-3.4558863626 L -0.4311328354,-3.4698843284" />
      <path d="M -0.4674993968,-3.489108262 C -0.6015089875,-3.5645266045 -0.677903141,-3.6703811065 -0.6772256024,-3.776894769" />
      <path d="M -0.6772256024,-3.776894769 C -0.6780746201,-3.8898368766 -0.5918136168,-4.0018992418 -0.4429106689,-4.0779696544 C -0.2952082968,-4.1547537618 -0.0869570879,-4.194301746 0.1227747229,-4.1820698915 C 0.3325065242,-4.1708473113 0.5407575706,-4.1078447594 0.6884599045,-4.0076060701 C 0.8373628422,-3.9080810481 0.9236234328,-3.7725645267 0.9227744787,-3.6361678637" />
      <path d="M 0.9227744787,-3.6361678637 Q 0.9217591239,-3.4955784046 0.8132681999,-3.3723054164" />
      <path d="M -0.4011137133,-3.1744327923 L -0.4311327777,-3.1884310106" />
      <path d="M -0.4675118375,-3.2076620345 L -0.4784296337,-3.2139879213" />
      <path d="M -0.5064359601,-3.2315787544 C -0.6164906594,-3.304524692 -0.677671776,-3.3997890742 -0.677225553,-3.4954411957" />
      <path d="M -0.677225553,-3.4954411957 C -0.6780745215,-3.6083834609 -0.5918140733,-3.720445745 -0.442910968,-3.7965162513 C -0.295208474,-3.8733004314 -0.0869572382,-3.9128484079 0.1227744827,-3.9006166033 C 0.3325062033,-3.8893940818 0.540757454,-3.8263915842 0.6884599106,-3.7261528279 C 0.8373629778,-3.6266277283 0.9236233621,-3.4911112563 0.922774403,-3.3547145669" />
      <path d="M 0.922774403,-3.3547145669 Q 0.9227319937,-3.2923411241 0.9000887461,-3.231578795" />
      <path d="M -0.6437399404,-3.0908521054 Q -0.6771328029,-3.1509729764 -0.6772255098,-3.2139878878" />
      <path d="M -0.6772255098,-3.2139878878 C -0.6827286403,-3.4011679554 -0.4342327191,-3.5782717434 -0.0990276115,-3.6131051329 C 0.2331255158,-3.6542243267 0.6194143665,-3.5474857692 0.7997840202,-3.3517812495 C 0.880920108,-3.2658264677 0.9219169037,-3.1729865055 0.9227744073,-3.0732613629" />
      <path d="M 0.9227744073,-3.0732613629 Q 0.9227319949,-3.0108878198 0.9000887033,-2.9501254904" />
      <path d="M -0.6437399916,-2.8093988564 Q -0.6771328486,-2.8695197165 -0.6772255557,-2.9325346071" />
      <path d="M -0.6772255557,-2.9325346071 C -0.6777216878,-3.03082966 -0.6130056959,-3.1286810302 -0.4972746489,-3.202382037 C -0.3823126734,-3.2764557857 -0.2172785046,-3.3256916776 -0.038377452,-3.3370475296 C 0.1935062277,-3.3529754612 0.4454382525,-3.3029946294 0.628283385,-3.2001040609 C 0.8128409384,-3.0984620052 0.9241294256,-2.9459370099 0.922774471,-2.7918079161" />
      <path d="M 0.922774471,-2.7918079161 Q 0.922701383,-2.7202336093 0.893026297,-2.6510812576" />
      <path d="M -0.4011077901,-2.3300703599 L -0.4311328853,-2.3440712273" />
      <path d="M -0.4675106554,-2.363301513 C -0.6015129303,-2.4387191588 -0.6779028328,-2.5445706331 -0.6772256426,-2.6510812062" />
      <path d="M -0.6772256426,-2.6510812062 C -0.6772204406,-2.6735605442 -0.6739734263,-2.6958890696 -0.6674845997,-2.7180667825 C -0.6371740108,-2.8239852135 -0.5297372606,-2.9219914615 -0.3729095699,-2.9839085098 C -0.2169453085,-3.0464756945 -0.0133951808,-3.0721066913 0.1851956168,-3.0513082541 C 0.3838951255,-3.0313355878 0.5753418369,-2.9650400455 0.7101146847,-2.8666587382 C 0.8459105735,-2.768839815 0.92347116,-2.6399389928 0.9227744523,-2.510354558" />
      <path d="M 0.9227744523,-2.510354558 Q 0.922701369,-2.4387803183 0.893026321,-2.3696279947" />
      <path d="M -0.4011133476,-2.0486194643 L -0.4311329861,-2.0626179316" />
      <path d="M -0.4675118199,-2.0818488389 C -0.6015136615,-2.1572667156 -0.6779027953,-2.2631177802 -0.6772255679,-2.3696280378" />
      <path d="M -0.6772255679,-2.3696280378 C -0.6780745259,-2.4825702111 -0.591814093,-2.5946325297 -0.442911032,-2.6707031119 C -0.2952085801,-2.7474873649 -0.0869573356,-2.7870352804 0.1227744088,-2.7748034511 C 0.3325061536,-2.7635809002 0.5407573871,-2.7005785274 0.6884598469,-2.6003397839 C 0.8373629147,-2.5008147024 0.9236233747,-2.3652980469 0.9227744155,-2.22890146" />
      <path d="M 0.9227744155,-2.22890146 Q 0.9227013297,-2.1573272209 0.8930263041,-2.0881748446" />
      <path d="M -0.6331494421,-1.9474480959 Q -0.6770644135,-2.0156226526 -0.677225556,-2.088174638" />
      <path d="M -0.677225556,-2.088174638 C -0.6777716566,-2.1889286335 -0.6096708233,-2.2891815214 -0.4885676638,-2.3634976386 C -0.3682991759,-2.4382325285 -0.1961157284,-2.4862646866 -0.0115729953,-2.4941550668 C 0.17278633,-2.5026854752 0.3678424634,-2.4709058605 0.5287858173,-2.4037121597 C 0.6902835444,-2.3370778752 0.816215775,-2.2355381045 0.8776514166,-2.1200149983 C 0.9076208056,-2.0640045062 0.9226618234,-2.0064822989 0.9227744701,-1.9474483765" />
      <path d="M 0.9227744701,-1.9474483765 Q 0.921759088,-1.8068586982 0.8132682008,-1.683585707" />
      <path d="M -0.4011141126,-1.4857133462 L -0.4311327886,-1.4997113763" />
      <path d="M -0.4675113599,-1.5189421011 L -0.4784296408,-1.5252682557" />
      <path d="M -0.5064359719,-1.5428590743 C -0.6164906114,-1.6158048897 -0.6776718372,-1.7110693173 -0.6772255926,-1.8067213991" />
      <path d="M -0.6772255926,-1.8067213991 C -0.6781204865,-1.9212245061 -0.5893666286,-2.0347859957 -0.4367769102,-2.1109204967 C -0.2854390762,-2.1878153953 -0.0725288999,-2.2259665221 0.1400305239,-2.2108199846 C 0.3468357881,-2.1970801856 0.5504342549,-2.1330745636 0.6945283705,-2.0333036384 C 0.8397727308,-1.9342018789 0.9235791179,-1.8005092831 0.9227744259,-1.6659947409" />
      <path d="M 0.9227744259,-1.6659947409 Q 0.9227320161,-1.6036212341 0.9000886984,-1.5428589029" />
      <path d="M -0.6437399299,-1.4021324258 Q -0.6771328881,-1.4622533818 -0.6772256121,-1.525268435" />
      <path d="M -0.6772256121,-1.525268435 C -0.6770436139,-1.5806352535 -0.6579603612,-1.633837681 -0.6199758539,-1.6848757175 C -0.5520180749,-1.7763508431 -0.4226434487,-1.8527189588 -0.2607237006,-1.8946377858 C -0.0992968882,-1.9370929863 0.0933049133,-1.9446540602 0.2741015968,-1.9133338021 C 0.4550927555,-1.8826136891 0.6227454174,-1.8131877369 0.7396464115,-1.7182489006 C 0.8573402438,-1.6236992213 0.9232884657,-1.5043523227 0.9227743862,-1.3845414168" />
      <path d="M 0.9227743862,-1.3845414168 Q 0.9227013053,-1.3129671862 0.8930263124,-1.2438148809" />
      <path d="M -0.4011131795,-0.9228063219 L -0.431133083,-0.9368049123" />
      <path d="M -0.4675118504,-0.9560357521 C -0.6015136566,-1.03145336 -0.6779027939,-1.137304748 -0.6772255708,-1.2438149916" />
      <path d="M -0.6772255708,-1.2438149916 C -0.678074531,-1.3567571456 -0.5918140733,-1.4688193231 -0.4429110018,-1.5448899732 C -0.2952085387,-1.6216742834 -0.0869573064,-1.6612222317 0.1227744342,-1.6489903299 C 0.3325061743,-1.6377677071 0.54075742,-1.5747653445 0.688459875,-1.4745266662 C 0.8373629396,-1.3750016599 0.9236233662,-1.2394848941 0.9227744071,-1.1030882643" />
      <path d="M 0.9227744071,-1.1030882643 C 0.9233343164,-0.9806153183 0.854323744,-0.8586596943 0.7317870872,-0.7631258561" />
      <path d="M 0.7183120445,-0.7528159829 Q 0.6732973514,-0.7192279046 0.6205354156,-0.6905278912" />
      <path d="M -0.4011137984,-0.641353329 L -0.4311289359,-0.6553496061" />
      <path d="M -0.4675115784,-0.6745823654 C -0.6015134885,-0.7500000983 -0.6779028632,-0.855851218 -0.6772256194,-0.962361567" />
      <path d="M -0.6772256194,-0.962361567 C -0.6779622091,-1.0712163879 -0.5980498777,-1.17933722 -0.4586732082,-1.2550647891 C -0.3203672858,-1.3313938327 -0.1242929747,-1.3742626057 0.0775712543,-1.3693097762 C 0.2793522557,-1.365231255 0.4844571803,-1.3132483202 0.6385138077,-1.2241444239 C 0.7935202144,-1.1357099644 0.8955908039,-1.0111007137 0.9176661285,-0.8803535419 C 0.9210702574,-0.8608378321 0.9227730374,-0.8412648931 0.9227744684,-0.8216347249" />
      <path d="M 0.9227744684,-0.8216347249 C 0.9233343834,-0.6991619115 0.8543234437,-0.5772061392 0.7317870756,-0.481672604" />
      <path d="M 0.7183120375,-0.4713627394 Q 0.6795104688,-0.4424056386 0.6348737463,-0.4170459467" />
      <path d="M -0.6331494701,-0.5401818025 Q -0.6770644761,-0.6083563444 -0.6772256332,-0.6809083457" />
      <path d="M -0.6772256332,-0.6809083457 C -0.6787110889,-0.8116915377 -0.561633726,-0.940668668 -0.3692423673,-1.0151850245 C -0.1786782566,-1.0910938822 0.0824093175,-1.1103208394 0.3175732068,-1.0607524902 C 0.4891282442,-1.025528417 0.6452116294,-0.9552247713 0.7535831068,-0.8623205185 C 0.862644992,-0.7697364013 0.9232121875,-0.6551482953 0.9227743962,-0.5401817319" />
      <path d="M 0.9227743962,-0.5401817319 Q 0.9227013127,-0.468607445 0.8930262982,-0.3994550714" />
      <path d="M -0.6331494199,-0.2587284746 Q -0.6770644102,-0.3269030478 -0.677225561,-0.3994551367" />
      <path d="M -0.677225561,-0.3994551367 C -0.6760754257,-0.4891465811 -0.6287410746,-0.570270316 -0.5352225078,-0.6428263416 C -0.3453701701,-0.7924943242 0.0368633603,-0.8517979154 0.3611044292,-0.7694871793 C 0.6884301781,-0.6930508516 0.9279507623,-0.4805307982 0.9227743511,-0.2587284737" />
      <path d="M 0.9227743511,-0.2587284737 Q 0.9227319409,-0.1963550173 0.9000886961,-0.1355927168" />
      <path d="M -0.6437399915,0.005134007 Q -0.6771328568,-0.0549868941 -0.6772255609,-0.1180018139" />
      <path d="M -0.6772255609,-0.1180018139 C -0.6780745165,-0.2309440962 -0.5918141601,-0.3430061085 -0.4429111025,-0.4190767625 C -0.2952086554,-0.4958610747 -0.0869573937,-0.5354091631 0.1227743251,-0.52317725 C 0.3325060447,-0.5119546209 0.5407572741,-0.4489521885 0.6884597815,-0.3487135778 C 0.8373628999,-0.2491886402 0.9236233672,-0.1136719372 0.9227743961,0.0227247837" />
      <path d="M 0.9227743961,0.0227247837 C 0.9233342865,0.1451978487 0.8543237782,0.2671534288 0.7317871461,0.3626871818" />
      <path d="M 0.7183103764,0.3729983409 Q 0.6732963138,0.4065857302 0.6205352585,0.4352852781" />
      <path d="M -0.6331494412,0.3041780501 Q -0.6770644745,0.2360034328 -0.6772256333,0.1634513977" />
      <path d="M -0.6772256333,0.1634513977 C -0.6780745921,0.050509162 -0.5918139862,-0.0615529149 -0.4429110254,-0.1376234884 C -0.2952086678,-0.2144077286 -0.0869576362,-0.2539558492 0.1227741492,-0.2417239938 C 0.3325059415,-0.2305014141 0.5407571859,-0.1674989663 0.6884595471,-0.0672604267 C 0.8373624689,0.0322644077 0.9236234163,0.1677811903 0.9227744676,0.3041777723" />
      <path d="M 0.9227744676,0.3041777723 Q 0.9227013624,0.3757522591 0.8930263327,0.4449048167" />
      <path d="M -0.6331493957,0.5856313281 Q -0.6770644573,0.5174566939 -0.6772256198,0.4449046188" />
      <path d="M -0.6772256198,0.4449046188 C -0.6795374378,0.2977364419 -0.5296235191,0.1537731208 -0.2955203536,0.0852658818 C -0.0638348806,0.0144159472 0.2428493998,0.0223732319 0.4853478651,0.1124427827 C 0.7496858823,0.2067178824 0.9258413772,0.3938555656 0.9227744069,0.585631315" />
      <path d="M 0.9227744069,0.585631315 Q 0.9227013212,0.6572055643 0.8930263123,0.7263579323" />
      <path d="M -0.4011009439,1.0473720639 L -0.4311329064,1.0333681566" />
      <path d="M -0.4675116363,1.0141373119 L -0.4784296401,1.0078113065" />
      <path d="M -0.5064359713,0.990220465 C -0.6164906303,0.9172745104 -0.6776718051,0.8220100562 -0.6772255707,0.7263580429" />
      <path d="M -0.6772255707,0.7263580429 C -0.6782734149,0.6070429135 -0.5815888482,0.4888798969 -0.4174744482,0.4127856537 C -0.1911460424,0.3038933368 0.1626468018,0.2864958837 0.4451101581,0.3800680581 C 0.7305429747,0.4696313135 0.9264589516,0.6654046502 0.9227743857,0.8670844684" />
      <path d="M 0.9227743857,0.8670844684 Q 0.9227012964,0.938658765 0.8930262939,1.0078111426" />
      <path d="M -0.6331494637,1.1485378941 Q -0.6770644641,1.0803634847 -0.6772256114,1.0078114856" />
      <path d="M -0.6772256114,1.0078114856 C -0.6780745185,0.8948690875 -0.5918141918,0.7828070007 -0.4429112375,0.706736431 C -0.2952088759,0.629952177 -0.0869575482,0.5904039831 0.1227741972,0.6026358355 C 0.332505945,0.6138584028 0.5407571101,0.676860909 0.6884596502,0.7770995158 C 0.8373627977,0.8766244535 0.9236234031,1.0121410378 0.9227744255,1.1485377921" />
      <path d="M 0.9227744255,1.1485377921 Q 0.9227013341,1.2201121518 0.8930262773,1.2892645611" />
      <path d="M -0.4011137721,1.6102729266 L -0.4311328518,1.5962747139" />
      <path d="M -0.4675119072,1.5770437043 Q -0.5787391714,1.5135756423 -0.6331494421,1.4299911465" />
      <path d="M -0.643739962,1.4124003102 Q -0.6771328757,1.3522794079 -0.677225593,1.2892644498" />
      <path d="M -0.677225593,1.2892644498 C -0.6780745694,1.1763221423 -0.5918139426,1.064260019 -0.442910809,0.9881895129 C -0.2952082815,0.9114053384 -0.0869571389,0.8718572605 0.1227746181,0.8840891426 C 0.3325063733,0.8953117406 0.5407577062,0.9583143699 0.6884600522,1.058553042 C 0.8373629826,1.1580780219 0.9236233648,1.2935945974 0.9227744706,1.429991426" />
      <path d="M 0.9227744706,1.429991426 Q 0.9227320613,1.4923648882 0.9000887193,1.5531270967" />
      <path d="M -0.401113101,1.891726557 L -0.4311317559,1.8777285828" />
      <path d="M -0.4675119312,1.8584970081 C -0.6015136873,1.7830792043 -0.6779027534,1.6772280703 -0.6772255566,1.5707176885" />
      <path d="M -0.6772255566,1.5707176885 C -0.6806420558,1.4070189735 -0.4931486099,1.2486664369 -0.2165381222,1.190814418 C 0.0571739527,1.1292842995 0.4037145714,1.1727896026 0.634941577,1.3068939396 C 0.815611328,1.4084748265 0.9240673317,1.5592048839 0.9227744155,1.7114445102" />
      <path d="M 0.9227744155,1.7114445102 C 0.9233343221,1.8339174364 0.8543237254,1.9558731407 0.7317871192,2.051406913" />
      <path d="M 0.7183119466,2.0617168821 Q 0.6732972387,2.0953049503 0.6205352657,2.1240049842" />
      <path d="M -0.4011129146,2.1731799262 L -0.4311329708,2.1591812757" />
      <path d="M -0.4675107216,2.1399509917 L -0.478429722,2.1336244219" />
      <path d="M -0.5064360481,2.1160335826 C -0.6164906621,2.0430876589 -0.6776718006,1.9478230939 -0.677225568,1.8521710889" />
      <path d="M -0.677225568,1.8521710889 C -0.6798336639,1.700125083 -0.5192961465,1.5518296856 -0.2726360543,1.4859844903 C -0.0308573878,1.4181362157 0.2846878082,1.4346534039 0.5250624869,1.5350966035 C 0.767968767,1.6329533809 0.9252914964,1.8111350307 0.9227744519,1.9928976078" />
      <path d="M 0.9227744519,1.9928976078 Q 0.9214273429,2.1443133224 0.7969686477,2.2743510264" />
      <path d="M -0.401114398,2.4546325009 L -0.431132864,2.4406345532" />
      <path d="M -0.467511615,2.4214037112 L -0.4784296881,2.4150776701" />
      <path d="M -0.5064360226,2.3974868389 Q -0.5891114318,2.3421859965 -0.6331494811,2.2743510758" />
      <path d="M -0.6437399914,2.2567602461 Q -0.6771328672,2.1966392676 -0.6772256431,2.1336242615" />
      <path d="M -0.6772256431,2.1336242615 C -0.6780745484,2.0206820536 -0.5918137194,1.9086197345 -0.4429108162,1.8325493215 C -0.2952084696,1.7557651987 -0.0869571908,1.7162171401 0.1227745917,1.7284489883 C 0.33250637,1.7396715589 0.5407574117,1.8026741116 0.6884598092,1.9029127724 C 0.8373628098,2.0024377665 0.9236234345,2.1379542789 0.9227744708,2.2743509657" />
      <path d="M 0.9227744708,2.2743509657 Q 0.9227013802,2.3459252916 0.8930262936,2.4150776975" />
      <path d="M -0.429109869,2.7230810087 L -0.4311327445,2.7220878885" />
      <path d="M -0.4675118055,2.7028568745 L -0.4784296339,2.696530972" />
      <path d="M -0.5064359602,2.6789401451 C -0.6164906419,2.6059942461 -0.6776717747,2.5107298167 -0.6772255558,2.415077657" />
      <path d="M -0.6772255558,2.415077657 C -0.6780745294,2.3021353622 -0.5918140364,2.1900731247 -0.4429109043,2.1140026343 C -0.295208383,2.0372184713 -0.0869571623,1.9976704624 0.1227745586,2.0099022842 C 0.3325062781,2.0211248213 0.5407575537,2.0841273827 0.6884599869,2.1843661287 C 0.8373630297,2.2838912137 0.923623357,2.4194076569 0.9227744075,2.5558044156" />
      <path d="M 0.9227744075,2.5558044156 Q 0.9217928565,2.6951572371 0.815071893,2.8176241365" />
      <path d="M -0.6437399287,2.8196667632 Q -0.6771328006,2.7595458695 -0.6772255099,2.6965309372" />
      <path d="M -0.6772255099,2.6965309372 C -0.6820636844,2.5161075268 -0.4520241457,2.3441644582 -0.133289003,2.3017786125 C 0.1823485242,2.2539436599 0.5596503256,2.3410946674 0.7588530891,2.5196632274 C 0.8646362356,2.6114263028 0.923185013,2.7241676714 0.922774403,2.8372576189" />
      <path d="M 0.922774403,2.8372576189 L 0.9206870009,2.8748244074" />
      <path d="M -0.6460490077,2.8590699636 C -0.5742483284,2.7210319847 -0.3643469438,2.6095963159 -0.1079701281,2.5799125129" />
      <path d="M 0.727616464,2.7702589978 Q 0.7333281519,2.7425369832 0.7333314786,2.7145838859" />
      <path d="M 0.342614368,2.3221331616 C 0.1586727621,2.2645419836 -0.0597790643,2.2652018681 -0.2221159159,2.3178505255" />
      <path d="M 0.3426144552,2.0406798507 C 0.1585651676,1.9830872507 -0.0596394691,1.9837399263 -0.2221134475,2.036396729" />
      <path d="M -0.4241131581,2.4331305318 Q -0.3617336936,2.4972231866 -0.2518466635,2.5382135429" />
      <path d="M 0.6120632557,2.3974871021 Q 0.6652643348,2.3485606399 0.6959878799,2.2924034806" />
      <path d="M 0.7127570319,2.2567598931 Q 0.733286752,2.2050101532 0.7333315192,2.1516770339" />
      <path d="M 0.5541284094,1.8596040633 C 0.3559430396,1.716782753 0.0103918088,1.6771289179 -0.2220824855,1.7549365529" />
      <path d="M -0.4241120936,2.1516760642 Q -0.3617559789,2.215755012 -0.2518472752,2.2567603448" />
      <path d="M -0.117193334,2.2924037111 L -0.0911444106,2.2965462612" />
      <path d="M 0.1882050453,2.2966165372 L 0.2159419268,2.292403764" />
      <path d="M 0.6205285052,2.1080585503 Q 0.6677778287,2.0625000316 0.6959831978,2.0109419698" />
      <path d="M 0.7266506247,1.9303987428 Q 0.7333266087,1.9004590082 0.7333314739,1.8702238344" />
      <path d="M 0.5541284094,1.5781506009 C 0.3831344025,1.4561860633 0.1028195207,1.4067477566 -0.1204591133,1.448619474 C -0.3397442347,1.4860503431 -0.4906626349,1.6054927222 -0.4877825256,1.7294972557" />
      <path d="M -0.4241124115,1.8702242529 Q -0.3617571388,1.9342992689 -0.2518472333,1.9753069416" />
      <path d="M -0.1171924614,2.0109505107 L -0.0911442102,2.0150929838" />
      <path d="M 0.612063009,1.8345803665 Q 0.6652624353,1.785656309 0.6959880186,1.7294971359" />
      <path d="M 0.7266506189,1.6489454161 Q 0.7333267172,1.6190039075 0.733331364,1.5887708009" />
      <path d="M 0.1882061345,1.7337100472 L 0.215943468,1.7294972007" />
      <path d="M 0.7333265618,1.3073038618 C 0.733975184,1.2003061352 0.6680108436,1.0940474141 0.5541284094,1.0152442137" />
      <path d="M 0.3426166597,0.9148672508 C 0.1584613796,0.8572526977 -0.0596785169,0.8579447674 -0.2221132766,0.9105835528" />
      <path d="M -0.1171919791,1.44804368 Q 0.0435547362,1.4757781113 0.2159419608,1.4480438541" />
      <path d="M 0.7333313575,1.0258637427 C 0.7339874704,0.9188739856 0.6679856119,0.812543573 0.5541284094,0.7337909984" />
      <path d="M 0.3426140179,0.6334133874 C 0.1586255273,0.5758292785 -0.0596458,0.5764676361 -0.222115269,0.6291306885" />
      <path d="M 0.7333313644,0.7444107655 C 0.733981079,0.6374089598 0.6679931312,0.5311002713 0.5541284094,0.4523374525" />
      <path d="M 0.3426057866,0.3519582282 C 0.1586896595,0.2943802727 -0.0597744226,0.2950207886 -0.2221150668,0.3476773255" />
      <path d="M 0.6120580267,0.7087681875 Q 0.6652406634,0.6598554078 0.6959868597,0.6036818457" />
      <path d="M 0.7127566133,0.568039469 Q 0.7332750854,0.5162748053 0.7333151292,0.4629177481" />
      <path d="M 0.7333151292,0.4629177481 C 0.7339719959,0.3559470678 0.6680274362,0.2497127032 0.5541284094,0.1708839866" />
      <path d="M 0.3426158355,0.0705071826 C 0.1586620237,0.0129165205 -0.0597299612,0.0135725518 -0.2221130597,0.0662236374" />
      <path d="M -0.1171927408,0.6036839561 L -0.0911439686,0.6078264976" />
      <path d="M 0.1882052776,0.6078968415 L 0.2159426418,0.6036839893" />
      <path d="M 0.6120633622,0.4273140292 Q 0.6652639576,0.3783879158 0.6959871888,0.322231999" />
      <path d="M 0.7317871816,0.2104873214 L 0.733331416,0.1815040493" />
      <path d="M 0.1882047084,0.3264435295 L 0.2159389744,0.322231334" />
      <path d="M -0.1171910683,0.0407777091 L -0.0911444043,0.0449200172" />
      <path d="M 0.188206417,0.0449904052 L 0.2159443289,0.0407773435" />
      <path d="M 0.7333313646,-0.3814024191 C 0.7340002774,-0.4883626742 0.6679789727,-0.5947360672 0.5541284094,-0.6734755416" />
      <path d="M 0.3426165913,-0.7738524175 C 0.1586937196,-0.831426095 -0.0596619942,-0.8307987484 -0.2220185609,-0.7781571767" />
      <path d="M 0.6205352476,-0.4250173111 Q 0.667801019,-0.4705787651 0.6959880211,-0.522129116" />
      <path d="M 0.712757128,-0.5577727124 Q 0.7332866718,-0.6095227864 0.7333313641,-0.6628558987" />
      <path d="M 0.3426036176,-1.0553086817 C 0.1587056692,-1.1128846089 -0.0597362302,-1.1122495813 -0.2221104905,-1.0595900454" />
      <path d="M -0.091144308,-0.5179866047 Q 0.0444586399,-0.4985586859 0.1882052067,-0.5179162504" />
      <path d="M 0.3611014605,-0.5577708445 Q 0.4802255789,-0.59735655 0.5688804317,-0.6628555948" />
      <path d="M 0.6120635355,-0.6984991907 Q 0.6652505406,-0.7474080835 0.6959879469,-0.8035823751" />
      <path d="M 0.7266505271,-0.8841341944 Q 0.7333267454,-0.9140761954 0.733331365,-0.944309149" />
      <path d="M 0.5541284094,-1.2363818555 C 0.3558573861,-1.3792024791 0.0105418915,-1.4188529963 -0.222109385,-1.3410436212" />
      <path d="M -0.4877821543,-1.0850361369 Q -0.4876539344,-1.0307604434 -0.4533213325,-0.9799525903" />
      <path d="M -0.1171929742,-0.8035822193 Q 0.0435016623,-0.7758476946 0.2159421032,-0.8035825452" />
      <path d="M 0.3611066966,-0.8392258014 Q 0.4801894293,-0.8787902981 0.5688799924,-0.9443091305" />
      <path d="M 0.6120631585,-0.9799525636 Q 0.665272324,-1.0288883263 0.6959882027,-1.0850356416" />
      <path d="M 0.7266506284,-1.1655873898 Q 0.7333265649,-1.1955276794 0.7333313682,-1.2257622462" />
      <path d="M 0.5541284094,-1.5178352858 C 0.3558582783,-1.6606732286 0.0103472288,-1.7003162487 -0.2221130687,-1.6224960868" />
      <path d="M -0.1171292655,-1.0850464645 L -0.0910903365,-1.0808988892" />
      <path d="M 0.1882080802,-1.0808225669 L 0.2159454036,-1.0850355887" />
      <path d="M -0.4877809565,-1.6479342184 Q -0.4877376214,-1.6065749245 -0.4675103304,-1.5667766618" />
      <path d="M -0.1171909242,-1.3664889216 L -0.0911432744,-1.3623465446" />
      <path d="M 0.1882063718,-1.3622759725 L 0.2159460687,-1.366489273" />
      <path d="M 0.7333313664,-1.7886690429 C 0.7340292749,-1.8955793232 0.6679398107,-2.002052811 0.5541284094,-2.0807416091" />
      <path d="M 0.5541284094,-2.0807416091 C 0.4408181479,-2.1603021454 0.2809955463,-2.2111537945 0.1202107004,-2.2221464118 C -0.0257106501,-2.2327531915 -0.1707816733,-2.2107575215 -0.2801018661,-2.1640158905 C -0.3900380264,-2.1176905288 -0.4633220555,-2.0471162613 -0.4823277207,-1.9718085742 C -0.4859615031,-1.9577484118 -0.4877798353,-1.9436107536 -0.4877827175,-1.9293955996" />
      <path d="M -0.4241131346,-1.7886688834 Q -0.3617391837,-1.724580159 -0.2518470283,-1.6835857783" />
      <path d="M -0.0911444044,-1.6437996933 Q 0.058390698,-1.6224337395 0.215943009,-1.6479422263" />
      <path d="M 0.6205353926,-1.8322836924 Q 0.6678126582,-1.8778596001 0.6959881403,-1.929395393" />
      <path d="M 0.7127571879,-1.9650387483 Q 0.7332857455,-2.0167814937 0.7333309337,-2.0701217518" />
      <path d="M 0.7333309337,-2.0701217518 C 0.7339757052,-2.1771308544 0.6680027514,-2.2834214475 0.5541284094,-2.3621953453" />
      <path d="M 0.5541284094,-2.3621953453 C 0.4214010898,-2.4558215442 0.2236203519,-2.5088367671 0.0369764211,-2.5061293995 C -0.1500267294,-2.5049237401 -0.3216448266,-2.4484274306 -0.4117778552,-2.3636226074 C -0.4620193541,-2.316515461 -0.4873542435,-2.2655908384 -0.4877825231,-2.2108487396" />
      <path d="M -0.42411305,-2.0701221291 Q -0.3617352156,-2.0060329363 -0.2518470385,-1.9650391957" />
      <path d="M 0.3611055332,-1.96503884 Q 0.4802331407,-2.0046266827 0.5688799264,-2.0701220536" />
      <path d="M 0.6120629542,-2.105765619 Q 0.6652485166,-2.1546723631 0.6959878641,-2.2108484568" />
      <path d="M 0.7266506463,-2.291400557 Q 0.7333267408,-2.3213423011 0.7333313638,-2.3515751335" />
      <path d="M 0.7333313638,-2.3515751335 C 0.7339943203,-2.4585391415 0.6679944394,-2.5648939977 0.5541284094,-2.6436485944" />
      <path d="M 0.5541284094,-2.6436485944 C 0.35592394,-2.7864756125 0.010356976,-2.8261267087 -0.2221126954,-2.74830926" />
      <path d="M -0.4241131025,-2.3515753056 Q -0.3617884285,-2.2875377371 -0.2518305839,-2.2464983451" />
      <path d="M -0.1171923776,-2.2108489177 Q 0.0435332028,-2.1831162804 0.2159406469,-2.2108481579" />
      <path d="M 0.3611079607,-2.2464922898 Q 0.4801951689,-2.2860605892 0.5688801375,-2.3515755861" />
      <path d="M 0.6120630344,-2.3872189741 Q 0.6652670682,-2.4361488709 0.6959880942,-2.4923021091" />
      <path d="M 0.7266506129,-2.5728538396 Q 0.7333266527,-2.6027948897 0.7333313641,-2.6330285693" />
      <path d="M 0.7333313641,-2.6330285693 C 0.7339825652,-2.7400253314 0.6679940502,-2.8463395612 0.5541284094,-2.9251016896" />
      <path d="M 0.3426143332,-3.025479224 C 0.1585967252,-3.0830696771 -0.0596527955,-3.0824195606 -0.222110244,-3.0297630781" />
      <path d="M -0.1171920921,-2.4923022389 Q 0.0297113639,-2.4668810922 0.1882059121,-2.4880891471" />
      <path d="M 0.3611074273,-2.5279455139 Q 0.4802044514,-2.5675192685 0.5688803516,-2.6330287557" />
      <path d="M 0.6120631181,-2.6686720124 Q 0.6652642299,-2.7175971929 0.6959880915,-2.7737552348" />
      <path d="M 0.7266505723,-2.8543071166 Q 0.7333267246,-2.8842490569 0.7333313829,-2.9144820157" />
      <path d="M -0.1171921626,-2.7737553017 Q 0.0297240274,-2.7483341936 0.1882060221,-2.769542395" />
      <path d="M 0.3611070382,-2.809398857 Q 0.4801878381,-2.8489641301 0.5688800678,-2.9144820415" />
      <path d="M 0.342612556,-3.5883861528 C 0.1586362277,-3.645970721 -0.0596694034,-3.645329124 -0.2221152541,-3.5926685253" />
      <path d="M -0.4877825228,-3.3366618843 Q -0.4877383341,-3.2953000395 -0.4675118046,-3.2554954844" />
      <path d="M -0.0911433146,-3.0510661876 Q 0.0583864492,-3.0297014065 0.2159446239,-3.0552085563" />
      <path d="M 0.3426135162,-3.8698392617 C 0.0915414,-3.9499981603 -0.2192378068,-3.9144847466 -0.373447103,-3.8017088442 C -0.4486839496,-3.7476121279 -0.4867957571,-3.6864142883 -0.4877825256,-3.6181153253" />
      <path d="M -0.4877825256,-3.6181153253 Q -0.4876522072,-3.5638289936 -0.4533111506,-3.5130168156" />
      <path d="M 0.3426131267,-4.1512926368 C 0.1475701644,-4.2125240747 -0.0859289678,-4.2075844348 -0.2507645991,-4.1457763471 C -0.3987589197,-4.0922195254 -0.4889161208,-3.9966214988 -0.4877825005,-3.8995670531" />
      <path d="M -0.4877825005,-3.8995670531 Q -0.4876545972,-3.8452944949 -0.4533191245,-3.7944846065" />
      <path d="M -0.4241125319,-3.7588424543 Q -0.3617228348,-3.6947648214 -0.2518409025,-3.6537610353" />
      <path d="M -0.0911158228,-3.6139756895 Q 0.04435727,-3.5945810864 0.1882046759,-3.6139024041" />
      <path d="M 0.3426129472,-4.4327459147 C 0.1115511715,-4.5060209849 -0.1715058508,-4.4832057721 -0.3341066903,-4.3892845623 C -0.4324517932,-4.3346085068 -0.4882827691,-4.2579880741 -0.4877826753,-4.1810217422" />
      <path d="M -0.4241127245,-4.0402952463 Q -0.3617213022,-3.9761972693 -0.2518474512,-3.9352119713" />
      <path d="M -0.1171924276,-3.8995684041 L -0.0911440677,-3.8954259231" />
      <path d="M 0.6879685355,-4.6060250677 C 0.8371673246,-4.5064677985 0.9236270118,-4.3708041751 0.9227744106,-4.234256025" />
      <path d="M 0.9223171338,-4.2166651958 Q 0.918501935,-4.1447733992 0.88495253,-4.0759386485" />
      <path d="M -0.0911439358,-3.6935446919 Q -0.1587750717,-3.7007880843 -0.2221130662,-3.7148483481" />
      <path d="M -0.6765581387,-4.0759386446 L -0.6772255604,-4.0935294757" />
      <path d="M -0.6772255604,-4.0935294757 C -0.6807643513,-4.2588265106 -0.4894003063,-4.4185240667 -0.2087046001,-4.4751000486 C 0.0337403518,-4.5271873623 0.3320030228,-4.4994334508 0.555681235,-4.3974511618 C 0.7816676147,-4.2976008735 0.9249070718,-4.126644514 0.9227744703,-3.9528028878" />
      <path d="M 0.9227744703,-3.9528028878 Q 0.9226560275,-3.8719059696 0.8849525039,-3.7944853597" />
      <path d="M -0.0911429471,-3.4120912854 Q -0.1587733012,-3.4193345442 -0.2221106134,-3.4333945173" />
      <path d="M -0.6765581818,-3.7944855782 L -0.6772256024,-3.8120764291" />
      <path d="M -0.6772256024,-3.8120764291 C -0.6780746201,-3.9250185368 -0.5918136168,-4.0370809019 -0.4429106689,-4.1131513145 C -0.2952082968,-4.1899354219 -0.0869570879,-4.2294834061 0.1227747229,-4.2172515516 C 0.3325065242,-4.2060289714 0.5407575706,-4.1430264195 0.6884599045,-4.0427877303 C 0.8373628422,-3.9432627083 0.9236234328,-3.8077461868 0.9227744787,-3.6713495238" />
      <path d="M 0.9227744787,-3.6713495238 Q 0.9226560399,-3.5904526323 0.8849525178,-3.5130320235" />
      <path d="M -0.0911434171,-3.1306380345 Q -0.1587799446,-3.1378819807 -0.2221225572,-3.151943834" />
      <path d="M -0.4784296337,-3.2491695814 C -0.6057598028,-3.32408214 -0.677832963,-3.4270654666 -0.677225553,-3.5306228558" />
      <path d="M -0.677225553,-3.5306228558 C -0.6780745215,-3.643565121 -0.5918140733,-3.7556274051 -0.442910968,-3.8316979115 C -0.295208474,-3.9084820915 -0.0869572382,-3.948030068 0.1227744827,-3.9357982635 C 0.3325062033,-3.9245757419 0.540757454,-3.8615732443 0.6884599106,-3.7613344881 C 0.8373629778,-3.6618093884 0.9236233621,-3.5262929164 0.922774403,-3.389896227" />
      <path d="M 0.922774403,-3.389896227 Q 0.9227013205,-3.3183219837 0.8930263504,-3.2491696173" />
      <path d="M -0.0911443298,-2.849184862 Q -0.158776736,-2.856428423 -0.2221158381,-2.8704891175" />
      <path d="M -0.6765580891,-3.2315787181 L -0.6772255098,-3.2491695479" />
      <path d="M -0.6772255098,-3.2491695479 C -0.6827286403,-3.4363496155 -0.4342327191,-3.6134534035 -0.0990276115,-3.648286793 C 0.2331255158,-3.6894059868 0.6194143665,-3.5826674294 0.7997840202,-3.3869629096 C 0.880920108,-3.3010081278 0.9219169037,-3.2081681656 0.9227744073,-3.108443023" />
      <path d="M 0.9223171315,-3.0908521933 Q 0.9190165602,-3.0282395757 0.8930262938,-2.967716307" />
      <path d="M 0.8849525079,-2.9501254677 Q 0.8345200568,-2.8477132456 0.7266505573,-2.7644905356" />
      <path d="M 0.7076025946,-2.7503250511 L 0.6581843297,-2.7175860883" />
      <path d="M 0.3425868803,-2.5933121698 Q 0.2667781337,-2.5760466683 0.1882061119,-2.5678019478" />
      <path d="M -0.6772255557,-2.9677162673 C -0.6777216878,-3.0660113202 -0.6130056959,-3.1638626903 -0.4972746489,-3.2375636971 C -0.3823126734,-3.3116374458 -0.2172785046,-3.3608733378 -0.038377452,-3.3722291897 C 0.1935062277,-3.3881571213 0.4454382525,-3.3381762895 0.628283385,-3.235285721 C 0.8128409384,-3.1336436653 0.9241294256,-2.98111867 0.922774471,-2.8269895762" />
      <path d="M 0.922774471,-2.8269895762 L 0.9223171937,-2.8093987467" />
      <path d="M -0.6772256426,-2.6862628663 C -0.6772204406,-2.7087422043 -0.6739734263,-2.7310707297 -0.6674845997,-2.7532484426 C -0.6371740108,-2.8591668736 -0.5297372606,-2.9571731216 -0.3729095699,-3.0190901699 C -0.2169453085,-3.0816573546 -0.0133951808,-3.1072883515 0.1851956168,-3.0864899142 C 0.3838951255,-3.066517248 0.5753418369,-3.0002217056 0.7101146847,-2.9018403983 C 0.8459105735,-2.8040214751 0.92347116,-2.6751206529 0.9227744523,-2.5455362181" />
      <path d="M 0.9227744523,-2.5455362181 C 0.9233654118,-2.4213485003 0.8523423819,-2.2977148441 0.7266506186,-2.2015840253" />
      <path d="M 0.7076022974,-2.1874182823 L 0.658183811,-2.1546792205" />
      <path d="M 0.342610909,-2.0304111255 Q 0.266790449,-2.0131414079 0.1882055127,-2.0048953517" />
      <path d="M -0.6765581457,-2.3872188687 L -0.6772255679,-2.4048096979" />
      <path d="M -0.6772255679,-2.4048096979 C -0.6780745259,-2.5177518712 -0.591814093,-2.6298141898 -0.442911032,-2.705884772 C -0.2952085801,-2.782669025 -0.0869573356,-2.8222169405 0.1227744088,-2.8099851112 C 0.3325061536,-2.7987625603 0.5407573871,-2.7357601876 0.6884598469,-2.635521444 C 0.8373629147,-2.5359963625 0.9236233747,-2.400479707 0.9227744155,-2.2640831201" />
      <path d="M 0.9227744155,-2.2640831201 L 0.9223171384,-2.2464922898" />
      <path d="M -0.6765581345,-2.1057654691 L -0.677225556,-2.1233562981" />
      <path d="M -0.677225556,-2.1233562981 C -0.6777716566,-2.2241102936 -0.6096708233,-2.3243631815 -0.4885676638,-2.3986792987 C -0.3682991759,-2.4734141886 -0.1961157284,-2.5214463467 -0.0115729953,-2.5293367269 C 0.17278633,-2.5378671353 0.3678424634,-2.5060875206 0.5287858173,-2.4388938199 C 0.6902835444,-2.3722595353 0.816215775,-2.2707197646 0.8776514166,-2.1551966585 C 0.9076208056,-2.0991861663 0.9226618234,-2.041663959 0.9227744701,-1.9826300366" />
      <path d="M 0.9227744701,-1.9826300366 Q 0.9226560158,-1.9017330187 0.8849524935,-1.8243123432" />
      <path d="M -0.0911444281,-1.4419184564 Q -0.15877538,-1.4491618793 -0.222113203,-1.463222146" />
      <path d="M -0.6765581709,-1.8243122302 L -0.6772255926,-1.8419030592" />
      <path d="M -0.6772255926,-1.8419030592 C -0.6781204865,-1.9564061662 -0.5893666286,-2.0699676558 -0.4367769102,-2.1461021568 C -0.2854390762,-2.2229970554 -0.0725288999,-2.2611481822 0.1400305239,-2.2460016447 C 0.3468357881,-2.2322618457 0.5504342549,-2.1682562237 0.6945283705,-2.0684852985 C 0.8397727308,-1.969383539 0.9235791179,-1.8356909432 0.9227744259,-1.701176401" />
      <path d="M 0.9227744259,-1.701176401 L 0.9223171493,-1.6835855717" />
      <path d="M -0.6765581904,-1.5428592615 L -0.6772256121,-1.5604500951" />
      <path d="M -0.6772256121,-1.5604500951 C -0.6770436139,-1.6158169136 -0.6579603612,-1.6690193411 -0.6199758539,-1.7200573776 C -0.5520180749,-1.8115325033 -0.4226434487,-1.8879006189 -0.2607237006,-1.9298194459 C -0.0992968882,-1.9722746464 0.0933049133,-1.9798357204 0.2741015968,-1.9485154622 C 0.4550927555,-1.9177953492 0.6227454174,-1.848369397 0.7396464115,-1.7534305607 C 0.8573402438,-1.6588808814 0.9232884657,-1.5395339828 0.9227743862,-1.4197230769" />
      <path d="M -0.6772255708,-1.2789966517 C -0.678074531,-1.3919388057 -0.5918140733,-1.5040009832 -0.4429110018,-1.5800716333 C -0.2952085387,-1.6568559435 -0.0869573064,-1.6964038918 0.1227744342,-1.68417199 C 0.3325061743,-1.6729493672 0.54075742,-1.6099470046 0.688459875,-1.5097083263 C 0.8373629396,-1.41018332 0.9236233662,-1.2746665542 0.9227744071,-1.1382699244" />
      <path d="M 0.9227744071,-1.1382699244 L 0.9223171303,-1.120679095" />
      <path d="M -0.6765581967,-0.9799523976 L -0.6772256194,-0.9975432271" />
      <path d="M -0.6772256194,-0.9975432271 C -0.6779622091,-1.106398048 -0.5980498777,-1.2145188801 -0.4586732082,-1.2902464492 C -0.3203672858,-1.3665754928 -0.1242929747,-1.4094442658 0.0775712543,-1.4044914363 C 0.2793522557,-1.4004129151 0.4844571803,-1.3484299803 0.6385138077,-1.259326084 C 0.7935202144,-1.1708916245 0.8955908039,-1.0462823739 0.9176661285,-0.915535202 C 0.9210702574,-0.8960194922 0.9227730374,-0.8764465532 0.9227744684,-0.856816385" />
      <path d="M 0.9227744684,-0.856816385 L 0.92231719,-0.8392255629" />
      <path d="M -0.6765582104,-0.6984991764 L -0.6772256332,-0.7160900059" />
      <path d="M -0.6772256332,-0.7160900059 C -0.6787110889,-0.8468731978 -0.561633726,-0.9758503281 -0.3692423673,-1.0503666846 C -0.1786782566,-1.1262755423 0.0824093175,-1.1455024996 0.3175732068,-1.0959341503 C 0.4891282442,-1.0607100771 0.6452116294,-0.9904064314 0.7535831068,-0.8975021787 C 0.862644992,-0.8049180615 0.9232121875,-0.6903299554 0.9227743962,-0.575363392" />
      <path d="M 0.9227743962,-0.575363392 L 0.92231712,-0.5577725618" />
      <path d="M -0.6765581404,-0.417045968 L -0.677225561,-0.4346367969" />
      <path d="M -0.677225561,-0.4346367969 C -0.6760754257,-0.5243282412 -0.6287410746,-0.6054519761 -0.5352225078,-0.6780080017 C -0.3453701701,-0.8276759843 0.0368633603,-0.8869795755 0.3611044292,-0.8046688394 C 0.6884301781,-0.7282325117 0.9279507623,-0.5157124583 0.9227743511,-0.2939101338" />
      <path d="M 0.9227743511,-0.2939101338 L 0.9223170752,-0.2763193038" />
      <path d="M -0.6765581404,-0.1355926427 L -0.6772255609,-0.153183474" />
      <path d="M -0.6772255609,-0.153183474 C -0.6780745165,-0.2661257563 -0.5918141601,-0.3781877687 -0.4429111025,-0.4542584226 C -0.2952086554,-0.5310427348 -0.0869573937,-0.5705908232 0.1227743251,-0.5583589101 C 0.3325060447,-0.547136281 0.5407572741,-0.4841338486 0.6884597815,-0.3838952379 C 0.8373628999,-0.2843703004 0.9236233672,-0.1488535974 0.9227743961,-0.0124568764" />
      <path d="M -0.6765582105,0.1458605682 L -0.6772256333,0.1282697376" />
      <path d="M -0.6772256333,0.1282697376 C -0.6780745921,0.0153275019 -0.5918139862,-0.0967345751 -0.4429110254,-0.1728051485 C -0.2952086678,-0.2495893887 -0.0869576362,-0.2891375093 0.1227741492,-0.2769056539 C 0.3325059415,-0.2656830742 0.5407571859,-0.2026806264 0.6884595471,-0.1024420868 C 0.8373624689,-0.0029172524 0.9236234163,0.1325995302 0.9227744676,0.2689961122" />
      <path d="M 0.9227744676,0.2689961122 Q 0.9226560315,0.3498931974 0.8849525523,0.4273139861" />
      <path d="M -0.0911409107,0.809708188 Q -0.1587729831,0.8024648625 -0.2221118152,0.7884044725" />
      <path d="M -0.6765581971,0.4273137894 L -0.6772256198,0.4097229587" />
      <path d="M -0.6772256198,0.4097229587 C -0.6795374378,0.2625547818 -0.5296235191,0.1185914607 -0.2955203536,0.0500842217 C -0.0638348806,-0.0207657129 0.2428493998,-0.0128084282 0.4853478651,0.0772611226 C 0.7496858823,0.1715362223 0.9258413772,0.3586739055 0.9227744069,0.5504496549" />
      <path d="M 0.9227744069,0.5504496549 Q 0.9226559731,0.6313465019 0.8849525341,0.7087671072" />
      <path d="M -0.0911441601,1.0911611104 Q -0.1587756633,1.0839176757 -0.222113968,1.069857278" />
      <path d="M -0.6765581484,0.7087672119 L -0.6772255707,0.6911763828" />
      <path d="M -0.6772255707,0.6911763828 C -0.6782734149,0.5718612534 -0.5815888482,0.4536982368 -0.4174744482,0.3776039936 C -0.1911460424,0.2687116767 0.1626468018,0.2513142236 0.4451101581,0.344886398 C 0.7305429747,0.4344496534 0.9264589516,0.6302229901 0.9227743857,0.8319028083" />
      <path d="M 0.9227743857,0.8319028083 Q 0.922655947,0.9127997138 0.8849525133,0.9902203306" />
      <path d="M -0.0911443753,1.372614354 Q -0.1587763485,1.3653708426 -0.2221150697,1.3513102737" />
      <path d="M -0.6765581898,0.990220652 L -0.6772256114,0.9726298255" />
      <path d="M -0.6772256114,0.9726298255 C -0.6780745185,0.8596874274 -0.5918141918,0.7476253405 -0.4429112375,0.6715547708 C -0.2952088759,0.5947705169 -0.0869575482,0.555222323 0.1227741972,0.5674541754 C 0.332505945,0.5786767427 0.5407571101,0.6416792489 0.6884596502,0.7419178557 C 0.8373627977,0.8414427934 0.9236234031,0.9769593776 0.9227744255,1.113356132" />
      <path d="M 0.9227744255,1.113356132 L 0.922317149,1.1309469628" />
      <path d="M -0.6765581713,1.2716736207 L -0.677225593,1.2540827897" />
      <path d="M -0.677225593,1.2540827897 C -0.6780745694,1.1411404822 -0.5918139426,1.0290783589 -0.442910809,0.9530078528 C -0.2952082815,0.8762236783 -0.0869571389,0.8366756004 0.1227746181,0.8489074825 C 0.3325063733,0.8601300805 0.5407577062,0.9231327098 0.6884600522,1.0233713819 C 0.8373629826,1.1228963618 0.9236233648,1.2584129372 0.9227744706,1.3948097659" />
      <path d="M 0.9227744706,1.3948097659 Q 0.9227013837,1.4663840211 0.8930263036,1.5355362343" />
      <path d="M 0.8849525136,1.5531270404 Q 0.8345201876,1.6555392392 0.7266506456,1.7387619475" />
      <path d="M 0.7076025678,1.7529275042 L 0.6581838925,1.785666683" />
      <path d="M 0.3426107202,1.909934849 Q 0.2667905354,1.9272044955 0.1882059266,1.9354505362" />
      <path d="M -0.6772255566,1.5355360284 C -0.6806420558,1.3718373134 -0.4931486099,1.2134847768 -0.2165381222,1.1556327578 C 0.0571739527,1.0941026393 0.4037145714,1.1376079425 0.634941577,1.2717122795 C 0.815611328,1.3732931664 0.9240673317,1.5240232238 0.9227744155,1.67626285" />
      <path d="M 0.9223171385,1.6938536798 Q 0.918501938,1.7657454637 0.8849525346,1.8345802263" />
      <path d="M -0.0911443852,2.2169741694 Q -0.1587738,2.209730944 -0.2221103065,2.1956711813" />
      <path d="M -0.677225568,1.8169894288 C -0.6798336639,1.6649434229 -0.5192961465,1.5166480255 -0.2726360543,1.4508028302 C -0.0308573878,1.3829545556 0.2846878082,1.3994717438 0.5250624869,1.4999149434 C 0.767968767,1.5977717208 0.9252914964,1.7759533705 0.9227744519,1.9577159477" />
      <path d="M 0.9227744519,1.9577159477 Q 0.9226560088,2.038612868 0.8849525054,2.1160334896" />
      <path d="M -0.0911433151,2.4984275784 Q -0.158739712,2.4911879604 -0.2220478519,2.4771383149" />
      <path d="M -0.6765582173,2.1160334335 L -0.6772256431,2.0984426014" />
      <path d="M -0.6772256431,2.0984426014 C -0.6780745484,1.9855003935 -0.5918137194,1.8734380744 -0.4429108162,1.7973676614 C -0.2952084696,1.7205835386 -0.0869571908,1.68103548 0.1227745917,1.6932673282 C 0.33250637,1.7044898988 0.5407574117,1.7674924515 0.6884598092,1.8677311123 C 0.8373628098,1.9672561064 0.9236234345,2.1027726188 0.9227744708,2.2391693056" />
      <path d="M 0.9227744708,2.2391693056 Q 0.9226560296,2.3200662276 0.8849525077,2.3974868582" />
      <path d="M -0.6765581348,2.3974868269 L -0.6772255558,2.3798959969" />
      <path d="M -0.6772255558,2.3798959969 C -0.6780745294,2.2669537021 -0.5918140364,2.1548914646 -0.4429109043,2.0788209742 C -0.295208383,2.0020368112 -0.0869571623,1.9624888023 0.1227745586,1.9747206241 C 0.3325062781,1.9859431612 0.5407575537,2.0489457226 0.6884599869,2.1491844686 C 0.8373630297,2.2487095535 0.923623357,2.3842259967 0.9227744075,2.5206227555" />
      <path d="M 0.9227744075,2.5206227555 Q 0.9213460459,2.6743947308 0.7933030598,2.805834316" />
      <path d="M -0.6765580893,2.6789401074 L -0.6772255099,2.6613492771" />
      <path d="M -0.6772255099,2.6613492771 C -0.6820636844,2.4809258667 -0.4520241457,2.3089827981 -0.133289003,2.2665969524 C 0.1823485242,2.2187619998 0.5596503256,2.3059130073 0.7588530891,2.4844815672 C 0.8646362356,2.5762446427 0.923185013,2.6889860113 0.922774403,2.8020759588" />
      <path d="M 0.922774403,2.8020759588 Q 0.9227700825,2.8371955383 0.9155167247,2.8720242285" />
      <path d="M -0.6655943858,2.869655579 C -0.6182437826,2.7119490165 -0.393170272,2.5773123358 -0.1079701281,2.5447308528" />
      <line x1="0.5541284094" y1="2.3512237882" x2="0.5541284094" y2="2.39191342" />
      <path d="M 0.6879685355,-4.6060250677 L 0.6879685355,-4.5708434076" />
      <path d="M 0.6879685739,-4.5708433843 C 0.395474083,-4.7001410386 -0.0093916613,-4.6927683977 -0.262914694,-4.581413244" />
      <path d="M -0.262914694,-4.581413244 C -0.2546419099,-4.5825733952 -0.2576234241,-4.582124682 -0.2151387581,-4.5895905561 C -0.1955159674,-4.5930043058 -0.1521674381,-4.5995359627 -0.1066425908,-4.6019690901 C -0.0593085065,-4.6047520812 -0.0099154777,-4.6039151577 0.0415364957,-4.5994583198 C 0.2268362269,-4.5838228573 0.4223785548,-4.513762482 0.5541284094,-4.403654994" />
      <line x1="0.5541284094" y1="-4.4036551375" x2="0.5541284094" y2="-4.3629652787" />
      <line x1="0.5541284094" y1="-4.1222017567" x2="0.5541284094" y2="-4.0815120008" />
      <line x1="0.5541284094" y1="-3.8407486271" x2="0.5541284094" y2="-3.8000587417" />
      <line x1="0.5541284094" y1="-3.5592950923" x2="0.5541284094" y2="-3.5537871129" />
      <line x1="0.5541284094" y1="-3.2778416706" x2="0.5541284094" y2="-3.2723338167" />
      <line x1="0.5541284094" y1="-2.9963889204" x2="0.5541284094" y2="-2.9556989199" />
      <line x1="0.5541284094" y1="-2.7149355692" x2="0.5541284094" y2="-2.6436485944" />
      <line x1="0.5541284094" y1="-2.4334820577" x2="0.5541284094" y2="-2.3621953453" />
      <line x1="0.5541284094" y1="-2.1520286843" x2="0.5541284094" y2="-2.0807416091" />
      <line x1="0.5541284094" y1="-1.870575882" x2="0.5541284094" y2="-1.8650674543" />
      <line x1="0.5541284094" y1="-1.5891224223" x2="0.5541284094" y2="-1.5836141551" />
      <line x1="0.5541284094" y1="-1.548432495" x2="0.5541284094" y2="-1.5178352858" />
      <line x1="0.5541284094" y1="-1.3076690649" x2="0.5541284094" y2="-1.2363818555" />
      <line x1="0.5541284094" y1="-1.026215968" x2="0.5541284094" y2="-0.9855259489" />
      <line x1="0.5541284094" y1="-0.7447624649" x2="0.5541284094" y2="-0.7040726337" />
      <line x1="0.5541284094" y1="-0.4633091399" x2="0.5541284094" y2="-0.4578009835" />
      <line x1="0.5541284094" y1="-0.181855978" x2="0.5541284094" y2="-0.176347723" />
      <line x1="0.5541284094" y1="0.0995970892" x2="0.5541284094" y2="0.1402871823" />
      <line x1="0.5541284094" y1="0.3810509406" x2="0.5541284094" y2="0.4217405132" />
      <line x1="0.5541284094" y1="0.6625041459" x2="0.5541284094" y2="0.7031938235" />
      <line x1="0.5541284094" y1="0.9439571766" x2="0.5541284094" y2="0.9494654071" />
      <line x1="0.5541284094" y1="0.9846470672" x2="0.5541284094" y2="1.0152442137" />
      <line x1="0.5541284094" y1="1.22541046" x2="0.5541284094" y2="1.2309186308" />
      <line x1="0.5541284094" y1="1.5068638454" x2="0.5541284094" y2="1.5781506009" />
      <line x1="0.5541284094" y1="1.7883172303" x2="0.5541284094" y2="1.8290069187" />
      <line x1="0.5541284094" y1="2.0697702944" x2="0.5541284094" y2="2.1104601706" />
      <path d="M -0.262914694,-4.581413244 L -0.262914694,-4.6165949041" />
      <path d="M -0.262914694,-4.6165949041 C -0.2605418339,-4.6184444766 -0.2525382299,-4.6229942266 -0.2389038821,-4.6302441541 C -0.2290790839,-4.6350198306 -0.2101411323,-4.6454300771 -0.1618387473,-4.6624588756 C -0.0377663591,-4.7059407817 0.1243140331,-4.7222141029 0.2677004222,-4.7032786704" />
      <path d="M -0.3550528933,-4.1666839522 A 0.610556942922154,0.3629293393919772 0.0 0,1 -0.4575004317,-4.2797331964" />
      <path d="M -0.4877825215,-4.3926124261 A 0.610556942922154,0.3629293393919772 0.0 0,1 0.5414215935,-4.656789548" />
      <path d="M 0.6879685739,-4.6060250445 Q 0.5337191126,-4.6716211243 0.3539700916,-4.6928088513" />
      <path d="M 0.3539700916,-4.6928088513 C 0.1312671304,-4.7194420148 -0.0958598844,-4.6874148593 -0.262914694,-4.6165949041" />
      <path d="M 1.0597084487,3.0910065232 A 1.326176623509137,0.7883104294641045 0.0 0,1 -0.8141596059,4.2068132473 A 1.326176623509137,0.7883104294641045 0.0 0,1 1.0597084487,3.0910065232" />
      <path d="M -0.8046863718,2.9449866509 A 1.3770883117545685,0.8185735287481962 0.0 0,1 1.0502352146,2.9449866509" />
      <path d="M 1.0502352146,2.9449866509 A 1.3770883117545685,0.8185735287481962 0.0 0,1 1.0956771819,2.9707490025" />
      <line x1="-0.5493655533" y1="3.3830534524" x2="-0.4817931508" y2="3.2095997365" />
      <line x1="-0.3244765261" y1="4.0484456203" x2="-0.4196637306" y2="3.8046286375" />
      <line x1="0.5711917259" y1="4.0479834137" x2="0.6660397503" y2="3.8045150498" />
      <line x1="0.7941368247" y1="3.3823601425" x2="0.7265644222" y2="3.2092770124" />
      <path d="M -0.8046863718,2.9449866509 C -1.0135501702,3.0575663646 -1.1537535461,3.2044974797 -1.220754094,3.3506244892 C -1.2570924707,3.4298143017 -1.2753063679,3.5090651478 -1.2753957856,3.5883770276 C -1.2761130076,3.6702439235 -1.2575277269,3.7520450389 -1.2196399435,3.8337803738 C -1.1701431138,3.9422468532 -1.0827433144,4.0443164823 -0.9574405453,4.1399892611 C -0.7948803703,4.2620551181 -0.5665795055,4.3593495856 -0.3099237118,4.4096271766 C 0.0164749817,4.4751368454 0.3856507436,4.4627135725 0.6972462738,4.3762875693 C 0.8951308577,4.3222659826 1.0692310606,4.2396924808 1.2010943696,4.1413997856 C 1.2922709192,4.0728979531 1.3634036459,4.0000970613 1.4144925496,3.9229971102 C 1.4858725378,3.8138724893 1.5213562832,3.7041442587 1.5209437858,3.5938124184 C 1.5216857517,3.511951818 1.5031297314,3.4301565135 1.4652757249,3.3484265047 C 1.4028277806,3.2140969239 1.279362637,3.0793493488 1.0964508581,2.9711882978" />
      <path d="M 1.0502352146,2.9449866509 Q 1.0783452851,2.9604643334 1.0964508581,2.9711882978" />
      <line x1="-0.4240503522" y1="3.8101541149" x2="-0.2364112918" y2="3.5738001497" />
      <line x1="0.6695991949" y1="3.8089985984" x2="0.4814862916" y2="3.5720477709" />
      <line x1="0.4864612119" y1="2.6396513032" x2="1.0502352146" y2="2.9449866509" />
      <line x1="-0.3783795967" y1="2.7141024193" x2="-0.8046863718" y2="2.9449866509" />
      <line x1="0.7333313643" y1="2.714583782" x2="0.7333313643" y2="2.6432966456" />
      <path d="M 0.9227744106,-4.234256025 L 0.9227744106,-4.1990743649" />
      <path d="M -0.6772255604,-4.0935294757 L -0.6772255604,-4.0583478155" />
      <path d="M 0.9227744703,-3.9528028878 L 0.9227744703,-3.9176212277" />
      <path d="M -0.6772256024,-3.8120764291 L -0.6772256024,-3.776894769" />
      <path d="M 0.9227744787,-3.6713495238 L 0.9227744787,-3.6361678637" />
      <path d="M -0.677225553,-3.5306228558 L -0.677225553,-3.4954411957" />
      <path d="M 0.922774403,-3.389896227 L 0.922774403,-3.3547145669" />
      <path d="M -0.6772255098,-3.2491695479 L -0.6772255098,-3.2139878878" />
      <path d="M 0.9227744073,-3.108443023 L 0.9227744073,-3.0732613629" />
      <path d="M -0.6772255557,-2.9677162673 L -0.6772255557,-2.9325346071" />
      <path d="M 0.922774471,-2.8269895762 L 0.922774471,-2.7918079161" />
      <path d="M -0.6772256426,-2.6862628663 L -0.6772256426,-2.6510812062" />
      <path d="M 0.9227744523,-2.5455362181 L 0.9227744523,-2.510354558" />
      <path d="M -0.6772255679,-2.4048096979 L -0.6772255679,-2.3696280378" />
      <path d="M 0.9227744155,-2.2640831201 L 0.9227744155,-2.22890146" />
      <path d="M -0.677225556,-2.1233562981 L -0.677225556,-2.088174638" />
      <path d="M 0.9227744701,-1.9826300366 L 0.9227744701,-1.9474483765" />
      <path d="M -0.6772255926,-1.8419030592 L -0.6772255926,-1.8067213991" />
      <path d="M 0.9227744259,-1.701176401 L 0.9227744259,-1.6659947409" />
      <path d="M -0.6772256121,-1.5604500951 L -0.6772256121,-1.525268435" />
      <path d="M 0.9227743862,-1.4197230769 L 0.9227743862,-1.3845414168" />
      <path d="M -0.6772255708,-1.2789966517 L -0.6772255708,-1.2438149916" />
      <path d="M 0.9227744071,-1.1382699244 L 0.9227744071,-1.1030882643" />
      <path d="M -0.6772256194,-0.9975432271 L -0.6772256194,-0.962361567" />
      <path d="M 0.9227744684,-0.856816385 L 0.9227744684,-0.8216347249" />
      <path d="M -0.6772256332,-0.7160900059 L -0.6772256332,-0.6809083457" />
      <path d="M 0.9227743962,-0.575363392 L 0.9227743962,-0.5401817319" />
      <path d="M -0.677225561,-0.4346367969 L -0.677225561,-0.3994551367" />
      <path d="M 0.9227743511,-0.2939101338 L 0.9227743511,-0.2587284737" />
      <path d="M -0.6772255609,-0.153183474 L -0.6772255609,-0.1180018139" />
      <path d="M 0.9227743961,-0.0124568764 L 0.9227743961,0.0227247837" />
      <path d="M -0.6772256333,0.1282697376 L -0.6772256333,0.1634513977" />
      <path d="M 0.9227744676,0.2689961122 L 0.9227744676,0.3041777723" />
      <path d="M -0.6772256198,0.4097229587 L -0.6772256198,0.4449046188" />
      <path d="M 0.9227744069,0.5504496549 L 0.9227744069,0.585631315" />
      <path d="M -0.6772255707,0.6911763828 L -0.6772255707,0.7263580429" />
      <path d="M 0.9227743857,0.8319028083 L 0.9227743857,0.8670844684" />
      <path d="M -0.6772256114,0.9726298255 L -0.6772256114,1.0078114856" />
      <path d="M 0.9227744255,1.113356132 L 0.9227744255,1.1485377921" />
      <path d="M -0.677225593,1.2540827897 L -0.677225593,1.2892644498" />
      <path d="M 0.9227744706,1.3948097659 L 0.9227744706,1.429991426" />
      <path d="M -0.6772255566,1.5355360284 L -0.6772255566,1.5707176885" />
      <path d="M 0.9227744155,1.67626285 L 0.9227744155,1.7114445102" />
      <path d="M -0.677225568,1.8169894288 L -0.677225568,1.8521710889" />
      <path d="M 0.9227744519,1.9577159477 L 0.9227744519,1.9928976078" />
      <path d="M -0.6772256431,2.0984426014 L -0.6772256431,2.1336242615" />
      <path d="M 0.9227744708,2.2391693056 L 0.9227744708,2.2743509657" />
      <path d="M -0.6772255558,2.3798959969 L -0.6772255558,2.415077657" />
      <path d="M 0.9227744075,2.5206227555 L 0.9227744075,2.5558044156" />
      <path d="M -0.6772255099,2.6613492771 L -0.6772255099,2.6965309372" />
      <path d="M 0.922774403,2.8020759588 L 0.922774403,2.8372576189" />
      <line x1="-0.4877825215" y1="-3.8995685908" x2="-0.4877825215" y2="-3.9708554496" />
      <line x1="-0.4877825215" y1="-3.6181153211" x2="-0.4877825215" y2="-3.6894021006" />
      <line x1="-0.4877825215" y1="-3.3366618752" x2="-0.4877825215" y2="-3.4079487308" />
      <line x1="0.7333313643" y1="-2.3515751347" x2="0.7333313643" y2="-2.4228624629" />
      <line x1="-0.4877825215" y1="-1.9293956826" x2="-0.4877825215" y2="-2.000682591" />
      <line x1="0.7333313643" y1="-2.0701224789" x2="0.7333313643" y2="-2.1414094314" />
      <line x1="-0.4877825215" y1="-1.6479424195" x2="-0.4877825215" y2="-1.7192290544" />
      <line x1="0.7333313643" y1="-1.7886690244" x2="0.7333313643" y2="-1.8599555722" />
      <line x1="0.7333313643" y1="-0.6628559003" x2="0.7333313643" y2="-0.7341426046" />
      <line x1="0.7333313643" y1="-0.3814024204" x2="0.7333313643" y2="-0.45268924" />
      <line x1="0.7333313643" y1="0.4629575246" x2="0.7333313643" y2="0.3916705497" />
      <line x1="0.7333313643" y1="0.7444107047" x2="0.7333313643" y2="0.6731236316" />
      <line x1="0.7333313643" y1="1.0258637416" x2="0.7333313643" y2="0.954576863" />
      <line x1="0.7333313643" y1="1.3073169936" x2="0.7333313643" y2="1.2360304173" />
      <line x1="-0.4877825215" y1="-4.1810217474" x2="-0.4877825215" y2="-4.3341545816" />
      <line x1="-0.4877825215" y1="-4.3693362418" x2="-0.4877825215" y2="-4.3926124261" />
      <path d="M 0.2677004214,-4.7032786706 L 0.3539700916,-4.6928088513" />
    </g>
  </g>
</svg>