<?xml version='1.0' encoding='utf-8'?>
<svg width="295.0608906999mm" height="513.0000000018mm" viewBox="-2.9629469541 -5.0351719894 6.0538247234 10.5253260632" version="1.1" xmlns="http://www.w3.org/2000/svg">
  <g transform="scale(1,-1)" stroke-linecap="round">
    <g fill="none" stroke="rgb(64,192,64)" stroke-width="0.020517204801489212" id="Visible">
      <path d="M 0.7898719255,3.9152304898 A 0.2310000000000002,0.13693969357031038 -180.0 0,0 1.1219470255,3.7920954306" />
      <path d="M 1.1219470255,3.7920954306 A 0.2310000000000002,0.13693969357031038 -180.0 0,0 1.0985688293,3.7320654809" />
      <path d="M 1.0985688293,3.7320654809 A 0.6603936672733212,0.39148963823455424 0.0 0,1 1.0317341422,3.5604490366" />
      <path d="M 1.0317341422,3.5604490366 A 0.6603936672733212,0.39148963823455424 0.0 0,1 1.3223431953,3.2360884058" />
      <path d="M 1.3223431953,3.2360884058 A 0.2310000000000002,0.1369396935703104 -180.0 0,0 1.4239957317,3.1226298591" />
      <path d="M 1.4239957317,3.1226298591 A 0.2310000000000002,0.1369396935703104 -180.0 0,0 1.2091103398,2.9860237795" />
      <path d="M 1.2091103398,2.9860237795 A 0.6603936672733212,0.39148963823455435 2.4683307181147205e-15 0,1 0.5964366748,2.6231515619" />
      <path d="M 0.5964366748,2.6231515619 A 0.2310000000000002,0.13693969357031038 -180.0 0,0 0.1745069156,2.5562519445" />
      <path d="M 0.1745069156,2.5562519445 A 0.6603936672733212,0.39148963823455424 5.9239937234753294e-15 0,1 -0.6619411155,2.689356802" />
      <path d="M -0.6619411155,2.689356802 A 0.2310000000000002,0.13693969357031038 180.0 0,0 -0.9940162154,2.8124918612" />
      <path d="M -0.9940162154,2.8124918612 A 0.2310000000000002,0.13693969357031038 180.0 0,0 -0.9706380193,2.8725218109" />
      <path d="M -0.9706380193,2.8725218109 A 0.6603936672733212,0.39148963823455424 3.949329148983553e-15 0,1 -0.9038033322,3.0441382552" />
      <path d="M -0.9038033322,3.0441382552 A 0.6603936672733212,0.39148963823455424 3.949329148983553e-15 0,1 -1.1944123853,3.368498886" />
      <path d="M -1.1944123853,3.368498886 A 0.2310000000000002,0.13693969357031036 180.0 0,0 -1.2960649217,3.4819574327" />
      <path d="M -1.2960649217,3.4819574327 A 0.2310000000000002,0.13693969357031036 180.0 0,0 -1.0811795298,3.6185635123" />
      <path d="M -1.0811795298,3.6185635123 A 0.6603936672733212,0.39148963823455435 1.4809984308688324e-15 0,1 -0.4685058648,3.98143573" />
      <path d="M -0.4685058648,3.98143573 A 0.2310000000000002,0.13693969357031038 180.0 0,0 -0.0465761056,4.0483353473" />
      <path d="M -0.0465761056,4.0483353473 A 0.6603936672733212,0.39148963823455435 0.0 0,1 0.7898719255,3.9152304898" />
      <line x1="1.3223431953" y1="3.2360884058" x2="1.3223431953" y2="3.0091713124" />
      <line x1="-0.4685058648" y1="3.98143573" x2="-0.4685058648" y2="2.7247050533" />
      <path d="M -0.3755967881,2.7288190734 A 0.2310000000000002,0.13693969357031038 180.0 0,0 -0.0465761056,2.6953633201" />
      <path d="M -0.0465761056,2.6953633201 A 0.6603936672733212,0.39148963823455435 0.0 0,1 -0.0042121038,2.6620985138" />
      <path d="M 0.1321429138,2.5895167508 A 0.6603936672733212,0.39148963823455435 0.0 0,1 0.5035275981,2.5227961912" />
      <path d="M -0.6467490664,1.0723557228 A 1.0500000000000003,0.6224531525923196 1.9746645744917764e-15 0,1 0.7746798764,1.0723557228" />
      <path d="M -0.9301309166,1.1027908433 C -0.8937868525,1.0731151444 -0.8538938476,1.0452232763 -0.8104519019,1.0191152389 C -0.481666323,0.8168931495 0.0522060981,0.7470430908 0.4940298157,0.8484415568 C 0.8531498986,0.9264422069 1.1400389031,1.1099363639 1.2439327953,1.3281509154" />
      <path d="M -1.1174188482,1.3289232638 A 1.2293670613173628,0.7287841933429978 1.9746645744917764e-15 0,1 -0.9256945823,1.098190947" />
      <path d="M -0.9256945823,1.098190947 L -0.9301309166,1.1027908433" />
      <path d="M -0.9301309166,1.1027908433 C -0.7034067746,0.9351745687 -0.3183419665,0.8399296369 0.0713126967,0.8631790776 C 0.4609996082,0.8832346518 0.8437058441,1.0217443321 1.0666223222,1.2314969261" />
      <path d="M 0.9328659169,-4.5121291137 C 0.7123939296,-4.6599672903 0.4044679291,-4.7542422134 0.0916881624,-4.7740261292 C -0.3912098589,-4.8090191682 -0.8649039362,-4.6567907757 -1.0574609935,-4.4191027641 C -1.1289843216,-4.3331282599 -1.1649645434,-4.242607391 -1.165401659,-4.1475401574" />
      <path d="M -1.161805836,-4.0967431415 Q -1.1508112273,-4.0195992147 -1.1074667025,-3.9462050353" />
      <path d="M -1.0730484053,-3.895408012 Q -1.0103704173,-3.8137151671 -0.9099576901,-3.7448699458" />
      <path d="M -0.8269446917,-3.6940729093 Q -0.6333976217,-3.5884599078 -0.3718740323,-3.5435347926" />
      <path d="M 0.2889999363,-3.543534783 Q 0.5554935177,-3.5873110433 0.7767767618,-3.6940728794" />
      <path d="M 0.8719089427,-3.7448699287 Q 0.9875400297,-3.8126617037 1.0749222588,-3.8954080689" />
      <path d="M 1.125996417,-4.7497860132 Q 1.0455906645,-4.8396972656 0.9328659169,-4.9147993417" />
      <path d="M 0.9328659169,-4.1094588786 C 0.611456168,-4.3277609061 0.0990489673,-4.42195089 -0.3339122575,-4.3548841712 C -0.7497967574,-4.2958952244 -1.0731932152,-4.0951866286 -1.1462119093,-3.8617961282 C -1.158989067,-3.8231729091 -1.1653856383,-3.7841974962 -1.165401623,-3.7448698896" />
      <path d="M -1.1618058456,-3.6940728963 Q -1.1508087946,-3.6169224484 -1.107466744,-3.5435348346" />
      <path d="M -1.0730483899,-3.4927377634 Q -1.0103558855,-3.4110313622 -0.9099576653,-3.342199679" />
      <path d="M -0.8269447391,-3.2914026619 Q -0.6333190826,-3.1857668058 -0.3718742557,-3.1408645881" />
      <path d="M 0.2889998922,-3.1408645676 Q 0.5554603119,-3.1846297618 0.7767768301,-3.2914026447" />
      <path d="M 0.8719089445,-3.3421996475 Q 0.9875255766,-3.4099805997 1.0749222584,-3.492737789" />
      <path d="M 1.1244211989,-3.5435348068 Q 1.189057127,-3.6155503302 1.229703639,-3.6940729597" />
      <path d="M 1.2794648634,-3.827414456 Q 1.2874083456,-3.8612679759 1.2908071296,-3.8954078755" />
      <path d="M 1.1259964496,-4.3471157202 Q 1.0455664677,-4.4370473004 0.9328659169,-4.5121291137" />
      <path d="M 0.9328659169,-3.7067886038 C 0.5930926454,-3.9382960801 0.039071382,-4.0285383384 -0.4077164494,-3.9397759266 C -0.6306191674,-3.8977255548 -0.8250638309,-3.8155546982 -0.9585761275,-3.7090542537 C -1.0928283636,-3.6028418293 -1.1658310771,-3.4726693453 -1.1654016326,-3.3421996428" />
      <path d="M -1.1618058389,-3.2914026392 Q -1.1508214112,-3.2142885305 -1.1074667381,-3.1408645505" />
      <path d="M -1.0730484276,-3.0900674799 Q -1.0103353193,-3.008342142 -0.9099576242,-2.9395294471" />
      <path d="M -0.8269446988,-2.8887324307 Q -0.6334326236,-2.7831355531 -0.3718742651,-2.7381943381" />
      <path d="M 0.2889997871,-2.7381943272 Q 0.5553963287,-2.7819377114 0.7767768612,-2.8887323936" />
      <path d="M 0.8719089272,-2.9395293918 Q 0.9875889655,-3.0073578844 1.074922245,-3.0900674943" />
      <path d="M 1.1244212213,-3.1408645471 Q 1.1890687715,-3.2128973866 1.2297036506,-3.2914026718" />
      <path d="M 1.2794648474,-3.4247442426 Q 1.2874084407,-3.4585985197 1.2908071133,-3.4927377667" />
      <path d="M 1.293332465,-3.543534834 C 1.2946392106,-3.7514994831 1.1619189673,-3.9581046412 0.9328659169,-4.1094588786" />
      <path d="M 0.9328659169,-3.3041183199 C 0.6428558744,-3.50015901 0.1983561861,-3.5981146905 -0.2042429173,-3.564185686 C -0.4544238588,-3.5447182807 -0.6859958281,-3.4771887285 -0.855613118,-3.3767042091 C -1.0260776554,-3.2766642623 -1.1339915259,-3.1441102512 -1.1591820061,-3.0062961967 C -1.1633266939,-2.9841062656 -1.1653999061,-2.9618506712 -1.1654016428,-2.9395294135" />
      <path d="M -1.1618058335,-2.8887323891 Q -1.1508106585,-2.8115872173 -1.10746675,-2.7381943151" />
      <path d="M -1.0730484325,-2.6873972644 Q -1.0103560628,-2.6056910219 -0.9099576139,-2.5368591523" />
      <path d="M -0.8269446776,-2.4860621603 Q -0.6333923028,-2.3804493779 -0.3718742025,-2.3355240693" />
      <path d="M 0.2889997127,-2.3355240753 Q 0.5554100696,-2.3792736964 0.7767767815,-2.4860621525" />
      <path d="M 0.8719089238,-2.5368591479 Q 0.9875260038,-2.6046403313 1.0749222686,-2.6873972342" />
      <path d="M 1.1244212574,-2.7381943026 Q 1.189077627,-2.8102400835 1.2297036522,-2.888732395" />
      <path d="M 1.253109561,-2.9395294806 Q 1.283177915,-3.0137159352 1.2908071145,-3.090067473" />
      <path d="M 1.2933324794,-3.1408646124 C 1.2946522705,-3.3488117965 1.1619148149,-3.5554348319 0.9328659169,-3.7067886038" />
      <path d="M 0.9328659169,-2.9014480663 C 0.6720531663,-3.0770760693 0.2873319265,-3.1753725014 -0.0807019351,-3.167471288 C -0.5586788403,-3.1622618196 -0.9841360307,-2.9744756699 -1.1149059539,-2.7251530243 C -1.1484754488,-2.6638348147 -1.1653073517,-2.601070208 -1.1654016625,-2.5368592043" />
      <path d="M -1.161805835,-2.486062123 Q -1.1508130477,-2.4089234764 -1.1074667533,-2.3355240806" />
      <path d="M -1.0730484577,-2.284727025 Q -1.010343078,-2.2030091637 -0.9099576474,-2.1341889212" />
      <path d="M -0.8269446508,-2.0833919045 Q -0.6333865101,-1.9777799974 -0.3718741713,-1.9328538269" />
      <path d="M 0.2889995533,-1.9328538169 Q 0.555488795,-1.976624343 0.776776713,-2.083391896" />
      <path d="M 0.8719089586,-2.1341889371 Q 0.987536978,-2.2019782386 1.0749222263,-2.284726957" />
      <path d="M 1.1244212826,-2.3355240662 Q 1.1890658433,-2.4075527003 1.2297036514,-2.4860621232" />
      <path d="M 1.2531095736,-2.5368592181 Q 1.2831792388,-2.6110493294 1.2908070973,-2.6873971653" />
      <path d="M 1.2933324654,-2.7381943587 C 1.2946417702,-2.9461597275 1.1619229889,-3.1527546677 0.9328659169,-3.3041183199" />
      <path d="M 0.9328659169,-2.4987778501 C 0.5905957043,-2.7320924809 0.0308149342,-2.8216941756 -0.4176268096,-2.7298546634 C -0.8633300661,-2.6460989482 -1.171271749,-2.3949367117 -1.1654016544,-2.1341889916" />
      <path d="M -1.1618058143,-2.0833918631 Q -1.1508192173,-2.0062716092 -1.1074667259,-1.9328537957" />
      <path d="M -1.073048458,-1.8820567891 Q -1.0103322977,-1.8003285325 -0.9099576954,-1.7315186853" />
      <path d="M -0.8269446697,-1.6807216305 Q -0.6334779988,-1.5751394175 -0.3718742178,-1.5301836009" />
      <path d="M 0.2889996537,-1.5301835512 Q 0.555427586,-1.5739366674 0.7767766647,-1.6807216357" />
      <path d="M 0.8719089584,-1.7315187237 Q 0.987568984,-1.7993321276 1.0749222408,-1.8820567476" />
      <path d="M 1.1244212609,-1.9328538487 Q 1.1890618465,-2.0048770632 1.229703687,-2.0833918938" />
      <path d="M 1.2531095833,-2.1341889281 Q 1.2831837464,-2.2083979648 1.2908071157,-2.2847270606" />
      <path d="M 1.2933324624,-2.335524109 C 1.2947124902,-2.5433385993 1.1618808071,-2.7501562129 0.9328659169,-2.9014480663" />
      <path d="M 0.9328659169,-2.0961076473 C 0.6570594732,-2.2821876758 0.2420680395,-2.3806648086 -0.1443932583,-2.3600063472 C -0.5916110296,-2.3407320049 -0.9804630663,-2.162001565 -1.110203795,-1.9281669542 C -1.1468819815,-1.8642963038 -1.1652812714,-1.7987469114 -1.1654016644,-1.7315187771" />
      <path d="M -1.1618058346,-1.6807216614 Q -1.1508076302,-1.6035680048 -1.1074666951,-1.5301835503" />
      <path d="M -1.0730484351,-1.4793865519 Q -1.0103673862,-1.3976906587 -0.9099577278,-1.3288484518" />
      <path d="M -0.8269447188,-1.2780513758 Q -0.6332502527,-1.1723932542 -0.3718741907,-1.1275133496" />
      <path d="M 0.2889997784,-1.1275133268 Q 0.5553614425,-1.1712459735 0.7767766873,-1.2780513998" />
      <path d="M 0.8719089605,-1.3288484813 Q 0.987606946,-1.3966904858 1.074922231,-1.4793865146" />
      <path d="M 1.1244212393,-1.5301835984 Q 1.1890591857,-1.6022030681 1.2297036858,-1.6807216399" />
      <path d="M 1.2531095903,-1.7315186785 Q 1.2831840187,-1.8057288133 1.2908071102,-1.8820567045" />
      <path d="M 1.2933324632,-1.9328538225 C 1.2947040324,-2.1406828926 1.1618918948,-2.3474719478 0.9328659169,-2.4987778501" />
      <path d="M 0.9328659169,-1.693437427 C 0.6253800464,-1.9018323626 0.143483767,-1.9981487038 -0.2769836211,-1.9463866648 C -0.6892972323,-1.9004102552 -1.0253168911,-1.7170799777 -1.1273295677,-1.4928223484 C -1.1526569908,-1.4391115843 -1.1653476858,-1.384453627 -1.1654016527,-1.3288484764" />
      <path d="M -1.1618058481,-1.2780513217 Q -1.1508128868,-1.200912426 -1.1074667088,-1.1275133005" />
      <path d="M -1.0730484238,-1.0767162515 Q -1.0103486685,-0.9950037441 -0.9099576366,-0.926178248" />
      <path d="M -0.8269447085,-0.8753811421 Q -0.6333999683,-0.7697721276 -0.3718740412,-0.724843047" />
      <path d="M 0.2889998328,-0.7248430921 Q 0.5554524496,-0.7686043566 0.7767766534,-0.8753811598" />
      <path d="M 0.8719089433,-0.9261782295 Q 0.9875336988,-0.99396688 1.074922082,-1.0767164692" />
      <path d="M 1.1244215393,-1.1275129832 Q 1.1890679122,-1.1995425579 1.2297035869,-1.2780516388" />
      <path d="M 1.2531090898,-1.3288495854 Q 1.2831798524,-1.4030480262 1.2908071188,-1.4793865616" />
      <path d="M 1.2933324366,-1.5301835976 C 1.2946416029,-1.7381463412 1.1619193274,-1.9447512061 0.9328659169,-2.0961076473" />
      <path d="M 0.9328659169,-1.2907671736 C 0.6160472456,-1.5057985995 0.1137412982,-1.6007710412 -0.3152540917,-1.5388521459 C -0.6831539631,-1.4898044958 -0.9854752695,-1.331455564 -1.103722084,-1.1337348359 C -1.1446993044,-1.0665082018 -1.1652591674,-0.9973226527 -1.1654016729,-0.9261781885" />
      <path d="M -1.1618058611,-0.8753812638 Q -1.1508117132,-0.7982387744 -1.1074666926,-0.7248431158" />
      <path d="M -1.0730483947,-0.6740460674 Q -1.0103583623,-0.5923421597 -0.9099576404,-0.5235079697" />
      <path d="M -0.8269446101,-0.4727108781 Q -0.633557333,-0.3671568889 -0.3718740728,-0.3221727811" />
      <path d="M 0.2889998816,-0.32217286 Q 0.5554888068,-0.365947965 0.7767767495,-0.4727109415" />
      <path d="M 0.8719088822,-0.5235079515 Q 0.9875322706,-0.5912939814 1.0749222571,-0.6740460724" />
      <path d="M 1.1244212051,-0.7248430737 Q 1.1890674099,-0.7968738744 1.2297036697,-0.8753812026" />
      <path d="M 1.2531095324,-0.9261782011 Q 1.2831802745,-1.0003732001 1.2908071088,-1.0767161895" />
      <path d="M 1.2933324631,-1.127513281 C 1.2946403024,-1.3354778552 1.1619271402,-1.5420708413 0.9328659169,-1.693437427" />
      <path d="M 0.9328659169,-0.8880968941 C 0.6737748598,-1.062522181 0.2925654086,-1.1607371875 -0.0733071983,-1.1542379549 C -0.5121548197,-1.1504398177 -0.9115664987,-0.9942268971 -1.0742843232,-0.7740214197 C -1.1347288971,-0.6940127526 -1.1651013421,-0.6105082475 -1.1654016583,-0.5235079043" />
      <path d="M -1.1618058342,-0.4727108892 Q -1.1508154736,-0.3955789403 -1.1074667285,-0.3221728644" />
      <path d="M -1.073048405,-0.2713758189 Q -1.0103389763,-0.1896538228 -0.9099576252,-0.1208377542" />
      <path d="M -0.8269446234,-0.0700407032 Q -0.6333438044,0.0355864467 -0.3718742061,0.0804974395" />
      <path d="M 0.2889997827,0.0804973677 Q 0.5554742266,0.0367310386 0.7767767651,-0.0700406943" />
      <path d="M 0.8719088766,-0.1208376827 Q 0.9875299671,-0.1886218615 1.0749222708,-0.2713758285" />
      <path d="M 1.1244212016,-0.3221728227 Q 1.1890732378,-0.3942121295 1.2297036639,-0.4727109547" />
      <path d="M 1.2531095444,-0.5235079659 Q 1.2831785049,-0.5976966575 1.2908071255,-0.6740459637" />
      <path d="M 1.2933324818,-0.724843057 C 1.2946538534,-0.9327808068 1.1619215904,-1.1394092083 0.9328659169,-1.2907671736" />
      <path d="M 0.9328659169,-0.4854266094 C 0.7446333261,-0.6113535481 0.4929128457,-0.6991241651 0.2285321025,-0.7337904805 C -0.0356700582,-0.76923742 -0.3114321626,-0.7515285829 -0.5430628249,-0.6870102246 C -0.9224288961,-0.5845481327 -1.1693842231,-0.355658672 -1.165401649,-0.1208376705" />
      <path d="M -1.1618058537,-0.0700406635 Q -1.1508102569,0.0071057888 -1.1074667305,0.0804973959" />
      <path d="M -1.0730484203,0.1312944232 Q -1.0103585842,0.2129982706 -0.9099576524,0.2818324944" />
      <path d="M -0.8269446907,0.3326295089 Q -0.633572216,0.4381834932 -0.3718743144,0.4831676816" />
      <path d="M 0.2889997504,0.4831676583 Q 0.5553522276,0.4394364852 0.7767767207,0.3326295463" />
      <path d="M 0.8719088605,0.2818325549 Q 0.987556439,0.2140293306 1.0749222576,0.1312944366" />
      <path d="M 1.1244211293,0.0804975124 Q 1.1890676953,0.008466135 1.2297036568,-0.0700406846" />
      <path d="M 1.2531095571,-0.1208377171 Q 1.2831805194,-0.1950329997 1.290807113,-0.2713757948" />
      <path d="M 1.293332464,-0.3221728359 C 1.2946413016,-0.530143257 1.1619128882,-0.7367435638 0.9328659169,-0.8880968941" />
      <path d="M 0.9328659169,-0.08275634 C 0.5689550831,-0.3318282469 -0.0415962749,-0.414782717 -0.5016856601,-0.2951990636 C -0.9034221813,-0.1982082768 -1.1700300793,0.0384769038 -1.1654016572,0.2818325116" />
      <path d="M -1.1618058273,0.3326296551 Q -1.1508142512,0.4097646265 -1.1074667414,0.4831676733" />
      <path d="M -1.073048418,0.5339647386 Q -1.0103772723,0.6156505872 -0.9099576244,0.6845027704" />
      <path d="M -0.8269447031,0.7352997659 Q -0.6654533489,0.823581028 -0.4534327714,0.8701012393" />
      <path d="M 0.4788241404,0.8451399316 Q 0.6384879998,0.8023473356 0.7767764856,0.735299718" />
      <path d="M 0.8719086967,0.6845026973 Q 0.9875276066,0.6167179262 1.074922242,0.5339646771" />
      <path d="M 1.1244217177,0.4831682021 Q 1.1890692509,0.4111365555 1.2297034083,0.332629086" />
      <path d="M 1.2531088556,0.2818312124 Q 1.2831796231,0.2076340514 1.2908071179,0.1312944268" />
      <path d="M 1.2933324649,0.0804973917 C 1.2946495431,-0.1274439637 1.1619184151,-0.3340763019 0.9328659169,-0.4854266094" />
      <path d="M 0.9328659169,0.3199139048 C 0.7364515189,0.1884293563 0.4706436362,0.0986890437 0.1937459543,0.067236495 C -0.082989745,0.0348528391 -0.3694465814,0.0607712604 -0.6029407239,0.1361946965 C -0.9492807548,0.2451799406 -1.1686530516,0.4626220576 -1.1654016527,0.6845027342" />
      <path d="M -1.1618058227,0.7352998298 Q -1.1508167405,0.8124273105 -1.1074667496,0.8858379219" />
      <path d="M -1.0730484439,0.9366349883 Q -1.0104289966,1.0182417894 -0.9102263475,1.0869891303" />
      <path d="M 0.9585287003,1.0315097379 Q 1.0221541618,0.9866611865 1.0749210583,0.9366338145" />
      <path d="M 1.1244192605,0.8858357531 Q 1.1890718202,0.8137970312 1.2297038384,0.7353001756" />
      <path d="M 1.2531098484,0.6845034568 Q 1.2831780912,0.6103139478 1.290806623,0.5339597415" />
      <path d="M 1.2933322722,0.4831683186 C 1.2946452166,0.2752166231 1.1619224396,0.068600459 0.9328659169,-0.08275634" />
      <path d="M 0.9328659169,0.7225841301 C 0.5750787849,0.4779895477 -0.020947043,0.3929546786 -0.4782209105,0.504490554 C -0.8923958938,0.5980803776 -1.1703360023,0.8388684975 -1.1654016517,1.087172994" />
      <path d="M -1.1618058242,1.1379700016 Q -1.1508128028,1.2151088283 -1.1074667367,1.2885081352" />
      <path d="M 1.1773425747,1.2229229414 Q 1.2072780101,1.1813387253 1.2297036528,1.1379700591" />
      <path d="M 1.253109336,1.0871735162 Q 1.2831794919,1.0129816121 1.2908071168,0.936634896" />
      <path d="M 1.2933324629,0.8858378868 C 1.2946349328,0.6778632844 1.1619314311,0.471286247 0.9328659169,0.3199139048" />
      <path d="M -0.9256945823,1.098190947 Q -1.0742004876,1.205262098 -1.1324529563,1.3371185299" />
      <path d="M 1.2892726,1.3528661673 L 1.2908053563,1.3392873951" />
      <path d="M 1.2933312722,1.2885105684 C 1.2946405315,1.0805415392 1.1619153317,0.8739352064 0.9328659169,0.7225841301" />
      <path d="M 1.1241457278,-5.1536662324 C 1.4036271647,-4.9726851265 1.5655609078,-4.7242909188 1.5639655329,-4.4742466658" />
      <path d="M 1.5639655329,-4.4742466658 Q 1.5633011675,-4.2781179726 1.4418267776,-4.0967433509" />
      <path d="M 1.2876920727,-3.9204838598 Q 1.2463555234,-3.8828656036 1.1996649448,-3.8477324357" />
      <path d="M 1.1513574724,-3.8130332421 Q 1.0659446385,-3.7544761284 0.9669584882,-3.7049381083" />
      <path d="M -0.9841200812,-3.6878607964 Q -1.0680392156,-3.7314597962 -1.1382146078,-3.7821921503" />
      <path d="M -1.1612663573,-3.7993373095 C -1.3392315573,-3.9349485231 -1.4366481645,-4.1036856448 -1.4360346568,-4.2729115978" />
      <path d="M -1.4360346568,-4.2729115978 C -1.4417638518,-4.5769755437 -1.1121774298,-4.8724072615 -0.6173223707,-4.994667004 C -0.1276718545,-5.1229785176 0.5013052904,-5.0702758238 0.9450943112,-4.8516352187 C 1.3296211002,-4.6683847989 1.5671770904,-4.3720103967 1.5639654466,-4.0715767325" />
      <path d="M 1.5639654466,-4.0715767325 Q 1.5630932456,-3.8612003101 1.4242222563,-3.6689061968" />
      <path d="M 1.2876920799,-3.5178135282 Q 1.2463555557,-3.4801952851 1.199664998,-3.445062132" />
      <path d="M 1.151357517,-3.4103629339 Q 1.0659444038,-3.3518056376 0.9669578707,-3.3022675023" />
      <path d="M -0.9841201004,-3.2851905695 Q -1.0680392073,-3.3287895629 -1.1382145923,-3.3795219075" />
      <path d="M -1.1612663573,-3.3966670768 C -1.3392315655,-3.5322782849 -1.4366482231,-3.7010153696 -1.4360347082,-3.8702412463" />
      <path d="M -1.4360347082,-3.8702412463 C -1.440372627,-4.1521857551 -1.159161989,-4.4281309545 -0.7200715953,-4.5629002752 C -0.2855161764,-4.7020543558 0.2896671714,-4.6937601902 0.7443465766,-4.5318845398 C 1.2396838037,-4.3627545048 1.5697081497,-4.0201592577 1.5639653267,-3.668906432" />
      <path d="M 1.5639653267,-3.668906432 Q 1.5639361143,-3.5801109368 1.5381505422,-3.4927379293" />
      <path d="M 1.5301654992,-3.4675710496 Q 1.4993784218,-3.37694991 1.4418267266,-3.2914027052" />
      <path d="M 1.2876920832,-3.1151431753 L 1.2592200163,-3.0900675183" />
      <path d="M 1.2287093477,-3.064900632 L 1.1996650451,-3.0423918416" />
      <path d="M 1.1513575211,-3.0076926289 Q 1.0659444749,-2.9491354107 0.9669580302,-2.8995973339" />
      <path d="M -0.9841200575,-2.8825203132 Q -1.0680391754,-2.9261193063 -1.1382145776,-2.9768516475" />
      <path d="M -1.1612663974,-2.9939968533 C -1.3392315999,-3.1296080261 -1.4366482369,-3.298345013 -1.4360347127,-3.4675707902" />
      <path d="M -1.4360347127,-3.4675707902 C -1.4392372699,-3.7275289688 -1.2020441333,-3.9834417836 -0.8179870376,-4.1264597022 C -0.4376960972,-4.2725490854 0.0784216508,-4.3009858079 0.5268455996,-4.1926203177 C 0.8261588858,-4.1220457819 1.0929431535,-3.9937957995 1.2772915775,-3.8293496725 C 1.4627214375,-3.6653695957 1.5646337703,-3.4660752855 1.563965258,-3.2662358593" />
      <path d="M 1.563965258,-3.2662358593 Q 1.5630931368,-3.0558594513 1.4242222342,-2.8635654057" />
      <path d="M 1.2876920716,-2.7124728503 Q 1.2463555885,-2.6748546813 1.1996650784,-2.6397215962" />
      <path d="M 1.1513574983,-2.6050223619 Q 1.0659445699,-2.5464652585 0.9669582982,-2.49692726" />
      <path d="M -0.9841200069,-2.4798500382 Q -1.068039165,-2.5234490362 -1.1382145952,-2.574181381" />
      <path d="M -1.1612664111,-2.5913265782 C -1.3392316308,-2.7269377135 -1.4366481869,-2.8956746173 -1.436034655,-3.0649003385" />
      <path d="M -1.436034655,-3.0649003385 C -1.4383305967,-3.3029785113 -1.2409447272,-3.5384236897 -0.9104649241,-3.6855845405 C -0.5829682137,-3.8348150098 -0.129129405,-3.892339762 0.2979469759,-3.8325291625 C 0.6476479887,-3.7853214842 0.9752794738,-3.6615325913 1.2043543181,-3.4865346191 C 1.4350390562,-3.3123521745 1.5650240579,-3.0884476631 1.5639652785,-2.8635652606" />
      <path d="M 1.5639652785,-2.8635652606 Q 1.5630931671,-2.6531889776 1.4242222461,-2.4608950693" />
      <path d="M 1.2876921107,-2.3098026397 Q 1.2463556027,-2.2721844652 1.1996650681,-2.2370513748" />
      <path d="M 1.1513574965,-2.2023521573 Q 1.0659446771,-2.1437951436 0.9669585737,-2.0942572032" />
      <path d="M -0.9841200325,-2.0771797777 Q -1.0680392048,-2.1207787705 -1.138214633,-2.1715111072" />
      <path d="M -1.1612663959,-2.188656262 C -1.3392316509,-2.3242673899 -1.4366480892,-2.493004286 -1.4360345559,-2.6622300259" />
      <path d="M -1.4360345559,-2.6622300259 C -1.4376244895,-2.8785112434 -1.2759836789,-3.093149228 -0.9969350055,-3.2405414106 C -0.7201354093,-3.3892663118 -0.3298464057,-3.4684207147 0.0632869494,-3.4508105128 C 0.4566465767,-3.4350778366 0.8473016902,-3.3224616638 1.124386075,-3.1401582167 C 1.4037235336,-2.9591910645 1.5655588457,-2.7108669169 1.5639653665,-2.4608948454" />
      <path d="M 1.5639653665,-2.4608948454 C 1.5645603547,-2.2669244135 1.4687000336,-2.0734241723 1.2933324663,-1.9123007875" />
      <path d="M 1.2876920817,-1.9071324217 Q 1.2463555632,-1.8695142481 1.1996650251,-1.834381158" />
      <path d="M 1.1513574706,-1.7996819532 Q 1.0659447338,-1.7411249931 0.9669587601,-1.6915870876" />
      <path d="M -0.984120091,-1.674509516 Q -1.0680392517,-1.7181085 -1.1382146529,-1.7688408266" />
      <path d="M -1.1612664188,-1.7859859873 C -1.3392316776,-1.9215971534 -1.4366479933,-2.0903341206 -1.4360344681,-2.2595599273" />
      <path d="M -1.4360344681,-2.2595599273 C -1.437090613,-2.4541073783 -1.3072779629,-2.6476800364 -1.0768641288,-2.7916226291 C -0.8480568027,-2.9363782894 -0.5207834701,-3.0300210107 -0.1713563712,-3.0471963475 C 0.255881586,-3.0703484554 0.710084494,-2.9760485127 1.0378798317,-2.7899044247 C 1.3686626817,-2.6058349204 1.5662660267,-2.3333497041 1.5639654655,-2.0582246752" />
      <path d="M 1.5639654655,-2.0582246752 C 1.5645604524,-1.8642542582 1.4687000097,-1.670754006 1.2933324663,-1.5096306132" />
      <path d="M 1.2876920975,-1.5044622609 Q 1.2463555515,-1.4668440547 1.1996649849,-1.4317109362" />
      <path d="M 1.1513574752,-1.3970117547 Q 1.0659447892,-1.3384548103 0.9669588887,-1.2889169159" />
      <path d="M -0.9841201531,-1.2718392612 Q -1.0680392838,-1.3154382424 -1.138214647,-1.3661705671" />
      <path d="M -1.1612663308,-1.3833156739 C -1.3392316462,-1.518926937 -1.4366479574,-1.6876640615 -1.4360344481,-1.8568899877" />
      <path d="M -1.4360344481,-1.8568899877 C -1.4367010785,-2.0297502825 -1.3349397342,-2.2020674072 -1.1497595524,-2.3391443722 C -0.9656581162,-2.4766857862 -0.6992149977,-2.5781079885 -0.4002052887,-2.6219577861 C 0.0483000941,-2.6903420564 0.5647691198,-2.6218181848 0.9453689643,-2.4354810641 C 1.3297395035,-2.2522220364 1.567173937,-1.9559158217 1.5639655229,-1.6555546642" />
      <path d="M 1.5639655229,-1.6555546642 C 1.5645605023,-1.4615841898 1.4686999847,-1.2680838535 1.2933324663,-1.1069604187" />
      <path d="M 1.2876920636,-1.1017920336 Q 1.246355524,-1.0641738227 1.1996649677,-1.0290407013" />
      <path d="M 1.1513574741,-0.9943415208 Q 1.0659447117,-0.9357845061 0.9669587042,-0.8862465658" />
      <path d="M -0.9841201611,-0.8691690118 Q -1.0680392818,-0.912768011 -1.1382146317,-0.963500358" />
      <path d="M -1.1612664068,-0.9806455451 C -1.3392316485,-1.1162568829 -1.4366480077,-1.2849940706 -1.4360345173,-1.4542200227" />
      <path d="M -1.4360345173,-1.4542200227 C -1.4417597322,-1.7582196948 -1.1123183801,-2.0535966327 -0.6176247833,-2.1758984124 C -0.1629572794,-2.2944611426 0.4125529787,-2.2593568462 0.8474239258,-2.0766216584 C 1.2868340797,-1.8982797806 1.568310691,-1.5785884136 1.563965518,-1.2528846592" />
      <path d="M 1.563965518,-1.2528846592 C 1.5645604882,-1.05891409 1.4686999651,-0.8654136601 1.2933324663,-0.7042901862" />
      <path d="M 1.2876920846,-0.6991218186 Q 1.2463555332,-0.6615035829 1.1996649582,-0.6263704411" />
      <path d="M 1.1513574884,-0.5916712718 Q 1.0659447361,-0.5331142543 0.9669587237,-0.4835763132" />
      <path d="M -0.9841201153,-0.4664987825 Q -1.0680392375,-0.5100978056 -1.1382145976,-0.5608301771" />
      <path d="M -1.1612663961,-0.577975387 C -1.3392315865,-0.7135867459 -1.4366481171,-0.8823238872 -1.4360346372,-1.0515498178" />
      <path d="M -1.4360346372,-1.0515498178 C -1.4392345664,-1.3114445782 -1.2021611677,-1.567299233 -0.8182612653,-1.7103344875 C -0.3745878344,-1.8823198946 0.2546797129,-1.8883125454 0.7446486719,-1.7130871066 C 1.2398255463,-1.5439241352 1.5697034651,-1.2013941612 1.5639654664,-0.8502145365" />
      <path d="M 1.5639654664,-0.8502145365 C 1.5645604297,-0.6562438846 1.4686999561,-0.4627434107 1.2933324663,-0.3016199239" />
      <path d="M 1.2876920738,-0.2964515459 Q 1.2463555359,-0.2588333192 1.1996649724,-0.2237001854" />
      <path d="M 1.1513574748,-0.1890009976 Q 1.0659446141,-0.1304439112 0.9669584433,-0.0809059214" />
      <path d="M -0.9841200558,-0.0638285812 Q -1.0680391691,-0.1074276097 -1.1382145437,-0.1581599769" />
      <path d="M -1.1612663639,-0.1753051976 C -1.3392315,-0.310916475 -1.4366482106,-0.4796534277 -1.4360347232,-0.6488792942" />
      <path d="M -1.4360347232,-0.6488792942 C -1.4376230056,-0.8650977237 -1.2760782657,-1.0796754891 -0.9971743988,-1.2270625396 C -0.5831632815,-1.4537607901 0.0924299289,-1.5083952689 0.6376768899,-1.3446671641 C 0.9101796223,-1.2655435448 1.1477453707,-1.1374200585 1.3110754707,-0.9794089051 C 1.4752680816,-0.8217394839 1.5644841149,-0.634839476 1.5639654039,-0.4475442617" />
      <path d="M 1.5639654039,-0.4475442617 C 1.5645603645,-0.2535735769 1.4686999595,-0.0600731302 1.2933324663,0.1010503441" />
      <path d="M 1.2876920914,0.1062187055 Q 1.2463557843,0.1438367203 1.1996655046,0.1789696723" />
      <path d="M 1.1513574695,0.2136692587 Q 1.0659447853,0.2722262142 0.9669588333,0.3217641209" />
      <path d="M -0.98412002,0.3388416122 Q -1.0680391498,0.295242588 -1.1382145557,0.2445102348" />
      <path d="M -1.1612663887,0.227365017 C -1.3392314643,0.0917539045 -1.436648219,-0.0769828225 -1.4360347034,-0.2462086346" />
      <path d="M -1.4360347034,-0.2462086346 C -1.4367003442,-0.4190067406 -1.3350137461,-0.5912627141 -1.1499587486,-0.7283151269 C -0.9658165529,-0.8659557961 -0.6992273944,-0.9674476754 -0.4000439954,-1.0113007346 C -0.1012739569,-1.0559069642 0.2283428289,-1.0425372318 0.5271680774,-0.9711817255 C 0.8264059138,-0.9005795655 1.0931046553,-0.7723279184 1.2773911447,-0.6078992588 C 1.462758503,-0.4439362508 1.5646334309,-0.2446773434 1.563965363,-0.0448738896" />
      <path d="M 1.563965363,-0.0448738896 C 1.5645603247,0.1490967693 1.468699972,0.3425971398 1.2933324663,0.5037205964" />
      <path d="M 1.2876920877,0.5088889603 Q 1.246355558,0.5465071707 1.1996649966,0.5816402945" />
      <path d="M 1.1513574536,0.6163395057 Q 1.0659447879,0.6748964412 0.9669588594,0.7244343419" />
      <path d="M -0.9841199905,0.7415118523 Q -1.0680391625,0.6979128423 -1.1382146059,0.6471805034" />
      <path d="M -1.1612663901,0.6300353361 C -1.339231511,0.4944243542 -1.4366481435,0.3256876327 -1.4360345904,0.1564617798" />
      <path d="M -1.4360345904,0.1564617798 C -1.4352385791,0.0244518438 -1.3808444679,-0.0999373712 -1.2728522569,-0.2167058652 C -1.1220653165,-0.3791796957 -0.8682005863,-0.5097283213 -0.5644862382,-0.577988153 C -0.2614814721,-0.6471595346 0.0891184894,-0.653425422 0.4138034985,-0.5924819143 C 0.7388834825,-0.5325146701 1.0356342677,-0.4056811174 1.2418358006,-0.2355835415 C 1.4493672115,-0.0661076188 1.5648121405,0.1454765606 1.5639653559,0.3577964828" />
      <path d="M 1.5639653559,0.3577964828 C 1.5645603207,0.5517670775 1.4686999864,0.7452673722 1.2933324663,0.906390829" />
      <path d="M 1.2876920919,0.9115591886 Q 1.2463557205,0.9491772523 1.199665358,0.9843102525" />
      <path d="M 1.151357454,1.0190097369 Q 1.09834277,1.055367659 1.039900194,1.0883378674" />
      <path d="M -0.9841199901,1.1441821486 Q -1.0680391671,1.1005831748 -1.1382146066,1.0498508618" />
      <path d="M -1.1612664054,1.0327056894 Q -1.205933023,0.998516554 -1.2438546225,0.9618018762" />
      <path d="M -1.2687715385,0.9366350149 Q -1.4347793246,0.7597497932 -1.4360344963,0.5591317098" />
      <path d="M -1.4360344963,0.5591317098 C -1.4358767007,0.4720930595 -1.4114748278,0.3873274658 -1.3628288778,0.3048349285 C -1.2546539973,0.120236787 -1.0223804196,-0.0394681478 -0.7202162276,-0.1334823481 C -0.4191584623,-0.2285659991 -0.0510204288,-0.2569373456 0.298282025,-0.2084509876 C 0.6479150739,-0.1612038126 0.9754563712,-0.03740393 1.2044642295,0.1375811367 C 1.4350812325,0.3117512817 1.5650235507,0.5356205527 1.5639653717,0.7604667796" />
      <path d="M 1.5639653717,0.7604667796 C 1.5645603393,0.9544373075 1.4686999953,1.1479375733 1.2933324663,1.3090610575" />
      <path d="M 1.2876920892,1.3142294202 L 1.26123558,1.3375828634" />
      <path d="M -1.2212982652,1.3855491353 C -1.3613023858,1.2596175525 -1.4364072795,1.1108393959 -1.4360345267,0.9618015164" />
      <path d="M -1.4360345267,0.9618015164 C -1.4360246969,0.9186275502 -1.4299042174,0.8757378413 -1.4176730882,0.8331323899 C -1.360694127,0.6302213106 -1.1591574076,0.442135809 -0.8650750634,0.3215320491 C -0.5726100706,0.1997129782 -0.190983216,0.1469577162 0.1813158609,0.1809949455 C 0.5538192317,0.2134889223 0.9126983212,0.3325759044 1.1653340537,0.5116363799 C 1.4198871341,0.6896459216 1.5652710433,0.925752815 1.5639653881,1.1631369877" />
      <path d="M 1.5639653881,1.1631369877 Q 1.5637152995,1.3159185488 1.4887342481,1.4615950182" />
      <path d="M -1.4178085018,1.4926691377 Q -1.4360200375,1.4289923193 -1.436034595,1.3644720752" />
      <path d="M -1.436034595,1.3644720752 C -1.4374963401,1.1528619576 -1.2830137781,0.9427268098 -1.0146633566,0.7957736007 C -0.7484153511,0.6476159787 -0.3717598487,0.564762358 0.012712134,0.5742499149 C 0.3970842236,0.5820052784 0.7842967387,0.6822031085 1.06888316,0.852022658 C 1.3554283249,1.0205554355 1.5356508129,1.2567322092 1.5604628606,1.5006951144" />
      <path d="M 0.9328659331,-4.9147993262 L 1.1241458072,-5.1536662077" />
      <path d="M 1.2920855402,1.3543995335 C 1.279457925,1.1585873567 1.1485767604,0.966887396 0.9328659169,0.8241781696" />
      <path d="M 0.9328659169,0.8241781696 C 0.6718736478,0.6484225934 0.2867729792,0.5501137304 -0.0815286868,0.558169902 C -0.393926096,0.5631653856 -0.6892128636,0.6428381912 -0.8874633283,0.7711882776 C -1.0661609776,0.8852690016 -1.1661820566,1.036697472 -1.1654016504,1.1887670928" />
      <path d="M -1.1654016504,1.1887670928 Q -1.1653480943,1.264419137 -1.1339844517,1.3379533658" />
      <path d="M 1.2120058887,1.2715400191 Q 1.2360541425,1.2308107462 1.2531095443,1.1887670779" />
      <path d="M 1.2709925373,1.1379712418 Q 1.2933037376,1.0633480143 1.2933324634,0.9874319735" />
      <path d="M 1.2933324634,0.9874319735 C 1.2946323,0.7794377064 1.161915918,0.5728706448 0.9328659169,0.4215079023" />
      <path d="M 0.9328659169,0.4215079023 C 0.5722338863,0.1748353702 -0.0305098081,0.0907500454 -0.4891434331,0.2060001702 C -0.8975259008,0.30123857 -1.1701515682,0.5399814007 -1.1654016156,0.7860968537" />
      <path d="M -1.1654016156,0.7860968537 Q -1.1653436072,0.8624698978 -1.1334038457,0.9366349274" />
      <path d="M -1.1074667024,0.9874319806 Q -1.0599633619,1.0676126726 -0.9768636903,1.1379700616" />
      <path d="M 1.0284094734,1.0795652989 Q 1.081296094,1.0354546264 1.1244212378,0.9874319746" />
      <path d="M 1.166415931,0.9366346023 Q 1.2214811406,0.8639705156 1.2531095678,0.7860968696" />
      <path d="M 1.2709929043,0.7352998105 Q 1.2933080277,0.6606482015 1.2933324636,0.5847617041" />
      <path d="M 1.2933324636,0.5847617041 C 1.2946885597,0.3768972049 1.1619006893,0.1701606938 0.9328659169,0.0188376379" />
      <path d="M 0.9328659169,0.0188376379 C 0.5999410939,-0.2077330004 0.0615495743,-0.2996051365 -0.3804261918,-0.2191124462 C -0.6067025383,-0.1800258364 -0.805773423,-0.1000022681 -0.9441775442,0.0053978106 C -1.083323076,0.1104891547 -1.1613837986,0.2406039792 -1.1652106244,0.3717092092 C -1.165274301,0.3756150174 -1.1653379776,0.3795208257 -1.1654016543,0.3834266339" />
      <path d="M -1.1654016543,0.3834266339 Q -1.1653474389,0.4597771943 -1.1334038582,0.5339646715" />
      <path d="M -1.1074667092,0.5847617077 Q -1.0599698155,0.6649350342 -0.9768637201,0.7352997913" />
      <path d="M -0.9099576859,0.7860968155 Q -0.7873525235,0.8698847787 -0.6206419067,0.9259343444" />
      <path d="M 0.6514179009,0.8910250124 Q 0.770062392,0.8457197002 0.8719089233,0.7860968837" />
      <path d="M 0.951570873,0.7352998658 Q 1.0513693444,0.6660235418 1.1244212356,0.5847617317" />
      <path d="M 1.166415694,0.5339646949 Q 1.2214864004,0.461291447 1.25310956,0.3834266044" />
      <path d="M 1.2709925899,0.3326305878 Q 1.2933044867,0.258002128 1.2933324641,0.1820914905" />
      <path d="M 1.2933324641,0.1820914905 C 1.2946424528,-0.0258705159 1.1619242237,-0.2324688885 0.9328659169,-0.3838326105" />
      <path d="M 0.9328659169,-0.3838326105 C 0.7459931991,-0.5088222289 0.496812167,-0.5961915508 0.234466754,-0.6314001163 C -0.0925737671,-0.6766146852 -0.4367271695,-0.6387976357 -0.6956785488,-0.5342666473 C -0.9892761954,-0.4184966717 -1.1676762325,-0.2201987221 -1.1654016949,-0.0192436385" />
      <path d="M -1.1654016949,-0.0192436385 Q -1.1653480828,0.057103917 -1.1334038268,0.131294333" />
      <path d="M -1.107466691,0.1820914006 Q -1.0599723845,0.2622627738 -0.9768637629,0.3326295573" />
      <path d="M -0.9099576936,0.3834266133 Q -0.7747422393,0.4757621211 -0.5873738151,0.533964731" />
      <path d="M -0.3718740069,0.584761741 C -0.1628079424,0.6203173827 0.0688159273,0.6209494762 0.2889998406,0.5847616975" />
      <path d="M 0.5150454697,0.5339647065 Q 0.7120002427,0.4768066859 0.8719089665,0.3834266103" />
      <path d="M 0.9515709025,0.332629605 Q 1.051381447,0.2633422769 1.1244212224,0.1820914536" />
      <path d="M 1.1664159544,0.1312940859 Q 1.2214675907,0.0586536591 1.2531095525,-0.0192436667" />
      <path d="M 1.2709928987,-0.0700406696 Q 1.2933072154,-0.1446867449 1.2933324807,-0.2205787654" />
      <path d="M 1.2933324807,-0.2205787654 C 1.2946704697,-0.4284850171 1.1619072663,-0.6351648499 0.9328659169,-0.7865028362" />
      <path d="M 0.9328659169,-0.7865028362 C 0.7448413883,-0.9122892439 0.493463953,-1.0000110367 0.2293966916,-1.0347517144 C -0.0344925026,-1.0702697141 -0.3099745026,-1.0527579126 -0.5415404232,-0.9885067582 C -0.9217539829,-0.8862476239 -1.1694320834,-0.6569873744 -1.1654016562,-0.4219139298" />
      <path d="M -1.1654016562,-0.4219139298 Q -1.1653522026,-0.3455873522 -1.13340385,-0.2713758362" />
      <path d="M -1.1074667072,-0.2205787228 Q -1.0599613956,-0.1403956097 -0.9768637589,-0.0700406696" />
      <path d="M -0.9099576433,-0.0192436005 Q -0.7747891047,0.0730697416 -0.5873737275,0.131294459" />
      <path d="M -0.3718739552,0.1820914759 C -0.1626104027,0.2176695445 0.0689130451,0.2182594697 0.2889997106,0.1820914876" />
      <path d="M 0.5150455107,0.1312944472 Q 0.7119914023,0.0741397773 0.8719089548,-0.0192436652" />
      <path d="M 0.9515707921,-0.0700406426 Q 1.0513673242,-0.1393136302 1.1244212367,-0.2205787993" />
      <path d="M 1.1664156656,-0.2713757847 Q 1.2214897078,-0.3440548481 1.2531095687,-0.4219138592" />
      <path d="M 1.2709928951,-0.4727109018 Q 1.29330774,-0.5473604557 1.293332463,-0.6232490424" />
      <path d="M 1.293332463,-0.6232490424 C 1.2947148819,-0.8310596784 1.1618783736,-1.0378840258 0.9328659169,-1.1891730457" />
      <path d="M 0.9328659169,-1.1891730457 C 0.8218889956,-1.2627423859 0.6945620316,-1.3220184878 0.5508850251,-1.3670013515 C 0.1596263676,-1.4917161756 -0.3197574289,-1.4818185737 -0.6625832425,-1.3523307705 C -0.9752228812,-1.2384859818 -1.168005772,-1.0331550401 -1.1654016812,-0.8245841764" />
      <path d="M -1.1654016812,-0.8245841764 Q -1.1653450357,-0.7482230665 -1.1334038289,-0.6740460684" />
      <path d="M -1.107466725,-0.6232489947 Q -1.0599946314,-0.5431050613 -0.9768637793,-0.4727109016" />
      <path d="M -0.9099576757,-0.4219138416 Q -0.774734585,-0.3295747826 -0.5873737237,-0.2713758144" />
      <path d="M -0.3718741984,-0.2205788019 C -0.1624048767,-0.1849896835 0.0688036488,-0.1844143308 0.2889997095,-0.2205787317" />
      <path d="M 0.5150456312,-0.2713758167 Q 0.7120366533,-0.3285492889 0.8719089766,-0.4219139024" />
      <path d="M 0.9515708997,-0.4727109048 Q 1.0513806706,-0.5419974521 1.1244212586,-0.6232490437" />
      <path d="M 1.1664156673,-0.6740460266 Q 1.2214733932,-0.746697163 1.2531095727,-0.8245841471" />
      <path d="M 1.2709928965,-0.8753810703 Q 1.2933075488,-0.9500292505 1.2933324674,-1.0259192984" />
      <path d="M 1.2933324674,-1.0259192984 C 1.2946813176,-1.2337982733 1.1619050348,-1.440513714 0.9328659169,-1.5918432585" />
      <path d="M 0.9328659169,-1.5918432585 C 0.7128355441,-1.7393868343 0.4056364886,-1.8336053327 0.093489163,-1.8536216542 C -0.2077853207,-1.8742065362 -0.5102833218,-1.8257974085 -0.7380445462,-1.7244764696 C -1.0068970386,-1.6070941342 -1.1672370166,-1.4182839132 -1.1654016132,-1.2272543965" />
      <path d="M -1.1654016132,-1.2272543965 Q -1.1653473667,-1.1509040216 -1.1334038577,-1.076716176" />
      <path d="M -1.1074667397,-1.0259191791 Q -1.0599643849,-0.9457394763 -0.9768637595,-0.8753811905" />
      <path d="M -0.9099576547,-0.8245841362 Q -0.7747927524,-0.7322727672 -0.587373729,-0.6740460993" />
      <path d="M -0.3718742682,-0.6232490616 C -0.1625949469,-0.5876677561 0.0689363535,-0.5870842267 0.2889996992,-0.6232489742" />
      <path d="M 0.5150456487,-0.6740460844 Q 0.7119814335,-0.7311964998 0.8719089283,-0.8245841218" />
      <path d="M 0.9515709128,-0.8753811791 Q 1.0514130625,-0.9446948994 1.1244212499,-1.0259192862" />
      <path d="M 1.1664156785,-1.076716298 Q 1.2214857872,-1.1493886268 1.2531095733,-1.2272543848" />
      <path d="M 1.2709928896,-1.2780513987 Q 1.2933078405,-1.35270172 1.2933324628,-1.4285895772" />
      <path d="M 1.2933324628,-1.4285895772 C 1.2947003814,-1.6364258685 1.1618948924,-1.8432030672 0.9328659169,-1.9945134964" />
      <path d="M 0.9328659169,-1.9945134964 C 0.6977660456,-2.1523903038 0.3626380678,-2.2487230029 0.0289411891,-2.2595714896 C -0.2815651002,-2.271167284 -0.5866340619,-2.2093754252 -0.8054064107,-2.0948785579 C -1.0341576173,-1.9771158631 -1.1667100845,-1.8041982281 -1.165401654,-1.6299246028" />
      <path d="M -1.165401654,-1.6299246028 Q -1.1653531422,-1.5535998146 -1.1334038358,-1.4793865069" />
      <path d="M -1.1074667482,-1.4285895022 Q -1.0599620355,-1.3484071066 -0.9768637498,-1.2780514444" />
      <path d="M -0.9099576218,-1.2272544124 Q -0.7747923102,-1.1349424682 -0.5873738144,-1.0767163229" />
      <path d="M -0.3718741494,-1.025919273 C -0.1627256137,-0.9903533207 0.0688648205,-0.989740697 0.2889996824,-1.0259192261" />
      <path d="M 0.5150455723,-1.0767163129 Q 0.7119899456,-1.133870126 0.8719089166,-1.2272543502" />
      <path d="M 0.9515709572,-1.278051428 Q 1.0514108994,-1.3473645667 1.1244212376,-1.4285895114" />
      <path d="M 1.1664156737,-1.47938657 Q 1.2214772513,-1.552044387 1.2531095647,-1.6299246589" />
      <path d="M 1.2709929114,-1.6807216383 Q 1.2933077734,-1.7553712106 1.2933324715,-1.8312598089" />
      <path d="M 1.2933324715,-1.8312598089 C 1.2946842275,-2.0391283466 1.1619086899,-2.2458529194 0.9328659169,-2.3971837691" />
      <path d="M 0.9328659169,-2.3971837691 C 0.6412348739,-2.5943545117 0.1934446044,-2.6921905503 -0.2109185582,-2.6567116318 C -0.479813212,-2.6349631666 -0.7264551343,-2.5573115764 -0.8976061647,-2.4435680761 C -1.069947676,-2.3303755265 -1.1661239033,-2.1817979963 -1.1654016272,-2.0325948744" />
      <path d="M -1.1654016272,-2.0325948744 Q -1.1653425571,-1.9562160002 -1.1334038488,-1.882056749" />
      <path d="M -1.1074667402,-1.8312597645 Q -1.0599743656,-1.7510916618 -0.9768637157,-1.6807216739" />
      <path d="M -0.909957593,-1.6299246416 Q -0.7747871778,-1.5376094413 -0.5873738139,-1.4793865519" />
      <path d="M -0.371874218,-1.4285894918 C -0.1625230643,-1.3930098513 0.0687822556,-1.3924178836 0.2889998435,-1.4285895143" />
      <path d="M 0.5150454944,-1.4793865452 Q 0.7120364166,-1.536560748 0.8719088942,-1.6299245825" />
      <path d="M 0.9515709548,-1.6807216895 Q 1.0513664857,-1.7499954666 1.1244212196,-1.8312597457" />
      <path d="M 1.1664157052,-1.8820568106 Q 1.2214835196,-1.9547250426 1.2531095431,-2.0325949211" />
      <path d="M 1.2709928784,-2.0833919777 Q 1.2933069561,-2.1580335756 1.2933324623,-2.2339300231" />
      <path d="M 1.2933324623,-2.2339300231 C 1.2946357701,-2.4419211136 1.1619033904,-2.6485056134 0.9328659169,-2.7998540629" />
      <path d="M 0.9328659169,-2.7998540629 C 0.648767396,-2.9917383825 0.2166780715,-3.0899955761 -0.1793997184,-3.0617302243 C -0.4779182986,-3.0424705738 -0.7512757086,-2.9544119927 -0.9296640315,-2.8240562074 C -1.0821110293,-2.7140175312 -1.1659570229,-2.5748670814 -1.1654016564,-2.4352650758" />
      <path d="M -1.1654016564,-2.4352650758 Q -1.1653496623,-2.3589212255 -1.133403857,-2.2847270811" />
      <path d="M -1.1074667152,-2.233930038 Q -1.0599655544,-2.1537521236 -0.9768636846,-2.0833919101" />
      <path d="M -0.9099576192,-2.0325948953 Q -0.7747559154,-1.9402655767 -0.5873738766,-1.8820567941" />
      <path d="M -0.3718741545,-1.8312597132 C -0.1623148616,-1.7956585388 0.0688597003,-1.7951064428 0.2889999742,-1.831259775" />
      <path d="M 0.5150454454,-1.8820567647 Q 0.7120227048,-1.939224391 0.8719089108,-2.0325948436" />
      <path d="M 0.951570935,-2.0833919234 Q 1.0513879349,-2.1526848763 1.1244211913,-2.2339299917" />
      <path d="M 1.1664156822,-2.2847271107 Q 1.2214764648,-2.3573835482 1.2531095507,-2.4352651224" />
      <path d="M 1.2709929137,-2.4860621362 Q 1.2933076672,-2.5607110209 1.2933324624,-2.6366002491" />
      <path d="M 1.2933324624,-2.6366002491 C 1.2946837619,-2.8444747805 1.1619022251,-3.0511982478 0.9328659169,-3.2025243445" />
      <path d="M 0.9328659169,-3.2025243445 C 0.7219116024,-3.343872906 0.4310326103,-3.4365136715 0.1322618079,-3.4613643887 C -0.2115893777,-3.4916321847 -0.5608582627,-3.4306857502 -0.8037255236,-3.3037602652 C -1.0334778731,-3.1859748511 -1.1667197654,-3.0126566501 -1.1654016362,-2.8379353213" />
      <path d="M -1.1654016362,-2.8379353213 Q -1.1653487783,-2.7615920799 -1.1334038604,-2.6873973092" />
      <path d="M -1.1074667008,-2.6366002504 Q -1.0599584235,-2.5564136935 -0.9768636826,-2.4860621444" />
      <path d="M -0.9099576609,-2.4352651501 Q -0.7748093224,-2.3429611651 -0.5873739601,-2.2847270432" />
      <path d="M -0.3718741654,-2.233929987 C -0.162752134,-2.1983668356 0.0688459869,-2.1977489139 0.2889999911,-2.2339300216" />
      <path d="M 0.5150454362,-2.2847270032 Q 0.7119959121,-2.3418832403 0.8719089218,-2.4352651166" />
      <path d="M 0.9515708976,-2.4860621546 Q 1.0513837365,-2.5553515263 1.1244211727,-2.6366002644" />
      <path d="M 1.1664156871,-2.6873973268 Q 1.2214656875,-2.7600349751 1.2531095356,-2.8379353531" />
      <path d="M 1.270992909,-2.8887324122 Q 1.2933073405,-2.9633792922 1.293332481,-3.0392704528" />
      <path d="M 1.293332481,-3.0392704528 C 1.29466371,-3.2471781644 1.1619277707,-3.453837298 0.9328659169,-3.6051945834" />
      <path d="M 0.9328659169,-3.6051945834 C 0.6784089517,-3.7764107404 0.3062673739,-3.8744057482 -0.0535942545,-3.871520201 C -0.4898566137,-3.8718596516 -0.8914885087,-3.721869313 -1.0628116283,-3.5056929375 C -1.1308229967,-3.4215139047 -1.1650196722,-3.3331514722 -1.1654016548,-3.2406056402" />
      <path d="M -1.1654016548,-3.2406056402 Q -1.1653470909,-3.1642527109 -1.1334038295,-3.0900675154" />
      <path d="M -1.107466693,-3.0392704932 Q -1.059981997,-2.9591106142 -0.9768637396,-2.8887324173" />
      <path d="M -0.9099576951,-2.8379353865 Q -0.7747411023,-2.7455994103 -0.5873738868,-2.6873972752" />
      <path d="M -0.3718741554,-2.6366002282 C -0.1624866869,-2.6010162635 0.0687934185,-2.6004323658 0.2889998792,-2.6366002428" />
      <path d="M 0.5150454908,-2.6873972733 Q 0.7119744634,-2.7445456893 0.8719089463,-2.837935395" />
      <path d="M 0.9515708584,-2.8887323939 Q 1.0513758843,-2.9580144284 1.1244211992,-3.0392705061" />
      <path d="M 1.1664156751,-3.0900675339 Q 1.2214809674,-3.162731154 1.253109565,-3.2406055607" />
      <path d="M 1.2925086722,-3.4129192739 L 1.2933324659,-3.4419406824" />
      <path d="M 1.2933324659,-3.4419406824 C 1.2946528749,-3.6498693873 1.1619172035,-3.8565212515 0.9328659169,-4.0078647816" />
      <path d="M 0.9328659169,-4.0078647816 C 0.8153142518,-4.0857341814 0.6797863367,-4.1475085534 0.5262821716,-4.1931878977 C 0.2572501787,-4.2736424476 -0.0516033252,-4.2944837071 -0.3268747062,-4.2543158204 C -0.6027417675,-4.2152023988 -0.8433970461,-4.1154593734 -0.9916265172,-3.9823373725 C -1.1063593067,-3.8786180522 -1.1642843516,-3.7655975713 -1.1654016517,-3.6432759298" />
      <path d="M -1.1654016517,-3.6432759298 Q -1.1653482408,-3.566926161 -1.1334038443,-3.4927378312" />
      <path d="M -1.10746669,-3.4419407421 Q -1.0599665415,-3.3617637745 -0.9768637875,-3.291402665" />
      <path d="M -0.9099576797,-3.2406056195 Q -0.7747764353,-3.1482860851 -0.5873738269,-3.0900674995" />
      <path d="M -0.3718740879,-3.0392704857 C -0.1626297533,-3.0036967181 0.0688141902,-3.0030963469 0.2889997418,-3.0392704623" />
      <path d="M 0.5150454747,-3.0900675509 Q 0.7119962027,-3.1472240739 0.871908955,-3.24060565" />
      <path d="M 1.2933324633,-3.8446109805 C 1.2946898072,-4.0524703452 1.1619019422,-4.2592126207 0.9328659169,-4.4105349848" />
      <path d="M 0.9328659169,-4.4105349848 C 0.6170419149,-4.6248616095 0.1168961798,-4.7199994265 -0.3112678535,-4.6591635895 C -0.5052298041,-4.633057827 -0.6832027148,-4.5777401861 -0.8239082881,-4.5010703354 C -1.041502387,-4.3837022806 -1.1665948136,-4.215373539 -1.1654016681,-4.045946161" />
      <path d="M -1.1654016681,-4.045946161 Q -1.1653488719,-3.9696017155 -1.1334038321,-3.8954080133" />
      <path d="M -1.107466703,-3.8446110096 Q -1.0599691342,-3.7644355194 -0.9768637596,-3.6940729055" />
      <path d="M -0.9099576622,-3.6432758413 Q -0.7747333538,-3.5509363065 -0.5873737712,-3.4927377556" />
      <path d="M -0.3718741714,-3.4419407197 C -0.1624549986,-3.4063622878 0.0687099003,-3.4057647104 0.2889996646,-3.4419407199" />
      <path d="M 0.5150455074,-3.4927377933 Q 0.7120476705,-3.549915928 0.8719089374,-3.6432758915" />
      <path d="M 0.9328659169,-4.8132052427 C 0.5723248644,-5.05980882 -0.0301877543,-5.1439240812 -0.4887653471,-5.0288037856 C -0.8973492739,-4.933618607 -1.1701619174,-4.6948070147 -1.1654016123,-4.4486163806" />
      <path d="M -1.1654016123,-4.4486163806 Q -1.1653409883,-4.3722324079 -1.1334038268,-4.2980782652" />
      <path d="M -1.1074667088,-4.2472812801 Q -1.0599662703,-4.1671040463 -0.9768637975,-4.0967431342" />
      <path d="M -0.9099576186,-4.0459460621 Q -0.7747623932,-3.9536199301 -0.5873737738,-3.8954079814" />
      <path d="M -0.3718742738,-3.8446109922 C -0.1624589803,-3.8090292971 0.0686841204,-3.808437724 0.288999774,-3.8446109872" />
      <path d="M 0.5150454346,-3.8954080453 Q 0.7120273879,-3.9525775871 0.8719089148,-4.0459460713" />
      <path d="M 1.1241457278,-5.2040000131 C 1.4036271647,-5.0230189073 1.5655609078,-4.7746246996 1.5639655329,-4.5245804465" />
      <path d="M 1.5639655329,-4.5245804465 Q 1.5638846339,-4.4098037739 1.5210678654,-4.2980784753" />
      <path d="M 0.5334612688,-3.5997754125 Q 0.3948078762,-3.5664917031 0.2499614469,-3.5495235201" />
      <path d="M -0.3346704327,-3.5494315741 Q -0.4636280801,-3.5648205532 -0.5842762245,-3.5933787349" />
      <path d="M -1.0654052974,-3.7840680745 L -1.1209103625,-3.8202694095" />
      <path d="M -1.1520121498,-3.8426705402 C -1.3357812998,-3.9794694936 -1.4366907214,-4.1510913246 -1.4360346568,-4.3232453786" />
      <path d="M -1.4360346568,-4.3232453786 C -1.4417638518,-4.6273093244 -1.1121774298,-4.9227410422 -0.6173223707,-5.0450007848 C -0.1276718545,-5.1733122984 0.5013052904,-5.1206096046 0.9450943112,-4.9019689995 C 1.3296211002,-4.7187185797 1.5671770904,-4.4223441774 1.5639654466,-4.1219105133" />
      <path d="M 1.5639654466,-4.1219105133 Q 1.5638845499,-4.0071337433 1.5210677948,-3.8954083151" />
      <path d="M 0.5334617563,-3.1971053171 Q 0.3948080794,-3.1638215203 0.24996136,-3.1468533028" />
      <path d="M -0.334670718,-3.146761355 Q -0.4636281482,-3.1621503157 -0.5842761047,-3.1907084465" />
      <path d="M -1.0654053131,-3.381397852 L -1.1209103408,-3.4175991632" />
      <path d="M -1.1520121433,-3.4400003033 C -1.3357813034,-3.5767992525 -1.4366907804,-3.748421049 -1.4360347082,-3.9205750271" />
      <path d="M -1.4360347082,-3.9205750271 C -1.440372627,-4.2025195359 -1.159161989,-4.4784647353 -0.7200715953,-4.6132340559 C -0.2855161764,-4.7523881366 0.2896671714,-4.7440939709 0.7443465766,-4.5822183206 C 1.2396838037,-4.4130882856 1.5697081497,-4.0704930385 1.5639653267,-3.7192402128" />
      <path d="M 1.5639653267,-3.7192402128 Q 1.5639151832,-3.6175062561 1.5301654992,-3.5179048304" />
      <path d="M 0.5334618491,-2.7944351359 Q 0.3948080679,-2.7611513041 0.2499612606,-2.7441830682" />
      <path d="M -0.3346707009,-2.7440910933 Q -0.4636282355,-2.7594800657 -0.5842762958,-2.7880382399" />
      <path d="M -1.0654052609,-2.9787275812 L -1.1209103361,-3.0149289138" />
      <path d="M -1.1520121529,-3.0373300583 C -1.335781326,-3.1741289772 -1.436690795,-3.3457506844 -1.4360347127,-3.517904571" />
      <path d="M -1.4360347127,-3.517904571 C -1.4392372699,-3.7778627495 -1.2020441333,-4.0337755644 -0.8179870376,-4.1767934829 C -0.4376960972,-4.3228828662 0.0784216508,-4.3513195887 0.5268455996,-4.2429540985 C 0.8261588858,-4.1723795627 1.0929431535,-4.0441295803 1.2772915775,-3.8796834533 C 1.4627214375,-3.7157033765 1.5646337703,-3.5164090663 1.563965258,-3.31656964" />
      <path d="M 1.5634424722,-3.2914027496 Q 1.5591519739,-3.1893942986 1.5210677023,-3.0900674774" />
      <path d="M 0.5334620854,-2.391764976 Q 0.39480816,-2.3584810798 0.249961208,-2.3415128175" />
      <path d="M -0.3346706263,-2.3414208313 Q -0.4636281865,-2.3568098088 -0.5842762898,-2.3853679986" />
      <path d="M -1.0654052108,-2.5760572881 L -1.1209103519,-2.6122586499" />
      <path d="M -1.1520121803,-2.6346597958 C -1.335781364,-2.771458676 -1.4366907456,-2.9430802942 -1.436034655,-3.1152341193" />
      <path d="M -1.436034655,-3.1152341193 C -1.4383305967,-3.3533122921 -1.2409447272,-3.5887574705 -0.9104649241,-3.7359183213 C -0.5829682137,-3.8851487906 -0.129129405,-3.9426735428 0.2979469759,-3.8828629433 C 0.6476479887,-3.835655265 0.9752794738,-3.7118663721 1.2043543181,-3.5368683998 C 1.4350390562,-3.3626859553 1.5650240579,-3.1387814438 1.5639652785,-2.9138990413" />
      <path d="M 1.5639652785,-2.9138990413 Q 1.5638844009,-2.7991223725 1.5210677405,-2.6873970591" />
      <path d="M 0.5334620366,-1.9890947248 Q 0.3948080828,-1.9558108104 0.2499610984,-1.9388425464" />
      <path d="M -0.3346706697,-1.9387505948 Q -0.4636283839,-1.954139599 -0.5842766351,-1.9826978441" />
      <path d="M -1.0654051696,-2.1733869743 L -1.1209103969,-2.2095883828" />
      <path d="M -1.1520121798,-2.2319894921 C -1.3357813937,-2.3687883629 -1.4366906482,-2.5404099678 -1.4360345559,-2.7125638067" />
      <path d="M -1.4360345559,-2.7125638067 C -1.4376244895,-2.9288450242 -1.2759836789,-3.1434830088 -0.9969350055,-3.2908751914 C -0.7201354093,-3.4396000925 -0.3298464057,-3.5187544954 0.0632869494,-3.5011442936 C 0.4566465767,-3.4854116174 0.8473016902,-3.3727954446 1.124386075,-3.1904919975 C 1.4037235336,-3.0095248452 1.5655588457,-2.7612006976 1.5639653665,-2.5112286262" />
      <path d="M 1.5639653665,-2.5112286262 Q 1.5638844882,-2.3964520272 1.5210678128,-2.2847267807" />
      <path d="M -0.3346707073,-1.5360803627 Q -0.4636283807,-1.5514693636 -0.5842766022,-1.5800275898" />
      <path d="M -1.0654051268,-1.7707166508 L -1.120910421,-1.8069181032" />
      <path d="M -1.1520121827,-1.8293192009 C -1.3357814176,-1.9661181119 -1.4366905522,-2.137739795 -1.4360344681,-2.309893708" />
      <path d="M -1.4360344681,-2.309893708 C -1.437090613,-2.5044411591 -1.3072779629,-2.6980138172 -1.0768641288,-2.8419564099 C -0.8480568027,-2.9867120702 -0.5207834701,-3.0803547915 -0.1713563712,-3.0975301283 C 0.255881586,-3.1206822362 0.710084494,-3.0263822935 1.0378798317,-2.8402382055 C 1.3686626817,-2.6561687012 1.5662660267,-2.3836834849 1.5639654655,-2.108558456" />
      <path d="M 1.5639654655,-2.108558456 Q 1.5638845834,-1.9937818744 1.5210678773,-1.8820566356" />
      <path d="M -0.3346706204,-1.1334101078 Q -0.4636280864,-1.1487990706 -0.584276124,-1.1773572102" />
      <path d="M -1.0654051913,-1.3680464147 L -1.1209104239,-1.404247844" />
      <path d="M -1.1520120894,-1.4266488811 C -1.3357813868,-1.5634478889 -1.4366905153,-1.7350697333 -1.4360344481,-1.9072237685" />
      <path d="M -1.4360344481,-1.9072237685 C -1.4367010785,-2.0800840633 -1.3349397342,-2.2524011879 -1.1497595524,-2.389478153 C -0.9656581162,-2.527019567 -0.6992149977,-2.6284417693 -0.4002052887,-2.6722915669 C 0.0483000941,-2.7406758372 0.5647691198,-2.6721519656 0.9453689643,-2.4858148449 C 1.3297395035,-2.3025558172 1.567173937,-2.0062496025 1.5639655229,-1.7058884449" />
      <path d="M 1.5639655229,-1.7058884449 C 1.5645641734,-1.511612865 1.468393884,-1.3178111031 1.2925086654,-1.156534971" />
      <path d="M 1.2794647997,-1.1447099702 Q 1.2316112913,-1.1019978562 1.1768622896,-1.0625944763" />
      <path d="M -0.3346704243,-0.7307398219 Q -0.4636280809,-0.7461287848 -0.5842762664,-0.7746869617" />
      <path d="M -1.0654052124,-0.9653761994 L -1.1209103813,-1.0015776086" />
      <path d="M -1.1520121593,-1.0239787419 C -1.3357813858,-1.1607778267 -1.4366905644,-1.3323997393 -1.4360345173,-1.5045538035" />
      <path d="M -1.4360345173,-1.5045538035 C -1.4417597322,-1.8085534756 -1.1123183801,-2.1039304135 -0.6176247833,-2.2262321931 C -0.1629572794,-2.3447949234 0.4125529787,-2.309690627 0.8474239258,-2.1269554392 C 1.2868340797,-1.9486135614 1.568310691,-1.6289221943 1.563965518,-1.30321844" />
      <path d="M 1.563965518,-1.30321844 C 1.5645641592,-1.1089427695 1.4683938689,-0.9151409183 1.2925086775,-0.7538647494" />
      <path d="M 1.2794648208,-0.7420397526 Q 1.2316112995,-0.6993276117 1.176862276,-0.6599242104" />
      <path d="M -0.3346704954,-0.3280695515 Q -0.4636279048,-0.3434584821 -0.5842758561,-0.3720165844" />
      <path d="M -1.065405231,-0.5627060316 L -1.1209103595,-0.598907432" />
      <path d="M -1.1520121572,-0.621308588 C -1.3357813219,-0.758107695 -1.4366906727,-0.9297295586 -1.4360346372,-1.1018835986" />
      <path d="M -1.4360346372,-1.1018835986 C -1.4392345664,-1.3617783589 -1.2021611677,-1.6176330137 -0.8182612653,-1.7606682683 C -0.3745878344,-1.9326536754 0.2546797129,-1.9386463262 0.7446486719,-1.7634208874 C 1.2398255463,-1.594257916 1.5697034651,-1.251727942 1.5639654664,-0.9005483173" />
      <path d="M 1.5639654664,-0.9005483173 C 1.5645641007,-0.7062725609 1.468393857,-0.5124706627 1.2925086692,-0.3511944795" />
      <path d="M 1.2794648027,-0.3393694728 Q 1.2316112977,-0.2966573439 1.1768622878,-0.2572539531" />
      <path d="M 0.5334620527,0.0242565134 Q 0.3948082854,0.0575403787 0.2499614286,0.0745086493" />
      <path d="M -0.3346708333,0.0746006881 Q -0.463628154,0.0592117437 -0.5842760092,0.0306536344" />
      <path d="M -1.0654054274,-0.1600359921 L -1.1209102961,-0.1962372284" />
      <path d="M -1.152012136,-0.218638409 C -1.3357812326,-0.3554374355 -1.4366907661,-0.527059103 -1.4360347232,-0.699213075" />
      <path d="M -1.4360347232,-0.699213075 C -1.4376230056,-0.9154315044 -1.2760782657,-1.1300092699 -0.9971743988,-1.2773963203 C -0.5831632815,-1.5040945708 0.0924299289,-1.5587290497 0.6376768899,-1.3950009449 C 0.9101796223,-1.3158773256 1.1477453707,-1.1877538393 1.3110754707,-1.0297426859 C 1.4752680816,-0.8720732646 1.5644841149,-0.6851732567 1.5639654039,-0.4978780424" />
      <path d="M 1.5639654039,-0.4978780424 C 1.5645640355,-0.3036022535 1.4683938609,-0.109800383 1.2925086702,0.0514757876" />
      <path d="M 1.2794648273,0.0633007721 Q 1.2316115161,0.106012726 1.1768627472,0.1454159718" />
      <path d="M 0.5334621567,0.4269267373 Q 0.3948082919,0.4602106442 0.2499613458,0.4771789308" />
      <path d="M -0.3346709496,0.477270933 Q -0.4636278968,0.4618820088 -0.5842754297,0.4333239881" />
      <path d="M -1.0654054055,0.2426342121 L -1.1209103224,0.2064329651" />
      <path d="M -1.1520121477,0.1840318103 C -1.3357811876,0.0472329462 -1.4366907758,-0.124388493 -1.4360347034,-0.2965424154" />
      <path d="M -1.4360347034,-0.2965424154 C -1.4367003442,-0.4693405213 -1.3350137461,-0.6415964949 -1.1499587486,-0.7786489077 C -0.9658165529,-0.9162895769 -0.6992273944,-1.0177814562 -0.4000439954,-1.0616345153 C -0.1012739569,-1.106240745 0.2283428289,-1.0928710126 0.5271680774,-1.0215155062 C 0.8264059138,-0.9509133463 1.0931046553,-0.8226616992 1.2773911447,-0.6582330396 C 1.462758503,-0.4942700316 1.5646334309,-0.2950111242 1.563965363,-0.0952076704" />
      <path d="M 1.563965363,-0.0952076704 C 1.5645639958,0.0990680961 1.4683938702,0.2928698935 1.2925086609,0.4541460482" />
      <path d="M 1.2794648239,0.4659710251 Q 1.231611325,0.508683139 1.1768623125,0.5480865226" />
      <path d="M 0.5334645241,0.8295964372 L 0.4714995466,0.8435974075" />
      <path d="M -0.4364873916,0.8655282176 Q -0.5120191536,0.8530993117 -0.584275831,0.8359940795" />
      <path d="M -1.0654053604,0.6453045015 L -1.1209103461,0.6091032425" />
      <path d="M -1.1520121595,0.5867021154 C -1.3357812396,0.4499033865 -1.4366907026,0.2782819607 -1.4360345904,0.106127999" />
      <path d="M -1.4360345904,0.106127999 C -1.4352385791,-0.025881937 -1.3808444679,-0.150271152 -1.2728522569,-0.267039646 C -1.1220653165,-0.4295134764 -0.8682005863,-0.5600621021 -0.5644862382,-0.6283219338 C -0.2614814721,-0.6974933153 0.0891184894,-0.7037592028 0.4138034985,-0.6428156951 C 0.7388834825,-0.5828484509 1.0356342677,-0.4560148981 1.2418358006,-0.2859173222 C 1.4493672115,-0.1164413996 1.5648121405,0.0951427798 1.5639653559,0.307462702" />
      <path d="M 1.5639653559,0.307462702 C 1.5645639917,0.5017384007 1.468393888,0.6955401189 1.2925086702,0.8568162722" />
      <path d="M 1.2794648268,0.8686412541 Q 1.2316114846,0.9113532254 1.1768626737,0.9507564932" />
      <path d="M -1.0654052831,1.0479748807 L -1.1209103593,1.0117735866" />
      <path d="M -1.1520121696,0.9893724706 Q -1.1862722524,0.9637517622 -1.2167347594,0.9366349575" />
      <path d="M -1.2438546225,0.9114680955 C -1.3694578994,0.7901969061 -1.4363324941,0.6495954402 -1.4360344963,0.508797929" />
      <path d="M -1.4360344963,0.508797929 C -1.4358767007,0.4217592787 -1.4114748278,0.336993685 -1.3628288778,0.2545011477 C -1.2546539973,0.0699030062 -1.0223804196,-0.0898019285 -0.7202162276,-0.1838161289 C -0.4191584623,-0.2788997799 -0.0510204288,-0.3072711264 0.298282025,-0.2587847683 C 0.6479150739,-0.2115375934 0.9754563712,-0.0877377107 1.2044642295,0.0872473559 C 1.4350812325,0.2614175009 1.5650235507,0.4852867719 1.5639653717,0.7101329989" />
      <path d="M 1.5639653717,0.7101329989 C 1.5645640108,0.904408667 1.4683938602,1.0982103925 1.2925085716,1.2594865916" />
      <path d="M 1.2794648161,1.2713114936 L 1.2344055642,1.3095634744" />
      <path d="M -1.1854034039,1.3659824313 C -1.3481701481,1.233831647 -1.4365439142,1.0728425368 -1.4360345267,0.9114677357" />
      <path d="M -1.4360345267,0.9114677357 C -1.4360246969,0.8682937694 -1.4299042174,0.8254040606 -1.4176730882,0.7827986091 C -1.360694127,0.5798875299 -1.1591574076,0.3918020282 -0.8650750634,0.2711982683 C -0.5726100706,0.1493791974 -0.190983216,0.0966239354 0.1813158609,0.1306611647 C 0.5538192317,0.1631551416 0.9126983212,0.2822421237 1.1653340537,0.4613025991 C 1.4198871341,0.6393121409 1.5652710433,0.8754190342 1.5639653881,1.1128032069" />
      <path d="M 1.5639653881,1.1128032069 Q 1.5635513321,1.286546983 1.4673345261,1.4499297823" />
      <path d="M -1.4353367037,1.3393051846 L -1.436034595,1.3141382944" />
      <path d="M -1.436034595,1.3141382944 C -1.4375998148,1.0987353933 -1.2773177558,0.884942328 -1.0002893003,0.7376199028 C -0.7254820797,0.5889896525 -0.3377582762,0.5091151548 0.053781362,0.5251724718 C 0.4452997523,0.5393739423 0.8352000198,0.6495295585 1.1137688928,0.8293435624 C 1.3945288386,1.0078319383 1.5600758494,1.2537238201 1.5638271023,1.5025290015" />
      <line x1="0.9328659169" y1="0.7225841301" x2="0.9328659169" y2="0.8241781696" />
      <path d="M 1.1241457278,-5.2040000131 L 1.1241457278,-5.1536662324" />
      <line x1="0.9328659169" y1="-4.9147993358" x2="0.9328659169" y2="-4.8132052427" />
      <line x1="0.9328659169" y1="-4.5121291137" x2="0.9328659169" y2="-4.4105349848" />
      <line x1="0.9328659169" y1="-4.1094588786" x2="0.9328659169" y2="-4.0078647816" />
      <line x1="0.9328659169" y1="-3.7067886038" x2="0.9328659169" y2="-3.6051945834" />
      <line x1="0.9328659169" y1="-3.3041183199" x2="0.9328659169" y2="-3.2025243445" />
      <line x1="0.9328659169" y1="-2.9014480663" x2="0.9328659169" y2="-2.7998540629" />
      <line x1="0.9328659169" y1="-2.4987778501" x2="0.9328659169" y2="-2.3971837691" />
      <line x1="0.9328659169" y1="-2.0961076473" x2="0.9328659169" y2="-1.9945134964" />
      <line x1="0.9328659169" y1="-1.693437427" x2="0.9328659169" y2="-1.5918432585" />
      <line x1="0.9328659169" y1="-1.2907671736" x2="0.9328659169" y2="-1.1891730457" />
      <line x1="0.9328659169" y1="-0.8880968941" x2="0.9328659169" y2="-0.7865028362" />
      <line x1="0.9328659169" y1="-0.4854266094" x2="0.9328659169" y2="-0.3838326105" />
      <line x1="0.9328659169" y1="-0.08275634" x2="0.9328659169" y2="0.0188376379" />
      <line x1="0.9328659169" y1="0.3199139048" x2="0.9328659169" y2="0.4215079023" />
      <path d="M 1.1241458072,-5.1536662077 C 0.8273762579,-5.2916699397 0.4528313192,-5.3614934403 0.0942563105,-5.3512936581 C -0.2090170387,-5.343617606 -0.4986789398,-5.2806363073 -0.7280332323,-5.1771717965" />
      <path d="M -0.7280332323,-5.1771717965 C -0.7241553892,-5.1781333387 -0.7181702206,-5.1797053419 -0.7100777263,-5.1818878061 C -0.6979466584,-5.1850479717 -0.6876825456,-5.1883329812 -0.6389835174,-5.2008250823 C -0.5956806584,-5.2120509098 -0.5114458439,-5.2304591282 -0.4295694702,-5.2405367606 C -0.343715393,-5.2516272461 -0.2543244429,-5.2567659855 -0.16139662,-5.2559529789 C 0.2295814148,-5.2539639222 0.6530198908,-5.1296934889 0.9328659169,-4.9147993385" />
      <path d="M 1.2906129703,-4.7026631432 A 1.2293670613173628,0.7287841933429978 1.9746645744917764e-15 0,1 1.2868605078,-4.6764288064" />
      <path d="M 1.0529813089,-4.3182400287 A 1.2293670613173628,0.7287841933429978 1.9746645744917764e-15 0,1 0.819998867,-4.1764325727" />
      <path d="M 0.7050936384,-4.1292800537 A 1.2293670613173628,0.7287841933429978 1.9746645744917764e-15 0,1 -0.6721862434,-4.1674319897" />
      <path d="M -0.7813529761,-4.221951726 A 1.2293670613173628,0.7287841933429978 1.9746645744917764e-15 0,1 -0.9955503324,-4.3814843374" />
      <path d="M -1.0436910248,-4.4349467311 A 1.2293670613173628,0.7287841933429978 1.9746645744917764e-15 0,1 -1.1360644341,-4.5928494772" />
      <path d="M -1.1654016563,-4.751111278 A 1.2293670613173628,0.7287841933429978 1.9746645744917764e-15 0,1 0.8757387001,-5.2984180351" />
      <path d="M -0.7280332323,-5.1771717965 L -0.7280332323,-5.2275055773" />
      <path d="M -0.7280332323,-5.2275055773 C -0.7200949481,-5.2321946716 -0.7131694893,-5.2367733127 -0.6854726063,-5.2510127666 C -0.6746004894,-5.257094629 -0.6493013653,-5.2687021777 -0.6095752338,-5.2858354126 C -0.5622472663,-5.3057507822 -0.4948525092,-5.3296954364 -0.427806501,-5.3480221299 C -0.1803315419,-5.4168781202 0.1063999101,-5.4344184281 0.3695579151,-5.3975268535" />
      <path d="M 1.1241458072,-5.2039999885 C 0.9368589067,-5.2906447761 0.7190354415,-5.3512798741 0.4934104087,-5.3808244508" />
      <path d="M 0.4934104087,-5.3808244508 C 0.0578504451,-5.4393450795 -0.3993307877,-5.3769958758 -0.7280332323,-5.2275055773" />
      <path d="M 2.0794775825,2.1063914472 A 2.8516547622227795,1.6904966636671144 1.9746645744917764e-15 0,1 -1.9515467724,4.4981958446 A 2.8516547622227795,1.6904966636671144 1.9746645744917764e-15 0,1 2.0794775825,2.1063914472" />
      <path d="M -1.9452090956,1.7801613003 A 2.9683273811042197,1.7596616536137377 1.9746645744917764e-15 0,1 2.0731399056,1.7801613003" />
      <path d="M 2.0731399056,1.7801613003 A 2.9683273811042197,1.7596616536137377 1.9746645744917764e-15 0,1 2.161940259,1.8306199324" />
      <line x1="0.7898719255" y1="3.9152304898" x2="0.7898719255" y2="2.8732941752" />
      <line x1="-0.9706380193" y1="2.8725218109" x2="-0.9706380193" y2="2.7524619115" />
      <line x1="-1.0811795298" y1="3.6185635123" x2="-1.0811795298" y2="3.3111105848" />
      <line x1="-0.0465761056" y1="4.0483353473" x2="-0.0465761056" y2="2.6953633201" />
      <path d="M -1.9452090956,1.7801613003 C -2.4112944426,2.0329752851 -2.7376002354,2.3762583742 -2.8740786135,2.7442300831 C -3.050149433,3.2094395528 -2.9291590387,3.7138613744 -2.526256584,4.1273103141 C -2.2413526573,4.4221231875 -1.8159886212,4.6668152109 -1.3125788792,4.8231088512 C -0.8107734641,4.9801836421 -0.2334358252,5.0485972244 0.3302513259,5.0177773274 C 1.0662760756,4.9797490578 1.7716496647,4.7698535945 2.268989226,4.4416082663 C 2.6306582033,4.2053622279 2.8836810977,3.9100579314 3.00102685,3.5972070198 C 3.0530686917,3.4589938036 3.0795898934,3.3191195618 3.0805904549,3.1775842942 C 3.0816019239,3.0305263493 3.0550766927,2.885193556 3.0010147611,2.7415859145 C 2.8728109371,2.3990118568 2.5809017938,2.0777385955 2.1635617632,1.831542486" />
      <path d="M 2.0731399056,1.7801613003 L 2.1291757105,1.8114984197 L 2.1635617632,1.831542486" />
      <line x1="1.0317341422" y1="2.9638873487" x2="1.0317341422" y2="3.5604490366" />
      <line x1="-0.9038033322" y1="2.7039246151" x2="-0.9038033322" y2="3.0441382552" />
      <line x1="0.7746798764" y1="1.0723557228" x2="2.0731399056" y2="1.7801613003" />
      <line x1="-0.6467490664" y1="1.0723557228" x2="-1.9452090956" y2="1.7801613003" />
      <line x1="1.2933324663" y1="1.3550792474" x2="1.2933324663" y2="1.2885081415" />
      <path d="M 1.5639655329,-4.5245804465 L 1.5639655329,-4.4742466658" />
      <path d="M -1.4360346568,-4.3232453786 L -1.4360346568,-4.2729115978" />
      <path d="M 1.5639654466,-4.1219105133 L 1.5639654466,-4.0715767325" />
      <path d="M -1.4360347082,-3.9205750271 L -1.4360347082,-3.8702412463" />
      <path d="M 1.5639653267,-3.7192402128 L 1.5639653267,-3.668906432" />
      <path d="M -1.4360347127,-3.517904571 L -1.4360347127,-3.4675707902" />
      <path d="M 1.563965258,-3.31656964 L 1.563965258,-3.2662358593" />
      <path d="M -1.436034655,-3.1152341193 L -1.436034655,-3.0649003385" />
      <path d="M 1.5639652785,-2.9138990413 L 1.5639652785,-2.8635652606" />
      <path d="M -1.4360345559,-2.7125638067 L -1.4360345559,-2.6622300259" />
      <path d="M 1.5639653665,-2.5112286262 L 1.5639653665,-2.4608948454" />
      <path d="M -1.4360344681,-2.309893708 L -1.4360344681,-2.2595599273" />
      <path d="M 1.5639654655,-2.108558456 L 1.5639654655,-2.0582246752" />
      <path d="M -1.4360344481,-1.9072237685 L -1.4360344481,-1.8568899877" />
      <path d="M 1.5639655229,-1.7058884449 L 1.5639655229,-1.6555546642" />
      <path d="M -1.4360345173,-1.5045538035 L -1.4360345173,-1.4542200227" />
      <path d="M 1.563965518,-1.30321844 L 1.563965518,-1.2528846592" />
      <path d="M -1.4360346372,-1.1018835986 L -1.4360346372,-1.0515498178" />
      <path d="M 1.5639654664,-0.9005483173 L 1.5639654664,-0.8502145365" />
      <path d="M -1.4360347232,-0.699213075 L -1.4360347232,-0.6488792942" />
      <path d="M 1.5639654039,-0.4978780424 L 1.5639654039,-0.4475442617" />
      <path d="M -1.4360347034,-0.2965424154 L -1.4360347034,-0.2462086346" />
      <path d="M 1.563965363,-0.0952076704 L 1.563965363,-0.0448738896" />
      <path d="M -1.4360345904,0.106127999 L -1.4360345904,0.1564617798" />
      <path d="M 1.5639653559,0.307462702 L 1.5639653559,0.3577964828" />
      <path d="M -1.4360344963,0.508797929 L -1.4360344963,0.5591317098" />
      <path d="M 1.5639653717,0.7101329989 L 1.5639653717,0.7604667796" />
      <path d="M -1.4360345267,0.9114677357 L -1.4360345267,0.9618015164" />
      <path d="M 1.5639653881,1.1128032069 L 1.5639653881,1.1631369877" />
      <path d="M -1.436034595,1.3141382944 L -1.436034595,1.3644720752" />
      <line x1="-1.1654016563" y1="-4.0459461546" x2="-1.1654016563" y2="-4.147540152" />
      <line x1="-1.1654016563" y1="-3.6432759097" x2="-1.1654016563" y2="-3.7448698875" />
      <line x1="-1.1654016563" y1="-3.2406056403" x2="-1.1654016563" y2="-3.3421996392" />
      <line x1="-1.1654016563" y1="-2.8379353555" x2="-1.1654016563" y2="-2.9395294136" />
      <line x1="1.2933324663" y1="-3.0392704445" x2="1.2933324663" y2="-3.1408646133" />
      <line x1="-1.1654016563" y1="-2.435265076" x2="-1.1654016563" y2="-2.5368592041" />
      <line x1="1.2933324663" y1="-2.6366002319" x2="1.2933324663" y2="-2.7381943597" />
      <line x1="-1.1654016563" y1="-2.0325948235" x2="-1.1654016563" y2="-2.1341889913" />
      <line x1="1.2933324663" y1="-2.2339300224" x2="1.2933324663" y2="-2.3355240802" />
      <line x1="-1.1654016563" y1="-1.6299246025" x2="-1.1654016563" y2="-1.7315187533" />
      <line x1="1.2933324663" y1="-1.8312597967" x2="1.2933324663" y2="-1.9328537954" />
      <line x1="-1.1654016563" y1="-1.2272543998" x2="-1.1654016563" y2="-1.3288484805" />
      <line x1="1.2933324663" y1="-1.4285895483" x2="1.2933324663" y2="-1.5301835261" />
      <line x1="-1.1654016563" y1="-0.8245841847" x2="-1.1654016563" y2="-0.9261781868" />
      <line x1="1.2933324663" y1="-1.0259192837" x2="1.2933324663" y2="-1.1275132814" />
      <line x1="-1.1654016563" y1="-0.4219139298" x2="-1.1654016563" y2="-0.5235079052" />
      <line x1="1.2933324663" y1="-0.6232490165" x2="1.2933324663" y2="-0.7248430561" />
      <line x1="-1.1654016563" y1="-0.0192436402" x2="-1.1654016563" y2="-0.1208376664" />
      <line x1="1.2933324663" y1="-0.2205787576" x2="1.2933324663" y2="-0.3221728363" />
      <line x1="-1.1654016563" y1="0.3834266289" x2="-1.1654016563" y2="0.2818325317" />
      <line x1="1.2933324663" y1="0.1820914897" x2="1.2933324663" y2="0.0804973915" />
      <line x1="-1.1654016563" y1="0.786096855" x2="-1.1654016563" y2="0.6845027351" />
      <line x1="1.2933324663" y1="0.5847617307" x2="1.2933324663" y2="0.4831676334" />
      <line x1="-1.1654016563" y1="1.188767093" x2="-1.1654016563" y2="1.0871729929" />
      <line x1="1.2933324663" y1="0.9874319735" x2="1.2933324663" y2="0.8858378864" />
      <line x1="-1.1654016563" y1="-4.4486163798" x2="-1.1654016563" y2="-4.751111278" />
      <line x1="1.2933324663" y1="-4.6705043236" x2="1.2933324663" y2="-4.751111278" />
      <path d="M 0.3695579154,-5.3975268535 L 0.4934104087,-5.3808244508" />
    </g>
  </g>
</svg>