<?xml version='1.0' encoding='utf-8'?>
<svg width="366.2711658024mm" height="512.9999999991mm" viewBox="-5.9173978173 -6.9281629947 11.8323129144 16.572357018" version="1.1" xmlns="http://www.w3.org/2000/svg">
  <g transform="scale(1,-1)" stroke-linecap="round">
    <g fill="none" stroke="rgb(64,192,64)" stroke-width="0.03230478950882607" id="Visible">
      <path d="M 0.9733126484,-4.204617932 C 0.2815512073,-4.4630871501 -0.6247227156,-4.4616097789 -1.2487711145,-4.2224634416" />
      <path d="M 0.9733119122,-6.8202148797 C 0.4646741275,-7.0077702379 -0.160782279,-7.0628458728 -0.7035704824,-6.9772059301 C -1.3228338975,-6.884078283 -1.8181660186,-6.6100361669 -1.9912876412,-6.2780271287 C -2.0424458101,-6.1822827519 -2.0680917815,-6.0844880718 -2.0682255554,-5.9846430884" />
      <path d="M 1.4982036818,-5.4129520605 Q 1.6639280616,-5.5257346069 1.7851657825,-5.6576934597" />
      <path d="M 1.8546627137,-5.739901696 L 1.8644439829,-5.7526853493" />
      <path d="M 1.9028277596,-5.806607225 Q 1.961097767,-5.8936250018 1.9988945988,-5.9846430342" />
      <path d="M 2.0285295233,-6.066851252 Q 2.0558947371,-6.1561251568 2.0631593983,-6.2467927589" />
      <path d="M 2.0656162129,-6.3262725043 C 2.0616424088,-6.6607320566 1.8394552768,-6.9917818785 1.4603552796,-7.2353492929" />
      <path d="M 1.4603552796,-7.2353492929 Q 1.2435109319,-7.3753946318 0.9733127934,-7.474113677" />
      <path d="M 0.9733129379,-8.1280127398 C 0.2814068545,-8.3864775949 -0.6246023796,-8.3850225134 -1.2487713074,-8.1458582749" />
      <path d="M 0.9733124932,-8.7819121037 C 0.5076908458,-8.9532534813 -0.055965776,-9.0148928694 -0.5645060126,-8.9573285882 C -0.8137789161,-8.9293003539 -1.0418673544,-8.876776649 -1.2487713276,-8.7997574733" />
      <path d="M -0.6804421073,-6.9502884906 C -0.3600163528,-6.9029371903 -0.0120612844,-6.9022117826 0.3229348232,-6.9501341899" />
      <path d="M 0.7800781854,-7.0477000144 Q 1.1040815648,-7.1416436451 1.3668406259,-7.2924413666" />
      <path d="M 1.7665441783,-9.1695687509 C 2.2318568874,-8.8764102699 2.501414637,-8.4742460587 2.4987617355,-8.0694173757" />
      <path d="M 2.4978861972,-8.0285486788 Q 2.4906997732,-7.862886218 2.4269146359,-7.7015993309" />
      <path d="M -0.6804418097,-6.4912123494 Q -0.979430042,-6.5270601489 -1.2487715049,-6.6034408715" />
      <path d="M -2.5000685657,-7.7015992467 L -2.501238234,-7.7424679452" />
      <path d="M -2.501238234,-7.7424679452 C -2.5016595205,-7.9611556048 -2.3992831567,-8.1795851439 -2.2060362431,-8.3703250408 C -2.0135323912,-8.5612938141 -1.7305805106,-8.7241172358 -1.3901456349,-8.8378418438 C -0.6431980842,-9.0940956022 0.3839458729,-9.0856992963 1.1772628128,-8.798107458 C 1.5745109397,-8.6574486115 1.9122109419,-8.4534877263 2.1430859068,-8.2121561494 C 2.3750133193,-7.9711879822 2.4993752379,-7.6935607405 2.4987617228,-7.4155186933" />
      <path d="M -2.5012382992,-7.0885683227 C -2.5038912039,-7.4389104597 -2.2343275437,-7.7865865173 -1.769005654,-8.0252547626 C -1.3074356378,-8.2660845322 -0.6566503659,-8.3941368988 -0.0012386814,-8.3653626533 C 0.6541730057,-8.3396452349 1.3049580208,-8.1571015694 1.7665283708,-7.8617804414 C 2.2318506262,-7.5686208152 2.5014147446,-7.1664528246 2.4987617058,-6.7616192912" />
      <path d="M -2.5012383725,-6.4346696202 C -2.5038913656,-6.785011448 -2.2343269952,-7.1326876217 -1.769005064,-7.3713558518 C -1.307435029,-7.6121855783 -0.6566501824,-7.740237749 -0.0012382449,-7.7114634401 C 0.654173723,-7.6857459317 1.3049587111,-7.5032022918 1.7665286079,-7.2078811333 C 2.2318504461,-6.9147214663 2.501415248,-6.5125530468 2.4987617472,-6.107719944" />
      <path d="M -2.5000687034,-5.7399015705 L -2.5012383725,-5.7807702675" />
      <path d="M -2.5012383725,-5.7807702675 C -2.5054137846,-6.1752560918 -2.160305235,-6.5649704617 -1.5872130681,-6.8021620482 C -1.0194187474,-7.0430725915 -0.2364431658,-7.1254072284 0.4865090211,-7.0094521738 C 1.0489568407,-6.9220835543 1.5689127596,-6.7186970772 1.9312950423,-6.4390322679 C 2.2961188573,-6.1605218758 2.5003409186,-5.807858956 2.4987617058,-5.4538205966" />
      <path d="M 2.4987617058,-5.4538205966 L 2.4978861685,-5.4129518993" />
      <path d="M -2.5012382992,-5.126871565 C -2.5005940221,-5.3041704087 -2.4371574914,-5.4742732883 -2.3109287072,-5.6371802038 C -2.0930464534,-5.9187515847 -1.6859399026,-6.1536791571 -1.1797152914,-6.2846897094 C -0.6749796931,-6.4173050569 -0.0753359056,-6.4447070925 0.4864985298,-6.35555463 C 1.0489491486,-6.2681868639 1.5689075703,-6.064801004 1.9312917325,-5.7851357019 C 2.2961175128,-5.5066247854 2.5003409608,-5.1539605318 2.4987617228,-4.7999211945" />
      <path d="M -2.501238234,-4.4729719425 C -2.5038912235,-4.8233135644 -2.2343273385,-5.1709901935 -1.7690052875,-5.4096584465 C -1.3074351371,-5.6504881929 -0.6566500069,-5.7785399857 -0.0012382908,-5.7497658523 C 0.6541734263,-5.7240485361 1.3049585325,-5.5415050917 1.7665287064,-5.2461836349 C 2.2318507791,-4.9530236505 2.5014147294,-4.5508557264 2.4987617355,-4.146022512" />
      <path d="M -2.5012381195,-3.8190726974 C -2.5024203981,-4.1034869615 -2.3271810804,-4.3869493778 -2.0092540978,-4.6106304995 C -1.6932264036,-4.835123126 -1.2364793258,-4.9983053006 -0.7269394782,-5.0645021463 C -0.2180859936,-5.1320025972 0.3403976194,-5.1019651621 0.8410015846,-4.9759105699 C 1.3424022822,-4.8511385992 1.7828118821,-4.6309907855 2.077447939,-4.353585349 C 2.3509953467,-4.0981887791 2.4996255514,-3.7954757302 2.4987617183,-3.4921233332" />
      <path d="M -2.5012381966,-3.1651737825 C -2.5021020608,-3.427663857 -2.3534651836,-3.6895141879 -2.0799062726,-3.9040457687 C -1.8077838956,-4.1191304105 -1.4119729951,-4.2858325899 -0.9579266104,-4.3732062883 C -0.2796192863,-4.5070770309 0.5240237178,-4.4543222603 1.1719290352,-4.2227026545 C 1.8237121937,-3.9952869051 2.3053299672,-3.5934235679 2.4483379553,-3.1469716667" />
      <path d="M -2.098618823,-3.2351891457 C -1.7029842469,-3.5604209332 -1.0225828332,-3.7737207499 -0.2938668093,-3.7903775552 C 0.433894972,-3.8116984099 1.1940229775,-3.6352929599 1.7223592174,-3.3118807617" />
      <path d="M 1.7665443079,-9.0878313207 L 1.7665443079,-9.169568716" />
      <path d="M 1.7665441783,-9.0878313555 C 2.2318568874,-8.7946728745 2.501414637,-8.3925086634 2.4987617355,-7.9876799803" />
      <path d="M 2.4987617355,-7.9876799803 Q 2.4987125736,-7.8434791757 2.4555269481,-7.7015993315" />
      <path d="M -2.4431957133,-7.3746496146 Q -2.5011495018,-7.5158837125 -2.501238234,-7.6607305499" />
      <path d="M -2.501238234,-7.6607305499 C -2.5016595205,-7.8794182095 -2.3992831567,-8.0978477486 -2.2060362431,-8.2885876454 C -2.0135323912,-8.4795564187 -1.7305805106,-8.6423798405 -1.3901456349,-8.7561044485 C -0.6431980842,-9.0123582068 0.3839458729,-9.0039619009 1.1772628128,-8.7163700627 C 1.5745109397,-8.5757112162 1.9122109419,-8.3717503309 2.1430859068,-8.130418754 C 2.3750133193,-7.8894505869 2.4993752379,-7.6118233452 2.4987617228,-7.3337812979" />
      <path d="M 2.4987617228,-7.3337812979 Q 2.4987125572,-7.1895803116 2.4555268649,-7.0477002722" />
      <path d="M -2.4431958739,-6.7207503431 Q -2.5011495793,-6.8619841698 -2.5012382992,-7.0068309273" />
      <path d="M -2.5012382992,-7.0068309273 C -2.5038912039,-7.3571730643 -2.2343275437,-7.7048491219 -1.769005654,-7.9435173672 C -1.3074356378,-8.1843471368 -0.6566503659,-8.3123995034 -0.0012386814,-8.2836252579 C 0.6541730057,-8.2579078396 1.3049580208,-8.075364174 1.7665283708,-7.780043046 C 2.2318506262,-7.4868834198 2.5014147446,-7.0847154293 2.4987617058,-6.6798818958" />
      <path d="M 2.4987617058,-6.6798818958 Q 2.4987125413,-6.5356810383 2.4555269521,-6.3938011608" />
      <path d="M -2.4431957938,-6.0668512462 Q -2.5011496376,-6.2080853485 -2.5012383725,-6.3529322249" />
      <path d="M -2.5012383725,-6.3529322249 C -2.5038913656,-6.7032740526 -2.2343269952,-7.0509502264 -1.769005064,-7.2896184565 C -1.307435029,-7.530448183 -0.6566501824,-7.6585003537 -0.0012382449,-7.6297260447 C 0.654173723,-7.6040085363 1.3049587111,-7.4214648964 1.7665286079,-7.1261437379 C 2.2318504461,-6.8329840709 2.501415248,-6.4308156514 2.4987617472,-6.0259825487" />
      <path d="M 2.4987617472,-6.0259825487 Q 2.4986774611,-5.8607678482 2.4421528454,-5.6990326758" />
      <path d="M -2.4431958739,-5.4129521493 Q -2.5011496384,-5.5541861012 -2.5012383725,-5.6990328722" />
      <path d="M -2.5012383725,-5.6990328722 C -2.5054137846,-6.0935186965 -2.160305235,-6.4832330663 -1.5872130681,-6.7204246528 C -1.0194187474,-6.9613351961 -0.2364431658,-7.043669833 0.4865090211,-6.9277147784 C 1.0489568407,-6.8403461589 1.5689127596,-6.6369596819 1.9312950423,-6.3572948725 C 2.2961188573,-6.0787844804 2.5003409186,-5.7261215607 2.4987617058,-5.3720832012" />
      <path d="M 2.4987617058,-5.3720832012 Q 2.4987125467,-5.2278822351 2.4555268648,-5.0860022201" />
      <path d="M -2.4431957133,-4.7590528778 Q -2.5011495569,-4.9002870919 -2.5012382992,-5.0451341696" />
      <path d="M -2.5012382992,-5.0451341696 C -2.5005940221,-5.2224330134 -2.4371574914,-5.392535893 -2.3109287072,-5.5554428084 C -2.0930464534,-5.8370141893 -1.6859399026,-6.0719417617 -1.1797152914,-6.2029523141 C -0.6749796931,-6.3355676616 -0.0753359056,-6.3629696972 0.4864985298,-6.2738172347 C 1.0489491486,-6.1864494685 1.5689075703,-5.9830636086 1.9312917325,-5.7033983066 C 2.2961175128,-5.4248873901 2.5003409608,-5.0722231365 2.4987617228,-4.7181837991" />
      <path d="M 2.4987617228,-4.7181837991 Q 2.498712565,-4.573983006 2.4555269481,-4.4321031608" />
      <path d="M -2.4431956851,-4.1051536203 Q -2.5011495044,-4.2463876921 -2.501238234,-4.3912345471" />
      <path d="M -2.501238234,-4.3912345471 C -2.5038912235,-4.7415761691 -2.2343273385,-5.0892527981 -1.7690052875,-5.3279210511 C -1.3074351371,-5.5687507976 -0.6566500069,-5.6968025903 -0.0012382908,-5.6680284569 C 0.6541734263,-5.6423111407 1.3049585325,-5.4597676964 1.7665287064,-5.1644462395 C 2.2318507791,-4.8712862551 2.5014147294,-4.469118331 2.4987617355,-4.0642851167" />
      <path d="M 2.4987617355,-4.0642851167 Q 2.4987125743,-3.920084262 2.4555269165,-3.7782042862" />
      <path d="M -2.4431957448,-3.4512545897 Q -2.5011493927,-3.5924885505 -2.5012381195,-3.7373353021" />
      <path d="M -2.5012381195,-3.7373353021 C -2.5024203981,-4.0217495661 -2.3271810804,-4.3052119824 -2.0092540978,-4.5288931041 C -1.6932264036,-4.7533857307 -1.2364793258,-4.9165679053 -0.7269394782,-4.982764751 C -0.2180859936,-5.0502652018 0.3403976194,-5.0202277668 0.8410015846,-4.8941731746 C 1.3424022822,-4.7694012038 1.7828118821,-4.5492533901 2.077447939,-4.2718479536 C 2.3509953467,-4.0164513838 2.4996255514,-3.7137383349 2.4987617183,-3.4103859379" />
      <path d="M 2.4987617183,-3.4103859379 Q 2.4987245505,-3.2759771705 2.4611589646,-3.1434505039" />
      <path d="M -2.4994841447,-3.1334804824 C -2.4824371165,-3.3874332291 -2.3256601525,-3.6378237355 -2.053526965,-3.8426484303 C -1.7826429582,-4.0479738127 -1.3974824483,-4.2068389765 -0.9579266104,-4.2914688929 C -0.3029624055,-4.420495975 0.4690264165,-4.3764078384 1.1045740312,-4.1639891637 C 1.743317842,-3.9553039325 2.2332910953,-3.5817914971 2.4136229881,-3.1563938684" />
      <path d="M -1.9352481578,-3.2707685394 C -1.5325845157,-3.5296123053 -0.9331988194,-3.6925976079 -0.2990855592,-3.7085013764 C 0.3344565189,-3.7271474098 0.9946561695,-3.5981538262 1.5030835963,-3.3492105392" />
      <path d="M 1.4603552796,-8.0536649168 C 1.0783228315,-8.3028305474 0.5395073185,-8.4585341525 -0.0030043516,-8.4842783332 C -0.5357955049,-8.5119903467 -1.0648894856,-8.4145535743 -1.4447596732,-8.2261469555 C -1.6549535326,-8.1220332353 -1.8145010853,-7.998503088 -1.9234023313,-7.8555565138" />
      <path d="M 1.366840664,-6.8029586077 Q 1.5585208817,-6.9133697794 1.7033389694,-7.0476999861" />
      <path d="M 1.5810231013,-8.6227720476 Q 1.5235051906,-8.6666882609 1.4603552796,-8.7075640673" />
      <path d="M 1.4603552796,-7.3997657507 C 0.9409697108,-7.7419983301 0.1251731299,-7.8990210253 -0.5843664377,-7.8116849336 C -1.0594300723,-7.7570118761 -1.4796229338,-7.5998982009 -1.7442172003,-7.3839895782" />
      <path d="M 1.5810233249,-7.9688727504 Q 1.5235282365,-8.0127729495 1.4603552796,-8.0536649168" />
      <path d="M 1.4603552796,-6.7458665773 C 1.0444990804,-7.0176430745 0.4417815925,-7.1769581382 -0.1476661638,-7.180778409 C -0.8060675821,-7.1896357789 -1.4303084726,-7.0031384282 -1.768515696,-6.7098980563 C -1.9638438853,-6.543895494 -2.068777296,-6.3465861488 -2.0682255514,-6.1490594265" />
      <path d="M -2.0623018603,-6.0668512649 Q -2.0509795037,-5.9884959065 -2.0183504259,-5.9119557597" />
      <path d="M 1.8218992491,-5.8638383969 Q 1.9046766526,-5.961966536 1.9601507989,-6.0668512454" />
      <path d="M 2.0390575125,-6.2685147592 Q 2.055184173,-6.3308415636 2.0615796617,-6.3938008436" />
      <path d="M 1.5810230239,-7.314973806 Q 1.5235274054,-7.3588743501 1.4603552796,-7.3997657507" />
      <path d="M 1.4603552796,-6.0919674333 C 1.0901183865,-6.3332816477 0.5729390828,-6.4872634064 0.0475181755,-6.5197058882 C -0.6624417142,-6.5684997777 -1.3675007897,-6.3875739372 -1.7442168914,-6.0761915308" />
      <path d="M 1.5810230802,-6.6610746187 Q 1.5235128435,-6.7049854123 1.4603552796,-6.7458665773" />
      <path d="M 1.4603552796,-5.4380682185 C 1.2096051453,-5.6007358207 0.8929630742,-5.7249619833 0.5507071043,-5.7972218524 C -0.0311403067,-5.9224769268 -0.6822865901,-5.8894014723 -1.1776181806,-5.7199355935 C -1.5116841353,-5.6076565648 -1.7748880707,-5.43707634 -1.9234021574,-5.2399600929" />
      <path d="M 1.5810225178,-6.0071758525 Q 1.5235193407,-6.0510816729 1.4603552796,-6.0919674333" />
      <path d="M 1.4603552796,-4.784169071 C 0.9834873602,-5.0972267752 0.2582776542,-5.2577778257 -0.4070625889,-5.2120835318 C -0.9526738368,-5.1785086892 -1.4474119414,-5.0112884338 -1.7442164192,-4.7683935021" />
      <path d="M 1.5810227018,-5.3532765627 Q 1.5235263192,-5.3971775921 1.4603552796,-5.4380682185" />
      <path d="M 1.4603552796,-4.1302698811 C 1.1622459384,-4.3239595108 0.770016755,-4.4625669568 0.3537608965,-4.5251377266 C -0.1877960466,-4.6085448083 -0.765171689,-4.5597114663 -1.2100443532,-4.4009388485 C -1.4238577297,-4.324941656 -1.6019151529,-4.229460106 -1.744216623,-4.1144941983" />
      <path d="M 1.5810226524,-4.6993774526 Q 1.5235264221,-4.743278373 1.4603552796,-4.784169071" />
      <path d="M 1.4603552796,-3.4763707796 C 1.0485548305,-3.7454280704 0.4536390221,-3.9044183664 -0.1303582344,-3.9110753137 C -0.5331311027,-3.9172579869 -0.9272870149,-3.8533328027 -1.2486407741,-3.7330292352 C -1.5491947863,-3.6213181548 -1.7854307478,-3.4611662988 -1.9234023167,-3.2782624165" />
      <path d="M 1.5810231455,-4.0454779013 Q 1.5235160903,-4.0893864492 1.4603552796,-4.1302698811" />
      <path d="M 1.6664398202,-3.3219249859 Q 1.5725957694,-3.4037162873 1.4603552796,-3.4763707796" />
      <path d="M 1.4603553064,-8.7075640417 L 1.7665443079,-9.0878313207" />
      <path d="M 4.4601715667,1.5826006314 C 4.3669481654,1.4496499064 4.2782941072,1.3121244124 4.1927879366,1.167819102 C 4.1362760561,1.0703038023 4.0805526289,0.9694607014 4.025617655,0.8652897993 C 3.9983435611,0.8113529388 3.9710694672,0.7574160782 3.9437953732,0.7034792177 C 3.9166882878,0.6467607693 3.8895812023,0.5900423209 3.8624741169,0.5333238725 C 3.8353670314,0.4734743902 3.808259946,0.4136249079 3.7811528605,0.3537754257 C 3.7538787666,0.2904261731 3.7266046727,0.2270769205 3.6993305788,0.1637276679 C 3.6717214389,0.0964883463 3.6441122991,0.0292490246 3.6165031593,-0.0379902971 C 3.5883888719,-0.1095339535 3.5602745845,-0.18107761 3.5321602971,-0.2526212665 C 3.5033676483,-0.3289100428 3.4745749994,-0.4051988191 3.4457823506,-0.4814875954 C 3.4161339469,-0.5629915115 3.3864855432,-0.6444954276 3.3568371396,-0.7259993437 C 3.3261503154,-0.8132205504 3.2954634912,-0.9004417571 3.264776667,-0.9876629638" />
      <path d="M -1.1966331524,-1.6763839073 L -1.448157462,-1.4677604796 L -1.6911703661,-1.2744940809 L -1.9271690828,-1.0953939849 L -2.1576076151,-0.9293567443 L -2.3839057094,-0.7753593932 L -2.6074576027,-0.6324531442 L -2.8296406123,-0.4997575428 L -3.051823622,-0.3764550429 L -3.2753755153,-0.2617859701 L -3.5016736096,-0.1550438408 L -3.7321121419,-0.0555710101 L -3.9681108586,0.0372453805 L -4.2111237627,0.1239771786 L -4.4626480722,0.2051587444" />
      <path d="M 3.264776667,-0.9876629638 L 2.921191885,-0.9769822253 L 2.5892337698,-0.9749602747 L 2.2668571066,-0.9815846547 L 1.9520757122,-0.9968961786 L 1.6429501984,-1.0209891816 L 1.3375760233,-1.0540121023 L 1.0340717573,-1.0961683969 L 0.7305674913,-1.147717793 L 0.4251933162,-1.2089778898 L 0.1160678025,-1.2803261147 L -0.198713592,-1.3622020484 L -0.5210902552,-1.455110134 L -0.8530483704,-1.5596227839 L -1.1966331524,-1.6763839073" />
      <line x1="1.4603552796" y1="-3.4763707796" x2="1.4603552796" y2="-3.3695590575" />
      <line x1="1.4603552796" y1="-4.1302698811" x2="1.4603552796" y2="-4.1051956998" />
      <line x1="1.4603552796" y1="-4.784169071" x2="1.4603552796" y2="-4.7590949428" />
      <line x1="1.4603552796" y1="-5.4380682185" x2="1.4603552796" y2="-5.4129941268" />
      <line x1="1.4603552796" y1="-6.0919674333" x2="1.4603552796" y2="-6.0668933059" />
      <line x1="1.4603552796" y1="-6.7458665773" x2="1.4603552796" y2="-6.7207923895" />
      <line x1="1.4603552796" y1="-6.6390549942" x2="1.4603552796" y2="-6.5814501355" />
      <line x1="1.4603552796" y1="-7.3997657507" x2="1.4603552796" y2="-7.374691527" />
      <line x1="1.4603552796" y1="-7.2929541316" x2="1.4603552796" y2="-7.2353492929" />
      <line x1="1.4603552796" y1="-8.0536649168" x2="1.4603552796" y2="-8.028590611" />
      <line x1="1.4603552796" y1="-8.7075640572" x2="1.4603552796" y2="-8.6007524165" />
      <path d="M -1.8922605165,-7.9564451425 A 2.0669872981077804,1.1908068280622992 -3.8911867295041495e-15 0,1 -2.0196069015,-8.1804792127" />
      <path d="M -2.0682255509,-8.4372348005 A 2.0669872981077804,1.1908068280622992 -3.8911867295041495e-15 0,1 1.4113370128,-9.3065784205" />
      <path d="M -1.3602857754,-9.123042896 C -1.3497077824,-9.1258116299 -1.3404284329,-9.128325062 -1.3034062385,-9.1389663342 C -1.2888132497,-9.1433255147 -1.259797671,-9.1513751661 -1.2163595022,-9.1631152885 C -1.1691080474,-9.1758825447 -1.1131337014,-9.1889518907 -1.0484364642,-9.2023233263 C -0.7933450653,-9.2543087581 -0.4993962947,-9.2755360352 -0.2011999944,-9.2577720315 C 0.4047707835,-9.2245309939 1.0319719646,-9.0260988347 1.4603552796,-8.7075640615" />
      <path d="M -1.3602857754,-9.123042896 L -1.3602857754,-9.2047802913" />
      <path d="M -1.3602857754,-9.2047802913 C -1.3551471222,-9.2079816017 -1.3472350173,-9.2126096777 -1.3365494607,-9.2186645192 C -1.3185244891,-9.2281893385 -1.3040713004,-9.2380979693 -1.2208287,-9.2763423544 C -1.160443274,-9.303830191 -1.0711996131,-9.3393498415 -0.98353463,-9.3679367491 C -0.8991809925,-9.395693267 -0.8117195527,-9.4199470818 -0.7211503106,-9.4406981934 C -0.2992691989,-9.5379377891 0.1749787812,-9.5516126138 0.6056145197,-9.4805456449" />
      <path d="M 1.7665443079,-9.169568716 C 1.4833614543,-9.298834001 1.1575213482,-9.3934365604 0.8173751737,-9.4466349964" />
      <path d="M 0.8173751737,-9.4466349964 C 0.047507988,-9.570017003 -0.7815878353,-9.4687121984 -1.3602857754,-9.2047802913" />
      <path d="M 1.7665443079,-9.0878313207 C 1.2731189098,-9.3143219719 0.6479319271,-9.4304147863 0.047976041,-9.4159722079 C -0.4730552139,-9.4050547305 -0.9710352446,-9.2987519055 -1.3602857754,-9.123042896" />
      <line x1="4.4601715667" y1="1.5826006314" x2="4.4601715667" y2="5.0304678482" />
      <path d="M 4.4601715667,5.0304678482 C 4.2415414479,4.6525201598 4.0520651838,4.2880834915 3.8624741169,3.880862813" />
      <path d="M 3.8624741169,3.880862813 C 3.67288305,3.4727897048 3.4834067859,3.0224262699 3.264776667,2.4602042531" />
      <line x1="3.264776667" y1="-0.9876629638" x2="3.264776667" y2="2.4602042531" />
      <path d="M 1.1941566469,6.9120104999 C 1.7914899886,6.6600254886 2.3091702178,6.4047546461 2.8271641068,6.1067659364" />
      <path d="M 2.8271641068,6.1067659364 C 3.3451579959,5.8079247971 3.862838225,5.4667271881 4.4601715667,5.0304678482" />
      <path d="M -3.2672531726,6.2232895564 C -2.4512897121,6.4413893978 -1.7441332188,6.5935186068 -1.0365482628,6.7031767905" />
      <path d="M -1.0365482628,6.7031767905 C -0.3289633069,6.8119825446 0.3781931864,6.8781849871 1.1941566469,6.9120104999" />
      <line x1="-4.4626480722" y1="0.2051587444" x2="-4.4626480722" y2="3.6530259613" />
      <path d="M -4.4626480722,3.6530259613 C -4.2440179534,4.2152479781 -4.0545416893,4.665611413 -3.8649506224,5.0736845212" />
      <path d="M -3.8649506224,5.0736845212 C -3.6753595555,5.4809051997 -3.4858832914,5.845341868 -3.2672531726,6.2232895564" />
      <line x1="-1.1966331524" y1="-1.6763839073" x2="-1.1966331524" y2="1.7714833096" />
      <path d="M -1.1966331524,1.7714833096 C -1.7939664941,2.2077426494 -2.3116467233,2.5489402585 -2.8296406123,2.8477813977" />
      <path d="M -2.8296406123,2.8477813977 C -3.3476345014,3.1457701074 -3.8653147306,3.4010409499 -4.4626480722,3.6530259613" />
      <path d="M 3.264776667,2.4602042531 C 2.4488132065,2.4263787402 1.7416567132,2.3601762977 1.0340717573,2.2513705436" />
      <path d="M 1.0340717573,2.2513705436 C 0.3264868014,2.14171236 -0.3806696919,1.9895831509 -1.1966331524,1.7714833096" />
      <path d="M 3.8624741207,3.8808628212 A 4.0,2.3044298901157663 -3.8911867295041495e-15 0,1 2.8271641068,6.1067659364" />
      <path d="M 3.8624741207,3.8808628212 A 4.0,2.3044298901157663 180.0 0,0 1.0340717529,2.2513705429" />
      <path d="M 2.8271641068,6.1067659364 A 4.0,2.3044298901157663 -3.8911867295041495e-15 0,1 -1.0365482485,6.7031767927" />
      <path d="M -1.0365482485,6.7031767927 A 4.0,2.3044298901157663 -3.8911867295041495e-15 0,1 -3.8649506262,5.0736845129" />
      <path d="M -3.8649506262,5.0736845129 A 4.0,2.3044298901157663 -3.8911867295041495e-15 0,1 -2.8296406123,2.8477813977" />
      <path d="M -2.8296406123,2.8477813977 A 4.0,2.3044298901157663 -3.8911867295041495e-15 0,1 1.0340717529,2.2513705429" />
      <path d="M 3.966591226,-1.7702682809 A 5.61130913087035,3.2327171209642893 -3.8911867295041495e-15 0,1 4.4601715667,2.4762681493" />
      <path d="M -4.4626480722,2.4762681493 A 5.61130913087035,3.2327171209642893 -3.8911867295041495e-15 0,1 3.966591226,-1.7702682809" />
      <path d="M 4.0667711441,-2.4878281018 C 4.6757159938,-2.1372530828 5.1627835931,-1.7027571244 5.4806807358,-1.209578384 C 5.75379623,-0.787529771 5.9003297699,-0.3202615382 5.8987571833,0.1497659289 C 5.8974482418,0.4684269634 5.8323094688,0.7792243291 5.7033408643,1.0821580258 C 5.5751605475,1.3811582633 5.3918732017,1.6616595121 5.1534788271,1.9236617722 C 4.9550805277,2.1416058143 4.7239781076,2.3430868664 4.4601715667,2.5281049284" />
      <path d="M -4.4626480722,2.5281146806 C -4.7285688288,2.3415878133 -4.961252663,2.1383588782 -5.1606995746,1.9184278753 C -5.3997828947,1.6546244706 -5.5830471387,1.372184396 -5.7104923068,1.0711076515 C -5.9604928003,0.4829541873 -5.9644993477,-0.1644379409 -5.7214293897,-0.7542978636 C -5.6001647686,-1.0499016983 -5.4250413642,-1.3279235563 -5.1960591766,-1.5883634377 C -4.5961154145,-2.2737988 -3.6435235117,-2.8113874426 -2.5134422837,-3.1295527681 C -1.195550527,-3.5046692503 0.3588871918,-3.5686061868 1.7509454625,-3.3066055025 C 2.6135193201,-3.1462955508 3.4117041184,-2.8656940856 4.0667711441,-2.4878281018" />
      <path d="M 2.4987617355,-7.9876799803 L 2.4987617355,-8.0694173757" />
      <path d="M -2.501238234,-7.6607305499 L -2.501238234,-7.7424679452" />
      <path d="M 2.4987617228,-7.3337812979 L 2.4987617228,-7.4155186933" />
      <path d="M -2.5012382992,-7.0068309273 L -2.5012382992,-7.0885683227" />
      <path d="M 2.4987617058,-6.6798818958 L 2.4987617058,-6.7616192912" />
      <path d="M -2.5012383725,-6.3529322249 L -2.5012383725,-6.4346696202" />
      <path d="M 2.4987617472,-6.0259825487 L 2.4987617472,-6.107719944" />
      <path d="M -2.5012383725,-5.6990328722 L -2.5012383725,-5.7807702675" />
      <path d="M 2.4987617058,-5.3720832012 L 2.4987617058,-5.4538205966" />
      <path d="M -2.5012382992,-5.0451341696 L -2.5012382992,-5.126871565" />
      <path d="M 2.4987617228,-4.7181837991 L 2.4987617228,-4.7999211945" />
      <path d="M -2.501238234,-4.3912345471 L -2.501238234,-4.4729719425" />
      <path d="M 2.4987617355,-4.0642851167 L 2.4987617355,-4.146022512" />
      <path d="M -2.5012381195,-3.7373353021 L -2.5012381195,-3.8190726974" />
      <path d="M 2.4987617183,-3.4103859379 L 2.4987617183,-3.4921233332" />
      <path d="M -2.5012381966,-3.1329883839 L -2.5012381966,-3.1651737825" />
      <line x1="2.0657490453" y1="-6.3261502047" x2="2.0657490453" y2="-6.4760090666" />
      <line x1="-2.0682255509" y1="-8.4087133604" x2="-2.0682255509" y2="-8.4372348005" />
      <path d="M 0.6056145202,-9.4805456411 Q 0.7090502091,-9.4636262477 0.8173751737,-9.4466349964" />
    </g>
  </g>
</svg>