<?xml version='1.0' encoding='utf-8'?>
<svg width="259.4765396169mm" height="512.9999999996mm" viewBox="-3.0802856518 -5.0711901035 6.1581722114 12.1750596378" version="1.1" xmlns="http://www.w3.org/2000/svg">
  <g transform="scale(1,-1)" stroke-linecap="round">
    <g fill="none" stroke="rgb(64,192,64)" stroke-width="0.023733059722825238" id="Visible">
      <line x1="2.2441850968" y1="0.4198818683" x2="3.0660199298" y2="2.2157407783" />
      <line x1="-0.8230343791" y1="-0.0613312153" x2="2.2441850968" y2="0.4198818683" />
      <line x1="-3.0684190219" y1="1.2533146111" x2="-0.8230343791" y2="-0.0613312153" />
      <line x1="3.0660199298" y1="2.2157407783" x2="3.0660199298" y2="3.7446776471" />
      <path d="M 3.0660199298,3.7446776471 C 2.9157115696,3.4790515451 2.7854465049,3.2236938411 2.6551025133,2.9391590818" />
      <path d="M 2.6551025133,2.9391590818 C 2.5247585217,2.6540430809 2.394493457,2.3400949642 2.2441850968,1.9488187371" />
      <line x1="2.2441850968" y1="0.4198818683" x2="2.2441850968" y2="1.9488187371" />
      <path d="M 2.2441850968,1.9488187371 C 1.6832101518,1.9236329883 1.1970400088,1.8766534331 0.7105752945,1.8006230749" />
      <path d="M 0.7105752945,1.8006230749 C 0.2241106231,1.7240114818 -0.2620594835,1.6184415197 -0.8230343791,1.4676056535" />
      <line x1="-0.8230343791" y1="-0.0613312153" x2="-0.8230343791" y2="1.4676056535" />
      <path d="M 0.820635287,5.0593234736 C 1.231301847,4.8817081818 1.5872069071,4.7026252363 1.9433276084,4.49441145" />
      <path d="M 1.9433276084,4.49441145 C 2.2994483097,4.2856164222 2.6553533698,4.047943064 3.0660199298,3.7446776471" />
      <path d="M -0.8230343791,1.4676056535 C -1.2337009391,1.7708710704 -1.5896059992,2.0085444286 -1.9457267005,2.2173394564" />
      <path d="M -1.9457267005,2.2173394564 C -2.3018474017,2.4255532427 -2.6577524619,2.6046361882 -3.0684190219,2.78225148" />
      <line x1="-3.0684190219" y1="1.2533146111" x2="-3.0684190219" y2="2.78225148" />
      <path d="M -2.2465841889,4.57811039 C -1.6856092686,4.7289462628 -1.1994391438,4.8345162277 -0.7129744509,4.9111278214" />
      <path d="M -0.7129744509,4.9111278214 C -0.2265097581,4.9871581737 0.2596603667,5.0341377259 0.820635287,5.0593234736" />
      <path d="M -3.0684190219,2.78225148 C -2.9181106617,3.1735277071 -2.787845597,3.4874758238 -2.6575016054,3.7725918246" />
      <path d="M -2.6575016054,3.7725918246 C -2.5271576138,4.057126584 -2.3968925491,4.312484288 -2.2465841889,4.57811039" />
      <path d="M 1.0716291173,0.2359206999 Q 0.9883874293,0.1400838975 0.868101613,0.0606847968" />
      <path d="M 0.868101613,0.0606847968 C 0.5341786885,-0.164489928 -0.0069419259,-0.2555785309 -0.4497675056,-0.1752786997 C -0.6827763564,-0.1352133317 -0.8863200204,-0.0522828759 -1.0244556014,0.0565984989" />
      <path d="M 1.2280432314,0.2038378569 C 1.2247845637,0.0020396679 1.0927090761,-0.1975745219 0.868101613,-0.3446519252" />
      <path d="M -1.2305665639,0.0123116303 Q -1.2305111313,0.0867023491 -1.1993214396,0.1589803537" />
      <path d="M 1.2280434674,-0.2014982073 C 1.2247863116,-0.4032963345 1.0926996541,-0.6029218402 0.868101613,-0.7499889874" />
      <path d="M 0.868101613,-0.7499889874 C 0.6737330207,-0.8788350392 0.4117737912,-0.9672659872 0.1377888139,-0.9995592864 C -0.1244314824,-1.0312418966 -0.3961105536,-1.0114135613 -0.6234284281,-0.946713805 C -0.8513929747,-0.8826571976 -1.0340926093,-0.7740870041 -1.135373781,-0.6451929202 C -1.1984955783,-0.564853719 -1.2302265404,-0.480797909 -1.2305666674,-0.3930254905" />
      <path d="M -0.9623842806,0.0123109358 L -0.9559230144,0.0164734898" />
      <path d="M 0.4777414107,0.1427462346 Q 0.6472817959,0.091059484 0.78845747,0.0123113832" />
      <path d="M 1.2281675125,-0.5956939226 C 1.2294665239,-0.8013054092 1.0969206945,-1.0055318256 0.868101613,-1.1553258304" />
      <path d="M 0.868101613,-1.1553258304 C 0.6670958515,-1.288671931 0.3931615446,-1.3786948267 0.1091633428,-1.4081148541 C -0.1746840205,-1.4385483579 -0.4670446102,-1.4083805612 -0.7010062218,-1.3278865343 C -1.0288288858,-1.2177917759 -1.2334416843,-1.0099451171 -1.2305643309,-0.7983686273" />
      <path d="M -1.2305643309,-0.7983686273 Q -1.230501913,-0.7214428002 -1.1971790429,-0.6468204585" />
      <path d="M -1.1700843226,-0.5956962582 Q -1.1207758553,-0.5155566341 -1.0348696297,-0.4456235003" />
      <path d="M -0.2443826059,-0.1812819947 Q -0.1123265906,-0.1727472649 0.0223645008,-0.1812736033" />
      <path d="M 1.2281667257,-1.0010307635 C 1.2294853215,-1.2065713168 1.0969417328,-1.4108687853 0.868101613,-1.5606629867" />
      <path d="M 0.868101613,-1.5606629867 C 0.5303832756,-1.788540635 -0.0193486659,-1.8787678873 -0.4649943615,-1.7939243424 C -0.5464323402,-1.7790829319 -0.6234695771,-1.7594040143 -0.6961060723,-1.7348875897" />
      <path d="M -1.230566576,-1.2036995543 Q -1.2305507465,-1.1501955548 -1.2142976614,-1.0974932361" />
      <path d="M -0.9623837014,-0.7983622657 Q -0.8156567057,-0.703183649 -0.612004459,-0.6468282588" />
      <path d="M 0.8722678446,-0.8494949438 Q 0.976511207,-0.9189101278 1.0528350333,-1.0010367647" />
      <path d="M 1.0965060353,-1.0521760723 Q 1.1536462826,-1.1252237946 1.1864902352,-1.2037072742" />
      <path d="M 1.2266977846,-1.3680681697 L 1.2281640267,-1.4063673999" />
      <path d="M -0.9623855841,-1.2036980903 Q -0.8156727175,-1.1085417392 -0.6119936539,-1.052168229" />
      <path d="M -0.3451510165,-1.0010309631 Q -0.1650860739,-0.9801771522 0.0223682109,-0.9919478575" />
      <path d="M 0.4028297132,-1.0521642674 Q 0.6154577426,-1.1073826621 0.7884575374,-1.2036991922" />
      <path d="M 1.228043447,-1.8228466445 C 1.2248119379,-2.0245904886 1.0927002102,-2.2242749595 0.868101613,-2.3713366233" />
      <path d="M 0.868101613,-2.3713366233 C 0.4956719645,-2.6242619339 -0.1356137394,-2.7036697504 -0.5990401984,-2.5747496732 C -0.6313782135,-2.5650247593 -0.6637162286,-2.5552998453 -0.6960542437,-2.5455749314" />
      <path d="M -1.2305636163,-2.0143651896 Q -1.2305619263,-1.9826186436 -1.2248088551,-1.9510401875" />
      <path d="M -0.9623738435,-1.6090424979 Q -0.8155618579,-1.5138141793 -0.6120045595,-1.4575015853" />
      <path d="M -0.2442932219,-1.3972978907 Q -0.0609206272,-1.3854639356 0.1251245906,-1.406369534" />
      <path d="M 0.4028312773,-1.4575007815 Q 0.6155244815,-1.5127406562 0.788454928,-1.6090378377" />
      <path d="M 0.8722624508,-1.6601721723 Q 0.9765196584,-1.7296005854 1.0528389445,-1.8117029598" />
      <path d="M 1.1272758636,-1.9051550234 Q 1.1631413368,-1.9584911969 1.186493837,-2.0143732893" />
      <path d="M 1.2050274145,-2.0655066758 Q 1.2281410205,-2.1406296359 1.2281675114,-2.2170419331" />
      <path d="M 1.2281675114,-2.2170419331 C 1.2295277029,-2.4225205293 1.0968927565,-2.6269315716 0.868101613,-2.7766736855" />
      <path d="M 0.868101613,-2.7766736855 C 0.5718313698,-2.9752675247 0.1136361068,-3.0721181574 -0.2959188982,-3.0327956278 C -0.4400721413,-3.0195299429 -0.5734693356,-2.9922304373 -0.6961104811,-2.9508971109" />
      <path d="M -1.2305589489,-2.4197300502 Q -1.2305472835,-2.3662244116 -1.2142972809,-2.3135049643" />
      <path d="M -0.3451551825,-1.8117042785 Q -0.114155426,-1.7850282258 0.1251287806,-1.8117058046" />
      <path d="M 0.8722663094,-2.0655067618 Q 0.976500147,-2.1349185804 1.0528404417,-2.2170416271" />
      <path d="M 1.0965151659,-2.2681754846 Q 1.1536722272,-2.3412364972 1.1864937009,-2.4197104389" />
      <path d="M 1.2050255135,-2.4708373837 Q 1.228136811,-2.5459386281 1.2281674183,-2.6223788675" />
      <path d="M 1.2281674183,-2.6223788675 C 1.2294689692,-2.8279906591 1.0969150564,-3.032220222 0.868101613,-3.1820105285" />
      <path d="M 0.868101613,-3.1820105285 Q 0.7147735358,-3.2828025484 0.5184773963,-3.3478763923" />
      <path d="M -1.2305648673,-2.8250684047 Q -1.2305478762,-2.7715816522 -1.2142862963,-2.7188496395" />
      <path d="M 0.402829447,-2.2681751416 Q 0.6155043816,-2.3234127265 0.7884573166,-2.4197101501" />
      <path d="M 0.8722654841,-2.4708441532 Q 0.9765094116,-2.5402712504 1.0528399407,-2.6223789764" />
      <path d="M 1.0965164759,-2.6735118185 Q 1.1536698935,-2.7465629366 1.1864909882,-2.8250539524" />
      <path d="M -0.3451470142,-2.6223791235 Q -0.1141964951,-2.5957054346 0.1251371391,-2.6223787615" />
      <path d="M 0.4028298138,-2.6735121272 Q 0.615610968,-2.728790866 0.7884575122,-2.8250470204" />
      <path d="M 0.5184792788,-4.1585497035 C 0.1374467101,-4.2870186896 -0.3357642254,-4.2878065419 -0.6846707672,-4.1707174686 C -1.0217938139,-4.0619509951 -1.2336026956,-3.8508395191 -1.2305692923,-3.6357172241" />
      <path d="M -0.3451490397,-3.0277153677 Q -0.1141577797,-3.0010385283 0.1251381065,-3.0277157526" />
      <path d="M 0.4028250916,-3.0788501546 Q 0.615551995,-3.1341050807 0.7884595669,-3.2303827568" />
      <path d="M -0.696106013,-4.5722462976 C -1.0266298583,-4.4625631332 -1.2334502662,-4.253826874 -1.2305666632,-4.0410577441" />
      <path d="M -0.3451508479,-3.4330524952 Q -0.165084457,-3.4121979247 0.022369744,-3.4239694136" />
      <path d="M 0.5184703022,-4.9692257688 C 0.4303909257,-4.9983278169 0.3387457457,-5.0210914887 0.243534762,-5.0375167842 C -0.0086764943,-5.0813532927 -0.2771119142,-5.0769330914 -0.5111254479,-5.0276045631 C -0.7456173264,-4.9788903828 -0.9448100793,-4.8855354918 -1.071129224,-4.7676750931 C -1.1764831577,-4.6686361754 -1.2296289507,-4.5615427664 -1.230566603,-4.4463948664" />
      <path d="M 0.0223644932,-4.2346429999 L 0.1251373009,-4.2437263388" />
      <path d="M 0.868101613,-5.6140323829 C 0.667808523,-5.7468993447 0.3951027617,-5.8367745344 0.1121673678,-5.8665019833 C -0.1706185043,-5.8972261187 -0.4621032402,-5.8678234436 -0.6961060865,-5.7882569822" />
      <path d="M -0.3451514377,-4.6490633416 L -0.2443835065,-4.6399885063" />
      <path d="M 0.0223656241,-4.6399801502 L 0.1251343068,-4.6490630198" />
      <path d="M 0.868101613,-6.0193692975 C 0.6727871483,-6.1488500721 0.409193531,-6.2375050782 0.1337612694,-6.2694162498 C -0.1558215537,-6.3039601327 -0.4562791772,-6.2752003954 -0.6961066319,-6.1935938126" />
      <path d="M -1.2305666401,-5.6624056792 Q -1.230503577,-5.5854782059 -1.197180315,-5.5108664224" />
      <path d="M -1.1700857819,-5.4597372554 Q -1.1207998898,-5.3796205265 -1.0348693122,-5.3096667076" />
      <path d="M -0.2443857002,-5.0453255501 Q -0.1122943311,-5.0367904804 0.0223678728,-5.0453172713" />
      <path d="M 1.2281632988,-5.8650833361 C 1.2294499941,-6.0707146099 1.0969349267,-6.2748805666 0.868101613,-6.4247060195" />
      <path d="M 0.868101613,-6.4247060195 C 0.5444927959,-6.6425309976 0.0267784502,-6.7357298271 -0.4081730177,-6.6673820201 C -0.5105244933,-6.651982037 -0.6065022488,-6.6291650056 -0.696106284,-6.5989309259" />
      <path d="M -1.2305665763,-6.0677424673 Q -1.230507063,-5.9908292678 -1.1971804559,-5.9162035043" />
      <path d="M -1.1700858272,-5.865074126 Q -1.120266616,-5.7840974037 -1.0330628286,-5.7135405291" />
      <path d="M 0.4028294681,-5.5108706401 Q 0.6155007882,-5.5661071861 0.7884576615,-5.6624056937" />
      <path d="M 1.0594696223,-6.8158852862 C 1.3386557312,-6.636847557 1.5003925519,-6.3913412812 1.4988010028,-6.14420948" />
      <path d="M 1.4982593402,-6.1188759191 Q 1.4938097865,-6.0161439662 1.4543345765,-5.9162075877" />
      <path d="M -0.2443842635,-5.1657420109 Q -0.4822914432,-5.1784929363 -0.6961089424,-5.2334849343" />
      <path d="M -1.1392344779,-5.4151759209 L -1.1805540638,-5.441820584" />
      <path d="M -1.2142924356,-5.4655372687 C -1.399868052,-5.6007444878 -1.501868743,-5.7708730769 -1.5011991229,-5.9415411464" />
      <path d="M -1.5011991229,-5.9415411464 C -1.5027908903,-6.1548973984 -1.3410532289,-6.366628344 -1.0618601711,-6.5118883667 C -0.7849183106,-6.6584664268 -0.3944465947,-6.7362749157 -0.0011993069,-6.7184538619 C 0.392048049,-6.7024967929 0.7825182959,-6.5909102744 1.059460063,-6.4105542621 C 1.3386528499,-6.2315162975 1.5003926908,-5.9860072341 1.4988010028,-5.7388728127" />
      <path d="M 1.4988010028,-5.7388728127 C 1.4994026789,-5.5465116253 1.4029889016,-5.3546215238 1.2267006833,-5.1949702413" />
      <path d="M 1.2118726841,-5.1817206966 L 1.1499004655,-5.13086729" />
      <path d="M 1.1157689531,-5.1055336536 L 1.1033199056,-5.0967054834" />
      <path d="M 0.5184290802,-4.8364939054 C 0.1265751917,-4.7325417637 -0.3262063071,-4.7315589686 -0.6961194415,-4.8281509761" />
      <path d="M -1.1392354229,-5.0098399601 L -1.1805538633,-5.036483861" />
      <path d="M -1.2142901545,-5.0601989636 L -1.2717483775,-5.1055333975" />
      <path d="M -1.3002463183,-5.1308668964 C -1.4314594812,-5.252294243 -1.5015255943,-5.3941405702 -1.5011995528,-5.5362041118" />
      <path d="M -1.5011995528,-5.5362041118 C -1.5027913621,-5.74956055 -1.3410529105,-5.9612918909 -1.0618596293,-6.1065517364 C -0.7849174868,-6.2531296531 -0.3944464855,-6.3309376785 -0.0011995461,-6.3131166646 C 0.3920473934,-6.2971596036 0.7825183947,-6.1855735031 1.0594605372,-6.0052175114 C 1.3386538184,-5.826179591 1.50039227,-5.5806701752 1.4988004607,-5.3335356619" />
      <path d="M 1.4988004607,-5.3335356619 L 1.4982588045,-5.308202104" />
      <path d="M -1.5004729714,-5.1055338236 L -1.5012000949,-5.1308673797" />
      <path d="M -1.5012000949,-5.1308673797 C -1.5027917829,-5.3442237247 -1.3410519419,-5.5559547117 -1.0618591549,-5.7012146 C -0.7849173878,-5.8477925359 -0.3944471409,-5.9256009781 -0.0011997851,-5.9077799708 C 0.3920475027,-5.8918229483 0.7825192185,-5.780236383 1.059461079,-5.5998802466 C 1.3386541368,-5.4208421476 1.5003917982,-5.1753331257 1.4988000308,-4.9281987974" />
      <path d="M 1.4988000308,-4.9281987974 L 1.4982583758,-4.9028652387" />
      <path d="M -1.5012000949,-4.7255302153 C -1.502791777,-4.9388889307 -1.3410476612,-5.1506219469 -1.0618507212,-5.2958822976 C -0.6477236277,-5.5191468899 0.0277456303,-5.5724804016 0.5728316424,-5.4102550955 C 0.8452551571,-5.3318472587 1.0827367564,-5.2050685122 1.2460066969,-5.0487882113 C 1.410138543,-4.8928450959 1.4993187616,-4.7080486261 1.4988004607,-4.5228619329" />
      <path d="M -1.500472438,-4.2948599232 L -1.5011995528,-4.320193483" />
      <path d="M -1.5011995528,-4.320193483 C -1.5017178683,-4.4800478602 -1.4125363315,-4.639512 -1.2484022547,-4.7701221773 C -1.0851301054,-4.9010695518 -0.847645416,-5.0025147423 -0.5752189799,-5.055588134 C -0.0301270114,-5.1671447007 0.6453467722,-5.0631383101 1.0594696223,-4.7892005881 C 1.3386557312,-4.6101628589 1.5003925519,-4.3646565831 1.4988010028,-4.1175247819" />
      <path d="M 1.4988010028,-4.1175247819 L 1.4982593402,-4.092191221" />
      <path d="M -1.5004720096,-3.8895228896 L -1.5011991229,-3.9148564483" />
      <path d="M -1.5011991229,-3.9148564483 C -1.5027908903,-4.1282127003 -1.3410532289,-4.3399436459 -1.0618601711,-4.4852036686 C -0.7849183106,-4.6317817287 -0.3944465947,-4.7095902176 -0.0011993069,-4.6917691638 C 0.392048049,-4.6758120948 0.7825182959,-4.5642255763 1.059460063,-4.383869564 C 1.3386528499,-4.2048315994 1.5003926908,-3.959322536 1.4988010028,-3.7121881146" />
      <path d="M 1.4988010028,-3.7121881146 Q 1.4987140564,-3.5965965794 1.4543343736,-3.4841859898" />
      <path d="M 0.5184783296,-2.8098221144 Q 0.2782752272,-2.7471746709 0.0223679405,-2.7337285115" />
      <path d="M -0.2443856061,-2.7337202242 Q -0.4822908099,-2.7464714008 -0.6961067125,-2.8014629997" />
      <path d="M -1.500472438,-3.4841858561 L -1.5011995528,-3.5095194137" />
      <path d="M -1.5011995528,-3.5095194137 C -1.5027913621,-3.7228758519 -1.3410529105,-3.9346071928 -1.0618596293,-4.0798670383 C -0.7849174868,-4.226444955 -0.3944464855,-4.3042529805 -0.0011995461,-4.2864319666 C 0.3920473934,-4.2704749055 0.7825183947,-4.158888805 1.0594605372,-3.9785328134 C 1.3386538184,-3.7994948929 1.50039227,-3.5539854771 1.4988004607,-3.3068509638" />
      <path d="M 1.4988004607,-3.3068509638 L 1.4982588045,-3.2815174059" />
      <path d="M -1.5012000949,-3.1041826816 C -1.5027917829,-3.3175390266 -1.3410519419,-3.5292700136 -1.0618591549,-3.674529902 C -0.7849173878,-3.8211078379 -0.3944471409,-3.89891628 -0.0011997851,-3.8810952727 C 0.3920475027,-3.8651382502 0.7825192185,-3.7535516849 1.059461079,-3.5731955485 C 1.3386541368,-3.3941574495 1.5003917982,-3.1486484276 1.4988000308,-2.9015140994" />
      <path d="M 1.4982583758,-2.8761805406 Q 1.493808916,-2.7734487354 1.4543342322,-2.6735124925" />
      <path d="M -0.2443859237,-1.9230465899 Q -0.4822828968,-1.9357970963 -0.6960923588,-1.9907852617" />
      <path d="M -1.5012000949,-2.6988455172 C -1.502791777,-2.9122042326 -1.3410476612,-3.1239372488 -1.0618507212,-3.2691975995 C -0.6477236277,-3.4924621918 0.0277456303,-3.5457957036 0.5728316424,-3.3835703974 C 0.8452551571,-3.3051625606 1.0827367564,-3.1783838142 1.2460066969,-3.0221035132 C 1.410138543,-2.8661603978 1.4993187616,-2.681363928 1.4988004607,-2.4961772348" />
      <path d="M 1.4988004607,-2.4961772348 Q 1.4987135313,-2.3805857404 1.4543343735,-2.2681750913" />
      <path d="M 0.5184791545,-1.5938113451 Q 0.2782739533,-1.5311639046 0.0223645466,-1.5177180841" />
      <path d="M -0.2443826962,-1.5177096951 Q -0.4822857769,-1.5304601702 -0.6961003136,-1.5854503395" />
      <path d="M -1.500472438,-2.2681752251 L -1.5011995528,-2.293508785" />
      <path d="M -1.5011995528,-2.293508785 C -1.5017178683,-2.4533631621 -1.4125363315,-2.6128273019 -1.2484022547,-2.7434374792 C -1.0851301054,-2.8743848537 -0.847645416,-2.9758300442 -0.5752189799,-3.0289034359 C -0.0301270114,-3.1404600026 0.6453467722,-3.036453612 1.0594696223,-2.76251589 C 1.3386557312,-2.5834781608 1.5003925519,-2.337971885 1.4988010028,-2.0908400838" />
      <path d="M 1.4988010028,-2.0908400838 Q 1.4987140409,-1.9752486954 1.4543345765,-1.8628381915" />
      <path d="M 0.5184775223,-1.1884738429 Q 0.2782735616,-1.1258267318 0.0223651892,-1.1123809083" />
      <path d="M -0.244384297,-1.1123726164 Q -0.482289927,-1.1251234581 -0.6961062565,-1.1801148464" />
      <path d="M -1.5004720096,-1.8628381915 L -1.5011991229,-1.8881717503" />
      <path d="M -1.5011991229,-1.8881717503 C -1.5027908903,-2.1015280022 -1.3410532289,-2.3132589478 -1.0618601711,-2.4585189705 C -0.7849183106,-2.6050970306 -0.3944465947,-2.6829055196 -0.0011993069,-2.6650844657 C 0.392048049,-2.6491273967 0.7825182959,-2.5375408782 1.059460063,-2.357184866 C 1.3386528499,-2.1781469013 1.5003926908,-1.9326378379 1.4988010028,-1.6855034166" />
      <path d="M 1.4988010028,-1.6855034166 Q 1.4987471199,-1.5830576889 1.4637683404,-1.4828346918" />
      <path d="M 1.4543343736,-1.4575012917 Q 1.3865044055,-1.2872688004 1.2267006476,-1.1416008127" />
      <path d="M 1.2118723344,-1.1283509933 Q 1.1613865523,-1.0840268067 1.1033199024,-1.043336085" />
      <path d="M 0.518478352,-0.7831374222 Q 0.2782748861,-0.7204898825 0.0223672091,-0.7070437752" />
      <path d="M -1.5011995528,-1.4828347156 C -1.5027913621,-1.6961911538 -1.3410529105,-1.9079224947 -1.0618596293,-2.0531823402 C -0.7849174868,-2.1997602569 -0.3944464855,-2.2775682824 -0.0011995461,-2.2597472685 C 0.3920473934,-2.2437902074 0.7825183947,-2.1322041069 1.0594605372,-1.9518481153 C 1.3386538184,-1.7728101948 1.50039227,-1.527300779 1.4988004607,-1.2801662658" />
      <path d="M -0.2443861069,-0.3016986795 Q -0.4822575266,-0.3144481698 -0.696047946,-0.3694265258" />
      <path d="M -1.1392268963,-0.5511283279 L -1.1805537966,-0.5777776285" />
      <path d="M -1.2142928497,-0.6014949271 C -1.3998671404,-0.7367020637 -1.5018698942,-0.906830164 -1.5012000949,-1.0774979835" />
      <path d="M -1.5012000949,-1.0774979835 C -1.5027917829,-1.2908543285 -1.3410519419,-1.5025853156 -1.0618591549,-1.6478452039 C -0.7849173878,-1.7944231398 -0.3944471409,-1.8722315819 -0.0011997851,-1.8544105746 C 0.3920475027,-1.8384535521 0.7825192185,-1.7268669868 1.059461079,-1.5465108504 C 1.3386541368,-1.3674727514 1.5003917982,-1.1219637296 1.4988000308,-0.8748294013" />
      <path d="M 1.4988000308,-0.8748294013 L 1.4982583758,-0.8494958425" />
      <path d="M -1.5004729714,-0.6468272578 L -1.5012000949,-0.6721608191" />
      <path d="M -1.5012000949,-0.6721608191 C -1.502791777,-0.8855195345 -1.3410476612,-1.0972525507 -1.0618507212,-1.2425129014 C -0.6477236277,-1.4657774937 0.0277456303,-1.5191110055 0.5728316424,-1.3568856993 C 0.8452551571,-1.2784778626 1.0827367564,-1.1516991161 1.2460066969,-0.9954188152 C 1.410138543,-0.8394756997 1.4993187616,-0.6546792299 1.4988004607,-0.4694925367" />
      <path d="M 1.4988004607,-0.4694925367 L 1.4982588045,-0.4441589772" />
      <path d="M -1.500472438,-0.241490527 L -1.5011995528,-0.2668240869" />
      <path d="M -1.5011995528,-0.2668240869 C -1.5017178683,-0.426678464 -1.4125363315,-0.5861426038 -1.2484022547,-0.7167527811 C -1.0851301054,-0.8477001556 -0.847645416,-0.9491453462 -0.5752189799,-1.0022187378 C -0.0301270114,-1.1137753045 0.6453467722,-1.009768914 1.0594696223,-0.7358311919 C 1.3386557312,-0.5567934627 1.5003925519,-0.3112871869 1.4988010028,-0.0641553857" />
      <path d="M 1.4988010028,-0.0641553857 L 1.4982593402,-0.0388218248" />
      <path d="M -1.5011991229,0.1385129478 C -1.5027124063,-0.072057747 -1.3453260626,-0.281104943 -1.0726188197,-0.4261282739 C -0.8020734867,-0.572391815 -0.4198491713,-0.6524549729 -0.0317837283,-0.6395326428 C 0.3562200669,-0.628382025 0.7448611594,-0.5241838752 1.0265271425,-0.3511745787 C 1.3102667065,-0.1794560757 1.4832418026,0.0589860385 1.4975537818,0.3027436067" />
      <path d="M -1.4278022001,0.2927531036 C -1.3393541654,0.1448249329 -1.1698674691,0.012675841 -0.946123535,-0.0808581838 C -0.7229743009,-0.1748214974 -0.4464868104,-0.229733392 -0.160350079,-0.2349628459 C 0.4144292201,-0.2501279008 1.0104064468,-0.0486282571 1.2954900695,0.2710420272" />
      <path d="M 1.0594696223,-6.8158852862 L 1.0594696223,-6.7652181687" />
      <path d="M 1.0594696223,-6.7652181687 C 1.3386557312,-6.5861804395 1.5003925519,-6.3406741638 1.4988010028,-6.0935423626" />
      <path d="M 1.4988010028,-6.0935423626 Q 1.4978607335,-5.8814300879 1.3537829666,-5.6882058171" />
      <path d="M 1.2209746242,-5.5444683277 Q 1.1771126361,-5.5051287463 1.1272755585,-5.4685541735" />
      <path d="M 1.0765420918,-5.4330736567 Q 1.0032296136,-5.3842148398 0.9200608272,-5.3417852631" />
      <path d="M -1.037805258,-5.308202067 Q -1.1258621504,-5.3522816386 -1.1991992329,-5.4040240269" />
      <path d="M -1.2248042096,-5.4226652571 C -1.4037907428,-5.5565649865 -1.501819998,-5.7234744212 -1.5011991229,-5.890874029" />
      <path d="M -1.5011991229,-5.890874029 C -1.5027908903,-6.104230281 -1.3410532289,-6.3159612266 -1.0618601711,-6.4612212492 C -0.7849183106,-6.6077993093 -0.3944465947,-6.6856077983 -0.0011993069,-6.6677867445 C 0.392048049,-6.6518296754 0.7825182959,-6.5402431569 1.059460063,-6.3598871447 C 1.3386528499,-6.18084918 1.5003926908,-5.9353401166 1.4988010028,-5.6882056953" />
      <path d="M 1.4988010028,-5.6882056953 Q 1.4978606799,-5.476093349 1.3537826191,-5.2828690934" />
      <path d="M 1.2209746972,-5.1391316474 L 1.18181184,-5.1055338199" />
      <path d="M -1.0348692935,-4.9014009287 Q -1.1246323304,-4.9460778834 -1.1991990385,-4.998687277" />
      <path d="M -1.2248037612,-5.0173282676 Q -1.2652669866,-5.0477345761 -1.3002463183,-5.0801997789" />
      <path d="M -1.326394447,-5.1055332975 Q -1.4998267764,-5.2830056288 -1.5011995528,-5.4855369943" />
      <path d="M -1.5011995528,-5.4855369943 C -1.5027913621,-5.6988934326 -1.3410529105,-5.9106247734 -1.0618596293,-6.0558846189 C -0.7849174868,-6.2024625356 -0.3944464855,-6.2802705611 -0.0011995461,-6.2624495472 C 0.3920473934,-6.2464924861 0.7825183947,-6.1349063856 1.0594605372,-5.954550394 C 1.3386538184,-5.7755124736 1.50039227,-5.5300030577 1.4988004607,-5.2828685445" />
      <path d="M 1.4988004607,-5.2828685445 Q 1.4987465838,-5.1804226969 1.463768137,-5.0801996366" />
      <path d="M -1.465100354,-4.9028652388 Q -1.5011428694,-4.9903701239 -1.5012000949,-5.0802002623" />
      <path d="M -1.5012000949,-5.0802002623 C -1.5027917829,-5.2935566072 -1.3410519419,-5.5052875943 -1.0618591549,-5.6505474826 C -0.7849173878,-5.7971254185 -0.3944471409,-5.8749338607 -0.0011997851,-5.8571128533 C 0.3920475027,-5.8411558308 0.7825192185,-5.7295692655 1.059461079,-5.5492131292 C 1.3386541368,-5.3701750302 1.5003917982,-5.1246660083 1.4988000308,-4.87753168" />
      <path d="M 1.4988000308,-4.87753168 Q 1.4987686538,-4.7881233458 1.4720466262,-4.7001973931" />
      <path d="M 1.463768137,-4.6748637234 Q 1.427001818,-4.5698743686 1.3537826191,-4.4721942665" />
      <path d="M 1.2209747508,-4.3284570256 L 1.1499006723,-4.269525975" />
      <path d="M -1.0348690888,-4.09072689 Q -1.1246321648,-4.1354039503 -1.1991989753,-4.1880135193" />
      <path d="M -1.2248092422,-4.2066587086 C -1.4037924151,-4.3405576049 -1.5018209435,-4.5074652837 -1.5012000949,-4.6748630978" />
      <path d="M -1.5012000949,-4.6748630978 C -1.502791777,-4.8882218133 -1.3410476612,-5.0999548294 -1.0618507212,-5.2452151801 C -0.6477236277,-5.4684797724 0.0277456303,-5.5218132842 0.5728316424,-5.359587978 C 0.8452551571,-5.2811801413 1.0827367564,-5.1544013948 1.2460066969,-4.9981210939 C 1.410138543,-4.8421779785 1.4993187616,-4.6573815087 1.4988004607,-4.4721948155" />
      <path d="M 1.4988004607,-4.4721948155 Q 1.4987465873,-4.3697492834 1.4637683404,-4.2695263893" />
      <path d="M -1.4538504842,-4.0668574651 Q -1.5011009394,-4.1664439321 -1.5011995528,-4.2695263656" />
      <path d="M -1.5011995528,-4.2695263656 C -1.5017178683,-4.4293807427 -1.4125363315,-4.5888448825 -1.2484022547,-4.7194550598 C -1.0851301054,-4.8504024343 -0.847645416,-4.9518476249 -0.5752189799,-5.0049210166 C -0.0301270114,-5.1164775832 0.6453467722,-5.0124711927 1.0594696223,-4.7385334706 C 1.3386557312,-4.5594957414 1.5003925519,-4.3139894657 1.4988010028,-4.0668576645" />
      <path d="M 1.4988010028,-4.0668576645 Q 1.4987471073,-3.96441216 1.463768559,-3.8641893309" />
      <path d="M -1.4538504843,-3.6615211967 Q -1.5011005129,-3.7611072731 -1.5011991229,-3.8641893309" />
      <path d="M -1.5011991229,-3.8641893309 C -1.5027908903,-4.0775455829 -1.3410532289,-4.2892765285 -1.0618601711,-4.4345365512 C -0.7849183106,-4.5811146112 -0.3944465947,-4.6589231002 -0.0011993069,-4.6411020464 C 0.392048049,-4.6251449774 0.7825182959,-4.5135584588 1.059460063,-4.3332024466 C 1.3386528499,-4.1541644819 1.5003926908,-3.9086554185 1.4988010028,-3.6615209972" />
      <path d="M 1.4988010028,-3.6615209972 Q 1.4987471199,-3.5590752695 1.4637683404,-3.4588522724" />
      <path d="M -1.4651004241,-3.2815177479 Q -1.5011423347,-3.3690223789 -1.5011995528,-3.4588522962" />
      <path d="M -1.5011995528,-3.4588522962 C -1.5027913621,-3.6722087345 -1.3410529105,-3.8839400754 -1.0618596293,-4.0291999208 C -0.7849174868,-4.1757778375 -0.3944464855,-4.253585863 -0.0011995461,-4.2357648491 C 0.3920473934,-4.219807788 0.7825183947,-4.1082216876 1.0594605372,-3.9278656959 C 1.3386538184,-3.7488277755 1.50039227,-3.5033183596 1.4988004607,-3.2561838464" />
      <path d="M 1.4988004607,-3.2561838464 Q 1.4987690805,-3.1667748775 1.4720466262,-3.0788483862" />
      <path d="M -1.4538505807,-2.8508469819 Q -1.5011014621,-2.9504332441 -1.5012000949,-3.0535155642" />
      <path d="M -1.5012000949,-3.0535155642 C -1.5027917829,-3.2668719092 -1.3410519419,-3.4786028962 -1.0618591549,-3.6238627845 C -0.7849173878,-3.7704407204 -0.3944471409,-3.8482491626 -0.0011997851,-3.8304281552 C 0.3920475027,-3.8144711327 0.7825192185,-3.7028845675 1.059461079,-3.5225284311 C 1.3386541368,-3.3434903321 1.5003917982,-3.0979813102 1.4988000308,-2.8508469819" />
      <path d="M 1.4988000308,-2.8508469819 C 1.4993949849,-2.6590225807 1.4035349268,-2.4676625588 1.2281675153,-2.3082799484" />
      <path d="M 1.2209747554,-2.3017723317 Q 1.1771129132,-2.2624328497 1.1272759441,-2.2258583615" />
      <path d="M 1.076542373,-2.1903777903 Q 1.0032315273,-2.141520105 0.920064704,-2.0990913587" />
      <path d="M -1.4538507397,-2.4455098913 Q -1.5011014457,-2.5450961458 -1.5012000949,-2.6481783997" />
      <path d="M -1.5012000949,-2.6481783997 C -1.502791777,-2.8615371152 -1.3410476612,-3.0732701313 -1.0618507212,-3.2185304821 C -0.6477236277,-3.4417950743 0.0277456303,-3.4951285861 0.5728316424,-3.3329032799 C 0.8452551571,-3.2544954432 1.0827367564,-3.1277166967 1.2460066969,-2.9714363958 C 1.410138543,-2.8154932804 1.4993187616,-2.6306968106 1.4988004607,-2.4455101174" />
      <path d="M 1.4988004607,-2.4455101174 C 1.4993954349,-2.2536857065 1.4035350554,-2.0623255 1.2281675153,-1.9029429418" />
      <path d="M 1.2209747361,-1.8964353137 L 1.1818124947,-1.8628381916" />
      <path d="M 1.149901076,-1.8375046328 L 1.12727589,-1.8205213791" />
      <path d="M 1.0765410892,-1.7850400135 Q 1.0032221436,-1.7361770788 0.9200452336,-1.6937445526" />
      <path d="M -1.4538504842,-2.040172767 Q -1.5011009394,-2.139759234 -1.5011995528,-2.2428416675" />
      <path d="M -1.5011995528,-2.2428416675 C -1.5017178683,-2.4026960446 -1.4125363315,-2.5621601844 -1.2484022547,-2.6927703617 C -1.0851301054,-2.8237177362 -0.847645416,-2.9251629268 -0.5752189799,-2.9782363185 C -0.0301270114,-3.0897928851 0.6453467722,-2.9857864946 1.0594696223,-2.7118487726 C 1.3386557312,-2.5328110433 1.5003925519,-2.2873047676 1.4988010028,-2.0401729664" />
      <path d="M 1.4988010028,-2.0401729664 Q 1.4987471073,-1.9377274619 1.463768559,-1.8375046328" />
      <path d="M -1.4651001109,-1.660170131 Q -1.501141909,-1.7476747854 -1.5011991229,-1.8375046328" />
      <path d="M -1.5011991229,-1.8375046328 C -1.5027908903,-2.0508608848 -1.3410532289,-2.2625918304 -1.0618601711,-2.4078518531 C -0.7849183106,-2.5544299132 -0.3944465947,-2.6322384021 -0.0011993069,-2.6144173483 C 0.392048049,-2.5984602793 0.7825182959,-2.4868737607 1.059460063,-2.3065177485 C 1.3386528499,-2.1274797838 1.5003926908,-1.8819707204 1.4988010028,-1.6348362991" />
      <path d="M 1.4988010028,-1.6348362991 Q 1.4987696203,-1.5454274033 1.4720468875,-1.4575009444" />
      <path d="M -1.4538507397,-1.2294993744 Q -1.501100936,-1.3290854321 -1.5011995528,-1.4321675982" />
      <path d="M -1.5011995528,-1.4321675982 C -1.5027913621,-1.6455240364 -1.3410529105,-1.8572553773 -1.0618596293,-2.0025152227 C -0.7849174868,-2.1490931394 -0.3944464855,-2.2269011649 -0.0011995461,-2.209080151 C 0.3920473934,-2.1931230899 0.7825183947,-2.0815369895 1.0594605372,-1.9011809978 C 1.3386538184,-1.7221430774 1.50039227,-1.4766336615 1.4988004607,-1.2294991483" />
      <path d="M 1.4988004607,-1.2294991483 Q 1.4987465838,-1.1270533008 1.463768137,-1.0268302404" />
      <path d="M -1.465100354,-0.8494958426 Q -1.5011428694,-0.9370007277 -1.5012000949,-1.0268308661" />
      <path d="M -1.5012000949,-1.0268308661 C -1.5027917829,-1.2401872111 -1.3410519419,-1.4519181981 -1.0618591549,-1.5971780864 C -0.7849173878,-1.7437560223 -0.3944471409,-1.8215644645 -0.0011997851,-1.8037434572 C 0.3920475027,-1.7877864346 0.7825192185,-1.6761998694 1.059461079,-1.495843733 C 1.3386541368,-1.316805634 1.5003917982,-1.0712966121 1.4988000308,-0.8241622838" />
      <path d="M 1.4988000308,-0.8241622838 Q 1.4987461588,-0.7217169721 1.463768137,-0.6214943272" />
      <path d="M -1.4651004241,-0.4441586353 Q -1.5011428559,-0.5316635627 -1.5012000949,-0.6214937017" />
      <path d="M -1.5012000949,-0.6214937017 C -1.502791777,-0.8348524171 -1.3410476612,-1.0465854332 -1.0618507212,-1.191845784 C -0.6477236277,-1.4151103762 0.0277456303,-1.468443888 0.5728316424,-1.3062185818 C 0.8452551571,-1.2278107451 1.0827367564,-1.1010319986 1.2460066969,-0.9447516977 C 1.410138543,-0.7888085823 1.4993187616,-0.6040121125 1.4988004607,-0.4188254193" />
      <path d="M 1.4988004607,-0.4188254193 Q 1.4987465873,-0.3163798872 1.4637683404,-0.2161569932" />
      <path d="M -1.4651001109,-0.038821554 Q -1.5011423367,-0.1263266701 -1.5011995528,-0.2161569694" />
      <path d="M -1.5011995528,-0.2161569694 C -1.5017178683,-0.3760113466 -1.4125363315,-0.5354754863 -1.2484022547,-0.6660856636 C -1.0851301054,-0.7970330381 -0.847645416,-0.8984782287 -0.5752189799,-0.9515516204 C -0.0301270114,-1.0631081871 0.6453467722,-0.9591017965 1.0594696223,-0.6851640745 C 1.3386557312,-0.5061263453 1.5003925519,-0.2606200695 1.4988010028,-0.0134882683" />
      <path d="M 1.4988010028,-0.0134882683 Q 1.4987696109,0.0759203136 1.472047121,0.1638465066" />
      <path d="M 1.463768559,0.1891800653 Q 1.445820411,0.2405248353 1.4189355039,0.2904092614" />
      <path d="M -1.4805633407,0.3236441197 Q -1.5011804735,0.2569139503 -1.5011991229,0.1891800653" />
      <path d="M -1.5011991229,0.1891800653 C -1.5026114064,-0.0176491562 -1.3509687063,-0.223083638 -1.0869000395,-0.3676933063 C -0.8248758873,-0.5134441192 -0.4537129258,-0.596350991 -0.0728588352,-0.5898129617 C 0.3078603723,-0.5849268543 0.6935110816,-0.4904626538 0.9807657593,-0.3273430242 C 1.2698694568,-0.1654735772 1.4569769069,0.0632252791 1.491954157,0.301865087" />
      <path d="M -1.3640274547,0.2554137536 C -1.1471886506,-0.0048857794 -0.6568638937,-0.183897143 -0.1286570512,-0.1847074252 C 0.398716023,-0.1912420004 0.9402906658,-0.0183934532 1.2358373897,0.2616831762" />
      <path d="M 0.868101613,-6.1216361735 C 0.6681463525,-6.2542765019 0.3960139479,-6.3440838737 0.1135773186,-6.3739545788 C -0.1687060387,-6.4048184474 -0.4597767559,-6.3757546865 -0.6936873959,-6.2966748937 C -0.8919683194,-6.2303781056 -1.0489726429,-6.1293138119 -1.1392227712,-6.0119095774" />
      <path d="M -1.2268169044,-5.7135414708 Q -1.2153425818,-5.6358030791 -1.1700844323,-5.562006279" />
      <path d="M -1.1340727619,-5.5108741841 Q -1.068082697,-5.4282033144 -0.9623827253,-5.3593368662" />
      <path d="M 0.7884573611,-5.3593355776 Q 0.9096347236,-5.427117676 1.0012735434,-5.5108705528" />
      <path d="M 1.0712278115,-6.3522000762 Q 0.9880347468,-6.4478182122 0.868101613,-6.5269730164" />
      <path d="M 0.868101613,-5.7162990172 C 0.4958471426,-5.9690968968 -0.1350458147,-6.0485817469 -0.5984323208,-5.9198734251 C -0.8410106016,-5.8559253833 -1.0351062101,-5.742381152 -1.1392350459,-5.6065645501" />
      <path d="M 0.9200655425,-6.085290866 L 0.868101613,-6.1216361735" />
      <path d="M 0.868101613,-5.3109621025 C 0.5086374832,-5.5544828849 -0.0917690025,-5.6385260291 -0.5500243918,-5.526601979 C -0.7415280457,-5.4820485469 -0.9072238556,-5.4075630164 -1.0253161648,-5.3143746673" />
      <path d="M 1.0712260068,-5.5415279204 Q 0.9880875009,-5.6370991403 0.868101613,-5.7162990172" />
      <path d="M 0.868101613,-4.9056253806 C 0.661245102,-5.0428621092 0.3777585105,-5.1339184853 0.084954899,-5.1608248016 C -0.2859475566,-5.1968790578 -0.664936956,-5.1270430313 -0.9128266036,-4.9841313131 C -1.0091754649,-4.9290847531 -1.0846450713,-4.8663378212 -1.1392354225,-4.7958905175" />
      <path d="M -0.8740537427,-4.092187651 C -0.7282362599,-4.0167873743 -0.5443665641,-3.9636215607 -0.3451417007,-3.9406552571" />
      <path d="M 0.9200664726,-5.2746160907 L 0.868101613,-5.3109621025" />
      <path d="M 0.868101613,-4.5002883183 C 0.5347002516,-4.7250808407 -0.005138426,-4.8162902267 -0.4476476597,-4.7366176235 C -0.6818975434,-4.6966633581 -0.8868048013,-4.6132125467 -1.02531795,-4.503700156" />
      <path d="M 1.0712267481,-4.7308532891 Q 0.9880670552,-4.8264427837 0.868101613,-4.9056253806" />
      <path d="M 0.868101613,-4.0949514754 C 0.6560549075,-4.2356969451 0.3632478156,-4.3277633132 0.0627396864,-4.3521146095 C -0.3724160176,-4.3905569796 -0.8108246491,-4.280490998 -1.0403005675,-4.0862724005 C -1.1640696329,-3.9841905141 -1.2309553825,-3.8611341728 -1.2305665846,-3.7379880008" />
      <path d="M 0.1251374179,-3.1299823443 C 0.325726129,-3.1525720362 0.5208359615,-3.2047119451 0.6876660706,-3.2815174395" />
      <path d="M 1.0712278358,-4.3255153621 Q 0.9880600037,-4.4211120758 0.868101613,-4.5002883183" />
      <path d="M 0.868101613,-3.6896143191 C 0.608624782,-3.8626956539 0.2261627637,-3.9602476622 -0.1405049552,-3.953798485 C -0.4960776282,-3.9499299387 -0.8290601417,-3.8493923031 -1.0253156393,-3.6930270164" />
      <path d="M 0.1251382252,-2.7246453399 C 0.3256298294,-2.7472256055 0.5207210868,-2.7993273717 0.687665812,-2.8761805325" />
      <path d="M 0.7884575477,-2.9273141014 Q 0.9097175797,-2.9951537935 1.0012736766,-3.0788490517" />
      <path d="M 1.2281676863,-3.5353182009 C 1.2294947547,-3.74086794 1.0969149138,-3.9451733227 0.868101613,-4.0949514754" />
      <path d="M 0.868101613,-3.2842774044 C 0.5280017745,-3.5138695166 -0.0272727851,-3.6035105783 -0.4745098507,-3.5157822514 C -0.6975723259,-3.4742528589 -0.8920849521,-3.3929751513 -1.0253192029,-3.287688486" />
      <path d="M -1.2268181124,-2.8761863669 Q -1.2167649325,-2.8079737316 -1.1805510989,-2.7425637853" />
      <path d="M 0.1251390055,-2.3193084848 C 0.3255983295,-2.3418747517 0.520828236,-2.3940278822 0.6876660426,-2.4708436345" />
      <path d="M 0.7884569175,-2.5219774602 Q 0.9096409766,-2.5897710105 1.0012731829,-2.6735124716" />
      <path d="M 1.0528416623,-2.7246450098 Q 1.1200007672,-2.7970190076 1.1622202553,-2.8761865344" />
      <path d="M 1.2209720113,-3.0452539395 L 1.2255518088,-3.0788479803" />
      <path d="M 0.9200543114,-3.6532750243 L 0.868101613,-3.6896143191" />
      <path d="M 0.868101613,-2.8789406825 C 0.6039859169,-3.0551999067 0.2125088348,-3.1528576352 -0.1599292205,-3.1427623444 C -0.5083191332,-3.1356685801 -0.8326560708,-3.0357679575 -1.0253209104,-2.8823504956" />
      <path d="M -1.226810915,-2.4708530837 Q -1.2167583081,-2.4026123496 -1.1805559605,-2.3372239143" />
      <path d="M 0.788457865,-2.116639962 Q 0.9096254955,-2.1844146012 1.0012735117,-2.2681752487" />
      <path d="M 1.0528403121,-2.3193090492 Q 1.1200094658,-2.3916968528 1.1622233823,-2.4708436" />
      <path d="M 1.1864918249,-2.5219724164 Q 1.2176496178,-2.5966278466 1.2255523245,-2.6735120776" />
      <path d="M 1.228167534,-2.724645674 Q 1.2268260158,-2.9288395382 1.0712271578,-3.1095050331" />
      <path d="M 0.9200664555,-3.2479314014 L 0.868101613,-3.2842774044" />
      <path d="M 0.868101613,-2.4736036202 C 0.556311781,-2.683086026 0.0646607527,-2.7782075289 -0.3601116551,-2.7228516408 C -0.6303962404,-2.6897994432 -0.8697832892,-2.600174414 -1.0252978642,-2.4770252645" />
      <path d="M -1.2268161517,-2.06549283 Q -1.2196799441,-2.0169966387 -1.1991946974,-1.9696880936" />
      <path d="M -0.8740599395,-1.660170275 C -0.7282125646,-1.5847464258 -0.5443937096,-1.5316262917 -0.345130721,-1.5086370092" />
      <path d="M 1.0765429767,-1.9406351114 Q 1.1277875866,-2.000903547 1.1622235889,-2.0655064763" />
      <path d="M 1.1864921752,-2.1166440697 Q 1.2176429444,-2.1912987171 1.2255488051,-2.2682095709" />
      <path d="M 1.2281646263,-2.3193041925 C 1.2294636083,-2.5249102904 1.0969234002,-2.72915293 0.868101613,-2.8789406825" />
      <path d="M 0.868101613,-2.0682667773 C 0.5745849499,-2.2649211404 0.1224161669,-2.361947761 -0.28410339,-2.3254226791 C -0.5846678897,-2.3006685579 -0.8556303495,-2.2063530949 -1.0253177457,-2.0716786315" />
      <path d="M -0.8740610626,-1.2548326343 C -0.7281842654,-1.1794012101 -0.5442652607,-1.126247267 -0.3451513457,-1.1032977588" />
      <path d="M 0.1251373743,-1.1032976298 C 0.3257079186,-1.1258902947 0.5207420955,-1.17799211 0.6876660856,-1.2548327346" />
      <path d="M 0.7884573287,-1.3059661898 Q 0.909670753,-1.3737742128 1.0012734579,-1.4575010405" />
      <path d="M 1.2281675111,-1.9139714427 C 1.2295320039,-2.1194533314 1.0968744144,-2.3238789219 0.868101613,-2.4736036202" />
      <path d="M 0.868101613,-1.662929621 C 0.6718582094,-1.7930346565 0.4066678139,-1.8819007692 0.1298205774,-1.913436167 C -0.129156483,-1.9437013267 -0.3967947046,-1.9238148966 -0.6214031907,-1.8602258628 C -0.8466226876,-1.7972481868 -1.0279551282,-1.6908975622 -1.1304036084,-1.5643241007 C -1.1333474605,-1.5606144274 -1.1362913125,-1.5569047541 -1.1392351646,-1.5531950808" />
      <path d="M -1.2268172511,-1.2548326797 Q -1.2196812299,-1.2063181028 -1.1991989919,-1.1590105309" />
      <path d="M -1.1805538295,-1.1212140343 L -1.1700857341,-1.1032976665" />
      <path d="M -1.1340755217,-1.0521641654 Q -1.06809854,-0.9695106188 -0.9623818558,-0.9006282412" />
      <path d="M -0.8740608986,-0.8494958781 C -0.7280734976,-0.7740201784 -0.5442743809,-0.7209176948 -0.3451468209,-0.6979612712" />
      <path d="M 0.1251358759,-0.6979603971 C 0.3256510724,-0.720537988 0.5208291565,-0.7726826846 0.6876653868,-0.8494956197" />
      <path d="M 0.7884576016,-0.9006293419 Q 0.9096316911,-0.9684086006 1.0012736101,-1.0521645053" />
      <path d="M 1.0765419755,-1.129961431 Q 1.1277620903,-1.1901984232 1.1622234868,-1.2548330632" />
      <path d="M 1.2118728756,-1.3813148468 Q 1.2216289124,-1.4192088981 1.225551029,-1.4574882414" />
      <path d="M 0.9200654718,-2.0319215058 L 0.868101613,-2.0682667773" />
      <path d="M 0.868101613,-1.2575927064 C 0.5000491396,-1.5073426786 -0.1208092362,-1.5883995051 -0.5827156633,-1.4652544362 C -0.8324852058,-1.4020904964 -1.0328909451,-1.2866330007 -1.1392317542,-1.1478603653" />
      <path d="M -1.2268171958,-0.8494937924 Q -1.2153462838,-0.7717661045 -1.1700847335,-0.6979584597" />
      <path d="M -1.1340755398,-0.6468274949 Q -1.0680761656,-0.5641611086 -0.9623834073,-0.4952925183" />
      <path d="M 1.0765422673,-0.7246245163 Q 1.1277657765,-0.7848670226 1.1622234237,-0.8494958871" />
      <path d="M 1.1864938513,-0.9006293153 Q 1.2176517679,-0.9752893123 1.2255523147,-1.052164028" />
      <path d="M 1.2281675071,-1.1032977823 C 1.2295175458,-1.308802611 1.0968940496,-1.513180761 0.868101613,-1.662929621" />
      <path d="M 0.868101613,-0.8522559844 C 0.5032307987,-1.0996923583 -0.1100120416,-1.1818974159 -0.5706813594,-1.0629358819 C -0.8260024818,-1.0004357047 -1.0311849938,-0.883531985 -1.1392351874,-0.7425212661" />
      <path d="M -0.8740630984,-0.0388215308 L -0.8673480847,-0.0353860712" />
      <path d="M 0.2118718902,0.1010342238 Q 0.470083918,0.0604901572 0.6876664499,-0.0388219263" />
      <path d="M 1.2281675126,-0.6979609938 C 1.2295126628,-0.9034598701 1.0969175645,-1.1078237956 0.868101613,-1.2575927064" />
      <path d="M 0.868101613,-0.4469189222 C 0.6403246271,-0.5982895765 0.3191159539,-0.6928674287 -0.0042866808,-0.7085725942 C -0.4081136051,-0.7308868532 -0.8044937668,-0.6271627204 -1.025318072,-0.4503307003" />
      <path d="M -1.2268172234,-0.0388218236 Q -1.2153606754,0.038859831 -1.1700857398,0.1127129743" />
      <path d="M 0.9402629943,0.2153107965 L 1.0012739392,0.1638465219" />
      <path d="M 1.0712267373,-0.6774839001 Q 0.9880374688,-0.7730984417 0.868101613,-0.8522559844" />
      <path d="M 0.868101613,-0.0415820792 C 0.6456921854,-0.1893294575 0.3342052699,-0.2831440993 0.0184915474,-0.3019504681 C -0.4251736953,-0.3318468367 -0.8622438385,-0.2075098456 -1.0746828022,-0.0025771832 C -1.1272884867,0.0470389365 -1.1668345478,0.0997203842 -1.1933209857,0.1554671598" />
      <path d="M 1.207151127,0.2571826163 L 1.2118726757,0.2400326822" />
      <path d="M 1.2209745763,0.1974434853 L 1.2255522637,0.1638458188" />
      <path d="M 1.2281675064,0.1127132643 Q 1.2268176433,-0.0915003125 1.0712277725,-0.2721460077" />
      <path d="M 0.9200660454,-0.4105731559 L 0.868101613,-0.4469189222" />
      <path d="M 1.1537160046,0.2487992319 Q 1.0598336188,0.0853175061 0.868101613,-0.0415820792" />
      <path d="M 0.8681016292,-6.526973001 L 1.0594697018,-6.7652181444" />
      <path d="M 2.6551025167,2.9391590892 A 2.75,1.6101193908515423 1.9616733454311712e-15 0,1 1.9433276084,4.49441145" />
      <path d="M 2.6551025167,2.9391590892 A 2.75,1.6101193908515419 180.0 0,0 0.7105753569,1.8006230847" />
      <path d="M -1.9457267005,2.2173394564 A 2.75,1.6101193908515423 1.9616733454311712e-15 0,1 0.7105753569,1.8006230847" />
      <path d="M 1.9433276084,4.49441145 A 2.75,1.6101193908515423 1.9616733454311712e-15 0,1 -0.7129744383,4.9111278234" />
      <path d="M -2.6575016088,3.7725918172 A 2.75,1.6101193908515423 1.9616733454311712e-15 0,1 -1.9457267005,2.2173394564" />
      <path d="M -0.7129744383,4.9111278234 A 2.75,1.6101193908515423 1.9616733454311712e-15 0,1 -2.6575016088,3.7725918172" />
      <line x1="0.868101613" y1="-0.0415820792" x2="0.868101613" y2="0.0606847968" />
      <line x1="0.868101613" y1="-0.4469189222" x2="0.868101613" y2="-0.4360001436" />
      <line x1="0.868101613" y1="-0.3853330262" x2="0.868101613" y2="-0.3446519252" />
      <line x1="0.868101613" y1="-0.8522559844" x2="0.868101613" y2="-0.7499889874" />
      <line x1="0.868101613" y1="-1.2575927064" x2="0.868101613" y2="-1.1553258304" />
      <line x1="0.868101613" y1="-1.662929621" x2="0.868101613" y2="-1.5606629867" />
      <line x1="0.868101613" y1="-2.0682667773" x2="0.868101613" y2="-2.0573481294" />
      <line x1="0.868101613" y1="-2.4736036202" x2="0.868101613" y2="-2.3713366233" />
      <line x1="0.868101613" y1="-2.8789406825" x2="0.868101613" y2="-2.7766736855" />
      <line x1="0.868101613" y1="-3.2842774044" x2="0.868101613" y2="-3.2733585668" />
      <line x1="0.868101613" y1="-3.2226914494" x2="0.868101613" y2="-3.1820105285" />
      <line x1="0.868101613" y1="-3.6896143191" x2="0.868101613" y2="-3.6786959671" />
      <line x1="0.868101613" y1="-4.0949514754" x2="0.868101613" y2="-4.03336571" />
      <line x1="0.868101613" y1="-4.5002883183" x2="0.868101613" y2="-4.4387024223" />
      <line x1="0.868101613" y1="-4.9056253806" x2="0.868101613" y2="-4.8440390684" />
      <line x1="0.868101613" y1="-5.3109621025" x2="0.868101613" y2="-5.3000432649" />
      <line x1="0.868101613" y1="-5.7162990172" x2="0.868101613" y2="-5.7053806652" />
      <line x1="0.868101613" y1="-6.1216361735" x2="0.868101613" y2="-6.1107175256" />
      <line x1="0.868101613" y1="-6.0600504081" x2="0.868101613" y2="-6.0193692975" />
      <line x1="0.868101613" y1="-6.5269730104" x2="0.868101613" y2="-6.4247060195" />
      <path d="M 1.2253487173,-6.3234959464 A 1.2293670613173628,0.7197919068731865 1.9616733454311712e-15 0,1 1.2095438307,-6.247397204" />
      <path d="M 0.9778943403,-5.9369223907 A 1.2293670613173628,0.7197919068731865 1.9616733454311712e-15 0,1 0.7321046344,-5.7944909261" />
      <path d="M 0.6086570666,-5.7472298618 A 1.2293670613173628,0.7197919068731865 1.9616733454311712e-15 0,1 -0.7091960665,-5.7837683746" />
      <path d="M -1.1036143225,-6.0536522989 A 1.2293670613173628,0.7197919068731865 1.9616733454311712e-15 0,1 -1.2000276531,-6.2127722074" />
      <path d="M -1.2305666074,-6.3722110976 A 1.2293670613173628,0.7197919068731865 1.9616733454311712e-15 0,1 0.8252667853,-6.9050775405" />
      <path d="M -0.7927648427,-6.7907378953 C -0.7888854803,-6.7916676886 -0.7828980336,-6.7931929001 -0.7748025024,-6.7953135297 C -0.7626670932,-6.7983854168 -0.7523985648,-6.8015816699 -0.7036836607,-6.813755956 C -0.6603665733,-6.8246972387 -0.5761080579,-6.842626255 -0.4942155464,-6.8523546564 C -0.4083441349,-6.8630723451 -0.3189405099,-6.8679115736 -0.2260046716,-6.866872342 C 0.1650083016,-6.8639113202 0.5883863748,-6.7401760512 0.868101613,-6.5269730132" />
      <path d="M -0.7927648427,-6.7907378953 L -0.7927648427,-6.8414050128" />
      <path d="M -0.7927648427,-6.8414050128 C -0.7848235441,-6.8460494651 -0.7778952103,-6.8505864081 -0.7501884336,-6.8646712702 C -0.7393121276,-6.870688258 -0.7140047242,-6.8821638208 -0.6742662234,-6.8990979586 C -0.6269238426,-6.9187807251 -0.5595115492,-6.9424378123 -0.4924522221,-6.9605427067 C -0.2376577041,-7.0305975012 0.0585923475,-7.0467695679 0.3280102797,-7.0061489702" />
      <path d="M 1.0594697018,-6.8158852619 C 0.8796050631,-6.898301883 0.6715705765,-6.9570765329 0.4554475271,-6.9876361175" />
      <path d="M 0.4554475271,-6.9876361175 C 0.0122014734,-7.0518649635 -0.4572827571,-6.9916201424 -0.7927648427,-6.8414050128" />
      <path d="M 1.0594697018,-6.7652181444 C 0.7627956491,-6.9018870682 0.3882924471,-6.971256858 0.0296959762,-6.9616107522 C -0.2735947521,-6.9543904203 -0.5633177715,-6.8925618626 -0.7927648427,-6.7907378953" />
      <path d="M 1.4988010028,-6.0935423626 L 1.4988010028,-6.14420948" />
      <path d="M -1.5011991229,-5.890874029 L -1.5011991229,-5.9415411464" />
      <path d="M 1.4988010028,-5.6882056953 L 1.4988010028,-5.7388728127" />
      <path d="M -1.5011995528,-5.4855369943 L -1.5011995528,-5.5362041118" />
      <path d="M 1.4988004607,-5.2828685445 L 1.4988004607,-5.3335356619" />
      <path d="M -1.5012000949,-5.0802002623 L -1.5012000949,-5.1308673797" />
      <path d="M 1.4988000308,-4.87753168 L 1.4988000308,-4.9281987974" />
      <path d="M -1.5012000949,-4.6748630978 L -1.5012000949,-4.7255302153" />
      <path d="M 1.4988004607,-4.4721948155 L 1.4988004607,-4.5228619329" />
      <path d="M -1.5011995528,-4.2695263656 L -1.5011995528,-4.320193483" />
      <path d="M 1.4988010028,-4.0668576645 L 1.4988010028,-4.1175247819" />
      <path d="M -1.5011991229,-3.8641893309 L -1.5011991229,-3.9148564483" />
      <path d="M 1.4988010028,-3.6615209972 L 1.4988010028,-3.7121881146" />
      <path d="M -1.5011995528,-3.4588522962 L -1.5011995528,-3.5095194137" />
      <path d="M 1.4988004607,-3.2561838464 L 1.4988004607,-3.3068509638" />
      <path d="M -1.5012000949,-3.0535155642 L -1.5012000949,-3.1041826816" />
      <path d="M 1.4988000308,-2.8508469819 L 1.4988000308,-2.9015140994" />
      <path d="M -1.5012000949,-2.6481783997 L -1.5012000949,-2.6988455172" />
      <path d="M 1.4988004607,-2.4455101174 L 1.4988004607,-2.4961772348" />
      <path d="M -1.5011995528,-2.2428416675 L -1.5011995528,-2.293508785" />
      <path d="M 1.4988010028,-2.0401729664 L 1.4988010028,-2.0908400838" />
      <path d="M -1.5011991229,-1.8375046328 L -1.5011991229,-1.8881717503" />
      <path d="M 1.4988010028,-1.6348362991 L 1.4988010028,-1.6855034166" />
      <path d="M -1.5011995528,-1.4321675982 L -1.5011995528,-1.4828347156" />
      <path d="M 1.4988004607,-1.2294991483 L 1.4988004607,-1.2801662658" />
      <path d="M -1.5012000949,-1.0268308661 L -1.5012000949,-1.0774979835" />
      <path d="M 1.4988000308,-0.8241622838 L 1.4988000308,-0.8748294013" />
      <path d="M -1.5012000949,-0.6214937017 L -1.5012000949,-0.6721608191" />
      <path d="M 1.4988004607,-0.4188254193 L 1.4988004607,-0.4694925367" />
      <path d="M -1.5011995528,-0.2161569694 L -1.5011995528,-0.2668240869" />
      <path d="M 1.4988010028,-0.0134882683 L 1.4988010028,-0.0641553857" />
      <path d="M -1.5011991229,0.1891800653 L -1.5011991229,0.1385129478" />
      <line x1="1.2281675153" y1="-1.0010307134" x2="1.2281675153" y2="-1.1032977631" />
      <line x1="1.2281675153" y1="-1.8227334413" x2="1.2281675153" y2="-1.9139714155" />
      <line x1="1.2281675153" y1="-2.2170419015" x2="1.2281675153" y2="-2.3193085492" />
      <line x1="1.2281675153" y1="-2.6223786198" x2="1.2281675153" y2="-2.7246456697" />
      <line x1="-1.2305666074" y1="-2.825047314" x2="-1.2305666074" y2="-2.9273137647" />
      <line x1="1.2281675153" y1="-5.0654285724" x2="1.2281675153" y2="-5.1566671593" />
      <line x1="-1.2305666074" y1="-6.3547213863" x2="-1.2305666074" y2="-6.3722110976" />
      <path d="M 0.3280102796,-7.0061489701 L 0.4554475271,-6.9876361175" />
    </g>
  </g>
</svg>