<?xml version='1.0' encoding='utf-8'?>
<svg width="364.3747734369mm" height="513.0000000015mm" viewBox="-5.7171193907 -6.8656316098 11.4313825228 16.0941416962" version="1.1" xmlns="http://www.w3.org/2000/svg">
  <g transform="scale(1,-1)" stroke-linecap="round">
    <g fill="none" stroke="rgb(64,192,64)" stroke-width="0.03137259589893208" id="Visible">
      <path d="M 0.9548429752,-3.8042896706 C 0.2717269223,-4.0545883079 -0.6143084623,-4.0531758613 -1.2321001943,-3.8212229878" />
      <path d="M 0.9548422693,-6.4155617488 C 0.4495816304,-6.598375703 -0.1674595961,-6.6509993883 -0.7037548641,-6.5660193724 C -1.3230185686,-6.4724190144 -1.8183513942,-6.1973034393 -1.9914738542,-5.8640282429 C -2.042632513,-5.7679183389 -2.0682787306,-5.6697512828 -2.068412507,-5.5695270743" />
      <path d="M 2.0653463695,-5.9146981116 C 2.0597105152,-6.2487718305 1.8377206753,-6.5790857423 1.4601702601,-6.8223518897" />
      <path d="M 1.4601702601,-6.8223518897 Q 1.2358267351,-6.9676113041 0.9548431375,-7.0683793395" />
      <path d="M 0.9548432587,-7.7211971976 C 0.2715845315,-7.9714940879 -0.6142041995,-7.970097654 -1.2321003136,-7.7381305636" />
      <path d="M 0.9548428244,-8.3740153416 C 0.2715613576,-8.6244099413 -0.6147895219,-8.6227931552 -1.2321002693,-8.3909485683" />
      <path d="M -0.7251041011,-6.5348803458 C -0.3775023825,-6.4781364529 0.0052494316,-6.4771881279 0.3702091985,-6.5346773275" />
      <path d="M 0.7985602301,-6.6308262505 Q 1.1165322043,-6.7254107847 1.3743068382,-6.8751629224" />
      <path d="M 1.7663595636,-8.7542502261 C 2.231670866,-8.4602540642 2.5012276681,-8.0568907862 2.4985747839,-7.6508542123" />
      <path d="M -2.5002679821,-7.2836442668 L -2.5014251856,-7.3244453895" />
      <path d="M -2.5014251856,-7.3244453895 C -2.5018464743,-7.5439441127 -2.3994698296,-7.7631838566 -2.2062224158,-7.9546419146 C -2.0137180672,-8.1463296104 -1.730765474,-8.309778395 -1.3903298385,-8.423965172 C -0.6433820715,-8.6812553151 0.3837611533,-8.6730168704 1.1770773185,-8.3846563977 C 1.5743250616,-8.2436236416 1.9120246833,-8.0390787776 2.1428993799,-7.7970392143 C 2.3748265219,-7.5553642663 2.4991882848,-7.2769085967 2.4985747712,-6.9980367456" />
      <path d="M 2.4985747712,-6.9980367456 L 2.4977073139,-6.9572356226" />
      <path d="M -2.5014252508,-6.6716269796 C -2.5040781555,-7.0232678109 -2.2345144953,-7.3722337111 -1.7691926056,-7.6118298781 C -1.3076225893,-7.8535947458 -0.6568373175,-7.9822077742 -0.001425633,-7.9534735047 C 0.6539860541,-7.9278062114 1.3047710692,-7.7447919862 1.7663414192,-7.448625862 C 2.2316636746,-7.154628416 2.5012277931,-6.751260683 2.4985747542,-6.3452185571" />
      <path d="M -2.501425324,-6.0188094931 C -2.5040783171,-6.3704500142 -2.2345139468,-6.7194160308 -1.7691920156,-6.9590121825 C -1.3076219806,-7.2007770071 -0.656837134,-7.329389839 -0.0014251965,-7.3006555057 C 0.6539867714,-7.2749881221 1.3047717595,-7.0919739226 1.7663416563,-6.7958077678 C 2.2316634945,-6.5018102809 2.5012282964,-6.0984421175 2.4985747956,-5.6924004238" />
      <path d="M -2.5002681198,-5.3251902329 L -2.5014253241,-5.3659913541" />
      <path d="M -2.5014253241,-5.3659913541 C -2.5056007482,-5.7619396743 -2.1604916546,-6.1531006805 -1.5873987424,-6.3912321825 C -1.0196036873,-6.6330950015 -0.236627224,-6.7158550785 0.4863253109,-6.5996668423 C 1.0487724411,-6.5121263699 1.5687274961,-6.3081831099 1.931109139,-6.0277084796 C 2.2959323063,-5.7483920941 2.5001539611,-5.394677192 2.4985747542,-5.03958229" />
      <path d="M 2.4985747542,-5.03958229 Q 2.4984919371,-4.8746565969 2.4424933684,-4.7131732213" />
      <path d="M 2.4273989924,-4.6723721054 Q 2.3694518934,-4.5250413758 2.2667450215,-4.3867643966" />
      <path d="M 2.2352827317,-4.3459632822 Q 2.1592405975,-4.250884891 2.0632852297,-4.1625668294" />
      <path d="M 2.0399296741,-4.1414350952 Q 1.9933345138,-4.099987291 1.9425863865,-4.0603555679" />
      <path d="M 1.8885819381,-4.0195544713 L 1.8678308738,-4.0045681268" />
      <path d="M 1.7805420577,-3.9452877283 Q 1.6135134513,-3.8373502349 1.4175206838,-3.7493494968" />
      <path d="M 1.2483201474,-3.679231892 C 0.9782445899,-3.5760684218 0.6786832346,-3.5025670116 0.3702092393,-3.4628853962" />
      <path d="M -0.7251042157,-3.4626823122 Q -1.1791155261,-3.5230357626 -1.5518887903,-3.6732941462" />
      <path d="M -1.7014198617,-3.7391549557 Q -1.8601641988,-3.8153044219 -1.9912797864,-3.9059376298" />
      <path d="M -2.0436371195,-3.9435450159 Q -2.0932835488,-3.9806113041 -2.137978087,-4.0195544742" />
      <path d="M -2.1829006523,-4.0603555852 Q -2.3255039911,-4.1956609131 -2.4056942769,-4.3459633642" />
      <path d="M -2.4261325736,-4.3867644847 Q -2.4919485139,-4.527256738 -2.5002680487,-4.6723727424" />
      <path d="M -2.5014252508,-4.7131738675 C -2.500780965,-4.8911297393 -2.4373440128,-5.0618656829 -2.3111143941,-5.2253816984 C -2.0932315425,-5.5080062027 -1.6861246894,-5.7438319388 -1.179900057,-5.8753956829 C -0.675164432,-6.0085695481 -0.0755208909,-6.036180831 0.4863131989,-5.946850771 C 1.048763473,-5.8593113292 1.5687214628,-5.6553687302 1.9311053051,-5.3748935391 C 2.2959307616,-5.0955765636 2.5001540062,-4.7418601555 2.4985747712,-4.3867641015" />
      <path d="M -2.5014251856,-4.0603554576 C -2.5040781751,-4.4119957721 -2.2345142901,-4.7609622456 -1.7691922391,-5.0005584204 C -1.3076220887,-5.242323265 -0.6568369584,-5.3709357176 -0.0014252423,-5.3422015605 C 0.6539864747,-5.3165343697 1.3047715809,-5.1335203665 1.7663417548,-4.8373539123 C 2.2316638275,-4.5433561069 2.5012277778,-4.1399884406 2.4985747839,-3.7339466349" />
      <path d="M -2.5014250711,-3.4075374266 C -2.5026073521,-3.6930062357 -2.3273678473,-3.9775200345 -2.0094405573,-4.2020539659 C -1.6934125589,-4.4274020986 -1.2366650625,-4.5912361262 -0.7271248485,-4.6577626959 C -0.2182709974,-4.7255972019 0.3402129211,-4.6955698584 0.8408169667,-4.5692064968 C 1.3422177487,-4.4441300173 1.7826272008,-4.2233609666 2.0772628235,-3.9451442385 C 2.3508090723,-3.6890017132 2.4994385922,-3.3853859236 2.4985747667,-3.0811286703" />
      <path d="M -2.5014251482,-2.7547197269 C -2.5022890162,-3.0181832341 -2.3536517966,-3.2810048701 -2.0800923062,-3.4963504954 C -1.8079693553,-3.7122510209 -1.4121576522,-3.8796082862 -0.9581105087,-3.967373461 C -0.2483863223,-4.1084392451 0.5982196586,-4.0430656381 1.2606231063,-3.7839383642 C 1.9279847587,-3.5297115266 2.393519068,-3.0876890104 2.4806676684,-2.6134026005" />
      <path d="M -2.2604707619,-2.6748815179 C -1.9041761567,-3.0837360405 -1.1326592247,-3.3684782436 -0.2909738073,-3.3860836754 C 0.5490901683,-3.4117260186 1.4272015938,-3.1680659758 1.9506335661,-2.7484029913" />
      <path d="M 1.7663596932,-8.6726479476 L 1.7663596932,-8.7542501911" />
      <path d="M 1.7663595636,-8.6726479826 C 2.231670866,-8.3786518206 2.5012276681,-7.9752885427 2.4985747839,-7.5692519687" />
      <path d="M 2.4985747839,-7.5692519687 Q 2.4985265338,-7.4253000494 2.4557419705,-7.2836443519" />
      <path d="M -2.4440094556,-6.9572352417 Q -2.5013383647,-7.0982561582 -2.5014251856,-7.242843146" />
      <path d="M -2.5014251856,-7.242843146 C -2.5018464743,-7.4623418691 -2.3994698296,-7.6815816131 -2.2062224158,-7.873039671 C -2.0137180672,-8.0647273668 -1.730765474,-8.2281761514 -1.3903298385,-8.3423629284 C -0.6433820715,-8.5996530716 0.3837611533,-8.5914146268 1.1770773185,-8.3030541541 C 1.5743250616,-8.1620213981 1.9120246833,-7.9574765341 2.1428993799,-7.7154369707 C 2.3748265219,-7.4737620227 2.4991882848,-7.1953063531 2.4985747712,-6.9164345021" />
      <path d="M 2.4985747712,-6.9164345021 Q 2.4985265174,-6.7724824005 2.4557418873,-6.6308265073" />
      <path d="M -2.4440096166,-6.3044171841 Q -2.5013384421,-6.4454378297 -2.5014252508,-6.590024736" />
      <path d="M -2.5014252508,-6.590024736 C -2.5040781555,-6.9416655673 -2.2345144953,-7.2906314675 -1.7691926056,-7.5302276345 C -1.3076225893,-7.7719925023 -0.6568373175,-7.9006055307 -0.001425633,-7.8718712611 C 0.6539860541,-7.8462039678 1.3047710692,-7.6631897426 1.7663414192,-7.3670236184 C 2.2316636746,-7.0730261724 2.5012277931,-6.6696584394 2.4985747542,-6.2636163135" />
      <path d="M 2.4985747542,-6.2636163135 Q 2.4985265016,-6.119664342 2.4557419744,-5.9780086116" />
      <path d="M -2.4440095366,-5.6515993018 Q -2.5013385006,-5.792620223 -2.501425324,-5.9372072495" />
      <path d="M -2.501425324,-5.9372072495 C -2.5040783171,-6.2888477706 -2.2345139468,-6.6378137873 -1.7691920156,-6.877409939 C -1.3076219806,-7.1191747636 -0.656837134,-7.2477875954 -0.0014251965,-7.2190532622 C 0.6539867714,-7.1933858785 1.3047717595,-7.0103716791 1.7663416563,-6.7142055243 C 2.2316634945,-6.4202080373 2.5012282964,-6.0168398739 2.4985747956,-5.6107981802" />
      <path d="M 2.4985747956,-5.6107981802 Q 2.4984920784,-5.4458723932 2.4424934568,-5.284388912" />
      <path d="M -2.4440096166,-4.9987814195 Q -2.5013385014,-5.13980219 -2.5014253241,-5.2843891105" />
      <path d="M -2.5014253241,-5.2843891105 C -2.5056007482,-5.6803374307 -2.1604916546,-6.0714984369 -1.5873987424,-6.3096299389 C -1.0196036873,-6.5514927579 -0.236627224,-6.6342528349 0.4863253109,-6.5180645987 C 1.0487724411,-6.4305241263 1.5687274961,-6.2265808663 1.931109139,-5.946106236 C 2.2959323063,-5.6667898505 2.5001539611,-5.3130749484 2.4985747542,-4.9579800465" />
      <path d="M 2.4985747542,-4.9579800465 Q 2.4985265069,-4.8140279652 2.4557418873,-4.6723720963" />
      <path d="M -2.4440094556,-4.3459633618 Q -2.50133842,-4.4869843958 -2.5014252508,-4.6315716239" />
      <path d="M -2.5014252508,-4.6315716239 C -2.500780965,-4.8095274957 -2.4373440128,-4.9802634393 -2.3111143941,-5.1437794548 C -2.0932315425,-5.4264039592 -1.6861246894,-5.6622296953 -1.179900057,-5.7937934393 C -0.675164432,-5.9269673045 -0.0755208909,-5.9545785874 0.4863131989,-5.8652485274 C 1.048763473,-5.7777090856 1.5687214628,-5.5737664866 1.9311053051,-5.2932912955 C 2.2959307616,-5.01397432 2.5001540062,-4.6602579119 2.4985747712,-4.3051618579" />
      <path d="M 2.4985747712,-4.3051618579 Q 2.4985265252,-4.1612099501 2.4557419705,-4.0195542517" />
      <path d="M -2.4440094272,-3.6931453168 Q -2.5013383673,-3.834166208 -2.5014251856,-3.978753214" />
      <path d="M -2.5014251856,-3.978753214 C -2.5040781751,-4.3303935286 -2.2345142901,-4.6793600021 -1.7691922391,-4.9189561768 C -1.3076220887,-5.1607210214 -0.6568369584,-5.289333474 -0.0014252423,-5.2605993169 C 0.6539864747,-5.2349321261 1.3047715809,-5.0519181229 1.7663417548,-4.7557516687 C 2.2316638275,-4.4617538633 2.5012277778,-4.058386197 2.4985747839,-3.6523443913" />
      <path d="M 2.4985747839,-3.6523443913 Q 2.4985265345,-3.5083924212 2.4557419387,-3.3667365918" />
      <path d="M -2.4440094865,-3.0403275032 Q -2.5013382556,-3.1813482821 -2.5014250711,-3.325935183" />
      <path d="M -2.5014250711,-3.325935183 C -2.5026073521,-3.6114039922 -2.3273678473,-3.8959177909 -2.0094405573,-4.1204517224 C -1.6934125589,-4.3457998551 -1.2366650625,-4.5096338826 -0.7271248485,-4.5761604524 C -0.2182709974,-4.6439949583 0.3402129211,-4.6139676148 0.8408169667,-4.4876042532 C 1.3422177487,-4.3625277737 1.7826272008,-4.141758723 2.0772628235,-3.8635419949 C 2.3508090723,-3.6073994696 2.4994385922,-3.30378368 2.4985747667,-2.9995264267" />
      <path d="M 2.4985747667,-2.9995264267 Q 2.4984919454,-2.8346008138 2.4424934661,-2.673117602" />
      <path d="M -2.4985661705,-2.6089978121 L -2.5014251482,-2.6731174833" />
      <path d="M -2.5014251482,-2.6731174833 C -2.5022890162,-2.9365809905 -2.3536517966,-3.1994026265 -2.0800923062,-3.4147482518 C -1.8079693553,-3.6306487773 -1.4121576522,-3.7980060426 -0.9581105087,-3.8857712175 C -0.2704741898,-4.0221911031 0.5458837446,-3.9657811813 1.1983539189,-3.7256729343 C 1.8550024349,-3.4899796383 2.33243164,-3.0754359199 2.4595161044,-2.6195380735" />
      <path d="M -2.1508607129,-2.7025630008 C -1.7638117679,-3.0529131495 -1.0569026694,-3.2867653402 -0.2956439598,-3.3043595182 C 0.4644825569,-3.3274754014 1.259215054,-3.1329803355 1.7900577279,-2.7819995263" />
      <path d="M 1.4601702601,-7.6393144387 C 1.0781383211,-7.8891719676 0.5393231029,-8.0452572869 -0.0031885707,-8.0709516909 C -0.5359797219,-8.0986228737 -1.0650739876,-8.0007297519 -1.444944669,-7.8115646515 C -1.6528100903,-7.7082120809 -1.8111935405,-7.5857317844 -1.9200950197,-7.4441237619" />
      <path d="M 1.3743068733,-6.3864895201 Q 1.5636789204,-6.4968940301 1.706736374,-6.6308262211" />
      <path d="M 1.573527625,-8.2126718021 Q 1.5193122668,-8.2537443702 1.4601702601,-8.2921323749" />
      <path d="M 1.4601702601,-6.9864964869 C 0.9407853913,-7.3296808607 0.1249890854,-7.4870406664 -0.5845507678,-7.3992302891 C -1.0558020013,-7.3446738706 -1.4731470826,-7.1890323744 -1.7380197711,-6.9749017636" />
      <path d="M 1.5735278503,-7.5598537174 Q 1.5193329788,-7.6009119424 1.4601702601,-7.6393144387" />
      <path d="M 1.4601702601,-6.3336785279 C 1.0443146164,-6.6062099281 0.4415974259,-6.7659066599 -0.1478503899,-6.7695923206 C -0.8062518638,-6.7783148886 -1.4304932582,-6.5910341097 -1.7687012305,-6.2966556792 C -1.9640303218,-6.1300076524 -2.0689642527,-5.9319486185 -2.068412503,-5.7336715519" />
      <path d="M -2.0625530691,-5.6515993208 Q -2.0515730789,-5.5748998053 -2.0203222381,-5.4999066191" />
      <path d="M 1.8258192729,-5.451037644 Q 1.9066160528,-5.5480589082 1.9609462476,-5.6515993012" />
      <path d="M 2.0399296512,-5.8561275377 Q 2.0552572085,-5.9167741799 2.0614306848,-5.9780082924" />
      <path d="M 1.5735275381,-6.9070359942 Q 1.5193322255,-6.9480945021 1.4601702601,-6.9864964869" />
      <path d="M 1.4601702601,-5.6808605981 C 1.0899338601,-5.9228448487 0.5727548491,-6.0772067983 0.0473339556,-6.1096259582 C -0.6586138814,-6.1580784308 -1.3599345071,-5.9788161201 -1.7380194709,-5.6692661374" />
      <path d="M 1.5735275852,-6.254218027 Q 1.5193191261,-6.2952857301 1.4601702601,-6.3336785279" />
      <path d="M 1.4601702601,-5.0280425977 C 1.209420458,-5.1911615876 0.892778631,-5.3157115867 0.5505227859,-5.3881227449 C -0.0313244074,-5.5136430248 -0.6824708364,-5.4803071638 -1.1778028855,-5.3101279057 C -1.4024312703,-5.2334681888 -1.5891699656,-5.1355750575 -1.7380189714,-5.0164485116" />
      <path d="M 1.5735270267,-5.6014004712 Q 1.5193249333,-5.6424637026 1.4601702601,-5.6808605981" />
      <path d="M 1.4601702601,-4.3752246645 C 0.9833029808,-4.6891525203 0.258093565,-4.8500675654 -0.4072468613,-4.8040524605 C -0.9489520683,-4.7704430255 -1.4406292763,-4.6047339554 -1.7380189843,-4.3636305447" />
      <path d="M 1.573527196,-4.9485824045 Q 1.5193312119,-4.9896413331 1.4601702601,-5.0280425977" />
      <path d="M 1.4601702601,-3.7224066889 C 1.1620613146,-3.9166338927 0.7698324004,-4.0555960873 0.3535766368,-4.1182692007 C -0.1879801784,-4.20181606 -0.7653559963,-4.1526834706 -1.2102290883,-3.9932464917 C -1.4207507494,-3.9181250018 -1.5966807799,-3.8239803253 -1.7380191796,-3.7108124624" />
      <path d="M 1.5735271591,-4.2957644991 Q 1.5193313176,-4.3368233268 1.4601702601,-4.3752246645" />
      <path d="M 1.4601702601,-3.0695888016 C 1.0483703609,-3.3393934151 0.4534548498,-3.498765743 -0.1305424588,-3.5052989394 C -0.7755336252,-3.5168201683 -1.3911190127,-3.3407556277 -1.738019526,-3.057994272" />
      <path d="M 1.5735276455,-3.6429461694 Q 1.5193220349,-3.6840118645 1.4601702601,-3.7224066889" />
      <path d="M 1.8024303783,-2.7795257323 Q 1.6624523363,-2.9382084495 1.4601702601,-3.0695888016" />
      <path d="M 1.4601702869,-8.2921323493 L 1.7663596932,-8.6726479476" />
      <path d="M 3.9023070049,2.0458452964 C 3.7113968944,1.7731136956 3.5451393396,1.4799463809 3.3793243166,1.1236530352 C 3.3556057338,1.0711176632 3.3318871511,1.0185822911 3.3081685683,0.9660469191 C 3.2843038539,0.9104527487 3.2604391394,0.8548585783 3.236574425,0.7992644078 C 3.2124165468,0.7402689198 3.1882586687,0.6812734318 3.1641007905,0.6222779437 C 3.1395009104,0.5595176631 3.1149010303,0.4967573825 3.0903011503,0.433997102 C 3.0651077068,0.3670853587 3.0399142633,0.3001736155 3.0147208199,0.2332618723 C 2.9887785947,0.1617864189 2.9628363695,0.0903109656 2.9368941443,0.0188355122 C 2.9100433056,-0.0576440161 2.8831924669,-0.1341235444 2.8563416282,-0.2106030727" />
      <path d="M -1.047390581,-0.8152376981 Q -1.1574326119,-0.7238006487 -1.2674746428,-0.6323635994 Q -1.3737929289,-0.5476448078 -1.480111215,-0.4629260161 Q -1.58336079,-0.3844035243 -1.6866103651,-0.3058810326 Q -1.7874273562,-0.2330710586 -1.8882443474,-0.1602610846 Q -1.9872498945,-0.0927150415 -2.0862554417,-0.0251689984 Q -2.1840595243,0.0375292692 -2.2818636069,0.1002275368 Q -2.3790688021,0.1584643169 -2.4762739973,0.2167010971 Q -2.6703485092,0.3270831718 -2.8662925529,0.4256991432 Q -2.9652981001,0.4726052112 -3.0643036472,0.5195112792 Q -3.2645733452,0.6086103323 -3.4724367796,0.6886552507 Q -3.5787550657,0.7268422219 -3.6850733518,0.765029193 Q -3.7951153827,0.8008026193 -3.9051574136,0.8365760456" />
      <path d="M 2.8563416282,-0.2106030727 L 2.5557050504,-0.2015039358 L 2.2652418026,-0.1999608922 L 1.9831623221,-0.2059644348 L 1.7077286996,-0.219551552 L 1.4372439708,-0.2408059549 L 1.1700416623,-0.2698585932 L 0.9044755236,-0.306888462 L 0.6389093849,-0.3521237047 L 0.3717070764,-0.4058430186 L 0.1012223476,-0.4683773716 L -0.1742112749,-0.540112042 L -0.4562907553,-0.6214889915 L -0.7467540032,-0.7130095888 L -1.047390581,-0.8152376981" />
      <line x1="1.4601702601" y1="-3.0695888016" x2="1.4601702601" y2="-2.9645777416" />
      <line x1="1.4601702601" y1="-3.7224066889" x2="1.4601702601" y2="-3.698998018" />
      <line x1="1.4601702601" y1="-4.3752246645" x2="1.4601702601" y2="-4.351816047" />
      <line x1="1.4601702601" y1="-5.0280425977" x2="1.4601702601" y2="-5.0046340168" />
      <line x1="1.4601702601" y1="-5.6808605981" x2="1.4601702601" y2="-5.6574519816" />
      <line x1="1.4601702601" y1="-6.3336785279" x2="1.4601702601" y2="-6.3102698507" />
      <line x1="1.4601702601" y1="-6.2286676071" x2="1.4601702601" y2="-6.1695339466" />
      <line x1="1.4601702601" y1="-6.9864964869" x2="1.4601702601" y2="-6.9630877737" />
      <line x1="1.4601702601" y1="-6.8814855302" x2="1.4601702601" y2="-6.8223518897" />
      <line x1="1.4601702601" y1="-7.6393144387" x2="1.4601702601" y2="-7.6159056431" />
      <line x1="1.4601702601" y1="-8.2921323648" x2="1.4601702601" y2="-8.1871213863" />
      <path d="M -2.0684125025,-8.0180633184 A 2.0669872981077804,1.1947604699583774 -1.948815707799209e-15 0,1 1.4049777877,-8.8936193738" />
      <path d="M -1.3604706682,-8.7072008984 C -1.3498926632,-8.7099910358 -1.3406133025,-8.7125248261 -1.303591068,-8.7232351045 C -1.2889980629,-8.7276225545 -1.2599824547,-8.7357227323 -1.2165442434,-8.7475356381 C -1.1692927426,-8.7603814446 -1.1133183481,-8.7735341825 -1.04862106,-8.786993852 C -0.7935294623,-8.8393241219 -0.4995805642,-8.860792171 -0.2013842264,-8.843138801 C 0.404586634,-8.8101309395 1.0317875178,-8.6113822126 1.4601702601,-8.2921323691" />
      <path d="M -1.3604706682,-8.7072008984 L -1.3604706682,-8.788803142" />
      <path d="M -1.3604706682,-8.788803142 C -1.355332009,-8.7920121025 -1.3474198952,-8.7966520033 -1.3367343266,-8.8027228446 C -1.3187093358,-8.8122734716 -1.3042561276,-8.8222078736 -1.2210134455,-8.8605661557 C -1.1606279607,-8.8881360247 -1.0713842225,-8.9237642523 -0.9837191775,-8.9524382018 C -0.8993654797,-8.9802793608 -0.8119039875,-9.0046065729 -0.7213347009,-9.0254198379 C -0.30273956,-9.1221768978 0.1674131225,-9.1364493751 0.5953610095,-9.0669471673" />
      <path d="M 1.7663596932,-8.7542501911 C 1.479962943,-8.8853516497 1.1499223842,-8.9808599031 0.8055955011,-9.0338226401" />
      <path d="M 0.8055955011,-9.0338226401 C 0.0389229623,-9.1546871964 -0.784649568,-9.0524295514 -1.3604706682,-8.788803142" />
      <path d="M 1.7663596932,-8.6726479476 C 1.272934758,-8.8997677797 0.6477479812,-9.0161155329 0.047791997,-9.0014846647 C -0.4732393392,-8.9904094221 -0.9712196736,-8.8836243483 -1.3604706682,-8.7072008984" />
      <line x1="3.9023070049" y1="2.0458452964" x2="3.9023070049" y2="5.1981314682" />
      <path d="M 3.9023070049,5.1981314682 C 3.7110065947,4.8659281376 3.5452156816,4.5458002206 3.3793243166,4.1882971203" />
      <path d="M 3.3793243166,4.1882971203 C 3.2134329515,3.8300493775 3.0476420384,3.4348598588 2.8563416282,2.9416830992" />
      <line x1="2.8563416282" y1="-0.2106030727" x2="2.8563416282" y2="2.9416830992" />
      <path d="M 1.0445401723,6.8499452119 C 1.5672075372,6.6283257059 2.0201783365,6.4040354991 2.4734235886,6.1424281767" />
      <path d="M 2.4734235886,6.1424281767 C 2.9266688407,5.8800762117 3.37963964,5.5807244032 3.9023070049,5.1981314682" />
      <path d="M -2.8591920369,6.2453105865 C -2.1452242619,6.4363811256 -1.5264625494,6.5697496367 -0.9073259323,6.6660177358" />
      <path d="M -0.9073259323,6.6660177358 C -0.2881893152,6.7615411923 0.3305723973,6.8198481017 1.0445401723,6.8499452119" />
      <line x1="-3.9051574136" y1="0.8365760456" x2="-3.9051574136" y2="3.9888622174" />
      <path d="M -3.9051574136,3.9888622174 C -3.7138570034,4.482038977 -3.5480660903,4.8772284958 -3.3821747253,5.2354762386" />
      <path d="M -3.3821747253,5.2354762386 C -3.2162833602,5.5929793388 -3.0504924471,5.9131072559 -2.8591920369,6.2453105865" />
      <line x1="-1.047390581" y1="-0.8152376981" x2="-1.047390581" y2="2.3370484738" />
      <path d="M -1.047390581,2.3370484738 C -1.5700579459,2.7196414087 -2.0230287452,3.0189932172 -2.4762739973,3.2813451823" />
      <path d="M -2.4762739973,3.2813451823 C -2.9295192494,3.5429525047 -3.3824900487,3.7672427115 -3.9051574136,3.9888622174" />
      <path d="M 2.8563416282,2.9416830992 C 2.1423738802,2.9115859902 1.5236121877,2.853279084 0.9044755941,2.7577556341" />
      <path d="M 0.9044755941,2.7577556341 C 0.2853389535,2.6614875342 -0.3334227789,2.5281190202 -1.047390581,2.3370484738" />
      <path d="M 3.3793243121,4.1882971108 A 3.5,2.0230707990718737 -1.948815707799209e-15 0,1 2.4734235886,6.1424281767" />
      <path d="M 3.3793243121,4.1882971108 A 3.5,2.0230707990718733 180.0 0,0 0.9044755251,2.7577556234" />
      <path d="M 2.4734235886,6.1424281767 A 3.5,2.0230707990718737 -1.948815707799209e-15 0,1 -0.9073259292,6.6660177363" />
      <path d="M -0.9073259292,6.6660177363 A 3.5,2.0230707990718737 -1.948815707799209e-15 0,1 -3.3821747208,5.2354762481" />
      <path d="M -3.3821747208,5.2354762481 A 3.5,2.0230707990718737 -1.948815707799209e-15 0,1 -2.4762739973,3.2813451823" />
      <path d="M -2.4762739973,3.2813451823 A 3.5,2.0230707990718737 -1.948815707799209e-15 0,1 0.9044755251,2.7577556234" />
      <path d="M 3.8249867381,-1.2917429253 A 5.41130913087035,3.1278461392613734 -1.948815707799209e-15 0,1 3.9023070049,3.0860393844" />
      <path d="M -3.9051574136,3.0860393844 A 5.41130913087035,3.1278461392613734 -1.948815707799209e-15 0,1 3.8249867381,-1.2917429253" />
      <path d="M 3.9257883741,-2.0080457255 C 4.5152615451,-1.6675593654 4.9868256944,-1.2452348636 5.2944699241,-0.7656714129 C 5.5598073929,-0.3537013201 5.7014819005,0.1026612619 5.6985464826,0.5614280267 C 5.696309244,0.8732592533 5.6315053978,1.1771951122 5.5041349441,1.4732356034 C 5.3773038126,1.7659731447 5.1963616311,2.0402439293 4.9613083997,2.2960479573 C 4.674134924,2.6075781911 4.3211344591,2.8828573701 3.9023070049,3.1218854943" />
      <path d="M -3.9051574136,3.1218863877 C -4.3251038467,2.882219686 -4.6788542658,2.6061217841 -4.966408671,2.2935926819 C -5.2027556837,2.035891332 -5.3841962761,1.7595227845 -5.5107304481,1.4644870393 C -5.7638105683,0.8772105917 -5.7645443548,0.2281505116 -5.5127245674,-0.3594466673 C -5.3884237012,-0.6509432559 -5.2104722106,-0.9243154121 -4.9788700954,-1.179563136 C -4.3983907356,-1.8220567106 -3.4974140388,-2.3260681423 -2.4335213538,-2.6277956033 C -1.1662114465,-2.9910404402 0.3282080394,-3.0550381898 1.6691899998,-2.8051746514 C 2.5097019255,-2.6505264853 3.2878430599,-2.3772665802 3.9257883741,-2.0080457255" />
      <path d="M 2.4985747839,-7.5692519687 L 2.4985747839,-7.6508542123" />
      <path d="M -2.5014251856,-7.242843146 L -2.5014251856,-7.3244453895" />
      <path d="M 2.4985747712,-6.9164345021 L 2.4985747712,-6.9980367456" />
      <path d="M -2.5014252508,-6.590024736 L -2.5014252508,-6.6716269796" />
      <path d="M 2.4985747542,-6.2636163135 L 2.4985747542,-6.3452185571" />
      <path d="M -2.501425324,-5.9372072495 L -2.501425324,-6.0188094931" />
      <path d="M 2.4985747956,-5.6107981802 L 2.4985747956,-5.6924004238" />
      <path d="M -2.5014253241,-5.2843891105 L -2.5014253241,-5.3659913541" />
      <path d="M 2.4985747542,-4.9579800465 L 2.4985747542,-5.03958229" />
      <path d="M -2.5014252508,-4.6315716239 L -2.5014252508,-4.7131738675" />
      <path d="M 2.4985747712,-4.3051618579 L 2.4985747712,-4.3867641015" />
      <path d="M -2.5014251856,-3.978753214 L -2.5014251856,-4.0603554576" />
      <path d="M 2.4985747839,-3.6523443913 L 2.4985747839,-3.7339466349" />
      <path d="M -2.5014250711,-3.325935183 L -2.5014250711,-3.4075374266" />
      <path d="M 2.4985747667,-2.9995264267 L 2.4985747667,-3.0811286703" />
      <path d="M -2.5014251482,-2.6731174833 L -2.5014251482,-2.7547197269" />
      <line x1="2.0655620938" y1="-5.9144989254" x2="2.0655620938" y2="-6.0600805848" />
      <line x1="-2.0684125025" y1="-7.9936185886" x2="-2.0684125025" y2="-8.0180633184" />
      <path d="M 0.5953610101,-9.0669471635 Q 0.6980585977,-9.0504141819 0.8055955011,-9.0338226401" />
    </g>
  </g>
</svg>