<?xml version='1.0' encoding='utf-8'?>
<svg width="175.1051431834mm" height="512.9999999999mm" viewBox="-1.7207529424 -4.2243494873 3.5901412767 10.5179233543" version="1.1" xmlns="http://www.w3.org/2000/svg">
  <g transform="scale(1,-1)" stroke-linecap="round">
    <g fill="none" stroke="rgb(64,192,64)" stroke-width="0.02050277456978846" id="Visible">
      <line x1="1.3800255275" y1="1.3995309919" x2="1.859136847" y2="2.4478574358" />
      <line x1="-0.4047936235" y1="1.1191441883" x2="1.3800255275" y2="1.3995309919" />
      <line x1="-1.7105014552" y1="1.8870838286" x2="-0.4047936235" y2="1.1191441883" />
      <line x1="1.859136847" y1="2.4478574358" x2="1.859136847" y2="3.4461583597" />
      <path d="M 1.859136847,3.4461583597 C 1.771510436,3.2909127802 1.695568818,3.1417612831 1.6195811873,2.9756642326" />
      <path d="M 1.6195811873,2.9756642326 C 1.5435935565,2.8092296168 1.4676519385,2.626050805 1.3800255275,2.3978319158" />
      <line x1="1.3800255275" y1="1.3995309919" x2="1.3800255275" y2="2.3978319158" />
      <path d="M 1.3800255275,2.3978319158 C 1.0535934802,2.3830376096 0.7706904402,2.3556085126 0.4876159927,2.3113076152" />
      <path d="M 0.4876159927,2.3113076152 C 0.2045415181,2.2666691483 -0.078361545,2.2052127331 -0.4047936235,2.1174451122" />
      <line x1="-0.4047936235" y1="1.1191441883" x2="-0.4047936235" y2="2.1174451122" />
      <path d="M 0.5534290153,4.214098 C 0.7922346673,4.1101333823 0.9991961008,4.0054246413 1.2062829312,3.8837972746" />
      <path d="M 1.2062829312,3.8837972746 C 1.4133697615,3.7618323427 1.620331195,3.6230962871 1.859136847,3.4461583597" />
      <path d="M -0.4047936235,2.1174451122 C -0.6435992755,2.2943830396 -0.850560709,2.4331190952 -1.0576475393,2.5550840271" />
      <path d="M -1.0576475393,2.5550840271 C -1.2647343697,2.6767113938 -1.4716958032,2.7814201348 -1.7105014552,2.8853847525" />
      <line x1="-1.7105014552" y1="1.8870838286" x2="-1.7105014552" y2="2.8853847525" />
      <path d="M -1.2313901357,3.9337111964 C -0.9049580728,4.021478813 -0.6220550213,4.0829352265 -0.3389805602,4.127573693" />
      <path d="M -0.3389805602,4.127573693 C -0.0559060991,4.1718745942 0.2269969524,4.199303693 0.5534290153,4.214098" />
      <path d="M -1.7105014552,2.8853847525 C -1.6228750442,3.1136036417 -1.5469334262,3.2967824535 -1.4709457954,3.4632170692" />
      <path d="M -1.4709457954,3.4632170692 C -1.3949581647,3.6293141197 -1.3190165467,3.7784656169 -1.2313901357,3.9337111964" />
      <path d="M 0.5691669828,1.2721488785 Q 0.5404615599,1.2452113243 0.505819715,1.2212674924" />
      <path d="M 0.3191527436,1.1296719756 C 0.1126237232,1.0583533431 -0.144198778,1.0630631666 -0.3169577003,1.1329428041" />
      <path d="M 0.6848746206,1.2272550836 C 0.6855218073,1.1213406923 0.6196100631,1.0161035896 0.505819715,0.9380447713" />
      <path d="M 0.505819715,0.9380447713 C 0.3738449392,0.8458131001 0.178171688,0.793240982 -0.0076996563,0.794911132 C -0.1526848777,0.7953960298 -0.2896574796,0.8279145324 -0.3854955317,0.8820100253 C -0.4820438193,0.9357461004 -0.536694469,1.0104687077 -0.5362385507,1.0856428444" />
      <path d="M -0.5362385507,1.0856428444 Q -0.5361603964,1.1339772274 -0.5079409541,1.1798093095" />
      <path d="M 0.6848746394,0.9440323562 C 0.6855237164,0.8381169229 0.6196034574,0.7328752573 0.505819715,0.6548221223" />
      <path d="M 0.505819715,0.6548221223 C 0.3810985179,0.5677425441 0.1991780037,0.5156426898 0.0226843544,0.5119791557 C -0.1539802719,0.5071457683 -0.3220670484,0.5505239734 -0.4237906761,0.6227724385 C -0.4977935648,0.6758003647 -0.5352764238,0.735683253 -0.5362392531,0.8024211034" />
      <path d="M -0.5362392531,0.8024211034 Q -0.5360940137,0.8571328675 -0.5002775355,0.9081648823" />
      <path d="M -0.4696931936,0.944032303 Q -0.4031561225,1.0095988458 -0.2856547712,1.0497761541" />
      <path d="M -0.125200326,1.0856437539 Q -0.0405772574,1.0962263717 0.0488266811,1.0919011619" />
      <path d="M 0.6848635719,0.6607856122 C 0.6855098526,0.5548704925 0.6196279587,0.4496998155 0.505819715,0.3715993789" />
      <path d="M 0.505819715,0.3715993789 C 0.3281627822,0.24564858 0.0322639842,0.198193162 -0.1948235442,0.2474433755 C -0.4005920106,0.2884527763 -0.5387604922,0.402061339 -0.5362392494,0.5191983262" />
      <path d="M -0.0533350703,0.8086752156 Q -0.0028285198,0.8112118727 0.0488186971,0.808678372" />
      <path d="M 0.6848746284,0.377586969 C 0.6855192758,0.2716553641 0.6195968043,0.1664266858 0.505819715,0.0883766276" />
      <path d="M 0.505819715,0.0883766276 C 0.371091119,-0.0058379759 0.1698989386,-0.0585276571 -0.0193473097,-0.0546309635 C -0.1619677212,-0.0525264799 -0.2958367402,-0.0193724885 -0.3893434842,0.0345208223 C -0.4835308917,0.0880779952 -0.5366692867,0.1618076277 -0.5362382251,0.2359743474" />
      <path d="M -0.5362382251,0.2359743474 Q -0.5361768812,0.2798027017 -0.5129052576,0.3216950705" />
      <path d="M -0.1251996845,0.5191983184 Q -0.0046372104,0.5342368312 0.1225658765,0.5191982664" />
      <path d="M 0.5592899454,0.3417192709 Q 0.6144374608,0.2926173735 0.6462887914,0.2359756126" />
      <path d="M 0.6636238798,0.2001080871 Q 0.6848246978,0.1480678169 0.6848746403,0.0943643557" />
      <path d="M 0.6848746403,0.0943643557 C 0.6855220391,-0.0115551102 0.6196035749,-0.1167919583 0.505819715,-0.1948459462" />
      <path d="M 0.505819715,-0.1948459462 C 0.3875284079,-0.2773211078 0.2180037937,-0.3286552914 0.0502026139,-0.3366584037 C -0.117665058,-0.3456137985 -0.2813836368,-0.3113529104 -0.3899092936,-0.2483772428 C -0.4837799827,-0.1948184337 -0.5366618158,-0.12126191 -0.5362391051,-0.0472468331" />
      <path d="M -0.5362391051,-0.0472468331 Q -0.5360946302,0.0074531894 -0.5002775332,0.0584967206" />
      <path d="M -0.125200148,0.2359756944 Q -0.0046002747,0.2510148837 0.1225670072,0.235975643" />
      <path d="M 0.2938033575,0.2001078334 Q 0.4201428383,0.1614304789 0.5143223253,0.0943633178" />
      <path d="M 0.5592879941,0.0584947559 Q 0.6144253137,0.0094252048 0.6462809424,-0.0472611687" />
      <path d="M 0.663606296,-0.0831480819 Q 0.6848056002,-0.1352465281 0.6848591307,-0.1889228172" />
      <path d="M 0.6848591307,-0.1889228172 C 0.685541268,-0.2947047878 0.6196170111,-0.3999332288 0.505819715,-0.4780687696" />
      <path d="M 0.505819715,-0.4780687696 C 0.2883138278,-0.6347888118 -0.1064759521,-0.6634200918 -0.3351005614,-0.5589074783 C -0.462111774,-0.5045910846 -0.5370573958,-0.4180373258 -0.5362189646,-0.3305229368" />
      <path d="M -0.1251981955,-0.0472464704 Q -0.0046263885,-0.0322081314 0.1225595119,-0.0472464689" />
      <path d="M 0.2938024349,-0.0831137744 Q 0.4201485057,-0.1217931255 0.5143236189,-0.1888583297" />
      <path d="M 0.559280345,-0.2247171832 Q 0.6144298835,-0.273817848 0.6462799436,-0.3304538069" />
      <path d="M 0.6636235411,-0.3663363509 Q 0.6848263877,-0.4183842983 0.6848746366,-0.4720811135" />
      <path d="M 0.6848746366,-0.4720811135 C 0.6855603107,-0.577929722 0.6195607572,-0.683295169 0.505819715,-0.7612913901" />
      <path d="M 0.3192954279,-0.8528513198 C 0.1217903806,-0.9208852389 -0.1215983563,-0.9200504333 -0.2932975468,-0.8584185948" />
      <path d="M -0.1252010253,-0.3304696125 Q -0.0046215472,-0.315430162 0.1225657114,-0.3304699109" />
      <path d="M 0.5592906647,-0.5079488937 Q 0.61443834,-0.5570507097 0.6462886657,-0.6136927651" />
      <path d="M 0.6636238601,-0.6495601215 Q 0.684826912,-0.7016080492 0.6848748923,-0.7553037706" />
      <path d="M 0.6848748923,-0.7553037706 C 0.6855567455,-0.8611561081 0.619564875,-0.9665140009 0.505819715,-1.0445140976" />
      <path d="M 0.3192788407,-1.136078229 C 0.1218879998,-1.2040945244 -0.121673812,-1.2032763241 -0.2932971627,-1.141641374" />
      <path d="M -0.0533371459,-0.6074381961 Q 0.0337645792,-0.6030678993 0.1225649295,-0.613692196" />
      <path d="M 0.5592901863,-0.7911713729 Q 0.6144409395,-0.8402761725 0.6462886912,-0.8969148608" />
      <path d="M 0.6768854139,-0.973386175 Q 0.684867793,-1.0057664451 0.6848746315,-1.038526467" />
      <path d="M -0.125201436,-0.8969153779 Q -0.0406099897,-0.886334252 0.048826382,-0.8906575443" />
      <path d="M 0.6848747251,-1.3217489001 C 0.6855377863,-1.4276414717 0.6195856484,-1.5329278698 0.505819715,-1.6109595484" />
      <path d="M 0.505819715,-1.6109595484 C 0.3010275337,-1.7576642192 -0.0610356759,-1.7939597669 -0.2932986438,-1.7080862719" />
      <path d="M -0.5362392474,-1.4633604419 Q -0.5361805816,-1.4195496634 -0.5129053691,-1.3776411746" />
      <path d="M 0.0488259598,-1.173880364 L 0.1225601678,-1.1801370262" />
      <path d="M 0.5649828109,-1.3627597029 Q 0.616134203,-1.4097135524 0.6462888455,-1.4633605811" />
      <path d="M 0.6636238534,-1.4992280111 Q 0.6848257404,-1.5512726832 0.6848746277,-1.6049719895" />
      <path d="M 0.6848746277,-1.6049719895 C 0.6855321539,-1.7108683292 0.6195965368,-1.8161405158 0.505819715,-1.8941822005" />
      <path d="M 0.3192917949,-1.9857430101 C 0.1528930566,-2.0426704513 -0.046642334,-2.052151461 -0.207730177,-2.0155700133 C -0.4066488055,-1.9725438563 -0.5385126142,-1.8613313039 -0.5362067698,-1.7465148634" />
      <path d="M -0.5362067698,-1.7465148634 Q -0.5360549296,-1.6918061294 -0.5002766014,-1.6408409501" />
      <path d="M 0.319291684,-2.268965822 C 0.045112495,-2.3656941586 -0.3099181788,-2.3189630859 -0.4549687646,-2.1851012548 C -0.5086566067,-2.137516117 -0.5357467685,-2.0857509932 -0.5362392501,-2.0298058836" />
      <path d="M 0.0488243818,-1.740325754 L 0.1225662947,-1.7465832687" />
      <path d="M 0.505819715,-2.4606275823 C 0.3314985156,-2.5838545068 0.0447907899,-2.6322656837 -0.1806637649,-2.5875800444 C -0.3938516011,-2.5488606227 -0.5389134565,-2.4330283518 -0.5362392881,-2.3130286034" />
      <path d="M -0.5362392881,-2.3130286034 Q -0.5360955851,-2.2583209062 -0.5002776094,-2.2072848603" />
      <path d="M -0.4696931477,-2.1714173466 Q -0.4030935198,-2.1058147524 -0.2856545959,-2.0656735368" />
      <path d="M -0.1252000031,-2.0298059658 Q -0.0406137336,-2.0192252562 0.0488264207,-2.0235484563" />
      <path d="M 0.2938040644,-2.0656734668 Q 0.4200978076,-2.1043299533 0.5143236675,-2.1714172676" />
      <path d="M 0.5592901587,-2.2072848574 Q 0.6144263696,-2.2563719517 0.6462887246,-2.313028439" />
      <path d="M 0.6636239184,-2.3488962182 Q 0.6848293543,-2.4009561875 0.6848746384,-2.4546399796" />
      <path d="M 0.6848746384,-2.4546399796 C 0.6855312895,-2.5605374867 0.6195976953,-2.6658073824 0.505819715,-2.743850281" />
      <path d="M 0.505819715,-2.743850281 C 0.3809449369,-2.83102608 0.1988247266,-2.8831293273 0.0221476115,-2.886706329 C -0.154699887,-2.8914559744 -0.3228708447,-2.847881589 -0.4244388452,-2.7754444814 C -0.49803873,-2.7224132576 -0.5353050735,-2.6626821632 -0.5362378758,-2.5962511983" />
      <path d="M -0.5362378758,-2.5962511983 Q -0.5360969096,-2.5416153471 -0.5002590238,-2.4905342075" />
      <path d="M -0.1251996417,-2.3130285696 L -0.0533350999,-2.3067743629" />
      <path d="M 0.0488239202,-2.3067710803 L 0.1225664907,-2.3130285723" />
      <path d="M 0.2938006101,-2.3488971477 Q 0.4201734526,-2.3875964757 0.5143235385,-2.4546400456" />
      <path d="M 0.3192915111,-3.1186338448 C 0.1391737982,-3.1804311115 -0.0795240281,-3.1859015946 -0.2466019499,-3.1387826346 C -0.4244241683,-3.0906569882 -0.5378852601,-2.9864173483 -0.5362350647,-2.8794795801" />
      <path d="M -0.5362350647,-2.8794795801 Q -0.5361173134,-2.8248201911 -0.5002774427,-2.7737299559" />
      <path d="M -0.125178036,-2.5962485978 L -0.0533372358,-2.5899972083" />
      <path d="M 0.0488248966,-2.5899938858 L 0.1225712478,-2.5962519049" />
      <path d="M 0.684874648,-3.0210854372 C 0.685585285,-3.1268991213 0.6195167558,-3.2323506173 0.505819715,-3.3102956787" />
      <path d="M 0.505819715,-3.3102956787 C 0.3745329808,-3.402066324 0.1799711815,-3.4546273471 -0.0050262139,-3.4534397229 C -0.149909087,-3.4533292545 -0.2869989642,-3.4212626735 -0.383320139,-3.3675420541 C -0.4803410502,-3.3141861088 -0.5357692736,-3.2397191664 -0.5362270334,-3.1646805248 C -0.5362311046,-3.164019252 -0.5362351759,-3.1633579792 -0.5362392471,-3.1626967064" />
      <path d="M -0.1252000034,-2.8794740167 Q -0.0045245519,-2.8644334477 0.1225569687,-2.8794757978" />
      <path d="M 0.5592560427,-3.0569698559 Q 0.6143139354,-3.1060378143 0.6462454996,-3.1627738882" />
      <path d="M 0.6635979235,-3.1986279556 Q 0.6848530648,-3.2506871279 0.6848746892,-3.3043080213" />
      <path d="M 0.6848746892,-3.3043080213 C 0.685528684,-3.4102143234 0.619595349,-3.5154759707 0.505819715,-3.5935184179" />
      <path d="M 0.505819715,-3.5935184179 C 0.3710422158,-3.6877726753 0.1697102801,-3.7404651106 -0.019561823,-3.7365225527 C -0.2429379764,-3.7340793868 -0.4391973177,-3.652353571 -0.506515222,-3.542358114 C -0.526264298,-3.5111347349 -0.5361722897,-3.4789885138 -0.5362391971,-3.4459194508" />
      <path d="M -0.4696930992,-3.3043079565 Q -0.4031128094,-3.2387169897 -0.2856548118,-3.1985641728" />
      <path d="M -0.1251994411,-3.1626966353 Q -0.0405936424,-3.1521154508 0.0488240412,-3.1564392428" />
      <path d="M 0.293804233,-3.1985643242 Q 0.4200952965,-3.2372198721 0.514323662,-3.3043080363" />
      <path d="M 0.6848736756,-3.5875259578 C 0.6855189505,-3.6934841357 0.6195705141,-3.7987130461 0.505819715,-3.8767412036" />
      <path d="M 0.505819715,-3.8767412036 C 0.3768211286,-3.9668980764 0.1864430009,-4.0193688543 0.0043856756,-4.0198660134 C -0.1779345863,-4.0216966508 -0.3482148239,-3.9718753037 -0.444155506,-3.8935020865 C -0.5048940432,-3.8437909158 -0.5355886219,-3.789004233 -0.5362392423,-3.7291420381" />
      <path d="M -0.4696931767,-3.587530739 Q -0.4031554248,-3.52196327 -0.2856538313,-3.4817867675" />
      <path d="M -0.1252001996,-3.4459194457 Q -0.0044254921,-3.4308788559 0.1225669201,-3.4459194133" />
      <path d="M 0.2937922914,-3.4817833452 Q 0.4201109738,-3.5204491432 0.5143236533,-3.5875307712" />
      <path d="M 0.6848746954,-3.8707535108 C 0.685535178,-3.9766423602 0.619597337,-4.0819224431 0.505819715,-4.1599637455" />
      <path d="M 0.505819715,-4.1599637455 C 0.3011010034,-4.3066672254 -0.0610471948,-4.342953057 -0.2932979958,-4.2570907925" />
      <path d="M -0.469693181,-3.8707535191 Q -0.4030884274,-3.8051485147 -0.2856548002,-3.7650096702" />
      <path d="M -0.1251997193,-3.729142071 Q -0.040604661,-3.7185609516 0.0488268065,-3.7228846894" />
      <path d="M 0.2938041311,-3.7650097106 Q 0.4201262385,-3.8036803154 0.5143236684,-3.870753516" />
      <path d="M 0.6848747282,-4.1539760112 C 0.6855267413,-4.2598837737 0.6196011604,-4.3651379977 0.505819715,-4.443186472" />
      <path d="M 0.505819715,-4.443186472 Q 0.4244810981,-4.4991557264 0.3192911318,-4.5347475675" />
      <path d="M -0.4696931089,-4.1539760826 Q -0.4031274309,-4.0883933593 -0.2856547192,-4.0482323457" />
      <path d="M -0.0533337027,-4.0061107259 Q 0.0337825928,-4.0017411407 0.1225662448,-4.0123648206" />
      <path d="M 0.5592899066,-4.1898440326 Q 0.6144355222,-4.2389405342 0.6462888494,-4.2955874589" />
      <path d="M 0.6636240005,-4.3314552731 Q 0.6848266851,-4.3835047936 0.6848746452,-4.4371988359" />
      <path d="M 0.6848746452,-4.4371988359 C 0.6855327464,-4.5430923263 0.619599624,-4.6483648093 0.505819715,-4.7264092183" />
      <path d="M 0.505819715,-4.7264092183 C 0.3011414042,-4.8730805456 -0.0609692617,-4.9094143685 -0.2932977633,-4.8235362641" />
      <path d="M -0.1251996321,-4.2955875873 L -0.0533360096,-4.289333388" />
      <path d="M 0.0488251269,-4.2893300196 L 0.1225669066,-4.2955874816" />
      <path d="M 0.5592895837,-4.473065919 Q 0.614444708,-4.5221752393 0.6462888093,-4.578810174" />
      <path d="M 0.6636238939,-4.614677781 Q 0.6848253521,-4.666720095 0.6848746445,-4.7204216159" />
      <path d="M 0.6848746445,-4.7204216159 C 0.6855729069,-4.8262527108 0.6195384137,-4.9316614385 0.505819715,-5.0096317997" />
      <path d="M 0.505819715,-5.0096317997 C 0.3009876876,-5.1563623777 -0.061153786,-5.1926203106 -0.2932985795,-5.1067585965" />
      <path d="M 0.0488248638,-4.5725527327 L 0.1225667408,-4.5788102218" />
      <path d="M 0.5592901822,-4.7562892049 Q 0.6144465592,-4.8054002967 0.6462888089,-4.8620328533" />
      <path d="M 0.6768853735,-4.9385037863 Q 0.6848674548,-4.9708811447 0.6848746465,-5.0036441774" />
      <path d="M 0.6848746465,-5.0036441774 C 0.6855758361,-5.1094715938 0.6195329721,-5.2148904767 0.505819715,-5.2928546392" />
      <path d="M 0.505819715,-5.2928546392 C 0.3011036853,-5.4395607836 -0.0611228637,-5.4758438741 -0.2932910402,-5.3899831015" />
      <path d="M -0.5362365222,-5.1452593986 Q -0.5360917274,-5.0905992156 -0.50026138,-5.039534818" />
      <path d="M -0.125179729,-4.8620354827 Q -0.0047170066,-4.8469924066 0.1225580811,-4.8620319114" />
      <path d="M 0.2938040384,-4.8979004619 Q 0.4201536504,-4.9365836004 0.5143236501,-5.0036441628" />
      <path d="M 0.5592902069,-5.0395117547 Q 0.6144105034,-5.0885790637 0.6462887996,-5.1452555776" />
      <path d="M 0.6768854437,-5.2217268264 Q 0.6848688703,-5.254115657 0.6848746973,-5.2868670254" />
      <path d="M -0.2932997525,-5.6732038231 C -0.4446760539,-5.6209141617 -0.537446643,-5.5254564372 -0.5362373754,-5.4284827207" />
      <path d="M -0.5362373754,-5.4284827207 Q -0.5361016971,-5.3737839182 -0.5002776746,-5.3227345894" />
      <path d="M -0.1251996114,-5.1452555982 Q -0.0046068354,-5.1302168118 0.1225672448,-5.1452555894" />
      <path d="M 0.2938042667,-5.1811231291 Q 0.4201014021,-5.2197817157 0.5143236585,-5.2868670009" />
      <path d="M 0.5592901365,-5.3227345596 Q 0.6144229127,-5.3718165149 0.6462888302,-5.4284782918" />
      <path d="M 0.6636239564,-5.4643460548 Q 0.6848265366,-5.51639491 0.6848746539,-5.5700896005" />
      <path d="M 0.3192909477,-5.9508611673 C 0.0962456484,-6.0282535852 -0.1843463405,-6.0154379005 -0.3558983081,-5.9306767544 C -0.4704465148,-5.876236184 -0.5369059405,-5.794325569 -0.5362327071,-5.7116931724" />
      <path d="M -0.5362327071,-5.7116931724 Q -0.5360406669,-5.6569665556 -0.5002569848,-5.6059481277" />
      <path d="M -0.0533370869,-5.4222240755 Q 0.0337871083,-5.4178545914 0.1225663334,-5.4284782957" />
      <path d="M 0.639705772,-6.1332241231 C 0.7887880934,-6.0346255973 0.8751687955,-5.9003837466 0.8743175931,-5.7652698578" />
      <path d="M 0.8738450797,-5.7475684425 Q 0.8640644422,-5.5931287961 0.7255510768,-5.464345852" />
      <path d="M 0.3192887994,-5.2610527914 Q 0.1873251297,-5.2284923922 0.0488251576,-5.2232482168" />
      <path d="M -0.0533361847,-5.2232449563 Q -0.179608859,-5.2281661516 -0.2932956228,-5.2554871217" />
      <path d="M -0.5089366864,-5.335938998 C -0.6472166082,-5.4105300791 -0.726406594,-5.5167391526 -0.7256823061,-5.6236583738" />
      <path d="M -0.7256823061,-5.6236583738 C -0.7267887564,-5.7430584196 -0.6271900256,-5.8612362736 -0.4589166059,-5.9361216758 C -0.2921182467,-6.0119764213 -0.0597445132,-6.0429107569 0.1634715035,-6.014909447 C 0.3570816925,-5.9915689518 0.5413561354,-5.9247294005 0.6706915036,-5.8282200302 C 0.8009777714,-5.7322103042 0.8749554252,-5.6074308734 0.874317641,-5.4820472662" />
      <path d="M 0.874317641,-5.4820472662 Q 0.8741909695,-5.4005842045 0.8352091603,-5.3227345458" />
      <path d="M -0.0533365704,-4.9400222209 Q -0.1796104564,-4.9449433185 -0.2932981093,-4.972264757" />
      <path d="M -0.7249878349,-5.3227343816 L -0.725682273,-5.3404357989" />
      <path d="M -0.725682273,-5.3404357989 C -0.7278988116,-5.4839868712 -0.5815070807,-5.6245408728 -0.3516638731,-5.6927859522 C -0.1113495923,-5.7674774603 0.2124045862,-5.7568691186 0.4611086793,-5.6583137815 C 0.7124477623,-5.5625608381 0.8770425084,-5.3826555777 0.8743178715,-5.198824689" />
      <path d="M 0.8743178715,-5.198824689 Q 0.8741911752,-5.1173614711 0.8352090513,-5.0395117759" />
      <path d="M 0.3192911838,-4.6946079898 Q 0.1873270755,-4.6620471603 0.0488262275,-4.6568028083" />
      <path d="M -0.0533366805,-4.6567995102 Q -0.1796108928,-4.6617208003 -0.2932986794,-4.6890423654" />
      <path d="M -0.7249881154,-5.0395123708 L -0.7256825582,-5.0572138035" />
      <path d="M -0.7256825582,-5.0572138035 C -0.7255717067,-5.105307815 -0.7106534256,-5.1519259707 -0.6809277148,-5.1970682706 C -0.6197091981,-5.2904679012 -0.493893893,-5.3700844066 -0.3324138622,-5.4151871034 C -0.171490383,-5.4608434517 0.023641831,-5.4714811669 0.2081151923,-5.4422310058 C 0.3927715299,-5.413614743 0.5651021431,-5.3452766195 0.685480015,-5.2505071956 C 0.8066939596,-5.1561526559 0.8748646267,-5.0361255327 0.8743174662,-4.9156018861" />
      <path d="M 0.8743174662,-4.9156018861 L 0.8738449534,-4.8979004676" />
      <path d="M -0.7249881144,-4.7562885626 L -0.7256825571,-4.7739899671" />
      <path d="M -0.7256825571,-4.7739899671 C -0.726531291,-4.8854115159 -0.6402707579,-4.9959630158 -0.4913681519,-5.0709404811 C -0.3436660671,-5.1466233847 -0.1354144763,-5.1855027149 0.0743175581,-5.1732030902 C 0.2840495979,-5.1619010363 0.4923005955,-5.0994198945 0.6400029763,-5.0001349527 C 0.788905946,-4.9015553857 0.8751668151,-4.7674022422 0.8743178717,-4.6323790884" />
      <path d="M 0.8743178717,-4.6323790884 Q 0.8741911893,-4.5509160398 0.8352091597,-4.4730663922" />
      <path d="M 0.3192921975,-4.1281629842 Q 0.1873271321,-4.0956018809 0.0488249657,-4.0903574339" />
      <path d="M -0.0533370758,-4.0903540601 Q -0.1796105268,-4.0952751554 -0.2932971818,-4.1225964977" />
      <path d="M -0.7256822732,-4.4907679751 C -0.7265312499,-4.6021888916 -0.6402708031,-4.712740323 -0.4913676837,-4.7877180917 C -0.3436651756,-4.8634012353 -0.135413987,-4.9022800895 0.0743176588,-4.8899802251 C 0.2840493029,-4.8786779149 0.4923005311,-4.8161972114 0.6400030569,-4.7169124998 C 0.7889061973,-4.6183331904 0.8751666208,-4.4841796798 0.874317641,-4.3491565075" />
      <path d="M 0.874317641,-4.3491565075 L 0.8738451269,-4.3314550897" />
      <path d="M -0.7256823066,-4.2075454022 C -0.726531303,-4.3189667847 -0.6402706386,-4.4295180986 -0.4913674012,-4.5044954548 C -0.343664769,-4.5801781965 -0.1354136631,-4.6190572277 0.0743179367,-4.6067576245 C 0.2840495282,-4.5954555944 0.4923008386,-4.5329745198 0.6400033186,-4.4336894841 C 0.7889064247,-4.3351097992 0.8751665699,-4.2009569119 0.8743175929,-4.0659339152" />
      <path d="M 0.8743175929,-4.0659339152 L 0.8738450795,-4.0482324933" />
      <path d="M -0.7249879257,-3.9066205999 L -0.7256823634,-3.9243220162" />
      <path d="M -0.7256823634,-3.9243220162 C -0.7265312625,-4.035743113 -0.6402710026,-4.1462944244 -0.4913685233,-4.2212721871 C -0.3436666538,-4.2969553312 -0.1354156752,-4.3358345961 0.0743163078,-4.3235349901 C 0.2840483247,-4.312232934 0.4922993426,-4.2497523126 0.6400017179,-4.1504678112 C 0.788904592,-4.051888747 0.875166902,-3.917735162 0.8743178609,-3.7827123193" />
      <path d="M 0.8743178609,-3.7827123193 L 0.8738453424,-3.76501087" />
      <path d="M -0.7249877352,-3.623398739 L -0.7256821697,-3.6411001599" />
      <path d="M -0.7256821697,-3.6411001599 C -0.7311882591,-3.8257879242 -0.4826192511,-4.0005100354 -0.1473520999,-4.0345642109 C 0.1848626156,-4.0748344012 0.5711828675,-3.9689143864 0.7514732931,-3.7750736582 C 0.8325141835,-3.690005246 0.8734623072,-3.5981437016 0.8743176641,-3.499489025" />
      <path d="M 0.8743176641,-3.499489025 L 0.8738451522,-3.4817876041" />
      <path d="M -0.7249879939,-3.3401753615 L -0.7256824313,-3.3578767778" />
      <path d="M -0.7256824313,-3.3578767778 C -0.7274688314,-3.4933752315 -0.597761938,-3.6266074213 -0.3887910016,-3.6981565324 C -0.1818884748,-3.771417356 0.0979902962,-3.7803727798 0.3381440963,-3.7156462212 C 0.6530748249,-3.6353804433 0.8790117384,-3.4298473895 0.8743176702,-3.2162657929" />
      <path d="M 0.8743176702,-3.2162657929 L 0.8738451547,-3.1985643727" />
      <path d="M -0.7249878415,-3.0569530268 L -0.7256822786,-3.0746544477" />
      <path d="M -0.7256822786,-3.0746544477 C -0.7303617504,-3.2509761515 -0.5048426599,-3.4192826724 -0.1903023299,-3.4626056569 C 0.0498941306,-3.4988507461 0.3299888635,-3.4613502143 0.5370835269,-3.3594437148 C 0.7462494041,-3.2592531572 0.8761079707,-3.0972841346 0.8743178237,-2.9330426903" />
      <path d="M 0.8743178237,-2.9330426903 Q 0.8742396791,-2.8609786987 0.8435623129,-2.7914315905" />
      <path d="M -0.0533375435,-2.3910178868 Q -0.1796108885,-2.3959391955 -0.2932980975,-2.4232606104" />
      <path d="M -0.5088834304,-2.5036831208 C -0.6471959371,-2.5782762045 -0.7264068299,-2.6844986636 -0.7256822733,-2.7914321677" />
      <path d="M -0.7256822733,-2.7914321677 C -0.7248332561,-2.8730514143 -0.6840342445,-2.9479150771 -0.6032852386,-3.0160231563 C -0.4232358835,-3.1712761478 -0.0368232603,-3.2386473638 0.2955835187,-3.1596767981 C 0.6310416712,-3.0869323668 0.8798317784,-2.8733692935 0.8743175607,-2.6498208036" />
      <path d="M 0.8743175607,-2.6498208036 Q 0.8741908713,-2.5683574542 0.8352088806,-2.490507563" />
      <path d="M -0.0533371064,-2.1077953067 Q -0.1796110986,-2.1127165348 -0.2932986207,-2.1400380461" />
      <path d="M -0.7249880295,-2.4905084975 L -0.7256824711,-2.5082099527" />
      <path d="M -0.7256824711,-2.5082099527 C -0.7265315078,-2.6196309167 -0.6402692013,-2.7301826211 -0.4913663301,-2.805159804 C -0.3436639567,-2.8808424245 -0.1354129354,-2.9197211668 0.0743190817,-2.9074213426 C 0.284051065,-2.8961190683 0.492302042,-2.8336379222 0.6400039126,-2.7343528973 C 0.7889063927,-2.6357732538 0.8751666553,-2.501620062 0.8743177561,-2.3665970842" />
      <path d="M 0.8743177561,-2.3665970842 Q 0.874239623,-2.2945332668 0.8435623484,-2.2249862231" />
      <path d="M -0.0533352836,-1.8245725437 Q -0.1796095696,-1.829493567 -0.2932975698,-1.8568149146" />
      <path d="M -0.7249877676,-2.2072849669 L -0.7256822013,-2.2249863902" />
      <path d="M -0.7256822013,-2.2249863902 C -0.7265311785,-2.3364074981 -0.6402710311,-2.4469584999 -0.4913679245,-2.5219362979 C -0.343665444,-2.597619447 -0.1354141346,-2.6364986329 0.0743174566,-2.6241987755 C 0.2840490562,-2.6128964912 0.4923001626,-2.5504155741 0.6400027944,-2.4511309456 C 0.7889060314,-2.3525517025 0.8751666943,-2.2183985004 0.8743176979,-2.0833752311" />
      <path d="M 0.8743176979,-2.0833752311 Q 0.8741910029,-2.0019119183 0.8352090457,-1.9240621679" />
      <path d="M -0.0533369498,-1.5413498431 Q -0.1795905355,-1.5462699657 -0.2932629875,-1.5735839116" />
      <path d="M -0.7249878147,-1.9240621386 L -0.7256822492,-1.9417635558" />
      <path d="M -0.7256822492,-1.9417635558 C -0.7265312291,-2.0531848412 -0.6402708051,-2.1637364628 -0.4913676642,-2.2387138838 C -0.3436651381,-2.3143967069 -0.1354139102,-2.3532755235 0.0743177335,-2.3409759464 C 0.2840493787,-2.3296739235 0.4923005674,-2.2671931805 0.6400030757,-2.1679081489 C 0.7889061952,-2.069328492 0.8751666416,-1.935175175 0.8743176648,-1.8001523709" />
      <path d="M 0.8743176648,-1.8001523709 Q 0.8741909808,-1.718689268 0.8352089889,-1.6408394511" />
      <path d="M -0.053336002,-1.2581272165 Q -0.1796106306,-1.2630483871 -0.2932986209,-1.2903699533" />
      <path d="M -0.5170785952,-1.3753181708 C -0.6504035649,-1.4496183422 -0.7263524605,-1.5537583179 -0.7256824797,-1.6585407966" />
      <path d="M -0.7256824797,-1.6585407966 C -0.7265314229,-1.7699620479 -0.6402705557,-1.88051329 -0.4913675883,-1.9554909561 C -0.3436652098,-2.0311739968 -0.1354142125,-2.0700532371 0.0743178278,-2.0577533898 C 0.2840498629,-2.0464511132 0.4923014524,-1.9839698834 0.6400035374,-1.8846850795 C 0.7889061428,-1.7861057141 0.8751666835,-1.6519523102 0.87431795,-1.5169288614" />
      <path d="M 0.87431795,-1.5169288614 Q 0.8741912144,-1.4354659539 0.8352091044,-1.3576167532" />
      <path d="M -0.0533330091,-0.9749043443 Q -0.1796092053,-0.9798253056 -0.2932989223,-1.0071472992" />
      <path d="M -0.7249876416,-1.3576167533 L -0.7256820744,-1.3753181719" />
      <path d="M -0.7256820744,-1.3753181719 C -0.726228437,-1.4747273528 -0.6581106872,-1.573640932 -0.5369802379,-1.6469097706 C -0.4166848271,-1.7205927594 -0.2444648908,-1.7678735316 -0.0598942628,-1.7754672117 C 0.1244930896,-1.7836938091 0.319567507,-1.7520670932 0.4805061057,-1.6854335697 C 0.6419997026,-1.6193531473 0.7679035141,-1.5187691311 0.8292854051,-1.4043734185 C 0.8591948609,-1.3489744507 0.8742057089,-1.2920858064 0.8743179489,-1.2337074856" />
      <path d="M 0.8743179489,-1.2337074856 Q 0.8742397485,-1.1616430513 0.8435620841,-1.0920954449" />
      <path d="M 0.8352089885,-1.0743940536 Q 0.78431664,-0.9738665845 0.6768854026,-0.8921792162" />
      <path d="M 0.6564695865,-0.8772475874 L 0.6147257455,-0.849764035" />
      <path d="M 0.3192916768,-0.7294904648 Q 0.1873287132,-0.6969298715 0.0488292545,-0.6916851545" />
      <path d="M -0.7256824799,-1.0920955429 C -0.7284020836,-1.2438111028 -0.5639811244,-1.3916105208 -0.3128412374,-1.4553717609 C -0.064333974,-1.5219294064 0.2592296196,-1.5006597678 0.4995873318,-1.3941328312 C 0.7298260164,-1.295599631 0.8765429342,-1.1245480285 0.8743176651,-0.9504839719" />
      <path d="M 0.8743176651,-0.9504839719 Q 0.8741909909,-0.8690209696 0.8352090456,-0.7911713365" />
      <path d="M 0.3192895167,-0.4462671449 Q 0.1872939177,-0.4136989844 0.0487607043,-0.4084600465" />
      <path d="M -0.0532591253,-0.4084562652 Q -0.1795749887,-0.4133718714 -0.2932986564,-0.4407019232" />
      <path d="M -0.7249878147,-0.791171367 L -0.7256822492,-0.8088727869" />
      <path d="M -0.7256822492,-0.8088727869 C -0.7263182498,-0.9122575898 -0.6524512633,-1.0150403691 -0.5223362459,-1.0891132396 C -0.3931699143,-1.1636840647 -0.2091194078,-1.208647651 -0.0156716336,-1.2101833788 C 0.2076569846,-1.2130456631 0.440257352,-1.1568997435 0.6072385268,-1.0557522507 C 0.7756974418,-0.9555768892 0.8754268105,-0.8120319829 0.8743176984,-0.6672611094" />
      <path d="M 0.8743176984,-0.6672611094 C 0.8749167092,-0.5438941951 0.8033794944,-0.4210846276 0.6768848494,-0.3257333617" />
      <path d="M 0.6564617344,-0.3107966521 L 0.6147258925,-0.2833187894" />
      <path d="M 0.3192922353,-0.1630453172 Q 0.1872991328,-0.1304772849 0.0487683117,-0.1252374892" />
      <path d="M -0.0533371083,-0.1252362911 Q -0.1796104728,-0.1301574746 -0.2932977404,-0.1574788574" />
      <path d="M -0.7249877674,-0.5079485392 L -0.7256822011,-0.525649953" />
      <path d="M -0.7256822011,-0.525649953 C -0.7265290097,-0.6369961531 -0.6403893507,-0.7474760711 -0.4916649217,-0.8224492413 C -0.2708696326,-0.9378900484 0.089458609,-0.9623807465 0.3802696924,-0.8714423545 C 0.6741056448,-0.7847963672 0.8782716255,-0.587622015 0.8743177552,-0.3840392585" />
      <path d="M 0.8743177552,-0.3840392585 C 0.8749167088,-0.2606720169 0.8033790729,-0.1378619438 0.6768840237,-0.0425101508" />
      <path d="M 0.656469861,-0.0275797343 L 0.6147252381,-9.56208e-05" />
      <path d="M 0.3192914565,0.1201778081 Q 0.1873269724,0.1527386578 0.0488258083,0.1579829797" />
      <path d="M -0.0533367088,0.1579862815 Q -0.179610945,0.1530650345 -0.2932986129,0.1257435299" />
      <path d="M -0.7249880278,-0.2247250039 L -0.7256824691,-0.2424263851" />
      <path d="M -0.7256824691,-0.2424263851 C -0.7256810962,-0.2582632182 -0.7240199507,-0.2740455579 -0.7206990326,-0.2897734041 C -0.6988952425,-0.3965199106 -0.5970035022,-0.4972586715 -0.4420603397,-0.5622411399 C -0.2880699526,-0.627885855 -0.0829184889,-0.6568357784 0.1189643685,-0.6383903378 C 0.3209295363,-0.6208106281 0.5171539409,-0.5559165161 0.6555742853,-0.457906022 C 0.7950669649,-0.3604913044 0.8750554313,-0.2310169297 0.8743175615,-0.1008155365" />
      <path d="M 0.8743175615,-0.1008155365 Q 0.8741909023,-0.0193526897 0.8352092343,0.0584967152" />
      <path d="M -0.0533358958,0.4412090134 Q -0.1796105612,0.4362878252 -0.2932992172,0.4089661061" />
      <path d="M -0.7249878413,0.058497239 L -0.7256822723,0.0407958228" />
      <path d="M -0.7256822723,0.0407958228 C -0.7265311593,-0.0706257036 -0.6402713665,-0.1811767134 -0.4913684873,-0.2561544244 C -0.343666224,-0.3318375082 -0.1354146429,-0.3707169824 0.0743171272,-0.3584172887 C 0.2840489161,-0.3471151774 0.4922999426,-0.2846340959 0.6400026002,-0.1853493506 C 0.7889058477,-0.0867699785 0.8751668087,0.0473830914 0.8743178232,0.1824063476" />
      <path d="M 0.8743178232,0.1824063476 L 0.873845307,0.2001077679" />
      <path d="M -0.7249878413,0.3417195229 L -0.7256822784,0.3240181067" />
      <path d="M -0.7256822784,0.3240181067 C -0.7265312447,0.2125970442 -0.6402708179,0.1020453102 -0.4913677286,0.0270676985 C -0.3436652504,-0.0486153142 -0.1354140158,-0.0874940307 0.0743176959,-0.0751943133 C 0.2840494077,-0.0638921408 0.492300642,-0.0014115335 0.6400031202,0.0978733709 C 0.7889062095,0.1964528743 0.8751666366,0.3306064986 0.8743176704,0.4656294508" />
      <path d="M 0.8743176704,0.4656294508 L 0.8738451548,0.4833308678" />
      <path d="M -0.7256824319,0.6072404371 C -0.7265314173,0.4958190789 -0.6402704555,0.3852679066 -0.4913672084,0.3102904313 C -0.3436645512,0.2346075828 -0.1354135248,0.1957283986 0.0743182655,0.2080281859 C 0.2840500369,0.2193303907 0.4923016191,0.2818117633 0.6400038811,0.3810967444 C 0.7889067588,0.4796763524 0.8751665514,0.6138292614 0.8743176651,0.7488526872" />
      <path d="M 0.8743176651,0.7488526872 C 0.87465523,0.8553104242 0.8218611532,0.9614989947 0.7255513207,1.0497760785" />
      <path d="M -0.5089374121,1.178182715 C -0.6472170709,1.1035914752 -0.7264064528,0.9973826264 -0.7256821689,0.8904638172" />
      <path d="M -0.7256821689,0.8904638172 C -0.7264190468,0.7830628102 -0.6464883626,0.6763875734 -0.507083301,0.6017399954 C -0.3687493992,0.5264976071 -0.1726378827,0.4843380498 0.0292512819,0.4894567098 C 0.2310574735,0.4937108283 0.4361734742,0.545324749 0.5902139248,0.6336299471 C 0.7452049826,0.7212733485 0.8472321309,0.8446720132 0.8692402837,0.9741227495 C 0.8726239115,0.9933844449 0.8743164379,1.0127021862 0.8743178629,1.0320759734" />
      <path d="M 0.8743178629,1.0320759734 Q 0.8731522741,1.1763609373 0.7571424244,1.3016789478" />
      <path d="M -0.6951047708,1.2898879279 Q -0.7256051125,1.2330342625 -0.7256823643,1.1736856757" />
      <path d="M -0.7256823643,1.1736856757 C -0.7296297313,1.0055908104 -0.5256607025,0.8438903936 -0.2320227049,0.7925855631 C 0.0585915669,0.7369963198 0.4187702666,0.7966989204 0.639705772,0.9473433104 C 0.7887880934,1.0459418362 0.8751687955,1.1801836869 0.8743175931,1.3152975757" />
      <path d="M 0.8743175931,1.3152975757 L 0.874283094,1.3200812032" />
      <path d="M -0.6163599096,1.2435748869 Q -0.539482304,1.1750595245 -0.4202383077,1.1282278324" />
      <path d="M -0.3986233075,1.1201135163 C -0.238791013,1.0619631995 -0.0338883092,1.0410653241 0.1634715035,1.0656579865 C 0.3857777414,1.0922378474 0.5949689668,1.1768474967 0.7243948115,1.2965344498" />
      <path d="M 0.639705772,-6.1332241231 L 0.639705772,-6.0978212859" />
      <path d="M 0.639705772,-6.0978212859 C 0.7887880934,-5.9992227601 0.8751687955,-5.8649809094 0.8743175931,-5.7298670207" />
      <path d="M 0.8743175931,-5.7298670207 Q 0.8728699344,-5.5771081543 0.7439901147,-5.4466444354" />
      <path d="M -0.456913529,-5.2748951999 L -0.4738301824,-5.2826885982" />
      <path d="M -0.5129054141,-5.3027100919 C -0.648772637,-5.3771684274 -0.7263798443,-5.4823735667 -0.7256823061,-5.5882555367" />
      <path d="M -0.7256823061,-5.5882555367 C -0.7267887564,-5.7076555824 -0.6271900256,-5.8258334364 -0.4589166059,-5.9007188386 C -0.2921182467,-5.9765735841 -0.0597445132,-6.0075079197 0.1634715035,-5.9795066099 C 0.3570816925,-5.9561661146 0.5413561354,-5.8893265633 0.6706915036,-5.792817193 C 0.8009777714,-5.6968074671 0.8749554252,-5.5720280363 0.874317641,-5.446644429" />
      <path d="M 0.874317641,-5.446644429 Q 0.874239503,-5.3745804263 0.843562246,-5.3050331787" />
      <path d="M -0.6797570108,-5.1634217913 Q -0.7255072239,-5.2319259302 -0.725682273,-5.3050329617" />
      <path d="M -0.725682273,-5.3050329617 C -0.7278988116,-5.448584034 -0.5815070807,-5.5891380356 -0.3516638731,-5.657383115 C -0.1113495923,-5.7320746231 0.2124045862,-5.7214662814 0.4611086793,-5.6229109444 C 0.7124477623,-5.5271580009 0.8770425084,-5.3472527406 0.8743178715,-5.1634218519" />
      <path d="M 0.8743178715,-5.1634218519 Q 0.8742397163,-5.0913576317 0.8435621373,-5.0218102778" />
      <path d="M -0.4569128467,-4.7084494555 L -0.4738303136,-4.7162432355" />
      <path d="M -0.512905374,-4.7362646901 L -0.5170786582,-4.7385877256" />
      <path d="M -0.5467507652,-4.756289133 C -0.6618511581,-4.8288746572 -0.7261728828,-4.9251267976 -0.7256825582,-5.0218109664" />
      <path d="M -0.7256825582,-5.0218109664 C -0.7255717067,-5.0699049778 -0.7106534256,-5.1165231335 -0.6809277148,-5.1616654335 C -0.6197091981,-5.255065064 -0.493893893,-5.3346815695 -0.3324138622,-5.3797842662 C -0.171490383,-5.4254406145 0.023641831,-5.4360783298 0.2081151923,-5.4068281686 C 0.3927715299,-5.3782119058 0.5651021431,-5.3098737824 0.685480015,-5.2151043584 C 0.8066939596,-5.1207498187 0.8748646267,-5.0007226955 0.8743174662,-4.880199049" />
      <path d="M 0.8743174662,-4.880199049 C 0.8748812165,-4.7587444773 0.8056180701,-4.6378056801 0.6826836708,-4.5431158745" />
      <path d="M 0.6678666404,-4.5319415883 Q 0.6206204606,-4.4972760002 0.5649820847,-4.4679230942" />
      <path d="M -0.6797570106,-4.5969763094 Q -0.7255074023,-4.6654801037 -0.7256825571,-4.7385871299" />
      <path d="M -0.7256825571,-4.7385871299 C -0.726531291,-4.8500086788 -0.6402707579,-4.9605601786 -0.4913681519,-5.0355376439 C -0.3436660671,-5.1112205475 -0.1354144763,-5.1500998778 0.0743175581,-5.1378002531 C 0.2840495979,-5.1264981991 0.4923005955,-5.0640170573 0.6400029763,-4.9647321156 C 0.788905946,-4.8661525485 0.8751668151,-4.731999405 0.8743178717,-4.5969762513" />
      <path d="M 0.8743178717,-4.5969762513 C 0.8748816694,-4.4755219693 0.805617956,-4.3545832906 0.6826839243,-4.2598936209" />
      <path d="M 0.66786644,-4.2487189817 Q 0.6206206112,-4.21405364 0.5649828367,-4.1847009241" />
      <path d="M -0.4569129618,-4.1420038943 L -0.4738304661,-4.1497976689" />
      <path d="M -0.5128976996,-4.1698147843 L -0.5170788172,-4.1721421455" />
      <path d="M -0.5467508816,-4.189843551 Q -0.6335377701,-4.2451135978 -0.6797570764,-4.3137538835" />
      <path d="M -0.6908045534,-4.3314553296 Q -0.7255816475,-4.3918896648 -0.7256822732,-4.4553651379" />
      <path d="M -0.7256822732,-4.4553651379 C -0.7265312499,-4.5667860544 -0.6402708031,-4.6773374858 -0.4913676837,-4.7523152546 C -0.3436651756,-4.8279983981 -0.135413987,-4.8668772523 0.0743176588,-4.8545773879 C 0.2840493029,-4.8432750777 0.4923005311,-4.7807943742 0.6400030569,-4.6815096627 C 0.7889061973,-4.5829303533 0.8751666208,-4.4487768426 0.874317641,-4.3137536704" />
      <path d="M 0.874317641,-4.3137536704 Q 0.8742394933,-4.2416895221 0.8435621557,-4.1721423086" />
      <path d="M -0.4569134703,-3.8587816987 L -0.4738304062,-3.8665752403" />
      <path d="M -0.5129053716,-3.8865966323 C -0.6487725619,-3.9610550672 -0.7263797701,-4.0662603542 -0.7256823066,-4.172142565" />
      <path d="M -0.7256823066,-4.172142565 C -0.726531303,-4.2835639475 -0.6402706386,-4.3941152614 -0.4913674012,-4.4690926177 C -0.343664769,-4.5447753593 -0.1354136631,-4.5836543905 0.0743179367,-4.5713547873 C 0.2840495282,-4.5600527572 0.4923008386,-4.4975716827 0.6400033186,-4.3982866469 C 0.7889064247,-4.299706962 0.8751665699,-4.1655540747 0.8743175929,-4.030531078" />
      <path d="M 0.8743175929,-4.030531078 Q 0.8742394559,-3.9584671316 0.8435622925,-3.8889198018" />
      <path d="M -0.4569134919,-3.5755589595 L -0.4738303746,-3.5833524821" />
      <path d="M -0.5129053425,-3.6033738837 C -0.6487726414,-3.6778324002 -0.7263799277,-3.7830375117 -0.7256823634,-3.8889191791" />
      <path d="M -0.7256823634,-3.8889191791 C -0.7265312625,-4.0003402758 -0.6402710026,-4.1108915872 -0.4913685233,-4.1858693499 C -0.3436666538,-4.261552494 -0.1354156752,-4.3004317589 0.0743163078,-4.2881321529 C 0.2840483247,-4.2768300968 0.4922993426,-4.2143494754 0.6400017179,-4.115064974 C 0.788904592,-4.0164859099 0.875166902,-3.8823323248 0.8743178609,-3.7473094821" />
      <path d="M 0.8743178609,-3.7473094821 Q 0.8742396664,-3.6752448157 0.8435624606,-3.6056969491" />
      <path d="M -0.4569131542,-3.2923359716 L -0.4738303505,-3.3001296395" />
      <path d="M -0.5129056233,-3.3201512381 C -0.6487727529,-3.3946099401 -0.7263796292,-3.4998153521 -0.7256821697,-3.6056973228" />
      <path d="M -0.7256821697,-3.6056973228 C -0.7311882591,-3.790385087 -0.4826192511,-3.9651071982 -0.1473520999,-3.9991613737 C 0.1848626156,-4.039431564 0.5711828675,-3.9335115492 0.7514732931,-3.739670821 C 0.8325141835,-3.6546024088 0.8734623072,-3.5627408644 0.8743176641,-3.4640861878" />
      <path d="M 0.8743176641,-3.4640861878 Q 0.8742395097,-3.3920217327 0.8435621072,-3.3224742743" />
      <path d="M -0.6797570731,-3.1808626945 Q -0.7255073712,-3.2493667525 -0.7256824313,-3.3224739406" />
      <path d="M -0.7256824313,-3.3224739406 C -0.7274688314,-3.4579723943 -0.597761938,-3.5912045842 -0.3887910016,-3.6627536952 C -0.1818884748,-3.7360145189 0.0979902962,-3.7449699426 0.3381440963,-3.680243384 C 0.6530748249,-3.5999776061 0.8790117384,-3.3944445523 0.8743176702,-3.1808629557" />
      <path d="M 0.8743176702,-3.1808629557 Q 0.8742723401,-3.1180710743 0.8508667519,-3.056952993" />
      <path d="M 0.8435621415,-3.039251545 Q 0.8146999372,-2.9741274697 0.7609184661,-2.9153416692" />
      <path d="M -0.456913044,-2.7258905006 L -0.4738090947,-2.7336741083" />
      <path d="M -0.5129051997,-2.7537055601 C -0.648772585,-2.8281641841 -0.7263797941,-2.933369804 -0.7256822786,-3.0392516105" />
      <path d="M -0.7256822786,-3.0392516105 C -0.7303617504,-3.2155733144 -0.5048426599,-3.3838798353 -0.1903023299,-3.4272028197 C 0.0498941306,-3.463447909 0.3299888635,-3.4259473772 0.5370835269,-3.3240408777 C 0.7462494041,-3.22385032 0.8761079707,-3.0618812974 0.8743178237,-2.8976398531" />
      <path d="M 0.8743178237,-2.8976398531 Q 0.8742724922,-2.8348480085 0.8508669067,-2.773730113" />
      <path d="M 0.8435623129,-2.7560287534 Q 0.8146999698,-2.6909045744 0.760918202,-2.6321187702" />
      <path d="M -0.4568889268,-2.4426572291 L -0.4738303767,-2.4504617187" />
      <path d="M -0.5129054998,-2.4704832083 C -0.6487729002,-2.5449418719 -0.726379719,-2.650146967 -0.7256822733,-2.7560293305" />
      <path d="M -0.7256822733,-2.7560293305 C -0.7248332561,-2.8376485771 -0.6840342445,-2.91251224 -0.6032852386,-2.9806203191 C -0.4232358835,-3.1358733106 -0.0368232603,-3.2032445266 0.2955835187,-3.1242739609 C 0.6310416712,-3.0515295297 0.8798317784,-2.8379664563 0.8743175607,-2.6144179665" />
      <path d="M 0.8743175607,-2.6144179665 C 0.8748812874,-2.4929632891 0.8056179542,-2.3720243269 0.6826836629,-2.2773343837" />
      <path d="M 0.6678664329,-2.2661599286 Q 0.6247551135,-2.2345240555 0.5745913352,-2.2072848171" />
      <path d="M -0.4569133112,-2.159445431 L -0.4738303935,-2.1672390459" />
      <path d="M -0.5129053437,-2.1872604398 C -0.6487738299,-2.2617193537 -0.726380335,-2.3669250927 -0.7256824711,-2.4728071156" />
      <path d="M -0.7256824711,-2.4728071156 C -0.7265315078,-2.5842280795 -0.6402692013,-2.6947797839 -0.4913663301,-2.7697569668 C -0.3436639567,-2.8454395874 -0.1354129354,-2.8843183296 0.0743190817,-2.8720185054 C 0.284051065,-2.8607162312 0.492302042,-2.798235085 0.6400039126,-2.6989500601 C 0.7889063927,-2.6003704167 0.8751666553,-2.4662172249 0.8743177561,-2.3311942471" />
      <path d="M 0.8743177561,-2.3311942471 Q 0.8742724323,-2.2684025812 0.8508669424,-2.2072847807" />
      <path d="M -0.4569132419,-1.8762225921 L -0.4738302221,-1.8840161854" />
      <path d="M -0.5129053944,-1.9040376848 C -0.6487729355,-1.978495708 -0.7263797205,-2.0837017145 -0.7256822013,-2.189583553" />
      <path d="M -0.7256822013,-2.189583553 C -0.7265311785,-2.301004661 -0.6402710311,-2.4115556627 -0.4913679245,-2.4865334608 C -0.343665444,-2.5622166098 -0.1354141346,-2.6010957957 0.0743174566,-2.5887959383 C 0.2840490562,-2.577493654 0.4923001626,-2.5150127369 0.6400027944,-2.4157281084 C 0.7889060314,-2.3171488654 0.8751666943,-2.1829956633 0.8743176979,-2.0479723939" />
      <path d="M 0.8743176979,-2.0479723939 Q 0.8728698872,-1.8952130607 0.7439901141,-1.7647493504" />
      <path d="M -0.4568505676,-1.5929720265 L -0.4738303471,-1.6007936403" />
      <path d="M -0.5129053543,-1.6208150933 C -0.6487727074,-1.6952737548 -0.7263797212,-1.8004786347 -0.7256822492,-1.9063607186" />
      <path d="M -0.7256822492,-1.9063607186 C -0.7265312291,-2.017782004 -0.6402708051,-2.1283336257 -0.4913676642,-2.2033110466 C -0.3436651381,-2.2789938697 -0.1354139102,-2.3178726864 0.0743177335,-2.3055731092 C 0.2840493787,-2.2942710864 0.4923005674,-2.2317903433 0.6400030757,-2.1325053117 C 0.7889061952,-2.0339256549 0.8751666416,-1.8997723379 0.8743176648,-1.7647495337" />
      <path d="M 0.8743176648,-1.7647495337 C 0.8748814104,-1.643295173 0.8056179022,-1.5223559611 0.6826833774,-1.4276658968" />
      <path d="M 0.6678667465,-1.4164919044 Q 0.624755284,-1.3848559389 0.5745913517,-1.3576167529" />
      <path d="M -0.4569132999,-1.3097772808 L -0.4738305362,-1.317570971" />
      <path d="M -0.5129053772,-1.3375923344 L -0.5170785952,-1.3399153337" />
      <path d="M -0.5467507245,-1.3576167522 C -0.6618512853,-1.4302023432 -0.7261729703,-1.5264542428 -0.7256824797,-1.6231379595" />
      <path d="M -0.7256824797,-1.6231379595 C -0.7265314229,-1.7345592107 -0.6402705557,-1.8451104529 -0.4913675883,-1.9200881189 C -0.3436652098,-1.9957711597 -0.1354142125,-2.0346503999 0.0743178278,-2.0223505527 C 0.2840498629,-2.0110482761 0.4923014524,-1.9485670463 0.6400035374,-1.8492822423 C 0.7889061428,-1.750702877 0.8751666835,-1.6165494731 0.87431795,-1.4815260243" />
      <path d="M 0.87431795,-1.4815260243 Q 0.8742397863,-1.4094621537 0.843562242,-1.3399153358" />
      <path d="M -0.6908045337,-1.2160055501 Q -0.7255814596,-1.276439797 -0.7256820744,-1.3399153348" />
      <path d="M -0.7256820744,-1.3399153348 C -0.726228437,-1.4393245156 -0.6581106872,-1.5382380948 -0.5369802379,-1.6115069334 C -0.4166848271,-1.6851899222 -0.2444648908,-1.7324706944 -0.0598942628,-1.7400643745 C 0.1244930896,-1.7482909719 0.319567507,-1.716664256 0.4805061057,-1.6500307325 C 0.6419997026,-1.5839503101 0.7679035141,-1.4833662939 0.8292854051,-1.3689705813 C 0.8591948609,-1.3135716135 0.8742057089,-1.2566829692 0.8743179489,-1.1983046484" />
      <path d="M 0.8743179489,-1.1983046484 Q 0.8742725788,-1.1355123729 0.8508667039,-1.0743939882" />
      <path d="M -0.6797570098,-0.9150813096 Q -0.7255074024,-0.9835854704 -0.7256824799,-1.0566927058" />
      <path d="M -0.7256824799,-1.0566927058 C -0.7284020836,-1.2084082656 -0.5639811244,-1.3562076837 -0.3128412374,-1.4199689237 C -0.064333974,-1.4865265692 0.2592296196,-1.4652569306 0.4995873318,-1.358729994 C 0.7298260164,-1.2601967938 0.8765429342,-1.0891451914 0.8743176651,-0.9150811347" />
      <path d="M 0.8743176651,-0.9150811347 C 0.8748814425,-0.7936268851 0.8056179861,-0.6726881875 0.6826836584,-0.577998264" />
      <path d="M 0.6678666141,-0.5668239496 Q 0.6206209807,-0.5321587015 0.5649833973,-0.5028060275" />
      <path d="M -0.6797571389,-0.6318586288 Q -0.7255072034,-0.7003628154 -0.7256822492,-0.7734699498" />
      <path d="M -0.7256822492,-0.7734699498 C -0.7263182498,-0.8768547526 -0.6524512633,-0.9796375319 -0.5223362459,-1.0537104025 C -0.3931699143,-1.1282812276 -0.2091194078,-1.1732448138 -0.0156716336,-1.1747805416 C 0.2076569846,-1.1776428259 0.440257352,-1.1214969063 0.6072385268,-1.0203494135 C 0.7756974418,-0.920174052 0.8754268105,-0.7766291458 0.8743176984,-0.6318582723" />
      <path d="M 0.8743176984,-0.6318582723 C 0.8748814913,-0.5104036102 0.805617846,-0.389464887 0.6826833585,-0.2947753262" />
      <path d="M 0.6678635544,-0.2835990338 Q 0.6206128611,-0.2489305718 0.564968689,-0.2195757824" />
      <path d="M -0.6797571871,-0.3486361433 Q -0.7255071622,-0.4171400829 -0.7256822011,-0.4902471159" />
      <path d="M -0.7256822011,-0.4902471159 C -0.7265290097,-0.6015933159 -0.6403893507,-0.712073234 -0.4916649217,-0.7870464042 C -0.2708696326,-0.9024872112 0.089458609,-0.9269779094 0.3802696924,-0.8360395173 C 0.6741056448,-0.7493935301 0.8782716255,-0.5522191779 0.8743177552,-0.3486364213" />
      <path d="M 0.8743177552,-0.3486364213 C 0.8748815238,-0.2271798043 0.8056155399,-0.1062389939 0.6826776395,-0.0115483305" />
      <path d="M 0.6678665862,-0.0003786451 Q 0.6206207568,0.0342867871 0.564982873,0.0636396044" />
      <path d="M -0.4569126642,0.1063364763 L -0.4738304728,0.0985425299" />
      <path d="M -0.5129052398,0.0785212027 L -0.5170787164,0.0761980581" />
      <path d="M -0.5467508175,0.0584966376 C -0.6618506885,-0.0140886165 -0.7261730471,-0.1103403589 -0.7256824691,-0.207023548" />
      <path d="M -0.7256824691,-0.207023548 C -0.7256810962,-0.222860381 -0.7240199507,-0.2386427207 -0.7206990326,-0.254370567 C -0.6988952425,-0.3611170735 -0.5970035022,-0.4618558343 -0.4420603397,-0.5268383027 C -0.2880699526,-0.5924830178 -0.0829184889,-0.6214329412 0.1189643685,-0.6029875007 C 0.3209295363,-0.5854077909 0.5171539409,-0.520513679 0.6555742853,-0.4225031849 C 0.7950669649,-0.3250884673 0.8750554313,-0.1956140925 0.8743175615,-0.0654126993" />
      <path d="M 0.8743175615,-0.0654126993 Q 0.8728699375,0.0873459766 0.7439903072,0.2178095607" />
      <path d="M -0.4569129829,0.3895592608 L -0.4738305526,0.3817654372" />
      <path d="M -0.5129046312,0.3617444976 L -0.5170786965,0.3594210263" />
      <path d="M -0.5467508,0.3417195681 Q -0.6335374113,0.2864497025 -0.6797571811,0.2178097837" />
      <path d="M -0.6908046637,0.2001084166 Q -0.7255816981,0.1396742507 -0.7256822723,0.07619866" />
      <path d="M -0.7256822723,0.07619866 C -0.7265311593,-0.0352228665 -0.6402713665,-0.1457738763 -0.4913684873,-0.2207515872 C -0.343666224,-0.296434671 -0.1354146429,-0.3353141452 0.0743171272,-0.3230144515 C 0.2840489161,-0.3117123403 0.4922999426,-0.2492312588 0.6400026002,-0.1499465135 C 0.7889058477,-0.0513671413 0.8751668087,0.0827859286 0.8743178232,0.2178091848" />
      <path d="M 0.8743178232,0.2178091848 Q 0.8742396683,0.2898734325 0.8435621412,0.3594208774" />
      <path d="M -0.6908045822,0.4833305825 Q -0.725581656,0.4228964322 -0.7256822784,0.3594209438" />
      <path d="M -0.7256822784,0.3594209438 C -0.7265312447,0.2479998813 -0.6402708179,0.1374481474 -0.4913677286,0.0624705356 C -0.3436652504,-0.0132124771 -0.1354140158,-0.0520911936 0.0743176959,-0.0397914761 C 0.2840494077,-0.0284893036 0.492300642,0.0339913037 0.6400031202,0.1332762081 C 0.7889062095,0.2318557115 0.8751666366,0.3660093358 0.8743176704,0.5010322879" />
      <path d="M 0.8743176704,0.5010322879 Q 0.8728699482,0.6537909668 0.7439901663,0.7842547969" />
      <path d="M -0.4569132718,0.956004308 L -0.4738304773,0.9482106412" />
      <path d="M -0.5129052391,0.9281893404 C -0.6487723737,0.8537308879 -0.7263799316,0.7485253562 -0.7256824319,0.6426432742" />
      <path d="M -0.7256824319,0.6426432742 C -0.7265314173,0.531221916 -0.6402704555,0.4206707438 -0.4913672084,0.3456932685 C -0.3436645512,0.27001042 -0.1354135248,0.2311312357 0.0743182655,0.2434310231 C 0.2840500369,0.2547332279 0.4923016191,0.3172146005 0.6400038811,0.4164995815 C 0.7889067588,0.5150791895 0.8751665514,0.6492320986 0.8743176651,0.7842555244" />
      <path d="M 0.8743176651,0.7842555244 Q 0.8728700423,0.9370144119 0.7439903335,1.0674774353" />
      <path d="M -0.5374557083,1.1971681315 C -0.658293413,1.1239298347 -0.7262257744,1.0251444474 -0.7256821689,0.9258666543" />
      <path d="M -0.7256821689,0.9258666543 C -0.7264190468,0.8184656474 -0.6464883626,0.7117904106 -0.507083301,0.6371428325 C -0.3687493992,0.5619004443 -0.1726378827,0.5197408869 0.0292512819,0.5248595469 C 0.2310574735,0.5291136655 0.4361734742,0.5807275862 0.5902139248,0.6690327843 C 0.7452049826,0.7566761856 0.8472321309,0.8800748504 0.8692402837,1.0095255867 C 0.8726239115,1.0287872821 0.8743164379,1.0481050234 0.8743178629,1.0674788106" />
      <path d="M 0.8743178629,1.0674788106 Q 0.873632928,1.1930760176 0.7841082717,1.3059151572" />
      <path d="M -0.708128971,1.2975479874 Q -0.7256570058,1.2538597672 -0.7256823643,1.2090885128" />
      <path d="M -0.7256823643,1.2090885128 C -0.7296297313,1.0409936476 -0.5256607025,0.8792932308 -0.2320227049,0.8279884002 C 0.0585915669,0.772399157 0.4187702666,0.8321017576 0.639705772,0.9827461476 C 0.777260035,1.0738658843 0.8619049151,1.1952706675 0.8728826483,1.3198611997" />
      <path d="M -0.3236000238,1.1318993259 C -0.0078608971,1.0414744424 0.4314427123,1.1038379023 0.6712854847,1.2881912211" />
      <path d="M 0.639705772,-6.0978212859 L 0.505819715,-5.9310351253" />
      <path d="M 0.505819715,-5.6478124762 C 0.3921781069,-5.7269574541 0.2315812009,-5.777547066 0.0702397942,-5.7884168235 C -0.1032565187,-5.8010248695 -0.274413107,-5.7674448786 -0.3873390647,-5.7028087926 C -0.48280091,-5.6490695259 -0.5366979862,-5.574810472 -0.5362330985,-5.5002498168" />
      <path d="M -0.5322207237,-5.4643850524 Q -0.5194787063,-5.4082182008 -0.4696932139,-5.3586020599" />
      <path d="M 0.514323736,-5.3586020362 Q 0.5809886675,-5.4064417259 0.6232477028,-5.4643458627" />
      <path d="M 0.6564698257,-5.5198807687 Q 0.6765268467,-5.5620945437 0.682461889,-5.6059573552" />
      <path d="M 0.6147255995,-5.8305872686 Q 0.5714278151,-5.8856628506 0.505819715,-5.9310351253" />
      <path d="M 0.505819715,-5.3645897329 C 0.3970821882,-5.4402298094 0.2456397527,-5.4899127945 0.091418172,-5.5034977578 C -0.1752798791,-5.5299232014 -0.434119023,-5.4405830745 -0.508936695,-5.3095301452" />
      <path d="M -0.5322255921,-5.1810985744 Q -0.5194741317,-5.1249519944 -0.4696931256,-5.0753793724" />
      <path d="M 0.514323642,-5.0753793509 Q 0.58098588,-5.1232180418 0.6232474049,-5.1811235923" />
      <path d="M 0.656469923,-5.2366582315 Q 0.6765269464,-5.2788714261 0.6824619931,-5.3227338161" />
      <path d="M 0.684874832,-5.3586017602 C 0.6855428083,-5.4644794759 0.6195879598,-5.569780467 0.505819715,-5.6478124762" />
      <path d="M 0.505819715,-5.0813669815 C 0.3739352593,-5.1736152086 0.1776774433,-5.2262800588 -0.007999172,-5.2244991199 C -0.1940160252,-5.2241667744 -0.3653757787,-5.1698840046 -0.4569133139,-5.0873512736" />
      <path d="M -0.4268547589,-4.7562891173 C -0.3538254994,-4.7037975927 -0.2464856966,-4.6655438188 -0.1251996195,-4.650545346" />
      <path d="M 0.1225672352,-4.6505453519 C 0.2445247683,-4.6651071144 0.3633101387,-4.7019970661 0.4582128234,-4.7562871122" />
      <path d="M 0.514323655,-4.7921567716 Q 0.5810108244,-4.8400181155 0.6232476634,-4.8979004618" />
      <path d="M 0.6564697802,-4.9534352667 Q 0.6765262012,-4.9956468911 0.6824618751,-5.0395118075" />
      <path d="M 0.6147254585,-5.2641421636 Q 0.5714106923,-5.3192331636 0.505819715,-5.3645897329" />
      <path d="M 0.505819715,-4.7981444078 C 0.3783938831,-4.8871639579 0.1911988537,-4.9394996307 0.0111827804,-4.9412022077 C -0.169057431,-4.9441746251 -0.3386155884,-4.8967729065 -0.4368169956,-4.8206605429 C -0.4679885371,-4.796771716 -0.4920284295,-4.7709130983 -0.5089366728,-4.7430846898" />
      <path d="M 0.5143236277,-4.5089339174 Q 0.581021135,-4.5568051908 0.6232477149,-4.6146777554" />
      <path d="M 0.6462888251,-4.6505453479 Q 0.6750901698,-4.70199694 0.6824618734,-4.7562892346" />
      <path d="M 0.6848746369,-4.7921567948 C 0.685563159,-4.8980006359 0.6195566615,-5.0033757654 0.505819715,-5.0813669815" />
      <path d="M 0.505819715,-4.5149215844 C 0.3739053352,-4.6071788159 0.1777252894,-4.6598223961 -0.0079805117,-4.6580538325 C -0.1940210122,-4.6577360763 -0.3654521076,-4.6033955663 -0.4569135474,-4.520905729" />
      <path d="M 0.5143236511,-4.225711332 Q 0.5810086461,-4.273570541 0.6232477938,-4.3314552009" />
      <path d="M 0.6564698518,-4.3869899862 Q 0.6765262298,-4.4292015852 0.6824618903,-4.4730664979" />
      <path d="M 0.6848746401,-4.5089339399 C 0.6855588763,-4.6147856365 0.6195616191,-4.7201466586 0.505819715,-4.7981444078" />
      <path d="M 0.505819715,-4.2316989639 C 0.3780060986,-4.3209959985 0.1900592852,-4.3733607155 0.0095422039,-4.3747771124 C -0.1712061178,-4.3774790216 -0.3409754983,-4.3294853755 -0.4386357346,-4.252816289 C -0.4689209352,-4.2293071943 -0.4923489106,-4.2039179143 -0.5089196608,-4.176648449" />
      <path d="M -0.4268465137,-3.9066269902 C -0.3536844939,-3.8540722137 -0.2465230353,-3.8158841094 -0.1251556047,-3.8008828207" />
      <path d="M 0.1225669068,-3.800877242 C 0.2445489973,-3.8154522885 0.3632272245,-3.8522932471 0.458216535,-3.9066210882" />
      <path d="M 0.6848749034,-4.2257116648 C 0.6855501643,-4.3315783228 0.6195757128,-4.436902912 0.505819715,-4.5149215844" />
      <path d="M 0.505819715,-3.9484762563 C 0.2948175158,-4.1000844267 -0.0832821627,-4.132799981 -0.3142218748,-4.0378724578 C -0.4534508673,-3.9844115794 -0.5372910811,-3.8931542076 -0.5362392449,-3.800877241" />
      <path d="M -0.4268547765,-3.6233983189 C -0.3537125948,-3.5708488124 -0.2465021216,-3.5326709353 -0.1251987464,-3.5176544297" />
      <path d="M 0.1225674584,-3.5176547248 C 0.2445193645,-3.5322247347 0.3632101465,-3.5690613826 0.4582124824,-3.623396026" />
      <path d="M 0.6848746452,-3.9424886306 C 0.685534819,-4.0483832468 0.619591023,-4.1536625914 0.505819715,-4.2316989639" />
      <path d="M 0.505819715,-3.6652534534 C 0.391971563,-3.7445535368 0.2308901046,-3.7951928302 0.0693284661,-3.8059213119 C -0.0922413897,-3.8174680174 -0.2522818006,-3.7891173783 -0.3642192365,-3.7325548473 C -0.4737411775,-3.6782065724 -0.5368606767,-3.5981826535 -0.5362392455,-3.5176546115" />
      <path d="M -0.4268547517,-3.3401756215 C -0.3537013717,-3.2876168803 -0.2464518697,-3.2494354189 -0.1251964765,-3.2344322468" />
      <path d="M 0.1225665906,-3.2344318053 C 0.2445472739,-3.2490035873 0.363263576,-3.2858636218 0.4582164319,-3.3401756192" />
      <path d="M 0.6848746344,-3.6592658673 C 0.6855257767,-3.7651699182 0.6196080157,-3.8704222423 0.505819715,-3.9484762563" />
      <path d="M 0.505819715,-3.3820308056 C 0.3546020896,-3.4882013329 0.1191777648,-3.5405215204 -0.0881891915,-3.5215467414 C -0.285755503,-3.5055418003 -0.4500850264,-3.4269576072 -0.5089370533,-3.3269710118" />
      <path d="M -0.4268505748,-3.0569499738 C -0.3537786808,-3.0044423128 -0.2465246709,-2.9662212875 -0.1251998923,-2.9512092061" />
      <path d="M 0.5143231548,-3.092820363 Q 0.5810046087,-3.1406758846 0.623247759,-3.1985641685" />
      <path d="M 0.6564700229,-3.2540990881 Q 0.6765259762,-3.2963101022 0.6824618882,-3.3401759707" />
      <path d="M 0.6848746384,-3.3760432326 C 0.6855245738,-3.4819558578 0.6195974941,-3.5872092517 0.505819715,-3.6652534534" />
      <path d="M 0.505819715,-3.0988081535 C 0.3063502999,-3.2414482641 -0.0427263554,-3.2804248017 -0.2752687567,-3.2019790705 C -0.4369124147,-3.1511288107 -0.5377166684,-3.0519508336 -0.53623924,-2.9512091864" />
      <path d="M 0.6848746383,-3.0928205147 C 0.6855433235,-3.1986955483 0.6195865642,-3.3040033537 0.505819715,-3.3820308056" />
      <path d="M 0.505819715,-2.8155854349 C 0.3159202144,-2.9508444555 -0.0093929312,-2.9940642742 -0.2408386997,-2.9288628613 C -0.4217686156,-2.8814789321 -0.5380425307,-2.7760249159 -0.5362390597,-2.6679822187" />
      <path d="M -0.5322267043,-2.632099545 Q -0.5194769283,-2.5759591694 -0.4696932738,-2.5263752734" />
      <path d="M 0.6146888555,-2.9983829746 Q 0.5714056523,-3.0534312324 0.505819715,-3.0988081535" />
      <path d="M 0.505819715,-2.5323627716 C 0.3606220068,-2.6341448023 0.1379751331,-2.6868139106 -0.0632049394,-2.6736971428 C -0.3337820098,-2.6600473938 -0.541100117,-2.5270646023 -0.5362382158,-2.3847649962" />
      <path d="M -0.5322305246,-2.3488987852 Q -0.5194799208,-2.2927240441 -0.469693199,-2.2431523795" />
      <path d="M 0.5143236723,-2.2431524163 Q 0.5809836502,-2.2909875593 0.623247472,-2.3488965827" />
      <path d="M 0.6678666327,-2.4316322114 Q 0.6784469766,-2.4607547042 0.6824619403,-2.4905070108" />
      <path d="M 0.6147247906,-2.7151381579 Q 0.5714255922,-2.7702143273 0.505819715,-2.8155854349" />
      <path d="M 0.505819715,-2.249140073 C 0.3878491644,-2.3313779402 0.2189902342,-2.3826616838 0.0516326915,-2.3908790781 C -0.1157845629,-2.4000370994 -0.2792562062,-2.3662219852 -0.3880758016,-2.3037185799 C -0.4830802555,-2.2500760213 -0.5366828579,-2.1760058261 -0.536239239,-2.1015411404" />
      <path d="M 0.5143236207,-1.9599297267 Q 0.5809872149,-2.0077683 0.6232477106,-2.0656734568" />
      <path d="M 0.6462887995,-2.1015409741 Q 0.6750903593,-2.1529931928 0.6824618991,-2.2072849916" />
      <path d="M 0.6147258959,-2.4319147137 Q 0.5714251032,-2.4869931859 0.505819715,-2.5323627716" />
      <path d="M 0.505819715,-1.9659173365 C 0.4356249614,-2.01399725 0.3534696601,-2.050517985 0.2593538111,-2.0754795414 C 0.087488693,-2.121550417 -0.1086428593,-2.1192016338 -0.2593112034,-2.0739968522 C -0.4111526052,-2.0298509726 -0.5146059336,-1.9439907066 -0.5327737242,-1.8516788329 C -0.5339262271,-1.8405541865 -0.5350787299,-1.8294295402 -0.5362312328,-1.8183048938" />
      <path d="M -0.5322105833,-1.7824197289 Q -0.5194556351,-1.7262480058 -0.4696915617,-1.6767086837" />
      <path d="M 0.614725405,-2.1486924551 Q 0.5714305385,-2.2037654861 0.505819715,-2.249140073" />
      <path d="M 0.505819715,-1.6826946753 C 0.3669349606,-1.7800024473 0.1565008339,-1.8328494161 -0.0375389554,-1.8252397359 C -0.2321362457,-1.8193934748 -0.4050248224,-1.7537255438 -0.4838296148,-1.6616885904 C -0.5185532237,-1.6216737812 -0.5360230937,-1.5794761214 -0.5362392249,-1.535095611" />
      <path d="M -0.5322311294,-1.4992280566 Q -0.5200467531,-1.4454896215 -0.4738303724,-1.3976626114" />
      <path d="M 0.5143236902,-1.3934842613 Q 0.5810093709,-1.441344202 0.6232476561,-1.4992280407" />
      <path d="M 0.6678666288,-1.5819642941 Q 0.6784468187,-1.6110865398 0.6824618765,-1.6408394993" />
      <path d="M 0.6848746394,-1.6767070435 Q 0.684345501,-1.7760598664 0.614725723,-1.8654694833" />
      <path d="M 0.5351640005,-1.944259955 L 0.505819715,-1.9659173365" />
      <path d="M 0.505819715,-1.3994719361 C 0.3169504597,-1.5339510303 -0.0059117318,-1.5775796254 -0.2371294635,-1.513733223 C -0.3298760476,-1.48890584 -0.4031373198,-1.4528135098 -0.4569132802,-1.4054562325" />
      <path d="M 0.6848744397,-1.3934840818 C 0.6855356745,-1.4993731751 0.6195954053,-1.6046556998 0.505819715,-1.6826946753" />
      <path d="M 0.505819715,-1.1162491503 C 0.4406697422,-1.1609459313 0.3648584276,-1.1957193565 0.2783857713,-1.2205694258 C 0.0175843124,-1.2983341172 -0.2998219501,-1.2536346589 -0.4432990655,-1.1336974861 C -0.4713622792,-1.1111980267 -0.493241495,-1.0870286861 -0.5089367128,-1.0611894645" />
      <path d="M 0.5143236566,-0.8270389647 Q 0.5810020811,-0.8748916437 0.6232477184,-0.9327827097" />
      <path d="M 0.6462888067,-0.9686502326 Q 0.6750869094,-1.0200920161 0.6824618759,-1.0743940236" />
      <path d="M 0.5351636132,-1.377814801 L 0.505819715,-1.3994719361" />
      <path d="M 0.505819715,-0.8330266085 C 0.3868378128,-0.9159486529 0.2164361874,-0.9673065878 0.047665192,-0.9749643172 C -0.2039586251,-0.9889869556 -0.4378235667,-0.9014307976 -0.5089359707,-0.7779672874" />
      <path d="M 0.1225674073,-0.4022045844 C 0.2445866288,-0.4167851199 0.3632395361,-0.4536310297 0.4582159584,-0.5079487849" />
      <path d="M 0.6848746744,-0.8270390989 C 0.6855235111,-0.9329643173 0.6195898399,-1.0382075387 0.505819715,-1.1162491503" />
      <path d="M 0.505819715,-0.549803882 C 0.4163354088,-0.6118889396 0.2982623273,-0.6567931578 0.1731698426,-0.6780521835 C -0.0728176034,-0.7220896839 -0.3368185023,-0.6661494042 -0.4569124083,-0.5557884765" />
      <path d="M -0.5089367684,-0.4947440781 Q -0.5361642027,-0.4496621569 -0.5362393508,-0.4022049686" />
      <path d="M -0.42685376,-0.2247252605 C -0.3538241303,-0.1722365922 -0.246523009,-0.1339900143 -0.1252003522,-0.1189821885" />
      <path d="M 0.1225499288,-0.1189801753 C 0.2445171367,-0.1335532965 0.3631965921,-0.1703813898 0.4582163417,-0.2247259445" />
      <path d="M 0.5143231758,-0.2605932072 Q 0.5810036859,-0.3084508649 0.6232325528,-0.3663164232" />
      <path d="M 0.6462886507,-0.4022045232 Q 0.6750899051,-0.4536555317 0.6824618763,-0.5079486901" />
      <path d="M 0.6848746386,-0.5438162482 C 0.6855616837,-0.6496639936 0.6195569622,-0.7550341463 0.505819715,-0.8330266085" />
      <path d="M 0.505819715,-0.2665811356 C 0.341930662,-0.382077933 0.0787754715,-0.4327583766 -0.1397194287,-0.4002734368 C -0.3738113133,-0.3691106733 -0.5395888855,-0.2468642742 -0.5362392724,-0.118982159" />
      <path d="M -0.4268548658,0.0584966409 C -0.3537866261,0.1110036077 -0.2465320996,0.1492274061 -0.1251997789,0.1642404787" />
      <path d="M 0.1225670486,0.1642404716 C 0.2445070141,0.1496577286 0.3630625672,0.1129013583 0.4582131634,0.0584992695" />
      <path d="M 0.5143237662,0.0226291689 Q 0.5810273943,-0.0252494842 0.6232474231,-0.0831150206" />
      <path d="M 0.6462820987,-0.1189701718 Q 0.6750832105,-0.1704130283 0.6824595897,-0.224704719" />
      <path d="M 0.6848748012,-0.2605935171 C 0.6855710066,-0.3664209167 0.6195425534,-0.4718330337 0.505819715,-0.549803882" />
      <path d="M 0.505819715,0.0166414457 C 0.3623172577,-0.0839334805 0.1431425215,-0.1366353117 -0.0562316876,-0.1250870324 C -0.3299182046,-0.1132572084 -0.5412462874,0.0206205125 -0.5362393757,0.1642404389" />
      <path d="M -0.5322307389,0.2001102403 Q -0.5200596461,0.2538236836 -0.4738303132,0.3016736914" />
      <path d="M 0.5143050684,0.3058385927 Q 0.5809734678,0.257987395 0.6232473961,0.2001076511" />
      <path d="M 0.6564562173,0.1445633792 Q 0.6765154392,0.1022945741 0.6824484418,0.0583971043" />
      <path d="M 0.684858172,0.0225671142 C 0.6855380275,-0.083236006 0.6196184953,-0.1884505478 0.505819715,-0.2665811356" />
      <path d="M 0.505819715,0.2998642852 C 0.295310925,0.1486431106 -0.0815185256,0.1156261162 -0.3126380127,0.2098543605 C -0.4528761224,0.263374106 -0.5372330904,0.3547218069 -0.5362170985,0.4474180447" />
      <path d="M 0.6848746361,0.3058519044 C 0.6855152667,0.1999162079 0.6196057472,0.0947012196 0.505819715,0.0166414457" />
      <path d="M 0.505819715,0.5830868839 C 0.2886541482,0.4266405484 -0.1052285134,0.3977805896 -0.3340070562,0.5017774352 C -0.4616551262,0.5561014985 -0.5370966353,0.6429632588 -0.5362181703,0.7306051112" />
      <path d="M -0.5322087856,0.7664541612 Q -0.5194748333,0.8226493338 -0.4696930892,0.8722971682" />
      <path d="M 0.6848746362,0.5890745221 C 0.6855631911,0.4832335898 0.6195600507,0.3778579261 0.505819715,0.2998642852" />
      <path d="M 0.505819715,0.8663095871 C 0.3699709195,0.7712944609 0.1665308822,0.7185644505 -0.02404431,0.7233901794 C -0.2864861999,0.7266632873 -0.5048451677,0.8412594696 -0.5319721457,0.9769049616 C -0.5348155522,0.9891898753 -0.5362379174,1.0015244064 -0.5362392414,1.013908555" />
      <path d="M -0.5322307049,1.0497780912 Q -0.5194905837,1.1059263936 -0.4696931665,1.1555199862" />
      <path d="M 0.6848746647,0.8722972365 C 0.6855395151,0.7664166606 0.6195922782,0.6611211825 0.505819715,0.5830868839" />
      <path d="M 0.505819715,1.1495323082 C 0.3435736061,1.0351122929 0.0831101145,0.9841243381 -0.13407896,1.0150619989 C -0.2810474921,1.0345134649 -0.4058026828,1.0887854076 -0.4739416738,1.1598129563" />
      <path d="M 0.6564684509,1.2774630236 Q 0.6765196937,1.2352573985 0.6824597986,1.191372222" />
      <path d="M 0.6848737018,1.1555217117 C 0.6855123162,1.0495655997 0.6196014926,0.9443754854 0.505819715,0.8663095871" />
      <path d="M 0.6147255878,1.2499801577 Q 0.5714432047,1.1949184994 0.505819715,1.1495323082" />
      <path d="M 1.6195811896,2.9756642376 A 1.6,0.9400362715654776 0.0 0,1 1.2062829312,3.8837972746" />
      <path d="M 1.6195811896,2.9756642376 A 1.6,0.9400362715654776 -180.0 0,0 0.4876159032,2.3113076011" />
      <path d="M -1.0576475393,2.5550840271 A 1.6,0.9400362715654776 0.0 0,1 0.4876159032,2.3113076011" />
      <path d="M 1.2062829312,3.8837972746 A 1.6,0.9400362715654776 0.0 0,1 -0.3389805543,4.1275736939" />
      <path d="M -1.4709457972,3.4632170654 A 1.6,0.9400362715654776 0.0 0,1 -1.0576475393,2.5550840271" />
      <path d="M -0.3389805543,4.1275736939 A 1.6,0.9400362715654776 0.0 0,1 -1.4709457972,3.4632170654" />
      <line x1="0.505819715" y1="1.1495323082" x2="0.505819715" y2="1.1930117297" />
      <line x1="0.505819715" y1="0.8663095871" x2="0.505819715" y2="0.9380447713" />
      <line x1="0.505819715" y1="0.5830868839" x2="0.505819715" y2="0.6548221223" />
      <line x1="0.505819715" y1="0.2998642852" x2="0.505819715" y2="0.3715993789" />
      <line x1="0.505819715" y1="0.0166414457" x2="0.505819715" y2="0.0883766276" />
      <line x1="0.505819715" y1="-0.2665811356" x2="0.505819715" y2="-0.1948459462" />
      <line x1="0.505819715" y1="-0.549803882" x2="0.505819715" y2="-0.4780687696" />
      <line x1="0.505819715" y1="-0.8330266085" x2="0.505819715" y2="-0.7612913901" />
      <line x1="0.505819715" y1="-1.1162491503" x2="0.505819715" y2="-1.0445140976" />
      <line x1="0.505819715" y1="-1.3994719361" x2="0.505819715" y2="-1.3913953215" />
      <line x1="0.505819715" y1="-1.6826946753" x2="0.505819715" y2="-1.6746179332" />
      <line x1="0.505819715" y1="-1.639215096" x2="0.505819715" y2="-1.6109595484" />
      <line x1="0.505819715" y1="-1.9659173365" x2="0.505819715" y2="-1.9224378592" />
      <line x1="0.505819715" y1="-2.249140073" x2="0.505819715" y2="-2.2056606895" />
      <line x1="0.505819715" y1="-2.5323627716" x2="0.505819715" y2="-2.488883126" />
      <line x1="0.505819715" y1="-2.8155854349" x2="0.505819715" y2="-2.743850281" />
      <line x1="0.505819715" y1="-3.0988081535" x2="0.505819715" y2="-3.0553286311" />
      <line x1="0.505819715" y1="-3.3820308056" x2="0.505819715" y2="-3.3102956787" />
      <line x1="0.505819715" y1="-3.6652534534" x2="0.505819715" y2="-3.5935184179" />
      <line x1="0.505819715" y1="-3.9484762563" x2="0.505819715" y2="-3.8767412036" />
      <line x1="0.505819715" y1="-4.2316989639" x2="0.505819715" y2="-4.1599637455" />
      <line x1="0.505819715" y1="-4.5149215844" x2="0.505819715" y2="-4.443186472" />
      <line x1="0.505819715" y1="-4.7981444078" x2="0.505819715" y2="-4.7264092183" />
      <line x1="0.505819715" y1="-5.0813669815" x2="0.505819715" y2="-5.0096317997" />
      <line x1="0.505819715" y1="-5.3645897329" x2="0.505819715" y2="-5.2928546392" />
      <line x1="0.505819715" y1="-5.6478124762" x2="0.505819715" y2="-5.5760772379" />
      <line x1="0.505819715" y1="-5.9310351253" x2="0.505819715" y2="-5.8875557038" />
      <path d="M -0.311209221,-6.1096368665 C -0.3029343715,-6.1107385086 -0.3059159013,-6.1102880651 -0.2634212233,-6.1174814098 C -0.2437938519,-6.1207704173 -0.2004364691,-6.1270594643 -0.1549054312,-6.1293064434 C -0.1075647654,-6.1318929828 -0.0581672494,-6.1309014564 -0.0067128833,-6.1263318641 C 0.1785957776,-6.1102832287 0.3741155168,-6.0404439802 0.505819715,-5.9310349809" />
      <path d="M -0.311209221,-6.1096368665 L -0.311209221,-6.1450397037" />
      <path d="M -0.311209221,-6.1450397037 C -0.3088356295,-6.1468777176 -0.3008299027,-6.1513885351 -0.2871920403,-6.1585721562 C -0.2773649154,-6.1633036275 -0.2584216833,-6.1736115293 -0.2101103744,-6.1904605205 C -0.0826937808,-6.2346547706 0.0842654355,-6.2502789508 0.2306333316,-6.2294343369" />
      <path d="M -0.3974685615,-5.6969101249 A 0.610556942922154,0.3587160451268486 0.0 0,1 -0.5047441597,-5.8108830055" />
      <path d="M -0.536239247,-5.9246064346 A 0.610556942922154,0.3587160451268486 0.0 0,1 0.5001109687,-6.18169703" />
      <path d="M 0.6397058104,-6.1332241001 Q 0.4916154988,-6.1957349843 0.3192894414,-6.2177756735" />
      <path d="M 0.3192894414,-6.2177756735 C 0.0924263433,-6.2472362313 -0.1407549267,-6.2161655882 -0.311209221,-6.1450397037" />
      <path d="M 0.6397058104,-6.0978212629 C 0.3472752764,-6.2260055611 -0.0576073781,-6.2191938129 -0.311209221,-6.1096368665" />
      <path d="M 0.8743175931,-5.7298670207 L 0.8743175931,-5.7652698578" />
      <path d="M -0.7256823061,-5.5882555367 L -0.7256823061,-5.6236583738" />
      <path d="M 0.874317641,-5.446644429 L 0.874317641,-5.4820472662" />
      <path d="M -0.725682273,-5.3050329617 L -0.725682273,-5.3404357989" />
      <path d="M 0.8743178715,-5.1634218519 L 0.8743178715,-5.198824689" />
      <path d="M -0.7256825582,-5.0218109664 L -0.7256825582,-5.0572138035" />
      <path d="M 0.8743174662,-4.880199049 L 0.8743174662,-4.9156018861" />
      <path d="M -0.7256825571,-4.7385871299 L -0.7256825571,-4.7739899671" />
      <path d="M 0.8743178717,-4.5969762513 L 0.8743178717,-4.6323790884" />
      <path d="M -0.7256822732,-4.4553651379 L -0.7256822732,-4.4907679751" />
      <path d="M 0.874317641,-4.3137536704 L 0.874317641,-4.3491565075" />
      <path d="M -0.7256823066,-4.172142565 L -0.7256823066,-4.2075454022" />
      <path d="M 0.8743175929,-4.030531078 L 0.8743175929,-4.0659339152" />
      <path d="M -0.7256823634,-3.8889191791 L -0.7256823634,-3.9243220162" />
      <path d="M 0.8743178609,-3.7473094821 L 0.8743178609,-3.7827123193" />
      <path d="M -0.7256821697,-3.6056973228 L -0.7256821697,-3.6411001599" />
      <path d="M 0.8743176641,-3.4640861878 L 0.8743176641,-3.499489025" />
      <path d="M -0.7256824313,-3.3224739406 L -0.7256824313,-3.3578767778" />
      <path d="M 0.8743176702,-3.1808629557 L 0.8743176702,-3.2162657929" />
      <path d="M -0.7256822786,-3.0392516105 L -0.7256822786,-3.0746544477" />
      <path d="M 0.8743178237,-2.8976398531 L 0.8743178237,-2.9330426903" />
      <path d="M -0.7256822733,-2.7560293305 L -0.7256822733,-2.7914321677" />
      <path d="M 0.8743175607,-2.6144179665 L 0.8743175607,-2.6498208036" />
      <path d="M -0.7256824711,-2.4728071156 L -0.7256824711,-2.5082099527" />
      <path d="M 0.8743177561,-2.3311942471 L 0.8743177561,-2.3665970842" />
      <path d="M -0.7256822013,-2.189583553 L -0.7256822013,-2.2249863902" />
      <path d="M 0.8743176979,-2.0479723939 L 0.8743176979,-2.0833752311" />
      <path d="M -0.7256822492,-1.9063607186 L -0.7256822492,-1.9417635558" />
      <path d="M 0.8743176648,-1.7647495337 L 0.8743176648,-1.8001523709" />
      <path d="M -0.7256824797,-1.6231379595 L -0.7256824797,-1.6585407966" />
      <path d="M 0.87431795,-1.4815260243 L 0.87431795,-1.5169288614" />
      <path d="M -0.7256820744,-1.3399153348 L -0.7256820744,-1.3753181719" />
      <path d="M 0.8743179489,-1.1983046484 L 0.8743179489,-1.2337074856" />
      <path d="M -0.7256824799,-1.0566927058 L -0.7256824799,-1.0920955429" />
      <path d="M 0.8743176651,-0.9150811347 L 0.8743176651,-0.9504839719" />
      <path d="M -0.7256822492,-0.7734699498 L -0.7256822492,-0.8088727869" />
      <path d="M 0.8743176984,-0.6318582723 L 0.8743176984,-0.6672611094" />
      <path d="M -0.7256822011,-0.4902471159 L -0.7256822011,-0.525649953" />
      <path d="M 0.8743177552,-0.3486364213 L 0.8743177552,-0.3840392585" />
      <path d="M -0.7256824691,-0.207023548 L -0.7256824691,-0.2424263851" />
      <path d="M 0.8743175615,-0.0654126993 L 0.8743175615,-0.1008155365" />
      <path d="M -0.7256822723,0.07619866 L -0.7256822723,0.0407958228" />
      <path d="M 0.8743178232,0.2178091848 L 0.8743178232,0.1824063476" />
      <path d="M -0.7256822784,0.3594209438 L -0.7256822784,0.3240181067" />
      <path d="M 0.8743176704,0.5010322879 L 0.8743176704,0.4656294508" />
      <path d="M -0.7256824319,0.6426432742 L -0.7256824319,0.6072404371" />
      <path d="M 0.8743176651,0.7842555244 L 0.8743176651,0.7488526872" />
      <path d="M -0.7256821689,0.9258666543 L -0.7256821689,0.8904638172" />
      <path d="M 0.8743178629,1.0674788106 L 0.8743178629,1.0320759734" />
      <path d="M -0.7256823643,1.2090885128 L -0.7256823643,1.1736856757" />
      <path d="M 0.8743175931,1.3200866229 L 0.8743175931,1.3152975757" />
      <line x1="0.6848746388" y1="1.2272551222" x2="0.6848746388" y2="1.1555200017" />
      <line x1="-0.536239247" y1="1.0856437346" x2="-0.536239247" y2="1.0139085475" />
      <line x1="0.6848746388" y1="0.9440323562" x2="0.6848746388" y2="0.8722972375" />
      <line x1="-0.536239247" y1="0.8024211065" x2="-0.536239247" y2="0.730685944" />
      <line x1="-0.536239247" y1="0.2359756877" x2="-0.536239247" y2="0.1642404861" />
      <line x1="0.6848746388" y1="0.0943642766" x2="0.6848746388" y2="0.0226291044" />
      <line x1="-0.536239247" y1="-0.0472470283" x2="-0.536239247" y2="-0.1189821499" />
      <line x1="0.6848746388" y1="-0.1888583295" x2="0.6848746388" y2="-0.2605935255" />
      <line x1="0.6848746388" y1="-0.4720811037" x2="0.6848746388" y2="-0.5438162367" />
      <line x1="0.6848746388" y1="-0.7553037762" x2="0.6848746388" y2="-0.8270389542" />
      <line x1="0.6848746388" y1="-1.3217492232" x2="0.6848746388" y2="-1.3934842921" />
      <line x1="-0.536239247" y1="-1.4633604392" x2="-0.536239247" y2="-1.5350956261" />
      <line x1="0.6848746388" y1="-1.6049719719" x2="0.6848746388" y2="-1.6767070349" />
      <line x1="-0.536239247" y1="-1.7465832695" x2="-0.536239247" y2="-1.8183183861" />
      <line x1="-0.536239247" y1="-2.0298058833" x2="-0.536239247" y2="-2.1015411269" />
      <line x1="-0.536239247" y1="-2.3130285912" x2="-0.536239247" y2="-2.3847636913" />
      <line x1="-0.536239247" y1="-2.5962513808" x2="-0.536239247" y2="-2.6679864716" />
      <line x1="0.6848746388" y1="-3.5875307499" x2="0.6848746388" y2="-3.6592658596" />
      <line x1="-0.536239247" y1="-3.7291420517" x2="-0.536239247" y2="-3.8008772418" />
      <line x1="0.6848746388" y1="-3.8707535087" x2="0.6848746388" y2="-3.9424886306" />
      <line x1="0.6848746388" y1="-4.1539760976" x2="0.6848746388" y2="-4.2257113357" />
      <line x1="0.6848746388" y1="-4.4371988358" x2="0.6848746388" y2="-4.508933933" />
      <line x1="0.6848746388" y1="-4.720421594" x2="0.6848746388" y2="-4.7921567818" />
      <line x1="0.6848746388" y1="-5.0036441564" x2="0.6848746388" y2="-5.0753793436" />
      <line x1="-0.536239247" y1="-5.1452556869" x2="-0.536239247" y2="-5.2169907532" />
      <line x1="-0.536239247" y1="-5.4284782624" x2="-0.536239247" y2="-5.500213446" />
      <line x1="-0.536239247" y1="-5.7117009844" x2="-0.536239247" y2="-5.9246064346" />
      <path d="M 0.230633329,-6.2294343374 L 0.3192894414,-6.2177756735" />
    </g>
  </g>
</svg>