<?xml version='1.0' encoding='utf-8'?>
<svg width="224.7295159987mm" height="513.0000000002mm" viewBox="-2.4812243909 -4.7006201677 4.9241112797 11.2404864811" version="1.1" xmlns="http://www.w3.org/2000/svg">
  <g transform="scale(1,-1)" stroke-linecap="round">
    <g fill="none" stroke="rgb(64,192,64)" stroke-width="0.02191127969024425" id="Visible">
      <path d="M 1.714255587,1.1166647621 A 2.4511,1.4396996277529133 -1.9649563778641214e-15 0,1 2.426985241,2.2259625291" />
      <path d="M -2.4653227432,2.2259625291 A 2.4511,1.4396996277529133 -1.9649563778641214e-15 0,1 1.714255587,1.1166647621" />
      <path d="M 1.2536234434,3.7375348636 L 1.20543996,3.7097639405" />
      <path d="M 1.2536234434,3.7375348636 L 1.2054268963,3.7663745618" />
      <path d="M -0.0193412698,4.4850319356 L 0.0288552773,4.4572686857" />
      <path d="M -0.0193412698,4.4850319356 L -0.0675247532,4.4572610125" />
      <path d="M -1.2919609455,3.7373321993 L -1.2437774621,3.7661795707" />
      <path d="M -1.2919609455,3.7373321993 L -1.2437643984,3.7095689494" />
      <path d="M -0.0189962323,2.9898351272 L -0.0671927794,3.0186748255" />
      <path d="M -0.0189962323,2.9898351272 L 0.0291872511,3.0186824987" />
      <path d="M 0.6674402261,-0.3121226249 Q 0.539889093,-0.399342362 0.3752652652,-0.4550483524" />
      <path d="M 0.4072261049,-0.1235465953 Q 0.5791276341,-0.1864199761 0.706640685,-0.2836797957" />
      <path d="M 0.3752672111,-1.3115777532 C -0.0139700707,-1.4476268747 -0.5130376238,-1.4063824057 -0.7762069023,-1.2370060096 C -0.913837851,-1.1522465405 -0.9906424067,-1.0393756228 -0.990048902,-0.9260775099" />
      <path d="M -0.990048902,-0.9260775099 Q -0.989876441,-0.8435867151 -0.9390957157,-0.7659438001" />
      <path d="M -0.4565399467,-0.4921737817 C -0.2578157512,-0.4485092187 -0.0237749968,-0.4470980291 0.1937036286,-0.4918223714" />
      <path d="M 0.4072262505,-0.5518114766 Q 0.5791217275,-0.6146816269 0.7066413346,-0.711945058" />
      <path d="M -0.4813075153,-0.9260775141 L -0.4565511903,-0.9204368217" />
      <path d="M 0.6674402261,-2.0251820192 C 0.3743034871,-2.2322286787 -0.1220130676,-2.3028772138 -0.4877613607,-2.2093180137 C -0.5263687231,-2.1999091193 -0.5633610085,-2.1890207944 -0.5987382169,-2.176653039" />
      <path d="M 0.6674402261,-2.4534469438 C 0.4453807105,-2.6080179195 0.1086806318,-2.6909545671 -0.2017142077,-2.6767922062 C -0.3472003452,-2.670411817 -0.4795417901,-2.6464536849 -0.5987385424,-2.6049178098" />
      <path d="M -0.8964389187,-1.9967396618 Q -0.8075393524,-1.901536666 -0.6508759112,-1.8366059692" />
      <path d="M 0.6674402261,-2.8817117551 Q 0.5398477982,-2.968952445 0.3752651337,-3.0246375758" />
      <path d="M -0.8964389494,-2.4250045451 Q -0.8074321259,-2.3297336995 -0.650875788,-2.2648708271" />
      <path d="M -0.4565512171,-2.2052313876 C -0.2577897008,-2.1615378406 -0.0235131577,-2.160190799 0.1937040621,-2.2048818151" />
      <path d="M 0.3752653161,-3.452902412 C 0.0623201007,-3.5606787911 -0.3243188804,-3.5596024444 -0.5987383348,-3.4614475956" />
      <path d="M 0.3752691435,-3.8811661589 C 0.0623171521,-3.9889967373 -0.3246662324,-3.98780011 -0.5987376804,-3.8897127256" />
      <path d="M -0.4565513116,-3.0617611542 C -0.2491774424,-3.0161339481 -0.0033603932,-3.016769019 0.2217722575,-3.0674020681" />
      <path d="M 0.3752652029,-4.3094320557 C 0.0623558066,-4.4172784912 -0.3247526898,-4.4160415555 -0.598725687,-4.3179803434" />
      <path d="M -0.4813076195,-3.4956666643 L -0.4565511831,-3.4900259525" />
      <path d="M -0.4813072635,-3.9239314768 L -0.4565511779,-3.9182908611" />
      <path d="M 0.6674402261,-5.0230360181 C 0.3969779954,-5.2130668207 -0.0458195168,-5.2903909944 -0.4002888891,-5.2253808947 C -0.470920727,-5.2130213639 -0.537070333,-5.1960634765 -0.5987377071,-5.1745072322" />
      <path d="M 0.1936923962,-4.3462078163 L 0.2217642958,-4.352198372" />
      <path d="M 0.7834612451,-4.633010544 Q 0.8537830204,-4.7025074557 0.8957142536,-4.7804612585" />
      <path d="M 0.9417711245,-4.9034384741 Q 0.9517049188,-4.9488092455 0.9517114583,-4.99459331" />
      <path d="M 0.9517114583,-4.99459331 C 0.952752544,-5.1618962632 0.8480852151,-5.328182646 0.6674402261,-5.4513009034" />
      <path d="M 0.6674402261,-5.4513009034 Q 0.5398320428,-5.5385500049 0.375264733,-5.5942268585" />
      <path d="M -0.9900488895,-5.2087261382 Q -0.9899940001,-5.1468137207 -0.9609928166,-5.0869744305" />
      <path d="M 0.3752652326,-6.0224914964 C 0.0345232578,-6.1404651282 -0.3928169889,-6.1268141265 -0.6685998553,-6.0037713921 C -0.8714697386,-5.9166047225 -0.9913625415,-5.777584264 -0.9900435351,-5.6369802233" />
      <path d="M 0.1937037271,-5.2027357436 L 0.2217733127,-5.20872607" />
      <path d="M 0.8699971011,-6.2934068164 C 1.1039435803,-6.1392225658 1.2394647787,-5.9291723798 1.2381314523,-5.7177563845" />
      <path d="M 1.2374391085,-5.6909898283 Q 1.2316716166,-5.5816822388 1.1809094412,-5.4768574683" />
      <path d="M -0.4565512664,-4.8940993871 Q -0.5295951623,-4.9058034482 -0.5987378578,-4.9226776183" />
      <path d="M -1.2754658657,-5.4768574959 L -1.2764686373,-5.5036240504" />
      <path d="M -1.2764686373,-5.5036240504 C -1.2778028913,-5.6793878881 -1.1422340115,-5.8537850039 -0.9082142206,-5.9722882008 C -0.6760813491,-6.0918997048 -0.3487883842,-6.1536844214 -0.0191689961,-6.1350564002 C 0.310450402,-6.1179957618 0.6377427816,-6.0205224457 0.8698759701,-5.8652223558 C 1.1038961468,-5.7110305795 1.2394654975,-5.5009447382 1.2381310081,-5.2894921327" />
      <path d="M 1.2381310081,-5.2894921327 L 1.2374386724,-5.2627255699" />
      <path d="M -1.2754660815,-5.0485925177 L -1.276468855,-5.0753590722" />
      <path d="M -1.276468855,-5.0753590722 C -1.2778031065,-5.2511230416 -1.1422337782,-5.4255201198 -0.908214001,-5.5440232851 C -0.6760811151,-5.6636347505 -0.3487884835,-5.725419567 -0.0191688867,-5.7067915782 C 0.3104506969,-5.6897309841 0.637743678,-5.5922574534 0.8698766043,-5.4369571272 C 1.1038964506,-5.2827650975 1.2394654131,-5.0726793001 1.2381311551,-4.8612267244" />
      <path d="M 1.2381311551,-4.8612267244 L 1.2374388152,-4.8344601694" />
      <path d="M -1.2754659394,-4.620327729 L -1.2764687128,-4.6470942836" />
      <path d="M -1.2764687128,-4.6470942836 C -1.2778029744,-4.8228580591 -1.1422338733,-4.997255225 -0.9082140258,-5.1157585333 C -0.6760810894,-5.2353701448 -0.3487882326,-5.2971548462 -0.0191686879,-5.2785266799 C 0.3104508628,-5.2614659025 0.6377435625,-5.1639924329 0.8698764804,-5.0086922905 C 1.1038962957,-4.8545004528 1.2394655669,-4.6444146105 1.2381313097,-4.4329618703" />
      <path d="M 1.2381313097,-4.4329618703 L 1.2374389691,-4.406195316" />
      <path d="M -1.2764687551,-4.2188300817 C -1.2778031088,-4.3945939321 -1.1422330664,-4.5689910272 -0.9082131155,-4.687494054 C -0.676080061,-4.8071053922 -0.3487877483,-4.8688899151 -0.0191681986,-4.8502617678 C 0.3104513247,-4.8332010027 0.6377442961,-4.7357275246 0.8698769844,-4.5804272745 C 1.1038965997,-4.4262353317 1.2394653235,-4.2161494708 1.2381310878,-4.0046969034" />
      <path d="M -1.2764688992,-3.790563892 C -1.2770159666,-3.9302473406 -1.1926528432,-4.0694915273 -1.0389813167,-4.1799215872 C -0.8851109352,-4.2915257681 -0.661798179,-4.3731568931 -0.4109005769,-4.4068339258 C -0.1603535542,-4.4411390191 0.1163061001,-4.4272060625 0.367220473,-4.3649675306 C 0.6184807151,-4.3033580222 0.8425210986,-4.1937226792 0.9973474612,-4.0539318166 C 1.1530836924,-3.91452998 1.2386939735,-3.7457084383 1.2381312764,-3.5764317905" />
      <path d="M -1.2754659699,-3.3355328738 L -1.2764687437,-3.362299427" />
      <path d="M -1.2764687437,-3.362299427 C -1.2785481562,-3.5597036927 -1.1059187255,-3.7546922912 -0.8189776229,-3.8720393825 C -0.5346820977,-3.991271287 -0.142421824,-4.0297868527 0.2205634583,-3.9671070424 C 0.504610592,-3.9195167011 0.7675905108,-3.8119762574 0.9509392328,-3.6649448114 C 1.1355292844,-3.5185144698 1.2389355654,-3.3336989433 1.2381311305,-3.1481670509" />
      <path d="M -1.2754660941,-2.907268109 L -1.2764688681,-2.9340346619" />
      <path d="M -1.2764688681,-2.9340346619 C -1.2774478647,-3.0962451394 -1.1626423349,-3.2575354436 -0.9601437363,-3.3744089205 C -0.7591104765,-3.4920451625 -0.4724626567,-3.5638870028 -0.1703381285,-3.568324885 C 0.1315509517,-3.5739044552 0.4458062453,-3.5118589136 0.6955335285,-3.3933381665 C 0.9463737149,-3.2757635439 1.1301076762,-3.1027600399 1.2017800891,-2.9126283139 C 1.225967858,-2.8492450339 1.2380848119,-2.7850030662 1.2381309507,-2.7199024108" />
      <path d="M -1.2764686936,-2.5057695327 C -1.2778029083,-2.6815334869 -1.1422339172,-2.8559307904 -0.9082143072,-2.9744341169 C -0.6760816109,-3.0940457535 -0.3487886381,-3.155830516 -0.0191686648,-3.1372023899 C 0.3104513172,-3.1201416512 0.6377442213,-3.0226681125 0.8698768398,-2.8673678131 C 1.1038963344,-2.7131758319 1.2394655534,-2.5030897488 1.2381313946,-2.2916369207" />
      <path d="M 1.2381313946,-2.2916369207 L 1.2374390525,-2.2648703708" />
      <path d="M -1.2754659687,-2.0507384061 L -1.2764687406,-2.0775049589" />
      <path d="M -1.2764687406,-2.0775049589 C -1.2778029919,-2.2532689592 -1.142233856,-2.4276663258 -0.9082140602,-2.5461694638 C -0.6760811709,-2.6657809237 -0.3487883428,-2.727565455 -0.0191687215,-2.7089374388 C 0.3104509009,-2.6918767957 0.6377436988,-2.5944035385 0.8698765739,-2.4391032507 C 1.1038963535,-2.2849112857 1.2394655024,-2.0748251323 1.2381312527,-1.8633724996" />
      <path d="M 1.2381312527,-1.8633724996 L 1.2374389121,-1.8366059468" />
      <path d="M -1.275465949,-1.6224731692 L -1.2764687196,-1.6492397206" />
      <path d="M -1.2764687196,-1.6492397206 C -1.2778029088,-1.8250038195 -1.1422341199,-1.9994010206 -0.9082145237,-2.1179042854 C -0.6760818387,-2.2375158572 -0.3487887034,-2.2993007399 -0.0191687976,-2.2806727257 C 0.3104511187,-2.2636121052 0.6377439021,-2.1661385372 0.8698766604,-2.010838159 C 1.1038963164,-1.856646086 1.2394655271,-1.6465600913 1.2381313039,-1.4351073907" />
      <path d="M 1.2381313039,-1.4351073907 L 1.2374389628,-1.4083408379" />
      <path d="M -1.276468733,-1.2209758303 C -1.27626664,-1.2279139165 -1.276064547,-1.2348520027 -1.275862454,-1.2417900889 C -1.2670115583,-1.4157369864 -1.1242251517,-1.5859385296 -0.8872669528,-1.7000725937 C -0.6520816347,-1.815297688 -0.3259299731,-1.8726586678 0.0003541607,-1.8512603327 C 0.3266782108,-1.8313700801 0.6487055977,-1.732760734 0.8767521473,-1.5779742745 C 1.1066284687,-1.4242460232 1.2394152863,-1.2161950606 1.2381313296,-1.00684307" />
      <path d="M 1.2374389883,-0.980076516 Q 1.2324473555,-0.8848611509 1.1931169394,-0.7927104444" />
      <path d="M -0.4565512107,-0.1831860167 Q -0.5295952951,-0.1948901239 -0.5987381647,-0.2117643594" />
      <path d="M -1.2754659086,-0.7659441472 L -1.2764686787,-0.7927107017" />
      <path d="M -1.2764686787,-0.7927107017 C -1.2768900481,-0.9233724172 -1.2033244834,-1.0537187583 -1.067756974,-1.1603495316 C -0.932892206,-1.2672533758 -0.7366187859,-1.3499158119 -0.5109142926,-1.392705922 C -0.1304254543,-1.4673080473 0.3304017745,-1.4201128839 0.6745645559,-1.2617139529 C 1.0222511509,-1.1064436431 1.2413244928,-0.8446147142 1.2381312568,-0.5785779966" />
      <path d="M 1.2374389159,-0.5518114424 Q 1.2324473002,-0.4565962486 1.1931170171,-0.3644456545" />
      <path d="M -0.4565511142,0.2450787819 Q -0.529595506,0.2333746509 -0.5987386587,0.2165003475" />
      <path d="M -1.2754659704,-0.3376789695 L -1.276468742,-0.3644455232" />
      <path d="M -1.276468742,-0.3644455232 C -1.2822100009,-0.6239594363 -0.9758339561,-0.8744028895 -0.5288230025,-0.9609325079 C -0.0864663787,-1.0536280292 0.4682924578,-0.9750545161 0.824948492,-0.7545251003 C 1.0858126926,-0.5980932757 1.2398193753,-0.3751272642 1.2381314341,-0.1503134392" />
      <path d="M 1.2381314341,-0.1503134392 L 1.237439091,-0.1235468824" />
      <path d="M -1.2764686607,0.0638190397 C -1.2778029203,-0.1119448133 -1.1422339502,-0.2863419468 -0.9082140727,-0.404845143 C -0.676081111,-0.5244566471 -0.3487881206,-0.5862413351 -0.0191687303,-0.5676132605 C 0.3104506626,-0.5505525687 0.6377431233,-0.4530791897 0.869876302,-0.2977790457 C 1.1038965,-0.1435872187 1.2394654698,0.0664987013 1.2381309632,0.2779513317" />
      <path d="M 1.2381309632,0.2779513317 L 1.2374386295,0.3047178926" />
      <path d="M -1.2764688632,0.4920840877 C -1.2778031118,0.3163201278 -1.1422337754,0.1419230432 -0.908214014,0.0234198541 C -0.6760811429,-0.0961916345 -0.3487885203,-0.157976467 -0.019168894,-0.1393484616 C 0.3104507173,-0.122287852 0.6377437405,-0.024814295 0.8698766512,0.1304860258 C 1.1038964841,0.284678051 1.2394653952,0.4947638353 1.2381311413,0.7062164456" />
      <path d="M -1.2757976635,0.8984508009 C -1.2670951839,0.7428755962 -1.1522355804,0.5900892697 -0.9572472199,0.478297959 C -0.7635036819,0.365854155 -0.4913331124,0.295525497 -0.2024123848,0.2868323556 C 0.086265188,0.2771696939 0.3891645975,0.3293612307 0.6376457486,0.4351627369 C 0.886998475,0.5401286254 1.0797537239,0.6979203447 1.1722309131,0.8763638838" />
      <path d="M 0.8699971011,-6.2934068164 L 0.8699971011,-6.2398737094" />
      <path d="M 0.8699971011,-6.2398737094 C 1.1039435803,-6.0856894589 1.2394647787,-5.8756392729 1.2381314523,-5.6642232775" />
      <path d="M 1.2381314523,-5.6642232775 C 1.2384797691,-5.5144440005 1.1718650414,-5.3649126058 1.048181372,-5.235958363" />
      <path d="M -0.8572786464,-4.9569330164 L -0.9082159579,-4.9814272206" />
      <path d="M -0.9609928263,-5.0102103508 L -0.9804406547,-5.0218258372" />
      <path d="M -1.0217306515,-5.0485923994 C -1.1861842704,-5.1608970026 -1.2770993633,-5.3052309714 -1.2764686373,-5.4500909435" />
      <path d="M -1.2764686373,-5.4500909435 C -1.2778028913,-5.6258547811 -1.1422340115,-5.8002518969 -0.9082142206,-5.9187550939 C -0.6760813491,-6.0383665979 -0.3487883842,-6.1001513144 -0.0191689961,-6.0815232933 C 0.310450402,-6.0644626549 0.6377427816,-5.9669893388 0.8698759701,-5.8116892489 C 1.1038961468,-5.6574974725 1.2394654975,-5.4474116312 1.2381310081,-5.2359590257" />
      <path d="M 1.2381310081,-5.2359590257 Q 1.2380245523,-5.1271161063 1.1931169235,-5.0218259652" />
      <path d="M -1.2103474738,-4.8076934152 Q -1.2762382303,-4.9115908334 -1.276468855,-5.0218259652" />
      <path d="M -1.276468855,-5.0218259652 C -1.2778031065,-5.1975899346 -1.1422337782,-5.3719870129 -0.908214001,-5.4904901782 C -0.6760811151,-5.6101016436 -0.3487884835,-5.6718864601 -0.0191688867,-5.6532584712 C 0.3104506969,-5.6361978772 0.637743678,-5.5387243465 0.8698766043,-5.3834240203 C 1.1038964506,-5.2292319905 1.2394654131,-5.0191461932 1.2381311551,-4.8076936174" />
      <path d="M 1.2381311551,-4.8076936174 Q 1.2380247098,-4.6988510962 1.1931169888,-4.5935612503" />
      <path d="M -1.2262153726,-4.406195431 Q -1.2763359092,-4.497781925 -1.2764687128,-4.5935611767" />
      <path d="M -1.2764687128,-4.5935611767 C -1.2778029744,-4.7693249522 -1.1422338733,-4.9437221181 -0.9082140258,-5.0622254264 C -0.6760810894,-5.1818370379 -0.3487882326,-5.2436217392 -0.0191686879,-5.224993573 C 0.3104508628,-5.2079327955 0.6377435625,-5.1104593259 0.8698764804,-4.9551591836 C 1.1038962957,-4.8009673459 1.2394655669,-4.5908815035 1.2381313097,-4.3794287634" />
      <path d="M 1.2381313097,-4.3794287634 Q 1.2380695151,-4.2845636607 1.2037987502,-4.1920625886" />
      <path d="M -1.2103471725,-3.9511636923 Q -1.2762380309,-4.055061454 -1.2764687551,-4.1652969748" />
      <path d="M -1.2764687551,-4.1652969748 C -1.2778031088,-4.3410608252 -1.1422330664,-4.5154579203 -0.9082131155,-4.633960947 C -0.676080061,-4.7535722853 -0.3487877483,-4.8153568081 -0.0191681986,-4.7967286609 C 0.3104513247,-4.7796678958 0.6377442961,-4.6821944177 0.8698769844,-4.5268941676 C 1.1038965997,-4.3727022247 1.2394653235,-4.1626163638 1.2381310878,-3.9511637965" />
      <path d="M 1.2381310878,-3.9511637965 Q 1.2380246445,-3.8423212295 1.1931169126,-3.737031409" />
      <path d="M -1.2103474581,-3.5228986791 Q -1.2762382641,-3.6267958749 -1.2764688992,-3.737030785" />
      <path d="M -1.2764688992,-3.737030785 C -1.2770159666,-3.8767142336 -1.1926528432,-4.0159584204 -1.0389813167,-4.1263884803 C -0.8851109352,-4.2379926612 -0.661798179,-4.3196237862 -0.4109005769,-4.3533008188 C -0.1603535542,-4.3876059122 0.1163061001,-4.3736729556 0.367220473,-4.3114344236 C 0.6184807151,-4.2498249152 0.8425210986,-4.1401895722 0.9973474612,-4.0003987096 C 1.1530836924,-3.860996873 1.2386939735,-3.6921753314 1.2381312764,-3.5228986835" />
      <path d="M 1.2381312764,-3.5228986835 Q 1.2380248336,-3.4140560832 1.1931170139,-3.3087662691" />
      <path d="M -1.210347484,-3.0946340439 Q -1.2762381294,-3.1985313479 -1.2764687437,-3.30876632" />
      <path d="M -1.2764687437,-3.30876632 C -1.2785481562,-3.5061705857 -1.1059187255,-3.7011591843 -0.8189776229,-3.8185062756 C -0.5346820977,-3.93773818 -0.142421824,-3.9762537457 0.2205634583,-3.9135739354 C 0.504610592,-3.8659835941 0.7675905108,-3.7584431504 0.9509392328,-3.6114117045 C 1.1355292844,-3.4649813629 1.2389355654,-3.2801658364 1.2381311305,-3.094633944" />
      <path d="M 1.2381311305,-3.094633944 Q 1.2380693416,-2.9997690414 1.2037987631,-2.9072681995" />
      <path d="M -1.2262152746,-2.6931354962 Q -1.2763360636,-2.7847220883 -1.2764688681,-2.880501555" />
      <path d="M -1.2764688681,-2.880501555 C -1.2774478647,-3.0427120325 -1.1626423349,-3.2040023367 -0.9601437363,-3.3208758136 C -0.7591104765,-3.4385120556 -0.4724626567,-3.5103538958 -0.1703381285,-3.5147917781 C 0.1315509517,-3.5203713483 0.4458062453,-3.4583258066 0.6955335285,-3.3398050595 C 0.9463737149,-3.222230437 1.1301076762,-3.0492269329 1.2017800891,-2.859095207 C 1.225967858,-2.7957119269 1.2380848119,-2.7314699592 1.2381309507,-2.6663693038" />
      <path d="M 1.2381309507,-2.6663693038 Q 1.238024563,-2.5575266063 1.1931169413,-2.4522366343" />
      <path d="M -1.2103475391,-2.238104249 Q -1.2762380861,-2.3420014748 -1.2764686936,-2.4522364258" />
      <path d="M -1.2764686936,-2.4522364258 C -1.2778029083,-2.62800038 -1.1422339172,-2.8023976834 -0.9082143072,-2.92090101 C -0.6760816109,-3.0405126465 -0.3487886381,-3.102297409 -0.0191686648,-3.0836692829 C 0.3104513172,-3.0666085443 0.6377442213,-2.9691350055 0.8698768398,-2.8138347062 C 1.1038963344,-2.659642725 1.2394655534,-2.4495566418 1.2381313946,-2.2381038138" />
      <path d="M 1.2381313946,-2.2381038138 Q 1.2380249624,-2.129261336 1.1931170534,-2.0239716736" />
      <path d="M -1.2262152805,-1.8366058691 Q -1.2763359384,-1.9281924117 -1.2764687406,-2.0239718519" />
      <path d="M -1.2764687406,-2.0239718519 C -1.2778029919,-2.1997358523 -1.142233856,-2.3741332188 -0.9082140602,-2.4926363568 C -0.6760811709,-2.6122478167 -0.3487883428,-2.6740323481 -0.0191687215,-2.6554043319 C 0.3104509009,-2.6383436888 0.6377436988,-2.5408704315 0.8698765739,-2.3855701438 C 1.1038963535,-2.2313781788 1.2394655024,-2.0212920254 1.2381312527,-1.8098393926" />
      <path d="M 1.2381312527,-1.8098393926 Q 1.2380248065,-1.7009967468 1.1931169298,-1.5957069103" />
      <path d="M -1.2262152758,-1.4083406609 Q -1.27633594,-1.4999272058 -1.2764687196,-1.5957066136" />
      <path d="M -1.2764687196,-1.5957066136 C -1.2778029088,-1.7714707126 -1.1422341199,-1.9458679137 -0.9082145237,-2.0643711784 C -0.6760818387,-2.1839827503 -0.3487887034,-2.2457676329 -0.0191687976,-2.2271396187 C 0.3104511187,-2.2100789983 0.6377439021,-2.1126054303 0.8698766604,-1.957305052 C 1.1038963164,-1.803112979 1.2394655271,-1.5930269844 1.2381313039,-1.3815742837" />
      <path d="M 1.2381313039,-1.3815742837 Q 1.2380695153,-1.2867094895 1.2037989118,-1.1942087049" />
      <path d="M -1.2103474358,-0.9533100759 Q -1.2762379242,-1.057207594 -1.276468733,-1.1674427234" />
      <path d="M -1.276468733,-1.1674427234 C -1.27626664,-1.1743808096 -1.276064547,-1.1813188958 -1.275862454,-1.188256982 C -1.2670115583,-1.3622038794 -1.1242251517,-1.5324054226 -0.8872669528,-1.6465394868 C -0.6520816347,-1.7617645811 -0.3259299731,-1.8191255608 0.0003541607,-1.7977272257 C 0.3266782108,-1.7778369731 0.6487055977,-1.679227627 0.8767521473,-1.5244411676 C 1.1066284687,-1.3707129163 1.2394152863,-1.1626619536 1.2381313296,-0.953309963" />
      <path d="M 1.2381313296,-0.953309963 Q 1.2380695337,-0.8584449024 1.2037987651,-0.7659438823" />
      <path d="M -1.2103474242,-0.5250449534 Q -1.2762380545,-0.6289423638 -1.2764686787,-0.7391775947" />
      <path d="M -1.2764686787,-0.7391775947 C -1.2768900481,-0.8698393103 -1.2033244834,-1.0001856513 -1.067756974,-1.1068164246 C -0.932892206,-1.2137202688 -0.7366187859,-1.296382705 -0.5109142926,-1.3391728151 C -0.1304254543,-1.4137749404 0.3304017745,-1.366579777 0.6745645559,-1.2081808459 C 1.0222511509,-1.0529105361 1.2413244928,-0.7910816072 1.2381312568,-0.5250448896" />
      <path d="M 1.2381312568,-0.5250448896 Q 1.2380248134,-0.4162023721 1.1931170171,-0.3109125475" />
      <path d="M -1.2103475392,-0.0967800224 Q -1.2762381264,-0.2006773536 -1.276468742,-0.3109124163" />
      <path d="M -1.276468742,-0.3109124163 C -1.2822100009,-0.5704263293 -0.9758339561,-0.8208697825 -0.5288230025,-0.9073994009 C -0.0864663787,-1.0000949222 0.4682924578,-0.9215214091 0.824948492,-0.7009919933 C 1.0858126926,-0.5445601688 1.2398193753,-0.3215941572 1.2381314341,-0.0967803322" />
      <path d="M 1.2381314341,-0.0967803322 Q 1.238024968,0.0120623437 1.1931170097,0.1173522719" />
      <path d="M -1.226215288,0.3047180569 Q -1.2763358571,0.2131315065 -1.2764686607,0.1173521466" />
      <path d="M -1.2764686607,0.1173521466 C -1.2778029203,-0.0584117063 -1.1422339502,-0.2328088398 -0.9082140727,-0.351312036 C -0.676081111,-0.4709235401 -0.3487881206,-0.5327082281 -0.0191687303,-0.5140801535 C 0.3104506626,-0.4970194618 0.6377431233,-0.3995460827 0.869876302,-0.2442459387 C 1.1038965,-0.0900541117 1.2394654698,0.1200318082 1.2381309632,0.3314844386" />
      <path d="M 1.2381309632,0.3314844386 Q 1.2380691857,0.4263495738 1.2037987372,0.5188506584" />
      <path d="M -1.2262153542,0.7329831774 Q -1.2763360609,0.6413965861 -1.2764688632,0.5456171947" />
      <path d="M -1.2764688632,0.5456171947 C -1.2778031118,0.3698532348 -1.1422337754,0.1954561501 -0.908214014,0.0769529611 C -0.6760811429,-0.0426585275 -0.3487885203,-0.1044433601 -0.019168894,-0.0858153546 C 0.3104507173,-0.0687547451 0.6377437405,0.028718812 0.8698766512,0.1840191327 C 1.1038964841,0.3382111579 1.2394653952,0.5482969422 1.2381311413,0.7597495526" />
      <path d="M 1.2381311413,0.7597495526 Q 1.2381157128,0.826647928 1.2209473644,0.8927106055" />
      <path d="M -1.2678810192,0.8956860141 C -1.2365745903,0.7507245315 -1.1129479603,0.6126843528 -0.9218565171,0.5123016338 C -0.7316992666,0.4113869159 -0.475374117,0.3489154135 -0.204415843,0.3404299921 C 0.0663507253,0.3311886355 0.3499077459,0.3760945179 0.5892456369,0.4691018896 C 0.8292131671,0.5614404412 1.0233311864,0.7013509703 1.1325717337,0.8636871574" />
      <path d="M 0.8699971011,-6.2398737094 L 0.6674402261,-5.98756324" />
      <path d="M 0.6674402261,-5.5592984003 C 0.5059861543,-5.6708158258 0.2849709525,-5.7467256457 0.056575939,-5.7728609038 C -0.1717077204,-5.799843381 -0.4058498012,-5.7770360272 -0.5906188315,-5.713571797 C -0.8388696541,-5.6302748027 -0.9921038912,-5.4748542313 -0.9900412183,-5.3167082992" />
      <path d="M 0.2217734862,-4.8884587294 Q 0.4512947954,-4.9398718061 0.6282685719,-5.0485926561" />
      <path d="M 0.8376950536,-5.8323551732 Q 0.769583541,-5.9173725804 0.6674402261,-5.98756324" />
      <path d="M 0.6674402261,-5.1310335392 C 0.3797806781,-5.3339443618 -0.1034151693,-5.4064637235 -0.4670632181,-5.3200305994 C -0.628681859,-5.2836287167 -0.7656593511,-5.2198377032 -0.8572787516,-5.1402517025" />
      <path d="M 0.7066412932,-4.6743263401 Q 0.80218901,-4.747638205 0.8625702623,-4.8344600097" />
      <path d="M 0.9134295344,-4.924831347 Q 0.94009147,-4.9857009261 0.9482332543,-5.0485928159" />
      <path d="M 0.8376949851,-5.4040904268 Q 0.7695774512,-5.4891148634 0.6674402261,-5.5592984003" />
      <path d="M 0.6674402261,-4.7027687 C 0.4865699056,-4.8279728534 0.2302706873,-4.9077079508 -0.0265573531,-4.9238945314 C -0.2834021298,-4.9414207118 -0.5380796042,-4.8954919691 -0.7161557417,-4.8047008436 C -0.7706539924,-4.7771343932 -0.8176950644,-4.7462296643 -0.8572789577,-4.711986657" />
      <path d="M 0.8376948544,-4.9758255753 Q 0.7695922789,-5.0608316325 0.6674402261,-5.1310335392" />
      <path d="M 0.6674402261,-4.2745037825 C 0.4346335114,-4.4368618595 0.0752966845,-4.5195108503 -0.2469226769,-4.4953544168 C -0.5007648559,-4.4783451203 -0.7265934867,-4.3980435405 -0.8572792384,-4.2837215393" />
      <path d="M 0.7117966472,-4.6703428701 L 0.6674402261,-4.7027687" />
      <path d="M 0.6674402261,-3.8462389664 C 0.4014664372,-4.0329417936 -0.0310848658,-4.1112684642 -0.3825362612,-4.0515632458 C -0.6449862569,-4.0101084565 -0.8555267512,-3.8976191607 -0.9418669777,-3.7595174525" />
      <path d="M 0.7117969016,-4.2420777754 L 0.6674402261,-4.2745037825" />
      <path d="M 0.6674402261,-3.4179740633 C 0.3903681204,-3.6129252832 -0.0677120365,-3.6885845006 -0.4261415371,-3.6155605463 C -0.6685844444,-3.5692679707 -0.8601021306,-3.4615558709 -0.941866951,-3.3312525796" />
      <path d="M 0.8376949852,-3.6910310647 Q 0.7695825457,-3.7760510227 0.6674402261,-3.8462389664" />
      <path d="M 0.6674402261,-2.9897092333 C 0.5054683959,-3.1015878605 0.2835642244,-3.1776110306 0.0543932275,-3.2035243322 C -0.1746654661,-3.2302954186 -0.4094478091,-3.2069298004 -0.5941978389,-3.1427561154 C -0.7018095353,-3.1053461846 -0.7895031551,-3.0574033004 -0.8572786983,-2.9989274626" />
      <path d="M -0.8375061284,-2.4790033128 Q -0.7015676939,-2.3723209813 -0.4813075563,-2.3188696088" />
      <path d="M 0.7117961163,-3.3855486484 L 0.6674402261,-3.4179740633" />
      <path d="M 0.6674402261,-2.561444404 C 0.444536689,-2.7166155781 0.1061584903,-2.799536587 -0.2051558699,-2.7846450367 C -0.4755946933,-2.7737559183 -0.7195314676,-2.6913563508 -0.8572786918,-2.5706626505" />
      <path d="M -0.8375061515,-2.0507383955 Q -0.7015820486,-1.9440618865 -0.481307649,-1.8906047345" />
      <path d="M 0.2217731864,-1.8906047303 Q 0.4511393597,-1.9419545386 0.6282689981,-2.0507384149" />
      <path d="M 0.8376955111,-2.8345009527 Q 0.7695906759,-2.9195115644 0.6674402261,-2.9897092333" />
      <path d="M 0.6674402261,-2.1331794935 C 0.4785991918,-2.2639835663 0.2078973591,-2.3447644152 -0.0602080169,-2.3561755831 C -0.3845986648,-2.3723501131 -0.695669554,-2.2850395041 -0.857278673,-2.1423977317" />
      <path d="M 0.8376949796,-2.4062365333 Q 0.7695690706,-2.4912684328 0.6674402261,-2.561444404" />
      <path d="M 0.6674402261,-1.7049147191 C 0.358843568,-1.9237182463 -0.1751684107,-1.9881918753 -0.5445948729,-1.8737884236 C -0.6744509749,-1.8350199356 -0.7786788143,-1.78180151 -0.8572783911,-1.7141331465" />
      <path d="M 0.8376951957,-1.9779713828 Q 0.7695447635,-2.0630252583 0.6674402261,-2.1331794935" />
      <path d="M 0.6674402261,-1.2766498255 C 0.5023152145,-1.3907433367 0.2748238372,-1.4674675308 0.0409515865,-1.4919556796 C -0.1928207995,-1.5173709342 -0.4312770124,-1.4905316341 -0.6156849184,-1.4220385226 C -0.7673570021,-1.3663789099 -0.8824714586,-1.2836724075 -0.9418612154,-1.1899313647" />
      <path d="M -0.9844135322,-0.9800835197 Q -0.9665716203,-0.8956801838 -0.896438163,-0.81994334" />
      <path d="M 0.2217733697,-0.605810179 Q 0.4511389337,-0.6571595852 0.6282689978,-0.765943849" />
      <path d="M 0.7117970585,-1.6724885976 L 0.6674402261,-1.7049147191" />
      <path d="M 0.6674402261,-0.8483850068 C 0.5442378075,-0.9332140362 0.3870004914,-0.9978578811 0.2176841748,-1.0349809021 C -0.093360864,-1.1049389897 -0.4411681207,-1.0756178569 -0.6761043916,-0.9692943891 C -0.8000265777,-0.91345074 -0.8886140904,-0.8442404076 -0.9418669298,-0.7616633917" />
      <path d="M -0.984415032,-0.5518114095 Q -0.9665978909,-0.4674671068 -0.8964388913,-0.3916777342" />
      <path d="M 0.2217735031,-0.1775452951 Q 0.4511068594,-0.2288839647 0.6282689712,-0.3376789956" />
      <path d="M 0.7117967248,-1.2442239475 L 0.6674402261,-1.2766498255" />
      <path d="M 0.6674402261,-0.420120131 C 0.4452729519,-0.57477279 0.1083116444,-0.6577127143 -0.2021986002,-0.6434455116 C -0.542816926,-0.6311858061 -0.8373015646,-0.5030558063 -0.9418668342,-0.3333987115" />
      <path d="M 0.7066405266,0.0365877617 Q 0.8021911067,-0.0367268039 0.8625705368,-0.1235469491" />
      <path d="M 0.9134295636,-0.2139179806 Q 0.9400921235,-0.274789527 0.9482332239,-0.3376790213" />
      <path d="M 0.9517113904,-0.3916777255 Q 0.9508128193,-0.5506488429 0.8376951679,-0.6931768996" />
      <path d="M 0.7117973763,-0.8159586293 L 0.6674402261,-0.8483850068" />
      <path d="M 0.6674402261,0.0081447342 C 0.4173292603,-0.166842666 0.0205499797,-0.2478840911 -0.3183850802,-0.2060750968 C -0.5431079526,-0.1803342972 -0.738798692,-0.1044153694 -0.8572789183,-0.0010732229" />
      <path d="M 0.951711323,0.0365870312 C 0.9527446412,-0.1307388535 0.8480791764,-0.2970040589 0.6674402261,-0.420120131" />
      <path d="M 0.6674402261,0.4364095827 C 0.4920958454,0.3151129629 0.2460498999,0.2363301138 -0.0028506322,0.2170121954 C -0.2517172234,0.1965116439 -0.5011332469,0.2354265888 -0.682328254,0.318293403 C -0.7512208039,0.3496129111 -0.809537623,0.3859122404 -0.8572787112,0.4271913908" />
      <path d="M 0.711791581,0.0405681435 L 0.6674402261,0.0081447342" />
      <path d="M 0.340232934,0.7104093626 C -0.0030985491,0.601394228 -0.4233993356,0.6232798862 -0.6891234662,0.7496710604" />
      <path d="M 0.7117972629,0.4688358627 L 0.6674402261,0.4364095827" />
      <line x1="0.0291872511" y1="3.0186824987" x2="1.20543996" y2="3.7097639405" />
      <line x1="1.2054268963" y1="3.7663745618" x2="0.0288552773" y2="4.4572686857" />
      <line x1="-0.0193412698" y1="4.4850319356" x2="-0.0193412698" y2="2.9900456577" />
      <line x1="-0.0675247532" y1="4.4572610125" x2="-1.2437774621" y2="3.7661795707" />
      <line x1="-1.2437643984" y1="3.7095689494" x2="-0.0671927794" y2="3.0186748255" />
      <line x1="0.6674402261" y1="0.4364095827" x2="0.6674402261" y2="0.4481354213" />
      <line x1="0.6674402261" y1="0.0081447342" x2="0.6674402261" y2="0.0198704534" />
      <line x1="0.6674402261" y1="-0.420120131" x2="0.6674402261" y2="-0.3548611941" />
      <line x1="0.6674402261" y1="-0.8483850068" x2="0.6674402261" y2="-0.8366590867" />
      <line x1="0.6674402261" y1="-1.2766498255" x2="0.6674402261" y2="-1.2649241609" />
      <line x1="0.6674402261" y1="-1.7049147191" x2="0.6674402261" y2="-1.6931889497" />
      <line x1="0.6674402261" y1="-2.1331794935" x2="0.6674402261" y2="-2.0679207217" />
      <line x1="0.6674402261" y1="-2.561444404" x2="0.6674402261" y2="-2.496185638" />
      <line x1="0.6674402261" y1="-2.9897092333" x2="0.6674402261" y2="-2.9244504341" />
      <line x1="0.6674402261" y1="-3.4179740633" x2="0.6674402261" y2="-3.4062485401" />
      <line x1="0.6674402261" y1="-3.8462389664" x2="0.6674402261" y2="-3.7809799858" />
      <line x1="0.6674402261" y1="-4.2745037825" x2="0.6674402261" y2="-4.2627780405" />
      <line x1="0.6674402261" y1="-4.7027687" x2="0.6674402261" y2="-4.6910430078" />
      <line x1="0.6674402261" y1="-5.1310335392" x2="0.6674402261" y2="-5.0230360181" />
      <line x1="0.6674402261" y1="-5.5592984003" x2="0.6674402261" y2="-5.4513009034" />
      <line x1="0.6674402261" y1="-5.98756324" x2="0.6674402261" y2="-5.9223043144" />
      <path d="M -0.7948571359,-5.6156931396 A 0.9708801398942091,0.5702646876905835 -1.9649563778641214e-15 0,1 -0.9452539702,-5.787425806" />
      <path d="M -0.990048891,-5.9586459859 A 0.9708801398942091,0.5702646876905835 -1.9649563778641214e-15 0,1 0.6536505083,-6.3697716146" />
      <path d="M -0.645982115,-6.2546169627 C -0.6431747068,-6.2550360912 -0.6388052633,-6.2558099092 -0.6328737844,-6.2569384167 C -0.6246300025,-6.2584995896 -0.6175071859,-6.2600673079 -0.5866217821,-6.2663302286 C -0.5626512927,-6.2712266954 -0.5053445845,-6.2820738426 -0.444016987,-6.2883045208 C -0.3787294549,-6.29523591 -0.3101293968,-6.2977629034 -0.2382168127,-6.2958855008 C 0.0815142455,-6.2888039794 0.4366533434,-6.1773481664 0.6674402261,-5.9875632382" />
      <path d="M -0.645982115,-6.2546169627 L -0.645982115,-6.3081500696" />
      <path d="M -0.645982115,-6.3081500696 C -0.6402702762,-6.3117451431 -0.6353027106,-6.3152553883 -0.6153253678,-6.3259745248 C -0.6087319494,-6.3296605477 -0.5959258349,-6.3359491412 -0.5769070241,-6.3448403051 C -0.5501317279,-6.357336029 -0.4973262767,-6.3788199583 -0.442652542,-6.3955128553 C -0.2370174792,-6.4596933443 0.0093738,-6.4779631478 0.2324827387,-6.4463671267" />
      <path d="M 0.8699971643,-6.2934067819 Q 0.6381812763,-6.3926065592 0.3671233144,-6.4282135736" />
      <path d="M 0.3671233144,-6.4282135736 C 0.0025109394,-6.476859423 -0.3743370573,-6.4257689104 -0.645982115,-6.3081500696" />
      <path d="M 0.8699971643,-6.239873675 C 0.6183045478,-6.34922383 0.3075404562,-6.4021590364 0.0142282042,-6.3917592431 C -0.2305286653,-6.383811833 -0.4612596791,-6.333875548 -0.645982115,-6.2546169627" />
      <path d="M 0.847543418,3.2290300685 A 1.22555,0.7198498138764566 -1.9649563778641214e-15 0,1 1.20543996,3.7097639405" />
      <path d="M 1.2054268963,3.7663745618 A 1.22555,0.7198498138764566 -1.9649563778641214e-15 0,1 0.0288552773,4.4572686857" />
      <path d="M -0.0675247532,4.4572610125 A 1.22555,0.7198498138764566 -1.9649563778641214e-15 0,1 -1.2437774621,3.7661795707" />
      <path d="M -1.2437643984,3.7095689494 A 1.22555,0.7198498138764566 -1.9649563778641214e-15 0,1 -0.0671927794,3.0186748255" />
      <path d="M 0.0291872511,3.0186824987 A 1.22555,0.7198498138764566 -1.9649563778641214e-15 0,1 0.847543418,3.2290300685" />
      <path d="M 2.426985241,2.2259625291 C 2.4030054206,2.4437921932 2.3790846321,2.6927770447 2.3239067197,2.9545842823 C 2.2842873938,3.141805484 2.2267020262,3.336091279 2.1397331702,3.5189168346 C 2.0559902343,3.6963396933 1.947424158,3.855730853 1.8140349413,3.9970903137 C 1.5777218841,4.2466504276 1.2708274194,4.4269257807 0.9252297849,4.54177013 C 0.4621119588,4.6959301212 -0.0724394893,4.7300264252 -0.566409256,4.6418666239 C -0.9908619658,4.5661267148 -1.3824348163,4.4031357123 -1.6880517859,4.1504979182 C -1.8946181335,3.9808279328 -2.0619484177,3.7648500297 -2.1770913657,3.5209824358 C -2.2324249258,3.4031382866 -2.2771995426,3.2829834208 -2.311415216,3.1605178382 C -2.3718915434,2.9478153807 -2.4046929715,2.7377565832 -2.4292956824,2.5435892067 C -2.4428837462,2.4320614418 -2.4548927664,2.3261858825 -2.4653227432,2.2259625291" />
      <path d="M 1.2381314523,-5.6642232775 L 1.2381314523,-5.7177563845" />
      <path d="M -1.2764686373,-5.4500909435 L -1.2764686373,-5.5036240504" />
      <path d="M 1.2381310081,-5.2359590257 L 1.2381310081,-5.2894921327" />
      <path d="M -1.276468855,-5.0218259652 L -1.276468855,-5.0753590722" />
      <path d="M 1.2381311551,-4.8076936174 L 1.2381311551,-4.8612267244" />
      <path d="M -1.2764687128,-4.5935611767 L -1.2764687128,-4.6470942836" />
      <path d="M 1.2381313097,-4.3794287634 L 1.2381313097,-4.4329618703" />
      <path d="M -1.2764687551,-4.1652969748 L -1.2764687551,-4.2188300817" />
      <path d="M 1.2381310878,-3.9511637965 L 1.2381310878,-4.0046969034" />
      <path d="M -1.2764688992,-3.737030785 L -1.2764688992,-3.790563892" />
      <path d="M 1.2381312764,-3.5228986835 L 1.2381312764,-3.5764317905" />
      <path d="M -1.2764687437,-3.30876632 L -1.2764687437,-3.362299427" />
      <path d="M 1.2381311305,-3.094633944 L 1.2381311305,-3.1481670509" />
      <path d="M -1.2764688681,-2.880501555 L -1.2764688681,-2.9340346619" />
      <path d="M 1.2381309507,-2.6663693038 L 1.2381309507,-2.7199024108" />
      <path d="M -1.2764686936,-2.4522364258 L -1.2764686936,-2.5057695327" />
      <path d="M 1.2381313946,-2.2381038138 L 1.2381313946,-2.2916369207" />
      <path d="M -1.2764687406,-2.0239718519 L -1.2764687406,-2.0775049589" />
      <path d="M 1.2381312527,-1.8098393926 L 1.2381312527,-1.8633724996" />
      <path d="M -1.2764687196,-1.5957066136 L -1.2764687196,-1.6492397206" />
      <path d="M 1.2381313039,-1.3815742837 L 1.2381313039,-1.4351073907" />
      <path d="M -1.276468733,-1.1674427234 L -1.276468733,-1.2209758303" />
      <path d="M 1.2381313296,-0.953309963 L 1.2381313296,-1.00684307" />
      <path d="M -1.2764686787,-0.7391775947 L -1.2764686787,-0.7927107017" />
      <path d="M 1.2381312568,-0.5250448896 L 1.2381312568,-0.5785779966" />
      <path d="M -1.276468742,-0.3109124163 L -1.276468742,-0.3644455232" />
      <path d="M 1.2381314341,-0.0967803322 L 1.2381314341,-0.1503134392" />
      <path d="M -1.2764686607,0.1173521466 L -1.2764686607,0.0638190397" />
      <path d="M 1.2381309632,0.3314844386 L 1.2381309632,0.2779513317" />
      <path d="M -1.2764688632,0.5456171947 L -1.2764688632,0.4920840877" />
      <path d="M 1.2381311413,0.7597495526 L 1.2381311413,0.7062164456" />
      <line x1="0.9517113888" y1="0.1445847034" x2="0.9517113888" y2="0.0365871877" />
      <line x1="0.9517113888" y1="-1.5684748363" x2="0.9517113888" y2="-1.6764723113" />
      <line x1="0.9517113888" y1="-1.9967396856" x2="0.9517113888" y2="-2.1047371097" />
      <line x1="0.9517113888" y1="-3.7097991081" x2="0.9517113888" y2="-3.8177966392" />
      <line x1="0.9517113888" y1="-4.5663288266" x2="0.9517113888" y2="-4.6743263196" />
      <line x1="-0.990048891" y1="-5.2087261359" x2="-0.990048891" y2="-5.3167236174" />
      <line x1="-0.990048891" y1="-5.8723936764" x2="-0.990048891" y2="-5.9586459859" />
      <path d="M 0.2324827401,-6.4463671265 Q 0.2977573047,-6.4372931511 0.3671233144,-6.4282135736" />
    </g>
  </g>
</svg>