<?xml version='1.0' encoding='utf-8'?>
<svg width="330.0127937424mm" height="512.9999999992mm" viewBox="-3.7629415939 -4.5445856824 7.5227954661 11.6940741307" version="1.1" xmlns="http://www.w3.org/2000/svg">
  <g transform="scale(1,-1)" stroke-linecap="round">
    <g fill="none" stroke="rgb(64,192,64)" stroke-width="0.022795466141753026" id="Visible">
      <path d="M 2.6501355158,0.1377347225 A 3.75,2.1948303926977073 0.0 0,1 3.7484561391,1.6896972341" />
      <path d="M -3.7515438609,1.6896972341 A 3.75,2.1948303926977073 0.0 0,1 2.6501355158,0.1377347225" />
      <path d="M 2.6501355158,0.7863950451 A 3.75,2.1948303926977073 0.0 0,1 3.7484561391,2.3383575566" />
      <path d="M 3.7484561391,2.3383575566 A 3.75,2.1948303926977073 0.0 0,1 -3.7515438609,2.3383575566" />
      <path d="M -3.7515438609,2.3383575566 A 3.75,2.1948303926977073 0.0 0,1 2.6501355158,0.7863950451" />
      <path d="M 1.2042032115,-0.3885844285 C 1.1575263912,-0.5399106439 1.0387907556,-0.6825921281 0.8677594146,-0.7950050373" />
      <path d="M 0.8677594146,-0.7950050373 C 0.673391298,-0.9238130641 0.4114323761,-1.0122205734 0.137447473,-1.0445105703 C -0.1247727491,-1.0761897478 -0.3964519605,-1.0563764648 -0.6237701615,-0.9917077705 C -0.8517350321,-0.9276819955 -1.0344351757,-0.8191585341 -1.1357169409,-0.6903183426 C -1.1988395001,-0.6100121613 -1.2305708472,-0.5259906377 -1.2309109823,-0.4382537716" />
      <path d="M 1.2278231977,-0.6409600846 C 1.2291221936,-0.8465064458 1.0965772221,-1.050668252 0.8677594146,-1.2004176422" />
      <path d="M 0.8677594146,-1.2004176422 C 0.6667541455,-1.3337243867 0.3928201506,-1.4237235729 0.1088220089,-1.4531416105 C -0.1750252899,-1.4835727615 -0.4673860673,-1.4534243574 -0.7013480758,-1.3729676676 C -1.0291721323,-1.2629238834 -1.2337860265,-1.0551625442 -1.2309086457,-0.8436726683" />
      <path d="M -1.2309086457,-0.8436726683 Q -1.2308460804,-0.7667309827 -1.1974826625,-0.6920961901" />
      <path d="M -1.1703538642,-0.6409624236 Q -1.1209287865,-0.5607211165 -1.0347863491,-0.4907270699" />
      <path d="M 1.2278224109,-1.0463726875 C 1.2291409911,-1.2518481377 1.0965982601,-1.4560809738 0.8677594146,-1.6058305605" />
      <path d="M 0.8677594146,-1.6058305605 C 0.5300419199,-1.8336407597 -0.0196897512,-1.9238502018 -0.4653359044,-1.8390514495 C -0.5472497712,-1.8241308262 -0.6247063552,-1.8043199019 -0.6977056564,-1.7796186766" />
      <path d="M -1.2309108908,-1.2490793594 Q -1.2308949055,-1.1954534612 -1.2145548831,-1.1426352033" />
      <path d="M -0.9623511989,-0.8436663079 Q -0.8152649298,-0.7483977084 -0.6111062965,-0.6921039809" />
      <path d="M 0.8715082945,-0.8948085531 Q 0.9758826346,-0.9642273413 1.0523030916,-1.0463786649" />
      <path d="M 1.0960233278,-1.0975275322 Q 1.1532244264,-1.1705859345 1.1861035635,-1.2490870963" />
      <path d="M 1.2263323189,-1.4132228382 L 1.2278197119,-1.4517850861" />
      <path d="M -0.9623530785,-1.2490778997 Q -0.8152809803,-1.1538316937 -0.6110956285,-1.0975196696" />
      <path d="M -0.3422193994,-1.04637289 Q -0.1674914036,-1.0264450513 0.0142840169,-1.0372016649" />
      <path d="M 0.4010530494,-1.0975157491 Q 0.6141686069,-1.1526704213 0.7875747481,-1.2490789966" />
      <path d="M 1.2277051696,-1.8680621964 C 1.2245844924,-2.0698348269 1.0924604203,-2.2695713901 0.8677594146,-2.416655721" />
      <path d="M 0.8677594146,-2.416655721 C 0.4953307022,-2.669506076 -0.1359547872,-2.748901495 -0.5993818979,-2.6200434509 C -0.6321389721,-2.6101815522 -0.6648960463,-2.6003196534 -0.6976531206,-2.5904577547" />
      <path d="M -1.2309079311,-2.0598965214 Q -1.2309062103,-2.0280234792 -1.2251025606,-1.9963206602" />
      <path d="M -0.9623413317,-1.6544980608 Q -0.81517016,-1.5591797201 -0.611106316,-1.502928887" />
      <path d="M -0.2371006111,-1.4426258255 Q -0.0591115339,-1.431809487 0.1213059772,-1.4517872085" />
      <path d="M 0.4010545592,-1.5029280418 Q 0.6142356169,-1.5581041958 0.7875721523,-1.6544933946" />
      <path d="M 0.8715029105,-1.7056372945 Q 0.9758910667,-1.7750693642 1.0523069823,-1.8571964054" />
      <path d="M 1.1267191864,-1.9505061832 Q 1.1626947595,-2.0039265893 1.1861071745,-2.0599046183" />
      <path d="M 1.2046597388,-2.1110475622 Q 1.2277966511,-2.1861839323 1.2278231966,-2.2626111432" />
      <path d="M 1.2278231966,-2.2626111432 C 1.2291833724,-2.4680246554 1.0965492836,-2.6723710302 0.8677594146,-2.8220685453" />
      <path d="M 0.8677594146,-2.8220685453 C 0.5714899053,-3.0206036723 0.1132949532,-3.1174322968 -0.2962603072,-3.078136494 C -0.4409222875,-3.0648312956 -0.5747389164,-3.0374042801 -0.697710194,-2.9958554476" />
      <path d="M -1.2309032637,-2.4653371339 Q -1.2308914555,-2.4117095213 -1.2145545198,-2.358874204" />
      <path d="M -0.3422237235,-1.8571977157 Q -0.11448194,-1.8312978739 0.1213098251,-1.857199285" />
      <path d="M 0.8715067699,-2.1110476484 Q 0.9758714965,-2.1804630551 1.0523084834,-2.2626108364" />
      <path d="M 1.0960324509,-2.3137542512 Q 1.1532503988,-2.3868259321 1.1861070379,-2.4653175307" />
      <path d="M 1.2046578369,-2.516454034 Q 1.2277924337,-2.591568658 1.2278231034,-2.6680238394" />
      <path d="M 1.2278231034,-2.6680238394 C 1.2291246389,-2.8735705053 1.0965715841,-3.0777354572 0.8677594146,-3.2274811502" />
      <path d="M 0.8677594146,-3.2274811502 Q 0.714978158,-3.3278877527 0.519488367,-3.3928521379" />
      <path d="M -1.230909182,-2.8707512508 Q -1.23089203,-2.8171426551 -1.2145435113,-2.7642946538" />
      <path d="M 0.4010527884,-2.3137539089 Q 0.6142151605,-2.3689277007 0.7875745262,-2.4653172412" />
      <path d="M 0.8715059575,-2.5164607927 Q 0.9758806863,-2.585891415 1.0523079761,-2.6680239544" />
      <path d="M 1.0960337593,-2.7191663513 Q 1.1532480956,-2.7922281721 1.1861043291,-2.8707367913" />
      <path d="M -0.3422150073,-2.6680241335 Q -0.1145186018,-2.6421266735 0.121318605,-2.6680237329" />
      <path d="M 0.4010531486,-2.7191666567 Q 0.6143223296,-2.7743817457 0.7875747217,-2.8707298728" />
      <path d="M 0.5194902327,-4.2036769785 C 0.1382248969,-4.3325440248 -0.3356923331,-4.333507644 -0.6850125941,-4.2163263859 C -1.0221370401,-4.10761062 -1.2339470397,-3.8965858289 -1.2309136072,-3.6815516024" />
      <path d="M -0.2371934016,-3.0642720994 Q -0.0591581211,-3.0534616352 0.1213195801,-3.0734364891" />
      <path d="M 0.4010484364,-3.1245804401 Q 0.6142629622,-3.1797716656 0.7875767808,-3.276141371" />
      <path d="M -0.697705589,-4.6175077212 C -1.0275204987,-4.5077731493 -1.2337804709,-4.2993741018 -1.230910978,-4.086967883" />
      <path d="M -0.3422192494,-3.478848993 Q -0.1674889896,-3.4589204312 0.0142856411,-3.4696777917" />
      <path d="M 0.519481466,-5.014504515 C 0.4309947412,-5.0438124252 0.3388987127,-5.0667202524 0.2431933804,-5.0832279965 C -0.0090177498,-5.127056516 -0.2774532442,-5.1226456529 -0.5114670393,-5.0733425009 C -0.7459591764,-5.0246534773 -0.9451523738,-4.9313397023 -1.0714720647,-4.8135290909 C -1.1768269638,-4.7145313661 -1.2299732482,-4.6074819249 -1.2309109178,-4.4923807673" />
      <path d="M 0.0142800866,-4.2805029012 L 0.1213187636,-4.2896743583" />
      <path d="M 0.8677594146,-5.6599575765 C 0.6672880596,-5.7929056408 0.3942717012,-5.8827953369 0.1110664069,-5.9124432203 C -0.1719895834,-5.9430911175 -0.463696773,-5.9135170427 -0.6977056684,-5.8337456895" />
      <path d="M -0.3422197668,-4.6950871233 L -0.2371908127,-4.6859228088" />
      <path d="M 0.0142812324,-4.6859158155 L 0.1213158285,-4.6950868145" />
      <path d="M 0.8677594146,-6.0653702531 C 0.6724454279,-6.1948128153 0.4088521189,-6.2834443436 0.1334199296,-6.3153523901 C -0.1566704063,-6.3499556892 -0.4576664481,-6.3210465425 -0.6977062082,-6.2391582842" />
      <path d="M -1.230910955,-5.708618866 Q -1.2308477404,-5.6316755453 -1.1974839383,-5.5570512995" />
      <path d="M -1.1703553268,-5.5059125612 Q -1.1209529266,-5.4256942616 -1.0347860237,-5.3556794243" />
      <path d="M -0.2371932264,-5.0913356161 Q -0.1125970279,-5.0837554701 0.0142836586,-5.0913286985" />
      <path d="M 1.2278189838,-5.9113344012 C 1.2291056642,-6.1169005402 1.0965914539,-6.3210019124 0.8677594146,-6.470782737" />
      <path d="M 0.8677594146,-6.470782737 C 0.5441514029,-6.6885432702 0.0264373443,-6.7817225997 -0.4085145082,-6.7134130768 C -0.5113536434,-6.6979476761 -0.6077507628,-6.6750003697 -0.6977058664,-6.6445711576" />
      <path d="M -1.2309108911,-6.1140314162 Q -1.2308512339,-6.0371023784 -1.1974840707,-5.9624641241" />
      <path d="M -1.1703553722,-5.911325194 Q -1.1204673351,-5.8303249535 -1.0331426687,-5.759763272" />
      <path d="M 0.4010528091,-5.5570555034 Q 0.6142111799,-5.6122281183 0.7875748714,-5.7086188806" />
      <path d="M 1.0591278898,-6.8619737456 C 1.3383124443,-6.6829911314 1.5000482179,-6.4375643853 1.498456688,-6.1905127214" />
      <path d="M 1.4979144746,-6.1651744254 Q 1.4934602764,-6.0624218669 1.453944461,-5.9624682129" />
      <path d="M -0.2371916246,-5.2119501494 Q -0.4798760831,-5.2242252485 -0.6977080611,-5.2803658349" />
      <path d="M -1.1398196798,-5.4618032325 L -1.1807341096,-5.4881776127" />
      <path d="M -1.2145496646,-5.5119316545 C -1.400179799,-5.6470934776 -1.5022134696,-5.8171801383 -1.5015434377,-5.9878065068" />
      <path d="M -1.5015434377,-5.9878065068 C -1.5031352051,-6.201077077 -1.3413975437,-6.4127229233 -1.0622044859,-6.5579216714 C -0.7852626254,-6.7044379845 -0.3947909096,-6.7822093749 -0.0015436218,-6.7643854984 C 0.3917037342,-6.7484249386 0.7821739811,-6.636869205 1.0591157482,-6.4565686263 C 1.3383085351,-6.2775856227 1.5000483759,-6.0321553451 1.498456688,-5.7851002921" />
      <path d="M 1.498456688,-5.7851002921 L 1.4979144746,-5.7597620004" />
      <path d="M -1.5008158961,-5.5570554175 L -1.5015438676,-5.5823937102" />
      <path d="M -1.5015438676,-5.5823937102 C -1.5031356769,-5.7956644666 -1.3413972253,-6.007310708 -1.0622039441,-6.152509279 C -0.7852618016,-6.2990254487 -0.3947908003,-6.3767963759 -0.0015438609,-6.3589725393 C 0.3917030785,-6.3430119874 0.7821740799,-6.2314566717 1.0591162223,-6.0511561135 C 1.3383095036,-5.8721731542 1.5000479552,-5.6267425242 1.4984561459,-5.3796873794" />
      <path d="M 1.4984561459,-5.3796873794 L 1.4979139389,-5.3543490864" />
      <path d="M -1.5008164295,-5.1516429249 L -1.5015444097,-5.1769812161" />
      <path d="M -1.5015444097,-5.1769812161 C -1.5031360977,-5.3902518792 -1.3413962567,-5.601897767 -1.0622034697,-5.7470963807 C -0.7852617026,-5.8936125697 -0.3947914557,-5.9713839134 -0.0015440999,-5.9535600833 C 0.3917031879,-5.93759957 0.7821749037,-5.8260437897 1.0591167642,-5.6457430868 C 1.338309822,-5.466759949 1.5000474833,-5.2213297129 1.498455716,-4.9742747529" />
      <path d="M 1.498455716,-4.9742747529 L 1.4979135102,-4.948936459" />
      <path d="M -1.5015444097,-4.7715682898 C -1.5031361109,-4.9848419875 -1.3413909482,-5.1964905436 -1.0621924536,-5.3416896687 C -0.6480647511,-5.5648595868 0.0274038574,-5.6181593676 0.5724890146,-5.4559781853 C 0.84491211,-5.3775914303 1.0823932658,-5.2508512303 1.2456628893,-5.0946201402 C 1.4097944153,-4.9387261131 1.4989744446,-4.7539891605 1.4984561459,-4.5688621263" />
      <path d="M -1.5008158961,-4.3408175005 L -1.5015438676,-4.3661557955" />
      <path d="M -1.5015438676,-4.3661557955 C -1.5020621852,-4.525946135 -1.4128804593,-4.6853463751 -1.2487460623,-4.8159029073 C -1.085473596,-4.9467965175 -0.8479884631,-5.0481984278 -0.5755616077,-5.1012457491 C -0.0304687844,-5.2127482577 0.6450056488,-5.1087644778 1.0591278898,-4.8349102376 C 1.3383124443,-4.6559276234 1.5000482179,-4.4105008773 1.498456688,-4.1634492134" />
      <path d="M 1.498456688,-4.1634492134 L 1.4979144746,-4.1381109174" />
      <path d="M -1.5008154677,-3.935404705 L -1.5015434377,-3.9607429988" />
      <path d="M -1.5015434377,-3.9607429988 C -1.5031352051,-4.174013569 -1.3413975437,-4.3856594153 -1.0622044859,-4.5308581634 C -0.7852626254,-4.6773744765 -0.3947909096,-4.7551458669 -0.0015436218,-4.7373219904 C 0.3917037342,-4.7213614306 0.7821739811,-4.609805697 1.0591157482,-4.4295051183 C 1.3383085351,-4.2505221147 1.5000483759,-4.0050918371 1.498456688,-3.7580367841" />
      <path d="M 1.498456688,-3.7580367841 Q 1.4983695617,-3.6424220483 1.4539442581,-3.5299920438" />
      <path d="M 0.5194893102,-2.8563069556 Q 0.2749334341,-2.7923956453 0.0142837305,-2.7794807151" />
      <path d="M -0.2371931291,-2.779473789 Q -0.4798757882,-2.7917491735 -0.6977062957,-2.8478894483" />
      <path d="M -1.5008158961,-3.5299919095 L -1.5015438676,-3.5553302022" />
      <path d="M -1.5015438676,-3.5553302022 C -1.5031356769,-3.7686009586 -1.3413972253,-3.9802472 -1.0622039441,-4.125445771 C -0.7852618016,-4.2719619407 -0.3947908003,-4.3497328679 -0.0015438609,-4.3319090313 C 0.3917030785,-4.3159484794 0.7821740799,-4.2043931637 1.0591162223,-4.0240926055 C 1.3383095036,-3.8451096462 1.5000479552,-3.5996790162 1.4984561459,-3.3526238714" />
      <path d="M 1.4984561459,-3.3526238714 L 1.4979139389,-3.3272855784" />
      <path d="M -1.5015444097,-3.1499177081 C -1.5031360977,-3.3631883712 -1.3413962567,-3.574834259 -1.0622034697,-3.7200328727 C -0.7852617026,-3.8665490617 -0.3947914557,-3.9443204054 -0.0015440999,-3.9264965753 C 0.3917031879,-3.910536062 0.7821749037,-3.7989802817 1.0591167642,-3.6186795788 C 1.338309822,-3.439696441 1.5000474833,-3.1942662049 1.498455716,-2.9472112449" />
      <path d="M 1.4979135102,-2.921872951 Q 1.4934594061,-2.81912054 1.453944117,-2.7191670214" />
      <path d="M -0.237193465,-1.9686486368 Q -0.4798678115,-1.9809233704 -0.6976918385,-2.037060151" />
      <path d="M -1.5015444097,-2.7445047818 C -1.5031361109,-2.9577784795 -1.3413909482,-3.1694270356 -1.0621924536,-3.3146261607 C -0.6480647511,-3.5377960788 0.0274038574,-3.5910958596 0.5724890146,-3.4289146773 C 0.84491211,-3.3505279223 1.0823932658,-3.2237877223 1.2456628893,-3.0675566322 C 1.4097944153,-2.9116626051 1.4989744446,-2.7269256525 1.4984561459,-2.5417986183" />
      <path d="M 1.4984561459,-2.5417986183 Q 1.4983690367,-2.4261839227 1.453944258,-2.3137538581" />
      <path d="M 0.5194901089,-1.640068891 Q 0.2749320457,-1.5761575753 0.0142801364,-1.5632430033" />
      <path d="M -0.2371900291,-1.5632359811 Q -0.4798710534,-1.5755106709 -0.6977005876,-1.6316496751" />
      <path d="M -1.5008158961,-2.3137539925 L -1.5015438676,-2.3390922875" />
      <path d="M -1.5015438676,-2.3390922875 C -1.5020621852,-2.498882627 -1.4128804593,-2.6582828671 -1.2487460623,-2.7888393993 C -1.085473596,-2.9197330095 -0.8479884631,-3.0211349198 -0.5755616077,-3.0741822411 C -0.0304687844,-3.1856847497 0.6450056488,-3.0817009698 1.0591278898,-2.8078467296 C 1.3383124443,-2.6288641154 1.5000482179,-2.3834373693 1.498456688,-2.1363857054" />
      <path d="M 1.498456688,-2.1363857054 Q 1.4983695462,-2.0207711161 1.453944461,-1.9083411969" />
      <path d="M 0.5194884818,-1.2346556281 Q 0.27493168,-1.1707446465 0.0142808157,-1.157830066" />
      <path d="M -0.2371916733,-1.1578231358 Q -0.4798748339,-1.1700981706 -0.6977058361,-1.2262382446" />
      <path d="M -1.5008154677,-1.908341197 L -1.5015434377,-1.9336794908" />
      <path d="M -1.5015434377,-1.9336794908 C -1.5031352051,-2.146950061 -1.3413975437,-2.3585959073 -1.0622044859,-2.5037946554 C -0.7852626254,-2.6503109685 -0.3947909096,-2.7280823589 -0.0015436218,-2.7102584824 C 0.3917037342,-2.6942979226 0.7821739811,-2.582742189 1.0591157482,-2.4024416103 C 1.3383085351,-2.2234586067 1.5000483759,-1.9780283291 1.498456688,-1.7309732761" />
      <path d="M 1.498456688,-1.7309732761 Q 1.498402694,-1.6285072914 1.4633880437,-1.5282666711" />
      <path d="M 1.4539442581,-1.5029285358 Q 1.3860996662,-1.3328035915 1.2263351749,-1.1872248615" />
      <path d="M 1.2114553887,-1.173934673 Q 1.1608929747,-1.129564591 1.1027294494,-1.0888375772" />
      <path d="M 0.5194893291,-0.8292434526 Q 0.2749332262,-0.7653320816 0.0142832788,-0.7524171849" />
      <path d="M -1.5015438676,-1.5282666942 C -1.5031356769,-1.7415374506 -1.3413972253,-1.953183692 -1.0622039441,-2.098382263 C -0.7852618016,-2.2448984327 -0.3947908003,-2.3226693599 -0.0015438609,-2.3048455233 C 0.3917030785,-2.2888849714 0.7821740799,-2.1773296557 1.0591162223,-1.9970290975 C 1.3383095036,-1.8180461382 1.5000479552,-1.5726155082 1.4984561459,-1.3255603634" />
      <path d="M -1.1398121058,-0.5968465005 L -1.1807338426,-0.6232255128" />
      <path d="M -1.2145500638,-0.6469801574 C -1.400178881,-0.7821419 -1.5022146208,-0.9522280768 -1.5015444097,-1.1228542001" />
      <path d="M -1.5015444097,-1.1228542001 C -1.5031360977,-1.3361248632 -1.3413962567,-1.547770751 -1.0622034697,-1.6929693647 C -0.7852617026,-1.8394855537 -0.3947914557,-1.9172568974 -0.0015440999,-1.8994330673 C 0.3917031879,-1.883472554 0.7821749037,-1.7719167737 1.0591167642,-1.5916160708 C 1.338309822,-1.412632933 1.5000474833,-1.1672026969 1.498455716,-0.9201477369" />
      <path d="M 1.498455716,-0.9201477369 L 1.4979135102,-0.894809443" />
      <path d="M -1.5008164295,-0.6921029773 L -1.5015444097,-0.7174412738" />
      <path d="M -1.5015444097,-0.7174412738 C -1.5031361109,-0.9307149715 -1.3413909482,-1.1423635276 -1.0621924536,-1.2875626527 C -0.6480647511,-1.5107325708 0.0274038574,-1.5640323516 0.5724890146,-1.4018511693 C 0.84491211,-1.3234644143 1.0823932658,-1.1967242143 1.2456628893,-1.0404931242 C 1.4097944153,-0.8845990971 1.4989744446,-0.6998621445 1.4984561459,-0.5147351103" />
      <path d="M 1.4984561459,-0.5147351103 L 1.4979139389,-0.4893968157" />
      <path d="M -1.5014328163,-0.3219264124 C -1.4983737894,-0.480880878 -1.4065825089,-0.6388231362 -1.2410887441,-0.7678285702 C -1.0764343753,-0.8971687937 -0.8388085367,-0.9969445527 -0.5671194073,-1.0487552266 C -0.0234716921,-1.1576755061 0.6471283918,-1.0531480721 1.0591278898,-0.7807832216 C 1.252626439,-0.6560960522 1.3914802585,-0.4998055582 1.4558066788,-0.3326090588" />
      <path d="M -1.205688358,-0.3889026926 C -0.9633141205,-0.5641324925 -0.5806088197,-0.6758988316 -0.1741561969,-0.6848042277 C 0.2318706699,-0.6958609673 0.6549568968,-0.6036034494 0.9662191696,-0.4307858763" />
      <path d="M 1.0591278898,-6.8619737456 L 1.0591278898,-6.8112971579" />
      <path d="M 1.0591278898,-6.8112971579 C 1.3383124443,-6.6323145437 1.5000482179,-6.3868877976 1.498456688,-6.1398361337" />
      <path d="M 1.498456688,-6.1398361337 Q 1.4975143939,-5.9276741819 1.3532844568,-5.7344238265" />
      <path d="M 1.2205829595,-5.5908946843 Q 1.1766476624,-5.5515061359 1.126718881,-5.5148908819" />
      <path d="M 1.0759142907,-5.4793882131 Q 1.0029493357,-5.4308010123 0.9202255194,-5.388576192" />
      <path d="M -1.037456888,-5.354349049 Q -1.1258405165,-5.3985136307 -1.199418528,-5.4503889676" />
      <path d="M -1.2250978951,-5.4690726401 C -1.4041162043,-5.6029236638 -1.5021645431,-5.7697816776 -1.5015434377,-5.9371299191" />
      <path d="M -1.5015434377,-5.9371299191 C -1.5031352051,-6.1504004893 -1.3413975437,-6.3620463356 -1.0622044859,-6.5072450837 C -0.7852626254,-6.6537613968 -0.3947909096,-6.7315327872 -0.0015436218,-6.7137089107 C 0.3917037342,-6.6977483509 0.7821739811,-6.5861926173 1.0591157482,-6.4058920386 C 1.3383085351,-6.226909035 1.5000483759,-5.9814787574 1.498456688,-5.7344237044" />
      <path d="M 1.498456688,-5.7344237044 Q 1.49751434,-5.522261681 1.3532841093,-5.3290113408" />
      <path d="M 1.2205830319,-5.1854822412 L 1.1811086299,-5.1516429201" />
      <path d="M -1.0347860049,-4.9476064141 Q -1.1247220253,-4.9923131892 -1.1994183334,-5.0449764558" />
      <path d="M -1.225097437,-5.0636598814 Q -1.2654397328,-5.093958915 -1.300332414,-5.1263041457" />
      <path d="M -1.3265169272,-5.1516423993 Q -1.5001675534,-5.329130654 -1.5015438676,-5.5317171225" />
      <path d="M -1.5015438676,-5.5317171225 C -1.5031356769,-5.7449878789 -1.3413972253,-5.9566341203 -1.0622039441,-6.1018326913 C -0.7852618016,-6.248348861 -0.3947908003,-6.3261197882 -0.0015438609,-6.3082959516 C 0.3917030785,-6.2923353997 0.7821740799,-6.180780084 1.0591162223,-6.0004795258 C 1.3383095036,-5.8214965665 1.5000479552,-5.5760659365 1.4984561459,-5.3290107917" />
      <path d="M 1.4984561459,-5.3290107917 Q 1.4984021579,-5.226544687 1.4633878405,-5.1263040034" />
      <path d="M -1.4654015357,-4.9489364591 Q -1.501487047,-5.0364562462 -1.5015444097,-5.1263046284" />
      <path d="M -1.5015444097,-5.1263046284 C -1.5031360977,-5.3395752915 -1.3413962567,-5.5512211793 -1.0622034697,-5.696419793 C -0.7852617026,-5.842935982 -0.3947914557,-5.9207073257 -0.0015440999,-5.9028834956 C 0.3917031879,-5.8869229823 0.7821749037,-5.775367202 1.0591167642,-5.5950664991 C 1.338309822,-5.4160833613 1.5000474833,-5.1706531252 1.498455716,-4.9235981652" />
      <path d="M 1.498455716,-4.9235981652 Q 1.4984242745,-4.8341723828 1.4716749,-4.7462307318" />
      <path d="M 1.4633878405,-4.720892327 Q 1.426581865,-4.6158793479 1.3532841093,-4.5181849895" />
      <path d="M 1.2205830863,-4.3746560966 L 1.149156147,-4.3154788174" />
      <path d="M -1.0347858003,-4.1367808512 Q -1.1247218594,-4.1814877316 -1.1994182698,-4.2341511736" />
      <path d="M -1.225102938,-4.252838811 C -1.4041178802,-4.386689001 -1.5021654885,-4.5535452565 -1.5015444097,-4.7208917021" />
      <path d="M -1.5015444097,-4.7208917021 C -1.5031361109,-4.9341653998 -1.3413909482,-5.1458139559 -1.0621924536,-5.291013081 C -0.6480647511,-5.5141829991 0.0274038574,-5.5674827799 0.5724890146,-5.4053015976 C 0.84491211,-5.3269148426 1.0823932658,-5.2001746426 1.2456628893,-5.0439435525 C 1.4097944153,-4.8880495254 1.4989744446,-4.7033125728 1.4984561459,-4.5181855386" />
      <path d="M 1.4984561459,-4.5181855386 Q 1.4984021614,-4.4157197488 1.4633880437,-4.3154792308" />
      <path d="M -1.4541379672,-4.1127724268 Q -1.5014450164,-4.2123753056 -1.5015438676,-4.3154792078" />
      <path d="M -1.5015438676,-4.3154792078 C -1.5020621852,-4.4752695473 -1.4128804593,-4.6346697874 -1.2487460623,-4.7652263196 C -1.085473596,-4.8961199298 -0.8479884631,-4.9975218401 -0.5755616077,-5.0505691614 C -0.0304687844,-5.16207167 0.6450056488,-5.0580878901 1.0591278898,-4.7842336499 C 1.3383124443,-4.6052510357 1.5000482179,-4.3598242896 1.498456688,-4.1127726257" />
      <path d="M 1.498456688,-4.1127726257 Q 1.4984026814,-4.0103068638 1.4633882623,-3.9100664111" />
      <path d="M -1.4541379672,-3.7073603955 Q -1.50144459,-3.8069628842 -1.5015434377,-3.9100664111" />
      <path d="M -1.5015434377,-3.9100664111 C -1.5031352051,-4.1233369813 -1.3413975437,-4.3349828276 -1.0622044859,-4.4801815757 C -0.7852626254,-4.6266978888 -0.3947909096,-4.7044692792 -0.0015436218,-4.6866454027 C 0.3917037342,-4.6706848429 0.7821739811,-4.5591291093 1.0591157482,-4.3788285306 C 1.3383085351,-4.199845527 1.5000483759,-3.9544152494 1.498456688,-3.7073601964" />
      <path d="M 1.498456688,-3.7073601964 Q 1.498402694,-3.6048942117 1.4633880437,-3.5046535914" />
      <path d="M -1.4654016062,-3.3272859196 Q -1.5014865123,-3.414805453 -1.5015438676,-3.5046536145" />
      <path d="M -1.5015438676,-3.5046536145 C -1.5031356769,-3.7179243709 -1.3413972253,-3.9295706123 -1.0622039441,-4.0747691833 C -0.7852618016,-4.221285353 -0.3947908003,-4.2990562802 -0.0015438609,-4.2812324436 C 0.3917030785,-4.2652718917 0.7821740799,-4.153716576 1.0591162223,-3.9734160178 C 1.3383095036,-3.7944330585 1.5000479552,-3.5490024285 1.4984561459,-3.3019472837" />
      <path d="M 1.4984561459,-3.3019472837 Q 1.4984247012,-3.2125208672 1.4716749,-3.1245786782" />
      <path d="M -1.454138063,-2.8965346572 Q -1.5014455391,-2.9961373315 -1.5015444097,-3.0992411204" />
      <path d="M -1.5015444097,-3.0992411204 C -1.5031360977,-3.3125117835 -1.3413962567,-3.5241576713 -1.0622034697,-3.669356285 C -0.7852617026,-3.815872474 -0.3947914557,-3.8936438177 -0.0015440999,-3.8758199876 C 0.3917031879,-3.8598594743 0.7821749037,-3.748303694 1.0591167642,-3.5680029911 C 1.338309822,-3.3890198533 1.5000474833,-3.1435896172 1.498455716,-2.8965346572" />
      <path d="M 1.498455716,-2.8965346572 C 1.4990506701,-2.7047718555 1.403190612,-2.5134732665 1.2278232004,-2.3541406276" />
      <path d="M 1.220583091,-2.3475925928 Q 1.1766479401,-2.308204144 1.1267192673,-2.2715889746" />
      <path d="M 1.0759145725,-2.2360862515 Q 1.002951291,-2.1875002085 0.920229488,-2.1452762392" />
      <path d="M -1.4541382224,-2.4911218052 Q -1.5014455227,-2.5907244715 -1.5015444097,-2.6938281941" />
      <path d="M -1.5015444097,-2.6938281941 C -1.5031361109,-2.9071018918 -1.3413909482,-3.1187504479 -1.0621924536,-3.263949573 C -0.6480647511,-3.4871194911 0.0274038574,-3.5404192719 0.5724890146,-3.3782380896 C 0.84491211,-3.2998513346 1.0823932658,-3.1731111346 1.2456628893,-3.0168800445 C 1.4097944153,-2.8609860174 1.4989744446,-2.6762490648 1.4984561459,-2.4911220306" />
      <path d="M 1.4984561459,-2.4911220306 C 1.49905112,-2.2993592192 1.4031907406,-2.1080604458 1.2278232004,-1.9487278591" />
      <path d="M 1.2205830717,-1.942179813 L 1.1811092842,-1.908341197" />
      <path d="M 1.1491565507,-1.8830029032 L 1.1267192129,-1.8661762302" />
      <path d="M 1.0759132792,-1.8306727072 Q 1.0029419382,-1.7820814461 0.9202101092,-1.7398537124" />
      <path d="M -1.4541379672,-2.0857089188 Q -1.5014450164,-2.1853117976 -1.5015438676,-2.2884156998" />
      <path d="M -1.5015438676,-2.2884156998 C -1.5020621852,-2.4482060393 -1.4128804593,-2.6076062794 -1.2487460623,-2.7381628116 C -1.085473596,-2.8690564218 -0.8479884631,-2.9704583321 -0.5755616077,-3.0235056534 C -0.0304687844,-3.135008162 0.6450056488,-3.0310243821 1.0591278898,-2.7571701419 C 1.3383124443,-2.5781875277 1.5000482179,-2.3327607816 1.498456688,-2.0857091177" />
      <path d="M 1.498456688,-2.0857091177 Q 1.4984026814,-1.9832433558 1.4633882623,-1.8830029031" />
      <path d="M -1.4654012932,-1.705635255 Q -1.5014860866,-1.7931548116 -1.5015434377,-1.8830029031" />
      <path d="M -1.5015434377,-1.8830029031 C -1.5031352051,-2.0962734733 -1.3413975437,-2.3079193196 -1.0622044859,-2.4531180677 C -0.7852626254,-2.5996343808 -0.3947909096,-2.6774057712 -0.0015436218,-2.6595818947 C 0.3917037342,-2.6436213349 0.7821739811,-2.5320656013 1.0591157482,-2.3517650226 C 1.3383085351,-2.172782019 1.5000483759,-1.9273517414 1.498456688,-1.6802966884" />
      <path d="M 1.498456688,-1.6802966884 Q 1.498425241,-1.5908703451 1.4716751611,-1.5029281887" />
      <path d="M -1.4541382224,-1.2748840012 Q -1.501445013,-1.3744864712 -1.5015438676,-1.4775901065" />
      <path d="M -1.5015438676,-1.4775901065 C -1.5031356769,-1.6908608629 -1.3413972253,-1.9025071043 -1.0622039441,-2.0477056753 C -0.7852618016,-2.194221845 -0.3947908003,-2.2719927722 -0.0015438609,-2.2541689356 C 0.3917030785,-2.2382083837 0.7821740799,-2.126653068 1.0591162223,-1.9463525098 C 1.3383095036,-1.7673695505 1.5000479552,-1.5219389205 1.4984561459,-1.2748837757" />
      <path d="M 1.4984561459,-1.2748837757 Q 1.4984021579,-1.172417671 1.4633878405,-1.0721769874" />
      <path d="M -1.4654015357,-0.8948094431 Q -1.501487047,-0.9823292302 -1.5015444097,-1.0721776124" />
      <path d="M -1.5015444097,-1.0721776124 C -1.5031360977,-1.2854482755 -1.3413962567,-1.4970941633 -1.0622034697,-1.642292777 C -0.7852617026,-1.788808966 -0.3947914557,-1.8665803097 -0.0015440999,-1.8487564796 C 0.3917031879,-1.8327959663 0.7821749037,-1.721240186 1.0591167642,-1.5409394831 C 1.338309822,-1.3619563453 1.5000474833,-1.1165261092 1.498455716,-0.8694711492" />
      <path d="M 1.498455716,-0.8694711492 Q 1.4984017329,-0.7670055798 1.4633878405,-0.666765311" />
      <path d="M -1.4654016061,-0.4893964745 Q -1.5014870335,-0.5769163037 -1.5015444097,-0.6667646861" />
      <path d="M -1.5015444097,-0.6667646861 C -1.5031361109,-0.8800383838 -1.3413909482,-1.0916869399 -1.0621924536,-1.236886065 C -0.6480647511,-1.4600559831 0.0274038574,-1.5133557639 0.5724890146,-1.3511745816 C 0.84491211,-1.2727878266 1.0823932658,-1.1460476266 1.2456628893,-0.9898165365 C 1.4097944153,-0.8339225094 1.4989744446,-0.6491855568 1.4984561459,-0.4640585226" />
      <path d="M 1.4984561459,-0.4640585226 Q 1.4984446994,-0.3946826994 1.4822835005,-0.3260027396" />
      <path d="M -1.4972292163,-0.322998298 C -1.4760709462,-0.4771746724 -1.3713504414,-0.6273009525 -1.1993356687,-0.7481511391 C -1.0280487934,-0.86932247 -0.7901489993,-0.9606888837 -0.5225929758,-1.00615226 C 0.0129261401,-1.1018326583 0.6582387647,-0.9947002662 1.0591278898,-0.7301066339 C 1.2304461299,-0.6196217604 1.3592156677,-0.4844415778 1.4308403413,-0.3387103344" />
      <path d="M -1.0911060456,-0.4104478162 C -0.8523693729,-0.5439966837 -0.5225234525,-0.6258585013 -0.1763728565,-0.634072364 C 0.1695454066,-0.6434451405 0.5287334749,-0.5789615839 0.8197333602,-0.4518497648" />
      <path d="M 0.8677594146,-6.1676562439 C 0.6678046438,-6.3002574251 0.3956725507,-6.3900411197 0.1132359838,-6.4199096293 C -0.169047307,-6.4507709463 -0.4601182069,-6.4217261382 -0.6940292376,-6.3426831329 C -0.8924880795,-6.2763585743 -1.0495932958,-6.1752155898 -1.1398079492,-6.0577277699" />
      <path d="M -1.2271567165,-5.7597642084 Q -1.2156681301,-5.6820086984 -1.1703539728,-5.6082007043" />
      <path d="M -1.1342954366,-5.5570590469 Q -1.068207674,-5.4743602734 -0.9623502108,-5.4054934157" />
      <path d="M 0.7875745712,-5.405492117 Q 0.9089162789,-5.4732733467 1.0006808721,-5.5570554165" />
      <path d="M 1.0711739803,-6.3980155571 Q 0.9879046282,-6.4937969725 0.8677594146,-6.5730688488" />
      <path d="M 0.8677594146,-5.7622433255 C 0.4955058798,-6.0149662877 -0.1353868625,-6.0944387061 -0.5987740194,-5.9657923348 C -0.8415409899,-5.9018268391 -1.035745453,-5.7882040611 -1.1398202412,-5.6523069692" />
      <path d="M 0.9202303204,-6.1309453813 L 0.8677594146,-6.1676562439" />
      <path d="M 0.8677594146,-5.3568306489 C 0.5082961858,-5.6002792976 -0.092110062,-5.6843078109 -0.5503660283,-5.5724391672 C -0.7421114739,-5.527852512 -0.9079813573,-5.4532676135 -1.0261048296,-5.3599559126" />
      <path d="M 1.0711721783,-5.5871918759 Q 0.9879574535,-5.6829263105 0.8677594146,-5.7622433255" />
      <path d="M 0.8677594146,-4.951418165 C 0.6609034103,-5.0886143888 0.3774171335,-5.1796469164 0.0846135699,-5.206552396 C -0.2862888167,-5.2426048767 -0.6652785875,-5.17280504 -0.9131689103,-5.0299555162 C -1.0096645981,-4.9748482708 -1.0852151685,-4.9120235689 -1.1398206215,-4.8414814106" />
      <path d="M -0.873861576,-4.1381073474 C -0.7273334173,-4.0624706663 -0.5424444305,-4.00926978 -0.3422099208,-3.9865466281" />
      <path d="M 0.9202312491,-5.3201190824 L 0.8677594146,-5.3568306489" />
      <path d="M 0.8677594146,-4.5460053408 C 0.5343588845,-4.7707313369 -0.0054795173,-4.8619223685 -0.4479891857,-4.7822925206 C -0.6824914283,-4.7423180217 -0.8875834604,-4.6587667638 -1.0261066574,-4.5491298553" />
      <path d="M 1.0711729185,-4.7763657211 Q 0.9879369847,-4.8721184511 0.8677594146,-4.951418165" />
      <path d="M 0.8677594146,-4.1405927359 C 0.6557132288,-4.2812966605 0.3629064541,-4.3733390494 0.0623983606,-4.3976906448 C -0.3727572782,-4.4361322757 -0.8111664621,-4.3261187891 -1.0406432828,-4.1319825484 C -1.1644133627,-4.0299435943 -1.2312997037,-3.9069374498 -1.2309108995,-3.7838414926" />
      <path d="M 0.121318875,-3.1757221925 C 0.3228405343,-3.1980714012 0.5189781277,-3.2502337459 0.6866134758,-3.3272856119" />
      <path d="M 1.0711740049,-4.3709520328 Q 0.9879299212,-4.4667119932 0.8677594146,-4.5460053408" />
      <path d="M 0.8677594146,-3.7351798175 C 0.608283223,-3.9082100252 0.2258215299,-4.0057381577 -0.1408462962,-3.9993023572 C -0.4966896241,-3.9954453228 -0.8298990879,-3.8947994177 -1.0261043886,-3.7383051716" />
      <path d="M 0.1213197049,-2.7703094246 C 0.3227452496,-2.7926496295 0.5188618027,-2.8447730766 0.6866132149,-2.9218729429" />
      <path d="M 0.7875747573,-2.9730160696 Q 0.9089995479,-3.0408551245 1.0006810058,-3.1245793427" />
      <path d="M 1.2278233714,-3.5811338119 C 1.2291504243,-3.7866184445 1.0965714411,-3.9908591934 0.8677594146,-4.1405927359" />
      <path d="M 0.8677594146,-3.3297671409 C 0.5276604253,-3.5592912907 -0.0276138672,-3.6489148598 -0.4748514031,-3.561232459 C -0.698163669,-3.5196795654 -0.8928582058,-3.4383017321 -1.0261079056,-3.3328909022" />
      <path d="M -1.2271579242,-2.9218787731 Q -1.2170777641,-2.853553888 -1.180731147,-2.7880461461" />
      <path d="M 0.1213205034,-2.3648968091 C 0.3227121532,-2.3872227964 0.518968438,-2.4393974149 0.6866134478,-2.5164602833" />
      <path d="M 0.7875741439,-2.5676036573 Q 0.9089224953,-2.6353963143 1.0006805042,-2.719167008" />
      <path d="M 1.0523096997,-2.7703090973 Q 1.1195423767,-2.8426927322 1.1618083425,-2.9218789311" />
      <path d="M 1.2205803244,-3.0907427563 L 1.2252048714,-3.1245782739" />
      <path d="M 0.9202189541,-3.6984750396 L 0.8677594146,-3.7351798175" />
      <path d="M 0.8677594146,-2.924354657 C 0.6036443696,-3.1005618112 0.2121676119,-3.1981958221 -0.1602705673,-3.1881154099 C -0.5089306326,-3.1810314133 -0.8334911735,-3.0810232577 -1.0261096531,-2.9274771293" />
      <path d="M -1.2271507288,-2.5164697235 Q -1.2170711551,-2.4481166694 -1.180736004,-2.3826305189" />
      <path d="M 0.7875750745,-2.1621904062 Q 0.9089070848,-2.2299642067 1.0006808418,-2.3137540149" />
      <path d="M 1.0523083533,-2.364897374 Q 1.1195511381,-2.4372949176 1.1618114649,-2.5164602482" />
      <path d="M 1.1861051632,-2.5675986282 Q 1.2172946037,-2.6422668979 1.2252053882,-2.7191666073" />
      <path d="M 1.2278232192,-2.7703097608 Q 1.2264867271,-2.974239117 1.0711733274,-3.154714418" />
      <path d="M 0.9202312316,-3.2930555833 L 0.8677594146,-3.3297671409" />
      <path d="M 0.8677594146,-2.5189418328 C 0.555970357,-2.728362283 0.0643196275,-2.8234630769 -0.3604531072,-2.7681403208 C -0.6309970887,-2.7350779604 -0.8705788808,-2.6453512965 -1.0260865617,-2.5220761631" />
      <path d="M -1.227155963,-2.1110337362 Q -1.2199957936,-2.0624245483 -1.199413978,-2.0150110295" />
      <path d="M -0.8738678159,-1.705635383 C -0.7273101382,-1.6299754685 -0.5424728777,-1.5768203956 -0.3421996207,-1.5540737155" />
      <path d="M 1.0759151685,-1.9860084283 Q 1.1272965664,-2.0463520943 1.1618116751,-2.1110473562" />
      <path d="M 1.1861055164,-2.1621945016 Q 1.2172879288,-2.2368619833 1.225201868,-2.3137883177" />
      <path d="M 1.2278203117,-2.3648925192 C 1.2291192776,-2.5704334913 1.096579928,-2.7746115184 0.8677594146,-2.924354657" />
      <path d="M 0.8677594146,-2.1135292279 C 0.5742434783,-2.310125457 0.1220750077,-2.4071298803 -0.2844447921,-2.3706304008 C -0.5852738423,-2.3458741668 -0.856441247,-2.2514550383 -1.0261064553,-2.1166537581" />
      <path d="M -0.8738689054,-1.3002219951 C -0.7272789791,-1.2245537163 -0.5423469839,-1.171366075 -0.342219718,-1.1486587964" />
      <path d="M 0.1213188332,-1.1486586683 C 0.3228242405,-1.1710112574 0.5188836369,-1.223135118 0.6866134908,-1.3002220971" />
      <path d="M 0.7875745384,-1.3513651095 Q 0.9089522001,-1.419172158 1.0006807863,-1.5029282837" />
      <path d="M 1.2278231963,-1.9594840055 C 1.2291876733,-2.1649008094 1.0965309416,-2.3692617286 0.8677594146,-2.5189418328" />
      <path d="M 0.8677594146,-1.7081163095 C 0.6715164914,-1.838182948 0.4063264046,-1.9270255475 0.1294792386,-1.9585579949 C -0.1294977528,-1.9888201266 -0.3971361139,-1.9689486647 -0.6217449212,-1.9053901924 C -0.8469647368,-1.8424428595 -1.0282976765,-1.7361380704 -1.1307467398,-1.6096175718 C -1.1337712816,-1.6058050068 -1.1367958233,-1.6019924419 -1.139820365,-1.5981798769" />
      <path d="M -1.2271570626,-1.3002220425 Q -1.2199970782,-1.2515944269 -1.1994182868,-1.2041819356" />
      <path d="M -1.1807338754,-1.166393351 L -1.1703552778,-1.1486587034" />
      <path d="M -1.1342981999,-1.0975156475 Q -1.0682234664,-1.0148341806 -0.9623493657,-0.9459514103" />
      <path d="M -0.8738687437,-0.8948094785 C -0.7271696174,-0.8190972516 -0.5423531445,-0.7659600953 -0.342214657,-0.7432466006" />
      <path d="M 0.121317321,-0.7432456698 C 0.3227636151,-0.7655826039 0.5189709217,-0.8177496197 0.6866127947,-0.8948092232" />
      <path d="M 0.7875748109,-0.9459525002 Q 0.9089132876,-1.0137309206 1.0006809396,-1.0975159863" />
      <path d="M 1.0759141741,-1.1751832191 Q 1.1272710091,-1.2354953932 1.1618115699,-1.3002224268" />
      <path d="M 1.211455931,-1.4265098908 Q 1.22126669,-1.4645184702 1.2252040931,-1.5029154993" />
      <path d="M 0.9202302488,-2.0768184018 L 0.8677594146,-2.1135292279" />
      <path d="M 0.8677594146,-1.3027036329 C 0.4997078654,-1.5523796025 -0.1211502876,-1.6334232488 -0.5830573411,-1.5103379643 C -0.8330171492,-1.4471581706 -1.0335332672,-1.3316219501 -1.1398169776,-1.1927693848" />
      <path d="M -1.2271570088,-0.894807391 Q -1.2156718352,-0.8170625919 -1.1703542828,-0.7432437515" />
      <path d="M -1.1342982174,-0.6921032143 Q -1.0682009484,-0.6094088149 -0.9623509174,-0.5405399052" />
      <path d="M 1.0759144674,-0.7697705418 Q 1.1272745983,-0.8300880913 1.1618115063,-0.8948094877" />
      <path d="M 1.1861071888,-0.9459524733 Q 1.2172967581,-1.0206253232 1.2252053784,-1.0975155101" />
      <path d="M 1.2278231923,-1.1486588212 C 1.2291732153,-1.3540985576 1.0965505768,-1.5584120507 0.8677594146,-1.7081163095" />
      <path d="M 0.8677594146,-0.897291149 C 0.5028895159,-1.1446542148 -0.1103530958,-1.2268455389 -0.5710230217,-1.1079421594 C -0.8265355299,-1.045427379 -1.0318298541,-0.9284445808 -1.1398204075,-0.7873545264" />
      <path d="M 1.2278231977,-0.7432462707 C 1.2291683324,-0.9486800567 1.0965740916,-1.1529793296 0.8677594146,-1.3027036329" />
      <path d="M 0.8677594146,-0.4918783248 C 0.6399829877,-0.6432042888 0.3187746373,-0.73775794 -0.0046280026,-0.7534671765 C -0.4087283328,-0.7758037816 -0.8053588552,-0.6719661285 -1.0261067798,-0.4950027795" />
      <path d="M 1.0711729074,-0.7222387124 Q 0.9879073605,-0.8180165241 0.8677594146,-0.897291149" />
      <path d="M 0.9202308212,-0.4551670038 L 0.8677594146,-0.4918783248" />
      <path d="M 0.8677594307,-6.5730688333 L 1.0591279693,-6.8112971336" />
      <path d="M 2.1638319429,1.0710165272 A 3.062270399556512,1.792310438294716 0.0 0,1 2.5945401465,3.2889504579" />
      <path d="M -2.5976278682,3.2889504579 A 3.062270399556512,1.792310438294716 0.0 0,1 2.1638319429,1.0710165272" />
      <line x1="0.8677594146" y1="-0.4918783248" x2="0.8677594146" y2="-0.4808451555" />
      <line x1="0.8677594146" y1="-0.897291149" x2="0.8677594146" y2="-0.7950050373" />
      <line x1="0.8677594146" y1="-1.3027036329" x2="0.8677594146" y2="-1.2004176422" />
      <line x1="0.8677594146" y1="-1.7081163095" x2="0.8677594146" y2="-1.6058305605" />
      <line x1="0.8677594146" y1="-2.1135292279" x2="0.8677594146" y2="-2.1024961891" />
      <line x1="0.8677594146" y1="-2.5189418328" x2="0.8677594146" y2="-2.416655721" />
      <line x1="0.8677594146" y1="-2.924354657" x2="0.8677594146" y2="-2.8220685453" />
      <line x1="0.8677594146" y1="-3.3297671409" x2="0.8677594146" y2="-3.3187339126" />
      <line x1="0.8677594146" y1="-3.2680573249" x2="0.8677594146" y2="-3.2274811502" />
      <line x1="0.8677594146" y1="-3.7351798175" x2="0.8677594146" y2="-3.7241470747" />
      <line x1="0.8677594146" y1="-4.1405927359" x2="0.8677594146" y2="-4.0788831094" />
      <line x1="0.8677594146" y1="-4.5460053408" x2="0.8677594146" y2="-4.4842955838" />
      <line x1="0.8677594146" y1="-4.951418165" x2="0.8677594146" y2="-4.8897079919" />
      <line x1="0.8677594146" y1="-5.3568306489" x2="0.8677594146" y2="-5.3457974206" />
      <line x1="0.8677594146" y1="-5.7622433255" x2="0.8677594146" y2="-5.7512105827" />
      <line x1="0.8677594146" y1="-6.1676562439" x2="0.8677594146" y2="-6.1566232051" />
      <line x1="0.8677594146" y1="-6.1059466174" x2="0.8677594146" y2="-6.0653702531" />
      <line x1="0.8677594146" y1="-6.5730688428" x2="0.8677594146" y2="-6.470782737" />
      <path d="M 1.2250014638,-6.369833759 A 1.2293670613173628,0.7195339173228837 0.0 0,1 1.2091158995,-6.2935100031" />
      <path d="M 0.977258457,-5.9831994585 A 1.2293670613173628,0.7195339173228837 0.0 0,1 0.7310863677,-5.8407507528" />
      <path d="M 0.6073773286,-5.7934870894 A 1.2293670613173628,0.7195339173228837 0.0 0,1 -0.7086957869,-5.8299770633" />
      <path d="M -1.1038044628,-6.0999294065 A 1.2293670613173628,0.7195339173228837 0.0 0,1 -1.2003366188,-6.2590839987" />
      <path d="M -1.2309109222,-6.4185567979 A 1.2293670613173628,0.7195339173228837 0.0 0,1 0.8253351053,-6.951012835" />
      <path d="M -0.7931068674,-6.8368626185 C -0.789227497,-6.8377915276 -0.7832400382,-6.8393154375 -0.775144491,-6.8414343482 C -0.7630090589,-6.8445037849 -0.7527405072,-6.8476975618 -0.7040255192,-6.8598630568 C -0.6607083567,-6.8707964666 -0.5764497161,-6.8887122972 -0.4945571194,-6.8984312239 C -0.4086856163,-6.9091387883 -0.3192819244,-6.9139700178 -0.2263460438,-6.9129249123 C 0.1646671138,-6.9099385987 0.5880448676,-6.7862214849 0.8677594146,-6.5730688455" />
      <path d="M -0.7931068674,-6.8368626185 L -0.7931068674,-6.8875392062" />
      <path d="M -0.7931068674,-6.8875392062 C -0.7851655529,-6.8921824272 -0.7782372039,-6.8967182166 -0.7505303749,-6.9107988183 C -0.7396540468,-6.9168140132 -0.7143465997,-6.9282859498 -0.6746080336,-6.945214628 C -0.6272655766,-6.964891022 -0.5598531906,-6.9885402886 -0.4927937932,-7.0066392473 C -0.2377894389,-7.0767296632 0.0587356357,-7.0928630719 0.3283320164,-7.0521357784" />
      <path d="M 1.0591279693,-6.8619737213 C 0.8794759115,-6.9442684 0.6717212573,-7.0029870236 0.4558721426,-7.0335708812" />
      <path d="M 0.4558721426,-7.0335708812 C 0.0124067216,-7.0979622592 -0.4574325236,-7.0377764196 -0.7931068674,-6.8875392062" />
      <path d="M 1.0591279693,-6.8112971336 C 0.7624544214,-6.9479258309 0.3879514401,-7.0172801722 0.0293548559,-7.0076476198 C -0.273935964,-7.0004383907 -0.5636593062,-6.9386410187 -0.7931068674,-6.8368626185" />
      <path d="M 1.0590225906,2.8439597888 A 3.75885815485107,0.7663471832024589 -141.279837651279 0,1 0.9859279696,2.8015930972" />
      <path d="M 1.0011962347,2.9276155614 A 3.410292683634123,2.6913231846371657 -94.38842052421653 0,0 1.0590225906,2.8439597888" />
      <path d="M 1.0011962347,2.9276155614 C 0.8722355782,3.1061217123 0.7938409003,3.2728937633 0.7663693426,3.3939882869 C 0.733616629,3.5432660334 0.742066674,3.6561758218 0.8232964246,3.7673706646" />
      <path d="M 0.8232964246,3.7673706646 Q 0.8850557358,3.8473573549 1.0011782448,3.8921251941" />
      <path d="M 1.059002649,3.9131011905 A 3.410292683634125,0.6952824725844208 -141.279837651279 0,1 1.0011782448,3.8921251941" />
      <path d="M 0.9117908203,3.9992606416 A 3.7588581548510698,2.9664028980447767 -94.38842052421653 0,0 1.059002649,3.9131011905" />
      <path d="M 0.8224066099,3.9967558209 A 3.410292683634122,2.6912862139270324 94.38905296568551 0,0 0.9117908203,3.9992606416" />
      <path d="M 0.8224066099,3.9967558209 C 0.6591971722,3.9885872756 0.4735497259,3.9807480685 0.3097568055,3.9771689313 C 0.2005591076,3.9747152568 0.0966678311,3.973516279 -0.0019170241,3.973571998 C -0.1000541158,3.9735211326 -0.2034518086,3.9747130667 -0.3121101024,3.9771478004 C -0.476093018,3.9807195412 -0.6620536762,3.9885655809 -0.8255162248,3.9967452916" />
      <path d="M -0.9149016977,3.99924897 A 3.410292683634123,2.6913231846371657 -94.38842052421653 0,0 -0.8255162248,3.9967452916" />
      <path d="M -1.0621103123,3.9130876378 A 3.7588581548510693,2.9663621485642584 94.38905296568551 0,0 -0.9149016977,3.99924897" />
      <path d="M -1.0042839565,3.8921123803 A 3.410292683634123,0.695319443294552 141.2807346390224 0,1 -1.0621103123,3.9130876378" />
      <path d="M -1.0042839565,3.8921123803 Q -0.8881501291,3.8473428968 -0.8263865475,3.7673503879" />
      <path d="M -0.8263865475,3.7673503879 C -0.7452357695,3.6562907694 -0.7367446265,3.5434810574 -0.7693330661,3.3944775831 C -0.796722147,3.273320065 -0.8751272724,3.1063595907 -1.0042659665,2.9276027476" />
      <path d="M -1.0620903708,2.8439462361 A 3.410292683634122,2.6912862139270324 94.38905296568551 0,0 -1.0042659665,2.9276027476" />
      <path d="M -0.914878542,2.757786785 A 3.7588581548510698,0.7663879326829757 141.2807346390224 0,1 -1.0620903708,2.8439462361" />
      <path d="M -0.8254943317,2.8229721208 A 3.410292683634125,0.6952824725844208 -141.279837651279 0,1 -0.914878542,2.757786785" />
      <path d="M -0.8254943317,2.8229721208 C -0.662284894,2.942249642 -0.4766374477,3.021882591 -0.3128445273,3.0593235569 C -0.2036468294,3.0841562435 -0.0997555528,3.0961906198 -0.0011706977,3.0954266858 C 0.0969663941,3.0961290506 0.2003640868,3.08415469 0.3090223807,3.0595036042 C 0.4730052963,3.0221223792 0.6589659545,2.9424449146 0.822428503,2.8229826501" />
      <path d="M 0.9118139759,2.7577984565 A 3.410292683634123,0.695319443294552 141.2807346390224 0,1 0.822428503,2.8229826501" />
      <path d="M 0.9859279696,2.8015930972 A 3.75885815485107,0.7663471832024589 -141.279837651279 0,1 0.9118139759,2.7577984565" />
      <path d="M 0.5726801426,3.4474297534 Q 0.4305031909,3.2618886019 0.311547821,3.0589101871" />
      <line x1="0.9117908203" y1="3.9992606416" x2="0.9117918699" y2="3.8475080888" />
      <path d="M -0.5757577108,3.447393448 Q -0.433589119,3.2618638986 -0.3146394212,3.058901229" />
      <line x1="-0.9149016977" y1="3.99924897" x2="-0.9149006481" y2="3.8475005835" />
      <line x1="1.0011962347" y1="2.9276155614" x2="0.9421710915" y2="2.7758364739" />
      <line x1="0.8224066099" y1="3.9967558209" x2="0.8871915816" y2="3.8301701965" />
      <line x1="-0.8255162248" y1="3.9967452916" x2="-0.8902981926" y2="3.8301629265" />
      <line x1="-1.0042659665" y1="2.9276027476" x2="-0.9452405" y2="2.7758268969" />
      <line x1="3.7484561391" y1="1.6896972341" x2="3.7484561391" y2="2.3383575566" />
      <line x1="-3.7515438609" y1="1.6896972341" x2="-3.7515438609" y2="2.3383575566" />
      <path d="M 1.498456688,-6.1398361337 L 1.498456688,-6.1905127214" />
      <path d="M -1.5015434377,-5.9371299191 L -1.5015434377,-5.9878065068" />
      <path d="M 1.498456688,-5.7344237044 L 1.498456688,-5.7851002921" />
      <path d="M -1.5015438676,-5.5317171225 L -1.5015438676,-5.5823937102" />
      <path d="M 1.4984561459,-5.3290107917 L 1.4984561459,-5.3796873794" />
      <path d="M -1.5015444097,-5.1263046284 L -1.5015444097,-5.1769812161" />
      <path d="M 1.498455716,-4.9235981652 L 1.498455716,-4.9742747529" />
      <path d="M -1.5015444097,-4.7208917021 L -1.5015444097,-4.7715682898" />
      <path d="M 1.4984561459,-4.5181855386 L 1.4984561459,-4.5688621263" />
      <path d="M -1.5015438676,-4.3154792078 L -1.5015438676,-4.3661557955" />
      <path d="M 1.498456688,-4.1127726257 L 1.498456688,-4.1634492134" />
      <path d="M -1.5015434377,-3.9100664111 L -1.5015434377,-3.9607429988" />
      <path d="M 1.498456688,-3.7073601964 L 1.498456688,-3.7580367841" />
      <path d="M -1.5015438676,-3.5046536145 L -1.5015438676,-3.5553302022" />
      <path d="M 1.4984561459,-3.3019472837 L 1.4984561459,-3.3526238714" />
      <path d="M -1.5015444097,-3.0992411204 L -1.5015444097,-3.1499177081" />
      <path d="M 1.498455716,-2.8965346572 L 1.498455716,-2.9472112449" />
      <path d="M -1.5015444097,-2.6938281941 L -1.5015444097,-2.7445047818" />
      <path d="M 1.4984561459,-2.4911220306 L 1.4984561459,-2.5417986183" />
      <path d="M -1.5015438676,-2.2884156998 L -1.5015438676,-2.3390922875" />
      <path d="M 1.498456688,-2.0857091177 L 1.498456688,-2.1363857054" />
      <path d="M -1.5015434377,-1.8830029031 L -1.5015434377,-1.9336794908" />
      <path d="M 1.498456688,-1.6802966884 L 1.498456688,-1.7309732761" />
      <path d="M -1.5015438676,-1.4775901065 L -1.5015438676,-1.5282666942" />
      <path d="M 1.4984561459,-1.2748837757 L 1.4984561459,-1.3255603634" />
      <path d="M -1.5015444097,-1.0721776124 L -1.5015444097,-1.1228542001" />
      <path d="M 1.498455716,-0.8694711492 L 1.498455716,-0.9201477369" />
      <path d="M -1.5015444097,-0.6667646861 L -1.5015444097,-0.7174412738" />
      <path d="M 1.4984561459,-0.4640585226 L 1.4984561459,-0.5147351103" />
      <line x1="1.2278232004" y1="-1.0463726374" x2="1.2278232004" y2="-1.148658802" />
      <line x1="1.2278232004" y1="-1.8679545349" x2="1.2278232004" y2="-1.9594839784" />
      <line x1="1.2278232004" y1="-2.2626111116" x2="1.2278232004" y2="-2.364896874" />
      <line x1="1.2278232004" y1="-2.6680235918" x2="1.2278232004" y2="-2.7703097566" />
      <line x1="-1.2309109222" y1="-2.8707301671" x2="-1.2309109222" y2="-2.9730157324" />
      <line x1="1.2278232004" y1="-5.111255762" x2="1.2278232004" y2="-5.202785818" />
      <line x1="-1.2309109222" y1="-6.4007895589" x2="-1.2309109222" y2="-6.4185567979" />
      <path d="M 0.3283320164,-7.0521357784 L 0.4558721426,-7.0335708812" />
      <path d="M 2.5945401465,3.2889504579 A 3.8000000000000065,3.8000000000000065 59.66061440589635 0,1 -2.5976278682,3.2889504579" />
      <line x1="0.8232964111" y1="3.7673706689" x2="0.5726802633" y2="3.4474297975" />
      <line x1="-0.8263865347" y1="3.767350392" x2="-0.5757578314" y2="3.447393492" />
    </g>
  </g>
</svg>