<?xml version='1.0' encoding='utf-8'?>
<svg width="166.9516147873mm" height="512.9999999985mm" viewBox="-1.5527535977 -4.2959728547 3.2192827289 9.8920399304" version="1.1" xmlns="http://www.w3.org/2000/svg">
  <g transform="scale(1,-1)" stroke-linecap="round">
    <g fill="none" stroke="rgb(64,192,64)" stroke-width="0.019282728909218193" id="Visible">
      <path d="M 1.187803423,2.1747618212 A 1.6,0.9450815484859074 0.0 0,1 1.653603116,2.9038307021" />
      <path d="M -1.5398275825,2.9038307021 A 1.6,0.9450815484859074 0.0 0,1 1.187803423,2.1747618212" />
      <path d="M 1.2652233356,2.9041891471 Q 1.1825741209,2.8290803952 1.0753254453,2.7657440875" />
      <path d="M 1.2652233356,2.9041891471 C 1.2517823799,2.9399931689 1.2333831207,2.9830868242 1.2144520475,3.0206137108 C 1.2023516522,3.0428647994 1.1902512569,3.0651158881 1.1781508615,3.0873669767 C 1.1488765202,3.1370918333 1.1157982108,3.1838908748 1.0789159334,3.2277641013 C 0.9928128307,3.3268872726 0.8976070369,3.4061613146 0.7932985518,3.4655862274" />
      <path d="M -0.7270131045,4.081902441 C -0.699724155,4.1224308896 -0.6615593495,4.1566252504 -0.6165968688,4.1723072087" />
      <path d="M -0.6165968688,4.1723072087 C -0.5235485827,4.2083882924 -0.3898585319,4.1663837472 -0.2550883206,4.0853415595" />
      <path d="M -1.0328975247,3.9245579622 Q -0.8987918831,4.0160062428 -0.7270131045,4.081902441" />
      <path d="M -1.1115546717,3.8783367332 C -1.0725509611,3.9151327282 -1.0237462039,3.9339217778 -0.9651403999,3.9347038819 C -0.8821687097,3.9357407773 -0.780700091,3.8950254337 -0.6795230183,3.8348397971" />
      <path d="M 0.8407886379,2.6536873847 C 0.8273476822,2.6894914065 0.808948423,2.7325850618 0.7900173498,2.7701119484 C 0.7779169545,2.792363037 0.7658165592,2.8146141256 0.7537161639,2.8368652143 C 0.7244418225,2.8865900709 0.6913635131,2.9333891124 0.6544812357,2.9772623389 C 0.5683781331,3.0763855102 0.4731723392,3.1556595522 0.3688638541,3.215084465" />
      <path d="M 1.0753254453,2.7657440875 Q 0.9680123734,2.7024458477 0.8407886379,2.6536873847" />
      <path d="M 0.5459904679,1.9434623799 Q 0.5196043191,1.9193694168 0.4884430203,1.8977374178" />
      <path d="M 0.2906054091,1.8020624434 C 0.1589666488,1.7590540977 0.0077954985,1.7447630464 -0.1282279626,1.7600559805 C -0.3230722895,1.7806929322 -0.4808937935,1.8631518103 -0.532493152,1.9646788402" />
      <path d="M 0.6674446914,1.9057540951 C 0.6680914876,1.7993849499 0.602201325,1.6936961782 0.4884430203,1.6153192948" />
      <path d="M 0.4884430203,1.6153192948 C 0.3564846954,1.5226963956 0.1608195749,1.4699413076 -0.0250550168,1.4717203008 C -0.1700551153,1.4722857642 -0.3070476726,1.5050631903 -0.4029006987,1.5595387813 C -0.4994641592,1.6136528793 -0.5541245567,1.6888714631 -0.5536684806,1.7645441515" />
      <path d="M -0.5536684806,1.7645441515 Q -0.5535456404,1.8190192354 -0.5184020355,1.8699888486" />
      <path d="M -0.488455617,1.905754017 Q -0.4678717564,1.9265336544 -0.4414407242,1.9452302065" />
      <path d="M 0.6674447102,1.6233359661 C 0.6680933967,1.5169657762 0.602194721,1.411272419 0.4884430203,1.3329012435" />
      <path d="M 0.4884430203,1.3329012435 C 0.3637373517,1.2454524174 0.1818250242,1.1931670573 0.0053294062,1.1895781696 C -0.1713369436,1.1848131403 -0.3394355618,1.2285192583 -0.4411770846,1.3012552851 C -0.5152082405,1.3546500433 -0.5527056064,1.4149406189 -0.5536691823,1.4821270118" />
      <path d="M -0.5536691823,1.4821270118 Q -0.553529445,1.5366451879 -0.5184017039,1.5875703919" />
      <path d="M -0.4884554279,1.62333591 Q -0.4239012342,1.6881909852 -0.3099596125,1.7287793593" />
      <path d="M -0.1628563073,1.7645450532 Q -0.043857471,1.7822233296 0.0834023448,1.7698709588" />
      <path d="M 0.6674336423,1.34089368 C 0.6680795561,1.2345238398 0.6022192011,1.1289018325 0.4884430203,1.0504830982" />
      <path d="M 0.4884430203,1.0504830982 C 0.3108085975,0.9239964755 0.0149158445,0.8764178938 -0.2121859269,0.9260690203 C -0.4179901081,0.967425298 -0.5561914288,1.0817924768 -0.5536691786,1.199708833" />
      <path d="M 0.6674446992,1.0584997743 C 0.6680889553,0.9521133383 0.602188073,0.8464330346 0.4884430203,0.7680649449" />
      <path d="M 0.4884430203,0.7680649449 C 0.3537312304,0.673450648 0.1525471446,0.620579344 -0.0367028789,0.6245989596 C -0.1793384377,0.6267918193 -0.3132273326,0.6602072265 -0.4067489226,0.7144784893 C -0.5009513703,0.768411674 -0.5540993661,0.8426307528 -0.5536681547,0.9172894453" />
      <path d="M -0.5536681547,0.9172894453 Q -0.5536138616,0.9600032224 -0.5317664629,1.0009443047" />
      <path d="M -0.1206290646,1.2050079427 Q 0.0010504421,1.2174507286 0.127420341,1.1997088025" />
      <path d="M 0.5438513641,1.0227339555 Q 0.5981040684,0.9737057918 0.6294313617,0.9172907263" />
      <path d="M 0.6465055937,0.8815250849 Q 0.6673962418,0.8296210361 0.6674447112,0.7760817598" />
      <path d="M 0.6674447112,0.7760817598 C 0.6680917189,0.6697075175 0.6021948393,0.5640190018 0.4884430203,0.4856469687" />
      <path d="M 0.4884430203,0.4856469687 C 0.370166418,0.4028221737 0.2006499728,0.351301905 0.0328478763,0.3433452298 C -0.1350205126,0.334431159 -0.2987488774,0.3689657463 -0.4072903419,0.4323731494 C -0.5011910766,0.4863091267 -0.5540920324,0.5603602862 -0.5536690329,0.6348728722" />
      <path d="M -0.5536690329,0.6348728722 Q -0.553530005,0.6893792621 -0.518401696,0.7403160152" />
      <path d="M -0.162855941,0.917290803 Q -0.0222143209,0.938122355 0.1274211038,0.9172907493" />
      <path d="M 0.2851805055,0.8815247581 Q 0.4081401625,0.8424045289 0.499709098,0.7760806457" />
      <path d="M 0.5438494379,0.7403140384 Q 0.59809187,0.6913191368 0.6294232129,0.6348578238" />
      <path d="M 0.6464879473,0.5990726622 Q 0.6673771307,0.5471111183 0.6674292201,0.4935988717" />
      <path d="M 0.6674292201,0.4935988717 C 0.6681109524,0.3873628929 0.6022082433,0.2816827591 0.4884430203,0.2032287436" />
      <path d="M 0.4884430203,0.2032287436 C 0.2709652203,0.0458391804 -0.1238233404,0.0172129051 -0.3524746631,0.1224572647 C -0.4795190068,0.1771670011 -0.5544877599,0.2643007365 -0.5536488848,0.3524010802" />
      <path d="M -0.1206307845,0.6401719604 Q 0.001049925,0.6526154904 0.1274167462,0.6348729734" />
      <path d="M 0.2851791943,0.5991080549 Q 0.4081378677,0.5599890572 0.4997104757,0.4936636731" />
      <path d="M 0.5438413318,0.4579072459 Q 0.5980960395,0.4088805612 0.6294226721,0.3524703972" />
      <path d="M 0.6465052536,0.316689859 Q 0.6673978599,0.264778364 0.6674447074,0.2112454857" />
      <path d="M 0.6674447074,0.2112454857 C 0.6681299768,0.1049423802 0.6021520117,-0.0008752743 0.4884430203,-0.0791892792" />
      <path d="M 0.2907382519,-0.1748322953 C 0.0991313436,-0.2381349017 -0.1329481743,-0.2373893066 -0.3006953254,-0.1798017712" />
      <path d="M -0.120631318,0.357753738 Q 0.0010536895,0.3701976771 0.1274199936,0.3524543981" />
      <path d="M 0.5438520968,0.1754795755 Q 0.5981045626,0.1264519361 0.6294312336,0.0700361346" />
      <path d="M 0.6465055778,0.0342706785 Q 0.6673983835,-0.0176407918 0.6674449629,-0.0711725734" />
      <path d="M 0.6674449629,-0.0711725734 C 0.6681264125,-0.1774794234 0.6021561304,-0.2832894911 0.4884430203,-0.3616073888" />
      <path d="M 0.2907256326,-0.4572535213 C 0.0992228367,-0.5205412435 -0.1330214451,-0.5198098446 -0.3006944899,-0.4622200727" />
      <path d="M -0.1206295704,0.0753356134 Q 0.0010658726,0.08777859 0.1274196254,0.0700366467" />
      <path d="M 0.5438516177,-0.10693828 Q 0.5981075298,-0.1559694032 0.6294312534,-0.2123813573" />
      <path d="M 0.6600681191,-0.2907058655 Q 0.6674388777,-0.321978959 0.6674447023,-0.353590672" />
      <path d="M -0.1628574737,-0.2123818908 Q -0.043911458,-0.1947057728 0.0834023966,-0.2070556283" />
      <path d="M 0.6674447959,-0.6360085056 C 0.6681074616,-0.7423557466 0.6021769091,-0.8480940201 0.4884430203,-0.9264436436" />
      <path d="M 0.4884430203,-0.9264436436 C 0.2865889318,-1.0715048334 -0.0681624007,-1.1093762719 -0.3006961188,-1.0270557374" />
      <path d="M -0.5536691766,-0.7772177502 Q -0.553617489,-0.7345215623 -0.5317665711,-0.6935643533" />
      <path d="M 0.083402751,-0.4894738666 L 0.1274162101,-0.4947990648" />
      <path d="M 0.5508352248,-0.6782022496 Q 0.600190022,-0.7245322487 0.6294314119,-0.7772178919" />
      <path d="M 0.6465055652,-0.8129834173 Q 0.6673972364,-0.8648917088 0.6674446986,-0.9184269984" />
      <path d="M 0.6674446986,-0.9184269984 C 0.6681018299,-1.0247780245 0.6021877967,-1.1305020261 0.4884430203,-1.2088616978" />
      <path d="M 0.2907340286,-1.3045057049 C 0.1266572258,-1.3583978442 -0.0675950282,-1.3664947247 -0.2250933644,-1.3304849019 C -0.4240476958,-1.2871031372 -0.555943475,-1.1751477114 -0.5536367032,-1.0595671885" />
      <path d="M -0.5536367032,-1.0595671885 Q -0.553490296,-1.0050524283 -0.5184008746,-0.9541939424" />
      <path d="M 0.2907332337,-1.5869240736 C 0.0180082633,-1.679314528 -0.329187247,-1.6311390375 -0.4723611778,-1.4984089263 C -0.5260735723,-1.4504959798 -0.5531762395,-1.3983776697 -0.5536691793,-1.3420539959" />
      <path d="M 0.0834014574,-1.054310036 L 0.1274204392,-1.0596359817" />
      <path d="M 0.4884430203,-1.7736978839 C 0.3141438413,-1.8974489719 0.0274424399,-1.945990859 -0.1980253183,-1.9009318981 C -0.4112487784,-1.8618756403 -0.5563444499,-1.7452699218 -0.5536692173,-1.6244721178" />
      <path d="M -0.5536692173,-1.6244721178 Q -0.5535309142,-1.5699578115 -0.5184017802,-1.5190287777" />
      <path d="M -0.4884553821,-1.4832631602 Q -0.423841528,-1.4183727897 -0.3099594639,-1.377819748" />
      <path d="M -0.1628557791,-1.3420540863 Q -0.022214872,-1.3212235264 0.1274210155,-1.3420540237" />
      <path d="M 0.2851814319,-1.3778196834 Q 0.4080960532,-1.4169193575 0.4997105233,-1.4832630813" />
      <path d="M 0.5438515885,-1.5190287758 Q 0.5980931738,-1.5680422151 0.6294312878,-1.6244719463" />
      <path d="M 0.6465056323,-1.6602378374 Q 0.6674006725,-1.7121608047 0.6674447092,-1.7656811949" />
      <path d="M 0.6674447092,-1.7656811949 C 0.6681009654,-1.8720333939 0.6021889551,-1.9777550935 0.4884430203,-2.0561159846" />
      <path d="M 0.4884430203,-2.0561159846 C 0.3635837879,-2.1436614405 0.1814717625,-2.1959501305 0.0047926576,-2.1994519234 C -0.1720565847,-2.204132667 -0.3402394287,-2.1602291837 -0.4418253666,-2.0873033826 C -0.5154534604,-2.0339054827 -0.5527342729,-1.9737677428 -0.5536678041,-1.9068901629" />
      <path d="M -0.5536678041,-1.9068901629 Q -0.5535322266,-1.8524471869 -0.5183832274,-1.8014739503" />
      <path d="M -0.1628553016,-1.6244720387 L -0.1206285872,-1.6191729485" />
      <path d="M 0.2851769141,-1.6602390503 Q 0.4081721949,-1.6993814043 0.4997103191,-1.7656813302" />
      <path d="M 0.2907340589,-2.4341780698 C 0.1128225779,-2.4927802742 -0.1003243875,-2.4968476961 -0.2639678598,-2.4504029174 C -0.4418255378,-2.4019007784 -0.5553159473,-2.2969643773 -0.5536650074,-2.1893139088" />
      <path d="M -0.5536650074,-2.1893139088 Q -0.553552346,-2.134847855 -0.5184016031,-2.0838646588" />
      <path d="M -0.1628463739,-1.9068888379 L -0.1206297787,-1.9015912046" />
      <path d="M 0.0834017756,-1.9015643343 L 0.1274250497,-1.9068908659" />
      <path d="M 0.6674447189,-2.3305174566 C 0.6681549394,-2.4367855152 0.6021080099,-2.5426895643 0.4884430203,-2.6209521865" />
      <path d="M 0.4884430203,-2.6209521865 C 0.3571726538,-2.7131120629 0.1626189972,-2.7658564789 -0.0223815306,-2.7645630798 C -0.1672666855,-2.7643741443 -0.3043655495,-2.7320569706 -0.4007002524,-2.6779666332 C -0.497734615,-2.6242429806 -0.5531807211,-2.549291907 -0.553656482,-2.4737621406 C -0.5536607134,-2.4730835694 -0.5536649448,-2.4724049981 -0.5536691762,-2.4717264269" />
      <path d="M -0.1628557964,-2.1893083321 Q -0.0221491821,-2.1684723663 0.1273923729,-2.1893130395" />
      <path d="M 0.5438162327,-2.3663007673 Q 0.5979807137,-2.4152951445 0.6293884649,-2.4718038569" />
      <path d="M 0.6464801147,-2.5075553754 Q 0.6674243329,-2.5594778547 0.66744476,-2.6129354428" />
      <path d="M 0.66744476,-2.6129354428 C 0.6680983599,-2.719296474 0.6021866115,-2.8250098873 0.4884430203,-2.9033703277" />
      <path d="M 0.4884430203,-2.9033703277 C 0.3536823345,-2.9980244542 0.1523584922,-3.0508984677 -0.0369173963,-3.0468327214 C -0.2602975376,-3.0442566575 -0.4565774983,-2.9619704583 -0.5239219535,-2.8512535001 C -0.5436863922,-2.8198127456 -0.5536021164,-2.7874431033 -0.5536691262,-2.7541445733" />
      <path d="M -0.4884553331,-2.6129353751 Q -0.4238606505,-2.548056804 -0.3099596728,-2.5074920027" />
      <path d="M -0.1628554188,-2.4717263451 Q -0.043888792,-2.454050506 0.0834014765,-2.4664005224" />
      <path d="M 0.2851816091,-2.5074921488 Q 0.4080954414,-2.5465917802 0.4997105202,-2.6129354595" />
      <path d="M 0.6674437451,-2.8953487528 C 0.6680886285,-3.0017619025 0.602161793,-3.1074424083 0.4884430203,-3.1857885152" />
      <path d="M 0.4884430203,-3.1857885152 C 0.3594605133,-3.2763277587 0.1690905548,-3.3289829155 -0.0129694982,-3.3293851342 C -0.1952922081,-3.3311280062 -0.3655857347,-3.28094058 -0.4615456915,-3.2020427986 C -0.5223101705,-3.1519888251 -0.5530179972,-3.0968287465 -0.5536691715,-3.0365625628" />
      <path d="M -0.4884554097,-2.8953535625 Q -0.423899226,-2.8304968368 -0.3099588453,-2.789910035" />
      <path d="M -0.1628559587,-2.7541445751 Q -0.021995129,-2.7333109921 0.1274209642,-2.754144529" />
      <path d="M 0.2851683613,-2.7899060172 Q 0.4081101603,-2.8290160479 0.4997105083,-2.8953535942" />
      <path d="M 0.6674447663,-3.1777717364 C 0.6681048544,-3.2841152328 0.6021885951,-3.389847176 0.4884430203,-3.4682064596" />
      <path d="M 0.4884430203,-3.4682064596 C 0.2866573464,-3.6132650461 -0.0681598822,-3.6511293061 -0.3006953853,-3.5688188969" />
      <path d="M -0.4884554142,-3.1777717466 Q -0.4238377921,-3.1128796846 -0.3099596493,-3.0723282986" />
      <path d="M -0.1628556318,-3.0365625914 Q -0.043914015,-3.0188867383 0.0834031254,-3.0312367913" />
      <path d="M 0.2851814922,-3.0723283408 Q 0.4081256464,-3.1114429933 0.4997105103,-3.1777717282" />
      <path d="M 0.6674447988,-3.4601896385 C 0.6680964204,-3.5665521279 0.6021924226,-3.6722580957 0.4884430203,-3.7506245881" />
      <path d="M 0.4884430203,-3.7506245881 Q 0.4026256349,-3.8098924143 0.2907333481,-3.8462688781" />
      <path d="M -0.4884553435,-3.4601897113 Q -0.4238744817,-3.3953191323 -0.3099595781,-3.3547463802" />
      <path d="M -0.1206282874,-3.3136816998 Q 0.0011056109,-3.3012394814 0.1274204163,-3.3189807435" />
      <path d="M 0.5438513468,-3.4959557612 Q 0.5981009696,-3.5449770826 0.6294314117,-3.6013987833" />
      <path d="M 0.6465057172,-3.6371647176 Q 0.6673981668,-3.6890778298 0.6674447161,-3.7426078658" />
      <path d="M 0.6674447161,-3.7426078658 C 0.6681024237,-3.8489560238 0.6021908827,-3.9546803302 0.4884430203,-4.0330427364" />
      <path d="M 0.4884430203,-4.0330427364 C 0.2866948243,-4.178069529 -0.0680796329,-4.2159805677 -0.3006951703,-4.1336551641" />
      <path d="M 0.0834021171,-3.5960728805 L 0.1274210116,-3.6013988081" />
      <path d="M 0.5438509975,-3.7783730298 Q 0.5981105726,-3.8274078598 0.6294313741,-3.883816905" />
      <path d="M 0.6465056081,-3.9195826171 Q 0.6673968443,-3.9714885107 0.6674447153,-4.0250260478" />
      <path d="M 0.6674447153,-4.0250260478 C 0.6681425671,-4.1313115785 0.6021296681,-4.2371726882 0.4884430203,-4.3154607201" />
      <path d="M 0.4884430203,-4.3154607201 C 0.2865544747,-4.4605474543 -0.0682858579,-4.4983823762 -0.3006960671,-4.4160728874" />
      <path d="M 0.0834020446,-3.8784910363 L 0.1274209231,-3.883816949" />
      <path d="M 0.5438516139,-4.0607917412 Q 0.598112351,-4.1098282634 0.6294313743,-4.1662349864" />
      <path d="M 0.6600680806,-4.2445591032 Q 0.6674385657,-4.2758293916 0.6674447173,-4.3074440117" />
      <path d="M 0.6674447173,-4.3074440117 C 0.6681454951,-4.4137258509 0.6021242266,-4.5195971544 0.4884430203,-4.5978789613" />
      <path d="M 0.4884430203,-4.5978789613 C 0.2866630312,-4.7429424938 -0.0682493768,-4.780800981 -0.300694652,-4.6984913112" />
      <path d="M -0.5536664614,-4.4486569386 Q -0.5535277221,-4.3941909944 -0.5183854388,-4.3432333225" />
      <path d="M -0.1628200456,-4.1662404173 Q -0.0223361876,-4.145399554 0.1274152157,-4.1662342912" />
      <path d="M 0.2851814237,-4.2020006993 Q 0.4081489958,-4.241126261 0.4997105092,-4.3074439967" />
      <path d="M 0.5438516384,-4.343209694 Q 0.5980771997,-4.39220296 0.6294313637,-4.4486531133" />
      <path d="M 0.6600681511,-4.5269775475 Q 0.6674398751,-4.5582588493 0.6674447681,-4.5898622615" />
      <path d="M -0.3006971419,-4.9809089668 C -0.4578182024,-4.9289641064 -0.5549821935,-4.8308664575 -0.5536673062,-4.731075676" />
      <path d="M -0.5536673062,-4.731075676 Q -0.5535370012,-4.6765703783 -0.5184018441,-4.6256279309" />
      <path d="M -0.1206290825,-4.4433540401 Q 0.0010889273,-4.4309112891 0.1274213074,-4.4486531228" />
      <path d="M 0.2851816253,-4.4844187701 Q 0.4081012292,-4.5235213574 0.4997105163,-4.5898622388" />
      <path d="M 0.5438515684,-4.6256279007 Q 0.598088752,-4.6746349855 0.6294313951,-4.7310712296" />
      <path d="M 0.646505672,-4.7668371042 Q 0.6673980216,-4.8187495597 0.6674447248,-4.8722802388" />
      <path d="M 0.2907331146,-5.2583594899 C 0.069527913,-5.3320465652 -0.2045443014,-5.3177811883 -0.3732748383,-5.2339580185 C -0.4878551415,-5.1791277868 -0.5543362898,-5.0966677796 -0.5536626156,-5.013481443" />
      <path d="M -0.5536626156,-5.013481443 Q -0.5534767009,-4.9589494958 -0.5183812024,-4.9080374772" />
      <path d="M -0.1628559929,-4.7310711648 Q -0.022209247,-4.7102408553 0.1274204812,-4.7310712336" />
      <path d="M 0.6223455949,-5.4364976473 C 0.7713859337,-5.3374714542 0.8577383502,-5.2026267533 0.8568876639,-5.0669060142" />
      <path d="M 0.8564221711,-5.0492548863 Q 0.8468262578,-4.8954663409 0.7105316817,-4.7668368943" />
      <path d="M -0.1206290386,-4.5254836478 Q -0.2145235919,-4.5327457692 -0.3006921334,-4.5527639089" />
      <path d="M -0.5247396868,-4.6352670602 C -0.6640072864,-4.710401544 -0.7438476398,-4.8176851931 -0.7431122353,-4.9256968279" />
      <path d="M -0.7431122353,-4.9256968279 C -0.7442189975,-5.0458503259 -0.6446049522,-5.164774628 -0.4763097831,-5.2401650383 C -0.3094899886,-5.3165303229 -0.0770896776,-5.3477245407 0.146139558,-5.3196582438 C 0.3397307107,-5.2962702474 0.5239788912,-5.229158126 0.6532944332,-5.1322243267 C 0.7835606152,-5.035792654 0.8575252867,-4.9104439201 0.8568877118,-4.7844880211" />
      <path d="M 0.8568877118,-4.7844880211 Q 0.8567648752,-4.7032828748 0.8183722504,-4.6256278901" />
      <path d="M -0.120629526,-4.2430654683 Q -0.2145257319,-4.2503276314 -0.3006955892,-4.270346347" />
      <path d="M -0.742430245,-4.625627722 L -0.7431122022,-4.6432788519" />
      <path d="M -0.7431122022,-4.6432788519 C -0.7453297634,-4.7877427729 -0.5988999204,-4.9291917272 -0.3690103408,-4.997918991 C -0.1286909445,-5.0731207122 0.1950408927,-5.06256978 0.4437219038,-4.9636139493 C 0.6950376274,-4.8674748466 0.8596119886,-4.6867452333 0.8568879424,-4.5020700419" />
      <path d="M 0.8568879424,-4.5020700419 Q 0.8567650815,-4.4208647349 0.8183721416,-4.3432097098" />
      <path d="M -0.1206291131,-3.9606473764 Q -0.2145258864,-3.9679096653 -0.3006961434,-3.9879285442" />
      <path d="M -0.7424305254,-4.343210314 L -0.7431124872,-4.3608614591" />
      <path d="M -0.7431124872,-4.3608614591 C -0.7430014736,-4.4092731487 -0.7280723519,-4.4561994365 -0.6983251221,-4.5016403225 C -0.6370874363,-4.595619123 -0.5112617411,-4.6757374508 -0.3497801114,-4.7211579329 C -0.1888548511,-4.7671349732 0.0062705902,-4.777906824 0.1907338675,-4.7485807911 C 0.3753801563,-4.7198919431 0.5476977901,-4.6512721423 0.6680659911,-4.5560826113 C 0.7892701434,-4.4613101047 0.8574346039,-4.3407305106 0.8568875371,-4.2196518371" />
      <path d="M 0.8568875371,-4.2196518371 L 0.8564220448,-4.2020007059" />
      <path d="M -0.7424305246,-4.0607910965 L -0.7431124864,-4.0784422137" />
      <path d="M -0.7431124864,-4.0784422137 C -0.7439612202,-4.1905586359 -0.6577006862,-4.3018003398 -0.5087980804,-4.377277079 C -0.3610959955,-4.4534630428 -0.1528444048,-4.4926479043 0.0568876297,-4.480379128 C 0.2666196695,-4.4691132766 0.4748706671,-4.4063936536 0.6225730476,-4.3066727006 C 0.771476017,-4.2076609081 0.8577368858,-4.072884612 0.8568879425,-3.9372336363" />
      <path d="M 0.8568879425,-3.9372336363 Q 0.8567650953,-3.8560284996 0.8183722499,-3.7783735237" />
      <path d="M -0.1206296829,-3.3958110834 Q -0.2145246707,-3.4030731563 -0.300693129,-3.4230915157" />
      <path d="M -0.7431122024,-3.7960248235 C -0.7439611791,-3.90814061 -0.6577007323,-4.0193822446 -0.5087976129,-4.0948592891 C -0.3610951048,-4.1710454942 -0.1528439161,-4.2102298774 0.0568877295,-4.1979608601 C 0.2666193737,-4.186694751 0.4748706018,-4.1239755686 0.6225731276,-4.0242548471 C 0.7714762681,-3.9252433138 0.8577366916,-3.7904666487 0.8568877118,-3.6548156541" />
      <path d="M 0.8568877118,-3.6548156541 L 0.8564222184,-3.6371645237" />
      <path d="M -0.7431122357,-3.5136068491 C -0.7439612321,-3.6257231041 -0.6577005678,-3.736964621 -0.5087973305,-3.8124412507 C -0.3610946984,-3.8886270517 -0.1528435924,-3.9278116126 0.0568880074,-3.915542858 C 0.2666195988,-3.9042770306 0.4748709091,-3.8415574754 0.6225733892,-3.7418364279 C 0.7714764953,-3.6428245169 0.8577366408,-3.5080484782 0.8568876638,-3.3723976605" />
      <path d="M 0.8568876638,-3.3723976605 L 0.856422171,-3.354746526" />
      <path d="M -0.7424303358,-3.213536928 L -0.7431122927,-3.231188057" />
      <path d="M -0.7431122927,-3.231188057 C -0.7439611918,-3.3433040247 -0.6577009315,-3.4545455388 -0.5087984522,-3.5300225771 C -0.3610965826,-3.6062087827 -0.1528456042,-3.6453935787 0.0568863789,-3.6331248212 C 0.2666183958,-3.6218589675 0.4748694141,-3.5591398674 0.6225717892,-3.4594193571 C 0.7714746629,-3.3604080702 0.8577369726,-3.2256313301 0.856887932,-3.0899806667" />
      <path d="M 0.856887932,-3.0899806667 L 0.8564224342,-3.0723295051" />
      <path d="M -0.7424301451,-2.93111967 L -0.7431120987,-2.9487708036" />
      <path d="M -0.7431120987,-2.9487708036 C -0.7486191409,-3.1346181444 -0.5000242114,-3.3104440169 -0.1647346598,-3.3448292103 C 0.1675025801,-3.385464973 0.5538336798,-3.2791080446 0.7340958603,-3.0843631004 C 0.8151024985,-2.9989212142 0.8560331234,-2.9066541703 0.8568877351,-2.8075619685" />
      <path d="M 0.8568877351,-2.8075619685 L 0.8564222437,-2.789910835" />
      <path d="M -0.742430404,-2.6487008865 L -0.7431123606,-2.6663520154" />
      <path d="M -0.7431123606,-2.6663520154 C -0.7448991998,-2.8027042157 -0.6151745254,-2.9367772635 -0.4061807307,-3.0088249317 C -0.1992556745,-3.0825939977 0.0806484259,-3.0917006779 0.3208072478,-3.0267224102 C 0.6356922025,-2.9461627377 0.861580096,-2.7396969354 0.8568877411,-2.5251433314" />
      <path d="M 0.8568877411,-2.5251433314 L 0.8564222462,-2.5074921987" />
      <path d="M -0.7424302515,-2.3662831518 L -0.7431122077,-2.3839342853" />
      <path d="M -0.7431122077,-2.3839342853 C -0.7477933896,-2.5613728103 -0.5222253259,-2.7307492066 -0.2076392086,-2.774437832 C 0.0325522684,-2.8109750377 0.3126216805,-2.7733783207 0.519693811,-2.6710418234 C 0.7288368266,-2.5704299787 0.8586776018,-2.4077193473 0.8568878944,-2.2427248247" />
      <path d="M 0.8568878944,-2.2427248247 Q 0.856812102,-2.1708838528 0.8265966396,-2.1015160221" />
      <path d="M -0.1206295865,-1.7013025336 Q -0.2145257351,-1.708564804 -0.3006955487,-1.7285835695" />
      <path d="M -0.5246849287,-1.8110563376 C -0.6639860034,-1.8861928005 -0.743847888,-1.993490249 -0.7431122024,-2.1015166055" />
      <path d="M -0.7431122024,-2.1015166055 C -0.7422624435,-2.1836620493 -0.701445959,-2.2590112317 -0.6206627489,-2.3275641527 C -0.4405851,-2.4837884736 -0.054183293,-2.5516547444 0.2782009651,-2.4724116744 C 0.613636722,-2.3994269617 0.8624008957,-2.1848855898 0.8568876316,-1.9603075401" />
      <path d="M 0.8568876316,-1.9603075401 Q 0.8567647775,-1.8791021043 0.818371971,-1.8014468857" />
      <path d="M -0.1206295746,-1.418884542 Q -0.2145260806,-1.4261467814 -0.3006960818,-1.4461656044" />
      <path d="M -0.7424304394,-1.8014478248 L -0.7431124,-1.8190989924" />
      <path d="M -0.7431124,-1.8190989924 C -0.7439614372,-1.9312148263 -0.6576991303,-2.0424567356 -0.5087962588,-2.117933191 C -0.3610938851,-2.1941188703 -0.1528428643,-2.2333031406 0.0568891528,-2.2210341636 C 0.2666211361,-2.2097680906 0.4748721133,-2.1470484632 0.6225739837,-2.0473274266 C 0.7714764637,-1.9483155573 0.8577367261,-1.8135392125 0.8568878268,-1.6778884135" />
      <path d="M 0.8568878268,-1.6778884135 Q 0.8568120456,-1.6060476167 0.826596675,-1.5366798525" />
      <path d="M -0.1206288334,-1.136466374 Q -0.2145252089,-1.1437284947 -0.300695169,-1.1637471203" />
      <path d="M -0.7424301775,-1.5190288856 L -0.7431121305,-1.5366800215" />
      <path d="M -0.7431121305,-1.5366800215 C -0.7439611076,-1.6487960007 -0.6577009605,-1.7600372034 -0.508797854,-1.8355142773 C -0.3610953735,-1.9117004878 -0.152844064,-1.9508852046 0.0568875272,-1.9386161945 C 0.2666191269,-1.9273501115 0.4748702332,-1.8646307143 0.622572865,-1.7649100762 C 0.7714761021,-1.6658986095 0.8577367652,-1.5311222546 0.8568877688,-1.3954711625" />
      <path d="M 0.8568877688,-1.3954711625 Q 0.8567649092,-1.3142657637 0.8183721359,-1.2366106849" />
      <path d="M -0.1206300006,-0.8540482456 Q -0.2145152038,-0.8613094816 -0.3006762682,-0.8813246229" />
      <path d="M -0.7424302247,-1.2366106546 L -0.7431121783,-1.2542617845" />
      <path d="M -0.7431121783,-1.2542617845 C -0.7439611582,-1.3663779418 -0.6577007343,-1.477619768 -0.5087975935,-1.5530964629 C -0.3610950674,-1.6292823459 -0.1528438395,-1.6684666911 0.0568878043,-1.6561979626 C 0.2666194495,-1.6449321424 0.4748706383,-1.5822129204 0.6225731465,-1.4824918771 C 0.771476266,-1.3834799944 0.8577367124,-1.2487035236 0.8568877357,-1.1130528992" />
      <path d="M 0.8568877357,-1.1130528992 Q 0.8567648868,-1.0318477092 0.8183720794,-0.9541925668" />
      <path d="M -0.1206290832,-0.5716302558 Q -0.21452588,-0.5788924801 -0.3006960933,-0.5989113124" />
      <path d="M -0.5390654207,-0.6894255954 C -0.6696085704,-0.7640182851 -0.7437529463,-0.8676259789 -0.7431124089,-0.971843623" />
      <path d="M -0.7431124089,-0.971843623 C -0.7439613521,-1.0839597463 -0.6577004847,-1.1952011908 -0.508797517,-1.270678132 C -0.3610951382,-1.3468642337 -0.1528441409,-1.3860490049 0.0568878993,-1.3737800049 C 0.2666199343,-1.3625139296 0.474871524,-1.2997942179 0.6225736089,-1.2000734033 C 0.7714762145,-1.1010618135 0.8577367542,-0.9662852559 0.8568880207,-0.8306339833" />
      <path d="M 0.8568880207,-0.8306339833 Q 0.8567651235,-0.7494289897 0.8183721969,-0.671774465" />
      <path d="M -0.1206277022,-0.2892119946 Q -0.2145253245,-0.296474203 -0.3006964499,-0.3164932676" />
      <path d="M -0.7424300515,-0.6717744651 L -0.7431120036,-0.6894255963" />
      <path d="M -0.7431120036,-0.6894255963 C -0.7436584597,-0.7894591977 -0.6755345056,-0.888994429 -0.5543942662,-0.962744 C -0.4340891865,-1.0369100305 -0.2618562722,-1.084528713 -0.0772755914,-1.0922431999 C 0.1071218489,-1.1005941166 0.3022030488,-1.0688737485 0.4631398826,-1.0019572915 C 0.6246318967,-0.9355969691 0.7505253407,-0.8345466622 0.8118880842,-0.7196138946 C 0.8417759648,-0.6639777049 0.8567759433,-0.6068454773 0.8568880199,-0.5482172117" />
      <path d="M 0.8568880199,-0.5482172117 Q 0.8568121728,-0.4763757959 0.8265964119,-0.4070074652" />
      <path d="M 0.8183720791,-0.3893563618 Q 0.7676920658,-0.2879737771 0.6600681113,-0.2055887463" />
      <path d="M 0.6402806402,-0.1910050231 L 0.595043557,-0.1611344193" />
      <path d="M 0.2907338694,-0.0390431853 Q 0.1893442187,-0.0148550144 0.0834036457,-0.0068208963" />
      <path d="M -0.743112409,-0.4070075662 C -0.7458326026,-0.5596778258 -0.5813912696,-0.7084098078 -0.330228024,-0.7726391177 C -0.0816976796,-0.8396805473 0.2418882712,-0.8184092053 0.4822409128,-0.7114179567 C 0.7124332171,-0.6124756047 0.85911198,-0.4406503513 0.8568877359,-0.2657982925" />
      <path d="M 0.8568877359,-0.2657982925 Q 0.8567648966,-0.1845932031 0.8183721358,-0.1069382435" />
      <path d="M -0.1206159614,0.2756249897 Q -0.2145197042,0.2683631605 -0.3006961149,0.248342923" />
      <path d="M -0.7424302247,-0.1069382746 L -0.7431121783,-0.1245894072" />
      <path d="M -0.7431121783,-0.1245894072 C -0.743748388,-0.2286278317 -0.6698684286,-0.3320607482 -0.5397333333,-0.406622621 C -0.4105471833,-0.4816853199 -0.2264704187,-0.5269745011 -0.0330035893,-0.5285943493 C 0.1903118392,-0.5315591897 0.422885631,-0.4752076764 0.5898453648,-0.373622635 C 0.7582825246,-0.2730146133 0.8579965689,-0.1288133712 0.8568877692,0.0166199725" />
      <path d="M 0.8568877692,0.0166199725 C 0.8574830069,0.1403586299 0.7861865322,0.2635414435 0.6600675695,0.359247908" />
      <path d="M 0.6402733571,0.3738363622 L 0.5950437107,0.4037016238" />
      <path d="M -0.1206300411,0.5580422561 Q -0.2145257353,0.5507800437 -0.3006951826,0.5307613997" />
      <path d="M -0.7424301774,0.175479956 L -0.7431121303,0.1578288294" />
      <path d="M -0.7431121303,0.1578288294 C -0.7439594533,0.0457705251 -0.6577915474,-0.0654161708 -0.5090251635,-0.1408894653 C -0.2882134075,-0.257072616 0.0720973097,-0.2818184894 0.3628853144,-0.1905319368 C 0.6566980543,-0.1035598842 0.8608409334,0.0945180927 0.8568878261,0.2990372219" />
      <path d="M 0.8568878261,0.2990372219 C 0.8574830082,0.4227762705 0.7861860376,0.5459596516 0.6600665551,0.6416666664" />
      <path d="M 0.6402809173,0.6562490308 L 0.5950427363,0.6861203952" />
      <path d="M -0.1206291775,0.8404602647 Q -0.2145259366,0.8331980124 -0.3006961051,0.8131791776" />
      <path d="M -0.7424304381,0.4578988988 L -0.7431123985,0.4402478044" />
      <path d="M -0.7431123985,0.4402478044 C -0.7431110196,0.4242945735 -0.7414462093,0.4083963099 -0.7381179677,0.3925530137 C -0.7162902038,0.2851461544 -0.6143825734,0.1837845148 -0.4594337858,0.1183709568 C -0.3054375191,0.0522916508 -0.1002902082,0.0231036693 0.1015836615,0.0415612352 C 0.3035399194,0.0591485641 0.4997510856,0.1242999705 0.6381612923,0.2227415416 C 0.7776436964,0.3205842526 0.8576253857,0.4506549149 0.8568876322,0.5814563504" />
      <path d="M 0.8568876322,0.5814563504 Q 0.8567648076,0.662661281 0.818372324,0.7403160106" />
      <path d="M -0.1206287778,1.1228783937 Q -0.2145258799,1.1156161354 -0.3006967141,1.095597153" />
      <path d="M -0.7424302514,0.740316541 L -0.7431122016,0.7226654122" />
      <path d="M -0.7431122016,0.7226654122 C -0.7439610885,0.6105490122 -0.6577012957,0.4993078011 -0.5087984167,0.4238308147 C -0.3610961535,0.3476446698 -0.1528445723,0.3084596632 0.0568871979,0.3207285087 C 0.266618987,0.3319944176 0.4748700134,0.39471398 0.622572671,0.4944347356 C 0.7714759185,0.5934463321 0.8577368796,0.7282225543 0.856887894,0.863873633" />
      <path d="M 0.856887894,0.863873633 L 0.8564223986,0.881524766" />
      <path d="M -0.7424302514,1.0227342239 L -0.7431122076,1.005083095" />
      <path d="M -0.7431122076,1.005083095 C -0.7439611739,0.8929671618 -0.6577007471,0.7817252228 -0.5087976577,0.7062483361 C -0.3610951795,0.6300622624 -0.152843945,0.5908780178 0.0568877668,0.6031468874 C 0.2666194785,0.6144128581 0.4748707128,0.6771319437 0.622573191,0.776852859 C 0.7714762804,0.8758645874 0.8577367075,1.0106413669 0.8568877412,1.1462921402" />
      <path d="M 0.8568877412,1.1462921402 L 0.8564222463,1.1639432699" />
      <path d="M -0.743112361,1.2875008253 C -0.7439613464,1.1753845946 -0.6577003847,1.0641432203 -0.5087971375,0.9886664709 C -0.3610944803,0.9124805626 -0.1528434539,0.8732958476 0.0568883362,0.8855647872 C 0.2666201074,0.8968307903 0.4748716895,0.9595506452 0.6225739517,1.0592716377 C 0.7714768296,1.1582834713 0.8577366222,1.2930595316 0.8568877358,1.4287107806" />
      <path d="M 0.8568877358,1.4287107806 Q 0.8550525601,1.5921167155 0.7105319221,1.7287792743" />
      <path d="M -0.5247404306,1.8603488918 C -0.6640077591,1.785214247 -0.7438474989,1.6779308262 -0.7431120981,1.5699196119" />
      <path d="M -0.7431120981,1.5699196119 C -0.7438490923,1.461844365 -0.6639116334,1.3544989307 -0.5244962981,1.2793568225 C -0.3861522604,1.2036165978 -0.1900275063,1.1611407176 0.0118705736,1.1662010679 C 0.2136857581,1.1703920965 0.4188059234,1.2222013049 0.572840512,1.3108991335 C 0.7278259618,1.3989315602 0.8298372427,1.5229112767 0.8518214395,1.6529703249 C 0.8551976833,1.6723005453 0.8568865146,1.6916869279 0.8568879335,1.7111294726" />
      <path d="M 0.8568879335,1.7111294726 Q 0.8556197433,1.8593347009 0.734760896,1.9872339042" />
      <path d="M -0.6886115011,2.007079109 Q -0.7428650724,1.9327032077 -0.7431122933,1.852336867" />
      <path d="M -0.7431122933,1.852336867 C -0.7470604226,1.6831854521 -0.5430683037,1.5204644494 -0.2494070917,1.4687471876 C 0.0412302601,1.4127215766 0.4014265079,1.47262277 0.6223455949,1.6239548381 C 0.7713859337,1.7229810313 0.8577383502,1.8578257321 0.8568876639,1.9935464713" />
      <path d="M 0.8568876639,1.9935464713 L 0.8554686988,2.0243561587" />
      <path d="M -0.7104510093,2.0140003142 C -0.6582830446,1.918829745 -0.5411103857,1.8354890497 -0.3856279871,1.7853475813 C -0.2307393291,1.7346777555 -0.0389151879,1.7177463815 0.146139558,1.7407942417 C 0.3745898833,1.7681102939 0.5889697399,1.8571959629 0.7175409641,1.9825497519" />
      <path d="M 0.6223455949,-5.4364976473 L 0.6223455949,-5.4011953849" />
      <path d="M 0.6223455949,-5.4011953849 C 0.7713859337,-5.3021691918 0.8577383502,-5.1673244909 0.8568876639,-5.0316037518" />
      <path d="M 0.8568876639,-5.0316037518 Q 0.8554869216,-4.8794589934 0.7286464153,-4.7491857653" />
      <path d="M -0.4710480063,-4.5735677381 L -0.4939415713,-4.5841753007" />
      <path d="M -0.5317666098,-4.6038379605 C -0.6667625602,-4.678735267 -0.7438002545,-4.7842306002 -0.7431122353,-4.8903945655" />
      <path d="M -0.7431122353,-4.8903945655 C -0.7442189975,-5.0105480635 -0.6446049522,-5.1294723655 -0.4763097831,-5.2048627759 C -0.3094899886,-5.2812280604 -0.0770896776,-5.3124222782 0.146139558,-5.2843559814 C 0.3397307107,-5.2609679849 0.5239788912,-5.1938558636 0.6532944332,-5.0969220643 C 0.7835606152,-5.0004903916 0.8575252867,-4.8751416576 0.8568877118,-4.7491857587" />
      <path d="M 0.8568877118,-4.7491857587 Q 0.8568119258,-4.6773447781 0.8265965729,-4.6079768109" />
      <path d="M -0.6980419459,-4.4667677185 Q -0.7429436548,-4.5351229617 -0.7431122022,-4.6079765895" />
      <path d="M -0.7431122022,-4.6079765895 C -0.7453297634,-4.7524405105 -0.5988999204,-4.8938894648 -0.3690103408,-4.9626167285 C -0.1286909445,-5.0378184498 0.1950408927,-5.0272675176 0.4437219038,-4.9283116869 C 0.6950376274,-4.8321725842 0.8596119886,-4.6514429709 0.8568879424,-4.4667677794" />
      <path d="M 0.8568879424,-4.4667677794 Q 0.8568121395,-4.3949265765 0.8265964644,-4.3255584983" />
      <path d="M -0.4710472558,-4.0087311579 L -0.4939416601,-4.0193391167" />
      <path d="M -0.5317665739,-4.0390017586 L -0.5390654809,-4.0431405482" />
      <path d="M -0.5679591214,-4.0607916688 C -0.6807202341,-4.1335510381 -0.7435820259,-4.2293495874 -0.7431124872,-4.3255591967" />
      <path d="M -0.7431124872,-4.3255591967 C -0.7430014736,-4.3739708863 -0.7280723519,-4.420897174 -0.6983251221,-4.46633806 C -0.6370874363,-4.5603168606 -0.5112617411,-4.6404351884 -0.3497801114,-4.6858556705 C -0.1888548511,-4.7318327107 0.0062705902,-4.7426045616 0.1907338675,-4.7132785287 C 0.3753801563,-4.6845896806 0.5476977901,-4.6159698799 0.6680659911,-4.5207803489 C 0.7892701434,-4.4260078423 0.8574346039,-4.3054282482 0.8568875371,-4.1843495746" />
      <path d="M 0.8568875371,-4.1843495746 C 0.8574494389,-4.0624335229 0.7883073176,-3.9410338492 0.6655631986,-3.845959701" />
      <path d="M 0.6513616421,-3.83517806 Q 0.6051447481,-3.8010040415 0.5508344633,-3.7719453753" />
      <path d="M -0.6980419459,-3.9019314328 Q -0.7429438397,-3.9702863281 -0.7431124864,-4.0431399513" />
      <path d="M -0.7431124864,-4.0431399513 C -0.7439612202,-4.1552563734 -0.6577006862,-4.2664980774 -0.5087980804,-4.3419748166 C -0.3610959955,-4.4181607803 -0.1528444048,-4.4573456418 0.0568876297,-4.4450768656 C 0.2666196695,-4.4338110142 0.4748706671,-4.3710913912 0.6225730476,-4.2713704382 C 0.771476017,-4.1723586457 0.8577368858,-4.0375823495 0.8568879425,-3.9019313738" />
      <path d="M 0.8568879425,-3.9019313738 C 0.8574498917,-3.7800156137 0.7883072052,-3.6586160596 0.6655634526,-3.563542048" />
      <path d="M 0.6513614384,-3.5527600493 Q 0.6051449114,-3.5185862926 0.5508352439,-3.4895278283" />
      <path d="M -0.4710474201,-3.4438948189 L -0.4939418155,-3.4545027439" />
      <path d="M -0.5317592796,-3.4741612073 L -0.5390656345,-3.4783041617" />
      <path d="M -0.5679592311,-3.4959552821 Q -0.6528359495,-3.55124454 -0.6980420104,-3.6195136082" />
      <path d="M -0.7088780537,-3.6371647664 Q -0.743015275,-3.6974571956 -0.7431122024,-3.7607225611" />
      <path d="M -0.7431122024,-3.7607225611 C -0.7439611791,-3.8728383476 -0.6577007323,-3.9840799822 -0.5087976129,-4.0595570267 C -0.3610951048,-4.1357432318 -0.1528439161,-4.174927615 0.0568877295,-4.1626585977 C 0.2666193737,-4.1513924886 0.4748706018,-4.0886733061 0.6225731276,-3.9889525847 C 0.7714762681,-3.8899410514 0.8577366916,-3.7551643863 0.8568877118,-3.6195133917" />
      <path d="M 0.8568877118,-3.6195133917 Q 0.8568119163,-3.5476722642 0.8265964824,-3.4783043286" />
      <path d="M -0.4710479439,-3.1614772227 L -0.4939417545,-3.1720849163" />
      <path d="M -0.5317665722,-3.1917474942 C -0.6667624853,-3.2666449 -0.7438001813,-3.3721403813 -0.7431122357,-3.4783045867" />
      <path d="M -0.7431122357,-3.4783045867 C -0.7439612321,-3.5904208417 -0.6577005678,-3.7016623585 -0.5087973305,-3.7771389883 C -0.3610946984,-3.8533247893 -0.1528435924,-3.8925093502 0.0568880074,-3.8802405956 C 0.2666195988,-3.8689747682 0.4748709091,-3.806255213 0.6225733892,-3.7065341654 C 0.7714764953,-3.6075222545 0.8577366408,-3.4727462157 0.8568876638,-3.3370953981" />
      <path d="M 0.8568876638,-3.3370953981 Q 0.8568118786,-3.2652544753 0.8265966195,-3.1958864286" />
      <path d="M -0.4710479528,-2.8790590746 L -0.4939417208,-2.8896667556" />
      <path d="M -0.5317665461,-2.9093293452 C -0.6667625685,-2.9842268325 -0.7438003375,-3.0897221338 -0.7431122927,-3.1958857945" />
      <path d="M -0.7431122927,-3.1958857945 C -0.7439611918,-3.3080017623 -0.6577009315,-3.4192432764 -0.5087984522,-3.4947203147 C -0.3610965826,-3.5709065203 -0.1528456042,-3.6100913163 0.0568863789,-3.5978225587 C 0.2666183958,-3.586556705 0.4748694141,-3.523837605 0.6225717892,-3.4241170947 C 0.7714746629,-3.3251058078 0.8577369726,-3.1903290677 0.856887932,-3.0546784043" />
      <path d="M 0.856887932,-3.0546784043 Q 0.8568120862,-2.9828367573 0.8265967855,-2.9134681681" />
      <path d="M -0.4710475894,-2.5966406722 L -0.4939416944,-2.60724851" />
      <path d="M -0.5317668232,-2.6269112982 C -0.6667626745,-2.7018089724 -0.7438000401,-2.8073045758 -0.7431120987,-2.9134685412" />
      <path d="M -0.7431120987,-2.9134685412 C -0.7486191409,-3.0993158819 -0.5000242114,-3.2751417545 -0.1647346598,-3.3095269479 C 0.1675025801,-3.3501627106 0.5538336798,-3.2438057822 0.7340958603,-3.049060838 C 0.8151024985,-2.9636189518 0.8560331234,-2.8713519078 0.8568877351,-2.7722597061" />
      <path d="M 0.8568877351,-2.7722597061 Q 0.8568119328,-2.7004182716 0.8265964342,-2.6310500903" />
      <path d="M -0.6980420097,-2.4898408046 Q -0.7429438025,-2.5581959696 -0.7431123606,-2.631049753" />
      <path d="M -0.7431123606,-2.631049753 C -0.7448991998,-2.7674019533 -0.6151745254,-2.9014750011 -0.4061807307,-2.9735226693 C -0.1992556745,-3.0472917353 0.0806484259,-3.0563984155 0.3208072478,-2.9914201478 C 0.6356922025,-2.9108604753 0.861580096,-2.7043946729 0.8568877411,-2.489841069" />
      <path d="M 0.8568877411,-2.489841069 Q 0.8568437686,-2.4272396522 0.8337894398,-2.3662831195" />
      <path d="M 0.8265964688,-2.3486319585 Q 0.7982016979,-2.2837455552 0.7452843205,-2.2250740955" />
      <path d="M -0.4710474929,-2.0318044045 L -0.4939191439,-2.0424013777" />
      <path d="M -0.5317664414,-2.0620748357 C -0.6667625252,-2.1369724319 -0.7438002042,-2.2424682324 -0.7431122077,-2.3486320229" />
      <path d="M -0.7431122077,-2.3486320229 C -0.7477933896,-2.5260705478 -0.5222253259,-2.6954469441 -0.2076392086,-2.7391355696 C 0.0325522684,-2.7756727753 0.3126216805,-2.7380760583 0.519693811,-2.635739561 C 0.7288368266,-2.5351277162 0.8586776018,-2.3724170849 0.8568878944,-2.2074225623" />
      <path d="M 0.8568878944,-2.2074225623 Q 0.8568439208,-2.1448211809 0.8337895937,-2.0838648314" />
      <path d="M 0.8265966396,-2.0662137596 Q 0.7982017314,-2.0013272508 0.7452840595,-1.9426557866" />
      <path d="M -0.4710282436,-1.7493779508 L -0.4939417238,-1.7599943843" />
      <path d="M -0.5317666963,-1.7796570589 C -0.6667628195,-1.8545546928 -0.7438001299,-1.9600499827 -0.7431122024,-2.0662143431" />
      <path d="M -0.7431122024,-2.0662143431 C -0.7422624435,-2.1483597869 -0.701445959,-2.2237089693 -0.6206627489,-2.2922618903 C -0.4405851,-2.4484862112 -0.054183293,-2.516352482 0.2782009651,-2.437109412 C 0.613636722,-2.3641246993 0.8624008957,-2.1495833273 0.8568876316,-1.9250052777" />
      <path d="M 0.8568876316,-1.9250052777 C 0.8574495099,-1.80308912 0.788307202,-1.6816892809 0.6655631908,-1.5866149946" />
      <path d="M 0.6513614377,-1.5758331865 Q 0.610238943,-1.5454214694 0.5626362244,-1.5190287341" />
      <path d="M -0.4710477722,-1.4669685357 L -0.4939417406,-1.4775763103" />
      <path d="M -0.5317665465,-1.4972388906 C -0.6667637584,-1.5721367798 -0.7438007387,-1.6776327099 -0.7431124,-1.7837967299" />
      <path d="M -0.7431124,-1.7837967299 C -0.7439614372,-1.8959125639 -0.6576991303,-2.0071544731 -0.5087962588,-2.0826309286 C -0.3610938851,-2.1588166078 -0.1528428643,-2.1980008781 0.0568891528,-2.1857319012 C 0.2666211361,-2.1744658282 0.4748721133,-2.1117462008 0.6225739837,-2.0120251642 C 0.7714764637,-1.9130132949 0.8577367261,-1.7782369501 0.8568878268,-1.6425861511" />
      <path d="M 0.8568878268,-1.6425861511 Q 0.8568438606,-1.5799849498 0.8337896293,-1.5190286974" />
      <path d="M -0.4710476989,-1.1845502861 L -0.4939414904,-1.1951580112" />
      <path d="M -0.5317665984,-1.2148207315 C -0.666762861,-1.2897177261 -0.7438001294,-1.3952139291 -0.7431121305,-1.5013777591" />
      <path d="M -0.7431121305,-1.5013777591 C -0.7439611076,-1.6134937383 -0.6577009605,-1.724734941 -0.508797854,-1.8002120149 C -0.3610953735,-1.8763982254 -0.152844064,-1.9155829422 0.0568875272,-1.9033139321 C 0.2666191269,-1.8920478491 0.4748702332,-1.8293284518 0.622572865,-1.7296078138 C 0.7714761021,-1.630596347 0.8577367652,-1.4958199921 0.8568877688,-1.3601689001" />
      <path d="M 0.8568877688,-1.3601689001 Q 0.8554868774,-1.2080236784 0.7286464125,-1.0777504514" />
      <path d="M -0.4709789871,-0.9021017926 L -0.4939416899,-0.9127400999" />
      <path d="M -0.5317665556,-0.9324027404 C -0.6667626298,-1.00730037 -0.7438001322,-1.1127954434 -0.7431121783,-1.218959522" />
      <path d="M -0.7431121783,-1.218959522 C -0.7439611582,-1.3310756794 -0.6577007343,-1.4423175056 -0.5087975935,-1.5177942005 C -0.3610950674,-1.5939800834 -0.1528438395,-1.6331644287 0.0568878043,-1.6208957002 C 0.2666194495,-1.60962988 0.4748706383,-1.5469106579 0.6225731465,-1.4471896147 C 0.771476266,-1.348177732 0.8577367124,-1.2134012612 0.8568877357,-1.0777506368" />
      <path d="M 0.8568877357,-1.0777506368 C 0.8574496328,-0.955834797 0.7883071505,-0.8344347091 0.6655629062,-0.7393602998" />
      <path d="M 0.6513617459,-0.7285789521 Q 0.6102391232,-0.6981671503 0.5626362674,-0.6717744647" />
      <path d="M -0.4710477506,-0.6197141743 L -0.4939419087,-0.6303220428" />
      <path d="M -0.5317665788,-0.6499845794 L -0.5390654207,-0.654123333" />
      <path d="M -0.567959084,-0.6717744642 C -0.6807203686,-0.7445338992 -0.7435821071,-0.8403321994 -0.7431124089,-0.9365413606" />
      <path d="M -0.7431124089,-0.9365413606 C -0.7439613521,-1.0486574838 -0.6577004847,-1.1598989284 -0.508797517,-1.2353758696 C -0.3610951382,-1.3115619713 -0.1528441409,-1.3507467425 0.0568878993,-1.3384777425 C 0.2666199343,-1.3272116672 0.474871524,-1.2644919555 0.6225736089,-1.1647711409 C 0.7714762145,-1.0657595511 0.8577367542,-0.9309829935 0.8568880207,-0.7953317209" />
      <path d="M 0.8568880207,-0.7953317209 Q 0.8568122107,-0.7234908723 0.8265965729,-0.6541233347" />
      <path d="M -0.7088780344,-0.530565567 Q -0.7430150868,-0.5908579075 -0.7431120036,-0.6541233339" />
      <path d="M -0.7431120036,-0.6541233339 C -0.7436584597,-0.7541569353 -0.6755345056,-0.8536921666 -0.5543942662,-0.9274417376 C -0.4340891865,-1.0016077681 -0.2618562722,-1.0492264506 -0.0772755914,-1.0569409374 C 0.1071218489,-1.0652918541 0.3022030488,-1.0335714861 0.4631398826,-0.9666550291 C 0.6246318967,-0.9002947067 0.7505253407,-0.7992443998 0.8118880842,-0.6843116322 C 0.8417759648,-0.6286754425 0.8567759433,-0.5715432148 0.8568880199,-0.5129149493" />
      <path d="M 0.8568880199,-0.5129149493 Q 0.8568440083,-0.4503131356 0.8337893924,-0.3893562951" />
      <path d="M -0.6980419464,-0.230496204 Q -0.7429438341,-0.2988514719 -0.743112409,-0.3717053038" />
      <path d="M -0.743112409,-0.3717053038 C -0.7458326026,-0.5243755633 -0.5813912696,-0.6731075453 -0.330228024,-0.7373368553 C -0.0816976796,-0.8043782849 0.2418882712,-0.7831069429 0.4822409128,-0.6761156942 C 0.7124332171,-0.5771733422 0.85911198,-0.4053480889 0.8568877359,-0.2304960301" />
      <path d="M 0.8568877359,-0.2304960301 C 0.8574496647,-0.108580302 0.7883072345,0.0128192706 0.6655631868,0.107893537" />
      <path d="M 0.6513616143,0.1186752072 Q 0.6051452903,0.1528488634 0.5508358253,0.1819072802" />
      <path d="M -0.6980420701,0.0519218789 Q -0.7429436342,-0.0164334141 -0.7431121783,-0.0892871448" />
      <path d="M -0.7431121783,-0.0892871448 C -0.743748388,-0.1933255693 -0.6698684286,-0.2967584857 -0.5397333333,-0.3713203585 C -0.4105471833,-0.4463830575 -0.2264704187,-0.4916722387 -0.0330035893,-0.4932920869 C 0.1903118392,-0.4962569273 0.422885631,-0.439905414 0.5898453648,-0.3383203726 C 0.7582825246,-0.2377123509 0.8579965689,-0.0935111088 0.8568877692,0.0519222349" />
      <path d="M 0.8568877692,0.0519222349 C 0.8574497133,0.1738383675 0.7883071059,0.2952379577 0.6655629161,0.3903118565" />
      <path d="M 0.6513588737,0.4010953085 Q 0.6051369707,0.4352726359 0.5508202257,0.4643335173" />
      <path d="M -0.6980421215,0.3343397616 Q -0.7429435928,0.2659847185 -0.7431121303,0.1931310919" />
      <path d="M -0.7431121303,0.1931310919 C -0.7439594533,0.0810727875 -0.6577915474,-0.0301139084 -0.5090251635,-0.1055872029 C -0.2882134075,-0.2217703535 0.0720973097,-0.246516227 0.3628853144,-0.1552296744 C 0.6566980543,-0.0682576218 0.8608409334,0.1298203551 0.8568878261,0.3343394843" />
      <path d="M 0.8568878261,0.3343394843 C 0.8574497497,0.4562577853 0.7883045655,0.5776596719 0.6655565876,0.6727347521" />
      <path d="M 0.6513615866,0.6835113145 Q 0.6051450548,0.7176851641 0.5508352767,0.7467437311" />
      <path d="M -0.4710471496,0.7923765766 L -0.4939418205,0.7817684804" />
      <path d="M -0.5317664383,0.7621059701 L -0.5390655381,0.7579670681" />
      <path d="M -0.5679591729,0.7403159356 C -0.680719786,0.6675568372 -0.7435821861,0.5717586978 -0.7431123985,0.4755500669" />
      <path d="M -0.7431123985,0.4755500669 C -0.7431110196,0.4595968359 -0.7414462093,0.4436985723 -0.7381179677,0.4278552761 C -0.7162902038,0.3204484169 -0.6143825734,0.2190867772 -0.4594337858,0.1536732192 C -0.3054375191,0.0875939132 -0.1002902082,0.0584059318 0.1015836615,0.0768634976 C 0.3035399194,0.0944508265 0.4997510856,0.159602233 0.6381612923,0.2580438041 C 0.7776436964,0.3558865151 0.8576253857,0.4859571773 0.8568876322,0.6167586128" />
      <path d="M 0.8568876322,0.6167586128 Q 0.855486924,0.7689031796 0.7286466055,0.8991762758" />
      <path d="M -0.471047436,1.0747947756 L -0.4939418977,1.0641867945" />
      <path d="M -0.5317655998,1.044524801 L -0.5390655203,1.0403854363" />
      <path d="M -0.5679591548,1.0227342625 Q -0.6528356111,0.9674452054 -0.698042116,0.8991765017" />
      <path d="M -0.7088781639,0.8815254208 Q -0.7430153244,0.8212331558 -0.7431122016,0.7579676746" />
      <path d="M -0.7431122016,0.7579676746 C -0.7439610885,0.6458512747 -0.6577012957,0.5346100635 -0.5087984167,0.4591330772 C -0.3610961535,0.3829469322 -0.1528445723,0.3437619257 0.0568871979,0.3560307711 C 0.266618987,0.3672966801 0.4748700134,0.4300162425 0.622572671,0.529736998 C 0.7714759185,0.6287485946 0.8577368796,0.7635248167 0.856887894,0.8991758955" />
      <path d="M 0.856887894,0.8991758955 Q 0.8568120916,0.9710171244 0.8265964686,1.0403852923" />
      <path d="M -0.7088780843,1.163942981 Q -0.7430152835,1.103650736 -0.7431122076,1.0403853574" />
      <path d="M -0.7431122076,1.0403853574 C -0.7439611739,0.9282694242 -0.6577007471,0.8170274852 -0.5087976577,0.7415505985 C -0.3610951795,0.6653645249 -0.152843945,0.6261802802 0.0568877668,0.6384491498 C 0.2666194785,0.6497151205 0.4748707128,0.7124342062 0.622573191,0.8121551214 C 0.7714762804,0.9111668498 0.8577367075,1.0459436294 0.8568877412,1.1815944027" />
      <path d="M 0.8568877412,1.1815944027 Q 0.8554869367,1.3337389727 0.7286464685,1.4640123069" />
      <path d="M -0.4710477353,1.6396306239 L -0.4939418247,1.6290227999" />
      <path d="M -0.5317664403,1.6093603137 C -0.6667623005,1.5344628882 -0.7438003425,1.428967164 -0.743112361,1.3228030877" />
      <path d="M -0.743112361,1.3228030877 C -0.7439613464,1.210686857 -0.6577003847,1.0994454827 -0.5087971375,1.0239687333 C -0.3610944803,0.947782825 -0.1528434539,0.9085981101 0.0568883362,0.9208670497 C 0.2666201074,0.9321330527 0.4748716895,0.9948529076 0.6225739517,1.0945739001 C 0.7714768296,1.1935857338 0.8577366222,1.328361794 0.8568877358,1.4640130431" />
      <path d="M 0.8568877358,1.4640130431 Q 0.8554870394,1.6161578201 0.7286466319,1.7464303479" />
      <path d="M -0.4710474946,1.9220488665 L -0.4939420057,1.9114408583" />
      <path d="M -0.5317665626,1.8917784193 C -0.666762711,1.8168809322 -0.7438001176,1.7113856339 -0.7431120981,1.6052218743" />
      <path d="M -0.7431120981,1.6052218743 C -0.7438490923,1.4971466274 -0.6639116334,1.3898011931 -0.5244962981,1.3146590849 C -0.3861522604,1.2389188602 -0.1900275063,1.19644298 0.0118705736,1.2015033303 C 0.2136857581,1.2056943589 0.4188059234,1.2575035673 0.572840512,1.3462013959 C 0.7278259618,1.4342338227 0.8298372427,1.5582135391 0.8518214395,1.6882725873 C 0.8551976833,1.7076028077 0.8568865146,1.7269891903 0.8568879335,1.7464317351" />
      <path d="M 0.8568879335,1.7464317351 Q 0.8560942513,1.8775411815 0.7598853109,1.9943331576" />
      <path d="M -0.7077667094,2.0131357117 Q -0.7430089218,1.9519471971 -0.7431122933,1.8876391294" />
      <path d="M -0.7431122933,1.8876391294 C -0.7470604226,1.7184877145 -0.5430683037,1.5557667118 -0.2494070917,1.5040494501 C 0.0412302601,1.448023839 0.4014265079,1.5079250325 0.6223455949,1.6592571006 C 0.7698888598,1.7573101802 0.8560692853,1.8904579178 0.8568635557,2.0248312707" />
      <path d="M -0.6803693861,2.0045334901 C -0.5511798437,1.8343849091 -0.1967305002,1.7309064611 0.146139558,1.7760965041 C 0.3424771787,1.7997996492 0.5291505765,1.8685262531 0.6587516351,1.9676362714" />
      <path d="M 0.6223455949,-5.4011953849 L 0.4884430203,-5.2342464618" />
      <path d="M 0.4884430203,-4.9518284105 C 0.3748155213,-5.0313088385 0.214226734,-5.0820840352 0.0528851134,-5.0929262444 C -0.1206112343,-5.1055096882 -0.2917775471,-5.0716570092 -0.4047197445,-5.0065773149 C -0.5002118419,-4.9524592729 -0.5541282173,-4.877701062 -0.5536630167,-4.8026391903" />
      <path d="M -0.5497254292,-4.7668764211 Q -0.5372411263,-4.710943792 -0.4884554426,-4.6613935154" />
      <path d="M 0.4997105714,-4.6613934981 Q 0.5652261481,-4.7091931963 0.6067470973,-4.7668369054" />
      <path d="M 0.6402808832,-4.8239789798 Q 0.6593449915,-4.8652446093 0.6650669161,-4.9080461" />
      <path d="M 0.5950434039,-5.1362679429 Q 0.552285748,-5.1899053215 0.4884430203,-5.2342464618" />
      <path d="M 0.4884430203,-4.6694102652 C 0.3797189765,-4.7453708913 0.2282845788,-4.7952382103 0.0740634632,-4.8088139646 C -0.1907688211,-4.8350166246 -0.4481173737,-4.7465682571 -0.5247397041,-4.6159887602" />
      <path d="M -0.5497302684,-4.4843939119 Q -0.5372368132,-4.4284806131 -0.4884553593,-4.3789754158" />
      <path d="M 0.1274196889,-4.237766501 Q 0.3055016008,-4.263492528 0.4447562392,-4.3432097383" />
      <path d="M 0.499710493,-4.3789754005 Q 0.5652258853,-4.4267764996 0.6067468061,-4.4844192254" />
      <path d="M 0.6402809948,-4.5415610317 Q 0.6593450846,-4.5828260649 0.6650670203,-4.6256271501" />
      <path d="M 0.6674449028,-4.6613932054 C 0.6681124822,-4.7677255298 0.6021792155,-4.8734784572 0.4884430203,-4.9518284105" />
      <path d="M 0.4884430203,-4.3869921119 C 0.3573391545,-4.479078251 0.1626183666,-4.5318861869 -0.0221110027,-4.530603757 C -0.2071604711,-4.5307455861 -0.3782609455,-4.4772792068 -0.4710477774,-4.3952700243" />
      <path d="M -0.4466027315,-4.0607916525 Q -0.3386539789,-3.9827029888 -0.1628555344,-3.9553482864" />
      <path d="M 0.1274212991,-3.9553482953 Q 0.3055751334,-3.9811018375 0.4447530252,-4.0607898361" />
      <path d="M 0.4997105125,-4.0965574148 Q 0.5652495575,-4.144380224 0.6067470585,-4.2020006989" />
      <path d="M 0.640280839,-4.2591426715 Q 0.6593443617,-4.3004061617 0.6650669023,-4.3432097472" />
      <path d="M 0.5950432687,-4.5714320275 Q 0.5522690689,-4.6250843833 0.4884430203,-4.6694102652" />
      <path d="M 0.4884430203,-4.1045741357 C 0.3610330641,-4.193971203 0.1738462114,-4.2464917022 -0.0061723016,-4.2481070337 C -0.1864146864,-4.2509990381 -0.3559855899,-4.203245553 -0.4542057625,-4.1266222987 C -0.4843936118,-4.1033415152 -0.5079049151,-4.0781849189 -0.5247396725,-4.0511525099" />
      <path d="M 0.4997104627,-3.8141391426 Q 0.5652594074,-3.8619715928 0.6067471079,-3.9195825902" />
      <path d="M 0.6294313896,-3.9553482888 Q 0.6578057372,-4.0066739546 0.6650669006,-4.0607917721" />
      <path d="M 0.6674447077,-4.0965574365 C 0.6681328239,-4.2028557575 0.6021479157,-4.3086831348 0.4884430203,-4.3869921119" />
      <path d="M 0.4884430203,-3.8221559106 C 0.3573097695,-3.9142508361 0.1626670675,-3.9670372409 -0.0220898497,-3.965767626 C -0.2071610568,-3.9659242468 -0.3783338694,-3.9124029325 -0.4710480288,-3.8304336653" />
      <path d="M 0.4997105097,-3.5317211715 Q 0.565247468,-3.5795419019 0.6067471861,-3.6371646324" />
      <path d="M 0.6402809092,-3.6943065888 Q 0.659344393,-3.7355700629 0.6650669173,-3.7783736338" />
      <path d="M 0.6674447109,-3.81413918 C 0.6681285429,-3.920445387 0.6021528743,-4.0262585954 0.4884430203,-4.1045741357" />
      <path d="M 0.4884430203,-3.5397378878 C 0.3606453293,-3.6294136218 0.1727066902,-3.6819630466 -0.0078128994,-3.6832903627 C -0.1885634597,-3.6859101098 -0.3583457195,-3.6375611832 -0.4560248465,-3.5603778423 C -0.485334871,-3.5374826684 -0.5082338728,-3.5127986898 -0.524721852,-3.4863259067" />
      <path d="M -0.4465948113,-3.2135432152 Q -0.3385727831,-3.1354052243 -0.1628237232,-3.1080987968" />
      <path d="M 0.1274209952,-3.1080939793 Q 0.3055218517,-3.1338269961 0.4447563441,-3.2135374222" />
      <path d="M 0.6674449743,-3.5317215056 C 0.6681198349,-3.6380427314 0.6021669677,-3.7438193515 0.4884430203,-3.8221559106" />
      <path d="M 0.4884430203,-3.2573197782 C 0.2774679781,-3.4095751253 -0.1006294824,-3.4423119369 -0.3315937543,-3.3467098774 C -0.4708566642,-3.2928561447 -0.554721559,-3.2009878953 -0.5536691741,-3.1080939756" />
      <path d="M -0.4466027523,-2.9311192477 Q -0.3385738483,-2.8529962699 -0.1628539449,-2.8256756278" />
      <path d="M 0.1274238382,-2.8256763948 Q 0.3054910439,-2.8513997156 0.4447527331,-2.9311171701" />
      <path d="M 0.667444716,-3.2493030662 C 0.668104495,-3.3556523583 0.6021822837,-3.4613835516 0.4884430203,-3.5397378878" />
      <path d="M 0.4884430203,-2.9749015734 C 0.3746090053,-3.0545377707 0.2135356699,-3.1053627125 0.0519737845,-3.1160627719 C -0.1095961464,-3.12758545 -0.2696450055,-3.0989963979 -0.381596805,-3.0420406613 C -0.4911504186,-2.9873050728 -0.5542909827,-2.9067440961 -0.5536691747,-2.825675944" />
      <path d="M -0.4466027213,-2.6487011456 Q -0.338533595,-2.5705634854 -0.1628547383,-2.543257911" />
      <path d="M 0.127420885,-2.5432577295 Q 0.305553436,-2.569002197 0.4447562511,-2.6487011422" />
      <path d="M 0.6674447052,-2.9668849011 C 0.6680954545,-3.0732436689 0.602199275,-3.1789477214 0.4884430203,-3.2573197782" />
      <path d="M 0.4884430203,-2.6924835234 C 0.3372443456,-2.7991048878 0.1018276741,-2.8515929618 -0.1055465838,-2.8324014305 C -0.301354762,-2.8163253036 -0.4646522755,-2.7384954344 -0.5247400523,-2.6390618236" />
      <path d="M -0.446598975,-2.3662803324 Q -0.3386394018,-2.288187489 -0.1628558418,-2.2608397309" />
      <path d="M 0.4997097559,-2.4020484142 Q 0.5652426299,-2.4498647637 0.6067471567,-2.507491986" />
      <path d="M 0.6402810759,-2.5646340848 Q 0.6593442535,-2.6058973479 0.6650669154,-2.648701501" />
      <path d="M 0.6674447092,-2.6844668641 C 0.6680942475,-2.7908342594 0.6021887571,-2.8965393639 0.4884430203,-2.9749015734" />
      <path d="M 0.4884430203,-2.4100654691 C 0.288999134,-2.553313693 -0.0600737379,-2.5923528422 -0.292636989,-2.5133310315 C -0.4543156504,-2.4620946864 -0.555147294,-2.3622536422 -0.5536691692,-2.2608397147" />
      <path d="M 0.6674447091,-2.4020487441 C 0.668112997,-2.5083783735 0.6021778207,-2.6141381494 0.4884430203,-2.6924835234" />
      <path d="M 0.4884430203,-2.1276473485 C 0.2985677115,-2.2634824422 -0.0267405484,-2.3067942283 -0.2582041762,-2.2410960386 C -0.4391695976,-2.1933386057 -0.5554732734,-2.0871800001 -0.5536689896,-1.9784173242" />
      <path d="M -0.5497314441,-1.9426366038 Q -0.5372399218,-1.88672974 -0.4884554833,-1.837212719" />
      <path d="M 0.5950052216,-2.3121104429 Q 0.5522625385,-2.3657215221 0.4884430203,-2.4100654691" />
      <path d="M 0.4884430203,-1.8452292831 C 0.343263475,-1.9474433548 0.1206244611,-2.000286514 -0.0805615512,-1.986989187 C -0.3511718569,-1.9731193687 -0.5585316247,-1.8392475993 -0.5536681444,-1.6960047285" />
      <path d="M -0.5497351784,-1.6602404541 Q -0.5372424686,-1.6042985149 -0.4884554324,-1.5547944011" />
      <path d="M 0.4997105297,-1.5547944387 Q 0.5652221113,-1.602590523 0.6067468648,-1.6602381941" />
      <path d="M 0.6513616426,-1.744642189 Q 0.6612415481,-1.7727588804 0.6650669675,-1.8014463248" />
      <path d="M 0.5950425326,-2.0296694477 Q 0.5522835559,-2.0833073599 0.4884430203,-2.1276473485" />
      <path d="M 0.4884430203,-1.5628111824 C 0.370487132,-1.6453976715 0.2016363678,-1.6968674812 0.0342779607,-1.7050398394 C -0.133139961,-1.7141578768 -0.29662129,-1.6800717036 -0.4054565866,-1.6171394054 C -0.5004912242,-1.5631187774 -0.5541130835,-1.4885505981 -0.5536691682,-1.4135854625" />
      <path d="M 0.49971048,-1.2723763489 Q 0.5652268423,-1.3201769362 0.6067471049,-1.3778196737" />
      <path d="M 0.6294313651,-1.4135852967 Q 0.6578059525,-1.4649116661 0.6650669267,-1.5190289159" />
      <path d="M 0.5950437164,-1.7472505493 Q 0.552283115,-1.8008907476 0.4884430203,-1.8452292831" />
      <path d="M 0.4884430203,-1.280393044 C 0.4182568499,-1.3286772918 0.336107707,-1.3653411944 0.2419955917,-1.3903847517 C 0.0701373475,-1.4366061662 -0.1259974915,-1.4341496756 -0.276678108,-1.3886040553 C -0.4285315598,-1.3441231085 -0.5320056954,-1.2577001354 -0.5501956426,-1.1647848971 C -0.5513508117,-1.1535745037 -0.5525059809,-1.1423641103 -0.55366115,-1.1311537168" />
      <path d="M -0.5497151526,-1.0953697191 Q -0.5372178552,-1.0394315603 -0.4884539923,-0.9899597293" />
      <path d="M 0.5950432159,-1.4648328985 Q 0.5522884986,-1.5184677035 0.4884430203,-1.5628111824" />
      <path d="M 0.4884430203,-0.9979749805 C 0.3495756265,-1.0956956519 0.1391495282,-1.148721878 -0.0548949073,-1.1409660932 C -0.2494964738,-1.1349832351 -0.4224018848,-1.0688557102 -0.501229037,-0.9762110563 C -0.5359727414,-0.9359202565 -0.5534527804,-0.8934329474 -0.5536691541,-0.8487491291" />
      <path d="M -0.5497357843,-0.8129834703 Q -0.5379980504,-0.7603406988 -0.4939417188,-0.7132269774" />
      <path d="M 0.4997105439,-0.7075400772 Q 0.5652481667,-0.7553615304 0.6067470532,-0.8129834575" />
      <path d="M 0.6402809533,-0.8701257463 Q 0.6593444705,-0.9113894631 0.6650669036,-0.9541926132" />
      <path d="M 0.6674447102,-0.9899582626 Q 0.6668801557,-1.0914306864 0.595043536,-1.1824145219" />
      <path d="M 0.5136910313,-1.26185387 L 0.4884430203,-1.280393044" />
      <path d="M 0.4884430203,-0.7155568393 C 0.2995978159,-0.8506086317 -0.0232593821,-0.8943320756 -0.2544946667,-0.829997019 C -0.3452704517,-0.8055372466 -0.4174548047,-0.7701498287 -0.4710477256,-0.7238347652" />
      <path d="M 0.6674445102,-0.7075398981 C 0.6681053513,-0.8138836439 0.6021866631,-0.9196180303 0.4884430203,-0.9979749805" />
      <path d="M 0.4884430203,-0.4331386518 C 0.4233010247,-0.4780253015 0.3474956056,-0.5129361103 0.261026763,-0.5378710782 C 0.0002373559,-0.6159053098 -0.317182544,-0.5708222562 -0.4606890818,-0.4500849943 C -0.4878002022,-0.4282118091 -0.5091504145,-0.4047558286 -0.5247397187,-0.3797170527" />
      <path d="M 0.4997105112,-0.142703979 Q 0.5652405042,-0.1905177125 0.6067471072,-0.2481473087" />
      <path d="M 0.6294313707,-0.2839129453 Q 0.6578024865,-0.3352287355 0.665066903,-0.3893563332" />
      <path d="M 0.5136906859,-0.6970178836 L 0.4884430203,-0.7155568393" />
      <path d="M 0.4884430203,-0.1507207074 C 0.3694759027,-0.2339942895 0.1990824407,-0.2855380849 0.0303104414,-0.2931470173 C -0.219461241,-0.3069748401 -0.4519614015,-0.2202708504 -0.5247389633,-0.097299478" />
      <path d="M 0.1274250135,0.280923083 Q 0.3055547061,0.2551789423 0.4447558138,0.1754797189" />
      <path d="M 0.6674447452,-0.1427041123 C 0.6680931891,-0.2490841352 0.6021811086,-0.3547790455 0.4884430203,-0.4331386518" />
      <path d="M 0.4884430203,0.1316974211 C 0.3989697771,0.0693493853 0.2809041554,0.0242722935 0.1558141699,0.002966805 C -0.0879491975,-0.0407349647 -0.3496317206,0.0141222528 -0.4710468857,0.1234192137" />
      <path d="M -0.5247397076,0.1851191029 Q -0.5535843477,0.2317169685 -0.5536692796,0.2809231217" />
      <path d="M -0.4466016806,0.4578986925 Q -0.338677218,0.535978896 -0.1628562303,0.5633412938" />
      <path d="M 0.1274098947,0.5633428412 Q 0.3054819312,0.5376227548 0.4447561591,0.4578979535" />
      <path d="M 0.4997097228,0.4221328167 Q 0.5652421984,0.3743138199 0.6067320935,0.316709842" />
      <path d="M 0.6294312078,0.2809235849 Q 0.6578054808,0.2295984754 0.6650669033,0.1754798042" />
      <path d="M 0.6674447095,0.139714141 C 0.6681313491,0.0334119002 0.6021482173,-0.0724104783 0.4884430203,-0.1507207074" />
      <path d="M 0.4884430203,0.4141155694 C 0.324574595,0.2981278972 0.0614264339,0.2472973079 -0.1570788816,0.2800816416 C -0.3912059324,0.3115470336 -0.5570200644,0.4346097922 -0.5536692016,0.5633413333" />
      <path d="M 0.1274211228,0.845759373 Q 0.3053673722,0.8200801185 0.4447533795,0.7403183564" />
      <path d="M 0.4997105894,0.7045503401 Q 0.5652652206,0.6567108619 0.6067468284,0.5991065843" />
      <path d="M 0.6294248142,0.5633532324 Q 0.6577987825,0.5120365149 0.6650645955,0.4579195695" />
      <path d="M 0.6674448714,0.4221322742 C 0.6681406671,0.3158504529 0.6021338066,0.2099859421 0.4884430203,0.1316974211" />
      <path d="M 0.4884430203,0.6965335531 C 0.3449585096,0.5955317422 0.125791677,0.5426544953 -0.073588106,0.5543736025 C -0.3473076105,0.5664147199 -0.5586778367,0.7011875811 -0.553669305,0.8457593331" />
      <path d="M -0.5497353917,0.8815272893 Q -0.538010164,0.9341458465 -0.493941666,0.98128174" />
      <path d="M 0.4996917249,0.9869548176 Q 0.5652149703,0.9391415832 0.6067469076,0.8815248086" />
      <path d="M 0.640266298,0.8243724298 Q 0.6593334288,0.7830515969 0.6650535011,0.7402154666" />
      <path d="M 0.6674282601,0.7044880012 C 0.6681077166,0.5982307659 0.6022097284,0.4925646088 0.4884430203,0.4141155694" />
      <path d="M 0.4884430203,0.9789517943 C 0.2779613168,0.8270851357 -0.0988658414,0.7940449237 -0.3300097316,0.8889435511 C -0.4702818344,0.9428568094 -0.5546635181,1.0348160793 -0.5536470274,1.1281321154" />
      <path d="M 0.667444707,0.9869684998 C 0.6680849483,0.8805779588 0.6021970152,0.7749114 0.4884430203,0.6965335531" />
      <path d="M 0.4884430203,1.2613697954 C 0.2713054908,1.1042551395 -0.1225758958,1.0753987221 -0.3513810364,1.1801242384 C -0.4790622925,1.2348419135 -0.5545270251,1.3222855619 -0.5536480762,1.4105143367" />
      <path d="M -0.5497135368,1.446260792 Q -0.5372374085,1.5022209474 -0.4884551792,1.5518044265" />
      <path d="M 0.6674447071,1.2693865197 C 0.668132856,1.1630911202 0.6021513034,1.0572632065 0.4884430203,0.9789517943" />
      <path d="M 0.4884430203,1.5437879007 C 0.3526111743,1.448369664 0.1491792153,1.3954586178 -0.0413999713,1.4004131131 C -0.303846614,1.4038438598 -0.5222336878,1.5191983686 -0.5493931892,1.6557290948 C -0.5522425139,1.6681072421 -0.5536678411,1.6805354291 -0.5536691706,1.6930136559" />
      <path d="M -0.5497353583,1.7287813348 Q -0.5372531059,1.7846964956 -0.4884553984,1.8342227884" />
      <path d="M -0.4466026981,1.8699885092 Q -0.4014605124,1.9029838904 -0.3409038499,1.9278970689" />
      <path d="M 0.6674447356,1.5518046362 C 0.6681091897,1.4454694434 0.6021835351,1.3397220447 0.4884430203,1.2613697954" />
      <path d="M 0.4884430203,1.8262060237 C 0.326217344,1.7112998255 0.0657609785,1.6601590129 -0.1514381566,1.6913866795 C -0.384729783,1.7212962507 -0.5524435724,1.8419721334 -0.5535690271,1.9697140693" />
      <path d="M 0.6402793626,1.9540543507 Q 0.6593380836,1.9127960677 0.6650648364,1.8699730275" />
      <path d="M 0.6674437769,1.834224514 C 0.668081994,1.7278134679 0.6021927651,1.6221719141 0.4884430203,1.5437879007" />
      <path d="M 0.5950433919,1.9241845352 Q 0.5523008762,1.8705608153 0.4884430203,1.8262060237" />
      <line x1="1.2652233356" y1="2.9041891471" x2="-0.7270131045" y2="4.081902441" />
      <line x1="0.7932985518" y1="3.4655862274" x2="-0.2550883206" y2="4.0853415595" />
      <line x1="-0.6795230183" y1="3.8348397971" x2="0.3688638541" y2="3.215084465" />
      <line x1="0.4884430203" y1="1.8262060237" x2="0.4884430203" y2="1.8683831203" />
      <line x1="0.4884430203" y1="1.5437879007" x2="0.4884430203" y2="1.6153192948" />
      <line x1="0.4884430203" y1="1.2613697954" x2="0.4884430203" y2="1.3329012435" />
      <line x1="0.4884430203" y1="0.9789517943" x2="0.4884430203" y2="1.0504830982" />
      <line x1="0.4884430203" y1="0.6965335531" x2="0.4884430203" y2="0.7680649449" />
      <line x1="0.4884430203" y1="0.4141155694" x2="0.4884430203" y2="0.4856469687" />
      <line x1="0.4884430203" y1="0.1316974211" x2="0.4884430203" y2="0.2032287436" />
      <line x1="0.4884430203" y1="-0.1507207074" x2="0.4884430203" y2="-0.0791892792" />
      <line x1="0.4884430203" y1="-0.4331386518" x2="0.4884430203" y2="-0.3616073888" />
      <line x1="0.4884430203" y1="-0.7155568393" x2="0.4884430203" y2="-0.7086819745" />
      <line x1="0.4884430203" y1="-0.9979749805" x2="0.4884430203" y2="-0.9910999879" />
      <line x1="0.4884430203" y1="-0.9557977255" x2="0.4884430203" y2="-0.9264436436" />
      <line x1="0.4884430203" y1="-1.280393044" x2="0.4884430203" y2="-1.2382158909" />
      <line x1="0.4884430203" y1="-1.5628111824" x2="0.4884430203" y2="-1.5206341241" />
      <line x1="0.4884430203" y1="-1.8452292831" x2="0.4884430203" y2="-1.8030519613" />
      <line x1="0.4884430203" y1="-2.1276473485" x2="0.4884430203" y2="-2.0561159846" />
      <line x1="0.4884430203" y1="-2.4100654691" x2="0.4884430203" y2="-2.3678882712" />
      <line x1="0.4884430203" y1="-2.6924835234" x2="0.4884430203" y2="-2.6209521865" />
      <line x1="0.4884430203" y1="-2.9749015734" x2="0.4884430203" y2="-2.9033703277" />
      <line x1="0.4884430203" y1="-3.2573197782" x2="0.4884430203" y2="-3.1857885152" />
      <line x1="0.4884430203" y1="-3.5397378878" x2="0.4884430203" y2="-3.4682064596" />
      <line x1="0.4884430203" y1="-3.8221559106" x2="0.4884430203" y2="-3.7506245881" />
      <line x1="0.4884430203" y1="-4.1045741357" x2="0.4884430203" y2="-4.0330427364" />
      <line x1="0.4884430203" y1="-4.3869921119" x2="0.4884430203" y2="-4.3154607201" />
      <line x1="0.4884430203" y1="-4.6694102652" x2="0.4884430203" y2="-4.5978789613" />
      <line x1="0.4884430203" y1="-4.9518284105" x2="0.4884430203" y2="-4.8802969624" />
      <line x1="0.4884430203" y1="-5.2342464618" x2="0.4884430203" y2="-5.1920693652" />
      <path d="M -0.3285807961,-5.412600368 C -0.320305204,-5.4137273395 -0.3232867393,-5.4132781753 -0.2807884613,-5.4205888657 C -0.2611594427,-5.4239315553 -0.2177988765,-5.4303241482 -0.1722656131,-5.4326485196 C -0.1249225813,-5.4353168548 -0.0755234527,-5.4343876603 -0.0240682275,-5.4298609361 C 0.1612436402,-5.4139699279 0.3567552486,-5.3439967718 0.4884430203,-5.2342463178" />
      <path d="M -0.3285807961,-5.412600368 L -0.3285807961,-5.4479026304" />
      <path d="M -0.3285807961,-5.4479026304 C -0.3262069417,-5.4497455405 -0.3182004514,-5.4542728325 -0.3045613253,-5.4614845065 C -0.2947333638,-5.4662345578 -0.2757882327,-5.4765861016 -0.2274737154,-5.4935092645 C -0.1015784259,-5.5373558458 0.0631367319,-5.5532559636 0.208132186,-5.5332705054" />
      <path d="M -0.5536691762,-5.2257843981 A 0.610556942922154,0.36064131315980696 0.0 0,1 0.4795019394,-5.4860688592" />
      <path d="M 0.6223456333,-5.4364976242 Q 0.4714493999,-5.5004463835 0.2957109949,-5.5221457572" />
      <path d="M 0.2957109949,-5.5221457572 C 0.0707591186,-5.5503375874 -0.1596496192,-5.5188609342 -0.3285807961,-5.4479026304" />
      <path d="M 0.6223456333,-5.4011953618 C 0.3299381131,-5.5299371732 -0.0749506125,-5.5229365893 -0.3285807961,-5.412600368" />
      <path d="M 0.7932985518,3.4655862274 A 0.8,0.4725407742429537 0.0 0,1 -0.2550883206,4.0853415595" />
      <path d="M -0.6795230183,3.8348397971 A 0.8,0.4725407742429537 0.0 0,1 0.3688638541,3.215084465" />
      <path d="M -0.6165968654,4.1723072063 C -0.4005390352,4.2505356036 -0.1618126957,4.2884309371 0.0766576927,4.286238766 C 0.210104584,4.2849948012 0.3412571445,4.2712932508 0.4701153744,4.2451341146 C 0.7308390523,4.1916371728 0.9728705799,4.0883084192 1.1687058116,3.9277340439 C 1.2544232241,3.8578048113 1.3300079021,3.7762693882 1.3954598454,3.6831277745 C 1.4475217001,3.6083391645 1.4915063566,3.5273893681 1.5274138148,3.4402783854 C 1.5989098601,3.2679168003 1.634626396,3.0801310931 1.653603116,2.9038307021" />
      <path d="M -1.1115546986,3.8783367852 Q -1.1927663945,3.8033291028 -1.2602930457,3.7128239764 Q -1.3528245883,3.5882085729 -1.4141700066,3.4389898781 Q -1.4569223626,3.3343205579 -1.4843429363,3.2244555898 Q -1.5238716805,3.0623720918 -1.5398275825,2.9038307021" />
      <path d="M 0.8568876639,-5.0316037518 L 0.8568876639,-5.0669060142" />
      <path d="M -0.7431122353,-4.8903945655 L -0.7431122353,-4.9256968279" />
      <path d="M 0.8568877118,-4.7491857587 L 0.8568877118,-4.7844880211" />
      <path d="M -0.7431122022,-4.6079765895 L -0.7431122022,-4.6432788519" />
      <path d="M 0.8568879424,-4.4667677794 L 0.8568879424,-4.5020700419" />
      <path d="M -0.7431124872,-4.3255591967 L -0.7431124872,-4.3608614591" />
      <path d="M 0.8568875371,-4.1843495746 L 0.8568875371,-4.2196518371" />
      <path d="M -0.7431124864,-4.0431399513 L -0.7431124864,-4.0784422137" />
      <path d="M 0.8568879425,-3.9019313738 L 0.8568879425,-3.9372336363" />
      <path d="M -0.7431122024,-3.7607225611 L -0.7431122024,-3.7960248235" />
      <path d="M 0.8568877118,-3.6195133917 L 0.8568877118,-3.6548156541" />
      <path d="M -0.7431122357,-3.4783045867 L -0.7431122357,-3.5136068491" />
      <path d="M 0.8568876638,-3.3370953981 L 0.8568876638,-3.3723976605" />
      <path d="M -0.7431122927,-3.1958857945 L -0.7431122927,-3.231188057" />
      <path d="M 0.856887932,-3.0546784043 L 0.856887932,-3.0899806667" />
      <path d="M -0.7431120987,-2.9134685412 L -0.7431120987,-2.9487708036" />
      <path d="M 0.8568877351,-2.7722597061 L 0.8568877351,-2.8075619685" />
      <path d="M -0.7431123606,-2.631049753 L -0.7431123606,-2.6663520154" />
      <path d="M 0.8568877411,-2.489841069 L 0.8568877411,-2.5251433314" />
      <path d="M -0.7431122077,-2.3486320229 L -0.7431122077,-2.3839342853" />
      <path d="M 0.8568878944,-2.2074225623 L 0.8568878944,-2.2427248247" />
      <path d="M -0.7431122024,-2.0662143431 L -0.7431122024,-2.1015166055" />
      <path d="M 0.8568876316,-1.9250052777 L 0.8568876316,-1.9603075401" />
      <path d="M -0.7431124,-1.7837967299 L -0.7431124,-1.8190989924" />
      <path d="M 0.8568878268,-1.6425861511 L 0.8568878268,-1.6778884135" />
      <path d="M -0.7431121305,-1.5013777591 L -0.7431121305,-1.5366800215" />
      <path d="M 0.8568877688,-1.3601689001 L 0.8568877688,-1.3954711625" />
      <path d="M -0.7431121783,-1.218959522 L -0.7431121783,-1.2542617845" />
      <path d="M 0.8568877357,-1.0777506368 L 0.8568877357,-1.1130528992" />
      <path d="M -0.7431124089,-0.9365413606 L -0.7431124089,-0.971843623" />
      <path d="M 0.8568880207,-0.7953317209 L 0.8568880207,-0.8306339833" />
      <path d="M -0.7431120036,-0.6541233339 L -0.7431120036,-0.6894255963" />
      <path d="M 0.8568880199,-0.5129149493 L 0.8568880199,-0.5482172117" />
      <path d="M -0.743112409,-0.3717053038 L -0.743112409,-0.4070075662" />
      <path d="M 0.8568877359,-0.2304960301 L 0.8568877359,-0.2657982925" />
      <path d="M -0.7431121783,-0.0892871448 L -0.7431121783,-0.1245894072" />
      <path d="M 0.8568877692,0.0519222349 L 0.8568877692,0.0166199725" />
      <path d="M -0.7431121303,0.1931310919 L -0.7431121303,0.1578288294" />
      <path d="M 0.8568878261,0.3343394843 L 0.8568878261,0.2990372219" />
      <path d="M -0.7431123985,0.4755500669 L -0.7431123985,0.4402478044" />
      <path d="M 0.8568876322,0.6167586128 L 0.8568876322,0.5814563504" />
      <path d="M -0.7431122016,0.7579676746 L -0.7431122016,0.7226654122" />
      <path d="M 0.856887894,0.8991758955 L 0.856887894,0.863873633" />
      <path d="M -0.7431122076,1.0403853574 L -0.7431122076,1.005083095" />
      <path d="M 0.8568877412,1.1815944027 L 0.8568877412,1.1462921402" />
      <path d="M -0.743112361,1.3228030877 L -0.743112361,1.2875008253" />
      <path d="M 0.8568877358,1.4640130431 L 0.8568877358,1.4287107806" />
      <path d="M -0.7431120981,1.6052218743 L -0.7431120981,1.5699196119" />
      <path d="M 0.8568879335,1.7464317351 L 0.8568879335,1.7111294726" />
      <path d="M -0.7431122933,1.8876391294 L -0.7431122933,1.852336867" />
      <path d="M 0.8568876639,2.0248394921 L 0.8568876639,1.9935464713" />
      <line x1="-0.5536691762" y1="1.7645450454" x2="-0.5536691762" y2="1.6930136484" />
      <line x1="0.6674447097" y1="1.6233359661" x2="0.6674447097" y2="1.5518046372" />
      <line x1="-0.5536691762" y1="1.4821270149" x2="-0.5536691762" y2="1.4105956425" />
      <line x1="-0.5536691762" y1="0.9172907921" x2="-0.5536691762" y2="0.8457593807" />
      <line x1="0.6674447097" y1="0.7760816801" x2="0.6674447097" y2="0.704550298" />
      <line x1="-0.5536691762" y1="0.634872674" x2="-0.5536691762" y2="0.5633413425" />
      <line x1="0.6674447097" y1="0.4936636717" x2="0.6674447097" y2="0.4221322659" />
      <line x1="0.6674447097" y1="0.2112454956" x2="0.6674447097" y2="0.1397141525" />
      <line x1="0.6674447097" y1="-0.071172579" x2="0.6674447097" y2="-0.142703967" />
      <line x1="0.6674447097" y1="-0.6360088301" x2="0.6674447097" y2="-0.7075401092" />
      <line x1="-0.5536691762" y1="-0.7772177475" x2="-0.5536691762" y2="-0.8487491442" />
      <line x1="0.6674447097" y1="-0.9184269806" x2="0.6674447097" y2="-0.9899582539" />
      <line x1="-0.5536691762" y1="-1.0596359794" x2="-0.5536691762" y2="-1.1311673062" />
      <line x1="-0.5536691762" y1="-1.3420539956" x2="-0.5536691762" y2="-1.413585449" />
      <line x1="-0.5536691762" y1="-1.6244721056" x2="-0.5536691762" y2="-1.6960034158" />
      <line x1="-0.5536691762" y1="-1.906890297" x2="-0.5536691762" y2="-1.978421598" />
      <line x1="0.6674447097" y1="-2.8953535736" x2="0.6674447097" y2="-2.9668848933" />
      <line x1="-0.5536691762" y1="-3.0365625765" x2="-0.5536691762" y2="-3.1080939764" />
      <line x1="0.6674447097" y1="-3.1777717343" x2="0.6674447097" y2="-3.2493030662" />
      <line x1="0.6674447097" y1="-3.4601897255" x2="0.6674447097" y2="-3.5317211734" />
      <line x1="0.6674447097" y1="-3.7426078657" x2="0.6674447097" y2="-3.814139173" />
      <line x1="0.6674447097" y1="-4.0250260258" x2="0.6674447097" y2="-4.0965574235" />
      <line x1="0.6674447097" y1="-4.3074439907" x2="0.6674447097" y2="-4.3789753877" />
      <line x1="-0.5536691762" y1="-4.4486532217" x2="-0.5536691762" y2="-4.5201844983" />
      <line x1="-0.5536691762" y1="-4.7310711997" x2="-0.5536691762" y2="-4.8026025931" />
      <line x1="-0.5536691762" y1="-5.0134893237" x2="-0.5536691762" y2="-5.2257843981" />
      <path d="M 0.2081321841,-5.5332705058 L 0.2957109949,-5.5221457572" />
    </g>
  </g>
</svg>