<?xml version='1.0' encoding='utf-8'?>
<svg width="193.8212673879mm" height="513.0000000021mm" viewBox="-2.0194740185 -4.3561371223 4.0207445997 10.6419796313" version="1.1" xmlns="http://www.w3.org/2000/svg">
  <g transform="scale(1,-1)" stroke-linecap="round">
    <g fill="none" stroke="rgb(64,192,64)" stroke-width="0.02074459967106403" id="Visible">
      <path d="M 1.405202858,1.4421799837 A 2.0,1.1760377942499183 0.0 0,1 1.9868488592,2.3485101182" />
      <path d="M -2.0050522965,2.3485101182 A 2.0,1.1760377942499183 0.0 0,1 1.405202858,1.4421799837" />
      <path d="M 0.7067192106,1.1755785208 Q 0.6474671769,1.0881751615 0.5449476081,1.0182520592" />
      <path d="M 0.5449476081,1.0182520592 C 0.3991770592,0.9182378627 0.193257152,0.8549200643 -0.0137185703,0.8425511567 C -0.2081345266,0.8300563807 -0.4012184627,0.862334236 -0.5429946379,0.9277640209 C -0.6857320192,0.9925931324 -0.7759185379,1.0897948736 -0.7902570511,1.1910856736" />
      <path d="M 0.7523100221,1.1817640676 Q 0.7743527753,1.1220983857 0.7743921492,1.0609019009" />
      <path d="M 0.7743921492,1.0609019009 C 0.7752555021,0.9267134619 0.6907372422,0.7932235067 0.5449476081,0.6947130084" />
      <path d="M 0.5449476081,0.6947130084 C 0.3742422408,0.5771319084 0.1203093,0.5114374802 -0.1200048763,0.516632983 C -0.4632845267,0.5195948763 -0.752267853,0.6712150677 -0.7871813483,0.8511220529 C -0.790788445,0.8670574239 -0.7925931505,0.8830607936 -0.7925954648,0.8991321622" />
      <path d="M -0.7925954648,0.8991321622 Q -0.792490805,0.961116235 -0.7575055983,1.0199941309" />
      <path d="M -0.7282988887,1.0609016122 Q -0.6857892158,1.1116450404 -0.6186274034,1.1536191194" />
      <path d="M 0.4940441864,1.1354962966 Q 0.553171003,1.1013003024 0.6015206089,1.0609015849" />
      <path d="M 0.6459798521,1.019994501 Q 0.7021152767,0.9629220753 0.734432564,0.8991319342" />
      <path d="M 0.7523099116,0.8582250059 Q 0.7743501031,0.7985719402 0.7743919458,0.7373625654" />
      <path d="M 0.7743919458,0.7373625654 C 0.7753088974,0.6032583173 0.6906539956,0.4695819222 0.5449476081,0.3711741383" />
      <path d="M 0.5449476081,0.3711741383 Q 0.4408640957,0.3006014277 0.3062701339,0.2560715349" />
      <path d="M -0.7925953695,0.5755932815 Q -0.7925737575,0.6175237634 -0.7763246333,0.6584835275" />
      <path d="M -0.7613448588,0.6898189638 L -0.75750563,0.6964551531" />
      <path d="M -0.7282989812,0.7373625973 Q -0.6702963768,0.8064602664 -0.5685039171,0.8582247302" />
      <path d="M -0.4715049446,0.8991317334 C -0.2552629697,0.9761446402 0.0460448044,0.9793785382 0.2938741817,0.8991318267" />
      <path d="M 0.4025353312,0.8582246455 Q 0.5168897319,0.807849862 0.6015203084,0.7373630572" />
      <path d="M 0.6459799926,0.6964554396 Q 0.7021141915,0.6393842703 0.7344324628,0.5755931501" />
      <path d="M 0.7523099572,0.5346859671 Q 0.7634122446,0.5046738925 0.7689540349,0.4740797958" />
      <path d="M 0.7735617,0.4373980087 L 0.774391927,0.413823769" />
      <path d="M 0.774391927,0.413823769 C 0.7752777253,0.2796861121 0.6907193091,0.1461137174 0.5449476081,0.0476350421" />
      <path d="M 0.5449476081,0.0476350421 C 0.4099713161,-0.0448621872 0.2233811138,-0.1063176244 0.0320985317,-0.124423345 C -0.1591133464,-0.1433074197 -0.353419194,-0.1188211374 -0.5019293494,-0.0602436404 C -0.6840182777,0.0101032234 -0.7939091581,0.1302321158 -0.7925945587,0.2520559867" />
      <path d="M -0.7925945587,0.2520559867 Q -0.7925633475,0.2939893805 -0.7763197532,0.3349416055" />
      <path d="M -0.4715046942,0.5755930948 C -0.2557000676,0.65243646 0.0447618557,0.6558177027 0.2921225265,0.5761484093" />
      <path d="M 0.6601726657,0.3579680479 Q 0.7063745449,0.3074728644 0.734432344,0.2520542441" />
      <path d="M 0.7523098727,0.2111471196 Q 0.7743525023,0.1514809287 0.7743919276,0.0902850173" />
      <path d="M 0.7743919276,0.0902850173 C 0.7752629618,-0.0438845095 0.6907299848,-0.1774076524 0.5449476081,-0.2759040087" />
      <path d="M 0.5449476081,-0.2759040087 C 0.326807162,-0.4279226871 -0.0304278003,-0.4890124347 -0.3164180679,-0.4351440913 C -0.6002667225,-0.3863964087 -0.7963305266,-0.231979413 -0.7925954085,-0.071484483" />
      <path d="M -0.7925954085,-0.071484483 Q -0.7924888417,-0.0094884795 -0.7575044675,0.049375534" />
      <path d="M -0.7282983325,0.0902845095 Q -0.6703104046,0.1593738525 -0.5685005876,0.211145364" />
      <path d="M 0.4025317709,0.2111487877 Q 0.5170297563,0.1606874434 0.6015205702,0.0902846791" />
      <path d="M 0.6459798116,0.0493775053 Q 0.7020954008,-0.0076670576 0.734432188,-0.0714847726" />
      <path d="M 0.752305724,-0.1123823477 Q 0.774352602,-0.1720390532 0.7743882137,-0.2332617119" />
      <path d="M 0.7743882137,-0.2332617119 C 0.7752035881,-0.3675490937 0.6907648045,-0.5008765379 0.5449476081,-0.5994426818" />
      <path d="M 0.5449476081,-0.5994426818 C 0.3676419997,-0.7217753473 0.0999661348,-0.7876016073 -0.148291166,-0.7767159708 C -0.3262389896,-0.770004852 -0.4919508843,-0.7255220157 -0.6080534801,-0.6559524234 C -0.7249610146,-0.5867834048 -0.7914744528,-0.4930867944 -0.7925642298,-0.398671916 C -0.7925745707,-0.3974557667 -0.7925849116,-0.3962396174 -0.7925952525,-0.395023468" />
      <path d="M -0.7925952525,-0.395023468 Q -0.7924940683,-0.3366091743 -0.7613366385,-0.280802558" />
      <path d="M -0.471496188,-0.0714877848 C -0.2556456599,0.0053642017 0.0446269424,0.0087444758 0.2921226768,-0.0709293004" />
      <path d="M 0.402535034,-0.112391408 Q 0.5169124575,-0.1627805055 0.6015209585,-0.2332541691" />
      <path d="M 0.6459808669,-0.2741622622 Q 0.7021137432,-0.331232282 0.7344321185,-0.3950231004" />
      <path d="M 0.7523101371,-0.4359314205 Q 0.7743511842,-0.4955899746 0.7743919234,-0.5567928597" />
      <path d="M 0.7743919234,-0.5567928597 C 0.7752915424,-0.6909131168 0.6906931211,-0.8245322013 0.5449476081,-0.9229814477" />
      <path d="M 0.5449476081,-0.9229814477 C 0.3189685499,-1.0807992601 -0.0564130095,-1.1397885871 -0.3469495832,-1.0763108373 C -0.6149641105,-1.0224095178 -0.7958331889,-0.8730362485 -0.7925953712,-0.7185623382" />
      <path d="M -0.7925953712,-0.7185623382 Q -0.7925758082,-0.676639809 -0.7763246628,-0.6356719988" />
      <path d="M -0.4715052529,-0.3950234199 C -0.2552232632,-0.3180012942 0.0461177104,-0.3147891874 0.2938715229,-0.395024471" />
      <path d="M 0.4025360706,-0.4359300701 Q 0.517017765,-0.4863776608 0.6015193259,-0.5567908316" />
      <path d="M 0.6459785468,-0.5977007433 Q 0.7020905585,-0.6547474619 0.7344308366,-0.7185653005" />
      <path d="M 0.7523094649,-0.7594705576 Q 0.7743510142,-0.8191245234 0.7743919094,-0.880331807" />
      <path d="M 0.7743919094,-0.880331807 C 0.7752332042,-1.0145673847 0.6907461699,-1.1479948925 0.5449476081,-1.2465201982" />
      <path d="M -0.7925953682,-1.0421014059 Q -0.7925735006,-1.0001694596 -0.776324695,-0.9592108378" />
      <path d="M -0.471504819,-0.7185622783 C -0.2552818843,-0.6415344535 0.0461452254,-0.6383348463 0.2938682181,-0.7185643409" />
      <path d="M 0.4025283819,-0.7594726309 Q 0.5170552841,-0.8099367494 0.6015180512,-0.8803339789" />
      <path d="M 0.6459716998,-0.9212472012 Q 0.7020627723,-0.9782843459 0.7344270758,-1.0421118859" />
      <path d="M 0.7523100151,-1.0830101375 Q 0.7634104493,-1.1130113978 0.7689467611,-1.1436204115" />
      <path d="M 0.7735478262,-1.1803077089 L 0.7743756396,-1.2039042664" />
      <path d="M 0.7743756396,-1.2039042664 C 0.7752034152,-1.3381664546 0.6907807814,-1.4714669037 0.5449476081,-1.5700594405" />
      <path d="M 0.5449476081,-1.5700594405 C 0.286796482,-1.7520862824 -0.1665448801,-1.7981948711 -0.4651495694,-1.6913668416" />
      <path d="M -0.7925953618,-1.3656400192 Q -0.7925733858,-1.3237072881 -0.7763247428,-1.2827496758" />
      <path d="M -0.47150432,-1.0421011559 C -0.2552404887,-0.9650736855 0.0461945323,-0.9618754723 0.2938743238,-1.042101053" />
      <path d="M 0.4025310535,-1.0830070825 Q 0.5170477958,-1.1334812897 0.6015205476,-1.2038707523" />
      <path d="M 0.6601727333,-1.2597262657 Q 0.7063687195,-1.3102127183 0.7344327045,-1.3656406463" />
      <path d="M 0.7523099063,-1.4065473044 Q 0.7743525818,-1.4662142391 0.7743920054,-1.5274093629" />
      <path d="M 0.7743920054,-1.5274093629 C 0.7752527092,-1.6616020153 0.6907372126,-1.7950896777 0.5449476081,-1.8935980927" />
      <path d="M 0.5449476081,-1.8935980927 C 0.2866880052,-2.0756536494 -0.1665805392,-2.1217267491 -0.4651498756,-2.0149056551" />
      <path d="M -0.7925863719,-1.6892011862 Q -0.7925051862,-1.6307669824 -0.7613449359,-1.5749531644" />
      <path d="M 0.402535161,-1.4065474431 Q 0.5170684032,-1.4570295115 0.6015178332,-1.5274071299" />
      <path d="M 0.6459797213,-1.5683164985 Q 0.7021008898,-1.6253698911 0.7344324164,-1.6891788852" />
      <path d="M 0.7523099502,-1.730086124 Q 0.7743529824,-1.7897549832 0.774391928,-1.8509483405" />
      <path d="M 0.774391928,-1.8509483405 C 0.7752564997,-1.9851332247 0.6907344709,-2.1186322124 0.5449476081,-2.2171369765" />
      <path d="M 0.5449476081,-2.2171369765 C 0.2867462963,-2.3991697488 -0.1665357108,-2.4452757751 -0.4651530538,-2.3384437235" />
      <path d="M -0.792593011,-2.0127302038 Q -0.7925213288,-1.9543152498 -0.7613407041,-1.8984945349" />
      <path d="M -0.4714845507,-1.6891859603 C -0.2551371329,-1.6121215183 0.0461323246,-1.6089704286 0.2938737194,-1.6891788038" />
      <path d="M 0.4025353289,-1.7300861516 Q 0.5169067318,-1.7804715933 0.6015208698,-1.8509484559" />
      <path d="M 0.6459799973,-1.8918556666 Q 0.7021129487,-1.9489252157 0.7344323457,-2.0127178854" />
      <path d="M 0.7523099186,-2.0536252236 Q 0.7634118662,-2.0836360552 0.7689539931,-2.1142312483" />
      <path d="M 0.7735616857,-2.1509130125 L 0.7743919269,-2.1744873241" />
      <path d="M 0.7743919269,-2.1744873241 C 0.7752902909,-2.308614243 0.6906890326,-2.442228385 0.5449476081,-2.5406761002" />
      <path d="M 0.5449476081,-2.5406761002 C 0.2869220378,-2.7226576441 -0.1665062479,-2.7688315449 -0.4651443537,-2.6619847162" />
      <path d="M -0.792594859,-2.3362574637 Q -0.7925103956,-2.2778293863 -0.7613450493,-2.2220308632" />
      <path d="M -0.4715048754,-2.0127178072 C -0.2553609828,-1.9356903553 0.0462838349,-1.9324992361 0.2938649527,-2.0127206357" />
      <path d="M 0.4025308693,-2.0536267771 Q 0.5170285519,-2.1040759366 0.6015153498,-2.174491736" />
      <path d="M 0.6459715,-2.2154031016 Q 0.7020885885,-2.2724523195 0.7344322839,-2.3362566638" />
      <path d="M 0.7689356027,-2.437784972 Q 0.7743716823,-2.4678454752 0.7743738271,-2.4980824749" />
      <path d="M -0.4715054345,-2.3362567668 C -0.2553539588,-2.2592157428 0.0461740109,-2.2560644279 0.293876569,-2.3362560908" />
      <path d="M 0.4025118333,-2.377159542 Q 0.516898447,-2.4275873485 0.6014960821,-2.498046829" />
      <path d="M 0.7743926925,-2.8215647532 C 0.7752452302,-2.9557936697 0.6907324015,-3.0892314864 0.5449476081,-3.1877535536" />
      <path d="M 0.5449476081,-3.1877535536 C 0.2868252146,-3.3697869343 -0.166601252,-3.4158815108 -0.4651506487,-3.3090609215" />
      <path d="M -0.7925933962,-2.9833386618 Q -0.7925805247,-2.9414262241 -0.7763111121,-2.9004525292" />
      <path d="M -0.4714731025,-2.6598060669 C -0.2551945797,-2.582738177 0.0461738809,-2.5795899958 0.293874465,-2.6597954734" />
      <path d="M 0.6601727744,-2.8774206168 Q 0.7063636512,-2.9278999909 0.734432628,-2.9833348985" />
      <path d="M 0.7523098843,-3.0242416974 Q 0.7743525065,-3.0839085812 0.7743919526,-3.1451038387" />
      <path d="M 0.7743919526,-3.1451038387 C 0.7752446315,-3.2793027262 0.6907561318,-3.412764774 0.5449476081,-3.5112925511" />
      <path d="M 0.5449476081,-3.5112925511 Q 0.4407279896,-3.5819168341 0.3061787102,-3.6264178365" />
      <path d="M -0.7925953696,-3.3068734151 Q -0.7925719481,-3.2649334073 -0.7763246726,-3.2239829856" />
      <path d="M 0.4025351744,-3.0242417213 Q 0.5170583919,-3.0747190796 0.6015196521,-3.1451031115" />
      <path d="M 0.6459797772,-3.1860110112 Q 0.7020920126,-3.2430518713 0.7344324314,-3.3068731932" />
      <path d="M 0.7523085025,-3.3477764426 Q 0.7743519902,-3.4074413036 0.7743919294,-3.468642659" />
      <path d="M 0.7743919294,-3.468642659 C 0.7752264297,-3.6028977229 0.6907412893,-3.7363075115 0.5449476081,-3.8348315944" />
      <path d="M 0.5449476081,-3.8348315944 Q 0.440834156,-3.9054193343 0.3062696363,-3.949934004" />
      <path d="M -0.792595367,-3.6304121838 Q -0.7925159224,-3.5720065368 -0.7613450252,-3.5161863498" />
      <path d="M 0.2921220164,-3.3063182406 L 0.2938736356,-3.306873437" />
      <path d="M 0.6459764688,-3.5095457287 Q 0.7020837898,-3.5665874312 0.7344294599,-3.6304183415" />
      <path d="M 0.7523086207,-3.6713224283 Q 0.7743546423,-3.7309818665 0.7743853694,-3.7922010817" />
      <path d="M 0.7743853694,-3.7922010817 C 0.7752150632,-3.9264614315 0.6907712222,-4.0597811862 0.5449476081,-4.1583703744" />
      <path d="M 0.3062329158,-4.2734820723 C 0.0588894846,-4.3567424037 -0.2454868677,-4.3560573883 -0.4651479019,-4.2796782437" />
      <path d="M -0.792595616,-3.9539510662 Q -0.7924863724,-3.8919441518 -0.7575039156,-3.8330855953" />
      <path d="M -0.7282991339,-3.7921815577 Q -0.670291799,-3.7230815043 -0.5685038849,-3.6713195213" />
      <path d="M 0.2921242094,-3.6298565796 L 0.2938658588,-3.6304085905" />
      <path d="M 0.6459774036,-3.8330880334 Q 0.7020944772,-3.8901310802 0.7344322336,-3.953951388" />
      <path d="M 0.7689540257,-4.0554644254 Q 0.7743896542,-4.0854997076 0.7743920022,-4.1157199896" />
      <path d="M -0.7925896484,-4.2775026337 Q -0.7925026309,-4.2155260574 -0.7574999904,-4.1566352427" />
      <path d="M -0.7282954648,-4.1157248744 Q -0.6703068927,-4.0466193008 -0.5684939621,-3.9948621113" />
      <path d="M -0.4714863363,-3.9539576168 C -0.2553502693,-3.876921724 0.0462172062,-3.8737283073 0.2938740357,-3.9539510121" />
      <path d="M 0.3062779115,-4.9205486003 C 0.2511614733,-4.938724327 0.1940186233,-4.9530400014 0.1348493618,-4.9634956234 C -0.058157791,-4.9980413575 -0.2645718661,-4.9874745134 -0.429888635,-4.9379649391 C -0.5959951708,-4.8891821556 -0.7194942848,-4.8020853215 -0.7678223528,-4.7029809394 C -0.7842989661,-4.6696269896 -0.7925566591,-4.635642946 -0.7925954318,-4.6010288085" />
      <path d="M -0.7925954318,-4.6010288085 Q -0.7925720343,-4.5590903222 -0.776324668,-4.5181385272" />
      <path d="M -0.4715045412,-4.2774898434 C -0.2551065016,-4.2004339316 0.046106577,-4.1972830874 0.2938706224,-4.2774888154" />
      <path d="M 0.6601728021,-4.495115027 Q 0.7063659008,-4.5455980068 0.7344322607,-4.601028971" />
      <path d="M 0.752309765,-4.6419361248 Q 0.774352564,-4.7016031193 0.7743919928,-4.7627983827" />
      <path d="M 0.5449476081,-5.1289865857 C 0.3479868516,-5.2654874482 0.0384720341,-5.3302609046 -0.2306113252,-5.300355495 C -0.5569766196,-5.2690630711 -0.7979633901,-5.1015335873 -0.7925953833,-4.9245677038" />
      <path d="M -0.7925953833,-4.9245677038 Q -0.7924959389,-4.8626014032 -0.7575056258,-4.8037056162" />
      <path d="M -0.7282992288,-4.7627985726 Q -0.6702876823,-4.6936940054 -0.5684952952,-4.6419406385" />
      <path d="M 0.6459801189,-4.8037053989 Q 0.7021066317,-4.8607661117 0.7344323837,-4.9245677441" />
      <path d="M 0.7689539295,-5.0260811197 Q 0.7743895342,-5.0561159305 0.7743919636,-5.0863371309" />
      <path d="M 0.5449476081,-5.4525256319 C 0.4012010037,-5.5511590508 0.1985800988,-5.6142501226 -0.0055238281,-5.6276909278 C -0.2096205478,-5.642135332 -0.4129991675,-5.6069741831 -0.5580770006,-5.5359045926 C -0.7069510343,-5.4642303399 -0.7934563822,-5.3566838683 -0.7925850591,-5.2481359338" />
      <path d="M -0.7925850591,-5.2481359338 Q -0.7924928721,-5.186120616 -0.7575054528,-5.1272438996" />
      <path d="M -0.7282994812,-5.0863366924 Q -0.6703135503,-5.0172557916 -0.5685034339,-4.9654752487" />
      <path d="M -0.4715045342,-4.9245675997 C -0.2556209694,-4.8477232808 0.0446155171,-4.8443347365 0.2921222365,-4.9240125793" />
      <path d="M 0.6459799911,-5.1272443231 Q 0.7021099792,-5.1843098413 0.734432429,-5.248106617" />
      <path d="M 0.7735616947,-5.3863017347 L 0.7743919248,-5.4098759716" />
      <path d="M 0.7743919248,-5.4098759716 C 0.7752765659,-5.5440203714 0.6907148442,-5.6775889026 0.5449476081,-5.7760647838" />
      <path d="M 0.5449476081,-5.7760647838 C 0.3512061628,-5.9101215259 0.049485588,-5.975176794 -0.2164732807,-5.9488333655 C -0.5494048316,-5.9208683507 -0.7981660192,-5.7514056485 -0.7925954625,-5.5716452615" />
      <path d="M -0.7925954625,-5.5716452615 Q -0.7924946605,-5.509669958 -0.7575004355,-5.4507748695" />
      <path d="M -0.7282945253,-5.4098709378 Q -0.6702899362,-5.3407746581 -0.5685039588,-5.289013614" />
      <path d="M 0.292123361,-5.2475511525 L 0.2938751015,-5.2481063509" />
      <path d="M 0.4025376092,-5.2890127482 Q 0.5170045468,-5.3394558438 0.6015187715,-5.4098774216" />
      <path d="M 0.6459775881,-5.4507854383 Q 0.7021116143,-5.5078545404 0.734432355,-5.5716455111" />
      <path d="M 0.7523095073,-5.6125537909 Q 0.7743489837,-5.6722125843 0.7743912008,-5.733414274" />
      <path d="M 0.6980505697,-6.0889782683 C 0.8841519863,-5.9669357712 0.9919591467,-5.8003985128 0.9908982767,-5.6327738108" />
      <path d="M 0.9903982616,-5.6125526315 Q 0.9804725327,-5.4385947556 0.8356509453,-5.2890138123" />
      <path d="M 0.0849447943,-4.9713263405 Q -0.0982416015,-4.9519482722 -0.27563739,-4.9712491937" />
      <path d="M -0.7613448979,-5.1206078415 C -0.920055229,-5.2141353149 -1.0098564091,-5.3422178644 -1.0091017112,-5.4710044339" />
      <path d="M -1.0091017112,-5.4710044339 C -1.0115978477,-5.6472391127 -0.8390452703,-5.8201986683 -0.5646184381,-5.9093890011 C -0.265835777,-6.0107561858 0.1450094836,-6.0040771965 0.4623232261,-5.8834190451 C 0.7830060535,-5.7664666209 0.9944713623,-5.540465745 0.9908982716,-5.3092351334" />
      <path d="M 0.9908982716,-5.3092351334 Q 0.9892580292,-5.1243935862 0.8356509151,-4.9654749042" />
      <path d="M -0.7613450588,-4.7970690696 C -0.9200552429,-4.8905965362 -1.0098563691,-5.0186787105 -1.0091017373,-5.1474653729" />
      <path d="M -1.0091017373,-5.1474653729 C -1.0101628991,-5.2881425183 -0.902337435,-5.4277311827 -0.7162086792,-5.5228151971 C -0.5315806727,-5.6187816976 -0.2712665639,-5.6687045363 -0.0091018901,-5.6545997303 C 0.2530627847,-5.6417429359 0.5133767907,-5.5648586457 0.6980049307,-5.4419306694 C 0.8841338329,-5.3198851701 0.9919594803,-5.1533347954 0.9908982648,-4.9856961587" />
      <path d="M 0.9908982648,-4.9856961587 Q 0.989258035,-4.8008545913 0.8356509301,-4.6419360263" />
      <path d="M 0.0178959185,-4.3183971182 Q -0.1315322991,-4.3084569821 -0.2756379984,-4.3241714836" />
      <path d="M -0.7613450249,-4.4735302093 L -0.7723335725,-4.4801666089" />
      <path d="M -0.8035127085,-4.5003877961 C -0.9361696437,-4.590708175 -1.0096185116,-4.7071000011 -1.0091017665,-4.8239266825" />
      <path d="M -1.0091017665,-4.8239266825 C -1.0101629638,-4.9646037017 -0.9023372157,-5.1041924136 -0.7162084432,-5.1992764219 C -0.5315804293,-5.2952429049 -0.2712664908,-5.3451656637 -0.0091017159,-5.3310608319 C 0.2530630712,-5.3182040009 0.5133770665,-5.2413197214 0.6980050252,-5.1183917328 C 0.8841337605,-4.996346217 0.9919596815,-4.8297956673 0.9908982813,-4.6621572066" />
      <path d="M 0.9908982813,-4.6621572066 Q 0.9907858101,-4.5694113795 0.9496462853,-4.4801665149" />
      <path d="M 0.0849434376,-4.0007095457 L 0.0178959011,-3.9948582694" />
      <path d="M -0.2104683156,-3.9948582559 L -0.2756386565,-4.0006326519" />
      <path d="M -1.0083912473,-4.4801665503 L -1.0091017665,-4.5003877297" />
      <path d="M -1.0091017665,-4.5003877297 C -1.0107721328,-4.6587978071 -0.8727195603,-4.8152595388 -0.6434701536,-4.9094452005 C -0.416340069,-5.0051494194 -0.103135005,-5.0361059577 0.1860517252,-4.9861020398 C 0.4110192545,-4.9483636791 0.618987087,-4.8632632116 0.7639292361,-4.7470242743 C 0.9098478663,-4.631256561 0.9915298502,-4.4852181265 0.9908982648,-4.3386182535" />
      <path d="M 0.9908982648,-4.3386182535 Q 0.9908287137,-4.2565127134 0.9584339029,-4.1768487813" />
      <path d="M 0.0849465454,-3.6771709921 L 0.0178960654,-3.6713193912" />
      <path d="M -0.2104686233,-3.6713193978 L -0.2756379789,-3.6770937043" />
      <path d="M -1.0091017372,-4.1768490392 C -1.0088438809,-4.2480666478 -0.9834621752,-4.3163451185 -0.9329566202,-4.3816844512 C -0.8457936627,-4.4945740395 -0.6829459566,-4.5884187055 -0.4804557554,-4.6398379415 C -0.2785610659,-4.6919123306 -0.0387076984,-4.7010321467 0.1860202616,-4.6625684849 C 0.4109947099,-4.6248334 0.6189708111,-4.5397338438 0.7639190939,-4.4234935116 C 0.9098439581,-4.3077244356 0.9915299169,-4.1616825319 0.9908982715,-4.0150792787" />
      <path d="M 0.9903982567,-3.9948580997 Q 0.9804725519,-3.8209002383 0.8356509476,-3.6713193864" />
      <path d="M 0.0849442913,-3.3536318875 L 0.0178960752,-3.3477805396" />
      <path d="M -0.2104683456,-3.3477805226 L -0.2756385242,-3.3535548939" />
      <path d="M -0.7613450305,-3.5029135288 C -0.9200552772,-3.5964410379 -1.009856422,-3.724523497 -1.0091017112,-3.8533099782" />
      <path d="M -1.0091017112,-3.8533099782 C -1.0101629069,-3.9939869133 -0.9023373529,-4.133575811 -0.7162085325,-4.2286598286 C -0.5315804724,-4.3246263197 -0.2712664203,-4.3745489242 -0.0091017339,-4.3604441639 C 0.253062953,-4.3475874112 0.5133769955,-4.2707032113 0.698005065,-4.1477751008 C 0.8841338941,-4.0257294552 0.9919594742,-3.8591791076 0.9908982767,-3.6915406013" />
      <path d="M 0.9908982767,-3.6915406013 C 0.9915018736,-3.5466408293 0.9117619843,-3.4022705665 0.7689450558,-3.2871670681" />
      <path d="M 0.7499378066,-3.2722077307 Q 0.716695824,-3.2467931992 0.6796821455,-3.2234864707" />
      <path d="M -0.7613451217,-3.17937473 C -0.9200553651,-3.2729021478 -1.0098563697,-3.4009845235 -1.0091016654,-3.5297710694" />
      <path d="M -1.0091016654,-3.5297710694 C -1.0095746171,-3.6439762745 -0.9394757425,-3.7577928265 -0.8122997759,-3.8472009032 C -0.6858835816,-3.9369403276 -0.5031777077,-4.0016469062 -0.2993556043,-4.0267551307 C 0.1096272835,-4.0818595525 0.5893751186,-3.9590001386 0.8224036478,-3.7249844865 C 0.9318031142,-3.618952249 0.9912436749,-3.4936074366 0.9908982698,-3.3680017198" />
      <path d="M 0.9908982698,-3.3680017198 C 0.9915018091,-3.2231048614 0.9117654292,-3.0787379457 0.7689540233,-2.9636355123" />
      <path d="M 0.7499390557,-2.9486698501 Q 0.7166966081,-2.9232548384 0.6796823238,-2.8999477204" />
      <path d="M 0.0849456449,-2.70655427 Q -0.063954595,-2.6907129583 -0.2104678891,-2.7007027813" />
      <path d="M -0.7613438344,-2.8558350746 L -0.7723335625,-2.862472171" />
      <path d="M -0.803512704,-2.8826933529 C -0.9361697192,-2.9730137445 -1.0096184393,-3.0894056146 -1.0091016962,-3.2062322936" />
      <path d="M -1.0091016962,-3.2062322936 C -1.0140407767,-3.4185129096 -0.7589277309,-3.6227828717 -0.3917256904,-3.688838516 C -0.0893297731,-3.7472160413 0.2748863078,-3.7092615746 0.5464951704,-3.5839234891 C 0.8208767907,-3.4610251943 0.9933935136,-3.2543810506 0.990898319,-3.0444629361" />
      <path d="M 0.990898319,-3.0444629361 Q 0.9907857665,-2.9517171118 0.9496462768,-2.8624723003" />
      <path d="M 0.0849444518,-2.3830152767 Q -0.0982416404,-2.3636372793 -0.2756370553,-2.3829381383" />
      <path d="M -1.0083912535,-2.8624722326 L -1.0091017747,-2.8826934106" />
      <path d="M -1.0091017747,-2.8826934106 C -1.0101629086,-3.0233704434 -0.9023371518,-3.1629593043 -0.7162084705,-3.2580431867 C -0.5315805067,-3.3540095841 -0.2712664021,-3.4039323747 -0.009101711,-3.389827596 C 0.253062978,-3.376970824 0.513376871,-3.3000864829 0.6980049498,-3.1771584869 C 0.884133787,-3.0551129652 0.9919595128,-2.8885626918 0.9908982993,-2.720924079" />
      <path d="M 0.9908982993,-2.720924079 Q 0.9908287414,-2.6388185069 0.9584339085,-2.5591545464" />
      <path d="M 0.0849444194,-2.059476379 Q -0.0982419161,-2.040098336 -0.275637689,-2.059399284" />
      <path d="M -1.0091017366,-2.5591546215 C -1.0101629501,-2.6998316642 -0.9023372243,-2.8394203673 -0.716208387,-2.9345043188 C -0.5315803082,-3.0304707445 -0.271266415,-3.0803935154 -0.0091017261,-3.0662887171 C 0.2530629651,-3.0534319256 0.5133770697,-2.9765475647 0.6980050334,-2.853619597 C 0.8841337148,-2.7315741443 0.9919594713,-2.5650237133 0.9908983373,-2.39738511" />
      <path d="M 0.9903983206,-2.3771639315 Q 0.9868030664,-2.3053368428 0.9584339243,-2.2356156107" />
      <path d="M 0.9496462835,-2.2153944191 Q 0.8930122717,-2.0937922664 0.7689540246,-1.993018867" />
      <path d="M 0.7499377976,-1.9780522484 Q 0.7166957788,-1.9526376701 0.6796820608,-1.9293309306" />
      <path d="M 0.0849441922,-1.7359375063 Q -0.0639554855,-1.7200963532 -0.2104682184,-1.7300861336" />
      <path d="M -1.0083912371,-2.2153945462 L -1.0091017563,-2.2356157264" />
      <path d="M -1.0091017563,-2.2356157264 C -1.0115975709,-2.4118447005 -0.8390567982,-2.5847986474 -0.5646450952,-2.6739914157 C -0.2930065718,-2.7656246858 0.0712418166,-2.7698581839 0.3736411728,-2.6777505639 C 0.7407826047,-2.5712336636 0.9958353485,-2.3265431338 0.9908982589,-2.0738462266" />
      <path d="M 0.9908982589,-2.0738462266 C 0.9915018037,-1.9289494501 0.9117654477,-1.7845823546 0.7689540863,-1.669479991" />
      <path d="M 0.7499378297,-1.6545133454 Q 0.7166958497,-1.6290987939 0.6796821604,-1.6057920764" />
      <path d="M -1.0091017071,-1.9120767692 C -1.0094474087,-2.0174865946 -0.9499801755,-2.1226352322 -0.8405355734,-2.2084589381 C -0.6074720651,-2.3986330351 -0.1277396003,-2.4776459372 0.2812137545,-2.378717989 C 0.4850215876,-2.3316975562 0.6677111581,-2.2450836926 0.7941155078,-2.1334407112 C 0.921279498,-2.022128998 0.9913710865,-1.8864123961 0.990898228,-1.7503072384" />
      <path d="M 0.990898228,-1.7503072384 L 0.9903982138,-1.730086059" />
      <path d="M 0.0849447198,-1.0888598004 Q -0.0639551072,-1.073018583 -0.2104680806,-1.0830083865" />
      <path d="M -1.0083911952,-1.5683167286 L -1.009101714,-1.5885379091" />
      <path d="M -1.009101714,-1.5885379091 C -1.0101629115,-1.7292148419 -0.9023373314,-1.8688036159 -0.7162085023,-1.9638876879 C -0.5315804328,-2.0598542249 -0.2712663903,-2.1097768512 -0.0091017035,-2.0956720303 C 0.253062983,-2.082815217 0.5133770351,-2.005931039 0.6980050952,-1.8830029744 C 0.8841339156,-1.7609573833 0.9919594696,-1.5944069119 0.9908982738,-1.4267684032" />
      <path d="M 0.9908982738,-1.4267684032 L 0.9903982588,-1.4065472239" />
      <path d="M 0.084944229,-0.7653208744 Q -0.0982420401,-0.7459428775 -0.275637506,-0.7652437979" />
      <path d="M -1.0083911905,-1.2447776826 L -1.0091017089,-1.2649988615" />
      <path d="M -1.0091017089,-1.2649988615 C -1.0097334696,-1.388017069 -0.9280395928,-1.5104737966 -0.7821021168,-1.6026535851 C -0.6371413748,-1.6953047343 -0.4291484496,-1.7568108174 -0.2041605767,-1.7709471782 C 0.0205808425,-1.7858122585 0.2604438107,-1.75308863 0.4623374573,-1.6774083561 C 0.6648268319,-1.6023833212 0.8276627635,-1.4849310025 0.914802441,-1.348437562 C 0.965275494,-1.2696378907 0.9906407803,-1.1879019507 0.9908982999,-1.1032297419" />
      <path d="M 0.9908982999,-1.1032297419 Q 0.9908287399,-1.0211241253 0.9584339147,-0.941460156" />
      <path d="M 0.9496462629,-0.9212389651 Q 0.8930121528,-0.7996367125 0.7689540024,-0.6988633549" />
      <path d="M 0.7499377777,-0.6838967357 Q 0.6970789668,-0.6434981031 0.634989476,-0.6085770222" />
      <path d="M 0.5755593557,-0.5774535902 Q 0.4451896092,-0.5141289568 0.2921222939,-0.477392976" />
      <path d="M 0.0849450489,-0.4417820558 Q -0.0639550172,-0.4259407983 -0.2104681062,-0.4359306395" />
      <path d="M -0.4725486068,-0.4764734086 Q -0.6097395879,-0.5108468372 -0.7189462114,-0.5675266791" />
      <path d="M -0.7613446084,-0.5910634349 C -0.9116314685,-0.6797102349 -1.0004322367,-0.7993083184 -1.0083911843,-0.921238892" />
      <path d="M -1.0091017021,-0.9414600715 C -1.0097335183,-1.0644812318 -0.9280356983,-1.1869406927 -0.7820918446,-1.2791212094 C -0.6371247771,-1.3717731591 -0.4291232964,-1.4332780588 -0.204128918,-1.4474103501 C 0.0850442555,-1.4670578535 0.3982149857,-1.405755708 0.6253164664,-1.279719426 C 0.8545368441,-1.1552011973 0.9925682293,-0.9684197476 0.9908983292,-0.7796906526" />
      <path d="M 0.0178959823,-0.1123917556 Q -0.1315325479,-0.102451622 -0.2756383968,-0.1181661561" />
      <path d="M -1.0091017187,-0.617921256 C -1.009101718,-0.6179327663 -1.0091017173,-0.6179442765 -1.0091017166,-0.6179557867 C -1.0101461606,-0.7586298153 -0.9023080994,-0.8982119227 -0.7161743307,-0.9932886488 C -0.5315411472,-1.0892478202 -0.2712288951,-1.1391631654 -0.0090695424,-1.1250537887 C 0.2530898664,-1.112192314 0.5133951227,-1.0353060454 0.6980163829,-0.9123787994 C 0.8841383068,-0.790333944 0.9919594424,-0.6237870006 0.9908983292,-0.4561518603" />
      <path d="M 0.9908983292,-0.4561518603 L 0.9903983138,-0.4359306802" />
      <path d="M -1.0091017021,-0.2943824414 C -1.0101629176,-0.4350595044 -0.9023372703,-0.5746483054 -0.7162083681,-0.6697322311 C -0.5315802281,-0.7656986336 -0.271266222,-0.8156213501 -0.0091015472,-0.8015165708 C 0.2530631266,-0.7886598031 0.5133772353,-0.7117753907 0.6980052418,-0.5888473165 C 0.8841339977,-0.4668017283 0.9919594618,-0.3002514902 0.9908982999,-0.1326127711" />
      <path d="M 0.9908982999,-0.1326127711 L 0.9903982853,-0.112391593" />
      <path d="M 0.0849395081,0.5288351323 Q -0.0982436718,0.5482123113 -0.2756363974,0.5289118277" />
      <path d="M -1.0083911905,0.0493775291 L -1.0091017089,0.0291563485" />
      <path d="M -1.0091017089,0.0291563485 C -1.0126755967,-0.1650150202 -0.8011832491,-0.3539551241 -0.480469904,-0.4338289285 C -0.1631259897,-0.5174094142 0.2477477951,-0.4869920421 0.5465220257,-0.3485225202 C 0.8208886926,-0.2256230958 0.9933931704,-0.0189851079 0.9908982739,0.1909258903" />
      <path d="M 0.9908982739,0.1909258903 L 0.9903982588,0.2111470704" />
      <path d="M 0.0178956403,0.8582248473 Q -0.1315316288,0.8681649046 -0.2756363584,0.8524507171" />
      <path d="M -1.0083911952,0.3729165751 L -1.009101714,0.352695396" />
      <path d="M -1.009101714,0.352695396 C -1.0101632567,0.2120068631 -0.9023191954,0.0724066563 -0.7161629898,-0.0226778638 C -0.4400693197,-0.1688904249 0.0102342724,-0.2013258668 0.3736113194,-0.0894484744 C 0.7407680477,0.0170643339 0.9958358269,0.2617606093 0.9908982281,0.5144647252" />
      <path d="M 0.9908982281,0.5144647252 Q 0.9908286742,0.5965702644 0.9584338918,0.6762342023" />
      <path d="M -1.0091017071,0.6762342562 C -1.0101629025,0.5355572161 -0.9023373868,0.3959685811 -0.7162085603,0.3008845031 C -0.5315804946,0.2049179605 -0.2712664342,0.1549952279 -0.0091017638,0.1691000725 C 0.2530629067,0.1819569065 0.5133769571,0.258841132 0.6980050517,0.3817691371 C 0.8841339092,0.503814664 0.9919594635,0.6703651323 0.9908982589,0.8380037136" />
      <path d="M 0.9903982443,0.8582248929 Q 0.9794302668,1.0449855413 0.8149497174,1.202137798" />
      <path d="M -1.0083912371,1.0199943926 L -1.0091017563,0.9997732133" />
      <path d="M -1.0091017563,0.9997732133 C -1.0099281301,0.8679309258 -0.9156645047,0.7368792093 -0.7500421188,0.6427923623 C -0.585644342,0.5480528399 -0.3516933844,0.4914497684 -0.1070869198,0.4904149254 C 0.13735761,0.4884129002 0.3897813596,0.5421339171 0.5866362582,0.6412354068 C 0.7844758083,0.7395563229 0.9245871606,0.8823159403 0.9716961155,1.0367556068 C 0.9844814162,1.0779816311 0.9908821568,1.1195772946 0.9908983373,1.1615425973" />
      <path d="M 0.9908983373,1.1615425973 Q 0.9908917511,1.2069071062 0.9808820054,1.2518543328" />
      <path d="M -1.0002885189,1.2522576655 C -0.9692548899,1.1247161566 -0.8487097777,1.0049181217 -0.6676853508,0.9246880885 C -0.4876531582,0.8437913627 -0.2489394958,0.8033878805 -0.0090373598,0.8161811364 C 0.3796550169,0.8333528589 0.7557751947,0.9979507754 0.9071930393,1.2283587028" />
      <path d="M 0.6980505697,-6.0889782683 L 0.6980505697,-6.0485359088" />
      <path d="M 0.6980505697,-6.0485359088 C 0.8841519863,-5.9264934117 0.9919591467,-5.7599561533 0.9908982767,-5.5923314513" />
      <path d="M 0.9908982767,-5.5923314513 Q 0.9896405411,-5.4199277914 0.8546221076,-5.2687926391" />
      <path d="M 0.6064490935,-5.0821747738 L 0.578781371,-5.0681313611" />
      <path d="M -0.6785130652,-5.0368465534 L -0.7418946259,-5.0689796574" />
      <path d="M -0.7763232849,-5.0892715386 C -0.9258269477,-5.1818697062 -1.0097665765,-5.3059163618 -1.0091017112,-5.4305620744" />
      <path d="M -1.0091017112,-5.4305620744 C -1.0115978477,-5.6067967532 -0.8390452703,-5.7797563088 -0.5646184381,-5.8689466416 C -0.265835777,-5.9703138263 0.1450094836,-5.963634837 0.4623232261,-5.8429766856 C 0.7830060535,-5.7260242614 0.9944713623,-5.5000233855 0.9908982716,-5.2687927739" />
      <path d="M 0.9908982716,-5.2687927739 Q 0.9896405174,-5.0963889579 0.8546220736,-4.9452537329" />
      <path d="M 0.6064490088,-4.7586358424 L 0.5787816289,-4.7445926041" />
      <path d="M -0.6785146503,-4.7133084424 L -0.7418948539,-4.7454409259" />
      <path d="M -0.7763247833,-4.7657335973 C -0.9258274468,-4.8583316499 -1.009766546,-4.9823775836 -1.0091017373,-5.1070230134" />
      <path d="M -1.0091017373,-5.1070230134 C -1.0101628991,-5.2477001588 -0.902337435,-5.3872888232 -0.7162086792,-5.4823728376 C -0.5315806727,-5.5783393381 -0.2712665639,-5.6282621768 -0.0091018901,-5.6141573708 C 0.2530627847,-5.6013005764 0.5133767907,-5.5244162862 0.6980049307,-5.4014883099 C 0.8841338329,-5.2794428106 0.9919594803,-5.1128924359 0.9908982648,-4.9452537992" />
      <path d="M 0.9908982648,-4.9452537992 Q 0.9896405206,-4.7728499629 0.8546220918,-4.6217148466" />
      <path d="M -0.6785154903,-4.3897699607 L -0.7418942238,-4.4219017259" />
      <path d="M -0.7763248902,-4.4421948309 L -0.8035127085,-4.4599454366" />
      <path d="M -0.8315669858,-4.4801666219 C -0.946663094,-4.5672426971 -1.0094856774,-4.6752143681 -1.0091017665,-4.783484323" />
      <path d="M -1.0091017665,-4.783484323 C -1.0101629638,-4.9241613422 -0.9023372157,-5.0637500541 -0.7162084432,-5.1588340624 C -0.5315804293,-5.2548005454 -0.2712664908,-5.3047233042 -0.0091017159,-5.2906184724 C 0.2530630712,-5.2777616414 0.5133770665,-5.2008773619 0.6980050252,-5.0779493733 C 0.8841337605,-4.9559038575 0.9919596815,-4.7893533078 0.9908982813,-4.6217148471" />
      <path d="M 0.9908982813,-4.6217148471 Q 0.990828788,-4.5396092922 0.958433936,-4.4599453149" />
      <path d="M -0.9735893813,-4.318397171 Q -1.0090184749,-4.3877740449 -1.0091017665,-4.4599453702" />
      <path d="M -1.0091017665,-4.4599453702 C -1.0107721328,-4.6183554476 -0.8727195603,-4.7748171794 -0.6434701536,-4.869002841 C -0.416340069,-4.9647070599 -0.103135005,-4.9956635982 0.1860517252,-4.9456596804 C 0.4110192545,-4.9079213196 0.618987087,-4.8228208521 0.7639292361,-4.7065819148 C 0.9098478663,-4.5908142015 0.9915298502,-4.444775767 0.9908982648,-4.298175894" />
      <path d="M 0.9908982648,-4.298175894 Q 0.9908578543,-4.2265889157 0.9661291099,-4.156627598" />
      <path d="M 0.9584339029,-4.1364064218 Q 0.9236770728,-4.0513548976 0.8546221076,-3.974637054" />
      <path d="M -0.6785143689,-3.7426917099 L -0.7418945852,-3.7748241881" />
      <path d="M -0.7763235508,-3.7951162507 C -0.925827056,-3.8877143553 -1.0097665772,-4.0117608257 -1.0091017372,-4.1364066797" />
      <path d="M -1.0091017372,-4.1364066797 C -1.0088438809,-4.2076242883 -0.9834621752,-4.275902759 -0.9329566202,-4.3412420917 C -0.8457936627,-4.45413168 -0.6829459566,-4.547976346 -0.4804557554,-4.599395582 C -0.2785610659,-4.6514699711 -0.0387076984,-4.6605897872 0.1860202616,-4.6221261254 C 0.4109947099,-4.5843910405 0.6189708111,-4.4992914843 0.7639190939,-4.3830511521 C 0.9098439581,-4.2672820761 0.9915299169,-4.1212401724 0.9908982715,-3.9746369192" />
      <path d="M 0.9908982715,-3.9746369192 Q 0.9896405588,-3.8022332794 0.85462212,-3.6510982092" />
      <path d="M -0.6785149503,-3.4191530416 L -0.7418945257,-3.4512852103" />
      <path d="M -0.7763247655,-3.4715780706 C -0.9258275174,-3.564176183 -1.0097665794,-3.6882223673 -1.0091017112,-3.8128676187" />
      <path d="M -1.0091017112,-3.8128676187 C -1.0101629069,-3.9535445538 -0.9023373529,-4.0931334515 -0.7162085325,-4.1882174691 C -0.5315804724,-4.2841839603 -0.2712664203,-4.3341065647 -0.0091017339,-4.3200018044 C 0.253062953,-4.3071450517 0.5133769955,-4.2302608518 0.698005065,-4.1073327413 C 0.8841338941,-3.9852870957 0.9919594742,-3.8187367481 0.9908982767,-3.6510982418" />
      <path d="M 0.9908982767,-3.6510982418 C 0.9914767333,-3.5077736387 0.9135140386,-3.3649506517 0.7735496644,-3.2504826598" />
      <path d="M 0.7607867766,-3.2401975006 Q 0.7142928509,-3.2034781506 0.6601726181,-3.1710625632" />
      <path d="M 0.6064477505,-3.140940808 L 0.5787803579,-3.1268975975" />
      <path d="M -0.6785149312,-3.0956141905 L -0.7418955024,-3.1277469088" />
      <path d="M -0.7763248303,-3.1480392513 C -0.9258275854,-3.2406372645 -1.0097665281,-3.3646833936 -1.0091016654,-3.4893287099" />
      <path d="M -1.0091016654,-3.4893287099 C -1.0095746171,-3.603533915 -0.9394757425,-3.717350467 -0.8122997759,-3.8067585437 C -0.6858835816,-3.8964979682 -0.5031777077,-3.9612045467 -0.2993556043,-3.9863127712 C 0.1096272835,-4.0414171931 0.5893751186,-3.9185577791 0.8224036478,-3.684542127 C 0.9318031142,-3.5785098895 0.9912436749,-3.4531650771 0.9908982698,-3.3275593603" />
      <path d="M 0.9908982698,-3.3275593603 C 0.9914766536,-3.184238754 0.9135186384,-3.0414201716 0.7735617009,-2.9269537363" />
      <path d="M 0.7607885376,-2.9166600642 Q 0.7248899304,-2.8883033191 0.684365185,-2.8624722107" />
      <path d="M -0.6785169299,-2.7720762191 L -0.7418946678,-2.8042075506" />
      <path d="M -0.776321242,-2.8244981249 L -0.803512704,-2.8422509934" />
      <path d="M -0.831566988,-2.8624721774 C -0.9466631487,-2.9495482686 -1.0094856039,-3.0575199796 -1.0091016962,-3.1657899341" />
      <path d="M -1.0091016962,-3.1657899341 C -1.0140407767,-3.3780705501 -0.7589277309,-3.5823405122 -0.3917256904,-3.6483961565 C -0.0893297731,-3.7067736818 0.2748863078,-3.6688192151 0.5464951704,-3.5434811296 C 0.8208767907,-3.4205828348 0.9933935136,-3.2139386911 0.990898319,-3.0040205766" />
      <path d="M 0.990898319,-3.0040205766 Q 0.990828761,-2.9219150463 0.9584339303,-2.842251123" />
      <path d="M 0.6064491596,-2.4938638122 L 0.5786201808,-2.4797412349" />
      <path d="M -0.9735893831,-2.7007028015 Q -1.0090184329,-2.7700797155 -1.0091017747,-2.8422510511" />
      <path d="M -1.0091017747,-2.8422510511 C -1.0101629086,-2.9829280839 -0.9023371518,-3.1225169448 -0.7162084705,-3.2176008272 C -0.5315805067,-3.3135672246 -0.2712664021,-3.3634900152 -0.009101711,-3.3493852365 C 0.253062978,-3.3365284645 0.513376871,-3.2596441234 0.6980049498,-3.1367161275 C 0.884133787,-3.0146706057 0.9919595128,-2.8481203323 0.9908982993,-2.6804817195" />
      <path d="M 0.9908982993,-2.6804817195 Q 0.9908578843,-2.6088947176 0.9661291228,-2.5389333788" />
      <path d="M 0.9584339085,-2.5187121869 Q 0.9046003184,-2.3879434628 0.7735616564,-2.2798759292" />
      <path d="M 0.7607867272,-2.2695808636 Q 0.7142929365,-2.2328615781 0.6601728209,-2.2004460708" />
      <path d="M 0.606449079,-2.170324917 L 0.5787626593,-2.1562723279" />
      <path d="M -0.6785150903,-2.1249976502 L -0.7418910526,-2.1571278243" />
      <path d="M -0.7763245487,-2.1774224801 Q -0.9025142724,-2.2564972112 -0.9624184253,-2.3569427646" />
      <path d="M -0.9735893557,-2.3771639567 Q -1.0090184425,-2.4465408883 -1.0091017366,-2.518712262" />
      <path d="M -1.0091017366,-2.518712262 C -1.0101629501,-2.6593893047 -0.9023372243,-2.7989780078 -0.716208387,-2.8940619593 C -0.5315803082,-2.990028385 -0.271266415,-3.0399511559 -0.0091017261,-3.0258463576 C 0.2530629651,-3.0129895661 0.5133770697,-2.9361052052 0.6980050334,-2.8131772375 C 0.8841337148,-2.6911317848 0.9919594713,-2.5245813538 0.9908983373,-2.3569427505" />
      <path d="M 0.9908983373,-2.3569427505 C 0.9914766093,-2.2136222306 0.9135188492,-2.0708035648 0.7735616858,-1.9563370758" />
      <path d="M 0.7607867441,-1.946042004 Q 0.7142929212,-1.909322707 0.6601728164,-1.8769072028" />
      <path d="M 0.6064492421,-1.8467861322 L 0.5787812624,-1.8327425886" />
      <path d="M -0.9735893521,-2.0536250885 Q -1.009018462,-2.1230020083 -1.0091017563,-2.1951733669" />
      <path d="M -1.0091017563,-2.1951733669 C -1.0115975709,-2.371402341 -0.8390567982,-2.5443562879 -0.5646450952,-2.6335490562 C -0.2930065718,-2.7251823263 0.0712418166,-2.7294158244 0.3736411728,-2.6373082044 C 0.7407826047,-2.5307913041 0.9958353485,-2.2861007743 0.9908982589,-2.0334038671" />
      <path d="M 0.9908982589,-2.0334038671 C 0.9914766481,-1.890083339 0.9135186528,-1.7472645766 0.7735617525,-1.6327982053" />
      <path d="M 0.7607868018,-1.6225031226 Q 0.7142928463,-1.5857837105 0.6601725269,-1.5533681182" />
      <path d="M 0.6064452039,-1.5232451198 L 0.5787807425,-1.5092034485" />
      <path d="M -0.9624184083,-1.7098649495 Q -1.0089573819,-1.7886409049 -1.0091017071,-1.8716344097" />
      <path d="M -1.0091017071,-1.8716344097 C -1.0094474087,-1.9770442351 -0.9499801755,-2.0821928727 -0.8405355734,-2.1680165786 C -0.6074720651,-2.3581906756 -0.1277396003,-2.4372035777 0.2812137545,-2.3382756295 C 0.4850215876,-2.2912551967 0.6677111581,-2.2046413331 0.7941155078,-2.0929983518 C 0.921279498,-1.9816866385 0.9913710865,-1.8459700366 0.990898228,-1.7098648789" />
      <path d="M 0.990898228,-1.7098648789 C 0.9914766175,-1.5665443707 0.9135186909,-1.4237257249 0.773561773,-1.3092593538" />
      <path d="M 0.7607815649,-1.2989601188 Q 0.7248859908,-1.2706063879 0.6843652036,-1.2447778194" />
      <path d="M 0.606449082,-1.1997082914 L 0.5787789184,-1.1856636875" />
      <path d="M -0.962418387,-1.3863260349 Q -1.0089573895,-1.4651020895 -1.009101714,-1.5480955496" />
      <path d="M -1.009101714,-1.5480955496 C -1.0101629115,-1.6887724824 -0.9023373314,-1.8283612564 -0.7162085023,-1.9234453284 C -0.5315804328,-2.0194118654 -0.2712663903,-2.0693344917 -0.0091017035,-2.0552296708 C 0.253062983,-2.0423728575 0.5133770351,-1.9654886795 0.6980050952,-1.8425606149 C 0.8841339156,-1.7205150238 0.9919594696,-1.5539645524 0.9908982738,-1.3863260437" />
      <path d="M 0.9908982738,-1.3863260437 Q 0.9899469429,-1.2260322463 0.8721145752,-1.0830083747" />
      <path d="M 0.8546220808,-1.0627871919 Q 0.8183490742,-1.0225408867 0.7735613309,-0.985720117" />
      <path d="M 0.7607868028,-0.9754253762 Q 0.7142929062,-0.9387059902 0.6601726806,-0.9062904436" />
      <path d="M 0.6064490986,-0.8761694027 L 0.578777937,-0.8621243139" />
      <path d="M -0.9735893617,-1.0830083271 Q -1.0090184241,-1.1523851988 -1.0091017089,-1.224556502" />
      <path d="M -1.0091017089,-1.224556502 C -1.0097334696,-1.3475747096 -0.9280395928,-1.4700314371 -0.7821021168,-1.5622112257 C -0.6371413748,-1.6548623748 -0.4291484496,-1.7163684579 -0.2041605767,-1.7305048188 C 0.0205808425,-1.745369899 0.2604438107,-1.7126462705 0.4623374573,-1.6369659966 C 0.6648268319,-1.5619409617 0.8276627635,-1.444488643 0.914802441,-1.3079952026 C 0.965275494,-1.2291955312 0.9906407803,-1.1474595912 0.9908982999,-1.0627873825" />
      <path d="M 0.9908982999,-1.0627873825 Q 0.9908578831,-0.9912003416 0.9661291268,-0.9212389897" />
      <path d="M 0.9584339147,-0.9010177965 Q 0.9046003642,-0.7702491118 0.7735616927,-0.6621815884" />
      <path d="M 0.7607867327,-0.6518864992 Q 0.714292727,-0.6151670502 0.6601723347,-0.5827514144" />
      <path d="M 0.606446503,-0.5526291964 L 0.5787878135,-0.5385903063" />
      <path d="M -0.9624184613,-0.7392483358 Q -1.0089573814,-0.8180242807 -1.0091017021,-0.901017712" />
      <path d="M -1.0091017021,-0.901017712 C -1.0097335183,-1.0240388723 -0.9280356983,-1.1464983332 -0.7820918446,-1.2386788499 C -0.6371247771,-1.3313307996 -0.4291232964,-1.3928356993 -0.204128918,-1.4069679906 C 0.0850442555,-1.426615494 0.3982149857,-1.3653133485 0.6253164664,-1.2392770665 C 0.8545368441,-1.1147588378 0.9925682293,-0.9279773881 0.9908983292,-0.7392482932" />
      <path d="M 0.9908983292,-0.7392482932 C 0.9914767211,-0.5959275992 0.913518396,-0.4531088314 0.7735612464,-0.3386423938" />
      <path d="M 0.7607828985,-0.3283446398 Q 0.71429119,-0.2916274237 0.6601739873,-0.2592135489" />
      <path d="M 0.6064493396,-0.2290918164 L 0.5787813873,-0.2150482774" />
      <path d="M -0.9624184613,-0.4157094582 Q -1.0089574765,-0.4944854673 -1.0091017187,-0.5774788965" />
      <path d="M -1.0091017187,-0.5774788965 C -1.009101718,-0.5774904068 -1.0091017173,-0.577501917 -1.0091017166,-0.5775134272 C -1.0101461606,-0.7181874558 -0.9023080994,-0.8577695632 -0.7161743307,-0.9528462893 C -0.5315411472,-1.0488054607 -0.2712288951,-1.0987208059 -0.0090695424,-1.0846114292 C 0.2530898664,-1.0717499545 0.5133951227,-0.9948636859 0.6980163829,-0.8719364399 C 0.8841383068,-0.7498915845 0.9919594424,-0.5833446411 0.9908983292,-0.4157095008" />
      <path d="M 0.9908983292,-0.4157095008 C 0.9914767207,-0.2723889037 0.9135184937,-0.1295701222 0.7735615622,-0.0151037368" />
      <path d="M 0.7607866837,-0.0048087126 Q 0.7248888865,0.0235472356 0.6843652036,0.0493776659" />
      <path d="M 0.6064491385,0.0944471873 L 0.5787799243,0.1084913321" />
      <path d="M -0.9735893617,-0.1123918264 Q -1.0090184099,-0.1817687219 -1.0091017021,-0.2539400819" />
      <path d="M -1.0091017021,-0.2539400819 C -1.0101629176,-0.3946171449 -0.9023372703,-0.5342059459 -0.7162083681,-0.6292898716 C -0.5315802281,-0.7252562741 -0.271266222,-0.7751789906 -0.0091015472,-0.7610742113 C 0.2530631266,-0.7482174436 0.5133772353,-0.6713330312 0.6980052418,-0.548404957 C 0.8841339977,-0.4263593688 0.9919594618,-0.2598091307 0.9908982999,-0.0921704116" />
      <path d="M 0.9908982999,-0.0921704116 Q 0.9899468917,0.068123453 0.8721146377,0.2111471027" />
      <path d="M 0.8546221498,0.2313682909 Q 0.8183493718,0.2716143596 0.7735618793,0.3084349513" />
      <path d="M 0.7607867588,0.3187301683 Q 0.7248889454,0.3470861112 0.6843652309,0.3729165434" />
      <path d="M -0.9735893112,0.2111470604 Q -1.0090184154,0.1417701006 -1.0091017089,0.069598708" />
      <path d="M -1.0091017089,0.069598708 C -1.0126755967,-0.1245726607 -0.8011832491,-0.3135127646 -0.480469904,-0.393386569 C -0.1631259897,-0.4769670547 0.2477477951,-0.4465496826 0.5465220257,-0.3080801607 C 0.8208886926,-0.1851807363 0.9933931704,0.0214572516 0.9908982739,0.2313682498" />
      <path d="M 0.9908982739,0.2313682498 Q 0.9899469336,0.3916620872 0.87211461,0.5346859649" />
      <path d="M 0.8546221198,0.5549071471 Q 0.8183492517,0.5951533047 0.7735616996,0.6319739544" />
      <path d="M 0.7607868253,0.6422689795 Q 0.7142929674,0.6789883336 0.6601727741,0.7114038833" />
      <path d="M 0.6064484966,0.7415253123 L 0.5787811466,0.7555685161" />
      <path d="M -0.9735893376,0.534685977 Q -1.0090184245,0.4653090838 -1.009101714,0.3931377555" />
      <path d="M -1.009101714,0.3931377555 C -1.0101632567,0.2524492226 -0.9023191954,0.1128490158 -0.7161629898,0.0177644957 C -0.4400693197,-0.1284480654 0.0102342724,-0.1608835073 0.3736113194,-0.0490061149 C 0.7407680477,0.0575066934 0.9958358269,0.3022029688 0.9908982281,0.5549070847" />
      <path d="M 0.9908982281,0.5549070847 Q 0.9908578155,0.6264940578 0.9661290953,0.696455374" />
      <path d="M 0.9584338918,0.7166765618 Q 0.9046004005,0.847445242 0.7735617489,0.955512807" />
      <path d="M 0.7607870135,0.9658077217 Q 0.7142929989,1.0025272123 0.6601725791,1.0349428738" />
      <path d="M 0.6064489922,1.0650639196 L 0.5787805996,1.0791076496" />
      <path d="M -0.6785147172,1.1103913256 L -0.7418941355,1.0782592593" />
      <path d="M -0.776324783,1.0579661658 L -0.8035126955,1.0402154922" />
      <path d="M -0.8315669621,1.0199943065 Q -0.9169244652,0.954967489 -0.9624184259,0.8784461235" />
      <path d="M -0.9735893522,0.858224935 Q -1.0090184215,0.7888479834 -1.0091017071,0.7166766157" />
      <path d="M -1.0091017071,0.7166766157 C -1.0101629025,0.5759995756 -0.9023373868,0.4364109406 -0.7162085603,0.3413268626 C -0.5315804946,0.24536032 -0.2712664342,0.1954375874 -0.0091017638,0.209542432 C 0.2530629067,0.222399266 0.5133769571,0.2992834915 0.6980050517,0.4222114966 C 0.8841339092,0.5442570235 0.9919594635,0.7108074918 0.9908982589,0.8784460731" />
      <path d="M 0.9908982589,0.8784460731 Q 0.9894849902,1.0561964023 0.846588534,1.2107465775" />
      <path d="M -0.941742347,1.2333689804 Q -1.0087997407,1.1404563936 -1.0091017563,1.0402155728" />
      <path d="M -1.0091017563,1.0402155728 C -1.0099281301,0.9083732853 -0.9156645047,0.7773215688 -0.7500421188,0.6832347218 C -0.585644342,0.5884951994 -0.3516933844,0.5318921279 -0.1070869198,0.5308572849 C 0.13735761,0.5288552597 0.3897813596,0.5825762766 0.5866362582,0.6816777663 C 0.7844758083,0.7799986824 0.9245871606,0.9227582998 0.9716961155,1.0771979662 C 0.9844814162,1.1184239906 0.9908821568,1.1600196541 0.9908983373,1.2019849568" />
      <path d="M 0.9908983373,1.2019849568 L 0.9875722222,1.2541054835" />
      <path d="M -0.9852021878,1.2472466979 C -0.9367804319,1.1293588226 -0.8109295358,1.0221375239 -0.6346485512,0.9510741117 C -0.4591082625,0.8794674487 -0.2345096607,0.8446654495 -0.0090373598,0.8566234959 C 0.3488146784,0.8729584367 0.6982081211,1.012879199 0.8674404007,1.2166375927" />
      <path d="M 0.5449476081,-5.5343399123 C 0.3474183333,-5.6712590475 0.0366076314,-5.735975605 -0.2330254537,-5.705453134 C -0.5581638443,-5.6736616981 -0.7978393593,-5.506469429 -0.7925955467,-5.3299160708" />
      <path d="M -0.7886651347,-5.289003253 Q -0.7763957572,-5.2258689916 -0.7282945678,-5.1681546704" />
      <path d="M -0.6884327606,-5.1272442542 Q -0.6053628016,-5.0534498848 -0.4715047489,-5.0063821404" />
      <path d="M -0.3119808543,-4.9654748664 Q -0.1206592131,-4.9322235651 0.0849442471,-4.9596235664" />
      <path d="M 0.2938738397,-5.0063821177 Q 0.4375412627,-5.0521173264 0.5474951377,-5.1272441335" />
      <path d="M 0.6015209187,-5.1681514686 Q 0.6685170649,-5.2242053143 0.7108179511,-5.2890137134" />
      <path d="M 0.7344324178,-5.3299209712 Q 0.7642783213,-5.3890289062 0.7718896806,-5.450783478" />
      <path d="M 0.6796815997,-5.7368470275 Q 0.6253422977,-5.8031013353 0.5449476081,-5.857879004" />
      <path d="M 0.5449476081,-5.2108012887 C 0.4097999153,-5.3034202481 0.2228637433,-5.3649238216 0.0312984511,-5.3829373123 C -0.1601981427,-5.4017348687 -0.3547069022,-5.3770281726 -0.5031660605,-5.3181947433 C -0.6844690681,-5.2478331172 -0.7939356952,-5.1279188989 -0.7925886399,-5.0063591438" />
      <path d="M -0.7886680988,-4.9654804729 Q -0.7764140444,-4.9023182186 -0.7282952859,-4.8446173654" />
      <path d="M -0.688428901,-4.80370905 Q -0.605504884,-4.7299849218 -0.4715051307,-4.6828433825" />
      <path d="M 0.2938740769,-4.682843087 Q 0.4375183954,-4.7285687707 0.5474950999,-4.8037054473" />
      <path d="M 0.6015208919,-4.8446128349 Q 0.6685084681,-4.9006569394 0.7108178983,-4.9654749369" />
      <path d="M 0.7344323732,-5.0063820876 Q 0.7642800566,-5.0654951027 0.7718897495,-5.1272446468" />
      <path d="M 0.679682,-5.4133079037 Q 0.6253372338,-5.4795668939 0.5449476081,-5.5343399123" />
      <path d="M 0.5449476081,-4.8872626428 C 0.3757137406,-5.0039023808 0.1237416084,-5.0696553945 -0.1145877281,-5.0654267386 C -0.3533552289,-5.0630988243 -0.5735522928,-4.9912690408 -0.6908790795,-4.8833225639 C -0.7580825836,-4.8216752191 -0.7919880141,-4.7548487722 -0.7925953709,-4.6828432234" />
      <path d="M -0.7886692652,-4.6419364125 Q -0.7783050195,-4.5883797609 -0.7418947585,-4.5384311799" />
      <path d="M -0.311981003,-4.3183971932 Q -0.1207890233,-4.2851455385 0.0849438813,-4.31254581" />
      <path d="M 0.6064489357,-4.5252362485 Q 0.6701259727,-4.5795756644 0.7108175982,-4.6419362512" />
      <path d="M 0.7344322657,-4.6828430385 Q 0.7642751919,-4.7419405513 0.7718897755,-4.8037057852" />
      <path d="M 0.5787813365,-5.1863573005 L 0.5449476081,-5.2108012887" />
      <path d="M 0.5449476081,-4.563723592 C 0.4314811068,-4.6412816503 0.2820273891,-4.6973522284 0.1234819675,-4.7237285894 C -0.1855212222,-4.7778342881 -0.5186717219,-4.7091825737 -0.6785130315,-4.5705643558" />
      <path d="M -0.6884328819,-4.1566277615 Q -0.6053919336,-4.0828493718 -0.4715048237,-4.0357655393" />
      <path d="M -0.3119817666,-3.9948584036 C -0.175558326,-3.9708038459 -0.0225476741,-3.9702718903 0.1233515932,-3.9948580341" />
      <path d="M 0.7743919854,-4.5210736932 C 0.7752489722,-4.6552703023 0.6907437021,-4.7887465008 0.5449476081,-4.8872626428" />
      <path d="M 0.5449476081,-4.2401847218 C 0.3954469827,-4.3428604296 0.1820314606,-4.4068333235 -0.0302376203,-4.4168113573 C -0.2425619134,-4.4279630197 -0.4510524196,-4.3852289993 -0.5922125263,-4.305814654 C -0.7204164423,-4.2349106034 -0.7932211599,-4.1356723545 -0.7925872624,-4.0357442258" />
      <path d="M -0.7886668731,-3.9948711244 Q -0.7764141162,-3.9316948804 -0.7282947661,-3.8739984427" />
      <path d="M -0.3119816313,-3.6713193389 L -0.2756382146,-3.6655450632" />
      <path d="M 0.0849442071,-3.665468044 L 0.123355546,-3.6713200913" />
      <path d="M 0.6015192114,-3.8739948831 Q 0.6685503804,-3.9300856084 0.7108162917,-3.9948557408" />
      <path d="M 0.7344325001,-4.0357656074 Q 0.7642789094,-4.0948750081 0.7718897357,-4.1566279642" />
      <path d="M 0.5787817205,-4.5392794035 L 0.5449476081,-4.563723592" />
      <path d="M 0.5449476081,-3.9166456256 C 0.4098656386,-4.0092177831 0.223072129,-4.0706978429 0.0316357951,-4.0887492346 C -0.1597323029,-4.1075815852 -0.3541326396,-4.082973573 -0.5026118399,-4.0242571103 C -0.6842546025,-3.9539021402 -0.793956942,-3.8338842006 -0.7925772284,-3.7121970953" />
      <path d="M -0.7886570894,-3.6713820824 Q -0.7764004952,-3.6081402813 -0.7282996443,-3.550456584" />
      <path d="M -0.3119800196,-3.3477809224 L -0.2756356939,-3.3420064422" />
      <path d="M 0.084943945,-3.3419292274 L 0.1233511682,-3.3477805715" />
      <path d="M 0.6015174025,-3.5504550815 Q 0.6685099322,-3.6065021707 0.7108176151,-3.6713200798" />
      <path d="M 0.734432325,-3.7122273644 Q 0.764274043,-3.7713273817 0.77188685,-3.8330639187" />
      <path d="M 0.7743920704,-3.8739953551 C 0.7752452814,-4.0082066239 0.6907425547,-4.1416650753 0.5449476081,-4.2401847218" />
      <path d="M 0.5449476081,-3.5931065748 C 0.3732150754,-3.7114221411 0.1171474169,-3.7771597921 -0.1244024929,-3.771101431 C -0.3083051162,-3.7675837876 -0.4817148409,-3.7236719084 -0.6025988538,-3.6528264977 C -0.7244036516,-3.582420019 -0.7931354155,-3.485897911 -0.7925953743,-3.3886877561" />
      <path d="M -0.7886691615,-3.3477805703 Q -0.7782930563,-3.2941996616 -0.7418945742,-3.2442757538" />
      <path d="M 0.6015137662,-3.2269239405 Q 0.6685441699,-3.2829932043 0.7108160297,-3.3477833934" />
      <path d="M 0.7344258507,-3.3887007085 Q 0.7642577457,-3.4478112574 0.771880078,-3.5096286346" />
      <path d="M 0.7743843125,-3.5504463809 C 0.7752353194,-3.6847059467 0.6907703538,-3.8180807395 0.5449476081,-3.9166456256" />
      <path d="M 0.5449476081,-3.2695679018 C 0.3998177716,-3.3691148217 0.1951443429,-3.4323442339 -0.0109124984,-3.4450907492 C -0.3352294197,-3.4684562281 -0.645650258,-3.3597941991 -0.7485629347,-3.2000760391" />
      <path d="M -0.7886662585,-3.0242265034 Q -0.7782989032,-2.9706762549 -0.7418947044,-2.9207367711" />
      <path d="M -0.2756376145,-2.6949284687 Q -0.0807595853,-2.6673466275 0.123352182,-2.700702949" />
      <path d="M 0.6064484795,-2.9075420562 Q 0.6700970089,-2.9618613722 0.7108085486,-3.0242539651" />
      <path d="M 0.7344262703,-3.0651608574 Q 0.7642941481,-3.1242759508 0.771886002,-3.1860418159" />
      <path d="M 0.7743796182,-3.2269449058 C 0.7752002929,-3.3612223339 0.69077516,-3.4945198881 0.5449476081,-3.5931065748" />
      <path d="M 0.5449476081,-2.9460291359 C 0.4013584202,-3.0445499746 0.1990615915,-3.1076051369 -0.0047937536,-3.1211442306 C -0.2086396365,-3.1356808272 -0.4118493789,-3.1007377811 -0.5570174607,-3.029921211 C -0.6038924004,-3.007213598 -0.6443885797,-2.9815309168 -0.6785059986,-2.9528731673" />
      <path d="M -0.3119806186,-2.3771639267 C -0.1754016616,-2.353092395 -0.0225101592,-2.3525912322 0.123352304,-2.377163857" />
      <path d="M 0.2938637569,-2.4180677924 Q 0.4375223755,-2.4637975424 0.5474953709,-2.5389334801" />
      <path d="M 0.7743919307,-2.9033795085 C 0.7752455406,-3.0375712233 0.6907620131,-3.1710355581 0.5449476081,-3.2695679018" />
      <path d="M 0.5449476081,-2.6224903854 C 0.3909777149,-2.7283096084 0.1690976411,-2.7928433562 -0.0493281561,-2.79993276 C -0.2678682206,-2.8083388781 -0.4798500995,-2.7594465997 -0.6170486014,-2.6735391931 C -0.6395040432,-2.6596313918 -0.6599929488,-2.6448950046 -0.6785153181,-2.6293300315" />
      <path d="M -0.7886690906,-2.3771632755 Q -0.7764104609,-2.3140075515 -0.7282991804,-2.2563016146" />
      <path d="M -0.275637987,-2.0478506928 Q -0.0807727473,-2.0202694513 0.1233516576,-2.0536250004" />
      <path d="M 0.293874156,-2.0945319697 Q 0.4375456494,-2.1402696254 0.5474951988,-2.2153944791" />
      <path d="M 0.6015206537,-2.2563016738 Q 0.6685198558,-2.3123601763 0.7108174618,-2.3771642776" />
      <path d="M 0.7499378568,-2.4527366282 Q 0.7665221878,-2.4952631203 0.7718846095,-2.5388914423" />
      <path d="M 0.5787812551,-2.9215852 L 0.5449476081,-2.9460291359" />
      <path d="M 0.5449476081,-2.2989511431 C 0.3561022709,-2.4294893494 0.06476035,-2.4949316697 -0.1962621957,-2.4734395242 C -0.3952835088,-2.4586039289 -0.5728965936,-2.395455449 -0.6785150578,-2.3057913223" />
      <path d="M -0.2756377765,-1.7243118307 Q -0.0806887367,-1.696731224 0.1233517103,-1.7300860339" />
      <path d="M 0.2938741082,-1.7709933808 Q 0.4375359022,-1.8167344134 0.5474951452,-1.8918556382" />
      <path d="M 0.6015208861,-1.9327628048 Q 0.6685240727,-1.9888246775 0.7108179596,-2.0536248733" />
      <path d="M 0.7344324941,-2.0945322861 Q 0.7642787196,-2.1536411421 0.7718897325,-2.2153943881" />
      <path d="M 0.7743919192,-2.2563013794 C 0.7752296091,-2.3905345732 0.6907616335,-2.5239506794 0.5449476081,-2.6224903854" />
      <path d="M 0.5449476081,-1.9754124908 C 0.3125585177,-2.1379839733 -0.0777934819,-2.1949666134 -0.3713576897,-2.123366062 C -0.4999662943,-2.0927706691 -0.6023521927,-2.0457327426 -0.6785153847,-1.9822522824" />
      <path d="M 0.2938744572,-1.4474546257 Q 0.4375733356,-1.4932024838 0.5474953092,-1.5683168575" />
      <path d="M 0.6015205387,-1.6092237861 Q 0.6685397554,-1.6653035327 0.7108179563,-1.730086092" />
      <path d="M 0.734432441,-1.7709932302 Q 0.7642797151,-1.8301046821 0.7718897232,-1.891855507" />
      <path d="M 0.7743919196,-1.9327626774 C 0.7752908755,-2.0668921921 0.6906849253,-2.2005081762 0.5449476081,-2.2989511431" />
      <path d="M 0.5449476081,-1.6518736071 C 0.2793785834,-1.8396513302 -0.1929805802,-1.8816623172 -0.4906372579,-1.7640768079 C -0.6110760281,-1.7180258755 -0.6970516207,-1.6574606257 -0.7485640357,-1.5823810587" />
      <path d="M -0.2756387391,-1.0772339601 Q -0.0806858573,-1.0496543654 0.1233514546,-1.08300848" />
      <path d="M 0.293874467,-1.1239156166 Q 0.4375123766,-1.1696373841 0.5474952639,-1.2447776633" />
      <path d="M 0.6064492086,-1.2898473041 Q 0.6701174055,-1.3441750251 0.7108177007,-1.4065469086" />
      <path d="M 0.7344323786,-1.4474544413 Q 0.7642797545,-1.5065667195 0.771889757,-1.5683171403" />
      <path d="M 0.774391963,-1.6092239262 C 0.775246089,-1.7434291387 0.6907437734,-1.876894748 0.5449476081,-1.9754124908" />
      <path d="M 0.5449476081,-1.3283344833 C 0.3926778744,-1.4329524802 0.1741015981,-1.4972677147 -0.0419741209,-1.5054952248 C -0.258135213,-1.5149830926 -0.4688775628,-1.4684806875 -0.6076947802,-1.3850580584 C -0.6338312782,-1.3695137567 -0.6574380571,-1.3528859449 -0.678515117,-1.3351746229" />
      <path d="M -0.2756291697,-0.7536961278 Q -0.0807012211,-0.7261128703 0.1233399095,-0.7594714775" />
      <path d="M 0.2938731647,-0.8003771213 Q 0.4375372101,-0.846109745 0.5474954291,-0.9212387944" />
      <path d="M 0.6015209691,-0.9621459828 Q 0.668528424,-1.0182127917 0.7108178813,-1.083008586" />
      <path d="M 0.7344325278,-1.1239166471 L 0.7499375002,-1.1585813806" />
      <path d="M 0.7607865374,-1.1905915564 Q 0.768539104,-1.2174826079 0.7718825517,-1.2447194528" />
      <path d="M 0.7743920013,-1.285684827 C 0.7752386878,-1.4199072147 0.6907478799,-1.5533471573 0.5449476081,-1.6518736071" />
      <path d="M 0.5449476081,-1.0047960076 C 0.400681502,-1.1037460419 0.1975923521,-1.1668290825 -0.0072563228,-1.1800782565 C -0.2763601901,-1.1994323039 -0.5405106203,-1.1300326866 -0.678515723,-1.0116354762" />
      <path d="M -0.748562732,-0.9353040245 Q -0.7924286162,-0.8700322755 -0.792595385,-0.800376542" />
      <path d="M -0.6884326415,-0.5977000752 Q -0.6052818794,-0.5238598903 -0.471504801,-0.4768378775" />
      <path d="M -0.3119807532,-0.4359305915 C -0.1756233974,-0.4118890107 -0.022642405,-0.4113313251 0.1233522715,-0.4359307491" />
      <path d="M 0.2938741403,-0.4768377089 Q 0.4375830406,-0.5225956161 0.5474965351,-0.5976992519" />
      <path d="M 0.6015189914,-0.638608296 Q 0.6684988573,-0.6946605706 0.710812198,-0.7594781632" />
      <path d="M 0.7344304766,-0.8003802913 Q 0.7642775779,-0.859473907 0.771889298,-0.9212425232" />
      <path d="M 0.7743912576,-0.9621459282 Q 0.7736207069,-1.0916749644 0.6796809274,-1.2073032006" />
      <path d="M 0.5787791289,-1.3038918761 L 0.5449476081,-1.3283344833" />
      <path d="M 0.5449476081,-0.68125703 C 0.3922285067,-0.786196531 0.172723046,-0.85058574 -0.0440047804,-0.858499299 C -0.2608278145,-0.8676888437 -0.4718925244,-0.8205381142 -0.6102811985,-0.7364344571 C -0.7273671799,-0.6664711098 -0.7931039045,-0.5719227 -0.7925938893,-0.4768404192" />
      <path d="M -0.6884324975,-0.2741615097 Q -0.6053702034,-0.2003800719 -0.4715043791,-0.1532990144" />
      <path d="M -0.3119822317,-0.1123918571 Q -0.1206021314,-0.0791382052 0.0849446513,-0.1065403605" />
      <path d="M 0.29387386,-0.1532989338 Q 0.4375076279,-0.1990187702 0.5474954258,-0.2741613632" />
      <path d="M 0.6015211346,-0.3150687491 Q 0.6685206946,-0.3711258473 0.7108177528,-0.435930526" />
      <path d="M 0.7344326404,-0.4768384405 Q 0.7642792694,-0.5359486495 0.7718897148,-0.5977000771" />
      <path d="M 0.7743919293,-0.6386072769 C 0.7752476577,-0.7728162606 0.6907336436,-0.9062861827 0.5449476081,-1.0047960076" />
      <path d="M 0.5449476081,-0.3577180325 C 0.3759460889,-0.4741949423 0.1244064328,-0.5399482501 -0.1136558497,-0.5358948779 C -0.3521512604,-0.5337332329 -0.5722681478,-0.4622546142 -0.689954654,-0.3546125581 C -0.7577555626,-0.2927717801 -0.7919691357,-0.2256671776 -0.7925953734,-0.1532987506" />
      <path d="M -0.7886691785,-0.1123915834 Q -0.776400113,-0.0492146295 -0.7282990591,0.0084704112" />
      <path d="M -0.6884323674,0.0493777002 Q -0.6053948547,0.1231540988 -0.4715048107,0.170240058" />
      <path d="M 0.293873778,0.1702394252 Q 0.4375470843,0.1245003327 0.5474957637,0.0493779279" />
      <path d="M 0.6064496081,0.0043084139 Q 0.6701201452,-0.0500237443 0.7108173257,-0.1123925557" />
      <path d="M 0.734429063,-0.1532938484 Q 0.7642722863,-0.2123893771 0.7718863353,-0.2741379667" />
      <path d="M 0.7743913133,-0.3150683917 C 0.7752289519,-0.4493176334 0.690749085,-0.5827234921 0.5449476081,-0.68125703" />
      <path d="M 0.5449476081,-0.0341789891 C 0.4318018353,-0.1115137807 0.2829101208,-0.1674833254 0.1248335234,-0.1939568085 C -0.2255610992,-0.2566728727 -0.6025635982,-0.1577675266 -0.7330707619,0.0142993274 C -0.7725456757,0.0639683391 -0.792387185,0.1159485152 -0.7925952899,0.1702398556" />
      <path d="M -0.7886679042,0.2111533944 Q -0.7783013166,0.2647096314 -0.741894665,0.3146519467" />
      <path d="M -0.2756385696,0.5404603673 Q -0.080714313,0.5680419671 0.1233508523,0.5346860338" />
      <path d="M 0.6064461547,0.3278454651 Q 0.6701334616,0.2735023281 0.7108176957,0.2111468526" />
      <path d="M 0.7344304346,0.1702362621 Q 0.7642667223,0.111136968 0.7718868282,0.0493543089" />
      <path d="M 0.7743910483,0.0084720977 C 0.7752013299,-0.1257953844 0.69075689,-0.2591897288 0.5449476081,-0.3577180325" />
      <path d="M 0.5449476081,0.2893597908 C 0.4058602493,0.1940357837 0.2122782512,0.1318561219 0.014925049,0.1157501884 C -0.2616549339,0.0911435875 -0.536966674,0.1608230256 -0.6785140692,0.2825192738" />
      <path d="M -0.6884328075,0.6964554742 Q -0.6053608896,0.7702522698 -0.4715047787,0.817317623" />
      <path d="M -0.2756379506,0.8639991591 Q -0.100099511,0.8889141066 0.0849444065,0.8640762242" />
      <path d="M 0.2938742043,0.8173175519 Q 0.4375551241,0.771575152 0.5474951621,0.6964554743" />
      <path d="M 0.6015209698,0.6555483085 Q 0.6685189171,0.5994918776 0.7108179223,0.5346859235" />
      <path d="M 0.7344323686,0.4937786214 L 0.7499377524,0.4591131328" />
      <path d="M 0.7607867547,0.4271029319 Q 0.7685476821,0.4001824806 0.7718897907,0.372917158" />
      <path d="M 0.7743921278,0.332009205 C 0.775264083,0.1978408859 0.6907270381,0.0643137945 0.5449476081,-0.0341789891" />
      <path d="M 0.5449476081,0.6128984661 C 0.3870988389,0.5043785726 0.1582132598,0.439515991 -0.0655053803,0.4349784071 C -0.3144482978,0.4281715758 -0.5504197219,0.496560282 -0.6785148989,0.6060585207" />
      <path d="M -0.7485628902,0.6823904614 Q -0.792440869,0.7476976617 -0.79259531,0.8173177172" />
      <path d="M -0.7886691661,0.8582248437 Q -0.7764039044,0.9213942593 -0.7282992506,0.9790871882" />
      <path d="M -0.68843284,1.0199943261 Q -0.6127026922,1.0873291494 -0.4938304991,1.1327361897" />
      <path d="M 0.3593644276,1.1178036948 Q 0.4638549631,1.077278885 0.5474950279,1.0199944369" />
      <path d="M 0.6015206633,0.9790871345 Q 0.6685452614,0.9230013028 0.7108178052,0.8582249649" />
      <path d="M 0.7344323251,0.8173177729 Q 0.7642797005,0.7582062098 0.7718897355,0.6964551799" />
      <path d="M 0.7743919223,0.6555481971 Q 0.7736516469,0.5261062429 0.6796821543,0.4103919191" />
      <path d="M 0.5787807383,0.313803293 L 0.5449476081,0.2893597908" />
      <path d="M 0.5449476081,0.9364372982 C 0.3971706125,0.8349705971 0.1869833072,0.7712424774 -0.0228494288,0.7601997248 C -0.2327206987,0.7480367218 -0.439716004,0.7884423261 -0.5822085981,0.8653498391 C -0.7164486877,0.9365297968 -0.7933348995,1.0384422052 -0.7925953634,1.1408564481" />
      <path d="M -0.7886688056,1.1817655793 L -0.7868654079,1.1902416804" />
      <path d="M 0.7344322952,1.1408565305 Q 0.7642800402,1.08174344 0.7718898206,1.0199934127" />
      <path d="M 0.7743919696,0.9790871768 C 0.7752453878,0.844885637 0.6907502446,0.7114217164 0.5449476081,0.6128984661" />
      <path d="M 0.1256994664,1.1003472836 C -0.0563496948,1.0691726351 -0.24942959,1.0777679967 -0.4083665587,1.1213455998" />
      <path d="M 0.7540840799,1.186663168 Q 0.702284194,1.0443230414 0.5449476081,0.9364372982" />
      <path d="M 0.5449481275,-5.8578783907 L 0.6980506224,-6.0485358833" />
      <path d="M -0.0890730233,4.0321178787 A 0.42408819458648656,0.24937187246446088 0.0 0,1 0.4548316893,3.9464427546" />
      <path d="M -0.3346967845,3.9934076351 A 0.13400000000000004,0.07879453221474454 -180.0 0,0 -0.0890730233,4.0321178787" />
      <path d="M -0.7328301774,3.7592675405 A 0.42408819458648656,0.24937187246446094 -7.372888355356516e-16 0,1 -0.3346967845,3.9934076351" />
      <path d="M -0.7986301925,3.6148311459 A 0.13400000000000004,0.07879453221474456 -180.0 0,0 -0.8588650975,3.6806123307" />
      <path d="M -0.8588650975,3.6806123307 A 0.13400000000000004,0.07879453221474456 -180.0 0,0 -0.7328301774,3.7592675405" />
      <path d="M -0.6528588727,3.2950159272 A 0.42408819458648656,0.24937187246446088 5.8983106842852124e-15 0,1 -0.6079965199,3.4066444002" />
      <path d="M -0.6079965199,3.4066444002 A 0.42408819458648656,0.24937187246446088 5.8983106842852124e-15 0,1 -0.7986301925,3.6148311459" />
      <path d="M -0.4730351266,3.189289776 A 0.13400000000000004,0.07879453221474454 180.0 0,0 -0.6670341206,3.259744454" />
      <path d="M -0.6670341206,3.259744454 A 0.13400000000000004,0.07879453221474454 180.0 0,0 -0.6528588727,3.2950159272" />
      <path d="M 0.070869586,3.1036146519 A 0.42408819458648656,0.24937187246446088 1.9661035614284033e-15 0,1 -0.4730351266,3.189289776" />
      <path d="M 0.3164933472,3.1423248954 A 0.13400000000000004,0.07879453221474454 180.0 0,0 0.070869586,3.1036146519" />
      <path d="M 0.7146267401,3.3764649901 A 0.42408819458648656,0.24937187246446088 2.7033923969640557e-15 0,1 0.3164933472,3.1423248954" />
      <path d="M 0.7804267552,3.5209013847 A 0.13400000000000004,0.07879453221474454 -180.0 0,0 0.8406616602,3.4551201999" />
      <path d="M 0.8406616602,3.4551201999 A 0.13400000000000004,0.07879453221474454 -180.0 0,0 0.7146267401,3.3764649901" />
      <path d="M 0.6346554354,3.8407166034 A 0.42408819458648656,0.24937187246446094 1.9661035614284037e-15 0,1 0.5897930826,3.7290881303" />
      <path d="M 0.5897930826,3.7290881303 A 0.42408819458648656,0.24937187246446094 1.9661035614284037e-15 0,1 0.7804267552,3.5209013847" />
      <path d="M 0.4548316893,3.9464427546 A 0.13400000000000004,0.07879453221474454 180.0 0,0 0.6488306832,3.8759880766" />
      <path d="M 0.6488306832,3.8759880766 A 0.13400000000000004,0.07879453221474454 180.0 0,0 0.6346554354,3.8407166034" />
      <line x1="0.5449476081" y1="0.9364372982" x2="0.5449476081" y2="1.0182520592" />
      <line x1="0.5449476081" y1="0.6128984661" x2="0.5449476081" y2="0.6947130084" />
      <line x1="0.5449476081" y1="0.2893597908" x2="0.5449476081" y2="0.2978403823" />
      <line x1="0.5449476081" y1="0.3382827418" x2="0.5449476081" y2="0.3711741383" />
      <line x1="0.5449476081" y1="-0.0341789891" x2="0.5449476081" y2="0.0476350421" />
      <line x1="0.5449476081" y1="-0.3577180325" x2="0.5449476081" y2="-0.2759040087" />
      <line x1="0.5449476081" y1="-0.68125703" x2="0.5449476081" y2="-0.5994426818" />
      <line x1="0.5449476081" y1="-1.0047960076" x2="0.5449476081" y2="-0.9229814477" />
      <line x1="0.5449476081" y1="-1.3283344833" x2="0.5449476081" y2="-1.3198540046" />
      <line x1="0.5449476081" y1="-1.2794116452" x2="0.5449476081" y2="-1.2465201982" />
      <line x1="0.5449476081" y1="-1.6518736071" x2="0.5449476081" y2="-1.5700594405" />
      <line x1="0.5449476081" y1="-1.9754124908" x2="0.5449476081" y2="-1.8935980927" />
      <line x1="0.5449476081" y1="-2.2989511431" x2="0.5449476081" y2="-2.2171369765" />
      <line x1="0.5449476081" y1="-2.6224903854" x2="0.5449476081" y2="-2.5406761002" />
      <line x1="0.5449476081" y1="-2.9460291359" x2="0.5449476081" y2="-2.9375483715" />
      <line x1="0.5449476081" y1="-3.2695679018" x2="0.5449476081" y2="-3.1877535536" />
      <line x1="0.5449476081" y1="-3.5931065748" x2="0.5449476081" y2="-3.5112925511" />
      <line x1="0.5449476081" y1="-3.9166456256" x2="0.5449476081" y2="-3.8348315944" />
      <line x1="0.5449476081" y1="-4.2401847218" x2="0.5449476081" y2="-4.1583703744" />
      <line x1="0.5449476081" y1="-4.563723592" x2="0.5449476081" y2="-4.5552428021" />
      <line x1="0.5449476081" y1="-4.8872626428" x2="0.5449476081" y2="-4.8787816532" />
      <line x1="0.5449476081" y1="-5.2108012887" x2="0.5449476081" y2="-5.1618781527" />
      <line x1="0.5449476081" y1="-5.5343399123" x2="0.5449476081" y2="-5.4525256319" />
      <line x1="0.5449476081" y1="-5.8578786962" x2="0.5449476081" y2="-5.7760647838" />
      <path d="M -0.5074669132,-6.0642092699 C -0.5045399904,-6.0646193167 -0.4947225106,-6.0665686215 -0.4780144739,-6.0700571843 C -0.4706896618,-6.0717967638 -0.4516180145,-6.075500841 -0.420799532,-6.081169416 C -0.376241317,-6.0891333188 -0.3101795252,-6.0970573879 -0.2462308404,-6.0985927506 C 0.0255339916,-6.1084333063 0.3441818901,-6.0208540935 0.5449476081,-5.857878805" />
      <path d="M -0.5074669132,-6.0642092699 L -0.5074669132,-6.1046516294" />
      <path d="M -0.5074669132,-6.1046516294 C -0.5045358608,-6.1068423184 -0.494753113,-6.1122982544 -0.4781186698,-6.1210194373 C -0.4716760471,-6.1244772816 -0.4592238647,-6.1302671867 -0.4407621226,-6.1383891525 C -0.4210493324,-6.1471484111 -0.3939805802,-6.1571986865 -0.359555866,-6.1685399788 C -0.1946174438,-6.2218937724 0.0097550149,-6.2383137057 0.1925838187,-6.2121382441" />
      <path d="M 0.7716488947,-5.7762435308 A 0.7834936490538903,0.46070907142107836 0.0 0,1 0.7583619094,-5.7220443777" />
      <path d="M 0.5146882075,-5.4721391161 A 0.7834936490538903,0.46070907142107836 0.0 0,1 0.1576505032,-5.3646074217" />
      <path d="M -0.2612678037,-5.3785658171 A 0.7834936490538903,0.46070907142107836 0.0 0,1 -0.6012064563,-5.5130471129" />
      <path d="M -0.6585552255,-5.5570555646 A 0.7834936490538903,0.46070907142107836 0.0 0,1 -0.7613259595,-5.6859044877" />
      <path d="M -0.7925953677,-5.8147611377 A 0.7834936490538903,0.46070907142107836 0.0 0,1 0.5285703568,-6.1498653827" />
      <path d="M 0.6980506224,-6.0889782428 Q 0.512265584,-6.1696660713 0.2937444056,-6.1984748685" />
      <path d="M 0.2937444056,-6.1984748685 C 0.0067060452,-6.2368820447 -0.2912088133,-6.1974918815 -0.5074669132,-6.1046516294" />
      <path d="M 0.6980506224,-6.0485358833 C 0.4983926486,-6.1365749712 0.2506526465,-6.1796648735 0.0160242925,-6.1717627485 C -0.1773082696,-6.1658298863 -0.3603583866,-6.1268158382 -0.5074669132,-6.0642092699" />
      <path d="M 0.0816897862,3.0952426198 A 0.42408819458648656,0.24937187246446088 0.0 0,1 0.2235530222,3.0719495289" />
      <line x1="-0.3346967845" y1="3.9934076351" x2="-0.3346967845" y2="3.2138349856" />
      <path d="M -0.2417564595,3.2144934523 A 0.13400000000000004,0.07879453221474454 -180.0 0,0 -0.0998932235,3.1912003614" />
      <line x1="0.7804267552" y1="3.5209013847" x2="0.7804267552" y2="3.3893390151" />
      <path d="M 0.6980505697,3.1521008764 A 1.000000000025746,0.5880188971400984 0.0 0,1 -0.716254007,3.9836316541 A 1.000000000025746,0.5880188971400984 0.0 0,1 0.6980505697,3.1521008764" />
      <line x1="-0.0890730233" y1="4.0321178787" x2="-0.0890730233" y2="3.1880395011" />
      <line x1="0.4548316893" y1="3.9464427546" x2="0.4548316893" y2="3.3121981567" />
      <line x1="-0.7328301774" y1="3.7592675405" x2="-0.7328301774" y2="3.5833414066" />
      <line x1="-0.6528588727" y1="3.2950159272" x2="-0.6528588727" y2="3.2244729808" />
      <path d="M 1.9868488592,2.3485101182 C 1.9681463978,2.51881826 1.9488213218,2.7119026752 1.9071985439,2.9139216241 C 1.8781531016,3.0630322086 1.8321168583,3.2103477957 1.7690898138,3.3558683856 C 1.7004145517,3.5098524766 1.6103724349,3.6471739002 1.4989634635,3.7678326564 C 1.2814247402,4.0026267352 0.9920788963,4.1615160299 0.6684273194,4.2537036845 C 0.2418726419,4.3750768569 -0.2447320495,4.3764100317 -0.672573951,4.2576465885 C -1.0049130109,4.1652774614 -1.3019039563,4.0030632141 -1.5232310706,3.7612435298 C -1.6311105588,3.6429735714 -1.7186583731,3.5089010931 -1.7858745137,3.3590260949 C -1.8280031976,3.264257818 -1.862190385,3.1676569181 -1.8884360757,3.0692233951 C -1.926111578,2.9237213061 -1.9533444029,2.7829279468 -1.9701345504,2.6468433171 C -1.9837810107,2.5417125867 -1.9954202594,2.4422681871 -2.0050522965,2.3485101182" />
      <path d="M 0.9908982767,-5.5923314513 L 0.9908982767,-5.6327738108" />
      <path d="M -1.0091017112,-5.4305620744 L -1.0091017112,-5.4710044339" />
      <path d="M 0.9908982716,-5.2687927739 L 0.9908982716,-5.3092351334" />
      <path d="M -1.0091017373,-5.1070230134 L -1.0091017373,-5.1474653729" />
      <path d="M 0.9908982648,-4.9452537992 L 0.9908982648,-4.9856961587" />
      <path d="M -1.0091017665,-4.783484323 L -1.0091017665,-4.8239266825" />
      <path d="M 0.9908982813,-4.6217148471 L 0.9908982813,-4.6621572066" />
      <path d="M -1.0091017665,-4.4599453702 L -1.0091017665,-4.5003877297" />
      <path d="M 0.9908982648,-4.298175894 L 0.9908982648,-4.3386182535" />
      <path d="M -1.0091017372,-4.1364066797 L -1.0091017372,-4.1768490392" />
      <path d="M 0.9908982715,-3.9746369192 L 0.9908982715,-4.0150792787" />
      <path d="M -1.0091017112,-3.8128676187 L -1.0091017112,-3.8533099782" />
      <path d="M 0.9908982767,-3.6510982418 L 0.9908982767,-3.6915406013" />
      <path d="M -1.0091016654,-3.4893287099 L -1.0091016654,-3.5297710694" />
      <path d="M 0.9908982698,-3.3275593603 L 0.9908982698,-3.3680017198" />
      <path d="M -1.0091016962,-3.1657899341 L -1.0091016962,-3.2062322936" />
      <path d="M 0.990898319,-3.0040205766 L 0.990898319,-3.0444629361" />
      <path d="M -1.0091017747,-2.8422510511 L -1.0091017747,-2.8826934106" />
      <path d="M 0.9908982993,-2.6804817195 L 0.9908982993,-2.720924079" />
      <path d="M -1.0091017366,-2.518712262 L -1.0091017366,-2.5591546215" />
      <path d="M 0.9908983373,-2.3569427505 L 0.9908983373,-2.39738511" />
      <path d="M -1.0091017563,-2.1951733669 L -1.0091017563,-2.2356157264" />
      <path d="M 0.9908982589,-2.0334038671 L 0.9908982589,-2.0738462266" />
      <path d="M -1.0091017071,-1.8716344097 L -1.0091017071,-1.9120767692" />
      <path d="M 0.990898228,-1.7098648789 L 0.990898228,-1.7503072384" />
      <path d="M -1.009101714,-1.5480955496 L -1.009101714,-1.5885379091" />
      <path d="M 0.9908982738,-1.3863260437 L 0.9908982738,-1.4267684032" />
      <path d="M -1.0091017089,-1.224556502 L -1.0091017089,-1.2649988615" />
      <path d="M 0.9908982999,-1.0627873825 L 0.9908982999,-1.1032297419" />
      <path d="M -1.0091017021,-0.901017712 L -1.0091017021,-0.9414600715" />
      <path d="M 0.9908983292,-0.7392482932 L 0.9908983292,-0.7796906526" />
      <path d="M -1.0091017187,-0.5774788965 L -1.0091017187,-0.617921256" />
      <path d="M 0.9908983292,-0.4157095008 L 0.9908983292,-0.4561518603" />
      <path d="M -1.0091017021,-0.2539400819 L -1.0091017021,-0.2943824414" />
      <path d="M 0.9908982999,-0.0921704116 L 0.9908982999,-0.1326127711" />
      <path d="M -1.0091017089,0.069598708 L -1.0091017089,0.0291563485" />
      <path d="M 0.9908982739,0.2313682498 L 0.9908982739,0.1909258903" />
      <path d="M -1.009101714,0.3931377555 L -1.009101714,0.352695396" />
      <path d="M 0.9908982281,0.5549070847 L 0.9908982281,0.5144647252" />
      <path d="M -1.0091017071,0.7166766157 L -1.0091017071,0.6762342562" />
      <path d="M 0.9908982589,0.8784460731 L 0.9908982589,0.8380037136" />
      <path d="M -1.0091017563,1.0402155728 L -1.0091017563,0.9997732133" />
      <path d="M 0.9908983373,1.2019849568 L 0.9908983373,1.1615425973" />
      <line x1="-0.7925953677" y1="1.191670076" x2="-0.7925953677" y2="1.1408564426" />
      <line x1="0.7743919304" y1="1.0609013099" x2="0.7743919304" y2="0.9790871816" />
      <line x1="-0.7925953677" y1="0.8991321154" x2="-0.7925953677" y2="0.8173175949" />
      <line x1="0.7743919304" y1="0.7373625353" x2="0.7743919304" y2="0.655548185" />
      <line x1="0.7743919304" y1="0.4138237674" x2="0.7743919304" y2="0.332009202" />
      <line x1="-0.7925953677" y1="0.2520545775" x2="-0.7925953677" y2="0.1702398768" />
      <line x1="0.7743919304" y1="0.0902850172" x2="0.7743919304" y2="0.0084707249" />
      <line x1="-0.7925953677" y1="-0.0714844679" x2="-0.7925953677" y2="-0.1532987474" />
      <line x1="0.7743919304" y1="-0.2332542213" x2="0.7743919304" y2="-0.3150683935" />
      <line x1="0.7743919304" y1="-0.5567928784" x2="0.7743919304" y2="-0.6386072757" />
      <line x1="0.7743919304" y1="-0.8803317611" x2="0.7743919304" y2="-0.9621459407" />
      <line x1="0.7743919304" y1="-1.2038706848" x2="0.7743919304" y2="-1.2856851698" />
      <line x1="0.7743919304" y1="-1.5274093585" x2="0.7743919304" y2="-1.6092239212" />
      <line x1="0.7743919304" y1="-1.8509483386" x2="0.7743919304" y2="-1.9327626882" />
      <line x1="0.7743919304" y1="-2.1744873343" x2="0.7743919304" y2="-2.2563013602" />
      <line x1="0.7743919304" y1="-2.8215651605" x2="0.7743919304" y2="-2.9033795068" />
      <line x1="-0.7925953677" y1="-2.9833347251" x2="-0.7925953677" y2="-3.0651487671" />
      <line x1="0.7743919304" y1="-3.1451038348" x2="0.7743919304" y2="-3.226918396" />
      <line x1="-0.7925953677" y1="-3.3068734163" x2="-0.7925953677" y2="-3.388687764" />
      <line x1="0.7743919304" y1="-3.4686426589" x2="0.7743919304" y2="-3.5504574183" />
      <line x1="-0.7925953677" y1="-3.6304121821" x2="-0.7925953677" y2="-3.7122266669" />
      <line x1="0.7743919304" y1="-3.7921814039" x2="0.7743919304" y2="-3.8739960717" />
      <line x1="-0.7925953677" y1="-3.9539509359" x2="-0.7925953677" y2="-4.0357652551" />
      <line x1="0.7743919304" y1="-4.4392595693" x2="0.7743919304" y2="-4.5210736904" />
      <line x1="-0.7925953677" y1="-4.6010288268" x2="-0.7925953677" y2="-4.6828432252" />
      <line x1="0.7743919304" y1="-4.7627983768" x2="0.7743919304" y2="-4.844612484" />
      <line x1="-0.7925953677" y1="-4.9245677105" x2="-0.7925953677" y2="-5.0063820506" />
      <line x1="-0.7925953677" y1="-5.248106798" x2="-0.7925953677" y2="-5.3299211149" />
      <line x1="-0.7925953677" y1="-5.5716453117" x2="-0.7925953677" y2="-5.8147611377" />
      <path d="M 0.1925838173,-6.2121382442 L 0.2937444056,-6.1984748685" />
      <line x1="-0.6079965199" y1="3.1944329468" x2="-0.6079965199" y2="3.4066444002" />
      <line x1="0.5897930826" y1="3.3607769498" x2="0.5897930826" y2="3.7290881303" />
    </g>
  </g>
</svg>