<?xml version='1.0' encoding='utf-8'?>
<svg width="224.7937411379mm" height="512.9999999994mm" viewBox="-2.1603066824 -4.1379607054 4.3134854537 9.8437706786" version="1.1" xmlns="http://www.w3.org/2000/svg">
  <g transform="scale(1,-1)" stroke-linecap="round">
    <g fill="none" stroke="rgb(64,192,64)" stroke-width="0.019188636800411683" id="Visible">
      <path d="M 0.445460167,3.0618044745 C 0.3776028445,3.0219082322 0.3287978514,2.9581342185 0.3220027731,2.876331222" />
      <path d="M 0.7201517577,3.1115063447 C 0.6088987803,3.1235822104 0.5130593762,3.1019182854 0.445460167,3.0618044745" />
      <path d="M 0.7859613912,3.2565853862 Q 0.8443091544,3.2221466566 0.846191908,3.1771959304" />
      <path d="M 0.846191908,3.1771959304 C 0.8477776029,3.1337889049 0.7892127047,3.1029612477 0.7201517577,3.1115063447" />
      <path d="M 0.640211369,3.5778303131 Q 0.594558294,3.5369707744 0.5953415832,3.4857913905" />
      <path d="M 0.5953415832,3.4857913905 C 0.5959751479,3.4132879685 0.657597307,3.3300100314 0.7859613912,3.2565853862" />
      <path d="M 0.4603946637,3.684032149 C 0.5446589981,3.6974323863 0.6584611766,3.6509586792 0.6543889658,3.6052531741" />
      <path d="M 0.6543889658,3.6052531741 Q 0.6543030065,3.5900236999 0.640211369,3.5778303131" />
      <path d="M -0.0835043432,3.7701019532 C -0.0219682276,3.7312838481 0.0682555245,3.7038364097 0.1608570069,3.6892696439 C 0.2533086182,3.6745682754 0.3606813749,3.6707493406 0.4603946637,3.684032149" />
      <path d="M -0.329130682,3.7312247476 C -0.3265463068,3.7563898708 -0.2844445771,3.7807208677 -0.2300519183,3.788960046 C -0.1760782452,3.7978728358 -0.1140126678,3.7900293164 -0.0835043432,3.7701019532" />
      <path d="M -0.7272796666,3.4960496249 C -0.6159915348,3.516165792 -0.5201301349,3.5521746865 -0.452524892,3.59223953 C -0.384701936,3.6321929054 -0.3359230402,3.6816227717 -0.329130682,3.7312247476" />
      <path d="M -0.7930893001,3.3509705834 Q -0.8514370633,3.364964098 -0.8533198169,3.4037268373" />
      <path d="M -0.8533198169,3.4037268373 C -0.8549055118,3.4412279607 -0.7963406136,3.4844469526 -0.7272796666,3.4960496249" />
      <path d="M -0.6473392779,3.0297256565 Q -0.6016862029,3.1004343883 -0.6024694921,3.1619569242" />
      <path d="M -0.6024694921,3.1619569242 C -0.6031030568,3.2493270818 -0.6647252159,3.3217450586 -0.7930893001,3.3509705834" />
      <path d="M -0.4675225725,2.9235238206 C -0.5517881686,2.8818697336 -0.6655903337,2.9189801153 -0.6615168747,2.9862854155" />
      <path d="M -0.6615168747,2.9862854155 Q -0.6614309151,3.0083645046 -0.6473392779,3.0297256565" />
      <path d="M 0.0763764343,2.8374540164 C 0.0148403188,2.9084675357 -0.0753834334,2.9502438618 -0.1679849157,2.9647370298 C -0.2604365271,2.9794947763 -0.3678092838,2.9689818984 -0.4675225725,2.9235238206" />
      <path d="M 0.3220027731,2.876331222 C 0.3194183979,2.8347123277 0.2773166683,2.7985534674 0.2229240094,2.7905641859 C 0.1689503363,2.7814015132 0.1068847589,2.8010728281 0.0763764343,2.8374540164" />
      <line x1="0.7859613912" y1="3.2565853862" x2="0.7859613912" y2="3.1155965139" />
      <path d="M -0.0835043432,2.9869779668 A 0.42408819458648656,0.25048404072731506 0.0 0,1 0.3219963648,2.8762524692" />
      <line x1="-0.329130682" y1="3.7312247476" x2="-0.329130682" y2="2.9647323943" />
      <path d="M -0.3240430994,2.9654907673 A 0.13400000000000004,0.07914594625815542 -180.0 0,0 -0.0835043432,2.9869779668" />
      <path d="M -0.6849144111,1.4352444811 A 1.0000000000000004,0.5906413899862346 0.0 0,1 0.6777865022,1.4352444811" />
      <path d="M 0.7035606463,-5.5098744047 L 0.7035606463,-5.4695276964" />
      <path d="M 0.7035606463,-5.4695276964 C 0.8896785919,-5.3470305748 0.9974971398,-5.179835158 0.9964360993,-5.0115463496" />
      <path d="M 0.9964360993,-5.0115463496 Q 0.9963966995,-4.9401385156 0.9719788283,-4.8703327351" />
      <path d="M 0.9643818839,-4.8501593748 Q 0.9300955534,-4.7653668073 0.861967761,-4.6887725727" />
      <path d="M 0.6156583688,-4.5013750489 L 0.5800465701,-4.4832449107" />
      <path d="M -0.6693906841,-4.4527424399 L -0.738324899,-4.4878080417" />
      <path d="M -0.7717910105,-4.5077330107 C -0.9206747212,-4.6007548956 -1.0042229438,-4.7251596692 -1.0035638986,-4.8501595049" />
      <path d="M -1.0035638986,-4.8501595049 C -1.0046250916,-4.9915559188 -0.8967995646,-5.1318591434 -0.710670752,-5.2274592075 C -0.5260427065,-5.3239456727 -0.2657285585,-5.3741831498 -0.0035637855,-5.3601074779 C 0.2586009943,-5.3472853906 0.5189149734,-5.2701500773 0.7035429351,-5.1467656948 C 0.8896716488,-5.0242677116 0.9974972714,-4.857066657 0.9964360927,-4.688772497" />
      <path d="M 0.9964360927,-4.688772497 Q 0.9952120761,-4.5169183105 0.8619677388,-4.365998908" />
      <path d="M -0.6693907856,-4.1299688664 L -0.7383246092,-4.1650342505" />
      <path d="M -0.9575928632,-4.3659988785 Q -1.0034240752,-4.4446226402 -1.0035640016,-4.5273856926" />
      <path d="M -1.0035640016,-4.5273856926 C -1.0046251803,-4.6687820444 -0.8967995576,-4.8090852908 -0.710670844,-4.9046854659 C -0.5260428823,-5.0011720402 -0.2657289031,-5.0514095453 -0.0035641233,-5.0373338244 C 0.2586006496,-5.0245116882 0.5189147976,-4.947376403 0.7035428431,-4.8239921296 C 0.8896716557,-4.7014942574 0.9974971827,-4.5342932246 0.9964359897,-4.3659990026" />
      <path d="M 0.9964359897,-4.3659990026 Q 0.9955098757,-4.2061974838 0.8792144413,-4.0633986029" />
      <path d="M 0.6156532189,-3.8558248833 L 0.580046084,-3.8376972338" />
      <path d="M -0.6693908861,-3.8071952679 L -0.738324581,-3.8422605666" />
      <path d="M -0.7717910009,-3.8621856923 L -0.8014959259,-3.8818383884" />
      <path d="M -0.8290009139,-3.9020117412 C -0.9422264214,-3.9891419665 -1.0039350251,-4.0967336813 -1.0035640081,-4.2046121892" />
      <path d="M -1.0035640081,-4.2046121892 C -1.0046253121,-4.3460131819 -0.8967923149,-4.4863204355 -0.7106529156,-4.5819211638 C -0.434564832,-4.7289327234 0.0157440014,-4.7616596666 0.3791313953,-4.6494232701 C 0.7462975991,-4.5425758138 1.0013736269,-4.2969225942 0.9964359492,-4.0432250336" />
      <path d="M 0.9964359492,-4.0432250336 Q 0.9963965545,-3.9718172123 0.9719787368,-3.9020114923" />
      <path d="M 0.9643818079,-3.8818381511 Q 0.9106965231,-3.7500685429 0.7792660003,-3.641206434" />
      <path d="M 0.7670491715,-3.6313104197 Q 0.7214224082,-3.5950593897 0.6684129573,-3.5629732641" />
      <path d="M 0.6156584196,-3.5330540256 L 0.5800464692,-3.5149238156" />
      <path d="M -0.6693909996,-3.4844217146 L -0.7383245435,-3.5194869703" />
      <path d="M -0.9685896077,-3.7406249642 Q -1.003483292,-3.8098601923 -1.0035640703,-3.8818385964" />
      <path d="M -1.0035640703,-3.8818385964 C -1.0046252882,-4.0232350378 -0.8967994494,-4.1635383135 -0.7106705083,-4.2591383116 C -0.5260423065,-4.3556247153 -0.2657284902,-4.4058620909 -0.0035639488,-4.3917864383 C 0.2586005546,-4.3789643729 0.518914955,-4.3018290873 0.7035430383,-4.1784447672 C 0.8896717998,-4.0559468791 0.9974966803,-3.8887460225 0.9964360456,-3.7204516094" />
      <path d="M 0.9964360456,-3.7204516094 C 0.9970130981,-3.5766277709 0.9191194329,-3.4333073486 0.7792658366,-3.3184327118" />
      <path d="M 0.7670517421,-3.3085388686 Q 0.7214243124,-3.2722869991 0.6684138379,-3.2402001699" />
      <path d="M 0.6156583841,-3.2102803685 L 0.58004792,-3.1921508774" />
      <path d="M -0.6693913241,-3.1616482491 L -0.7383245228,-3.1967133137" />
      <path d="M -0.7717909577,-3.2166384348 C -0.9206747298,-3.3096601888 -1.0042231304,-3.4340647906 -1.0035640703,-3.5590646236" />
      <path d="M -1.0035640703,-3.5590646236 C -1.0046252637,-3.7004610632 -0.8967995263,-3.8407644551 -0.7106708053,-3.9363645274 C -0.5260428271,-4.032851014 -0.2657290644,-4.0830883651 -0.0035644132,-4.0690127341 C 0.2586002204,-4.0561906728 0.5189144763,-3.9790556207 0.7035426731,-3.8556713908 C 0.8896716454,-3.7331735761 0.9974971639,-3.5659724148 0.9964359492,-3.3976781865" />
      <path d="M 0.9964359492,-3.3976781865 C 0.9970134182,-3.2538544955 0.9191196079,-3.1105339426 0.7792660128,-2.9956592327" />
      <path d="M 0.7670517423,-2.9857652393 Q 0.7214242979,-2.9495133384 0.6684138339,-2.9174264971" />
      <path d="M 0.6156520681,-2.8875033287 L 0.5800465528,-2.8693765204" />
      <path d="M -0.9575928632,-3.0749043416 Q -1.0034240711,-3.1535279323 -1.0035640081,-3.2362910308" />
      <path d="M -1.0035640081,-3.2362910308 C -1.004625199,-3.3776874946 -0.8967994385,-3.5179910728 -0.7106706636,-3.6135910143 C -0.5260426372,-3.7100773918 -0.265728708,-3.7603146303 -0.0035639861,-3.746239026 C 0.2586007281,-3.7334169839 0.518914842,-3.6562819255 0.7035428749,-3.5328975861 C 0.8896716748,-3.4103996673 0.9974971847,-3.2431984087 0.9964359897,-3.0749042174" />
      <path d="M 0.9964359897,-3.0749042174 C 0.9970134748,-2.9310806414 0.9191196365,-2.7877602522 0.7792660021,-2.6728856156" />
      <path d="M 0.7670497176,-2.6629900293 Q 0.7214230849,-2.6267390244 0.6684137834,-2.594652896" />
      <path d="M -0.9575928104,-2.7521306196 Q -1.003424063,-2.8307543835 -1.0035640016,-2.9135175274" />
      <path d="M -1.0035640016,-2.9135175274 C -1.0046253058,-3.0549161 -0.8967958689,-3.1952218287 -0.7106616337,-3.290822034 C -0.5260282676,-3.3873086677 -0.2657079479,-3.4375436342 -0.0035387535,-3.4234641225 C 0.2586220361,-3.4106379512 0.5189287569,-3.3335017016 0.7035515446,-3.2101181066 C 0.889675053,-3.0876208077 0.9974972652,-2.9204221005 0.9964360927,-2.7521307229" />
      <path d="M 0.9964360927,-2.7521307229 Q 0.996368288,-2.6702342582 0.964381884,-2.5907438452" />
      <path d="M 0.6156583196,-2.2419594012 L 0.580045699,-2.2238288338" />
      <path d="M -0.9685895956,-2.4495303591 Q -1.0034831247,-2.5187654389 -1.0035638986,-2.5907437151" />
      <path d="M -1.0035638986,-2.5907437151 C -1.0046250936,-2.7321401015 -0.8967995837,-2.8724435553 -0.7106707838,-2.9680436693 C -0.5260427508,-3.0645302039 -0.2657286369,-3.1147674574 -0.0035639228,-3.1006916947 C 0.2586007992,-3.0878694941 0.5189147283,-3.0107344508 0.7035427548,-2.8873502684 C 0.8896715296,-2.7648525221 0.9974972901,-2.5976511391 0.9964360993,-2.4293568704" />
      <path d="M 0.9964360993,-2.4293568704 Q 0.9963682961,-2.3474604322 0.9643819043,-2.2679701422" />
      <path d="M 0.6156582662,-1.9191857703 L 0.5800473475,-1.9010560883" />
      <path d="M -0.9685894253,-2.1267565671 Q -1.0034830796,-2.195991839 -1.0035638581,-2.2679703106" />
      <path d="M -1.0035638581,-2.2679703106 C -1.0046250728,-2.409366735 -0.8967995543,-2.5496700924 -0.710670582,-2.645270103 C -0.5260423853,-2.741756529 -0.2657281293,-2.7919937771 -0.0035634957,-2.7779180345 C 0.2586011556,-2.7650958615 0.5189149183,-2.6879607065 0.7035428964,-2.5645764158 C 0.8896716174,-2.4420785396 0.9974973548,-2.2748773437 0.9964361615,-2.1065831001" />
      <path d="M 0.9964361615,-2.1065831001 Q 0.996368362,-2.0246867477 0.9643820328,-1.9451964445" />
      <path d="M 0.6156582485,-1.5964121027 L 0.5800470945,-1.5782822729" />
      <path d="M -0.9575927145,-1.7838096617 Q -1.0034238075,-1.8624333343 -1.0035639544,-1.945196445" />
      <path d="M -1.0035639544,-1.945196445 C -1.0035639543,-1.9452009749 -1.0035639542,-1.9452055048 -1.0035639541,-1.9452100347 C -1.004617949,-2.0866055188 -0.8967883142,-2.2269058693 -0.7106575818,-2.3225031144 C -0.5260274525,-2.4189867807 -0.2657137345,-2.4692213665 -0.0035513591,-2.4551438046 C 0.2586110811,-2.4423197909 0.5189214975,-2.3651838491 0.7035470546,-2.2417999596 C 0.8896733138,-2.1193024426 0.9974973464,-1.9521026769 0.9964361615,-1.7838097889" />
      <path d="M 0.9964361615,-1.7838097889 C 0.9970136492,-1.6399861846 0.9191196384,-1.4966656574 0.7792660003,-1.3817909822" />
      <path d="M 0.7670517138,-1.3718969808 Q 0.7328382114,-1.3447087361 0.6943957392,-1.3198224713" />
      <path d="M -0.9575928872,-1.4610358759 Q -1.0034239358,-1.5396595506 -1.0035638581,-1.6224225784" />
      <path d="M -1.0035638581,-1.6224225784 C -1.0085019256,-1.8357785502 -0.7534140915,-2.0410893399 -0.3862360216,-2.1075863646 C -0.0228368297,-2.1794728112 0.4274809679,-2.1063876473 0.7035606463,-1.9190173655 C 0.8896785919,-1.7965202439 0.9974971398,-1.6293248271 0.9964360993,-1.4610360187" />
      <path d="M 0.9964360993,-1.4610360187 Q 0.9963682958,-1.3791395393 0.9643818839,-1.2996490439" />
      <path d="M -0.9685895373,-1.1584356471 Q -1.0034831249,-1.2276708372 -1.0035638986,-1.299649174" />
      <path d="M -1.0035638986,-1.299649174 C -1.0046250916,-1.4410455879 -0.8967995646,-1.5813488125 -0.710670752,-1.6769488766 C -0.5260427065,-1.7734353418 -0.2657285585,-1.8236728189 -0.0035637855,-1.809597147 C 0.2586009943,-1.7967750597 0.5189149734,-1.7196397464 0.7035429351,-1.5962553639 C 0.8896716488,-1.4737573807 0.9974972714,-1.3065563262 0.9964360927,-1.1382621662" />
      <path d="M 0.9964360927,-1.1382621662 Q 0.996396697,-1.0668543923 0.9719788404,-0.9970486831" />
      <path d="M -0.9575928632,-0.8154885476 Q -1.0034240752,-0.8941123093 -1.0035640016,-0.9768753617" />
      <path d="M -1.0035640016,-0.9768753617 C -1.0046251803,-1.1182717136 -0.8967995576,-1.2585749599 -0.710670844,-1.354175135 C -0.5260428823,-1.4506617093 -0.2657289031,-1.5008992144 -0.0035641233,-1.4868234936 C 0.2586006496,-1.4740013574 0.5189147976,-1.3968660721 0.7035428431,-1.2734817987 C 0.8896716557,-1.1509839265 0.9974971827,-0.9837828937 0.9964359897,-0.8154886717" />
      <path d="M 0.9964359897,-0.8154886717 Q 0.9963965921,-0.7440808054 0.9719787327,-0.6742750221" />
      <path d="M -0.9575929431,-0.4927150454 Q -1.0034240719,-0.5713388085 -1.0035640081,-0.6541018583" />
      <path d="M -1.0035640081,-0.6541018583 C -1.0046253121,-0.795502851 -0.8967923149,-0.9358101046 -0.7106529156,-1.0314108329 C -0.434564832,-1.1784223926 0.0157440014,-1.2111493358 0.3791313953,-1.0989129392 C 0.7462975991,-0.9920654829 1.0013736269,-0.7464122633 0.9964359492,-0.4927147027" />
      <path d="M 0.9964359492,-0.4927147027 Q 0.9963965545,-0.4213068814 0.9719787368,-0.3515011614" />
      <path d="M 0.9643818079,-0.3313278202 Q 0.9346649906,-0.257760785 0.8792145988,-0.1901146333" />
      <path d="M -0.6693909888,0.0660886213 L -0.7383245438,0.0310233604" />
      <path d="M -0.7717909763,0.0110982178 C -0.9206746931,-0.0819236249 -1.004223117,-0.2063283739 -1.0035640703,-0.3313282655" />
      <path d="M -1.0035640703,-0.3313282655 C -1.0046252882,-0.4727247069 -0.8967994494,-0.6130279826 -0.7106705083,-0.7086279807 C -0.5260423065,-0.8051143845 -0.2657284902,-0.85535176 -0.0035639488,-0.8412761074 C 0.2586005546,-0.828454042 0.518914955,-0.7513187564 0.7035430383,-0.6279344363 C 0.8896717998,-0.5054365482 0.9974966803,-0.3382356916 0.9964360456,-0.1699412785" />
      <path d="M 0.9964360456,-0.1699412785 Q 0.9955095108,-0.0101396351 0.8792144413,0.1326590054" />
      <path d="M 0.6156576539,0.3402303503 L 0.5800465229,0.3583601349" />
      <path d="M -0.6693894296,0.3888629499 L -0.7383245282,0.3537970141" />
      <path d="M -0.7717909629,0.3338718928 L -0.801495925,0.3142191898" />
      <path d="M -0.829000925,0.2940458505 C -0.9422265045,0.206915671 -1.0039350944,0.0993241923 -1.0035640703,-0.0085542927" />
      <path d="M -1.0035640703,-0.0085542927 C -1.0046252637,-0.1499507323 -0.8967995263,-0.2902541242 -0.7106708053,-0.3858541965 C -0.5260428271,-0.4823406831 -0.2657290644,-0.5325780343 -0.0035644132,-0.5185024032 C 0.2586002204,-0.5056803419 0.5189144763,-0.4285452898 0.7035426731,-0.3051610599 C 0.8896716454,-0.1826632453 0.9974971639,-0.015462084 0.9964359492,0.1528321444" />
      <path d="M 0.9964359492,0.1528321444 Q 0.996396549,0.2242400048 0.9719787327,0.2940457555" />
      <path d="M 0.9643817995,0.3142191226 Q 0.9300955167,0.399011727 0.8619677387,0.4756060189" />
      <path d="M -0.6693911447,0.7116358847 L -0.738324539,0.6765707192" />
      <path d="M -0.7717909504,0.6566455402 C -0.9206745596,0.5636234001 -1.0042230606,0.4392192287 -1.0035640081,0.3142193001" />
      <path d="M -1.0035640081,0.3142193001 C -1.004625199,0.1728228362 -0.8967994385,0.032519258 -0.7106706636,-0.0630806834 C -0.5260426372,-0.159567061 -0.265728708,-0.2098042994 -0.0035639861,-0.1957286951 C 0.2586007281,-0.182906653 0.518914842,-0.1057715947 0.7035428749,0.0176127447 C 0.8896716748,0.1401106636 0.9974971847,0.3073119222 0.9964359897,0.4756061135" />
      <path d="M 0.9964359897,0.4756061135 Q 0.9952119698,0.6474604233 0.861967761,0.7983796836" />
      <path d="M -0.6693911929,1.0344095014 L -0.738324838,0.9993441432" />
      <path d="M -0.771790946,0.9794191743 C -0.920674671,0.8863972691 -1.0042230384,0.7619926421 -1.0035640016,0.6369928034" />
      <path d="M -1.0035640016,0.6369928034 C -1.0046253058,0.4955942308 -0.8967958689,0.3552885022 -0.7106616337,0.2596882969 C -0.5260282676,0.1632016632 -0.2657079479,0.1129666967 -0.0035387535,0.1270462084 C 0.2586220361,0.1398723797 0.5189287569,0.2170086293 0.7035515446,0.3403922243 C 0.889675053,0.4628895232 0.9974972652,0.6300882304 0.9964360927,0.798379608" />
      <path d="M 0.9964360927,0.798379608 C 0.9970135715,0.9422031588 0.9191196231,1.0855235632 0.7792660017,1.2003982932" />
      <path d="M 0.7670531699,1.2102911429 Q 0.7214250965,1.2465437044 0.6684137821,1.2786310836" />
      <path d="M 0.615658339,1.3085509194 L 0.5800467665,1.3266809764" />
      <path d="M -0.6693923464,1.3571826434 L -0.7383245103,1.3221180386" />
      <path d="M -0.7717909666,1.3021928923 C -0.9206746983,1.2091710839 -1.0042229427,1.0847664795 -1.0035638986,0.9597666158" />
      <path d="M -1.0035638986,0.9597666158 C -1.0046250936,0.8183702294 -0.8967995837,0.6780667756 -0.7106707838,0.5824666616 C -0.5260427508,0.485980127 -0.2657286369,0.4357428735 -0.0035639228,0.4498186362 C 0.2586007992,0.4626408368 0.5189147283,0.5397758801 0.7035427548,0.6631600625 C 0.8896715296,0.7856578088 0.9974972901,0.9528591918 0.9964360993,1.1211534605" />
      <path d="M 0.9964360993,1.1211534605 Q 0.9963682961,1.2030498987 0.9643819043,1.2825401887" />
      <path d="M -0.879098401,1.5420078024 Q -1.0025178113,1.4215837993 -1.0035638581,1.2825400203" />
      <path d="M -1.0035638581,1.2825400203 C -1.0046250728,1.1411435959 -0.8967995543,1.0008402385 -0.710670582,0.9052402278 C -0.5260423853,0.8087538019 -0.2657281293,0.7585165538 -0.0035634957,0.7725922964 C 0.2586011556,0.7854144693 0.5189149183,0.8625496244 0.7035428964,0.9859339151 C 0.8896716174,1.1084317913 0.9974973548,1.2756329872 0.9964361615,1.4439272308" />
      <path d="M 0.9964361615,1.4439272308 Q 0.9963843134,1.520457932 0.9683914884,1.5950205447" />
      <path d="M -1.0035192131,1.6104149824 L -1.0035639544,1.6053138859" />
      <path d="M -1.0035639544,1.6053138859 C -1.0035639543,1.605309356 -1.0035639542,1.6053048261 -1.0035639541,1.6053002962 C -1.0042960442,1.4765736321 -0.9155168591,1.3485368087 -0.7584056153,1.2546579815 C -0.6024093212,1.1602068539 -0.3796091146,1.1009525979 -0.1431601491,1.0939544321 C 0.0930826387,1.0860923093 0.3406671016,1.130678288 0.5405265699,1.2199976103 C 0.7411897414,1.3085848989 0.8921728378,1.4411567611 0.957454918,1.589007564" />
      <path d="M 0.7035606463,-5.5098744047 C 0.8896785919,-5.3873772831 0.9974971398,-5.2201818663 0.9964360993,-5.0518930579" />
      <path d="M 0.9959423167,-5.031719702 Q 0.9923931102,-4.9600753259 0.9643818839,-4.8905060831" />
      <path d="M 0.9557072705,-4.8703327226 Q 0.9166185083,-4.7850772044 0.8432684935,-4.7089459247" />
      <path d="M 0.1174787352,-4.3911344305 L 0.0724141814,-4.3861723439" />
      <path d="M -0.2519389551,-4.3861722778 L -0.2950888951,-4.3910170917" />
      <path d="M -0.7572666135,-4.5391664629 C -0.9150821743,-4.6331137588 -1.0043095846,-4.7614617619 -1.0035638986,-4.8905062132" />
      <path d="M -1.0035638986,-4.8905062132 C -1.0046250916,-5.0319026271 -0.8967995646,-5.1722058517 -0.710670752,-5.2678059158 C -0.5260427065,-5.364292381 -0.2657285585,-5.4145298581 -0.0035637855,-5.4004541862 C 0.2586009943,-5.3876320989 0.5189149734,-5.3104967856 0.7035429351,-5.1871124031 C 0.8896716488,-5.0646144199 0.9974972714,-4.8974133653 0.9964360927,-4.7291192053" />
      <path d="M 0.9964360927,-4.7291192053 Q 0.9948403777,-4.5448907094 0.8432684795,-4.3861722734" />
      <path d="M 0.1174787189,-4.0683607558 Q -0.0694678137,-4.0455185581 -0.2519382322,-4.0633986844" />
      <path d="M -0.7572576011,-4.2163874331 C -0.9150786718,-4.3103352152 -1.0043097728,-4.4386856144 -1.0035640016,-4.5677324009" />
      <path d="M -1.0035640016,-4.5677324009 C -1.0046251803,-4.7091287528 -0.8967995576,-4.8494319991 -0.710670844,-4.9450321742 C -0.5260428823,-5.0415187485 -0.2657289031,-5.0917562536 -0.0035641233,-5.0776805328 C 0.2586006496,-5.0648583965 0.5189147976,-4.9877231113 0.7035428431,-4.8643388379 C 0.8896716557,-4.7418409657 0.9974971827,-4.5746399329 0.9964359897,-4.4063457109" />
      <path d="M 0.9964359897,-4.4063457109 Q 0.9963262951,-4.3138407037 0.9557071984,-4.224785377" />
      <path d="M 0.1174788255,-3.7455870611 Q -0.092579804,-3.72003583 -0.2950884887,-3.7454698169" />
      <path d="M -1.0028640291,-4.2247855409 L -1.0035640081,-4.2449588975" />
      <path d="M -1.0035640081,-4.2449588975 C -1.0046253121,-4.3863598902 -0.8967923149,-4.5266671438 -0.7106529156,-4.6222678721 C -0.434564832,-4.7692794317 0.0157440014,-4.8020063749 0.3791313953,-4.6897699784 C 0.7462975991,-4.5829225221 1.0013736269,-4.3372693025 0.9964359492,-4.0835717419" />
      <path d="M 0.9964359492,-4.0835717419 L 0.995942168,-4.0633983883" />
      <path d="M 0.1174755626,-3.4228130094 Q -0.0694694254,-3.3999714419 -0.2519382322,-3.4178512439" />
      <path d="M -1.0028640915,-3.9020119499 L -1.0035640703,-3.9221853047" />
      <path d="M -1.0035640703,-3.9221853047 C -1.0046252882,-4.0635817461 -0.8967994494,-4.2038850218 -0.7106705083,-4.2994850199 C -0.5260423065,-4.3959714237 -0.2657284902,-4.4462087992 -0.0035639488,-4.4321331466 C 0.2586005546,-4.4193110812 0.518914955,-4.3421757956 0.7035430383,-4.2187914755 C 0.8896717998,-4.0962935874 0.9974966803,-3.9290927308 0.9964360456,-3.7607983177" />
      <path d="M 0.9964360456,-3.7607983177 Q 0.9963261577,-3.6682934821 0.9557072142,-3.5792384014" />
      <path d="M 0.0724141815,-3.0950775844 Q -0.0920926747,-3.0793836574 -0.2519389552,-3.0950776504" />
      <path d="M -1.0028640915,-3.5792379785 L -1.0035640703,-3.5994113319" />
      <path d="M -1.0035640703,-3.5994113319 C -1.0046252637,-3.7408077715 -0.8967995263,-3.8811111634 -0.7106708053,-3.9767112357 C -0.5260428271,-4.0731977223 -0.2657290644,-4.1234350735 -0.0035644132,-4.1093594424 C 0.2586002204,-4.0965373811 0.5189144763,-4.019402329 0.7035426731,-3.8960180991 C 0.8896716454,-3.7735202844 0.9974971639,-3.6063191231 0.9964359492,-3.4380248948" />
      <path d="M 0.9964359492,-3.4380248948 L 0.995942168,-3.41785154" />
      <path d="M -1.0028640291,-3.2564643874 L -1.0035640081,-3.2766377391" />
      <path d="M -1.0035640081,-3.2766377391 C -1.004625199,-3.4180342029 -0.8967994385,-3.5583377812 -0.7106706636,-3.6539377226 C -0.5260426372,-3.7504241001 -0.265728708,-3.8006613386 -0.0035639861,-3.7865857343 C 0.2586007281,-3.7737636922 0.518914842,-3.6966286338 0.7035428749,-3.5732442945 C 0.8896716748,-3.4507463756 0.9974971847,-3.283545117 0.9964359897,-3.1152509257" />
      <path d="M 0.9964359897,-3.1152509257 L 0.995942208,-3.095077572" />
      <path d="M 0.1174791347,-2.4544923641 L 0.0724147895,-2.4495302829" />
      <path d="M -1.0028640223,-2.9336908815 L -1.0035640016,-2.9538642357" />
      <path d="M -1.0035640016,-2.9538642357 C -1.0046253058,-3.0952628083 -0.8967958689,-3.235568537 -0.7106616337,-3.3311687423 C -0.5260282676,-3.427655376 -0.2657079479,-3.4778903425 -0.0035387535,-3.4638108308 C 0.2586220361,-3.4509846595 0.5189287569,-3.3738484099 0.7035515446,-3.2504648149 C 0.889675053,-3.127967516 0.9974972652,-2.9607688088 0.9964360927,-2.7924774312" />
      <path d="M 0.9964360927,-2.7924774312 L 0.9959423101,-2.7723040769" />
      <path d="M -1.0028639208,-2.6109170698 L -1.0035638986,-2.6310904234" />
      <path d="M -1.0035638986,-2.6310904234 C -1.0046250936,-2.7724868098 -0.8967995837,-2.9127902636 -0.7106707838,-3.0083903776 C -0.5260427508,-3.1048769122 -0.2657286369,-3.1551141657 -0.0035639228,-3.141038403 C 0.2586007992,-3.1282162024 0.5189147283,-3.0510811591 0.7035427548,-2.9276969767 C 0.8896715296,-2.8051992304 0.9974972901,-2.6379978474 0.9964360993,-2.4697035787" />
      <path d="M 0.9964360993,-2.4697035787 L 0.9959423166,-2.4495302263" />
      <path d="M -1.0035638581,-2.3083170189 C -1.0046250728,-2.4497134433 -0.8967995543,-2.5900168007 -0.710670582,-2.6856168114 C -0.5260423853,-2.7821032373 -0.2657281293,-2.8323404854 -0.0035634957,-2.8182647428 C 0.2586011556,-2.8054425699 0.5189149183,-2.7283074148 0.7035428964,-2.6049231241 C 0.8896716174,-2.4824252479 0.9974973548,-2.315224052 0.9964361615,-2.1469298084" />
      <path d="M -1.0035639544,-1.9855431533 C -1.0035639543,-1.9855476832 -1.0035639542,-1.9855522131 -1.0035639541,-1.985556743 C -1.004617949,-2.1269522271 -0.8967883142,-2.2672525776 -0.7106575818,-2.3628498227 C -0.5260274525,-2.459333489 -0.2657137345,-2.5095680748 -0.0035513591,-2.4954905129 C 0.2586110811,-2.4826664992 0.5189214975,-2.4055305574 0.7035470546,-2.2821466679 C 0.8896733138,-2.1596491509 0.9974973464,-1.9924493852 0.9964361615,-1.8241564972" />
      <path d="M 0.9964361615,-1.8241564972 C 0.9970372432,-1.6788456382 0.9174731591,-1.5340641357 0.774938022,-1.418588647" />
      <path d="M 0.7564822515,-1.4039763502 Q 0.7217189481,-1.3772193444 0.6828201889,-1.3527878529" />
      <path d="M 0.1174788974,-1.1633977314 L 0.0724143727,-1.1584356514" />
      <path d="M -1.0028638811,-1.6425959333 L -1.0035638581,-1.6627692868" />
      <path d="M -1.0035638581,-1.6627692868 C -1.0085019256,-1.8761252585 -0.7534140915,-2.0814360482 -0.3862360216,-2.1479330729 C -0.0228368297,-2.2198195195 0.4274809679,-2.1467343556 0.7035606463,-1.9593640738 C 0.8896785919,-1.8368669522 0.9974971398,-1.6696715354 0.9964360993,-1.501382727" />
      <path d="M 0.9964360993,-1.501382727 Q 0.9963263992,-1.4088777347 0.9557072705,-1.3198223917" />
      <path d="M -1.0028639208,-1.3198225276 L -1.0035638986,-1.3399958823" />
      <path d="M -1.0035638986,-1.3399958823 C -1.0046250916,-1.4813922962 -0.8967995646,-1.6216955208 -0.710670752,-1.7172955849 C -0.5260427065,-1.8137820501 -0.2657285585,-1.8640195272 -0.0035637855,-1.8499438553 C 0.2586009943,-1.837121768 0.5189149734,-1.7599864547 0.7035429351,-1.6366020722 C 0.8896716488,-1.514104089 0.9974972714,-1.3469030345 0.9964360927,-1.1786088745" />
      <path d="M 0.9964360927,-1.1786088745 L 0.9959423101,-1.1584355204" />
      <path d="M 0.1174786551,-0.517850417 Q -0.0925799085,-0.4922990845 -0.2950884544,-0.5177331908" />
      <path d="M -1.0035640016,-1.01722207 C -1.0046251803,-1.1586184219 -0.8967995576,-1.2989216682 -0.710670844,-1.3945218433 C -0.5260428823,-1.4910084176 -0.2657289031,-1.5412459228 -0.0035641233,-1.5271702019 C 0.2586006496,-1.5143480657 0.5189147976,-1.4372127804 0.7035428431,-1.313828507 C 0.8896716557,-1.1913306348 0.9974971827,-1.0241296021 0.9964359897,-0.85583538" />
      <path d="M 0.9959422081,-0.8356620254 Q 0.9923930092,-0.7640176308 0.9643817995,-0.6944483892" />
      <path d="M 0.0724139923,-0.1901146333 Q -0.1151160987,-0.172307293 -0.2950884849,-0.1949594855" />
      <path d="M -1.0028640291,-0.67427521 L -1.0035640081,-0.6944485666" />
      <path d="M -1.0035640081,-0.6944485666 C -1.0046253121,-0.8358495593 -0.8967923149,-0.976156813 -0.7106529156,-1.0717575412 C -0.434564832,-1.2187691009 0.0157440014,-1.2514960441 0.3791313953,-1.1392596475 C 0.7462975991,-1.0324121912 1.0013736269,-0.7867589716 0.9964359492,-0.533061411" />
      <path d="M 0.995942168,-0.5128880574 Q 0.9923929775,-0.4412437072 0.9643818079,-0.3716745285" />
      <path d="M 0.1174786261,0.1276969423 Q -0.0694678775,0.1505390378 -0.2519382322,0.1326590869" />
      <path d="M -1.0028640915,-0.351501619 L -1.0035640703,-0.3716749738" />
      <path d="M -1.0035640703,-0.3716749738 C -1.0046252882,-0.5130714152 -0.8967994494,-0.6533746909 -0.7106705083,-0.748974689 C -0.5260423065,-0.8454610928 -0.2657284902,-0.8956984683 -0.0035639488,-0.8816228157 C 0.2586005546,-0.8688007503 0.518914955,-0.7916654647 0.7035430383,-0.6682811446 C 0.8896717998,-0.5457832565 0.9974966803,-0.3785823999 0.9964360456,-0.2102879868" />
      <path d="M 0.9964360456,-0.2102879868 Q 0.9963680932,-0.1283916892 0.9643818079,-0.0489014463" />
      <path d="M 0.0724141815,0.4554327465 Q -0.1151162991,0.4732401949 -0.2950890177,0.4505878261" />
      <path d="M -1.0028640915,-0.0287276476 L -1.0035640703,-0.048901001" />
      <path d="M -1.0035640703,-0.048901001 C -1.0046252637,-0.1902974406 -0.8967995263,-0.3306008326 -0.7106708053,-0.4262009048 C -0.5260428271,-0.5226873915 -0.2657290644,-0.5729247426 -0.0035644132,-0.5588491115 C 0.2586002204,-0.5460270502 0.5189144763,-0.4688919981 0.7035426731,-0.3455077682 C 0.8896716454,-0.2230099536 0.9974971639,-0.0558087923 0.9964359492,0.1124854361" />
      <path d="M 0.9964359492,0.1124854361 Q 0.9963681454,0.194381951 0.9643817995,0.2738724143" />
      <path d="M 0.1174789683,0.7732442896 Q -0.0694681659,0.7960865082 -0.2519388175,0.7782063796" />
      <path d="M -1.0028640291,0.2940459435 L -1.0035640081,0.2738725918" />
      <path d="M -1.0035640081,0.2738725918 C -1.004625199,0.1324761279 -0.8967994385,-0.0078274503 -0.7106706636,-0.1034273917 C -0.5260426372,-0.1999137693 -0.265728708,-0.2501510078 -0.0035639861,-0.2360754034 C 0.2586007281,-0.2232533613 0.518914842,-0.146118303 0.7035428749,-0.0227339636 C 0.8896716748,0.0997639553 0.9974971847,0.2669652139 0.9964359897,0.4352594051" />
      <path d="M 0.995942208,0.4554327589 Q 0.9918461157,0.5376426148 0.9557072972,0.6168194599" />
      <path d="M 0.0724147895,1.100980048 Q -0.0920926675,1.116674131 -0.2519395408,1.1009800556" />
      <path d="M -1.0035640016,0.5966460951 C -1.0046253058,0.4552475225 -0.8967958689,0.3149417939 -0.7106616337,0.2193415886 C -0.5260282676,0.1228549549 -0.2657079479,0.0726199884 -0.0035387535,0.0866995001 C 0.2586220361,0.0995256714 0.5189287569,0.176661921 0.7035515446,0.300045516 C 0.889675053,0.4225428149 0.9974972652,0.5897415221 0.9964360927,0.7580328997" />
      <path d="M 0.9964360927,0.7580328997 Q 0.9948403327,0.9422615761 0.8432683744,1.1009799938" />
      <path d="M -0.7572665459,1.2707594462 C -0.915082142,1.1768122206 -1.0043095835,1.048464394 -1.0035638986,0.9194199075" />
      <path d="M -1.0035638986,0.9194199075 C -1.0046250936,0.7780235211 -0.8967995837,0.6377200673 -0.7106707838,0.5421199533 C -0.5260427508,0.4456334187 -0.2657286369,0.3953961652 -0.0035639228,0.4094719279 C 0.2586007992,0.4222941285 0.5189147283,0.4994291718 0.7035427548,0.6228133542 C 0.8896715296,0.7453111005 0.9974972901,0.9125124835 0.9964360993,1.0808067522" />
      <path d="M 0.9964360993,1.0808067522 Q 0.9948403064,1.2650353379 0.8432683861,1.4237535801" />
      <path d="M -0.8513251746,1.5267379447 Q -1.0019877934,1.3971034896 -1.0035638581,1.242193312" />
      <path d="M -1.0035638581,1.242193312 C -1.0046250728,1.1007968876 -0.8967995543,0.9604935302 -0.710670582,0.8648935195 C -0.5260423853,0.7684070936 -0.2657281293,0.7181698455 -0.0035634957,0.7322455881 C 0.2586011556,0.745067761 0.5189149183,0.8222029161 0.7035428964,0.9455872068 C 0.8896716174,1.068085083 0.9974973548,1.2352862789 0.9964361615,1.4035805224" />
      <path d="M 0.9964361615,1.4035805224 Q 0.9963264672,1.4960853894 0.9557074219,1.5851405322" />
      <path d="M -1.0002794578,1.6086337488 L -1.0035639544,1.5649671776" />
      <path d="M -1.0035639544,1.5649671776 C -1.0035639543,1.5649626477 -1.0035639542,1.5649581178 -1.0035639541,1.5649535879 C -1.004381123,1.4325415154 -0.9102659392,1.3009222637 -0.7448761993,1.2063494908 C -0.5807078543,1.1111235033 -0.3470625621,1.0541168206 -0.1026760902,1.0528274577 C 0.1415471055,1.050569654 0.393846522,1.1041858298 0.5907983781,1.2033646888 C 0.7887295642,1.3017608933 0.9291590821,1.4447795585 0.9767847176,1.5996351838" />
      <path d="M 0.7439010135,1.4715945675 Q 0.6857175203,1.3512040348 0.5504636793,1.2583904469" />
      <path d="M 0.5504636793,1.2583904469 C 0.2977897235,1.0798705711 -0.1421426535,1.0310447183 -0.4406156658,1.1307831212 C -0.6546046567,1.1975976744 -0.7889850953,1.329785638 -0.7870576042,1.4645641551" />
      <path d="M -0.7870576042,1.4645641551 L -0.7854935544,1.4905433932" />
      <path d="M 0.7384276241,1.4685852709 L 0.7404670588,1.464562804" />
      <path d="M 0.758118944,1.4237507291 Q 0.7798881623,1.3642218087 0.7799297859,1.3031776208" />
      <path d="M 0.7799297859,1.3031776208 C 0.7807772394,1.1684312511 0.6962757077,1.0344999321 0.5504636793,0.93561677" />
      <path d="M 0.5504636793,0.93561677 C 0.4126655341,0.8408179626 0.2209302008,0.7786030449 0.0254763051,0.761942629 C -0.1699275177,0.7444309039 -0.3672712823,0.7724522524 -0.5149953708,0.8353733277 C -0.6862120444,0.9069190538 -0.7881978022,1.0235926368 -0.7870524915,1.1417812895" />
      <path d="M -0.7870524915,1.1417812895 Q -0.7869673612,1.2035705734 -0.7525089862,1.2623520114" />
      <path d="M -0.723788436,1.3031695053 Q -0.6805806439,1.3555299386 -0.6115316885,1.398622123" />
      <path d="M 0.5234671643,1.3656145705 Q 0.5701251107,1.3364282921 0.6093950489,1.3031773366" />
      <path d="M 0.6532022356,1.2623669019 Q 0.7085600526,1.2054185678 0.7404680749,1.1417897724" />
      <path d="M 0.7581200261,1.100980031 Q 0.7798914095,1.0414447504 0.7799296934,0.980403618" />
      <path d="M 0.3000475597,0.493546316 C 0.0775104302,0.4214667271 -0.1887525734,0.4157588152 -0.3972827746,0.4725724888 C -0.6353364381,0.5347333377 -0.7895489653,0.6751492101 -0.7870576058,0.8190168441" />
      <path d="M -0.7870576058,0.8190168441 Q -0.7869583929,0.8808211168 -0.7525177452,0.9395931984" />
      <path d="M -0.7237947655,0.9804038213 Q -0.6670003331,1.0490891024 -0.5672575437,1.1009800497" />
      <path d="M -0.4731090541,1.1417904796 C -0.2537623616,1.222650528 0.0562235071,1.2260963067 0.3083708581,1.1417870585" />
      <path d="M 0.3000482925,0.170772858 C 0.1889439152,0.1356567448 0.0733002087,0.1160787718 -0.046882827,0.112038939 C -0.2410960112,0.1052433059 -0.4302114716,0.1433604739 -0.5652616758,0.2132512435 C -0.7013223602,0.2825628774 -0.7821268875,0.3828684949 -0.786763608,0.4849743633 C -0.7868616063,0.4887306222 -0.7869596046,0.4924868811 -0.7870576029,0.49624314" />
      <path d="M -0.7870576029,0.49624314 Q -0.786965438,0.5580209925 -0.7525177419,0.6168195542" />
      <path d="M -0.7237949157,0.6576300101 Q -0.6669500201,0.7263545715 -0.5672575999,0.7782064013" />
      <path d="M -0.4731090932,0.8190168091 C -0.2537317811,0.8999155046 0.056554645,0.9032693543 0.3083796956,0.8190162552" />
      <path d="M 0.3000473809,-0.1520011683 C 0.164344282,-0.1954962308 0.0122562937,-0.2156228028 -0.1330143406,-0.2107675087 C -0.3141120686,-0.2052075344 -0.4834771328,-0.1603469311 -0.6015976473,-0.0894180587 C -0.7205770568,-0.0189108508 -0.7875938776,0.0770084193 -0.7870575983,0.1734694661" />
      <path d="M -0.7870575983,0.1734694661 Q -0.787033014,0.2143170445 -0.7717910133,0.2542197836" />
      <path d="M -0.7572667502,0.2856533177 L -0.7525178633,0.2940460761" />
      <path d="M -0.7237948532,0.3348562506 Q -0.6669840568,0.4035535752 -0.5672576116,0.4554327115" />
      <path d="M -0.4731091909,0.4962431498 C -0.2537547514,0.5771065641 0.0562106685,0.5805441478 0.3083813332,0.4962431778" />
      <path d="M 0.5504636793,-0.355477967 C 0.333805258,-0.5069098325 -0.0198511542,-0.5684665798 -0.3048250979,-0.5160726003 C -0.5918003486,-0.4680497665 -0.7908999206,-0.3118308965 -0.7870576047,-0.1493042204" />
      <path d="M -0.7870576047,-0.1493042204 Q -0.7869489814,-0.0874683618 -0.7525177314,-0.0287278264" />
      <path d="M -0.7237949162,0.0120826509 Q -0.6669761436,0.0807863516 -0.5672576167,0.1326590497" />
      <path d="M -0.4731091912,0.1734695107 C -0.2537110315,0.2543469208 0.0562967889,0.2577550789 0.3083813625,0.1734694934" />
      <path d="M 0.3000472694,-0.7975485066 C -0.0041141622,-0.8978320521 -0.386168795,-0.866046314 -0.5985435819,-0.7367747375 C -0.7193478918,-0.6661673035 -0.7876837572,-0.5692359243 -0.7870576125,-0.472077869" />
      <path d="M -0.7870576125,-0.472077869 Q -0.7869536309,-0.4102552621 -0.7525177149,-0.3515014577" />
      <path d="M -0.7237949008,-0.3106910098 Q -0.667029555,-0.242027856 -0.5672576808,-0.1901146341" />
      <path d="M 0.4140761212,-0.1901145819 Q 0.5264672303,-0.2406882222 0.6093948379,-0.3106912234" />
      <path d="M 0.3000474583,-1.1203221228 C 0.0585854419,-1.1987741859 -0.2337445878,-1.1980478811 -0.4488802257,-1.1259619577" />
      <path d="M -0.7870576011,-0.7948515403 Q -0.7869598273,-0.7330507616 -0.7525177453,-0.6742751364" />
      <path d="M -0.7237949119,-0.6334646854 Q -0.6669758546,-0.5647612163 -0.567257632,-0.5128883307" />
      <path d="M -0.473109033,-0.4720778458 C -0.2535838528,-0.3911790957 0.0563360758,-0.3878087661 0.3083813357,-0.4720778563" />
      <path d="M 0.6684138389,-0.6905394268 Q 0.7131522372,-0.7403332255 0.7404676717,-0.7948514242" />
      <path d="M 0.7792660152,-0.9350803628 L 0.7799296943,-0.9562383232" />
      <path d="M -0.4731056196,-0.7948527049 C -0.2537311972,-0.7140102352 0.056268646,-0.7105404442 0.3083814975,-0.7948514966" />
      <path d="M 0.779929691,-1.2790120269 C 0.7808065499,-1.413687241 0.6962495441,-1.5477382684 0.5504636793,-1.6465725559" />
      <path d="M 0.5504636793,-1.6465725559 Q 0.441621153,-1.7205776479 0.3000467674,-1.7658696929" />
      <path d="M -0.7870576095,-1.4403988226 Q -0.7870385387,-1.3995806551 -0.7717909436,-1.3596484423" />
      <path d="M 0.668413778,-1.3360867046 Q 0.7131587858,-1.3858900353 0.7404677021,-1.4403988491" />
      <path d="M 0.758120026,-1.4812093044 Q 0.7798888727,-1.5407307204 0.7799296918,-1.6017856916" />
      <path d="M 0.7799296918,-1.6017856916 C 0.7807649605,-1.7365374508 0.6962936679,-1.8704528336 0.5504636793,-1.9693462549" />
      <path d="M 0.5504636793,-1.9693462549 C 0.2953414263,-2.1496595784 -0.1502483209,-2.1973539798 -0.4488796998,-2.094283192" />
      <path d="M 0.4140760231,-1.4812092864 Q 0.5264395801,-1.5317627037 0.6093950026,-1.6017856503" />
      <path d="M 0.6532022383,-1.6425961618 Q 0.7085796053,-1.6995713172 0.7404677081,-1.7631725067" />
      <path d="M 0.7581200159,-1.8039829408 Q 0.7798904439,-1.8635126217 0.7799296885,-1.9245593846" />
      <path d="M 0.7799296885,-1.9245593846 C 0.7808169129,-2.0592186766 0.6962335602,-2.1933049203 0.5504636793,-2.292119884" />
      <path d="M 0.5504636793,-2.292119884 C 0.2953045879,-2.4724471596 -0.1503255542,-2.5201251431 -0.4488796654,-2.4170568642" />
      <path d="M 0.4140761181,-1.8039829903 Q 0.5264772623,-1.8545617507 0.6093950227,-1.9245593202" />
      <path d="M 0.6532021922,-1.9653697962 Q 0.7085614053,-2.0223201542 0.7404677096,-2.0859462336" />
      <path d="M 0.7581200208,-2.1267566709 Q 0.7798913296,-2.1862914453 0.7799296949,-2.2473330605" />
      <path d="M 0.7799296949,-2.2473330605 C 0.7807866372,-2.3820420583 0.6962757539,-2.5160261702 0.5504636793,-2.6148935609" />
      <path d="M 0.5504636793,-2.6148935609 Q 0.4416578141,-2.6888804598 0.3000474911,-2.7341904252" />
      <path d="M 0.4140761482,-2.1267566202 Q 0.5264818629,-2.177340557 0.6093951502,-2.2473328826" />
      <path d="M 0.7799189314,-2.5701376247 C 0.7807541,-2.7048967542 0.6963037004,-2.8387201371 0.5504636793,-2.9376672656" />
      <path d="M 0.5504636793,-2.9376672656 C 0.3957388779,-3.0443886613 0.1724013809,-3.109196101 -0.0470463581,-3.1157030929 C -0.2666206383,-3.1235582147 -0.4791305287,-3.0732808454 -0.6155815029,-2.9857834488 C -0.7259122109,-2.9162584622 -0.7875612777,-2.8239794264 -0.7870576081,-2.7314934762" />
      <path d="M -0.7870576081,-2.7314934762 Q -0.787037266,-2.6906680811 -0.7717910149,-2.650743287" />
      <path d="M 0.653202224,-2.610917107 Q 0.7085620106,-2.66786827 0.7404675976,-2.7314932688" />
      <path d="M 0.7581200318,-2.7723039678 Q 0.7798912025,-2.8318380354 0.7799296941,-2.8928803731" />
      <path d="M 0.7799296941,-2.8928803731 C 0.7807901803,-3.0275888261 0.6962646209,-3.1615842205 0.5504636793,-3.2604409307" />
      <path d="M 0.5504636793,-3.2604409307 C 0.4175291114,-3.3518098113 0.2348553528,-3.4129563707 0.0466014942,-3.4320965558 C -0.2117618189,-3.4600053498 -0.4745889266,-3.4057093917 -0.6290047466,-3.2997836781 C -0.7310494823,-3.2313545421 -0.7874554719,-3.1429544737 -0.7870576218,-3.054267194" />
      <path d="M -0.7870576218,-3.054267194 Q -0.7869845958,-2.9969637162 -0.7572666039,-2.942083471" />
      <path d="M 0.4140760591,-2.7723039627 Q 0.5265240084,-2.8229096788 0.6093904801,-2.8928764805" />
      <path d="M 0.6532021902,-2.9336907793 Q 0.7085754909,-2.9906603882 0.740467716,-3.0542671851" />
      <path d="M 0.7581200333,-3.0950776384 Q 0.7798910906,-3.1546109111 0.7799296908,-3.2156539997" />
      <path d="M 0.7799296908,-3.2156539997 C 0.7808046961,-3.3503342349 0.6962499406,-3.4843786511 0.5504636793,-3.5832146271" />
      <path d="M 0.5504636793,-3.5832146271 C 0.4050644163,-3.6833512419 0.1993943482,-3.7468899496 -0.0070584643,-3.75933569 C -0.2135189448,-3.7728356387 -0.4184288366,-3.7352962978 -0.5625203025,-3.6614323185 C -0.7053786227,-3.5894955061 -0.7878595383,-3.483657714 -0.7870576061,-3.3770408578" />
      <path d="M -0.7870576061,-3.3770408578 Q -0.7869836002,-3.3197331626 -0.7572665924,-3.2648571077" />
      <path d="M -0.4731092079,-3.054267174 C -0.2536964408,-2.973391421 0.0562245917,-2.9699761126 0.3083811409,-3.0542672484" />
      <path d="M 0.4140684016,-3.0950803371 Q 0.5264997207,-3.1456723858 0.6093950586,-3.2156539859" />
      <path d="M 0.6531996404,-3.2564670757 Q 0.7085429942,-3.3134134009 0.7404627443,-3.3770507626" />
      <path d="M 0.7749350659,-3.4804745064 Q 0.7799217652,-3.5093799866 0.7799206858,-3.5384514452" />
      <path d="M 0.7799206858,-3.5384514452 C 0.7807500331,-3.6732224738 0.6963058753,-3.807046235 0.5504636793,-3.9059882979" />
      <path d="M 0.5504636793,-3.9059882979 C 0.3063962229,-4.0779507613 -0.1123038211,-4.1306340223 -0.4095340183,-4.0428985219 C -0.6408537009,-3.9792845924 -0.7893777261,-3.8411530421 -0.7870576041,-3.6998145524" />
      <path d="M -0.4731091521,-3.377040833 C -0.253802194,-3.2961671186 0.0563100312,-3.2927565752 0.3083814003,-3.3770408405" />
      <path d="M 0.4140759848,-3.41785128 Q 0.52647371,-3.4684274379 0.6093950346,-3.5384276956" />
      <path d="M 0.5504636793,-4.2287619491 C 0.2981092179,-4.4070321435 -0.1410026308,-4.4560163339 -0.4394619934,-4.3567351792 C -0.6540962729,-4.2900634368 -0.7890972091,-4.1574555178 -0.7870575962,-4.0225882361" />
      <path d="M -0.7870575962,-4.0225882361 Q -0.787039732,-3.981775773 -0.7717909697,-3.9418378193" />
      <path d="M -0.7572665639,-3.9104043684 L -0.7525177382,-3.9020117681" />
      <path d="M -0.7237949088,-3.8612013319 Q -0.6669304278,-3.7924636079 -0.567257653,-3.7406249603" />
      <path d="M -0.4731090798,-3.6998145083 C -0.2535252444,-3.6189183219 0.0561999413,-3.6155343136 0.3083814935,-3.69981453" />
      <path d="M 0.4140759903,-3.7406249568 Q 0.5265243911,-3.7912324935 0.6093912233,-3.8611981771" />
      <path d="M 0.5504636793,-4.5515356095 C 0.3745802619,-4.6732816224 0.109737437,-4.739292866 -0.1368469127,-4.7294688006 C -0.2602996901,-4.7247051322 -0.3723451349,-4.7042757914 -0.4729832472,-4.6681807783 C -0.6685446745,-4.59875664 -0.7885926121,-4.4731935822 -0.7870575952,-4.3453618423" />
      <path d="M -0.7870575952,-4.3453618423 Q -0.7869565987,-4.28354705 -0.7525117451,-4.224775279" />
      <path d="M -0.7237949255,-4.1839750347 Q -0.6669497003,-4.115250057 -0.5672576229,-4.0633986586" />
      <path d="M -0.4731090288,-4.0225881781 C -0.253752773,-3.9416765657 0.056681451,-3.9383546999 0.3083723237,-4.0225911188" />
      <path d="M 0.5504636793,-4.8743092393 C 0.3981173709,-4.979347989 0.1793371595,-5.0438716094 -0.0368516451,-5.0519712824 C -0.2531319299,-5.0613394296 -0.4638836598,-5.0144203392 -0.6026258469,-4.9304084751 C -0.7209672642,-4.859989922 -0.7876354012,-4.7642076194 -0.7870576066,-4.6681355263" />
      <path d="M -0.7870576066,-4.6681355263 Q -0.7869570851,-4.6063251126 -0.7525177383,-4.5475591535" />
      <path d="M -0.7237954634,-4.5067493669 Q -0.6670043486,-4.4380665604 -0.5672580681,-4.3861725507" />
      <path d="M -0.473108963,-4.3453618311 C -0.2537040979,-4.2644923804 0.056169707,-4.2610625174 0.3083815011,-4.3453618258" />
      <path d="M 0.4140760151,-4.3861723002 Q 0.5264493137,-4.4367335337 0.6093950148,-4.5067486919" />
      <path d="M 0.3000466675,-5.316380048 C 0.1100105817,-5.3776269428 -0.1120814492,-5.3915584681 -0.3026351137,-5.358058629 C -0.5907149295,-5.3104410523 -0.7909291454,-5.1538774038 -0.7870576623,-4.9909091835" />
      <path d="M -0.4731085608,-4.6681356429 C -0.2538768243,-4.5872831896 0.0563474316,-4.5838350824 0.3083814951,-4.6681355033" />
      <path d="M 0.4140760744,-4.7089459689 Q 0.5264612763,-4.7595150318 0.6093942544,-4.8295217285" />
      <path d="M 0.7753635045,1.4888928012 C 0.7568029373,1.373386479 0.6758917184,1.2620219624 0.5504636793,1.1767694958" />
      <line x1="0.5504636793" y1="1.1767694958" x2="0.5504636793" y2="1.2583904469" />
      <path d="M 0.5504636793,-4.9559301904 C 0.2998984536,-5.1328306009 -0.1347651631,-5.1826567796 -0.4330500285,-5.0859080076 C -0.5746281315,-5.0424484093 -0.6845437867,-4.9711145363 -0.7411788595,-4.8881199761" />
      <path d="M -0.6846334782,-4.5475592332 Q -0.6036186263,-4.4744013812 -0.4731082904,-4.4269824208" />
      <path d="M -0.2950888935,-4.3813274392 C -0.1559205141,-4.3580527677 -0.0005027182,-4.3592281602 0.1466013063,-4.3861723245" />
      <path d="M 0.308381369,-4.4269827572 Q 0.4487923008,-4.4730789716 0.5562258786,-4.5475591362" />
      <path d="M 0.68282039,-5.1601409306 Q 0.629066238,-5.224966295 0.5504636793,-5.2787038194" />
      <path d="M 0.5504636793,-4.6331565135 C 0.3984045272,-4.7379922891 0.1801719715,-4.8024799054 -0.035622161,-4.8107680503 C -0.2515036468,-4.8203152926 -0.4620361889,-4.7737956529 -0.6010382369,-4.6902034994 C -0.7203562414,-4.6196920411 -0.7876457378,-4.523485854 -0.7870576065,-4.4269827253" />
      <path d="M -0.6846333805,-4.224785468 Q -0.6035829077,-4.1516084893 -0.473109144,-4.1042090946" />
      <path d="M -0.3222208918,-4.0633986818 C -0.1763137526,-4.035305778 -0.0102037673,-4.034649396 0.146601219,-4.0633986565" />
      <path d="M 0.6828202934,-4.8373673521 Q 0.6290598272,-4.9021982693 0.5504636793,-4.9559301904" />
      <path d="M 0.5504636793,-4.3103828088 C 0.3561477886,-4.4454329537 0.0524132621,-4.5106278981 -0.2140911268,-4.4832357074 C -0.545487256,-4.4542757807 -0.7925576229,-4.2843123237 -0.787057795,-4.1042108345" />
      <path d="M -0.7831896106,-4.0634079577 Q -0.7731608248,-4.0109133344 -0.7383178625,-3.9617667264" />
      <path d="M -0.3222208303,-3.7406249635 C -0.1853308589,-3.7143045881 -0.0307262439,-3.7120007976 0.117478841,-3.7356628652" />
      <path d="M 0.3083814846,-3.7814354028 Q 0.4487805846,-3.8275225181 0.5562258413,-3.9020117535" />
      <path d="M 0.6828200556,-4.5145939294 Q 0.629028907,-4.5794518784 0.5504636793,-4.6331565135" />
      <path d="M 0.5504636793,-3.9876091437 C 0.3987724306,-4.0921849126 0.1812401697,-4.1566261998 -0.0340484435,-4.1651546092 C -0.2494195312,-4.1749302448 -0.4596665889,-4.1289194069 -0.5989929948,-4.0458675698 C -0.6612196541,-4.0089942501 -0.7086149016,-3.9669714262 -0.7411787371,-3.919799098" />
      <path d="M -0.7831913843,-3.740624993 Q -0.7711260316,-3.677655215 -0.7237949017,-3.6200485959" />
      <path d="M -0.2950884498,-3.4130064072 C -0.1559801329,-3.3897389305 -0.000532869,-3.3909000963 0.1465979894,-3.4178506988" />
      <path d="M 0.3083813228,-3.4586617322 Q 0.4488141576,-3.5047685977 0.5562259182,-3.5792381262" />
      <path d="M 0.6093944858,-3.6200480738 Q 0.6754500746,-3.6760324687 0.7171563896,-3.7406229618" />
      <path d="M 0.7564823163,-3.8178580616 Q 0.7722824173,-3.8594262725 0.7774580323,-3.9020117835" />
      <path d="M 0.6828200718,-4.1918202539 Q 0.6290539584,-4.2566560339 0.5504636793,-4.3103828088" />
      <path d="M 0.5504636793,-3.6648354473 C 0.3805145903,-3.7823939314 0.1270646504,-3.8483632136 -0.1121544368,-3.8434087663 C -0.3518332757,-3.8403958143 -0.572253191,-3.7669792721 -0.6883912459,-3.6574139421 C -0.7535940933,-3.5961374952 -0.7864828806,-3.5298867496 -0.7870576079,-3.4586617054" />
      <path d="M -0.7831913904,-3.4178512586 Q -0.7711224501,-3.3548743537 -0.7237949099,-3.2972748934" />
      <path d="M -0.3222210278,-3.0950776687 C -0.1763834518,-3.0669889863 -0.0101591931,-3.0663266756 0.1466013156,-3.0950776043" />
      <path d="M 0.3083817313,-3.1358881792 Q 0.4487961491,-3.1819860781 0.5562258827,-3.256464455" />
      <path d="M 0.6093950189,-3.2972748858 Q 0.6754672425,-3.353277387 0.7171576924,-3.4178512369" />
      <path d="M 0.7564819675,-3.4950846181 Q 0.7722736817,-3.5366314976 0.7774532499,-3.5792113912" />
      <path d="M 0.6828213347,-3.8690458369 Q 0.6290968041,-3.9338432955 0.5504636793,-3.9876091437" />
      <path d="M 0.5504636793,-3.3420617765 C 0.3313218586,-3.4953373878 -0.0280528531,-3.556287181 -0.3146368384,-3.5008951432 C -0.5966038342,-3.4511307874 -0.7908222185,-3.2963611388 -0.787057613,-3.1358880571" />
      <path d="M -0.6846333128,-2.9336908393 Q -0.6036161688,-2.8605306732 -0.4731089239,-2.8131144117" />
      <path d="M 0.3083809708,-2.8131146007 Q 0.4488386795,-2.8592382304 0.5562259344,-2.9336906394" />
      <path d="M 0.6093939103,-2.9745021613 Q 0.6754432737,-3.0304885521 0.7171559521,-3.0950802912" />
      <path d="M 0.7404677006,-3.1358881191 Q 0.7699388532,-3.1948632467 0.7774574681,-3.2564691093" />
      <path d="M 0.7799291075,-3.2972747501 C 0.780771188,-3.4320307663 0.6962798963,-3.5659493684 0.5504636793,-3.6648354473" />
      <path d="M 0.5504636793,-3.0192881253 C 0.4261903414,-3.1046173907 0.2586004906,-3.163776025 0.0834260017,-3.186608245 C -0.2670823153,-3.2363028889 -0.6278189404,-3.1262908211 -0.7411787056,-2.9514782446" />
      <path d="M 0.1174790688,-2.4445682094 L 0.146601449,-2.4495302917" />
      <path d="M 0.6093950237,-2.6517275928 Q 0.6754463925,-2.7077076988 0.7171555319,-2.7723006748" />
      <path d="M 0.7404677095,-2.8131144265 Q 0.7699447203,-2.8721059386 0.7774580355,-2.9336908202" />
      <path d="M 0.7799296926,-2.9745012757 C 0.7807967395,-3.1091946148 0.696260979,-3.2432121861 0.5504636793,-3.3420617765" />
      <path d="M 0.5504636793,-2.6965144649 C 0.4102990401,-2.792970442 0.2142983945,-2.8556164159 0.0154007064,-2.8710319944 C -0.1834603917,-2.8873571683 -0.383283903,-2.8564717906 -0.5301377062,-2.7901736163 C -0.5843145299,-2.7658609469 -0.6307321875,-2.7377143403 -0.6693906791,-2.7057337966" />
      <path d="M 0.3083815126,-2.1675670864 Q 0.4487810889,-2.2136543533 0.5562258025,-2.2881434662" />
      <path d="M 0.6093949945,-2.3289539446 Q 0.6754807061,-2.3849716717 0.7171576484,-2.4495303006" />
      <path d="M 0.7404677013,-2.4903407398 Q 0.7699356803,-2.5493128632 0.7774539035,-2.6108831614" />
      <path d="M 0.7799296844,-2.6517275578 C 0.780829399,-2.7863668706 0.6962155988,-2.9204950807 0.5504636793,-3.0192881253" />
      <path d="M 0.5504636793,-2.3737408351 C 0.2975170379,-2.5524623496 -0.1430566974,-2.6011550325 -0.4415075077,-2.5010640122 C -0.5341577629,-2.4712200043 -0.6101188404,-2.4318520186 -0.66939074,-2.3829600552" />
      <path d="M -0.684633338,-1.9653698007 Q -0.6035954652,-1.892206127 -0.4730988393,-1.8447970623" />
      <path d="M 0.3083813985,-1.844793464 Q 0.4488229055,-1.8909042839 0.5562258478,-1.9653698038" />
      <path d="M 0.6093950095,-2.0061802697 Q 0.6754682968,-2.0621840484 0.7171576621,-2.1267566613" />
      <path d="M 0.7564822609,-2.2039895777 Q 0.7722813752,-2.2455538945 0.7774580233,-2.2881435978" />
      <path d="M 0.7799296831,-2.3289539048 C 0.7807729317,-2.4637000457 0.6962761693,-2.5976381065 0.5504636793,-2.6965144649" />
      <path d="M 0.5504636793,-2.0509671876 C 0.389811508,-2.1618948389 0.1549315203,-2.227294021 -0.0724506674,-2.2295941309 C -0.3000663297,-2.233456543 -0.5163600795,-2.1744966384 -0.646065626,-2.0783307693 C -0.6859235791,-2.0490991653 -0.7176279682,-2.0173746209 -0.7411787932,-1.9831571363" />
      <path d="M 0.3083813117,-1.5220197584 Q 0.4487776375,-1.5681053806 0.5562257999,-1.642596137" />
      <path d="M 0.6093950368,-1.6834066172 Q 0.6754817424,-1.7394254059 0.7171576591,-1.8039829192" />
      <path d="M 0.7404677108,-1.8447933699 Q 0.769943576,-1.9037809395 0.7774580337,-1.965369832" />
      <path d="M 0.7799296868,-2.0061801915 C 0.7808324069,-2.1408112514 0.6962152862,-2.274950169 0.5504636793,-2.3737408351" />
      <path d="M 0.5504636793,-1.7281934886 C 0.3015067659,-1.9038666191 -0.1291729633,-1.9544271732 -0.4272541303,-1.859940399 C -0.5714316344,-1.8167252152 -0.6838924448,-1.7444546054 -0.7411788693,-1.6603833519" />
      <path d="M 0.1174789686,-1.1534735561 L 0.1466013906,-1.1584356376" />
      <path d="M 0.6156583071,-1.3660065254 Q 0.6774867565,-1.4197512878 0.7171576434,-1.4812092942" />
      <path d="M 0.7404677159,-1.5220197659 Q 0.7699444084,-1.5810101995 0.7774580366,-1.6425960957" />
      <path d="M 0.7799296927,-1.6834065389 C 0.7808008432,-1.8180937494 0.6962541752,-1.9521256002 0.5504636793,-2.0509671876" />
      <path d="M 0.5504636793,-1.4054198595 C 0.3848932324,-1.5198556612 0.1401986617,-1.5856212201 -0.0935398749,-1.5841672583 C -0.3276249105,-1.5844669851 -0.5463626366,-1.5180019929 -0.6693911079,-1.4146388069" />
      <path d="M -0.322191855,-0.8356675068 C -0.185312389,-0.8093507861 -0.0307294758,-0.8070317674 0.1174788892,-0.8306999128" />
      <path d="M 0.7799296918,-1.3606328865 C 0.7807677671,-1.4953944715 0.6962716016,-1.6293192383 0.5504636793,-1.7281934886" />
      <path d="M 0.5504636793,-1.0826461826 C 0.4106804138,-1.1788339938 0.2153787735,-1.2414112291 0.0170257222,-1.2570327635 C -0.1812867847,-1.2735548223 -0.3807347782,-1.243127915 -0.5277274562,-1.177379071 C -0.6251427292,-1.133655748 -0.6962931811,-1.0794747501 -0.7411788119,-1.0148360773" />
      <path d="M -0.6846333609,-0.6742751163 Q -0.6035389781,-0.6010737999 -0.4731091449,-0.5536987611" />
      <path d="M -0.3222221647,-0.5128880723 C -0.1853285893,-0.4865670152 -0.0306646599,-0.4842675591 0.1174786428,-0.5079262068" />
      <path d="M 0.5800470107,-1.3841364291 L 0.5504636793,-1.4054198595" />
      <path d="M 0.5504636793,-0.7598724779 C 0.2936369492,-0.941561312 -0.1565987668,-0.9883333193 -0.4551194478,-0.8827359716 C -0.6608575754,-0.8146504318 -0.7887852933,-0.685463964 -0.7870576048,-0.5536987202" />
      <path d="M -0.6846333654,-0.3515014448 Q -0.6036115278,-0.2783386581 -0.4731091049,-0.2309250962" />
      <path d="M -0.3222208489,-0.1901146292 L -0.2950885039,-0.1852697786" />
      <path d="M 0.5800462879,-1.0613632062 L 0.5504636793,-1.0826461826" />
      <path d="M 0.5504636793,-0.4370988128 C 0.462259828,-0.4968674685 0.3591706788,-0.5423391074 0.2411962318,-0.5735137296 C 0.0174925476,-0.6333137409 -0.2397122638,-0.6284098254 -0.4356122813,-0.5662817025 C -0.6331726843,-0.5056373387 -0.7656895003,-0.3893276588 -0.7842359254,-0.2658029951 C -0.785176482,-0.2541770057 -0.7861170387,-0.2425510164 -0.7870575953,-0.2309250271" />
      <path d="M -0.7831913822,-0.1901146802 Q -0.771121685,-0.1271375987 -0.7237949079,-0.0695382435" />
      <path d="M -0.6846333675,-0.0287278106 Q -0.6035755596,0.0444554621 -0.4731090317,0.0918485788" />
      <path d="M -0.2950884794,0.1375039274 C -0.156001901,0.1607860556 -0.0003254707,0.1595885842 0.1465999457,0.1326588255" />
      <path d="M 0.6828176027,-0.6413114739 Q 0.6290777183,-0.7061227475 0.5504636793,-0.7598724779" />
      <path d="M 0.5504636793,-0.1143251164 C 0.3788733453,-0.233007656 0.1226704277,-0.2989568441 -0.1187221818,-0.2927738836 C -0.3026562359,-0.2891777383 -0.4761096328,-0.2449896585 -0.5970132184,-0.1737462058 C -0.7188380757,-0.1029425694 -0.7875942605,-0.00590878 -0.7870576128,0.0918486578" />
      <path d="M -0.7831913842,0.1326590441 Q -0.7731589742,0.185183187 -0.7383245944,0.2342946447" />
      <path d="M -0.6846333587,0.2940458582 Q -0.6035974939,0.3672154946 -0.4731089589,0.4146222292" />
      <path d="M -0.3222211694,0.4554326586 C -0.1853359106,0.4817485735 -0.0307579146,0.4840615688 0.1174787375,0.4603948334" />
      <path d="M 0.6828199709,-0.3185363626 Q 0.6290859019,-0.3833438413 0.5504636793,-0.4370988128" />
      <path d="M 0.5504636793,0.2084485544 C 0.4108097569,0.112352406 0.2157570153,0.0498029849 0.0176026233,0.034108754 C -0.1805101069,0.0175177367 -0.379819653,0.0477793029 -0.526865134,0.1133338854 C -0.5824273073,0.1379608497 -0.6299358527,0.1665926419 -0.6693907703,0.1992292619" />
      <path d="M -0.7411786887,0.2762584485 Q -0.7868812487,0.3431110957 -0.7870576031,0.4146222756" />
      <path d="M -0.7831913875,0.4554327104 Q -0.7711311754,0.5183911824 -0.7237948763,0.5760090603" />
      <path d="M -0.6846333159,0.6168194886 Q -0.6035927599,0.6899934336 -0.4731089211,0.737395923" />
      <path d="M -0.2950886735,0.78305119 C -0.1559633143,0.8063165814 -0.0005929496,0.8051623538 0.1466014114,0.778206375" />
      <path d="M 0.5800460907,-0.0930423604 L 0.5504636793,-0.1143251164" />
      <path d="M 0.5504636793,0.5312222056 C 0.3843528362,0.4164538733 0.1392012674,0.3507461277 -0.0953813825,0.3524801488 C -0.2813965364,0.3528244835 -0.4584346353,0.3944108569 -0.5837971709,0.4642831984 C -0.7100579509,0.5336739174 -0.7836751517,0.6306910372 -0.7868947409,0.7290083315 C -0.7869490284,0.7318042008 -0.7870033159,0.73460007 -0.7870576033,0.7373959393" />
      <path d="M -0.783191381,0.7782063802 Q -0.7711252799,0.8411764524 -0.7237948923,0.8987827257" />
      <path d="M -0.6846295122,0.9395966324 Q -0.6036063051,1.0127579905 -0.4731089915,1.0601695917" />
      <path d="M -0.295089104,1.1058248572 Q -0.095172617,1.13872955 0.117479077,1.1059421225" />
      <path d="M 0.6093950036,0.8987827556 Q 0.6754662581,0.8427810087 0.7171576552,0.7782063591" />
      <path d="M 0.7404677067,0.7373959088 Q 0.769937663,0.6784270385 0.7774580939,0.616818967" />
      <path d="M 0.6828200405,0.3270110691 Q 0.6290841373,0.2622019234 0.5504636793,0.2084485544" />
      <path d="M 0.5504636793,0.853995866 C 0.3084787644,0.6836114573 -0.1051517528,0.6300641488 -0.4019294575,0.7149801099 C -0.6374478537,0.7776913473 -0.7895313229,0.9173399532 -0.7870576024,1.0601695545" />
      <path d="M -0.7831869569,1.1010033427 Q -0.771126514,1.1639407129 -0.723794881,1.221556427" />
      <path d="M -0.6846333407,1.2623668537 Q -0.6203493147,1.3205217949 -0.5233690367,1.362992769" />
      <path d="M 0.4293042281,1.3351308339 Q 0.4983223055,1.3026794314 0.5562258066,1.2623668669" />
      <path d="M 0.6093950013,1.2215563893 Q 0.6754639614,1.1655571281 0.7171573126,1.1009805364" />
      <path d="M 0.7404677049,1.0601695752 Q 0.7699448288,1.0011778319 0.7774580363,0.939593186" />
      <path d="M 0.7799296899,0.8987827622 C 0.780808649,0.7641093394 0.6962448141,0.6300515474 0.5504636793,0.5312222056" />
      <path d="M 0.5504636793,1.1767694958 C 0.3859252303,1.0630739663 0.1433383712,0.9973806465 -0.0890827969,0.998019403 C -0.321823592,0.9969433379 -0.5401172733,1.0618229353 -0.6646025975,1.1636386263 C -0.7453581657,1.2298543653 -0.7861765023,1.3029558966 -0.7870576073,1.38294322" />
      <path d="M -0.7831913771,1.4237536966 Q -0.7778333978,1.4519308724 -0.7651775554,1.4793735562" />
      <path d="M 0.7005952259,1.4477848306 L 0.7171576483,1.4237536718" />
      <path d="M 0.74046771,1.3829432365 Q 0.7699447862,1.3239539834 0.7774586351,1.2623619805" />
      <path d="M 0.779929695,1.2215564256 C 0.7807556307,1.086769441 0.6962811611,0.9528852744 0.5504636793,0.853995866" />
      <path d="M 0.5504641987,-5.2787032056 L 0.703560699,-5.4695276707" />
      <path d="M 0.703560699,-5.509874379 Q 0.5148952316,-5.5920695318 0.2928264129,-5.6205252688" />
      <path d="M 0.2928264129,-5.6205252688 C 0.0077165773,-5.6575927382 -0.287297376,-5.6177435586 -0.501952822,-5.5250714591" />
      <path d="M -0.501952822,-5.4847247508 L -0.501952822,-5.5250714591" />
      <path d="M 0.703560699,-5.4695276707 C 0.5038976583,-5.5578732372 0.2561556419,-5.6010619616 0.0215287558,-5.5930226771 C -0.1718026385,-5.5869796916 -0.3548493206,-5.547701668 -0.501952822,-5.4847247508" />
      <line x1="0.5504636793" y1="0.853995866" x2="0.5504636793" y2="0.93561677" />
      <line x1="0.5504636793" y1="0.5312222056" x2="0.5504636793" y2="0.5789168244" />
      <line x1="0.5504636793" y1="0.2084485544" x2="0.5504636793" y2="0.2561431298" />
      <line x1="0.5504636793" y1="-0.1143251164" x2="0.5504636793" y2="-0.1069773304" />
      <line x1="0.5504636793" y1="-0.4370988128" x2="0.5504636793" y2="-0.355477967" />
      <line x1="0.5504636793" y1="-0.7598724779" x2="0.5504636793" y2="-0.7121778714" />
      <line x1="0.5504636793" y1="-1.0826461826" x2="0.5504636793" y2="-1.0349515636" />
      <line x1="0.5504636793" y1="-1.4054198595" x2="0.5504636793" y2="-1.3980718532" />
      <line x1="0.5504636793" y1="-1.7281934886" x2="0.5504636793" y2="-1.6465725559" />
      <line x1="0.5504636793" y1="-2.0509671876" x2="0.5504636793" y2="-1.9693462549" />
      <line x1="0.5504636793" y1="-2.3737408351" x2="0.5504636793" y2="-2.292119884" />
      <line x1="0.5504636793" y1="-2.6965144649" x2="0.5504636793" y2="-2.6148935609" />
      <line x1="0.5504636793" y1="-3.0192881253" x2="0.5504636793" y2="-2.9376672656" />
      <line x1="0.5504636793" y1="-3.3420617765" x2="0.5504636793" y2="-3.2604409307" />
      <line x1="0.5504636793" y1="-3.6648354473" x2="0.5504636793" y2="-3.5832146271" />
      <line x1="0.5504636793" y1="-3.9876091437" x2="0.5504636793" y2="-3.9059882979" />
      <line x1="0.5504636793" y1="-4.3103828088" x2="0.5504636793" y2="-4.2287619491" />
      <line x1="0.5504636793" y1="-4.6331565135" x2="0.5504636793" y2="-4.5515356095" />
      <line x1="0.5504636793" y1="-4.9559301904" x2="0.5504636793" y2="-4.8743092393" />
      <line x1="0.5504636793" y1="-5.2787035124" x2="0.5504636793" y2="-5.2310091831" />
      <path d="M -0.501952822,-5.4847247508 C -0.499026003,-5.485144538 -0.489208825,-5.4871203873 -0.472501288,-5.4906522987 C -0.4651767166,-5.4924125974 -0.4461055774,-5.4961604308 -0.4152878705,-5.5018957989 C -0.3707307511,-5.5099541786 -0.3046702279,-5.5179910528 -0.2407223171,-5.5196035786 C 0.0310390091,-5.5297864366 0.3496899274,-5.4421122049 0.5504636793,-5.2787036209" />
      <path d="M -0.501952822,-5.5250714591 C -0.4990218735,-5.5272676824 -0.4892394264,-5.5327417643 -0.4726054809,-5.5414937048 C -0.466163056,-5.5449637964 -0.4537112163,-5.5507754195 -0.4352499618,-5.5589285743 C -0.4155377003,-5.5677217522 -0.3884695601,-5.5778116056 -0.3540455413,-5.5891981345 C -0.190752395,-5.6422220987 0.0113123994,-5.6589502004 0.1926937576,-5.6336746535" />
      <path d="M 0.7772217524,-5.1950103406 A 0.7834936490538903,0.46276377792257667 0.0 0,1 0.7524741246,-5.1120197974" />
      <path d="M 0.5242636788,-4.8914606744 A 0.7834936490538903,0.46276377792257667 0.0 0,1 0.1812915988,-4.7837527416" />
      <path d="M -0.6551605679,-4.9764827175 A 0.7834936490538903,0.46276377792257667 0.0 0,1 -0.7562464241,-5.1049532332" />
      <path d="M -0.7870576035,-5.2334518768 A 0.7834936490538903,0.46276377792257667 0.0 0,1 0.5307118086,-5.5719320174" />
      <path d="M 1.484582335,2.0061705514 A 2.104503630481755,1.2430069495388203 0.0 0,1 -1.4917102439,3.7640035368 A 2.104503630481755,1.2430069495388203 0.0 0,1 1.484582335,2.0061705514" />
      <path d="M -1.4485664902,1.8551041839 A 2.120791909071961,1.2526274810458227 0.0 0,1 1.4414385813,1.8551041839" />
      <path d="M 1.4414385813,1.8551041839 A 2.120791909071961,1.2526274810458227 0.0 0,1 1.4961001775,1.8862550051" />
      <line x1="0.4603946637" y1="3.684032149" x2="0.4603946637" y2="3.0700983469" />
      <line x1="-0.0835043432" y1="3.7701019532" x2="-0.0835043432" y2="2.9869779668" />
      <line x1="-0.7272796666" y1="3.4960496249" x2="-0.7272796666" y2="3.3301477458" />
      <line x1="-0.6473392779" y1="3.0297256565" x2="-0.6473392779" y2="2.9458967716" />
      <path d="M -1.4485664902,1.8551041839 C -1.7640326664,2.0276806021 -1.9815374167,2.2553427203 -2.0806954163,2.4900769747 C -2.1277424295,2.6008556626 -2.1510809256,2.7124324828 -2.1507109046,2.8248074354 C -2.1506727523,2.9371180581 -2.1269443731,3.0486147641 -2.0795257671,3.1592975535 C -2.0116317958,3.3185571682 -1.8939267005,3.4674166853 -1.7264104814,3.6058761048 C -1.4598207253,3.8248210834 -1.0660632685,3.9940768709 -0.6231877081,4.0734455508 C -0.1335735577,4.1633200158 0.4113643446,4.1419046047 0.8765099871,4.0149067486 C 1.2115105744,3.9246942499 1.5040690705,3.7814304618 1.7172131647,3.6075605524 C 1.886511164,3.4680715213 2.0051824689,3.3180084579 2.0732270796,3.1573713622 C 2.1204020318,3.0465743993 2.1438543382,2.9349744074 2.1435839988,2.8225713864 C 2.1436455313,2.7102882396 2.1200307375,2.5988140987 2.0727396176,2.4881489637 C 1.9789876137,2.2681591825 1.7820628612,2.0544666525 1.496871015,1.8866947121" />
      <path d="M 1.4414385813,1.8551041839 Q 1.4728416764,1.8725613663 1.496871015,1.8866947121" />
      <line x1="0.5953415822" y1="3.1108493115" x2="0.5953415822" y2="3.4857913924" />
      <line x1="-0.6024694911" y1="2.9150478506" x2="-0.6024694911" y2="3.1619569224" />
      <line x1="0.6777865022" y1="1.4352444811" x2="1.4414385813" y2="1.8551041839" />
      <line x1="-0.6849144111" y1="1.4352444811" x2="-1.4485664902" y2="1.8551041839" />
      <path d="M 0.9964360993,-5.0115463496 L 0.9964360993,-5.0518930579" />
      <path d="M -1.0035638986,-4.8501595049 L -1.0035638986,-4.8905062132" />
      <path d="M 0.9964360927,-4.688772497 L 0.9964360927,-4.7291192053" />
      <path d="M -1.0035640016,-4.5273856926 L -1.0035640016,-4.5677324009" />
      <path d="M 0.9964359897,-4.3659990026 L 0.9964359897,-4.4063457109" />
      <path d="M -1.0035640081,-4.2046121892 L -1.0035640081,-4.2449588975" />
      <path d="M 0.9964359492,-4.0432250336 L 0.9964359492,-4.0835717419" />
      <path d="M -1.0035640703,-3.8818385964 L -1.0035640703,-3.9221853047" />
      <path d="M 0.9964360456,-3.7204516094 L 0.9964360456,-3.7607983177" />
      <path d="M -1.0035640703,-3.5590646236 L -1.0035640703,-3.5994113319" />
      <path d="M 0.9964359492,-3.3976781865 L 0.9964359492,-3.4380248948" />
      <path d="M -1.0035640081,-3.2362910308 L -1.0035640081,-3.2766377391" />
      <path d="M 0.9964359897,-3.0749042174 L 0.9964359897,-3.1152509257" />
      <path d="M -1.0035640016,-2.9135175274 L -1.0035640016,-2.9538642357" />
      <path d="M 0.9964360927,-2.7521307229 L 0.9964360927,-2.7924774312" />
      <path d="M -1.0035638986,-2.5907437151 L -1.0035638986,-2.6310904234" />
      <path d="M 0.9964360993,-2.4293568704 L 0.9964360993,-2.4697035787" />
      <path d="M -1.0035638581,-2.2679703106 L -1.0035638581,-2.3083170189" />
      <path d="M 0.9964361615,-2.1065831001 L 0.9964361615,-2.1469298084" />
      <path d="M -1.0035639544,-1.945196445 L -1.0035639544,-1.9855431533" />
      <path d="M 0.9964361615,-1.7838097889 L 0.9964361615,-1.8241564972" />
      <path d="M -1.0035638581,-1.6224225784 L -1.0035638581,-1.6627692868" />
      <path d="M 0.9964360993,-1.4610360187 L 0.9964360993,-1.501382727" />
      <path d="M -1.0035638986,-1.299649174 L -1.0035638986,-1.3399958823" />
      <path d="M 0.9964360927,-1.1382621662 L 0.9964360927,-1.1786088745" />
      <path d="M -1.0035640016,-0.9768753617 L -1.0035640016,-1.01722207" />
      <path d="M 0.9964359897,-0.8154886717 L 0.9964359897,-0.85583538" />
      <path d="M -1.0035640081,-0.6541018583 L -1.0035640081,-0.6944485666" />
      <path d="M 0.9964359492,-0.4927147027 L 0.9964359492,-0.533061411" />
      <path d="M -1.0035640703,-0.3313282655 L -1.0035640703,-0.3716749738" />
      <path d="M 0.9964360456,-0.1699412785 L 0.9964360456,-0.2102879868" />
      <path d="M -1.0035640703,-0.0085542927 L -1.0035640703,-0.048901001" />
      <path d="M 0.9964359492,0.1528321444 L 0.9964359492,0.1124854361" />
      <path d="M -1.0035640081,0.3142193001 L -1.0035640081,0.2738725918" />
      <path d="M 0.9964359897,0.4756061135 L 0.9964359897,0.4352594051" />
      <path d="M -1.0035640016,0.6369928034 L -1.0035640016,0.5966460951" />
      <path d="M 0.9964360927,0.798379608 L 0.9964360927,0.7580328997" />
      <path d="M -1.0035638986,0.9597666158 L -1.0035638986,0.9194199075" />
      <path d="M 0.9964360993,1.1211534605 L 0.9964360993,1.0808067522" />
      <path d="M -1.0035638581,1.2825400203 L -1.0035638581,1.242193312" />
      <path d="M 0.9964361615,1.4439272308 L 0.9964361615,1.4035805224" />
      <path d="M -1.0035639544,1.6053138859 L -1.0035639544,1.5649671776" />
      <line x1="-0.7870576035" y1="1.4645641553" x2="-0.7870576035" y2="1.3829432163" />
      <line x1="0.7799296946" y1="1.3031772716" x2="0.7799296946" y2="1.2215564257" />
      <line x1="-0.7870576035" y1="1.1417905193" x2="-0.7870576035" y2="1.0601695688" />
      <line x1="-0.7870576035" y1="0.819016843" x2="-0.7870576035" y2="0.737395939" />
      <line x1="-0.7870576035" y1="0.4962431384" x2="-0.7870576035" y2="0.414622279" />
      <line x1="-0.7870576035" y1="0.1734694733" x2="-0.7870576035" y2="0.0918486274" />
      <line x1="-0.7870576035" y1="-0.1493042232" x2="-0.7870576035" y2="-0.2309250433" />
      <line x1="-0.7870576035" y1="-0.4720778939" x2="-0.7870576035" y2="-0.5536987399" />
      <line x1="0.7799296946" y1="-0.6334646455" x2="0.7799296946" y2="-0.7150855965" />
      <line x1="0.7799296946" y1="-1.2790120271" x2="0.7799296946" y2="-1.360632887" />
      <line x1="0.7799296946" y1="-1.601785692" x2="0.7799296946" y2="-1.683406538" />
      <line x1="0.7799296946" y1="-2.5701067086" x2="0.7799296946" y2="-2.6517275705" />
      <line x1="0.7799296946" y1="-2.892880371" x2="0.7799296946" y2="-2.974501275" />
      <line x1="-0.7870576035" y1="-3.3770408577" x2="-0.7870576035" y2="-3.4586617034" />
      <line x1="-0.7870576035" y1="-4.0225882249" x2="-0.7870576035" y2="-4.1042090684" />
      <line x1="-0.7870576035" y1="-4.9909091662" x2="-0.7870576035" y2="-5.2334518768" />
      <path d="M 0.1926937569,-5.6336746536 L 0.2928264129,-5.6205252688" />
    </g>
  </g>
</svg>