<?xml version='1.0' encoding='utf-8'?>
<svg width="161.1960129731mm" height="513.0000000001mm" viewBox="-1.3484607009 -4.2388450767 2.9254049507 9.3099867176" version="1.1" xmlns="http://www.w3.org/2000/svg">
  <g transform="scale(1,-1)" stroke-linecap="round">
    <g fill="none" stroke="rgb(64,192,64)" stroke-width="0.018148122256526827" id="Visible">
      <path d="M 0.7322743041,3.2032736867 A 2.9225498115148936,0.5755714055141816 -141.38380943684592 0,1 0.6734880832,3.168143215" />
      <path d="M 0.6734880832,3.168143215 A 2.672556825114173,0.5242084294308301 141.31724420299807 0,1 0.6056328783,3.2159613008" />
      <path d="M -0.378163304,3.216432605 C -0.2890392374,3.2789586003 -0.1916079161,3.3197102436 -0.1073600307,3.3416009724 C -0.0271954828,3.3616834287 0.0466782589,3.371209482 0.1142611944,3.3701791324 C 0.1751628514,3.3707582631 0.2407432587,3.3631600156 0.3110024163,3.3473843898 C 0.4008308065,3.326756946 0.5079332827,3.284716792 0.6056328783,3.2159613008" />
      <path d="M -0.378163304,3.216432605 A 2.672556825114175,0.5263374064957816 -141.38380943684592 0,1 -0.4460972883,3.1686795713" />
      <path d="M -0.4460972883,3.1686795713 A 2.9225498115148927,0.5732432823246486 141.31724420299807 0,1 -0.5626586187,3.237917165" />
      <path d="M -0.5626586187,3.237917165 A 2.6725568251141714,2.111277171689709 93.65907184003159 0,0 -0.5138428011,3.2970264166" />
      <path d="M -0.5130480787,3.8804593582 Q -0.4387411933,3.8457214355 -0.4016023844,3.7970741878" />
      <path d="M -0.4016023844,3.7970741878 Q -0.3473162025,3.7218307882 -0.3510515158,3.6461063872 Q -0.3501665008,3.592274326 -0.3752936969,3.5210123832 Q -0.4069292948,3.4262949056 -0.5138428011,3.2970264166" />
      <path d="M -0.5130480787,3.8804593582 A 2.672556825114173,0.5242084294308301 141.31724420299807 0,1 -0.5617542041,3.9018788661" />
      <path d="M -0.5617542041,3.9018788661 A 2.922549811514892,2.308767634871097 93.65907184003159 0,0 -0.4450044022,3.9710046881" />
      <path d="M -0.4450044022,3.9710046881 A 2.672556825114173,2.109148194624759 -93.70780761103774 0,0 -0.3771491973,3.9609230656" />
      <path d="M 0.606646985,3.9604517614 C 0.5175229184,3.9453335672 0.4200915971,3.9349153061 0.3358437117,3.929350983 C 0.2556791638,3.9242097475 0.1818054221,3.9217782857 0.1142224866,3.9220565974 C 0.0533208296,3.9219359262 -0.0122595777,3.9239221076 -0.0825187353,3.9280151418 C -0.1723471255,3.9333231279 -0.2794496017,3.9442191289 -0.3771491973,3.9609230656" />
      <path d="M 0.606646985,3.9604517614 A 2.6725568251141714,2.111277171689709 93.65907184003159 0,0 0.6745809694,3.9704683319" />
      <path d="M 0.6745809694,3.9704683319 A 2.9225498115148927,2.306439511681565 -93.70780761103774 0,0 0.7911422997,3.9012307382" />
      <path d="M 0.7911422997,3.9012307382 A 2.672556825114175,0.5263374064957816 -141.38380943684592 0,1 0.7423264821,3.8798579498" />
      <path d="M 0.7415317597,3.2964250082 C 0.6284124105,3.4295093047 0.5892052789,3.5377893522 0.5815134173,3.6110751681 C 0.575400567,3.6762399143 0.5832151463,3.7340389773 0.6301714158,3.7961091816" />
      <path d="M 0.6301714158,3.7961091816 Q 0.6674809167,3.8450022981 0.7423264821,3.8798579498" />
      <path d="M 0.7415317597,3.2964250082 A 2.672556825114173,2.109148194624759 -93.70780761103774 0,0 0.7902378851,3.2372690371" />
      <path d="M 0.7902378851,3.2372690371 A 2.9225498115148936,0.5755714055141816 -141.38380943684592 0,1 0.7322743041,3.2032736867" />
      <path d="M -0.2438591969,3.5979677465 Q -0.1565782688,3.4859633062 -0.0762188607,3.3491947938" />
      <line x1="-0.4450044022" y1="3.9710046881" x2="-0.4450714273" y2="3.839979025" />
      <path d="M 0.4718990012,3.5963347564 Q 0.3849593799,3.4847908581 0.3048806925,3.3487944468" />
      <line x1="0.6745809694" y1="3.9704683319" x2="0.67451408" y2="3.8397080352" />
      <path d="M -0.0615378726,2.275964751 A 0.5400000000000001,0.3202429468148573 -1.97507985344588e-15 0,1 0.4794933338,2.3428935107" />
      <line x1="-0.0615378726" y1="2.2886349007" x2="-0.1048936868" y2="2.3243154253" />
      <path d="M -0.1048936868,2.3243154253 Q -0.268462213,2.3525551725 -0.3889728768,2.4180298116" />
      <path d="M 0.4026580659,2.2602980612 C 0.5341263334,2.3018398188 0.6377736267,2.373102463 0.6877675443,2.456321948" />
      <path d="M -0.1494626713,2.252194009 A 0.610556942922154,0.3620862122215948 -1.97507985344588e-15 0,1 0.4086583369,2.2615582079" />
      <path d="M 0.4086583369,2.2615582079 L 0.4026580659,2.2602980612" />
      <path d="M -0.0615378726,2.2678558944 L -0.1164564923,2.2477785968" />
      <path d="M -0.0615378726,2.2886349007 L -0.0615378726,2.2678558944" />
      <path d="M -0.1164564923,2.2830048351 L -0.1048936868,2.3243154253" />
      <path d="M -0.1164564923,2.2477785968 L -0.1164564923,2.2830048351" />
      <path d="M 0.4026580659,2.2602980612 Q 0.5669267761,2.3268435882 0.6546200254,2.4382694428" />
      <path d="M 0.6794701135,-4.8772096819 L 0.5456218985,-4.7101004835" />
      <path d="M 0.5456218985,-4.4282904768 C 0.4157819338,-4.519584027 0.2244394776,-4.5722980962 0.0413405353,-4.5721039218 C -0.2330271635,-4.5754442003 -0.4667259243,-4.4556948123 -0.4925436779,-4.3128883195 C -0.4938008271,-4.301156442 -0.4950579763,-4.2894245646 -0.4963151255,-4.2776926871" />
      <path d="M -0.4924367957,-4.2420037038 Q -0.4810343346,-4.1901991603 -0.4385449313,-4.143619075" />
      <path d="M -0.3909495515,-4.1010990477 Q -0.2872999977,-4.0248072515 -0.1186524861,-3.9958828267" />
      <path d="M 0.6506719053,-4.6138515515 Q 0.6082800732,-4.6664805402 0.5456218985,-4.7101004835" />
      <path d="M 0.5456218985,-4.1464807215 C 0.4169742944,-4.236982346 0.2274098103,-4.2896799879 0.0458623203,-4.290272032 C -0.1359356748,-4.2921934906 -0.3060441703,-4.2422894572 -0.4025134559,-4.1635383573 C -0.4643947483,-4.1128847704 -0.4956618151,-4.0570008686 -0.4963146561,-3.995886652" />
      <path d="M -0.4924367937,-3.9601945234 Q -0.4801420517,-3.9044443648 -0.4320748177,-3.854970792" />
      <path d="M -0.3909495115,-3.8192890989 Q -0.2872315594,-3.7429723677 -0.1186514851,-3.7140727703" />
      <path d="M 0.6506720796,-4.332041515 Q 0.6082661381,-4.3846831178 0.5456218985,-4.4282904768" />
      <path d="M 0.5456218985,-3.8646705606 C 0.4184586975,-3.9541022556 0.2317720159,-4.0066952541 0.0521323147,-4.0083987712 C -0.1277289636,-4.0113748298 -0.2970854773,-3.9637469243 -0.395634463,-3.8871305749 C -0.4256212132,-3.8640723058 -0.4491090446,-3.8391524707 -0.4660979573,-3.8123710695" />
      <path d="M -0.4924332342,-3.6784007335 Q -0.4810312677,-3.6266176474 -0.4385425261,-3.5800004004" />
      <path d="M 0.6506723866,-4.0502314588 Q 0.6082826086,-4.1028585543 0.5456218985,-4.1464807215" />
      <path d="M 0.5456218985,-3.582860513 C 0.4329890042,-3.6618089222 0.2743698926,-3.7124811719 0.1145480835,-3.7238743374 C -0.0973418726,-3.7405496797 -0.3048878305,-3.6859140466 -0.4111545386,-3.5927423463" />
      <path d="M 0.1994480013,-3.1504537077 Q 0.3712066328,-3.1778184954 0.5050304916,-3.2556729501" />
      <path d="M 0.5679431878,-3.8483522749 L 0.5456218985,-3.8646705606" />
      <path d="M 0.5456218985,-3.3010511376 C 0.418149817,-3.3906468928 0.2314386631,-3.4431734822 0.0513733408,-3.4447885735 C -0.1381457652,-3.4478633579 -0.3153211569,-3.3945057473 -0.4111559575,-3.310931811" />
      <path d="M 0.1994535516,-2.8686431656 Q 0.3711655565,-2.8960066562 0.5050353395,-2.9738602977" />
      <path d="M 0.5591459382,-3.0095481295 Q 0.6238090734,-3.0573181481 0.6647853872,-3.1147706168" />
      <path d="M 0.6985458932,-3.1731238373 Q 0.7168805307,-3.2136616167 0.7224469877,-3.2556691424" />
      <path d="M 0.5679428903,-3.5665424858 L 0.5456218985,-3.582860513" />
      <path d="M 0.5456218985,-3.0192411605 C 0.421082075,-3.1067710295 0.2395918823,-3.1591157319 0.0633861225,-3.1627586382 C -0.1129846463,-3.1675753023 -0.2809459476,-3.1238876738 -0.382885193,-3.0510734364 C -0.4189695064,-3.025526904 -0.4467076672,-2.9974825652 -0.4660996752,-2.9669404199" />
      <path d="M -0.3909463428,-2.692051822 Q -0.2872270589,-2.6157176123 -0.1186228951,-2.5868380031" />
      <path d="M 0.1994536306,-2.5868332798 Q 0.3711616736,-2.6141881212 0.505036699,-2.6920495601" />
      <path d="M 0.5591457548,-2.7277381641 Q 0.623829212,-2.7755210585 0.6647898776,-2.8329546247" />
      <path d="M 0.6985461829,-2.8913137532 Q 0.716879271,-2.9318479351 0.7224468929,-2.9738593935" />
      <path d="M 0.7247987766,-3.0095480748 C 0.7254524668,-3.1163271806 0.6594650031,-3.2224389421 0.5456218985,-3.3010511376" />
      <path d="M 0.5456218985,-2.7374310229 C 0.3336159793,-2.8908405486 -0.0468027479,-2.9229222452 -0.2774692584,-2.8253668692 C -0.4148979889,-2.7710002049 -0.4972761545,-2.679533955 -0.4963149019,-2.5868337412" />
      <path d="M -0.3909461367,-2.4102419368 Q -0.2873169191,-2.3339770492 -0.1186518789,-2.3050231693" />
      <path d="M 0.1994518929,-2.3050234578 Q 0.3711017765,-2.332357411 0.5050353901,-2.41023889" />
      <path d="M 0.5591456686,-2.4459281926 Q 0.6238249728,-2.4937057434 0.6647896627,-2.5511448657" />
      <path d="M 0.6985461275,-2.6095038889 Q 0.7168823219,-2.6500482077 0.7224469459,-2.692049014" />
      <path d="M 0.7247988884,-2.7277378414 C 0.7254630915,-2.8344916095 0.659463785,-2.9406348165 0.5456218985,-3.0192411605" />
      <path d="M 0.5456218985,-2.4556210235 C 0.4240274476,-2.5410233782 0.2482808804,-2.593040376 0.0760228509,-2.5987562397 C -0.0963468359,-2.6055408481 -0.2624537526,-2.5661566097 -0.3677614567,-2.4976362804 C -0.3835641489,-2.487470775 -0.3980285969,-2.4767595465 -0.4111548006,-2.4655025948" />
      <path d="M -0.4661282549,-2.4033050149 Q -0.4962197894,-2.3555682972 -0.4963151052,-2.3050234585" />
      <path d="M -0.3909499875,-2.1284299557 Q -0.2872290018,-2.0521083845 -0.1186525064,-2.0232135217" />
      <path d="M 0.5591461895,-2.1641184462 Q 0.6238410262,-2.211912664 0.664789889,-2.2693345358" />
      <path d="M 0.687209862,-2.3050232257 Q 0.7152671487,-2.3562526339 0.7224466613,-2.410238167" />
      <path d="M 0.7247987754,-2.445928618 C 0.7254846612,-2.552639737 0.6594390879,-2.6588598603 0.5456218985,-2.7374310229" />
      <path d="M 0.5456218985,-2.173811596 C 0.4536658247,-2.238064024 0.3314096509,-2.2839821801 0.2024860864,-2.3045400577 C -0.0823446016,-2.3535019978 -0.3817340111,-2.2644283622 -0.4661280138,-2.1214952731" />
      <path d="M -0.4924356015,-1.9875191028 Q -0.4810369374,-1.9357267058 -0.4385448222,-1.88913987" />
      <path d="M 0.7247987892,-2.164118124 C 0.725445768,-2.2709025594 0.6594820465,-2.3769914492 0.5456218985,-2.4556210235" />
      <path d="M 0.5456218985,-1.8920015103 C 0.4221951245,-1.9786818883 0.2432956079,-2.0308487378 0.068528405,-2.035382236 C -0.1272885014,-2.041873355 -0.3124195106,-1.988077691 -0.4111543481,-1.9018830234" />
      <path d="M 0.5679447479,-2.1574921126 L 0.5456218985,-2.173811596" />
      <path d="M 0.5456218985,-1.610191527 C 0.4081065026,-1.7071572969 0.2004947182,-1.7602545816 0.0080954002,-1.7535508921 C -0.1848158587,-1.7485612117 -0.3574779817,-1.6844012105 -0.438996113,-1.5931732934 C -0.4494171115,-1.5817395755 -0.4584549444,-1.5699769511 -0.4661096116,-1.5578854204" />
      <path d="M -0.39094858,-1.2830008078 Q -0.2872964265,-1.2067046665 -0.1186516027,-1.1777840086" />
      <path d="M 0.1994518944,-1.1777837817 Q 0.3711157092,-1.2051224578 0.5050340448,-1.2829982847" />
      <path d="M 0.5591460918,-1.3186886668 Q 0.6238143032,-1.3664560634 0.664789922,-1.4239051205" />
      <path d="M 0.6985461867,-1.4822641763 Q 0.7168824119,-1.5228091544 0.7224469097,-1.5648100058" />
      <path d="M 0.5679441784,-1.875682461 L 0.5456218985,-1.8920015103" />
      <path d="M 0.5456218985,-1.3283818044 C 0.4081908943,-1.4252817802 0.2008007001,-1.4783689228 0.0085078458,-1.471753071 C -0.1842919094,-1.4668464083 -0.3569643515,-1.4028342813 -0.438655384,-1.3117365849 C -0.4492241189,-1.3001839081 -0.4583817694,-1.2882934954 -0.4661283356,-1.276065347" />
      <path d="M 0.1994567809,-0.895974062 Q 0.3711099608,-0.9233183815 0.5050364929,-1.0011903356" />
      <path d="M 0.5591455616,-1.0368790301 Q 0.6238060793,-1.0846503782 0.6647840061,-1.1421029615" />
      <path d="M 0.6985457562,-1.2004545886 Q 0.7168846031,-1.2410064487 0.7224409238,-1.283045346" />
      <path d="M 0.6506500666,-1.5139559362 Q 0.6082645729,-1.5665696578 0.5456218985,-1.610191527" />
      <path d="M 0.5456218985,-1.0465716753 C 0.4503834745,-1.1131427305 0.3226006984,-1.159969653 0.1886544642,-1.179428148 C -0.092231065,-1.2236248283 -0.3829002536,-1.134743153 -0.4661276542,-0.9942558639" />
      <path d="M 0.5591456637,-0.7550689799 Q 0.623863683,-0.8028853321 0.6647897893,-0.8602851456" />
      <path d="M 0.6872099705,-0.8959738475 Q 0.7152656866,-0.9471978172 0.722446927,-1.0011900402" />
      <path d="M 0.7247987807,-1.0368786489 C 0.7254493815,-1.1436484047 0.6594846444,-1.2497535617 0.5456218985,-1.3283818044" />
      <path d="M 0.5456218985,-0.7647617244 C 0.4140126455,-0.8573314106 0.2191990987,-0.9101438557 0.0338781257,-0.9085683909 C -0.1943084301,-0.9089010405 -0.3971546385,-0.8256879022 -0.4661279058,-0.7124457521" />
      <path d="M 0.7247987831,-0.7550686598 C 0.7254647808,-0.8618168679 0.6594629566,-0.9679693332 0.5456218985,-1.0465716753" />
      <path d="M 0.5456218985,-0.4829519369 C 0.4292443978,-0.5646006813 0.2634355125,-0.6159165876 0.0983638701,-0.6250319309 C -0.0667472628,-0.6350472171 -0.2288979876,-0.6029276085 -0.3390207725,-0.5420163659 C -0.3663266128,-0.5270491399 -0.3903712211,-0.5106547883 -0.4111545974,-0.4928333113" />
      <path d="M 0.567943927,-0.7484429058 L 0.5456218985,-0.7647617244" />
      <path d="M 0.5456218985,-0.2011422441 C 0.4202061205,-0.289304626 0.2370029805,-0.3417350771 0.05963917,-0.3447433936 C -0.1179066696,-0.3489570597 -0.2863716071,-0.3039628678 -0.3872208219,-0.229874435 C -0.4212378427,-0.2051358178 -0.4475403539,-0.1781195726 -0.4661283554,-0.1488256993" />
      <path d="M 0.5591415386,0.0903579524 Q 0.6238147522,0.0425775068 0.6647865438,-0.0148511957" />
      <path d="M 0.6872097452,-0.0505440026 Q 0.7152642626,-0.1017637411 0.7224469685,-0.1557596307" />
      <path d="M 0.5679441534,-0.4666329066 L 0.5456218985,-0.4829519369" />
      <path d="M 0.5456218985,0.0806682339 C 0.4581535868,0.0207523567 0.3542711346,-0.0209650666 0.2339745418,-0.044484036 C -0.0590923932,-0.1048079121 -0.3789663567,-0.0156947848 -0.4661284922,0.1329842437" />
      <path d="M 0.5591452991,0.3721711273 Q 0.6238230655,0.3243949741 0.664789983,0.2669547051" />
      <path d="M 0.6872100304,0.2312657992 Q 0.715256297,0.1800563882 0.7224413988,0.1260913554" />
      <path d="M 0.7247988524,0.0903610048 C 0.7254649348,-0.0163822314 0.6594669303,-0.1225368115 0.5456218985,-0.2011422441" />
      <path d="M 0.5456218985,0.3624780649 C 0.3992730089,0.259155006 0.174206124,0.2062979894 -0.0281596936,0.2208699666 C -0.2311616532,0.2334314008 -0.4031210944,0.3122887196 -0.4661280384,0.4147939431" />
      <path d="M -0.3909495456,0.6896693548 Q -0.2872939762,0.7659651953 -0.1186520867,0.7948855283" />
      <path d="M 0.7247987099,0.3721709509 C 0.7254570759,0.2654066853 0.6594686584,0.1592792944 0.5456218985,0.0806682339" />
      <path d="M 0.5456218985,0.644287721 C 0.4104017621,0.5490808574 0.2082817881,0.4961274442 0.0185020165,0.5006690224 C -0.203644868,0.503792641 -0.3986091841,0.5860130827 -0.4661283178,0.6966040212" />
      <path d="M 0.5591434944,0.935788781 Q 0.6237860616,0.8880230712 0.6647722676,0.8305557841" />
      <path d="M 0.6985390819,0.772209977 Q 0.7168949983,0.7316590255 0.722443219,0.689641309" />
      <path d="M 0.7247876389,0.6539560999 C 0.7254297059,0.5471642966 0.6595026785,0.4411516813 0.5456218985,0.3624780649" />
      <path d="M 0.5456218985,0.9260976303 C 0.4150713335,0.8342017152 0.2215595965,0.7813518787 0.0376039041,0.7822808091 C -0.1466566566,0.7818046603 -0.3174881094,0.8346541455 -0.4111550731,0.9162164026" />
      <path d="M -0.3909495191,1.253288965 Q -0.2872646647,1.3295942956 -0.118652518,1.3585055875" />
      <path d="M 0.7247990155,0.9357907531 Q 0.7242043199,0.8327027517 0.6506727827,0.7405372058" />
      <path d="M 0.5679443321,0.6606068141 L 0.5456218985,0.644287721" />
      <path d="M 0.5456218985,1.2079076416 C 0.3780233766,1.0887038551 0.1054928643,1.0385445419 -0.1155548501,1.0761891967 C -0.2801231001,1.1022282618 -0.4120220477,1.1731356587 -0.4661283925,1.2602237831" />
      <path d="M -0.3909494576,1.5350989583 Q -0.2872884077,1.6113962425 -0.1186522161,1.6403155203" />
      <path d="M 0.1994534262,1.6403153165 Q 0.3711336,1.612969678 0.5050366881,1.5350990641" />
      <path d="M 0.5591459411,1.4994106666 Q 0.6238383895,1.4516190268 0.6647899103,1.394194053" />
      <path d="M 0.6985461307,1.3358348557 Q 0.7168814303,1.2952932332 0.7224469187,1.2532895706" />
      <path d="M 0.5679439548,0.9424164956 L 0.5456218985,0.9260976303" />
      <path d="M 0.5456218985,1.4897176525 C 0.4196174912,1.4011848336 0.2357572122,1.3487685631 0.0576000353,1.3460764203 C -0.1797157144,1.3401147601 -0.3949190962,1.4246853262 -0.4661285733,1.5420338457" />
      <path d="M -0.3909497798,1.8169091946 Q -0.2873545442,1.8931801707 -0.1186527999,1.9221251397" />
      <path d="M 0.5591459719,1.7812203518 Q 0.6238301924,1.7334367456 0.6647898383,1.6760042218" />
      <path d="M 0.6985462077,1.6176448562 Q 0.7168803023,1.577107002 0.7224469123,1.5350987789" />
      <path d="M 0.6506719925,1.3041565477 Q 0.6082833964,1.2515306947 0.5456218985,1.2079076416" />
      <path d="M 0.5456218985,1.7715273422 C 0.4328117599,1.6924352546 0.2736499505,1.6416874236 0.1136062153,1.6304451004 C -0.0464395969,1.6184064086 -0.2054505263,1.6458386691 -0.3180243156,1.701580773 C -0.3540421545,1.7192939169 -0.3850672426,1.739307521 -0.41109958,1.7616215854" />
      <path d="M -0.3909424976,2.0987136756 Q -0.2873146188,2.1750188933 -0.1186085488,2.203928073" />
      <path d="M 0.6506721393,1.5859665754 Q 0.6082843781,1.5333415041 0.5456218985,1.4897176525" />
      <path d="M 0.5456218985,2.053337462 C 0.3982166535,1.949240472 0.170922813,1.8964386117 -0.0325420981,1.9120314637 C -0.2336797987,1.9253906417 -0.4035976059,2.0039395699 -0.4661280605,2.105653345" />
      <path d="M 0.6506724591,1.8677766359 Q 0.6082679905,1.8151361467 0.5456218985,1.7715273422" />
      <path d="M 0.4086583369,2.2615582079 C 0.2716137023,2.2048973316 0.1044684952,2.1815917146 -0.0465917343,2.1949440139 C -0.1979875024,2.2075912067 -0.331703887,2.2565008141 -0.4111547355,2.3252657605" />
      <path d="M 0.6988657375,2.4623661467 Q 0.7169311766,2.4221620986 0.7224469193,2.3805291117" />
      <path d="M 0.6506722931,2.1495863616 Q 0.6082793824,2.0969567793 0.5456218985,2.053337462" />
      <path d="M 0.6794701135,-4.8772096819 C 0.8286483452,-4.7778437919 0.9150941779,-4.6424633557 0.9142418297,-4.5062007829" />
      <path d="M 0.9142418297,-4.5062007829 Q 0.9128752069,-4.3545165587 0.7875440188,-4.224390894" />
      <path d="M -0.4111540989,-4.0458357702 L -0.4385448943,-4.0585790559" />
      <path d="M -0.4754506761,-4.077969123 C -0.6098143062,-4.1531953744 -0.6864392706,-4.2589144283 -0.6857581413,-4.3652959205" />
      <path d="M -0.6857581413,-4.3652959205 C -0.6892976247,-4.5301565703 -0.4979117976,-4.6894293067 -0.2171932511,-4.7458053032 C 0.0252511514,-4.7977076908 0.3235019078,-4.7699576173 0.547168949,-4.6681578888 C 0.7731440022,-4.5684849238 0.9163742474,-4.3978770399 0.9142418894,-4.2243910196" />
      <path d="M 0.9142418894,-4.2243910196 Q 0.9128752131,-4.0727067043 0.7875440148,-3.9425810409" />
      <path d="M -0.4111553192,-3.7640264448 L -0.4385447146,-3.7767691114" />
      <path d="M -0.4754390331,-3.79615271 C -0.6098099374,-3.8713795174 -0.6864396263,-3.9771016471 -0.6857581833,-4.0834862474" />
      <path d="M -0.6857581833,-4.0834862474 C -0.6866072011,-4.1961238743 -0.6003461978,-4.3078838024 -0.4514432498,-4.3837353915 C -0.3037408777,-4.4602990173 -0.0954896688,-4.4997130238 0.114242142,-4.4874674823 C 0.3239739433,-4.4762288704 0.5322249898,-4.4133305777 0.6799273236,-4.3132826515 C 0.8288302614,-4.2139467346 0.915090852,-4.0787029307 0.9142418978,-3.9425810299" />
      <path d="M 0.9142418978,-3.9425810299 Q 0.9132119941,-3.8017523982 0.803967336,-3.6783842455" />
      <path d="M -0.4111547116,-3.482216251 L -0.4385446529,-3.4949591658" />
      <path d="M -0.4754516832,-3.5143499381 L -0.4850475691,-3.5198661487" />
      <path d="M -0.5133762663,-3.537479271 C -0.624419292,-3.6103590034 -0.6862128367,-3.7058194244 -0.6857581339,-3.8016760491" />
      <path d="M -0.6857581339,-3.8016760491 C -0.6866071024,-3.9143138331 -0.6003466541,-4.0260736804 -0.4514435489,-4.101925363 C -0.3037410549,-4.1784890613 -0.0954898191,-4.2179030601 0.1142419018,-4.2056575684 C 0.3239736223,-4.194419015 0.5322248731,-4.1315207765 0.6799273297,-4.0314727834 C 0.8288303968,-3.9321367891 0.9150907812,-3.7968930345 0.9142418221,-3.6607711074" />
      <path d="M 0.9142418221,-3.6607711074 Q 0.9141988436,-3.5983134558 0.8914049384,-3.5374793116" />
      <path d="M -0.6519986994,-3.396574309 Q -0.6856638534,-3.4567587491 -0.6857580907,-3.5198661154" />
      <path d="M -0.6857580907,-3.5198661154 C -0.6912616874,-3.7065467396 -0.4427530789,-3.8831733488 -0.1075370046,-3.9178513412 C 0.2246271498,-3.9588011211 0.6109213172,-3.8522278602 0.7912771534,-3.6568975599 C 0.8723964641,-3.5711191357 0.9133846884,-3.4784737082 0.9142418264,-3.3789612775" />
      <path d="M 0.9142418264,-3.3789612775 Q 0.9141988447,-3.3165035254 0.8914048953,-3.2556693809" />
      <path d="M -0.6519987507,-3.1147644344 Q -0.6856638992,-3.1749488634 -0.6857581365,-3.238056209" />
      <path d="M -0.6857581365,-3.238056209 C -0.6862543541,-3.3360905834 -0.6215324553,-3.4336822088 -0.5057919797,-3.5071764918 C -0.390820689,-3.5810427286 -0.2257739245,-3.6301255934 -0.0468627544,-3.6414124605 C 0.1850159539,-3.65724693 0.4369351189,-3.6073298245 0.6197695091,-3.5046310523 C 0.8043161605,-3.4031776995 0.9155966682,-3.250964504 0.9142418902,-3.0971512051" />
      <path d="M 0.9142418902,-3.0971512051 Q 0.9141678161,-3.0254783709 0.8842946437,-2.9562462341" />
      <path d="M -0.4111495794,-2.6367842832 L -0.4385447637,-2.6495295067" />
      <path d="M -0.4754505805,-2.6689195876 C -0.6098139956,-2.7441456977 -0.6864393145,-2.8498647362 -0.6857582235,-2.9562461828" />
      <path d="M -0.6857582235,-2.9562461828 C -0.6857530134,-2.978673622 -0.6825034956,-3.0009504248 -0.6760096699,-3.0230765912 C -0.6456877746,-3.1287057178 -0.5382437792,-3.2264386563 -0.3814137358,-3.2881664105 C -0.2254470045,-3.3505427631 -0.021899183,-3.376069044 0.1766870962,-3.3552758065 C 0.3753821198,-3.3353063551 0.5668223689,-3.2691237262 0.7015902967,-3.1709317637 C 0.8373811997,-3.0733008257 0.9149385244,-2.9446620016 0.9142418714,-2.8153412214" />
      <path d="M 0.9142418714,-2.8153412214 Q 0.9141678021,-2.7436684543 0.8842946679,-2.6744363453" />
      <path d="M -0.4111543527,-2.3549764214 L -0.4385448609,-2.3677195831" />
      <path d="M -0.4754516718,-2.3871102428 C -0.6098146989,-2.462336587 -0.6864392781,-2.5680552373 -0.6857581487,-2.6744363881" />
      <path d="M -0.6857581487,-2.6744363881 C -0.6866071068,-2.7870740804 -0.6003466739,-2.898833962 -0.4514436129,-2.9746857204 C -0.3037411609,-3.0512494914 -0.0954899164,-3.0906634294 0.1142418279,-3.0784179129 C 0.3239735727,-3.0671793302 0.5322248062,-3.0042812163 0.679927266,-2.9042332359 C 0.8288303339,-2.8048972596 0.9150907938,-2.669653322 0.9142418346,-2.5335314972" />
      <path d="M 0.9142418346,-2.5335314972 Q 0.9141677629,-2.4618587304 0.8842946507,-2.3926265681" />
      <path d="M -0.6413184365,-2.2517215077 Q -0.6855943065,-2.3199631085 -0.6857581369,-2.3926263628" />
      <path d="M -0.6857581369,-2.3926263628 C -0.6863042833,-2.493110885 -0.6182004132,-2.5930954104 -0.4970924614,-2.6672018066 C -0.3768192405,-2.7417260454 -0.2046294402,-2.7896079014 -0.0200817851,-2.7974392194 C 0.1642824793,-2.8059091354 0.359341935,-2.7741606709 0.5202844281,-2.7070797046 C 0.6817813835,-2.6405568868 0.8077085432,-2.5392090788 0.8691348157,-2.4239120725 C 0.8990936317,-2.3680227093 0.9141293228,-2.3106259476 0.9142418892,-2.2517217874" />
      <path d="M 0.9142418892,-2.2517217874 Q 0.9132119582,-2.1108929369 0.8039673377,-1.9875247821" />
      <path d="M -0.4111549161,-1.7913569632 L -0.4385446721,-1.8040997811" />
      <path d="M -0.475451215,-1.8234902568 L -0.4850475756,-1.8290067291" />
      <path d="M -0.5133762779,-1.8466198368 C -0.6244192421,-1.9194994455 -0.6862128982,-2.0149599126 -0.6857581735,-2.110816498" />
      <path d="M -0.6857581735,-2.110816498 C -0.6866531984,-2.2250152741 -0.5978923111,-2.3382744441 -0.4452922426,-2.4141895191 C -0.2939442032,-2.4908633585 -0.0810209917,-2.5288791729 0.1315461993,-2.513716903 C 0.3383431447,-2.4999605815 0.5419286069,-2.4360594306 0.6860126695,-2.3364801154 C 0.8312468373,-2.2375682903 0.9150464157,-2.104149848 0.914241845,-1.9699115268" />
      <path d="M 0.914241845,-1.9699115268 Q 0.9141988659,-1.9074538114 0.8914048905,-1.8466196655" />
      <path d="M -0.6519986887,-1.7057148745 Q -0.6856639385,-1.7658993991 -0.6857581929,-1.8290069071" />
      <path d="M -0.6857581929,-1.8290069071 C -0.6855760797,-1.8842336757 -0.6664868496,-1.9373000609 -0.6284905026,-1.9882060626 C -0.5605238528,-2.0794272389 -0.4311446688,-2.1555750168 -0.2692245109,-2.1973542141 C -0.1077972059,-2.2396685065 0.0848010548,-2.2471704988 0.2655927139,-2.2158834687 C 0.4465788622,-2.185195135 0.6142252052,-2.1158928726 0.7311215138,-2.0211386314 C 0.848810603,-1.9267726031 0.914755841,-1.8076685296 0.9142418053,-1.688101577" />
      <path d="M 0.9142418053,-1.688101577 Q 0.9141677385,-1.6164288189 0.8842946594,-1.5471967281" />
      <path d="M -0.4111541834,-1.2277367757 L -0.4385449625,-1.240480063" />
      <path d="M -0.4754517025,-1.2598706536 C -0.6098146941,-1.3350967284 -0.6864392765,-1.4408157012 -0.6857581516,-1.5471968384" />
      <path d="M -0.6857581516,-1.5471968384 C -0.6866071119,-1.6598345115 -0.6003466542,-1.7715942523 -0.4514435827,-1.8474460784 C -0.3037411195,-1.9240099065 -0.0954898872,-1.9634238773 0.1142418534,-1.9511782885 C 0.3239735934,-1.9399396341 0.5322248391,-1.8770415302 0.6799272941,-1.7769936149 C 0.8288303587,-1.6776577137 0.9150907853,-1.542413666 0.9142418262,-1.4062917983" />
      <path d="M 0.9142418262,-1.4062917983 C 0.9148024532,-1.2840252064 0.8457448013,-1.1622755771 0.7231340829,-1.0669114641" />
      <path d="M 0.7093919019,-1.0564270702 Q 0.6639369941,-1.0226229667 0.6106085098,-0.9937897651" />
      <path d="M -0.4111547889,-0.9459271513 L -0.4385409963,-0.9586682333" />
      <path d="M -0.4754514249,-0.978060638 C -0.6098145231,-1.0532868389 -0.686439346,-1.1590055446 -0.6857582003,-1.2653867884" />
      <path d="M -0.6857582003,-1.2653867884 C -0.6864948469,-1.3739503132 -0.6065791995,-1.481781482 -0.467197501,-1.557292788 C -0.328886617,-1.633404227 -0.1328058256,-1.6761311846 0.0690627687,-1.6711455381 C 0.2708481735,-1.6670322377 0.475955139,-1.6151237507 0.6300089002,-1.5261803328 C 0.785012565,-1.4379048227 0.8870753912,-1.3135384978 0.9091389921,-1.1830510758 C 0.9125394944,-1.1635849333 0.9142404595,-1.1440617859 0.9142418875,-1.1244816336" />
      <path d="M 0.9142418875,-1.1244816336 C 0.9148025202,-1.0022151737 0.8457445006,-0.8804653964 0.7231340707,-0.7851015857" />
      <path d="M 0.7093918957,-0.7746172016 Q 0.6697402101,-0.7451240008 0.6240200301,-0.7193802048" />
      <path d="M -0.6413184644,-0.8426720852 Q -0.6855943689,-0.9109136709 -0.6857582141,-0.9835769412" />
      <path d="M -0.6857582141,-0.9835769412 C -0.6872438583,-1.1140119904 -0.5701582835,-1.2426448784 -0.3777559181,-1.3169384172 C -0.187180962,-1.3926214314 0.0739193545,-1.4117488522 0.3090874403,-1.3622368101 C 0.4806320573,-1.3270544902 0.6367030074,-1.2568779466 0.7450653684,-1.1641563269 C 0.8541180306,-1.0717540298 0.9146795288,-0.9574017685 0.9142418153,-0.8426720143" />
      <path d="M 0.9142418153,-0.8426720143 Q 0.9141677459,-0.7709992001 0.8842946453,-0.7017670413" />
      <path d="M -0.6413184142,-0.5608621311 Q -0.6855943031,-0.6291037481 -0.6857581419,-0.7017671061" />
      <path d="M -0.6857581419,-0.7017671061 C -0.6846075515,-0.7912272159 -0.637264049,-0.8721370037 -0.5437276343,-0.9444964694 C -0.3538625926,-1.0937381762 0.0283649177,-1.1528237566 0.3525948861,-1.0706326359 C 0.6799095658,-0.9943017146 0.9194177338,-0.7822117399 0.9142417702,-0.5608621303" />
      <path d="M 0.9142417702,-0.5608621303 Q 0.9141987907,-0.4984044649 0.8914048884,-0.4375703492" />
      <path d="M -0.6519987504,-0.2966653124 Q -0.6856639074,-0.3568497824 -0.6857581418,-0.4199571575" />
      <path d="M -0.6857581418,-0.4199571575 C -0.6866070973,-0.5325949586 -0.600346741,-0.6443545348 -0.4514436835,-0.7202063647 C -0.3037412363,-0.7967701948 -0.0954899747,-0.8361843053 0.1142417442,-0.8239387053 C 0.3239734638,-0.8127000445 0.5322246932,-0.749801871 0.6799272006,-0.6497540232 C 0.828830319,-0.5504181906 0.9150907864,-0.4151742056 0.9142418153,-0.279052247" />
      <path d="M 0.9142418153,-0.279052247 C 0.9148024233,-0.1567855356 0.8457448348,-0.0350359496 0.72313414,0.0603280786" />
      <path d="M 0.7093903346,0.0708136776 Q 0.6639360118,0.1046171388 0.6106083446,0.1334499122" />
      <path d="M -0.6413184353,0.0027576455 Q -0.6855943672,-0.0654840158 -0.6857582142,-0.13814732" />
      <path d="M -0.6857582142,-0.13814732 C -0.686607173,-0.2507850747 -0.600346567,-0.3625447152 -0.4514436062,-0.4383964647 C -0.3037412486,-0.5149602231 -0.095490217,-0.5543743657 0.1142415684,-0.5421288232 C 0.3239733607,-0.5308902118 0.5322246052,-0.4679920228 0.6799269663,-0.367944246 C 0.8288298881,-0.2686085163 0.9150908354,-0.1333644519 0.9142418867,0.0027573682" />
      <path d="M 0.9142418867,0.0027573682 Q 0.9141677959,0.0744303819 0.8842946797,0.1436627246" />
      <path d="M -0.6413183901,0.2845675487 Q -0.68559435,0.2163258708 -0.6857582007,0.1436625271" />
      <path d="M -0.6857582007,0.1436625271 C -0.6880702765,-0.0031134614 -0.5381469014,-0.1466915746 -0.3040323623,-0.2149827251 C -0.0723356664,-0.2856114327 0.2343602486,-0.2776095041 0.4768583093,-0.1876830167 C 0.7411734317,-0.093563486 0.9173081688,0.0931890011 0.914241826,0.284567536" />
      <path d="M 0.914241826,0.284567536 Q 0.9141677543,0.3562403128 0.8842946593,0.4254724664" />
      <path d="M -0.4111415513,0.7449381803 L -0.4385447862,0.7321893867" />
      <path d="M -0.4754515015,0.712798784 L -0.485047575,0.7072824668" />
      <path d="M -0.5133762773,0.6896693363 C -0.6244192618,0.616789588 -0.686212866,0.5213290928 -0.6857581515,0.4254725766" />
      <path d="M -0.6857581515,0.4254725766 C -0.6868062894,0.3064703716 -0.5901069762,0.1886180165 -0.4259714291,0.1127454162 C -0.1996360957,0.0041791682 0.1541476288,-0.0131057015 0.4365996652,0.0803134962 C 0.7220210784,0.1697335274 0.9179260148,0.3651094175 0.9142418049,0.5663773155" />
      <path d="M 0.9142418049,0.5663773155 Q 0.9141677295,0.6380501397 0.8842946408,0.707282303" />
      <path d="M -0.6413184576,0.8481873664 Q -0.6855943567,0.779945913 -0.6857581923,0.7072826447" />
      <path d="M -0.6857581923,0.7072826447 C -0.6866070993,0.5946447281 -0.6003467726,0.4828850776 -0.4514438183,0.4070333319 C -0.3037414568,0.3304695598 -0.0954901291,0.2910553441 0.1142416164,0.3033008835 C 0.3239733642,0.3145394826 0.5322245292,0.3774377298 0.6799270694,0.4774855737 C 0.8288302168,0.5768214065 0.9150908222,0.712065273 0.9142418447,0.8481872649" />
      <path d="M 0.9142418447,0.8481872649 Q 0.9141677672,0.9198601521 0.8842946241,0.9890923466" />
      <path d="M -0.4111547614,1.3085521116 L -0.4385447357,1.295809193" />
      <path d="M -0.4754517584,1.2764184365 Q -0.5867325289,1.2132494138 -0.6413184365,1.1299972453" />
      <path d="M -0.6519987209,1.1123841198 Q -0.6856639261,1.0521996486 -0.6857581738,0.9890922356" />
      <path d="M -0.6857581738,0.9890922356 C -0.6866071502,0.8764544093 -0.6003465235,0.7646947225 -0.4514433899,0.6888430401 C -0.3037408624,0.6122793474 -0.0954897197,0.5728652474 0.1142420373,0.5851108165 C 0.3239737924,0.5963494462 0.5322251254,0.6592478162 0.6799274714,0.7592957253 C 0.8288304018,0.8586316002 0.915090784,0.9938754579 0.9142418897,1.129997524" />
      <path d="M 0.9142418897,1.129997524 Q 0.9141989111,1.1924551948 0.8914049112,1.2532892179" />
      <path d="M -0.4111540952,1.5903623661 L -0.4385437113,1.5776196491" />
      <path d="M -0.4754517864,1.558228364 C -0.6098147264,1.4830020924 -0.6864392359,1.3772833746 -0.6857581374,1.2709021002" />
      <path d="M -0.6857581374,1.2709021002 C -0.6891749747,1.1076399456 -0.5016707667,0.949712245 -0.2250488475,0.8920588485 C 0.0486745589,0.8307354822 0.3952248241,0.8742110874 0.6264460744,1.0080766302 C 0.8070941338,1.1094680385 0.9155344094,1.2598848615 0.9142418347,1.4118072343" />
      <path d="M 0.9142418347,1.4118072343 C 0.9148024588,1.5340738065 0.8457447827,1.6558235159 0.723134115,1.7511875631" />
      <path d="M 0.7093918014,1.7616720546 Q 0.6639368806,1.7954761462 0.6106083612,1.8243093677" />
      <path d="M -0.4111538932,1.8721723685 L -0.4385448499,1.8594290092" />
      <path d="M -0.4754504546,1.8400390386 C -0.6098142135,1.7648127471 -0.6864392774,1.6590936468 -0.6857581489,1.5527121261" />
      <path d="M -0.6857581489,1.5527121261 C -0.6883668056,1.4010669864 -0.5278096144,1.2531647942 -0.2811266749,1.1875342562 C -0.0393465445,1.1199103094 0.2761873553,1.1364530702 0.5165507663,1.2367201486 C 0.7594456349,1.3344071391 0.916758642,1.5122259979 0.914241871,1.6936169582" />
      <path d="M 0.914241871,1.6936169582 Q 0.9128751997,1.8453012998 0.7875440243,1.9754270026" />
      <path d="M -0.4111553795,2.1539815658 L -0.4385447447,2.1412389116" />
      <path d="M -0.4754514724,2.1218483164 L -0.4850476228,2.1163319591" />
      <path d="M -0.5133763285,2.0987188386 Q -0.5968544633,2.0434209858 -0.6413184758,1.9754270515" />
      <path d="M -0.6519987506,1.9578139329 Q -0.6856639177,1.8976293855 -0.6857582239,1.8345219247" />
      <path d="M -0.6857582239,1.8345219247 C -0.6866071293,1.7218841979 -0.6003463001,1.6101243157 -0.4514433969,1.5342727262 C -0.3037410503,1.4577090851 -0.0954897716,1.4182950044 0.114242011,1.4305405396 C 0.3239737893,1.441779142 0.532224831,1.5046774356 0.6799272284,1.6047253334 C 0.828830229,1.7040612225 0.9150908536,1.8393050172 0.9142418899,1.9754269418" />
      <path d="M 0.9142418899,1.9754269418 Q 0.9141678133,2.0470997949 0.8842946404,2.1163319859" />
      <path d="M -0.4366160015,2.4239891937 L -0.4385446215,2.4230488743" />
      <path d="M -0.4754516573,2.4036581094 L -0.4850475692,2.3981418863" />
      <path d="M -0.5133762664,2.3805287704 C -0.6244192745,2.3076490771 -0.6862128352,2.212188609 -0.6857581367,2.1163319459" />
      <path d="M -0.6857581367,2.1163319459 C -0.6866071103,2.0036941323 -0.6003466173,1.8919343316 -0.4514434853,1.8160826648 C -0.3037409639,1.7395189835 -0.0954897432,1.7001049524 0.1142419777,1.7123504614 C 0.3239736971,1.7235890302 0.5322249727,1.7864873324 0.679927406,1.8865353153 C 0.8288304488,1.985871295 0.9150907762,2.1211150208 0.9142418266,2.257237017" />
      <path d="M 0.9142418266,2.257237017 Q 0.9132327154,2.3973188683 0.8050634212,2.5202025792" />
      <path d="M -0.6519986877,2.521433702 Q -0.6856638511,2.4612492391 -0.6857580908,2.3981418519" />
      <path d="M -0.6857580908,2.3981418519 C -0.6905966932,2.2181998107 -0.4605450281,2.0467194096 -0.1417987197,2.0045035757 C 0.1738499759,1.9568507574 0.5511585167,2.0438787877 0.7503497805,2.2221109338 C 0.8561146928,2.3136910892 0.9146522835,2.4261951631 0.9142418222,2.5390468463" />
      <path d="M 0.9142418222,2.5390468463 L 0.9119405946,2.5784090693" />
      <path d="M -0.6555771509,2.5632254423 C -0.5846410017,2.4247206605 -0.374043368,2.3126805008 -0.1164564923,2.2830048351" />
      <path d="M 0.718784922,2.4732143548 Q 0.7247952025,2.4448404847 0.7247988976,2.4162176747" />
      <path d="M 0.339349161,2.0261230504 C 0.1525154847,1.9664140429 -0.0710542911,1.9671105982 -0.2354314999,2.0215912838" />
      <path d="M 0.3393491587,1.7443130936 C 0.15240444,1.684602417 -0.0709110901,1.68529182 -0.235429142,1.7397808768" />
      <path d="M -0.4320814961,2.1344076954 Q -0.3688955446,2.1987881864 -0.2575620877,2.2396238516" />
      <path d="M 0.5456218985,1.5610948122 C 0.3460786878,1.4174571599 -0.0028869861,1.3784765485 -0.2353950579,1.4579632489" />
      <path d="M -0.432080457,1.8525966387 Q -0.3689162621,1.9169643547 -0.257562742,1.9578140307" />
      <path d="M -0.1186535372,1.9935025571 L -0.0876473627,1.9980738743" />
      <path d="M 0.1667196397,1.9981264677 L 0.1994519272,1.9935026137" />
      <path d="M 0.6106018088,1.8095050489 Q 0.6586108982,1.7636647381 0.6872049491,1.7116841303" />
      <path d="M 0.717865697,1.6319650039 Q 0.7247936503,1.6015321986 0.724798893,1.570787746" />
      <path d="M 0.5456218985,1.2792847237 C 0.3746384617,1.1575333941 0.094326788,1.1081358737 -0.1289579055,1.1498383091 C -0.3482604264,1.1871139253 -0.4991957583,1.3062220053 -0.4963151065,1.4298828542" />
      <path d="M -0.4320807739,1.570788132 Q -0.3689168927,1.6351523721 -0.2575626796,1.6760040077" />
      <path d="M -0.1186526656,1.7116927345 L -0.0876472539,1.7162639805" />
      <path d="M 0.6026788464,1.5350991147 Q 0.6562605147,1.4861409566 0.6872098304,1.4298827321" />
      <path d="M 0.7178656932,1.350155053 Q 0.7247937773,1.3197203613 0.7247987831,1.2889780868" />
      <path d="M 0.1667207684,1.4345067213 L 0.199453561,1.4298827877" />
      <path d="M 0.7247939801,1.0071545463 C 0.7254424185,0.900371498 0.659488635,0.7943254258 0.5456218985,0.7156650851" />
      <path d="M 0.3393512757,0.61707398 C 0.1522972685,0.5573405912 -0.0709497316,0.5580706813 -0.2354290045,0.6125412054" />
      <path d="M -0.1186521877,1.1480726289 Q 0.0350931933,1.1732608984 0.1994521385,1.1480728303" />
      <path d="M 0.7247987766,0.7253577764 C 0.7254546967,0.6185826587 0.6594634122,0.512465084 0.5456218985,0.4338552441" />
      <path d="M 0.3393486619,0.3352634867 C 0.1524668019,0.2755615171 -0.0709191545,0.2762364253 -0.235430899,0.3307317009" />
      <path d="M 0.7247987835,0.4435481736 C 0.7254483064,0.3367610327 0.6594709323,0.2306651377 0.5456218985,0.152045072" />
      <path d="M 0.3393382087,0.05345115 C 0.1525335886,-0.006243875 -0.0710507794,-0.0055667885 -0.2354305631,0.0489216792" />
      <path d="M 0.6026739478,0.4078604371 Q 0.656238688,0.3589135233 0.6872086394,0.3026408948" />
      <path d="M 0.704090292,0.2669534622 Q 0.7247419417,0.2151283092 0.7247825509,0.161698621" />
      <path d="M 0.7247825509,0.161698621 C 0.725439236,0.0549425595 0.6595052233,-0.0510792263 0.5456218985,-0.1297650199" />
      <path d="M 0.3393502406,-0.2283560182 C 0.1525033424,-0.2880642006 -0.0710026068,-0.2873721539 -0.2354290252,-0.2328885358" />
      <path d="M -0.1186529374,0.3026430505 L -0.0876469524,0.307214362" />
      <path d="M 0.1667199191,0.3072670183 L 0.1994526844,0.3026430787" />
      <path d="M 0.6026791979,0.1260496529 Q 0.6562621647,0.0770892936 0.687208981,0.0208344938" />
      <path d="M 0.7231341774,-0.090038962 L 0.7247988351,-0.1200717946" />
      <path d="M 0.1667174401,0.0254569064 L 0.1994481148,0.0208339029" />
      <path d="M -0.1186512516,-0.260976427 L -0.0876476458,-0.2564053469" />
      <path d="M 0.1667212898,-0.2563526528 L 0.1994545347,-0.2609768027" />
      <path d="M 0.7247987837,-0.6836915142 C 0.7254675019,-0.7904371911 0.65945677,-0.8965976634 0.5456218985,-0.9751944253" />
      <path d="M 0.3393511901,-1.0737854482 C 0.1525363402,-1.1334763454 -0.0709339501,-1.1328133964 -0.2353333457,-1.0783398641" />
      <path d="M 0.6106083433,-0.7267805786 Q 0.6586341391,-0.772623692 0.6872098325,-0.8245965236" />
      <path d="M 0.704090782,-0.8602852844 Q 0.724753503,-0.912096027 0.7247987832,-0.9655016198" />
      <path d="M 0.3393352353,-1.355599087 C 0.1525488787,-1.4152917185 -0.071012,-1.4146204397 -0.2354262853,-1.3601287704" />
      <path d="M -0.0876473694,-0.8200252369 Q 0.0361636162,-0.8039926231 0.1667199339,-0.8199725693" />
      <path d="M 0.3489214268,-0.8602835611 Q 0.4694255374,-0.8996997561 0.5591460858,-0.9655013169" />
      <path d="M 0.6026793753,-1.0011900732 Q 0.6562484052,-1.0501328852 0.687209758,-1.106406407" />
      <path d="M 0.7178655998,-1.1861341909 Q 0.7247938061,-1.2165693784 0.7247987841,-1.2473114959" />
      <path d="M 0.5456218985,-1.5388139905 C 0.3459945508,-1.6824512582 -0.0027411101,-1.7214287614 -0.2354253951,-1.6419389275" />
      <path d="M -0.4963147353,-1.3882167951 Q -0.4961843157,-1.3338563252 -0.4615591757,-1.2830001009" />
      <path d="M -0.1186531683,-1.106406239 Q 0.0350411024,-1.0812178739 0.199452125,-1.1064065671" />
      <path d="M 0.3489262838,-1.1420949992 Q 0.4693917983,-1.1814914516 0.559145645,-1.247311481" />
      <path d="M 0.6026789971,-1.283000078 Q 0.6562706044,-1.3319701144 0.6872100153,-1.3882163021" />
      <path d="M 0.7178657041,-1.46794401 Q 0.7247936172,-1.4983774422 0.7247987873,-1.5291212188" />
      <path d="M 0.5456218985,-1.8206240467 C 0.3459902424,-1.9642787384 -0.0029281149,-2.0032481974 -0.2354288319,-1.9237480608" />
      <path d="M -0.1185928952,-1.3882260053 L -0.0876045267,-1.3836491541" />
      <path d="M 0.1667231101,-1.3835921359 L 0.1994552347,-1.3882161631" />
      <path d="M -0.4963135384,-1.9518281504 Q -0.4962676025,-1.9099760971 -0.4754501117,-1.8697500686" />
      <path d="M -0.1186512081,-1.6700262259 L -0.0876462883,-1.6654550473" />
      <path d="M 0.166721143,-1.6654021737 L 0.1994558811,-1.6700264878" />
      <path d="M 0.7247987856,-2.0927412673 C 0.7254964931,-2.1994370802 0.6594176053,-2.3056974435 0.5456218985,-2.3842436214" />
      <path d="M 0.5456218985,-2.3842436214 C 0.4323185174,-2.4636656593 0.272499882,-2.5144471836 0.1117149568,-2.525462296 C -0.0342064024,-2.5360880563 -0.1792807442,-2.5141870996 -0.2886067665,-2.4675963577 C -0.3985487141,-2.4214209409 -0.4718409927,-2.3510516725 -0.4908553873,-2.2759580131 C -0.4944924413,-2.2619314688 -0.4963124117,-2.2478275101 -0.4963152984,-2.2336461371" />
      <path d="M -0.4320814882,-2.0927411197 Q -0.3689001695,-2.0283640524 -0.2575624828,-1.9875248608" />
      <path d="M -0.0876475733,-1.9472648172 Q 0.0525424192,-1.929161665 0.1994531621,-1.9518361324" />
      <path d="M 0.610608485,-2.1358300916 Q 0.65864612,-2.18168797 0.6872099527,-2.2336459282" />
      <path d="M 0.7040908407,-2.2693344516 Q 0.7247525638,-2.321137827 0.7247983525,-2.3745506035" />
      <path d="M 0.7247983525,-2.3745506035 C 0.7254429343,-2.4813450233 0.6594805521,-2.5874228619 0.5456218985,-2.666053984" />
      <path d="M 0.5456218985,-2.666053984 C 0.4129026802,-2.7595170175 0.2151259191,-2.8124658427 0.0284803125,-2.8098210109 C -0.1585243615,-2.8086744113 -0.3301495971,-2.7523651668 -0.4202926355,-2.6678101774 C -0.4705457997,-2.6208353737 -0.4958866225,-2.5700506154 -0.496315104,-2.5154559024" />
      <path d="M -0.4320813833,-2.3745509777 Q -0.3688944059,-2.3101724532 -0.2575624811,-2.2693348917" />
      <path d="M 0.3489250671,-2.2693345196 Q 0.4694342512,-2.3087535219 0.5591455785,-2.3745509013" />
      <path d="M 0.6026787912,-2.4102396312 Q 0.6562465848,-2.4591805522 0.6872096768,-2.515455626" />
      <path d="M 0.7178657213,-2.5951836807 Q 0.7247938011,-2.6256186064 0.7247987829,-2.6563606091" />
      <path d="M 0.7247987829,-2.6563606091 C 0.7254615459,-2.7631100311 0.6594722356,-2.8692520045 0.5456218985,-2.9478638589" />
      <path d="M 0.5456218985,-2.9478638589 C 0.3460586986,-3.0915088818 -0.002927709,-3.1304842097 -0.2354284158,-3.0509877493" />
      <path d="M -0.4320814439,-2.6563607753 Q -0.3689496948,-2.5920356021 -0.2575465817,-2.5511503665" />
      <path d="M -0.1186525855,-2.5154561006 Q 0.0350712777,-2.4902693389 0.1994506031,-2.5154553329" />
      <path d="M 0.3489276053,-2.5511446138 Q 0.4693964103,-2.5905442898 0.5591457975,-2.6563610662" />
      <path d="M 0.6026788719,-2.6920496137 Q 0.656265109,-2.7410135274 0.687209906,-2.7972658992" />
      <path d="M 0.7178656873,-2.8769935899 Q 0.7247937045,-2.9074277676 0.7247987832,-2.9381706708" />
      <path d="M 0.7247987832,-2.9381706708 C 0.7254497925,-3.0449527788 0.6594718506,-3.1510542042 0.5456218985,-3.2296735797" />
      <path d="M 0.3393488601,-3.3282652885 C 0.1524368425,-3.3879738308 -0.0709261746,-3.3872867099 -0.2354260425,-3.3327981841" />
      <path d="M -0.1186522947,-2.7972660366 Q 0.0188289738,-2.7746709947 0.1667205678,-2.7926418567" />
      <path d="M 0.3489270597,-2.832954466 Q 0.4694041004,-2.8723587673 0.5591460028,-2.9381708564" />
      <path d="M 0.6026789601,-2.9738592808 Q 0.6562629871,-3.0228193518 0.6872099033,-3.0790756493" />
      <path d="M 0.717865647,-3.1588034925 Q 0.7247937839,-3.189238615 0.724798802,-3.2199807432" />
      <path d="M -0.1186523608,-3.0790757187 Q 0.0351160838,-3.0538871966 0.1994532405,-3.0790756798" />
      <path d="M 0.3489266606,-3.1147644304 Q 0.4693879218,-3.1541605533 0.5591457165,-3.2199807698" />
      <path d="M 0.3393473723,-3.8918854078 C 0.1524780816,-3.9515880253 -0.0709442788,-3.950909458 -0.2354308398,-3.8964169117" />
      <path d="M -0.4963151037,-3.6426955505 Q -0.4962683036,-3.6008409119 -0.4754516569,-3.5606086103" />
      <path d="M -0.0876463435,-3.3563144451 Q 0.0525401695,-3.338212286 0.1994548511,-3.3608855971" />
      <path d="M 0.3393482213,-4.173695165 C 0.0874352858,-4.2557473767 -0.2266790449,-4.2208762949 -0.3819582202,-4.1075876499 C -0.4572090013,-4.0536469486 -0.4953279634,-3.9926196045 -0.4963151065,-3.9245056175" />
      <path d="M -0.4963151065,-3.9245056175 Q -0.4961825586,-3.8701344839 -0.4615489741,-3.81927404" />
      <path d="M 0.3393477503,-4.455505186 C 0.1432732519,-4.5183086053 -0.0929500762,-4.5140030506 -0.2592680403,-4.4518152097 C -0.4072791902,-4.3984335454 -0.4974489949,-4.3031005106 -0.4963150815,-4.2063139735" />
      <path d="M -0.4963150815,-4.2063139735 Q -0.4961849597,-4.1519565922 -0.4615569492,-4.1010983744" />
      <path d="M -0.432080886,-4.065411035 Q -0.3688801948,-4.0010435446 -0.2575568421,-3.9601962733" />
      <path d="M -0.087608047,-3.9199379664 Q 0.0360778961,-3.9039376269 0.1667147658,-3.9198820403" />
      <path d="M 0.3393474019,-4.7373151301 C 0.1073834092,-4.8123666858 -0.1787845406,-4.7901955417 -0.3426148338,-4.6958012852 C -0.4409748937,-4.6412901115 -0.4968155082,-4.5648803626 -0.4963152563,-4.4881252859" />
      <path d="M -0.4320810718,-4.3472204876 Q -0.3688795972,-4.2828327176 -0.2575628884,-4.2420040533" />
      <path d="M -0.1186526283,-4.2063153243 L -0.0876470819,-4.2017440689" />
      <path d="M 0.6794701135,-4.9124359202 C 0.8286483452,-4.8130700303 0.9150941779,-4.6776895941 0.9142418297,-4.5414270213" />
      <path d="M 0.9137815404,-4.5238139029 Q 0.9099401343,-4.4518210229 0.8761657142,-4.3829090422" />
      <path d="M -0.0876469429,-4.0004540854 Q -0.1642306376,-4.00788793 -0.2354287606,-4.0239708878" />
      <path d="M -0.6850854013,-4.3829090387 L -0.6857581413,-4.4005221588" />
      <path d="M -0.6857581413,-4.4005221588 C -0.6892976247,-4.5653828086 -0.4979117976,-4.724655545 -0.2171932511,-4.7810315415 C 0.0252511514,-4.8329339291 0.3235019078,-4.8051838557 0.547168949,-4.7033841272 C 0.7731440022,-4.6037111622 0.9163742474,-4.4331032782 0.9142418894,-4.259617258" />
      <path d="M 0.9142418894,-4.259617258 Q 0.9141218396,-4.178606495 0.8761656879,-4.1010991278" />
      <path d="M -0.0876460027,-3.7186440672 Q -0.1642288921,-3.7260777805 -0.2354263226,-3.7421604258" />
      <path d="M -0.6850854444,-4.1010993456 L -0.6857581833,-4.1187124857" />
      <path d="M -0.6857581833,-4.1187124857 C -0.6866072011,-4.2313501126 -0.6003461978,-4.3431100407 -0.4514432498,-4.4189616298 C -0.3037408777,-4.4955252557 -0.0954896688,-4.5349392622 0.114242142,-4.5226937206 C 0.3239739433,-4.5114551087 0.5322249898,-4.448556816 0.6799273236,-4.3485088898 C 0.8288302614,-4.2491729729 0.915090852,-4.113929169 0.9142418978,-3.9778072683" />
      <path d="M 0.9142418978,-3.9778072683 Q 0.914121852,-3.8967965323 0.8761657019,-3.8192891663" />
      <path d="M -0.0876465977,-3.4368341946 Q -0.1642355647,-3.4442685434 -0.2354381158,-3.4603531285" />
      <path d="M -0.4850475691,-3.555092387 C -0.6135503241,-3.6298905551 -0.6863775001,-3.733102853 -0.6857581339,-3.8369022875" />
      <path d="M -0.6857581339,-3.8369022875 C -0.6866071024,-3.9495400715 -0.6003466541,-4.0612999187 -0.4514435489,-4.1371516013 C -0.3037410549,-4.2137152997 -0.0954898191,-4.2531292984 0.1142419018,-4.2408838067 C 0.3239736223,-4.2296452533 0.5322248731,-4.1667470148 0.6799273297,-4.0666990217 C 0.8288303968,-3.9673630274 0.9150907812,-3.8321192728 0.9142418221,-3.6959973457" />
      <path d="M 0.9142418221,-3.6959973457 Q 0.9141677537,-3.6243245749 0.8842946975,-3.5550924229" />
      <path d="M -0.0876472862,-3.1550243675 Q -0.1642322327,-3.1624583662 -0.2354314314,-3.1785417689" />
      <path d="M -0.6850853517,-3.5374792348 L -0.6857580907,-3.5550923538" />
      <path d="M -0.6857580907,-3.5550923538 C -0.6912616874,-3.7417729779 -0.4427530789,-3.9183995871 -0.1075370046,-3.9530775796 C 0.2246271498,-3.9940273595 0.6109213172,-3.8874540985 0.7912771534,-3.6921237982 C 0.8723964641,-3.606345374 0.9133846884,-3.5136999466 0.9142418264,-3.4141875158" />
      <path d="M 0.9137815381,-3.396574397 Q 0.9104585503,-3.3338756731 0.8842946406,-3.2732824867" />
      <path d="M 0.8761656921,-3.2556693584 Q 0.8256426911,-3.153638326 0.7178656309,-3.070725315" />
      <path d="M 0.6985461866,-3.0564052032 L 0.6506725222,-3.0247271749" />
      <path d="M 0.3393171867,-2.9012561668 Q 0.2546995302,-2.8816387233 0.1667208509,-2.8732671501" />
      <path d="M -0.6857581365,-3.2732824474 C -0.6862543541,-3.3713168217 -0.6215324553,-3.4689084472 -0.5057919797,-3.5424027302 C -0.390820689,-3.6162689669 -0.2257739245,-3.6653518318 -0.0468627544,-3.6766386988 C 0.1850159539,-3.6924731683 0.4369351189,-3.6425560629 0.6197695091,-3.5398572906 C 0.8043161605,-3.4384039379 0.9155966682,-3.2861907423 0.9142418902,-3.1323774435" />
      <path d="M 0.9142418902,-3.1323774435 L 0.9137816004,-3.1147643248" />
      <path d="M -0.6857582235,-2.9914724211 C -0.6857530134,-3.0138998603 -0.6825034956,-3.0361766631 -0.6760096699,-3.0583028295 C -0.6456877746,-3.1639319562 -0.5382437792,-3.2616648947 -0.3814137358,-3.3233926489 C -0.2254470045,-3.3857690014 -0.021899183,-3.4112952823 0.1766870962,-3.3905020449 C 0.3753821198,-3.3705325935 0.5668223689,-3.3043499646 0.7015902967,-3.2061580021 C 0.8373811997,-3.108527064 0.9149385244,-2.97988824 0.9142418714,-2.8505674597" />
      <path d="M 0.9142418714,-2.8505674597 C 0.9148343777,-2.7265463107 0.843712262,-2.6030797807 0.7178656929,-2.5071055535" />
      <path d="M 0.6985458856,-2.4927851809 L 0.6506720075,-2.4611070574" />
      <path d="M 0.3393458671,-2.337643052 Q 0.2547143767,-2.3180203319 0.1667202629,-2.3096473068" />
      <path d="M -0.6850854083,-2.6920495081 L -0.6857581487,-2.7096626264" />
      <path d="M -0.6857581487,-2.7096626264 C -0.6866071068,-2.8223003188 -0.6003466739,-2.9340602004 -0.4514436129,-3.0099119587 C -0.3037411609,-3.0864757298 -0.0954899164,-3.1258896677 0.1142418279,-3.1136441513 C 0.3239735727,-3.1024055686 0.5322248062,-3.0395074546 0.679927266,-2.9394594742 C 0.8288303339,-2.840123498 0.9150907938,-2.7048795604 0.9142418346,-2.5687577356" />
      <path d="M 0.9142418346,-2.5687577356 L 0.9137815451,-2.5511446161" />
      <path d="M -0.6850853971,-2.410239483 L -0.6857581369,-2.4278526011" />
      <path d="M -0.6857581369,-2.4278526011 C -0.6863042833,-2.5283371233 -0.6182004132,-2.6283216487 -0.4970924614,-2.702428045 C -0.3768192405,-2.7769522837 -0.2046294402,-2.8248341398 -0.0200817851,-2.8326654577 C 0.1642824793,-2.8411353738 0.359341935,-2.8093869092 0.5202844281,-2.7423059429 C 0.6817813835,-2.6757831251 0.8077085432,-2.5744353172 0.8691348157,-2.4591383108 C 0.8990936317,-2.4032489476 0.9141293228,-2.3458521859 0.9142418892,-2.2869480257" />
      <path d="M 0.9142418892,-2.2869480257 Q 0.9141218279,-2.2059371633 0.8761656778,-2.1284297309" />
      <path d="M -0.087647536,-1.7459748445 Q -0.1642310182,-1.7534087295 -0.235428943,-1.7694916923" />
      <path d="M -0.6850854335,-2.1284296181 L -0.6857581735,-2.1460427363" />
      <path d="M -0.6857581735,-2.1460427363 C -0.6866531984,-2.2602415124 -0.5978923111,-2.3735006824 -0.4452922426,-2.4494157574 C -0.2939442032,-2.5260895969 -0.0810209917,-2.5641054112 0.1315461993,-2.5489431414 C 0.3383431447,-2.5351868198 0.5419286069,-2.471285669 0.6860126695,-2.3717063538 C 0.8312468373,-2.2727945287 0.9150464157,-2.1393760863 0.914241845,-2.0051377652" />
      <path d="M 0.914241845,-2.0051377652 L 0.913781556,-1.9875246467" />
      <path d="M -0.685085453,-1.8466200227 L -0.6857581929,-1.8642331455" />
      <path d="M -0.6857581929,-1.8642331455 C -0.6855760797,-1.9194599141 -0.6664868496,-1.9725262992 -0.6284905026,-2.023432301 C -0.5605238528,-2.1146534773 -0.4311446688,-2.1908012551 -0.2692245109,-2.2325804525 C -0.1077972059,-2.2748947448 0.0848010548,-2.2823967371 0.2655927139,-2.251109707 C 0.4465788622,-2.2204213734 0.6142252052,-2.1511191109 0.7311215138,-2.0563648698 C 0.848810603,-1.9619988414 0.914755841,-1.8428947679 0.9142418053,-1.7233278153" />
      <path d="M -0.6857581516,-1.5824230768 C -0.6866071119,-1.6950607498 -0.6003466542,-1.8068204907 -0.4514435827,-1.8826723168 C -0.3037411195,-1.9592361449 -0.0954898872,-1.9986501156 0.1142418534,-1.9864045268 C 0.3239735934,-1.9751658724 0.5322248391,-1.9122677685 0.6799272941,-1.8122198532 C 0.8288303587,-1.712883952 0.9150907853,-1.5776399044 0.9142418262,-1.4415180367" />
      <path d="M 0.9142418262,-1.4415180367 L 0.9137815369,-1.4239049182" />
      <path d="M -0.6850854593,-1.2829999082 L -0.6857582003,-1.3006130267" />
      <path d="M -0.6857582003,-1.3006130267 C -0.6864948469,-1.4091765515 -0.6065791995,-1.5170077204 -0.467197501,-1.5925190264 C -0.328886617,-1.6686304654 -0.1328058256,-1.7113574229 0.0690627687,-1.7063717764 C 0.2708481735,-1.7022584761 0.475955139,-1.650349989 0.6300089002,-1.5614065712 C 0.785012565,-1.473131061 0.8870753912,-1.3487647362 0.9091389921,-1.2182773141 C 0.9125394944,-1.1988111717 0.9142404595,-1.1792880242 0.9142418875,-1.1597078719" />
      <path d="M 0.9142418875,-1.1597078719 L 0.9137815966,-1.1420947607" />
      <path d="M -0.685085473,-1.0011900609 L -0.6857582141,-1.0188031795" />
      <path d="M -0.6857582141,-1.0188031795 C -0.6872438583,-1.1492382287 -0.5701582835,-1.2778711167 -0.3777559181,-1.3521646556 C -0.187180962,-1.4278476697 0.0739193545,-1.4469750905 0.3090874403,-1.3974630484 C 0.4806320573,-1.3622807286 0.6367030074,-1.292104185 0.7450653684,-1.1993825652 C 0.8541180306,-1.1069802682 0.9146795288,-0.9926280068 0.9142418153,-0.8778982526" />
      <path d="M 0.9142418153,-0.8778982526 L 0.9137815266,-0.8602851333" />
      <path d="M -0.685085403,-0.7193802265 L -0.6857581419,-0.7369933444" />
      <path d="M -0.6857581419,-0.7369933444 C -0.6846075515,-0.8264534542 -0.637264049,-0.907363242 -0.5437276343,-0.9797227077 C -0.3538625926,-1.1289644145 0.0283649177,-1.1880499949 0.3525948861,-1.1058588742 C 0.6799095658,-1.0295279529 0.9194177338,-0.8174379783 0.9142417702,-0.5960883687" />
      <path d="M 0.9142417702,-0.5960883687 L 0.9137814818,-0.5784752495" />
      <path d="M -0.685085403,-0.4375702754 L -0.6857581418,-0.4551833958" />
      <path d="M -0.6857581418,-0.4551833958 C -0.6866070973,-0.567821197 -0.600346741,-0.6795807731 -0.4514436835,-0.755432603 C -0.3037412363,-0.8319964331 -0.0954899747,-0.8714105437 0.1142417442,-0.8591649436 C 0.3239734638,-0.8479262829 0.5322246932,-0.7850281093 0.6799272006,-0.6849802615 C 0.828830319,-0.5856444289 0.9150907864,-0.4504004439 0.9142418153,-0.3142784853" />
      <path d="M -0.6850854731,-0.1557604386 L -0.6857582142,-0.1733735584" />
      <path d="M -0.6857582142,-0.1733735584 C -0.686607173,-0.286011313 -0.600346567,-0.3977709536 -0.4514436062,-0.473622703 C -0.3037412486,-0.5501864614 -0.095490217,-0.589600604 0.1142415684,-0.5773550616 C 0.3239733607,-0.5661164501 0.5322246052,-0.5032182612 0.6799269663,-0.4031704843 C 0.8288298881,-0.3038347546 0.9150908354,-0.1685906902 0.9142418867,-0.0324688702" />
      <path d="M 0.9142418867,-0.0324688702 Q 0.9141218442,0.0485420591 0.8761657366,0.1260496047" />
      <path d="M -0.0876437389,0.5085047935 Q -0.1642284538,0.5010710491 -0.2354274811,0.4849879557" />
      <path d="M -0.6850854596,0.1260494085 L -0.6857582007,0.1084362888" />
      <path d="M -0.6857582007,0.1084362888 C -0.6880702765,-0.0383396997 -0.5381469014,-0.181917813 -0.3040323623,-0.2502089635 C -0.0723356664,-0.3208376711 0.2343602486,-0.3128357424 0.4768583093,-0.2229092551 C 0.7411734317,-0.1287897244 0.9173081688,0.0579627627 0.914241826,0.2493412977" />
      <path d="M 0.914241826,0.2493412977 Q 0.9141217853,0.3303519894 0.8761657185,0.4078593523" />
      <path d="M -0.0876472122,0.7903143518 Q -0.164231316,0.7828804631 -0.2354297756,0.7667973472" />
      <path d="M -0.685085411,0.4078594566 L -0.6857581515,0.3902463383" />
      <path d="M -0.6857581515,0.3902463383 C -0.6868062894,0.2712441333 -0.5901069762,0.1533917781 -0.4259714291,0.0775191778 C -0.1996360957,-0.0310470701 0.1541476288,-0.0483319398 0.4365996652,0.0450872578 C 0.7220210784,0.1345072891 0.9179260148,0.3298831792 0.9142418049,0.5311510771" />
      <path d="M 0.9142418049,0.5311510771 Q 0.9141217592,0.6121618275 0.8761656977,0.6896692019" />
      <path d="M -0.0876475708,1.072124212 Q -0.1642321266,1.0646902413 -0.2354309782,1.0486069409" />
      <path d="M -0.6850854524,0.689669522 L -0.6857581923,0.6720564064" />
      <path d="M -0.6857581923,0.6720564064 C -0.6866070993,0.5594184898 -0.6003467726,0.4476588393 -0.4514438183,0.3718070935 C -0.3037414568,0.2952433215 -0.0954901291,0.2558291057 0.1142416164,0.2680746452 C 0.3239733642,0.2793132443 0.5322245292,0.3422114915 0.6799270694,0.4422593354 C 0.8288302168,0.5415951682 0.9150908222,0.6768390347 0.9142418447,0.8129610266" />
      <path d="M 0.9142418447,0.8129610266 L 0.9137815556,0.8305741465" />
      <path d="M -0.6850854338,0.9714791174 L -0.6857581738,0.9538659973" />
      <path d="M -0.6857581738,0.9538659973 C -0.6866071502,0.841228171 -0.6003465235,0.7294684842 -0.4514433899,0.6536168018 C -0.3037408624,0.5770531091 -0.0954897197,0.5376390091 0.1142420373,0.5498845782 C 0.3239737924,0.5611232078 0.5322251254,0.6240215779 0.6799274714,0.7240694869 C 0.8288304018,0.8234053619 0.915090784,0.9586492196 0.9142418897,1.0947712856" />
      <path d="M 0.9142418897,1.0947712856 Q 0.9141678167,1.1664440682 0.8842946503,1.2356760666" />
      <path d="M 0.8761656978,1.2532891621 Q 0.8256428237,1.3553201708 0.7178657209,1.4382331798" />
      <path d="M 0.6985461609,1.4525533638 L 0.6506720832,1.4842316115" />
      <path d="M 0.3393452933,1.607695774 Q 0.2547142112,1.6273183622 0.1667205847,1.6356913544" />
      <path d="M -0.6857581374,1.2356758619 C -0.6891749747,1.0724137073 -0.5016707667,0.9144860067 -0.2250488475,0.8568326102 C 0.0486745589,0.7955092439 0.3952248241,0.8389848491 0.6264460744,0.9728503918 C 0.8070941338,1.0742418001 0.9155344094,1.2246586232 0.9142418347,1.376580996" />
      <path d="M 0.9137815451,1.3941941148 Q 0.9099401373,1.4661869821 0.8761657187,1.5350989748" />
      <path d="M -0.0876473378,1.9175539267 Q -0.1642294203,1.9101202232 -0.2354261755,1.8940377551" />
      <path d="M -0.6857581489,1.5174858878 C -0.6883668056,1.365840748 -0.5278096144,1.2179385558 -0.2811266749,1.1523080178 C -0.0393465445,1.0846840711 0.2761873553,1.1012268318 0.5165507663,1.2014939103 C 0.7594456349,1.2991809007 0.916758642,1.4769997596 0.914241871,1.6583907199" />
      <path d="M 0.914241871,1.6583907199 Q 0.9141218209,1.7394014849 0.8761656894,1.816908864" />
      <path d="M -0.0876463519,2.1993639438 Q -0.1641994684,2.1919331278 -0.2353718358,2.1758599255" />
      <path d="M -0.6850854799,1.8169088076 L -0.6857582239,1.7992956863" />
      <path d="M -0.6857582239,1.7992956863 C -0.6866071293,1.6866579595 -0.6003463001,1.5748980773 -0.4514433969,1.4990464879 C -0.3037410503,1.4224828467 -0.0954897716,1.383068766 0.114242011,1.3953143013 C 0.3239737893,1.4065529037 0.532224831,1.4694511973 0.6799272284,1.5694990951 C 0.828830229,1.6688349841 0.9150908536,1.8040787789 0.9142418899,1.9402007035" />
      <path d="M 0.9142418899,1.9402007035 Q 0.9141218417,2.0212114699 0.8761656919,2.0987188576" />
      <path d="M -0.6850853974,2.0987188267 L -0.6857581367,2.0811057075" />
      <path d="M -0.6857581367,2.0811057075 C -0.6866071103,1.968467894 -0.6003466173,1.8567080932 -0.4514434853,1.7808564265 C -0.3037409639,1.7042927452 -0.0954897432,1.6648787141 0.1142419777,1.677124223 C 0.3239736971,1.6883627919 0.5322249727,1.7512610941 0.679927406,1.8513090769 C 0.8288304488,1.9506450566 0.9150907762,2.0858887824 0.9142418266,2.2220107787" />
      <path d="M 0.9142418266,2.2220107787 Q 0.9127770324,2.3764944249 0.7831636617,2.5082757281" />
      <path d="M -0.6850853518,2.3805287329 L -0.6857580908,2.3629156135" />
      <path d="M -0.6857580908,2.3629156135 C -0.6905966932,2.1829735724 -0.4605450281,2.0114931713 -0.1417987197,1.9692773373 C 0.1738499759,1.921624519 0.5511585167,2.0086525493 0.7503497805,2.1868846954 C 0.8561146928,2.2784648509 0.9146522835,2.3909689248 0.9142418222,2.5038206079" />
      <path d="M 0.9142418222,2.5038206079 Q 0.914237018,2.5398147333 0.906589155,2.5754946161" />
      <path d="M -0.6747222599,2.5736520803 C -0.6285160618,2.4155909835 -0.4028540679,2.2803309522 -0.1164564923,2.2477785968" />
      <line x1="0.5456218985" y1="2.053337462" x2="0.5456218985" y2="2.0945878341" />
      <path d="M 0.6794701135,-4.9124359202 L 0.6794701135,-4.8772096819" />
      <path d="M 0.679470152,-4.8772096587 C 0.3869869205,-5.0062833681 -0.0178818049,-4.9990213436 -0.2714187171,-4.8880251179" />
      <path d="M -0.2714187171,-4.8880251179 C -0.2631455693,-4.8891735761 -0.2661270863,-4.8887244994 -0.2236406569,-4.8961359392 C -0.2040170595,-4.899524774 -0.1606669708,-4.9060079975 -0.1151410331,-4.9084040045 C -0.0678057895,-4.9111478185 -0.0184119701,-4.9102801017 0.0330404251,-4.9058008543 C 0.2183417302,-4.8900832641 0.4138800823,-4.8200677396 0.5456218985,-4.7101003398" />
      <line x1="0.5456218985" y1="-4.7101004835" x2="0.5456218985" y2="-4.6688498842" />
      <line x1="0.5456218985" y1="-4.4282904768" x2="0.5456218985" y2="-4.3870399805" />
      <line x1="0.5456218985" y1="-4.1464807215" x2="0.5456218985" y2="-4.1052300955" />
      <line x1="0.5456218985" y1="-3.8646705606" x2="0.5456218985" y2="-3.8586464191" />
      <line x1="0.5456218985" y1="-3.582860513" x2="0.5456218985" y2="-3.5768364972" />
      <line x1="0.5456218985" y1="-3.3010511376" x2="0.5456218985" y2="-3.2598003962" />
      <line x1="0.5456218985" y1="-3.0192411605" x2="0.5456218985" y2="-2.9478638589" />
      <line x1="0.5456218985" y1="-2.7374310229" x2="0.5456218985" y2="-2.666053984" />
      <line x1="0.5456218985" y1="-2.4556210235" x2="0.5456218985" y2="-2.3842436214" />
      <line x1="0.5456218985" y1="-2.173811596" x2="0.5456218985" y2="-2.1677870056" />
      <line x1="0.5456218985" y1="-1.8920015103" x2="0.5456218985" y2="-1.8859770806" />
      <line x1="0.5456218985" y1="-1.8507508423" x2="0.5456218985" y2="-1.8206240467" />
      <line x1="0.5456218985" y1="-1.610191527" x2="0.5456218985" y2="-1.5388139905" />
      <line x1="0.5456218985" y1="-1.3283818044" x2="0.5456218985" y2="-1.2871310445" />
      <line x1="0.5456218985" y1="-1.0465716753" x2="0.5456218985" y2="-1.0053211036" />
      <line x1="0.5456218985" y1="-0.7647617244" x2="0.5456218985" y2="-0.7587374058" />
      <line x1="0.5456218985" y1="-0.4829519369" x2="0.5456218985" y2="-0.4769275195" />
      <line x1="0.5456218985" y1="-0.2011422441" x2="0.5456218985" y2="-0.15989141" />
      <line x1="0.5456218985" y1="0.0806682339" x2="0.5456218985" y2="0.1219185466" />
      <line x1="0.5456218985" y1="0.3624780649" x2="0.5456218985" y2="0.4037284826" />
      <line x1="0.5456218985" y1="0.644287721" x2="0.5456218985" y2="0.6503121139" />
      <line x1="0.5456218985" y1="0.6855383522" x2="0.5456218985" y2="0.7156650851" />
      <line x1="0.5456218985" y1="0.9260976303" x2="0.5456218985" y2="0.9321219635" />
      <line x1="0.5456218985" y1="1.2079076416" x2="0.5456218985" y2="1.2792847237" />
      <line x1="0.5456218985" y1="1.4897176525" x2="0.5456218985" y2="1.5309680811" />
      <line x1="0.5456218985" y1="1.7715273422" x2="0.5456218985" y2="1.8127779589" />
      <path d="M -0.2714187171,-4.8880251179 L -0.2714187171,-4.9232513562" />
      <path d="M -0.2714187171,-4.9232513562 C -0.2690457282,-4.9250986317 -0.2610417504,-4.9296406348 -0.2474067836,-4.9368773655 C -0.2375815756,-4.9416442469 -0.2186426941,-4.9520341098 -0.1703387372,-4.9690271585 C -0.0455977519,-5.0126541092 0.117456662,-5.0288014312 0.2614474824,-5.009486536" />
      <path d="M -0.3624021024,-4.4736982872 A 0.610556942922154,0.3620862122215948 -1.97507985344588e-15 0,1 -0.465794083,-4.5869323041" />
      <path d="M -0.4963151024,-4.6999813675 A 0.610556942922154,0.3620862122215948 -1.97507985344588e-15 0,1 0.5343259866,-4.962739411" />
      <path d="M 0.679470152,-4.912435897 Q 0.5264547134,-4.9774103245 0.3481905892,-4.9987823433" />
      <path d="M 0.3481905892,-4.9987823433 C 0.1246480302,-5.0259774668 -0.1036847583,-4.99413665 -0.2714187171,-4.9232513562" />
      <path d="M 1.1144153159,2.795414099 A 1.415602896294081,0.8395126722756727 -1.97507985344588e-15 0,1 -0.8859316349,3.9836229933 A 1.415602896294081,0.8395126722756727 -1.97507985344588e-15 0,1 1.1144153159,2.795414099" />
      <line x1="-0.5138428011" y1="3.2970264166" x2="-0.4693098945" y2="3.1826723674" />
      <line x1="-0.3771491973" y1="3.9609230656" x2="-0.429474311" y2="3.8268267574" />
      <line x1="0.606646985" y1="3.9604517614" x2="0.6587931311" y2="3.8265480167" />
      <line x1="0.7415317597" y1="3.2964250082" x2="0.6969846518" y2="3.1822618026" />
      <path d="M -0.8547163376,2.6716788447 A 1.4325401150284545,0.8495571627170496 -1.97507985344588e-15 0,1 1.0832000186,2.6716788447" />
      <path d="M 1.0832000186,2.6716788447 A 1.4325401150284545,0.8495571627170496 -1.97507985344588e-15 0,1 1.1263820596,2.6962007893" />
      <line x1="-0.4016023991" y1="3.7970741823" x2="-0.2438596136" y2="3.5979678916" />
      <line x1="0.6301714149" y1="3.7961091812" x2="0.4718994119" y2="3.596334901" />
      <path d="M -0.8547163376,2.6716788447 C -1.0699830821,2.788355844 -1.2147016552,2.9403289857 -1.2836693119,3.0917617312 C -1.3583194232,3.2566641269 -1.358175086,3.4214055866 -1.2832363003,3.5859861104 C -1.2327476739,3.6980162902 -1.1433707729,3.8034935225 -1.0151055973,3.9024178071 C -0.8431975186,4.0329512389 -0.5992212554,4.1365037766 -0.3250149806,4.1886190045 C 0.0255685154,4.2570411148 0.4219465944,4.2391470287 0.7506816495,4.1408629717 C 0.9422419601,4.0833944115 1.1034881191,4.0061937846 1.2344201267,3.9092610911 C 1.3314304373,3.8367520771 1.4067324971,3.7595347961 1.4603263059,3.6776092479 C 1.5325235095,3.5659301367 1.5683700687,3.4535911914 1.5678659836,3.3405924122 C 1.5685195755,3.2558889298 1.5491747176,3.1712880924 1.5098314099,3.0867899001 C 1.4447868819,2.9475804943 1.316410399,2.8082979274 1.1270936536,2.696605407" />
      <path d="M 1.0832000186,2.6716788447 L 1.1046790862,2.6836163977 L 1.1249489188,2.695338175 L 1.1270936536,2.696605407" />
      <line x1="0.4794933338" y1="2.3428935107" x2="1.0832000186" y2="2.6716788447" />
      <line x1="-0.3889728815" y1="2.4180298101" x2="-0.8547163376" y2="2.6716788447" />
      <line x1="0.7247987834" y1="2.4162175709" x2="0.7247987834" y2="2.3448401075" />
      <path d="M 0.9142418297,-4.5414270213 L 0.9142418297,-4.5062007829" />
      <path d="M -0.6857581413,-4.4005221588 L -0.6857581413,-4.3652959205" />
      <path d="M 0.9142418894,-4.259617258 L 0.9142418894,-4.2243910196" />
      <path d="M -0.6857581833,-4.1187124857 L -0.6857581833,-4.0834862474" />
      <path d="M 0.9142418978,-3.9778072683 L 0.9142418978,-3.9425810299" />
      <path d="M -0.6857581339,-3.8369022875 L -0.6857581339,-3.8016760491" />
      <path d="M 0.9142418221,-3.6959973457 L 0.9142418221,-3.6607711074" />
      <path d="M -0.6857580907,-3.5550923538 L -0.6857580907,-3.5198661154" />
      <path d="M 0.9142418264,-3.4141875158 L 0.9142418264,-3.3789612775" />
      <path d="M -0.6857581365,-3.2732824474 L -0.6857581365,-3.238056209" />
      <path d="M 0.9142418902,-3.1323774435 L 0.9142418902,-3.0971512051" />
      <path d="M -0.6857582235,-2.9914724211 L -0.6857582235,-2.9562461828" />
      <path d="M 0.9142418714,-2.8505674597 L 0.9142418714,-2.8153412214" />
      <path d="M -0.6857581487,-2.7096626264 L -0.6857581487,-2.6744363881" />
      <path d="M 0.9142418346,-2.5687577356 L 0.9142418346,-2.5335314972" />
      <path d="M -0.6857581369,-2.4278526011 L -0.6857581369,-2.3926263628" />
      <path d="M 0.9142418892,-2.2869480257 L 0.9142418892,-2.2517217874" />
      <path d="M -0.6857581735,-2.1460427363 L -0.6857581735,-2.110816498" />
      <path d="M 0.914241845,-2.0051377652 L 0.914241845,-1.9699115268" />
      <path d="M -0.6857581929,-1.8642331455 L -0.6857581929,-1.8290069071" />
      <path d="M 0.9142418053,-1.7233278153 L 0.9142418053,-1.688101577" />
      <path d="M -0.6857581516,-1.5824230768 L -0.6857581516,-1.5471968384" />
      <path d="M 0.9142418262,-1.4415180367 L 0.9142418262,-1.4062917983" />
      <path d="M -0.6857582003,-1.3006130267 L -0.6857582003,-1.2653867884" />
      <path d="M 0.9142418875,-1.1597078719 L 0.9142418875,-1.1244816336" />
      <path d="M -0.6857582141,-1.0188031795 L -0.6857582141,-0.9835769412" />
      <path d="M 0.9142418153,-0.8778982526 L 0.9142418153,-0.8426720143" />
      <path d="M -0.6857581419,-0.7369933444 L -0.6857581419,-0.7017671061" />
      <path d="M 0.9142417702,-0.5960883687 L 0.9142417702,-0.5608621303" />
      <path d="M -0.6857581418,-0.4551833958 L -0.6857581418,-0.4199571575" />
      <path d="M 0.9142418153,-0.3142784853 L 0.9142418153,-0.279052247" />
      <path d="M -0.6857582142,-0.1733735584 L -0.6857582142,-0.13814732" />
      <path d="M 0.9142418867,-0.0324688702 L 0.9142418867,0.0027573682" />
      <path d="M -0.6857582007,0.1084362888 L -0.6857582007,0.1436625271" />
      <path d="M 0.914241826,0.2493412977 L 0.914241826,0.284567536" />
      <path d="M -0.6857581515,0.3902463383 L -0.6857581515,0.4254725766" />
      <path d="M 0.9142418049,0.5311510771 L 0.9142418049,0.5663773155" />
      <path d="M -0.6857581923,0.6720564064 L -0.6857581923,0.7072826447" />
      <path d="M 0.9142418447,0.8129610266 L 0.9142418447,0.8481872649" />
      <path d="M -0.6857581738,0.9538659973 L -0.6857581738,0.9890922356" />
      <path d="M 0.9142418897,1.0947712856 L 0.9142418897,1.129997524" />
      <path d="M -0.6857581374,1.2356758619 L -0.6857581374,1.2709021002" />
      <path d="M 0.9142418347,1.376580996 L 0.9142418347,1.4118072343" />
      <path d="M -0.6857581489,1.5174858878 L -0.6857581489,1.5527121261" />
      <path d="M 0.914241871,1.6583907199 L 0.914241871,1.6936169582" />
      <path d="M -0.6857582239,1.7992956863 L -0.6857582239,1.8345219247" />
      <path d="M 0.9142418899,1.9402007035 L 0.9142418899,1.9754269418" />
      <path d="M -0.6857581367,2.0811057075 L -0.6857581367,2.1163319459" />
      <path d="M 0.9142418266,2.2220107787 L 0.9142418266,2.257237017" />
      <path d="M -0.6857580908,2.3629156135 L -0.6857580908,2.3981418519" />
      <path d="M 0.9142418222,2.5038206079 L 0.9142418222,2.5390468463" />
      <line x1="-0.4963151024" y1="-4.2063155088" x2="-0.4963151024" y2="-4.2776926942" />
      <line x1="-0.4963151024" y1="-3.9245056132" x2="-0.4963151024" y2="-3.9958827194" />
      <line x1="-0.4963151024" y1="-3.6426955414" x2="-0.4963151024" y2="-3.7140727237" />
      <line x1="0.7247987834" y1="-2.9381706708" x2="0.7247987834" y2="-3.0095480757" />
      <line x1="0.7247987834" y1="-2.6563606102" x2="0.7247987834" y2="-2.7277382656" />
      <line x1="-0.4963151024" y1="-2.2336462199" x2="-0.4963151024" y2="-2.3050234551" />
      <line x1="0.7247987834" y1="-2.3745513294" x2="0.7247987834" y2="-2.4459286086" />
      <line x1="-0.4963151024" y1="-1.951836331" x2="-0.4963151024" y2="-2.0232132924" />
      <line x1="0.7247987834" y1="-2.0927412489" x2="0.7247987834" y2="-2.1641181229" />
      <line x1="0.7247987834" y1="-0.9655016214" x2="0.7247987834" y2="-1.0368786523" />
      <line x1="0.7247987834" y1="-0.6836915155" x2="0.7247987834" y2="-0.7550686617" />
      <line x1="0.7247987834" y1="0.1617383071" x2="0.7247987834" y2="0.0903610055" />
      <line x1="0.7247987834" y1="0.4435481129" x2="0.7247987834" y2="0.3721707128" />
      <line x1="0.7247987834" y1="0.7253577753" x2="0.7247987834" y2="0.65398057" />
      <line x1="0.7247987834" y1="1.0071676531" x2="0.7247987834" y2="0.9357907504" />
      <line x1="-0.4963151024" y1="-4.4881252911" x2="-0.4963151024" y2="-4.6403489696" />
      <line x1="-0.4963151024" y1="-4.6755752079" x2="-0.4963151024" y2="-4.6999813675" />
      <path d="M 0.2614474812,-5.0094865362 L 0.3481905892,-4.9987823433" />
    </g>
  </g>
</svg>