<?xml version='1.0' encoding='utf-8'?>
<svg width="165.3699557194mm" height="513.0000000022mm" viewBox="-1.5053850673 -4.150948796 3.219468278 9.9872266364" version="1.1" xmlns="http://www.w3.org/2000/svg">
  <g transform="scale(1,-1)" stroke-linecap="round">
    <g fill="none" stroke="rgb(64,192,64)" stroke-width="0.01946827804358206" id="Visible">
      <path d="M 0.7131259509,3.1773081968 A 2.463216461050074,0.4930967784013877 -141.34990683355244 0,1 0.6636562997,3.1479075724" />
      <path d="M 0.6636562997,3.1479075724 A 2.2386378981420854,0.44650571148604995 141.28918333600083 0,1 0.6048472738,3.1904167227" />
      <path d="M -0.3970620555,3.1908525883 C -0.3031180953,3.258498398 -0.2017422212,3.3020162162 -0.1147541658,3.3249367049 C -0.0357388317,3.3450791079 0.0371498247,3.3546691538 0.1039118034,3.3537068425 C 0.171682759,3.3546836564 0.2458227092,3.3447048259 0.326331654,3.3237703509 C 0.4124315889,3.3005844438 0.5123016026,3.2571961558 0.6048472738,3.1904167227" />
      <path d="M -0.3970620555,3.1908525883 A 2.238637898142086,0.44813972017324716 -141.34990683355244 0,1 -0.4559291324,3.1483946313" />
      <path d="M -0.4559291324,3.1483946313 A 2.4632164610500737,0.49129884712400546 141.28918333600083 0,1 -0.5540322108,3.206320705" />
      <path d="M -0.5540322108,3.206320705 A 2.238637898142085,1.7680196104358379 93.9763445404862 0,0 -0.5146513298,3.2602845071" />
      <path d="M -0.5139120615,3.8510008426 Q -0.4408940978,3.8201357628 -0.4047764653,3.7725047466" />
      <path d="M -0.4047764653,3.7725047466 Q -0.3537334728,3.7013088541 -0.3571021713,3.626031973 Q -0.3557314652,3.5667533595 -0.386316716,3.4821834467 Q -0.4196632976,3.3886077703 -0.5146513298,3.2602845071" />
      <path d="M -0.5139120615,3.8510008426 A 2.2386378981420854,0.44650571148604995 141.28918333600083 0,1 -0.553206114,3.866417766" />
      <path d="M -0.553206114,3.866417766 A 2.4632164610500737,1.9453860811966317 93.9763445404862 0,0 -0.4549581561,3.9242584201" />
      <path d="M -0.4549581561,3.9242584201 A 2.2386378981420854,1.7663856017486417 -94.0200724293653 0,0 -0.3961491303,3.9203303749" />
      <path d="M 0.6057601991,3.9198945092 C 0.5118162388,3.9116210042 0.4104403648,3.9052916884 0.3234523093,3.9020204836 C 0.2444369752,3.8990847913 0.1715483188,3.8976917917 0.1047863401,3.8978414849 C 0.0370153845,3.8977407582 -0.0371245657,3.8992450085 -0.1176335105,3.902354236 C -0.2037334454,3.9057265387 -0.3036034591,3.9120939706 -0.3961491303,3.9203303749" />
      <path d="M 0.6057601991,3.9198945092 A 2.238637898142085,1.7680196104358379 93.9763445404862 0,0 0.664627276,3.9237713611" />
      <path d="M 0.664627276,3.9237713611 A 2.4632164610500737,1.94358814991925 -94.0200724293653 0,0 0.7627303543,3.8658452875" />
      <path d="M 0.7627303543,3.8658452875 A 2.238637898142086,0.44813972017324716 -141.34990683355244 0,1 0.7233494734,3.8504625904" />
      <path d="M 0.722610205,3.2597462549 C 0.610691429,3.4083375926 0.5732776536,3.5212564034 0.5671169508,3.596510712 C 0.562489102,3.6591430556 0.5705460073,3.7146606981 0.6135679631,3.7716490617" />
      <path d="M 0.6135679631,3.7716490617 Q 0.6498421429,3.819507492 0.7233494734,3.8504625904" />
      <path d="M 0.722610205,3.2597462549 A 2.2386378981420854,1.7663856017486417 -94.0200724293653 0,0 0.7619042575,3.2057482265" />
      <path d="M 0.7619042575,3.2057482265 A 2.463216461050074,0.4930967784013877 -141.34990683355244 0,1 0.7131259509,3.1773081968" />
      <path d="M 1.2348848211,2.5252223578 A 1.5999999999999999,0.9433449805226657 -1.9688905899265013e-15 0,1 1.7043490718,3.1927599948" />
      <path d="M 1.7043490718,3.1927599948 A 1.5999999999999999,0.9433449805226657 -1.9688905899265013e-15 0,1 0.8749414327,4.0194886978" />
      <path d="M -0.6662432892,4.0194886978 A 1.5999999999999999,0.9433449805226657 -1.9688905899265013e-15 0,1 -1.4956509282,3.1927599948" />
      <path d="M -1.4956509282,3.1927599948 A 1.5999999999999999,0.9433449805226657 -1.9688905899265013e-15 0,1 1.2348848211,2.5252223578" />
      <path d="M -0.2510787424,3.5775129073 Q -0.1651919095,3.4667937414 -0.086019894,3.3320934817" />
      <line x1="-0.4549581561" y1="3.9242584201" x2="-0.4550071321" y2="3.81946307" />
      <path d="M 0.459364678,3.576015825 Q 0.3737916193,3.4657211852 0.2948786578,3.3317255577" />
      <line x1="0.664627276" y1="3.9237713611" x2="0.6645783909" y2="3.8191704844" />
      <path d="M 1.2348848211,1.9429197086 A 1.5999999999999999,0.9433449805226657 -1.9688905899265013e-15 0,1 1.7043490718,2.6104573456" />
      <path d="M -1.4956509282,2.6104573456 A 1.5999999999999999,0.9433449805226657 -1.9688905899265013e-15 0,1 1.2348848211,1.9429197086" />
      <path d="M 0.6696169464,-5.6413174991 L 0.5357593536,-5.4744012133" />
      <path d="M 0.5357593536,-5.1917054773 C 0.4220934399,-5.2710508209 0.2614825514,-5.3217343963 0.1001415188,-5.3325582157 C -0.0733547278,-5.3451201559 -0.2444945549,-5.3113317691 -0.3573925278,-5.2463852685 C -0.4528022576,-5.1924032804 -0.5066660903,-5.1178468325 -0.5062017416,-5.0429885105" />
      <path d="M -0.5022385679,-5.0071905618 Q -0.4896661879,-4.9511775921 -0.4405390037,-4.9016041425" />
      <path d="M 0.5462080286,-4.901604122 Q 0.6121167253,-4.9494180422 0.6538900557,-5.0071512113" />
      <path d="M 0.6873185183,-5.0637382371 Q 0.7067213556,-5.1053316258 0.712516242,-5.1484992477" />
      <path d="M 0.6432858662,-5.3754805597 Q 0.6002945478,-5.4296693226 0.5357593536,-5.4744012133" />
      <path d="M 0.5357593536,-4.9090096472 C 0.4269986,-4.9848411645 0.275542321,-5.0346188745 0.1213199442,-5.0481711566 C -0.1440964934,-5.0743972419 -0.401855604,-4.9856465041 -0.477844579,-4.8549321371" />
      <path d="M -0.5022433956,-4.7244306086 Q -0.4896618024,-4.6684371476 -0.4405389195,-4.6189083611" />
      <path d="M 0.1676185219,-4.4775606007 Q 0.3489192994,-4.5024456842 0.4908603786,-4.5831075173" />
      <path d="M 0.5462079451,-4.6189083431 Q 0.6121155338,-4.6667227734 0.6538897613,-4.72445585" />
      <path d="M 0.6873186245,-4.7810426077 Q 0.7067214514,-4.8226354065 0.7125163463,-4.8658026164" />
      <path d="M 0.7149062079,-4.9016038332 C 0.7155748684,-5.0078195426 0.6495828258,-5.1134555335 0.5357593536,-5.1917054773" />
      <path d="M 0.5357593536,-4.6263138091 C 0.4043677843,-4.7184191396 0.2091389473,-4.7711433916 0.0241151025,-4.7696730963 C -0.1612358848,-4.7696345288 -0.3323872127,-4.7158883795 -0.4247319348,-4.6337090218" />
      <path d="M -0.3983503291,-4.3004117474 C -0.3280086832,-4.2491396224 -0.2253832596,-4.2111553087 -0.1088372616,-4.1948647047" />
      <path d="M 0.1676201808,-4.1948647125 Q 0.3489903302,-4.2197762213 0.4908570416,-4.3004098723" />
      <path d="M 0.5462079615,-4.3362126748 Q 0.6121396694,-4.3840491692 0.6538900166,-4.4417596358" />
      <path d="M 0.6873184736,-4.49834656 Q 0.7067207223,-4.5399378117 0.7125162282,-4.5831075259" />
      <path d="M 0.6432857284,-4.8100892774 Q 0.6002776905,-4.864293187 0.5357593536,-4.9090096472" />
      <path d="M 0.5357593536,-4.3436181484 C 0.4083061729,-4.4328632717 0.2210970618,-4.4852878143 0.0410851986,-4.486902078 C -0.1391512618,-4.4897906241 -0.3086874519,-4.442128928 -0.4068565234,-4.3656645739 C -0.4373367216,-4.3421933889 -0.4609993971,-4.3168187026 -0.47784455,-4.2895405149" />
      <path d="M 0.5462079189,-4.0535167229 Q 0.6121496846,-4.101362966 0.6538900667,-4.1590638423" />
      <path d="M 0.6766965507,-4.1948647067 Q 0.7052172008,-4.2462339128 0.7125162264,-4.300411866" />
      <path d="M 0.7149060127,-4.336212697 C 0.7155952346,-4.4423943932 0.6495515302,-4.5481047726 0.5357593536,-4.6263138091" />
      <path d="M 0.5357593536,-4.0609222383 C 0.4043382274,-4.1530364168 0.2091873919,-4.2057392357 0.0241354766,-4.2042816132 C -0.1612378571,-4.2042577702 -0.3324611922,-4.150455798 -0.4247321799,-4.0683172967" />
      <path d="M 0.5462079583,-3.7708210619 Q 0.6121375479,-3.8186554566 0.6538901449,-3.8763682001" />
      <path d="M 0.6873185443,-3.9329551072 Q 0.7067207524,-3.9745463389 0.7125162432,-4.0177160428" />
      <path d="M 0.7149060159,-4.0535167555 C 0.7155909492,-4.159706336 0.6495564859,-4.2654025617 0.5357593536,-4.3436181484" />
      <path d="M 0.5357593536,-3.7782265309 C 0.4079183029,-3.8677498471 0.2199574118,-3.9202032263 0.0394446588,-3.9215300197 C -0.1412997994,-3.9241468227 -0.311046983,-3.8758908582 -0.4086746676,-3.798867669 C -0.4382746242,-3.7757803258 -0.4613253974,-3.7508772366 -0.4778269872,-3.7241584016" />
      <path d="M -0.398342309,-3.4523302839 Q -0.2881706514,-3.3732723925 -0.1088017685,-3.3467824269" />
      <path d="M 0.1676198664,-3.3467773424 Q 0.3489398068,-3.3716693988 0.4908604831,-3.452324461" />
      <path d="M 0.7149062792,-3.7708213922 C 0.7155822301,-3.8770260005 0.6495705803,-3.9826856663 0.5357593536,-4.0609222383" />
      <path d="M 0.5357593536,-3.4955307365 C 0.3247103712,-3.6475268919 -0.0533931155,-3.6801910547 -0.2842905035,-3.5847812891 C -0.4234610616,-3.5310564202 -0.5072587601,-3.4394277148 -0.506207869,-3.3467773395" />
      <path d="M -0.3983503487,-3.1696286028 Q -0.2881692928,-3.0905859787 -0.1088358868,-3.0640813517" />
      <path d="M 0.1676221846,-3.0640819833 Q 0.3489078918,-3.0889641864 0.4908567348,-3.1696264585" />
      <path d="M 0.7149060209,-3.4881252725 C 0.7155668757,-3.5943579353 0.6495858804,-3.6999722206 0.5357593536,-3.7782265309" />
      <path d="M 0.5357593536,-3.2128348469 C 0.421886848,-3.2923356957 0.2607913997,-3.3430689105 0.0992301922,-3.3537508429 C -0.0623395284,-3.3652538799 -0.2223653774,-3.3367192428 -0.3342780612,-3.2798795199 C -0.4437454379,-3.2252790387 -0.506828652,-3.1449328373 -0.5062078697,-3.064081623" />
      <path d="M -0.39835032,-2.8869328171 Q -0.288127227,-2.8078748473 -0.1088358296,-2.7813859866" />
      <path d="M 0.1676197009,-2.7813857252 Q 0.3489698543,-2.8062886244 0.4908603863,-2.8869328139" />
      <path d="M 0.7149060102,-3.2054294226 C 0.7155578301,-3.3116715466 0.6496028753,-3.4172587398 0.5357593536,-3.4955307365" />
      <path d="M 0.5357593536,-2.9301391122 C 0.3845090819,-3.0365791877 0.1490715791,-3.0889688016 -0.0582827893,-3.069816055 C -0.2546226252,-3.0537341392 -0.4181957226,-2.9756580488 -0.4778449298,-2.8760614044" />
      <path d="M -0.3983464128,-2.6042342265 Q -0.2882353499,-2.5252215788 -0.1088375617,-2.4986900419" />
      <path d="M 0.5462072877,-2.6400376238 Q 0.6121330192,-2.6878679158 0.6538901135,-2.7455848172" />
      <path d="M 0.6873187128,-2.8021718631 Q 0.7067205679,-2.8437627302 0.7125162413,-2.8869331705" />
      <path d="M 0.7149060143,-2.9227337009 C 0.7155566342,-3.028984402 0.6495923475,-3.1345727011 0.5357593536,-3.2128348469" />
      <path d="M 0.5357593536,-2.6474433732 C 0.3362459601,-2.7904478423 -0.0128372013,-2.8294051249 -0.2453436707,-2.7505414388 C -0.4069270216,-2.6994253817 -0.5076840931,-2.5998412175 -0.5062078642,-2.4986900243" />
      <path d="M 0.7149060142,-2.640037896 C 0.7155753844,-2.7462509087 0.6495814289,-2.8518937411 0.5357593536,-2.9301391122" />
      <path d="M 0.5357593536,-2.3647475678 C 0.3458181779,-2.5003515874 0.0204966261,-2.5435755096 -0.210918363,-2.4780083357 C -0.3917871053,-2.4303613486 -0.5080097538,-2.3244732781 -0.5062076825,-2.2159899513" />
      <path d="M -0.5022445401,-2.1801739682 Q -0.4896648091,-2.1241869368 -0.4405390514,-2.074646495" />
      <path d="M 0.6432482081,-2.5485459151 Q 0.6002717236,-2.6027079804 0.5357593536,-2.6474433732" />
      <path d="M 0.5357593536,-2.0820518177 C 0.3905303564,-2.1840921096 0.1678699483,-2.2368368949 -0.0332998829,-2.2235669634 C -0.3038196839,-2.209727958 -0.5110660222,-2.076185021 -0.506206841,-1.9332996637" />
      <path d="M -0.502248319,-1.8975002129 Q -0.4896674872,-1.841478212 -0.4405389928,-1.7919504993" />
      <path d="M 0.5462079786,-1.7919505367 Q 0.6121123377,-1.8397605028 0.6538898229,-1.8974979705" />
      <path d="M 0.6985076741,-1.9813257635 Q 0.7086259621,-2.0097900172 0.7125162934,-2.0388449428" />
      <path d="M 0.6432850184,-2.2658275177 Q 0.6002923435,-2.3200168342 0.5357593536,-2.3647475678" />
      <path d="M 0.5357593536,-1.7993560322 C 0.4177635444,-1.8818021557 0.2488905504,-1.9331787507 0.0815345032,-1.9413376992 C -0.0858815957,-1.9504405776 -0.249336545,-1.9164194639 -0.3581290836,-1.8536160033 C -0.4530815394,-1.7997312298 -0.5066509717,-1.725364599 -0.5062078632,-1.6506027178" />
      <path d="M 0.5462079283,-1.5092547615 Q 0.6121166058,-1.5570688041 0.6538900633,-1.6148017629" />
      <path d="M 0.6766965258,-1.650602552 Q 0.7052174037,-1.7019724238 0.7125162527,-1.7561498475" />
      <path d="M 0.6432861725,-1.9831309545 Q 0.600291883,-2.0373225643 0.5357593536,-2.0820518177" />
      <path d="M 0.5357593536,-1.516660209 C 0.4655498141,-1.564862004 0.3833839049,-1.6014624388 0.2892616261,-1.6264615134 C 0.1173846704,-1.6726014243 -0.0787412119,-1.6701481216 -0.2293884057,-1.6246937957 C -0.3812090399,-1.5803019539 -0.4846265145,-1.4940548079 -0.5027561292,-1.4013441406 C -0.5039040453,-1.3901938868 -0.5050519614,-1.3790436331 -0.5061998775,-1.3678933793" />
      <path d="M -0.5022283452,-1.3320745081 Q -0.4896429934,-1.2760559819 -0.4405374979,-1.226560505" />
      <path d="M 0.6432856754,-1.7004356151 Q 0.6002972902,-1.754621812 0.5357593536,-1.7993560322" />
      <path d="M 0.5357593536,-1.2339644608 C 0.3968446925,-1.3315190312 0.1863967404,-1.3844472017 -0.0076350368,-1.3767081862 C -0.2022249525,-1.3707387286 -0.3750845177,-1.304739534 -0.4538507819,-1.21229046 C -0.4885397794,-1.1721179391 -0.5059921352,-1.129758124 -0.5062078491,-1.0852110149" />
      <path d="M -0.5022489252,-1.0494101898 Q -0.4903588515,-0.996390186 -0.4455670892,-0.9490286695" />
      <path d="M 0.5462079941,-0.9438631209 Q 0.6121382562,-0.991698242 0.6538900109,-1.0494101761" />
      <path d="M 0.6873185886,-1.105997416 Q 0.7067208324,-1.1475888977 0.7125162294,-1.1907581751" />
      <path d="M 0.7149060152,-1.2265589907 Q 0.7143538832,-1.3272982923 0.6432859949,-1.4177395547" />
      <path d="M 0.5625552822,-1.4969548688 L 0.5357593536,-1.516660209" />
      <path d="M 0.5357593536,-0.9512686349 C 0.3468486661,-1.0860906927 0.0239778823,-1.1297257046 -0.2072095978,-1.065518907 C -0.298595761,-1.0409307129 -0.3711031912,-1.0053123633 -0.4247318886,-0.9586638582" />
      <path d="M 0.7149058161,-0.9438629409 C 0.7155677295,-1.0500900655 0.6495902677,-1.1557075365 0.5357593536,-1.2339644608" />
      <path d="M 0.5357593536,-0.6685727625 C 0.4705956388,-0.7133828096 0.3947741691,-0.7482332373 0.3082949447,-0.7731240457 C 0.0474727303,-0.8510204507 -0.269910024,-0.8060145905 -0.4133364403,-0.6855279589 C -0.4407309336,-0.6634588914 -0.4622336515,-0.639781291 -0.4778445941,-0.6144951575" />
      <path d="M 0.5462079612,-0.3784716524 Q 0.6121307429,-0.4262992332 0.6538900668,-0.4840186615" />
      <path d="M 0.676696532,-0.5198194619 Q 0.7052139536,-0.5711788328 0.7125162288,-0.6253665257" />
      <path d="M 0.5625549203,-0.9315635238 L 0.5357593536,-0.9512686349" />
      <path d="M 0.5357593536,-0.3858771335 C 0.4167519821,-0.4690091718 0.2463362977,-0.5204595567 0.0775670379,-0.5280561297 C -0.1727788796,-0.5419031101 -0.4056519009,-0.4549128217 -0.4778438431,-0.3317998963" />
      <path d="M 0.1676231147,0.0455720428 Q 0.3489743597,0.0206685448 0.4908599357,-0.0599751081" />
      <path d="M 0.5462081439,-0.0957757506 Q 0.6121289978,-0.1436004316 0.6538900985,-0.2013228691" />
      <path d="M 0.6766964286,-0.2371239358 Q 0.7052191583,-0.2884974493 0.712516255,-0.3426709319" />
      <path d="M 0.7149060502,-0.3784717863 C 0.7155555643,-0.4847351474 0.6495846835,-0.5903132102 0.5357593536,-0.6685727625" />
      <path d="M 0.5357593536,-0.1031813203 C 0.4462559893,-0.1654233877 0.328170059,-0.2104205808 0.2030732726,-0.2316884674 C -0.041410257,-0.2754522018 -0.3037940841,-0.2202165316 -0.4247310379,-0.1105768307" />
      <path d="M -0.4778446041,-0.0491036213 Q -0.5061264974,-0.0030290048 -0.5062079758,0.0455719743" />
      <path d="M -0.3983492979,0.2227215332 Q -0.2882716415,0.3017223568 -0.1088379751,0.3282678343" />
      <path d="M 0.1676070327,0.3282695375 Q 0.3488992699,0.3033903273 0.4908602949,0.2227208147" />
      <path d="M 0.5462072716,0.1869204364 Q 0.6121324003,0.139087696 0.6538750168,0.0813938163" />
      <path d="M 0.6766963705,0.0455724336 Q 0.7052169408,-0.0057962057 0.7125162292,-0.0599750187" />
      <path d="M 0.7149060145,-0.0957758482 C 0.7155937585,-0.201961462 0.6495518292,-0.3076668487 0.5357593536,-0.3858771335" />
      <path d="M 0.5357593536,0.1795145128 C 0.3718347655,0.0637240984 0.1086674728,0.0129906553 -0.1098094744,0.04570968 C -0.3438407657,0.0771045843 -0.5095553572,0.1998608437 -0.5062078966,0.3282678711" />
      <path d="M -0.3983504346,0.5054164874 Q -0.2882463517,0.584428955 -0.1088374056,0.6109636006" />
      <path d="M 0.1676199994,0.6109635932 Q 0.3487856321,0.5861243915 0.4908573933,0.5054189692" />
      <path d="M 0.5462080514,0.4696157291 Q 0.6121556633,0.4217623244 0.6538897824,0.3640682847" />
      <path d="M 0.6766899417,0.3282797647 Q 0.7052102195,0.2769194969 0.7125139156,0.2227424011" />
      <path d="M 0.7149061783,0.1869199698 C 0.7156030898,0.0807547832 0.6495374236,-0.0249927076 0.5357593536,-0.1031813203" />
      <path d="M 0.5357593536,0.4622101812 C 0.3922259799,0.3613800825 0.1730376339,0.3086010792 -0.0263269644,0.3202958287 C -0.2999566387,0.3323101703 -0.5112121208,0.4667522963 -0.5062079997,0.6109635558" />
      <path d="M -0.5022485341,0.6467666591 Q -0.4903712263,0.6997621959 -0.4455670343,0.7471461558" />
      <path d="M 0.5461892545,0.7522980192 Q 0.6121039766,0.7044713446 0.6538898191,0.6467641336" />
      <path d="M 0.6873043047,0.5901671624 Q 0.7067098648,0.5485185949 0.7125028004,0.5053162206" />
      <path d="M 0.7148895182,0.4695534249 C 0.7155700614,0.3634125258 0.6496134004,0.2578634434 0.5357593536,0.1795145128" />
      <path d="M 0.5357593536,0.7449061072 C 0.3252039017,0.5932979726 -0.0516294851,0.5603308645 -0.2827069178,0.6550386588 C -0.422886463,0.7088230466 -0.507200856,0.8005427847 -0.5061857233,0.8936140615" />
      <path d="M 0.714906012,0.7523115648 C 0.7155473136,0.6460376821 0.6496005918,0.5404879454 0.5357593536,0.4622101812" />
      <path d="M 0.5357593536,1.027601793 C 0.3185454872,0.8707546707 -0.0753393573,0.8419650943 -0.3040720645,0.9464793082 C -0.4316629613,1.0010645355 -0.507064466,1.0882786947 -0.5061868345,1.176274185" />
      <path d="M -0.5022266652,1.2120560477 Q -0.489662403,1.268096669 -0.4405387872,1.3177029084" />
      <path d="M 0.7149060121,1.0350072695 C 0.7155952667,0.9288284928 0.6495549219,0.8231175765 0.5357593536,0.7449061072" />
      <path d="M 0.5357593536,1.310297583 C 0.3998813594,1.2150415539 0.1964274105,1.1622279667 0.0058591075,1.1671710622 C -0.256574584,1.1705928865 -0.4748851181,1.2857240924 -0.5019560581,1.4219547616 C -0.5047892818,1.4342706269 -0.506206551,1.4466360172 -0.5062078655,1.4590509326" />
      <path d="M -0.5022485,1.4948537634 Q -0.4896781701,1.550849044 -0.4405389592,1.6003989075" />
      <path d="M -0.3983502891,1.6361997982 Q -0.3511753748,1.6704207967 -0.2874078849,1.6958264167" />
      <path d="M 0.7149060405,1.3177030708 C 0.715571574,1.2114844961 0.6495871422,1.1058540275 0.5357593536,1.027601793" />
      <path d="M 0.5357593536,1.5929933908 C 0.3734780456,1.4782825517 0.1130022853,1.4272393537 -0.1041694474,1.4584047172 C -0.3389356614,1.4884188276 -0.507025087,1.6102168985 -0.5061752151,1.7384888881" />
      <path d="M 0.6873170549,1.720959571 Q 0.7067143776,1.6793737967 0.7125141549,1.6361843211" />
      <path d="M 0.7149050704,1.6004006532 C 0.7155443695,1.4941062501 0.6495963298,1.3885815027 0.5357593536,1.310297583" />
      <path d="M 0.6432858542,1.6919140372 Q 0.6003097846,1.6377390365 0.5357593536,1.5929933908" />
      <path d="M 0.6696169464,-5.6413174991 C 0.8187716115,-5.5424275629 0.9052010612,-5.4077411141 0.904348969,-5.2721783869" />
      <path d="M 0.904348969,-5.2721783869 Q 0.9029322552,-5.1198223183 0.7753934885,-4.989482716" />
      <path d="M -0.4247321581,-4.8152019795 L -0.4455669324,-4.8248369465" />
      <path d="M -0.4838187334,-4.8446235675 C -0.6191109497,-4.9193699217 -0.6963421778,-5.024764439 -0.6956509301,-5.1308303595" />
      <path d="M -0.6956509301,-5.1308303595 C -0.6967568432,-5.2507034188 -0.5971844958,-5.369350749 -0.4289485481,-5.4445688691 C -0.2621871197,-5.5207591797 -0.0298591791,-5.5518874168 0.1933340524,-5.5238872822 C 0.3869770348,-5.5005446047 0.5712967285,-5.4335353254 0.7006662591,-5.3367390973 C 0.830987137,-5.2404446154 0.9049871619,-5.1152670324 0.9043490168,-4.989482709" />
      <path d="M 0.9043490168,-4.989482709 Q 0.9042724292,-4.9175648156 0.8738988357,-4.848134918" />
      <path d="M -0.6502882866,-4.7067869845 Q -0.6954801406,-4.775193801 -0.6956508971,-4.8481346978" />
      <path d="M -0.6956508971,-4.8481346978 C -0.6978656746,-4.9922418116 -0.5515395965,-5.1333444172 -0.3217762843,-5.2019260211 C -0.0814708312,-5.2770047086 0.2423218355,-5.2664746986 0.4910656989,-5.1676638573 C 0.7424450298,-5.0716664886 0.9070749019,-4.891197453 0.9043492474,-4.706787046" />
      <path d="M 0.9043492474,-4.706787046 Q 0.9042726427,-4.6348689315 0.8738987267,-4.5654389239" />
      <path d="M -0.4247314309,-4.2498100408 L -0.4455670304,-4.2594453966" />
      <path d="M -0.4838186958,-4.2792319948 L -0.490050331,-4.2827432877" />
      <path d="M -0.5192085324,-4.3004117635 C -0.6327683262,-4.3731130812 -0.6961277617,-4.4690672769 -0.6956511825,-4.5654396177" />
      <path d="M -0.6956511825,-4.5654396177 C -0.69554061,-4.6136989495 -0.680640998,-4.6604800228 -0.6509523465,-4.7057828375 C -0.5897668644,-4.7995827252 -0.4639694684,-4.879556776 -0.3024921974,-4.924893471 C -0.1415717921,-4.9707858778 0.0535720881,-4.9815340004 0.2380628227,-4.9522468418 C 0.4227364729,-4.9235960118 0.5950894498,-4.8550764586 0.7154839852,-4.7600266734 C 0.8367148022,-4.6653933818 0.9048961639,-4.5449914974 0.9043488421,-4.424091155" />
      <path d="M 0.9043488421,-4.424091155 C 0.904911364,-4.3023346821 0.8357286261,-4.181094363 0.7129206391,-4.0861527483" />
      <path d="M 0.6985076767,-4.0752355136 Q 0.6519384039,-4.0408921782 0.5971736975,-4.0117314725" />
      <path d="M -0.6502882864,-4.1413953293 Q -0.6954803238,-4.209801798 -0.695651181,-4.28274269" />
      <path d="M -0.695651181,-4.28274269 C -0.696499915,-4.3946199084 -0.6102393834,-4.5056240147 -0.4613367774,-4.5809288748 C -0.3136346925,-4.6569416563 -0.1053831014,-4.6960213245 0.1043489328,-4.6837418994 C 0.3140809725,-4.6724635563 0.5223319702,-4.6098259867 0.6700343514,-4.5102550766 C 0.8189373215,-4.4113920239 0.905198191,-4.2768301839 0.9043492476,-4.1413952713" />
      <path d="M 0.9043492476,-4.1413952713 C 0.9049118168,-4.0196390887 0.8357285128,-3.8983988882 0.7129208928,-3.8034574096" />
      <path d="M 0.6985074739,-3.7925398186 Q 0.6519385635,-3.7581967403 0.59717447,-3.7290362327" />
      <path d="M -0.4247315782,-3.6844183229 L -0.4455671849,-3.6940536548" />
      <path d="M -0.4838112567,-3.7138360111 L -0.4900504865,-3.7173515325" />
      <path d="M -0.5192086442,-3.7350200075 Q -0.6047367396,-3.7903036308 -0.6502883514,-3.8586998189" />
      <path d="M -0.661196664,-3.8763683326 Q -0.6955527132,-3.9367098558 -0.6956508974,-4.0000476146" />
      <path d="M -0.6956508974,-4.0000476146 C -0.6964998741,-4.111924198 -0.6102394272,-4.2229282365 -0.4613363079,-4.2982334008 C -0.3136337998,-4.3742464226 -0.1053826111,-4.4133256123 0.1043490347,-4.4010459466 C 0.314080679,-4.3897673463 0.5223319073,-4.3271302167 0.6700344329,-4.2275595372 C 0.8189375733,-4.1286967428 0.9051979966,-3.994134534 0.9043490168,-3.858699603" />
      <path d="M 0.9043490168,-3.858699603 Q 0.9042724197,-3.7867815631 0.8738987451,-3.7173516979" />
      <path d="M -0.4247320971,-3.401723042 L -0.4455671243,-3.4113581416" />
      <path d="M -0.4838186939,-3.4311446762 C -0.6191108743,-3.5058911297 -0.6963421046,-3.611285795 -0.6956509308,-3.7173519558" />
      <path d="M -0.6956509308,-3.7173519558 C -0.6964999273,-3.829229007 -0.6102392625,-3.9402329268 -0.461336025,-4.0155376772 C -0.3136333927,-4.0915502958 -0.105382287,-4.1306296636 0.1043493129,-4.1183502598 C 0.3140809044,-4.1070719404 0.522332215,-4.0444344379 0.6700346949,-3.9448634333 C 0.8189378009,-3.8460002621 0.9051979457,-3.7114386794 0.9043489687,-3.5760039242" />
      <path d="M 0.9043489687,-3.5760039242 Q 0.904272382,-3.5040860882 0.8738988824,-3.4346561103" />
      <path d="M -0.4247321109,-3.1190272117 L -0.4455670913,-3.1286622963" />
      <path d="M -0.4838186666,-3.1484488419 C -0.6191109567,-3.223195377 -0.6963422609,-3.3285898632 -0.6956509874,-3.4346554798" />
      <path d="M -0.6956509874,-3.4346554798 C -0.6964998865,-3.5465322441 -0.610239627,-3.6575361618 -0.461337148,-3.73284132 C -0.3136352787,-3.8088543425 -0.1053842998,-3.8479339446 0.1043476832,-3.8356545382 C 0.3140797001,-3.8243761929 0.5223307173,-3.7617391459 0.670033093,-3.6621686774 C 0.8189359676,-3.5633061291 0.9051982784,-3.428743846 0.9043492364,-3.293309246" />
      <path d="M 0.9043492364,-3.293309246 Q 0.9042725913,-3.2213906858 0.8738990489,-3.1519601663" />
      <path d="M -0.424731757,-2.8363311291 L -0.4455670655,-2.8459663663" />
      <path d="M -0.4838189452,-2.8657531102 C -0.6191110642,-2.9404998318 -0.6963419635,-3.0458946198 -0.695650794,-3.1519605405" />
      <path d="M -0.695650794,-3.1519605405 C -0.701155242,-3.3373867631 -0.4526308925,-3.5128162594 -0.1174023383,-3.5471132486 C 0.2147735673,-3.587646081 0.6010751187,-3.4815048792 0.7814141949,-3.287125639 C 0.862514116,-3.2017793854 0.9034923977,-3.1096084595 0.9043490398,-3.0106128614" />
      <path d="M 0.9043490398,-3.0106128614 Q 0.9042724359,-2.938694515 0.8738986969,-2.8692644047" />
      <path d="M -0.6502883499,-2.7279162781 Q -0.6954802881,-2.7963230157 -0.6956510554,-2.8692640684" />
      <path d="M -0.6956510554,-2.8692640684 C -0.6974366991,-3.005301174 -0.5677604386,-3.1390652859 -0.3588288855,-3.2109485386 C -0.1519651754,-3.2845486722 0.1278699509,-3.2936374457 0.3680150869,-3.2287978052 C 0.6830246786,-3.1483757732 0.9090460671,-2.942187982 0.9043490461,-2.7279165418" />
      <path d="M 0.9043490461,-2.7279165418 Q 0.9043046108,-2.6652494286 0.8811299425,-2.6042371047" />
      <path d="M 0.8738987313,-2.5865685884 Q 0.8453439511,-2.5216003484 0.7921307515,-2.4628892378" />
      <path d="M -0.424731655,-2.270939489 L -0.4455449863,-2.2805641533" />
      <path d="M -0.483818547,-2.3003612702 C -0.6191109079,-2.375107914 -0.6963421277,-2.4805029031 -0.6956509028,-2.586568653" />
      <path d="M -0.6956509028,-2.586568653 C -0.7003274291,-2.7635791718 -0.4748927036,-2.932553047 -0.1604312684,-2.9761609623 C 0.0797737666,-3.0126452514 0.3599121239,-2.9751114571 0.567045612,-2.8729245991 C 0.7762508803,-2.772460581 0.9061401044,-2.6099813012 0.9043491996,-2.4452203512" />
      <path d="M 0.9043491996,-2.4452203512 Q 0.9043047631,-2.3825532737 0.8811300965,-2.3215411335" />
      <path d="M 0.8738989021,-2.3038727064 Q 0.845343984,-2.2389043617 0.7921304891,-2.180193247" />
      <path d="M -0.4247105887,-1.9882345258 L -0.445567094,-1.9978791859" />
      <path d="M -0.4838188198,-2.0176658178 C -0.6191112103,-2.0924124995 -0.6963420532,-2.1978069732 -0.6956508977,-2.3038732887" />
      <path d="M -0.6956508977,-2.3038732887 C -0.6948031571,-2.3857924312 -0.6540342429,-2.4609398088 -0.5733441551,-2.5293154212 C -0.3933435649,-2.6852554634 -0.0069123154,-2.7530123321 0.3255332654,-2.6738815899 C 0.6610300036,-2.6010009496 0.9098647974,-2.3867754516 0.9043489364,-2.1625253797" />
      <path d="M 0.9043489364,-2.1625253797 C 0.9049114347,-2.0407688008 0.8357285104,-1.9195283162 0.7129206313,-1.8245865634" />
      <path d="M 0.6985074714,-1.813669161 Q 0.6567042174,-1.7828361337 0.6082268452,-1.7561496658" />
      <path d="M -0.42473193,-1.705548249 L -0.4455671107,-1.7151834268" />
      <path d="M -0.4838186674,-1.7349699637 C -0.6191121471,-1.809716899 -0.6963426619,-1.9151120132 -0.6956510956,-2.0211779875" />
      <path d="M -0.6956510956,-2.0211779875 C -0.6965001314,-2.133054619 -0.6102378256,-2.244058931 -0.461334955,-2.3193635073 C -0.313632582,-2.3953760043 -0.10538156,-2.4344550823 0.104350457,-2.422175457 C 0.3140824405,-2.4108968928 0.5223334171,-2.3482593187 0.6700352879,-2.248688325 C 0.8189377682,-2.1498251954 0.9051980314,-2.0152633069 0.9043491321,-1.8798285708" />
      <path d="M 0.9043491321,-1.8798285708 Q 0.9043047031,-1.817161673 0.8811301323,-1.7561496292" />
      <path d="M -0.4247318587,-1.4228523183 L -0.4455668882,-1.4324874562" />
      <path d="M -0.483818719,-1.4522741203 C -0.6191112496,-1.5270201626 -0.6963420531,-1.6324155498 -0.6956508255,-1.7384813355" />
      <path d="M -0.6956508255,-1.7384813355 C -0.6964998027,-1.8503581108 -0.6102396549,-1.9613617179 -0.4613365482,-2.0366669117 C -0.3136340676,-2.1126799391 -0.1053827584,-2.1517594617 0.1043488328,-2.1394798028 C 0.3140804323,-2.1282012282 0.5223315389,-2.0655638844 0.6700341705,-1.9659932883 C 0.8189374074,-1.8671305606 0.90519807,-1.7325686615 0.9043490736,-1.597133633" />
      <path d="M 0.9043490736,-1.597133633 Q 0.9029322099,-1.4447770992 0.7753934864,-1.3144375009" />
      <path d="M -0.4246653661,-1.1401270676 L -0.4455670615,-1.1497918473" />
      <path d="M -0.483818677,-1.1695784439 C -0.6191110193,-1.2443251218 -0.6963420553,-1.3497193794 -0.6956508733,-1.4557854138" />
      <path d="M -0.6956508733,-1.4557854138 C -0.6964998532,-1.5676623677 -0.6102394292,-1.6786665963 -0.4613362882,-1.7539714115 C -0.3136337619,-1.8299841116 -0.1053825342,-1.8690632641 0.1043491094,-1.8567838867 C 0.3140807546,-1.8455055747 0.5223319433,-1.782868405 0.6700344516,-1.6832974045 C 0.8189375712,-1.5844342614 0.9051980174,-1.4498722476 0.9043490406,-1.3144376859" />
      <path d="M 0.9043490406,-1.3144376859 C 0.9049115577,-1.1926814244 0.8357284588,-1.0714406896 0.7129203465,-0.976498815" />
      <path d="M 0.6985077813,-0.9655818737 Q 0.6567043942,-0.9347487594 0.6082268793,-0.9080623424" />
      <path d="M -0.4247319124,-0.8574608353 L -0.4455672694,-0.8670961001" />
      <path d="M -0.4838187,-0.8868825981 L -0.4900502697,-0.8903938549" />
      <path d="M -0.5192084938,-0.9080623414 C -0.6327684592,-0.9807637257 -0.6961278448,-1.0767176747 -0.6956511038,-1.1730895668" />
      <path d="M -0.6956511038,-1.1730895668 C -0.6965000469,-1.2849664861 -0.6102391802,-1.3959703343 -0.4613362132,-1.4712753958 C -0.3136338351,-1.5472883147 -0.1053828379,-1.5863678923 0.1043492025,-1.5740882438 C 0.3140812377,-1.5628096773 0.5223328269,-1.5001720199 0.6700349119,-1.4006012481 C 0.8189375173,-1.301738398 0.9051980595,-1.1671762962 0.9043493261,-1.031741088" />
      <path d="M 0.9043493261,-1.031741088 Q 0.9042727136,-0.9598233265 0.8738988341,-0.8903938579" />
      <path d="M -0.6611966442,-0.7667145998 Q -0.695552525,-0.8270560351 -0.6956506986,-0.8903938565" />
      <path d="M -0.6956506986,-0.8903938565 C -0.6961969,-0.9902020251 -0.6280898393,-1.0895130343 -0.5069762575,-1.1630946825 C -0.3866975053,-1.2370917899 -0.2144999293,-1.2845996455 -0.0299466235,-1.2922877683 C 0.1544233466,-1.3006108373 0.3494860748,-1.2689473257 0.5104277092,-1.2021561923 C 0.6719240283,-1.1359199953 0.7978456959,-1.0350608355 0.8592605709,-0.9203355809 C 0.8892072178,-0.8647369963 0.9042368024,-0.8076406791 0.9043493245,-0.7490466294" />
      <path d="M 0.9043493245,-0.7490466294 Q 0.9043048499,-0.6863791198 0.8811298947,-0.625366489" />
      <path d="M -0.6502882867,-0.4663501992 Q -0.6954803197,-0.5347570394 -0.695651104,-0.6076981401" />
      <path d="M -0.695651104,-0.6076981401 C -0.6983696916,-0.7600183703 -0.5339838327,-0.9084105961 -0.2828841919,-0.9724919809 C -0.0344166961,-1.0393784009 0.2891083716,-1.018152667 0.5294748064,-0.9113781927 C 0.7597934058,-0.8125883096 0.906576077,-0.6409822596 0.904349041,-0.4663500255" />
      <path d="M 0.904349041,-0.4663500255 C 0.9049115899,-0.3445938755 0.8357285425,-0.2233536562 0.7129206272,-0.1284119232" />
      <path d="M 0.6985076494,-0.1174946595 Q 0.6519389398,-0.0831516796 0.5971750453,-0.0539912179" />
      <path d="M -0.6502884122,-0.1836544323 Q -0.6954801201,-0.2520612982 -0.6956508733,-0.3250022976" />
      <path d="M -0.6956508733,-0.3250022976 C -0.696286514,-0.4287947385 -0.6224418765,-0.5319834726 -0.4923614504,-0.6063733605 C -0.3632292631,-0.6812626135 -0.1792239973,-0.7264530956 0.0141909394,-0.7280772959 C 0.237542274,-0.7310462847 0.4701884301,-0.6747846646 0.6372065488,-0.5733466088 C 0.8057029494,-0.4728846719 0.9054587249,-0.3288848981 0.9043490744,-0.1836540753" />
      <path d="M 0.9043490744,-0.1836540753 C 0.9049116386,-0.0618975186 0.8357284105,0.0593427197 0.7129203478,0.1542840867" />
      <path d="M 0.6985048185,0.1652031867 Q 0.6519306855,0.1995496992 0.5971597167,0.2287125182" />
      <path d="M -0.6502884624,0.0990411373 Q -0.6954800787,0.0306345203 -0.6956508252,-0.0423063766" />
      <path d="M -0.6956508252,-0.0423063766 C -0.6964967481,-0.1540775065 -0.6104057458,-0.2649804686 -0.4617535955,-0.3402793601 C -0.2409866936,-0.4562605525 0.1193717346,-0.4809698492 0.410222582,-0.389815935 C 0.7040985282,-0.3029711556 0.908304316,-0.1051820446 0.9043491309,0.0990408595" />
      <path d="M 0.9043491309,0.0990408595 C 0.9049116735,0.22079952 0.8357259407,0.3420419917 0.7129142026,0.4369845161" />
      <path d="M 0.6985076216,0.4478968178 Q 0.6519387077,0.4822399883 0.5971745039,0.5114005981" />
      <path d="M -0.4247312951,0.556018347 L -0.4455671905,0.5463828424" />
      <path d="M -0.4838185606,0.5265963744 L -0.4900503884,0.5230849702" />
      <path d="M -0.5192085842,0.5054164822 C -0.6327678721,0.4327154345 -0.6961279234,0.3367616452 -0.6956510928,0.2403902829" />
      <path d="M -0.6956510928,0.2403902829 C -0.6956497303,0.2245189858 -0.6939948897,0.2087020627 -0.690686571,0.1929395134 C -0.6689240928,0.0857457609 -0.5670597379,-0.0154280968 -0.4121262727,-0.0807196056 C -0.2581460212,-0.1466757831 -0.0529874062,-0.1758073046 0.1489109352,-0.157369431 C 0.350891453,-0.1398005765 0.5471386671,-0.0747434469 0.6855764791,0.0235534323 C 0.8250868639,0.1212522419 0.9050870078,0.2511300416 0.9043489375,0.381737672" />
      <path d="M 0.9043489375,0.381737672 Q 0.902932258,0.5340935497 0.7753936793,0.664433019" />
      <path d="M -0.4247315964,0.838714225 L -0.4455672685,0.8290788397" />
      <path d="M -0.4838178148,0.8092928359 L -0.4900503696,0.8057810239" />
      <path d="M -0.5192085657,0.7881124958 Q -0.604736395,0.7328290673 -0.6502884569,0.6644332439" />
      <path d="M -0.6611967741,0.6467648079 Q -0.6955527626,0.5864234497 -0.6956508962,0.5230855743" />
      <path d="M -0.6956508962,0.5230855743 C -0.6964997834,0.411208379 -0.6102399906,0.3002047644 -0.4613371111,0.2248996578 C -0.3136348475,0.1488866958 -0.1053832666,0.1098068837 0.1043485032,0.1220863783 C 0.3140802918,0.1333647792 0.5223313183,0.1960022882 0.670033976,0.2955730012 C 0.8189372237,0.3944358583 0.9051981845,0.5289976245 0.9043491989,0.6644326398" />
      <path d="M 0.9043491989,0.6644326398 Q 0.9042725947,0.7363507807 0.8738987309,0.8057808781" />
      <path d="M -0.6611966939,0.9294600559 Q -0.6955527216,0.8691187169 -0.6956509025,0.8057809439" />
      <path d="M -0.6956509025,0.8057809439 C -0.6964998688,0.6939042137 -0.6102394421,0.582899872 -0.4613363527,0.5075948654 C -0.3136338745,0.431581975 -0.1053826399,0.3925029232 0.1043490718,0.4047824413 C 0.3140807836,0.4160609033 0.5223320178,0.4786979366 0.670034496,0.5782688096 C 0.8189375853,0.6771317988 0.9051980125,0.8116941213 0.9043490463,0.9471288313" />
      <path d="M 0.9043490463,0.9471288313 Q 0.9029322698,1.0994847119 0.7753935414,1.2298244226" />
      <path d="M -0.4247318921,1.4041054437 L -0.4455671949,1.3944702155" />
      <path d="M -0.4838185614,1.3746837725 C -0.6191106884,1.2999372999 -0.6963422659,1.1945423914 -0.6956510561,1.0884763599" />
      <path d="M -0.6956510561,1.0884763599 C -0.6965000415,0.9765993332 -0.6102390795,0.8655955552 -0.4613358325,0.7902906851 C -0.3136331754,0.7142779591 -0.105382149,0.6751984378 0.1043496415,0.6874780264 C 0.3140814132,0.6987565212 0.5223329956,0.7613943225 0.6700352574,0.8609652722 C 0.8189381347,0.9598283661 0.9051979274,1.0943899711 0.9043490412,1.229825157" />
      <path d="M 0.9043490412,1.229825157 Q 0.9029323691,1.3821812448 0.775393706,1.5125201482" />
      <path d="M -0.4247316896,1.6868013547 L -0.4455673712,1.6771659608" />
      <path d="M -0.4838186839,1.6573795626 C -0.6191111003,1.5826330277 -0.6963420408,1.4772385445 -0.6956507928,1.3711728291" />
      <path d="M -0.6956507928,1.3711728291 C -0.6963874705,1.2633401829 -0.6164684582,1.1562356086 -0.4770810974,1.0812649373 C -0.338764659,1.005697558 -0.1426759504,0.9633226533 0.0591978516,0.968385038 C 0.260988547,0.9725800794 0.4660973687,1.0242944081 0.620147914,1.112828441 C 0.7751486288,1.2006984391 0.8772031093,1.3244493362 0.899252532,1.4542825849 C 0.902648901,1.4736390052 0.9043478034,1.4930519869 0.9043492391,1.5125215302" />
      <path d="M 0.9043492391,1.5125215302 Q 0.9035214134,1.6448650646 0.8053141524,1.7624612465" />
      <path d="M -0.6589655158,1.7813850047 Q -0.6955395858,1.7192729959 -0.6956509886,1.6538677714" />
      <path d="M -0.6956509886,1.6538677714 C -0.6995970426,1.4851016915 -0.4956677939,1.3227497402 -0.2020697948,1.2711550305 C 0.0885047104,1.2152624471 0.4486531677,1.2750396895 0.6696169464,1.4260771051 C 0.8181288743,1.5245502583 0.9044863926,1.658508695 0.9043445302,1.793495082" />
      <path d="M -0.6348192749,1.7738138992 C -0.5070772523,1.6027397667 -0.1511670597,1.4981658352 0.1933340524,1.5435073219 C 0.3913006974,1.567344602 0.5794356508,1.6369001224 0.7092289802,1.737122522" />
      <path d="M 0.6696169464,-5.6766544721 L 0.6696169464,-5.6413174991" />
      <path d="M 0.6696169464,-5.6766544721 C 0.8187716115,-5.5777645359 0.9052010612,-5.4430780871 0.904348969,-5.3075153599" />
      <path d="M 0.9038810708,-5.2898468767 Q 0.8942220287,-5.1358343878 0.7571678501,-5.0071512003" />
      <path d="M 0.3420856518,-4.8000525317 Q 0.2318517134,-4.7734314891 0.1164442589,-4.7659031845" />
      <path d="M -0.0594836363,-4.7658861709 Q -0.1626529495,-4.7727548515 -0.2567474422,-4.7948810823" />
      <path d="M -0.4778445639,-4.8766746114 C -0.6167685361,-4.951622021 -0.696382456,-5.0585337988 -0.6956509301,-5.1661673325" />
      <path d="M -0.6956509301,-5.1661673325 C -0.6967568432,-5.2860403918 -0.5971844958,-5.4046877221 -0.4289485481,-5.4799058421 C -0.2621871197,-5.5560961528 -0.0298591791,-5.5872243898 0.1933340524,-5.5592242553 C 0.3869770348,-5.5358815777 0.5712967285,-5.4688722984 0.7006662591,-5.3720760703 C 0.830987137,-5.2757815885 0.9049871619,-5.1506040054 0.9043490168,-5.024819682" />
      <path d="M 0.9043490168,-5.024819682 Q 0.9042248733,-4.9435256066 0.8656304113,-4.8658033527" />
      <path d="M -0.0594841199,-4.4831903183 Q -0.1626549126,-4.4900589973 -0.256750554,-4.5121857645" />
      <path d="M -0.6949646703,-4.8658031856 L -0.6956508971,-4.8834716708" />
      <path d="M -0.6956508971,-4.8834716708 C -0.6978656746,-5.0275787846 -0.5515395965,-5.1686813902 -0.3217762843,-5.2372629941 C -0.0814708312,-5.3123416816 0.2423218355,-5.3018116716 0.4910656989,-5.2030008303 C 0.7424450298,-5.1070034616 0.9070749019,-4.926534426 0.9043492474,-4.7421240191" />
      <path d="M 0.9043492474,-4.7421240191 Q 0.9042250793,-4.6608297842 0.865630302,-4.5831074905" />
      <path d="M 0.5100929941,-4.2888755571 Q 0.3276057192,-4.2145640107 0.1164449432,-4.2005116127" />
      <path d="M -0.6949649511,-4.5831080902 L -0.6956511825,-4.6007765907" />
      <path d="M -0.6956511825,-4.6007765907 C -0.69554061,-4.6490359225 -0.680640998,-4.6958169958 -0.6509523465,-4.7411198106 C -0.5897668644,-4.8349196982 -0.4639694684,-4.914893749 -0.3024921974,-4.960230444 C -0.1415717921,-5.0061228508 0.0535720881,-5.0168709735 0.2380628227,-4.9875838148 C 0.4227364729,-4.9589329848 0.5950894498,-4.8904134316 0.7154839852,-4.7953636465 C 0.8367148022,-4.7007303548 0.9048961639,-4.5803284704 0.9043488421,-4.459428128" />
      <path d="M 0.9043488421,-4.459428128 L 0.9038809444,-4.4417596415" />
      <path d="M -0.6949649496,-4.3004111905 L -0.695651181,-4.318079663" />
      <path d="M -0.695651181,-4.318079663 C -0.696499915,-4.4299568814 -0.6102393834,-4.5409609877 -0.4613367774,-4.6162658479 C -0.3136346925,-4.6922786293 -0.1053831014,-4.7313582975 0.1043489328,-4.7190788724 C 0.3140809725,-4.7078005293 0.5223319702,-4.6451629598 0.6700343514,-4.5455920496 C 0.8189373215,-4.4467289969 0.905198191,-4.3121671569 0.9043492476,-4.1767322443" />
      <path d="M 0.9043492476,-4.1767322443 Q 0.9042250933,-4.0954381793 0.8656304104,-4.0177159343" />
      <path d="M 0.3420898296,-3.6692705492 Q 0.231853966,-3.642648669 0.1164439179,-3.6351200852" />
      <path d="M -0.0594843303,-3.6351028833 Q -0.1626542811,-3.6419715082 -0.2567487723,-3.6640980379" />
      <path d="M -0.6956508974,-4.0353845876 C -0.6964998741,-4.1472611711 -0.6102394272,-4.2582652096 -0.4613363079,-4.3335703738 C -0.3136337998,-4.4095833956 -0.1053826111,-4.4486625854 0.1043490347,-4.4363829196 C 0.314080679,-4.4251043193 0.5223319073,-4.3624671898 0.6700344329,-4.2628965103 C 0.8189375733,-4.1640337158 0.9051979966,-4.029471507 0.9043490168,-3.894036576" />
      <path d="M 0.9043490168,-3.894036576 L 0.903881118,-3.8763680903" />
      <path d="M -0.6956509308,-3.7526889288 C -0.6964999273,-3.86456598 -0.6102392625,-3.9755698998 -0.461336025,-4.0508746502 C -0.3136333927,-4.1268872689 -0.105382287,-4.1659666366 0.1043493129,-4.1536872328 C 0.3140809044,-4.1424089135 0.522332215,-4.079771411 0.6700346949,-3.9802004063 C 0.8189378009,-3.8813372352 0.9051979457,-3.7467756525 0.9043489687,-3.6113408972" />
      <path d="M 0.9043489687,-3.6113408972 L 0.9038810705,-3.5936724074" />
      <path d="M -0.6949647609,-3.4523239685 L -0.6956509874,-3.4699924528" />
      <path d="M -0.6956509874,-3.4699924528 C -0.6964998865,-3.5818692171 -0.610239627,-3.6928731348 -0.461337148,-3.768178293 C -0.3136352787,-3.8441913155 -0.1053842998,-3.8832709176 0.1043476832,-3.8709915113 C 0.3140797001,-3.8597131659 0.5223307173,-3.7970761189 0.670033093,-3.6975056504 C 0.8189359676,-3.5986431021 0.9051982784,-3.464080819 0.9043492364,-3.328646219" />
      <path d="M 0.9043492364,-3.328646219 L 0.9038813332,-3.3109777018" />
      <path d="M -0.6949645707,-3.1696290247 L -0.695650794,-3.1872975136" />
      <path d="M -0.695650794,-3.1872975136 C -0.701155242,-3.3727237362 -0.4526308925,-3.5481532324 -0.1174023383,-3.5824502216 C 0.2147735673,-3.622983054 0.6010751187,-3.5168418522 0.7814141949,-3.3224626121 C 0.862514116,-3.2371163584 0.9034923977,-3.1449454325 0.9043490398,-3.0459498344" />
      <path d="M 0.9043490398,-3.0459498344 L 0.903881143,-3.0282813456" />
      <path d="M -0.6949648292,-2.8869325572 L -0.6956510554,-2.9046010414" />
      <path d="M -0.6956510554,-2.9046010414 C -0.6974366991,-3.040638147 -0.5677604386,-3.1744022589 -0.3588288855,-3.2462855116 C -0.1519651754,-3.3198856452 0.1278699509,-3.3289744188 0.3680150869,-3.2641347782 C 0.6830246786,-3.1837127462 0.9090460671,-2.977524955 0.9043490461,-2.7632535148" />
      <path d="M 0.9043490461,-2.7632535148 L 0.9038811457,-2.7455850267" />
      <path d="M -0.6949646769,-2.6042371372 L -0.6956509028,-2.621905626" />
      <path d="M -0.6956509028,-2.621905626 C -0.7003274291,-2.7989161449 -0.4748927036,-2.96789002 -0.1604312684,-3.0114979353 C 0.0797737666,-3.0479822244 0.3599121239,-3.0104484301 0.567045612,-2.9082615721 C 0.7762508803,-2.8077975541 0.9061401044,-2.6453182742 0.9043491996,-2.4805573242" />
      <path d="M 0.9043491996,-2.4805573242 Q 0.9042726055,-2.4086394399 0.8738989021,-2.3392096794" />
      <path d="M 0.3420418471,-1.973084179 Q 0.2318294154,-1.9464723833 0.1164463781,-1.9389454098" />
      <path d="M -0.0594843359,-1.9389282165 Q -0.1626549907,-1.9457970212 -0.2567505218,-1.9679238283" />
      <path d="M -0.4777903219,-2.0496873241 C -0.6167474634,-2.1246367217 -0.6963827002,-2.2315621568 -0.6956508977,-2.3392102617" />
      <path d="M -0.6956508977,-2.3392102617 C -0.6948031571,-2.4211294043 -0.6540342429,-2.4962767818 -0.5733441551,-2.5646523942 C -0.3933435649,-2.7205924364 -0.0069123154,-2.7883493052 0.3255332654,-2.7092185629 C 0.6610300036,-2.6363379226 0.9098647974,-2.4221124246 0.9043489364,-2.1978623527" />
      <path d="M 0.9043489364,-2.1978623527 Q 0.9042247752,-2.1165679886 0.8656301318,-2.0388455011" />
      <path d="M -0.059484249,-1.6562325426 Q -0.1626553169,-1.6631013066 -0.2567510532,-1.6852281783" />
      <path d="M -0.6949648653,-2.0388464377 L -0.6956510956,-2.0565149605" />
      <path d="M -0.6956510956,-2.0565149605 C -0.6965001314,-2.168391592 -0.6102378256,-2.279395904 -0.461334955,-2.3547004803 C -0.313632582,-2.4307129774 -0.10538156,-2.4697920554 0.104350457,-2.45751243 C 0.3140824405,-2.4462338658 0.5223334171,-2.3835962917 0.6700352879,-2.284025298 C 0.8189377682,-2.1851621684 0.9051980314,-2.0506002799 0.9043491321,-1.9151655439" />
      <path d="M 0.9043491321,-1.9151655439 Q 0.9042725493,-1.8432478344 0.8738989376,-1.7738181396" />
      <path d="M -0.0594833074,-1.3735366903 Q -0.1626543055,-1.3804053217 -0.2567500858,-1.4025319907" />
      <path d="M -0.694964603,-1.7561498173 L -0.6956508255,-1.7738183085" />
      <path d="M -0.6956508255,-1.7738183085 C -0.6964998027,-1.8856950838 -0.6102396549,-1.9966986909 -0.4613365482,-2.0720038847 C -0.3136340676,-2.1480169121 -0.1053827584,-2.1870964347 0.1043488328,-2.1748167758 C 0.3140804323,-2.1635382013 0.5223315389,-2.1009008574 0.6700341705,-2.0013302614 C 0.8189374074,-1.9024675336 0.90519807,-1.7679056345 0.9043490736,-1.632470606" />
      <path d="M 0.9043490736,-1.632470606 Q 0.9042249069,-1.5511762787 0.8656302966,-1.4734539313" />
      <path d="M -0.0594845681,-1.0908408842 Q -0.1626411898,-1.0977085133 -0.2567257187,-1.1198304756" />
      <path d="M -0.6949646501,-1.4734539017 L -0.6956508733,-1.4911223868" />
      <path d="M -0.6956508733,-1.4911223868 C -0.6964998532,-1.6029993407 -0.6102394292,-1.7140035693 -0.4613362882,-1.7893083845 C -0.3136337619,-1.8653210847 -0.1053825342,-1.9044002372 0.1043491094,-1.8921208597 C 0.3140807546,-1.8808425478 0.5223319433,-1.8182053781 0.6700344516,-1.7186343775 C 0.8189375712,-1.6197712344 0.9051980174,-1.4852092207 0.9043490406,-1.349774659" />
      <path d="M 0.9043490406,-1.349774659 Q 0.9042248847,-1.2684805406 0.86563024,-1.1907581283" />
      <path d="M -0.0594836559,-0.8081452002 Q -0.162655072,-0.8150139434 -0.2567510597,-0.8371408293" />
      <path d="M -0.4900502697,-0.925730828 C -0.6215426851,-1.0002253116 -0.6963016041,-1.1040154572 -0.6956511038,-1.2084265398" />
      <path d="M -0.6956511038,-1.2084265398 C -0.6965000469,-1.3203034591 -0.6102391802,-1.4313073074 -0.4613362132,-1.5066123688 C -0.3136338351,-1.5826252878 -0.1053828379,-1.6217048653 0.1043492025,-1.6094252168 C 0.3140812377,-1.5981466503 0.5223328269,-1.5355089929 0.6700349119,-1.4359382211 C 0.8189375173,-1.337075371 0.9051980595,-1.2025132692 0.9043493261,-1.067078061" />
      <path d="M 0.9043493261,-1.067078061 Q 0.9042251202,-0.9857841387 0.8656303568,-0.9080623429" />
      <path d="M -0.0594819025,-0.5254492425 Q -0.1626543126,-0.5323179336 -0.2567513988,-0.5544450964" />
      <path d="M -0.6949644769,-0.908062343 L -0.6956506986,-0.9257308295" />
      <path d="M -0.6956506986,-0.9257308295 C -0.6961969,-1.0255389981 -0.6280898393,-1.1248500073 -0.5069762575,-1.1984316555 C -0.3866975053,-1.272428763 -0.2144999293,-1.3199366185 -0.0299466235,-1.3276247413 C 0.1544233466,-1.3359478103 0.3494860748,-1.3042842987 0.5104277092,-1.2374931653 C 0.6719240283,-1.1712569683 0.7978456959,-1.0703978085 0.8592605709,-0.9556725539 C 0.8892072178,-0.9000739693 0.9042368024,-0.8429776521 0.9043493245,-0.7843836025" />
      <path d="M 0.9043493245,-0.7843836025 Q 0.9042726754,-0.7124652741 0.8738986741,-0.643035014" />
      <path d="M 0.8656302396,-0.625366555 Q 0.8148775745,-0.5242794619 0.7073213557,-0.4421352888" />
      <path d="M 0.6873182764,-0.4274314232 L 0.6432860165,-0.3983851412" />
      <path d="M 0.3420892347,-0.2769209696 Q 0.231854612,-0.2502993912 0.1164462398,-0.2427707415" />
      <path d="M -0.695651104,-0.6430351131 C -0.6983696916,-0.7953553433 -0.5339838327,-0.9437475691 -0.2828841919,-1.0078289539 C -0.0344166961,-1.0747153739 0.2891083716,-1.05348964 0.5294748064,-0.9467151657 C 0.7597934058,-0.8479252826 0.906576077,-0.6763192326 0.904349041,-0.5016869985" />
      <path d="M 0.904349041,-0.5016869985 Q 0.9042248947,-0.4203929807 0.8656302964,-0.3426707515" />
      <path d="M 0.3420877419,0.0057752578 Q 0.2318437717,0.0323988322 0.1164256343,0.0399262485" />
      <path d="M -0.0594594328,0.0399436906 Q -0.1626437477,0.0330759726 -0.2567510828,0.0109464615" />
      <path d="M -0.6949646501,-0.3426707827 L -0.6956508733,-0.3603392706" />
      <path d="M -0.6956508733,-0.3603392706 C -0.696286514,-0.4641317115 -0.6224418765,-0.5673204457 -0.4923614504,-0.6417103335 C -0.3632292631,-0.7165995866 -0.1792239973,-0.7617900686 0.0141909394,-0.7634142689 C 0.237542274,-0.7663832577 0.4701884301,-0.7101216376 0.6372065488,-0.6086835818 C 0.8057029494,-0.5082216449 0.9054587249,-0.3642218711 0.9043490744,-0.2189910483" />
      <path d="M 0.9043490744,-0.2189910483 C 0.9049455921,-0.0953809985 0.8335673724,0.0276727076 0.7073208104,0.1232567359" />
      <path d="M 0.6873108281,0.1379654323 L 0.6432861681,0.1670062733" />
      <path d="M 0.3420898284,0.2884703482 Q 0.2318373247,0.3150962991 0.1164101102,0.3226231473" />
      <path d="M -0.0594846227,0.3226380597 Q -0.1626549113,0.3157693207 -0.2567501588,0.2936426191" />
      <path d="M -0.6949646027,-0.0599748678 L -0.6956508252,-0.0776433496" />
      <path d="M -0.6956508252,-0.0776433496 C -0.6964967481,-0.1894144795 -0.6104057458,-0.3003174417 -0.4617535955,-0.3756163331 C -0.2409866936,-0.4915975255 0.1193717346,-0.5163068222 0.410222582,-0.425152908 C 0.7040985282,-0.3383081286 0.908304316,-0.1405190176 0.9043491309,0.0637038864" />
      <path d="M 0.9043491309,0.0637038864 C 0.9049455924,0.1873143074 0.833566901,0.3103685621 0.7073198555,0.4059531334" />
      <path d="M 0.6873185529,0.4206556868 L 0.6432853008,0.4497026628" />
      <path d="M 0.342089072,0.5711665449 Q 0.231853765,0.5977881986 0.1164445794,0.6053166589" />
      <path d="M -0.0594838408,0.6053337416 Q -0.1626551652,0.5984649643 -0.2567510652,0.5763380854" />
      <path d="M -0.6949648629,0.2227217593 L -0.6956510928,0.2050533099" />
      <path d="M -0.6956510928,0.2050533099 C -0.6956497303,0.1891820128 -0.6939948897,0.1733650896 -0.690686571,0.1576025404 C -0.6689240928,0.0504087878 -0.5670597379,-0.0507650699 -0.4121262727,-0.1160565786 C -0.2581460212,-0.1820127561 -0.0529874062,-0.2111442777 0.1489109352,-0.192706404 C 0.350891453,-0.1751375496 0.5471386671,-0.1100804199 0.6855764791,-0.0117835407 C 0.8250868639,0.0859152689 0.9050870078,0.2157930686 0.9043489375,0.3464006989" />
      <path d="M 0.9043489375,0.3464006989 Q 0.9042248061,0.4276945588 0.865630485,0.5054165582" />
      <path d="M -0.059483411,0.8880295545 Q -0.162655059,0.8811607818 -0.2567516738,0.8590337464" />
      <path d="M -0.6949646765,0.5054170854 L -0.6956508962,0.4877486012" />
      <path d="M -0.6956508962,0.4877486012 C -0.6964997834,0.375871406 -0.6102399906,0.2648677914 -0.4613371111,0.1895626848 C -0.3136348475,0.1135497228 -0.1053832666,0.0744699107 0.1043485032,0.0867494053 C 0.3140802918,0.0980278062 0.5223313183,0.1606653152 0.670033976,0.2602360282 C 0.8189372237,0.3590988852 0.9051981845,0.4936606514 0.9043491989,0.6290956668" />
      <path d="M 0.9043491989,0.6290956668 L 0.903881298,0.646764155" />
      <path d="M -0.6949646767,0.7881124551 L -0.6956509025,0.7704439709" />
      <path d="M -0.6956509025,0.7704439709 C -0.6964998688,0.6585672407 -0.6102394421,0.547562899 -0.4613363527,0.4722578924 C -0.3136338745,0.396245002 -0.1053826399,0.3571659501 0.1043490718,0.3694454683 C 0.3140807836,0.3807239303 0.5223320178,0.4433609636 0.670034496,0.5429318365 C 0.8189375853,0.6417948258 0.9051980125,0.7763571482 0.9043490463,0.9117918583" />
      <path d="M 0.9043490463,0.9117918583 L 0.9038811459,0.9294603432" />
      <path d="M -0.6956510561,1.0531393869 C -0.6965000415,0.9412623601 -0.6102390795,0.8302585822 -0.4613358325,0.7549537121 C -0.3136331754,0.6789409861 -0.105382149,0.6398614648 0.1043496415,0.6521410533 C 0.3140814132,0.6634195482 0.5223329956,0.7260573495 0.6700352574,0.8256282992 C 0.8189381347,0.924491393 0.9051979274,1.0590529981 0.9043490412,1.194488184" />
      <path d="M 0.9043490412,1.194488184 Q 0.902492611,1.3581318751 0.7571680922,1.4948517209" />
      <path d="M -0.477845302,1.6253280924 C -0.6167690055,1.5503805226 -0.6963823148,1.4434689722 -0.6956507928,1.3358358561" />
      <path d="M -0.6956507928,1.3358358561 C -0.6963874705,1.2280032099 -0.6164684582,1.1208986355 -0.4770810974,1.0459279643 C -0.338764659,0.970360585 -0.1426759504,0.9279856803 0.0591978516,0.933048065 C 0.260988547,0.9372431063 0.4660973687,0.9889574351 0.620147914,1.077491468 C 0.7751486288,1.1653614661 0.8772031093,1.2891123631 0.899252532,1.4189456119 C 0.902648901,1.4383020321 0.9043478034,1.4577150139 0.9043492391,1.4771845571" />
      <path d="M 0.9043492391,1.4771845571 Q 0.9030305195,1.6266810235 0.7798601993,1.7553101296" />
      <path d="M -0.6394446478,1.7752400906 Q -0.6953879141,1.7000174094 -0.6956509886,1.6185307984" />
      <path d="M -0.6956509886,1.6185307984 C -0.6995970426,1.4497647185 -0.4956677939,1.2874127672 -0.2020697948,1.2358180574 C 0.0885047104,1.1799254741 0.4486531677,1.2397027165 0.6696169464,1.3907401321 C 0.8187716115,1.4896300682 0.9052010612,1.6243165171 0.904348969,1.7598792442" />
      <path d="M 0.904348969,1.7598792442 L 0.9027097277,1.7929393565" />
      <path d="M -0.6642897521,1.7830967144 C -0.6129653103,1.6875786827 -0.4959902953,1.6037463941 -0.3402102172,1.553250623 C -0.1850357779,1.5022204662 0.0075454405,1.4850781134 0.1933340524,1.5081703489 C 0.4232980504,1.5355927935 0.6389883032,1.6255287911 0.767373577,1.7519197753" />
      <path d="M 0.596077935,1.7127675957 Q 0.5685711993,1.6873265559 0.5357593536,1.6645951175" />
      <path d="M 0.3419566299,1.5704175984 C 0.2093409725,1.5264646402 0.0564557883,1.5117223735 -0.0809619064,1.527150109 C -0.2773665812,1.5478933233 -0.4359908746,1.6313794491 -0.4863278767,1.7337496363" />
      <path d="M 0.7149059964,1.6720005469 C 0.7155538565,1.5657480386 0.6496049185,1.4601761243 0.5357593536,1.3818993096" />
      <path d="M 0.5357593536,1.3818993096 C 0.403756238,1.2894338592 0.2080689847,1.2367755537 0.0222032424,1.2385491922 C -0.1227563419,1.2391120036 -0.2596945623,1.2718103132 -0.3555068164,1.3261520832 C -0.4520289634,1.3801334347 -0.5066628203,1.4551661541 -0.5062071736,1.5306517596" />
      <path d="M -0.5062071736,1.5306517596 Q -0.5060825935,1.5851933913 -0.470703435,1.6362001314" />
      <path d="M -0.4405391724,1.6720004688 Q -0.4187545307,1.6938484037 -0.3904899585,1.713361887" />
      <path d="M 0.7149060152,1.3893047328 C 0.7155557655,1.2830511761 0.6495983099,1.1774746898 0.5357593536,1.0992035737" />
      <path d="M 0.5357593536,1.0992035737 C 0.4110114058,1.0119033783 0.2290767924,0.959713297 0.0525865417,0.9561292054 C -0.1240751087,0.9513711661 -0.2921414763,0.9949934518 -0.3938342677,1.0675792181 C -0.4677884634,1.1208329603 -0.5052463333,1.1809588665 -0.5062078772,1.2479569367" />
      <path d="M -0.5062078772,1.2479569367 Q -0.5060662635,1.3025417849 -0.4707031043,1.3535039908" />
      <path d="M -0.4405389878,1.3893046779 Q -0.3753137611,1.4544002451 -0.26016794,1.4948518025" />
      <path d="M -0.1088380083,1.5306526684 Q 0.0002142521,1.5460112969 0.1164446097,1.5362995577" />
      <path d="M 0.7148949484,1.1065848355 C 0.7155418618,1.0003315252 0.6496228476,0.8948263611 0.5357593536,0.8165077436" />
      <path d="M 0.5357593536,0.8165077436 C 0.358063643,0.6902362273 0.0621544401,0.6427511636 -0.1649085397,0.6923035203 C -0.37061547,0.733565631 -0.5087273813,0.8476447877 -0.5062078735,0.9652610728" />
      <path d="M 0.7149060042,0.8239131718 C 0.7155513263,0.7176434007 0.6495916479,0.6120799262 0.5357593536,0.5338119055" />
      <path d="M 0.5357593536,0.5338119055 C 0.4010018059,0.4393584466 0.1997956858,0.3865844152 0.0105559488,0.3905944131 C -0.1320383601,0.3927811792 -0.2658731346,0.4261159887 -0.3593543011,0.480253869 C -0.4535157969,0.5340546804 -0.5066376521,0.6080901432 -0.5062068486,0.6825640011" />
      <path d="M -0.5062068486,0.6825640011 Q -0.5061501923,0.7256622636 -0.4838185829,0.7669326773" />
      <path d="M -0.0594836637,0.9708909303 Q 0.0522280044,0.9806766667 0.1676191039,0.9652610326" />
      <path d="M 0.5906309039,0.7881121929 Q 0.6451898476,0.7390583836 0.6766965203,0.6825652774" />
      <path d="M 0.6938601138,0.6467644746 Q 0.7148570396,0.594813401 0.7149060162,0.541217472" />
      <path d="M 0.7149060162,0.541217472 C 0.715554089,0.4349598751 0.649598426,0.3293882123 0.5357593536,0.2511162447" />
      <path d="M 0.5357593536,0.2511162447 C 0.4174427147,0.1684322188 0.2479040317,0.1170052864 0.0801044374,0.1090616153 C -0.0877619932,0.10016232 -0.2514637052,0.1346309817 -0.3599621219,0.1979085178 C -0.4537810511,0.2517086597 -0.5066299451,0.325559428 -0.5062077315,0.3998697371" />
      <path d="M -0.5062077315,0.3998697371 Q -0.5060668566,0.4544427679 -0.4707030979,0.5054165622" />
      <path d="M -0.1088377088,0.6825653568 Q 0.025308983,0.7014015418 0.167619976,0.6825653038" />
      <path d="M 0.3296491631,0.6467641732 Q 0.4537540104,0.6077915201 0.5462065801,0.5412163876" />
      <path d="M 0.5906289677,0.50541459 Q 0.645177718,0.4563936236 0.676688505,0.3998549938" />
      <path d="M 0.6938425148,0.3640346697 Q 0.7148379023,0.3120258107 0.7148904746,0.2584569269" />
      <path d="M 0.7148904746,0.2584569269 C 0.71557331,0.1523372622 0.6496119176,0.0467742422 0.5357593536,-0.0315796653" />
      <path d="M 0.5357593536,-0.0315796653 C 0.3182050807,-0.1887012229 -0.0765867861,-0.2172610041 -0.3051653603,-0.1122290322 C -0.4321194945,-0.0576517722 -0.507025271,0.0292530179 -0.5061876041,0.1171203603" />
      <path d="M -0.1088359115,0.3998701076 Q 0.0252776585,0.4187056577 0.1676146645,0.3998699302" />
      <path d="M 0.3296479747,0.364069682 Q 0.4537545993,0.3250970668 0.5462079249,0.2585217006" />
      <path d="M 0.5906209929,0.2227299466 Q 0.6451820177,0.1736774653 0.6766877989,0.1171895766" />
      <path d="M 0.6938597739,0.0813738742 Q 0.7148586906,0.0294152344 0.7149060124,-0.0241741709" />
      <path d="M 0.7149060124,-0.0241741709 C 0.7155923842,-0.1303606524 0.6495556251,-0.2360613175 0.5357593536,-0.3142753728" />
      <path d="M 0.3420934042,-0.4084195651 C 0.1484056831,-0.4733587265 -0.0875921196,-0.4725827307 -0.2567501739,-0.4135926706" />
      <path d="M -0.1088384276,0.1171738652 Q 0.0252822997,0.1360104705 0.167618797,0.117173579" />
      <path d="M 0.5906316327,-0.0599752389 Q 0.6451905051,-0.109028713 0.6766963932,-0.1655223656" />
      <path d="M 0.6938600961,-0.2013229904 Q 0.7148592135,-0.2532816053 0.7149062685,-0.3068699149" />
      <path d="M 0.7149062685,-0.3068699149 C 0.7155888177,-0.4130601408 0.6495597416,-0.5187532261 0.5357593536,-0.5969711671" />
      <path d="M 0.342079342,-0.6911188605 C 0.1484995442,-0.7560421797 -0.0876663476,-0.7552811954 -0.2567495055,-0.6962886138" />
      <path d="M -0.0594842412,-0.1598921404 Q 0.0522445156,-0.1501061785 0.1676183123,-0.165521833" />
      <path d="M 0.5906311523,-0.342670788 Q 0.6451933114,-0.3917275308 0.6766964149,-0.4482175431" />
      <path d="M 0.7073213646,-0.5259020223 Q 0.7148998474,-0.5575576401 0.7149060073,-0.5895656982" />
      <path d="M -0.1088391627,-0.448218076 Q 0.0001668776,-0.4328613873 0.1164446784,-0.4425707981" />
      <path d="M 0.714906101,-0.8722612161 C 0.7155698441,-0.9784918289 0.6495805059,-1.084113186 0.5357593536,-1.1623627914" />
      <path d="M 0.5357593536,-1.1623627914 C 0.3328612515,-1.3079334557 -0.0243371169,-1.345222641 -0.2567510844,-1.26167966" />
      <path d="M -0.5062078716,-1.0136093035 Q -0.5061538591,-0.9705286665 -0.4838186923,-0.9292420891" />
      <path d="M 0.1164448486,-0.7252667229 L 0.1676144389,-0.7309128801" />
      <path d="M 0.5971744488,-0.9140464452 Q 0.6471429332,-0.9605927425 0.6766965725,-1.0136094445" />
      <path d="M 0.6938600855,-1.0494101382 Q 0.7148580564,-1.1013655364 0.7149060036,-1.1549573943" />
      <path d="M 0.7149060036,-1.1549573943 C 0.7155642105,-1.2611917819 0.6495913957,-1.3667988958 0.5357593536,-1.4450585304" />
      <path d="M 0.3420893807,-1.5392036776 C 0.1771325601,-1.5941697718 -0.0190345396,-1.6027293664 -0.1778137857,-1.5664774581 C -0.3766708988,-1.5231947778 -0.5084796338,-1.4115223925 -0.5061753867,-1.2962366013" />
      <path d="M -0.5061753867,-1.2962366013 Q -0.5060270622,-1.2416549776 -0.4707022485,-1.1907595328" />
      <path d="M 0.3420888387,-1.8218996752 C 0.0687790847,-1.9158241312 -0.2812218085,-1.8680981821 -0.4250020091,-1.7349127376 C -0.4786475596,-1.687131791 -0.5057161813,-1.6351611847 -0.5062078741,-1.5790009187" />
      <path d="M 0.1164434988,-1.2906582678 L 0.1676192939,-1.2963052192" />
      <path d="M 0.5357593536,-2.010450086 C 0.3614002199,-2.1339906569 0.0746816078,-2.182438017 -0.1507501898,-2.1374686103 C -0.3638766459,-2.0985008497 -0.5088802477,-1.9821879384 -0.5062079121,-1.8616967253" />
      <path d="M -0.5062079121,-1.8616967253 Q -0.5060677637,-1.8071158087 -0.4707031797,-1.7561497094" />
      <path d="M -0.440538942,-1.7203489252 Q -0.3752530699,-1.6552178015 -0.2601677829,-1.614801839" />
      <path d="M -0.1088375503,-1.5790010069 Q 0.0253105831,-1.5601656111 0.1676198979,-1.5790009459" />
      <path d="M 0.3296500146,-1.6148017726 Q 0.4537095538,-1.6537537402 0.5462079729,-1.7203488463" />
      <path d="M 0.5906311237,-1.7561497071 Q 0.6451788931,-1.8051887722 0.676696449,-1.8616965558" />
      <path d="M 0.6938601524,-1.8974976111 Q 0.7148615743,-1.9494679961 0.7149060143,-2.0030446449" />
      <path d="M 0.7149060143,-2.0030446449 C 0.7155633464,-2.1092802007 0.6495925543,-2.2148850209 0.5357593536,-2.2931458714" />
      <path d="M 0.5357593536,-2.2931458714 C 0.4108577952,-2.3805425294 0.2287234888,-2.4327359277 0.0520498085,-2.4362330865 C -0.1247946792,-2.4409069956 -0.292945151,-2.3970877379 -0.3944822422,-2.3243126139 C -0.4680335343,-2.2710557722 -0.5052749541,-2.2110823413 -0.5062065014,-2.144392321" />
      <path d="M -0.5062065014,-2.144392321 Q -0.5060691206,-2.0898829515 -0.4706846107,-2.0388724278" />
      <path d="M -0.1088371044,-1.861696661 L -0.0594830837,-1.8560668151" />
      <path d="M 0.3296458677,-1.8974987206 Q 0.4537855264,-1.9364934628 0.5462077998,-2.0030447525" />
      <path d="M 0.3420892986,-2.6699868088 C 0.1633373888,-2.7297193206 -0.0518185601,-2.7342523286 -0.2166808663,-2.6875257315 C -0.3944419904,-2.6391359682 -0.507852579,-2.5344674985 -0.5062036655,-2.4270939293" />
      <path d="M -0.5062036655,-2.4270939293 Q -0.5060893432,-2.3725612631 -0.4707030066,-2.321540967" />
      <path d="M -0.1088244684,-2.1443906932 L -0.0594844398,-2.1387627543" />
      <path d="M 0.1164438361,-2.1387456321 L 0.1676243557,-2.1443931911" />
      <path d="M 0.7149060239,-2.5684362762 C 0.7156173788,-2.6745876869 0.6495116247,-2.7803746895 0.5357593536,-2.8585374428" />
      <path d="M 0.5357593536,-2.8585374428 C 0.4044444231,-2.9505406766 0.2098686008,-3.0031883566 0.024876609,-3.001899407 C -0.1200023272,-3.0017124515 -0.2570767155,-2.9694578512 -0.3533745784,-2.9154781408 C -0.4503723096,-2.8618643021 -0.5057697195,-2.7870703087 -0.5061964639,-2.7117095366 C -0.5062002663,-2.7110677206 -0.5062040688,-2.7104259047 -0.5062078712,-2.7097840887" />
      <path d="M -0.1088375656,-2.4270883112 Q 0.0253792824,-2.408248837 0.1675976245,-2.4270919365" />
      <path d="M 0.5905962329,-2.6042544105 Q 0.6450665476,-2.6532744524 0.676653454,-2.7098614952" />
      <path d="M 0.6938344076,-2.7456485005 Q 0.7148852091,-2.7976182002 0.7149060649,-2.8511319471" />
      <path d="M 0.7149060649,-2.8511319471 C 0.7155607406,-2.9573763245 0.6495902032,-3.0629728745 0.5357593536,-3.1412332688" />
      <path d="M 0.5357593536,-3.1412332688 C 0.4009528901,-3.2357264883 0.1996070168,-3.2885032205 0.0103414426,-3.2844471791 C -0.2130278319,-3.2818782706 -0.4092516392,-3.1997510569 -0.4765237945,-3.0892708407 C -0.4962464145,-3.05793144 -0.5061410902,-3.0256677997 -0.5062078214,-2.9924799198" />
      <path d="M -0.4405388933,-2.8511318803 Q -0.3752722833,-2.7860125152 -0.2601679936,-2.745584829" />
      <path d="M -0.1088371255,-2.7097840096 Q 0.0001890467,-2.6944274263 0.1164434543,-2.704137182" />
      <path d="M 0.3296501892,-2.7455849773 Q 0.4537082552,-2.7845365719 0.546207969,-2.8511319631" />
      <path d="M 0.7149050538,-3.1338229587 C 0.7155510035,-3.2401193542 0.6495653401,-3.345683106 0.5357593536,-3.4239291412" />
      <path d="M 0.5357593536,-3.4239291412 C 0.4067330674,-3.5143144985 0.2163408712,-3.5668733028 0.0342882522,-3.5672767496 C -0.1480277854,-3.5690183347 -0.3182851204,-3.5189274995 -0.4141925891,-3.4401937161 C -0.4748864405,-3.3902753825 -0.5055581996,-3.3352693419 -0.5062078664,-3.2751755941" />
      <path d="M -0.4405389702,-3.1338277514 Q -0.3753121377,-3.0687307497 -0.2601671126,-3.0282805332" />
      <path d="M -0.1088377323,-2.9924799195 Q 0.0255138302,-2.9736419268 0.1676198492,-2.9924798777" />
      <path d="M 0.3296373432,-3.0282767097 Q 0.4537232758,-3.0672386487 0.546207958,-3.1338277833" />
      <path d="M 0.7149060711,-3.41652361 C 0.7155672338,-3.52275049 0.6495921989,-3.6283655138 0.5357593536,-3.7066247701" />
      <path d="M 0.5357593536,-3.7066247701 C 0.3329314446,-3.8521933458 -0.0243395247,-3.8894744448 -0.2567503812,-3.8059419754" />
      <path d="M -0.4405389744,-3.4165236196 Q -0.3752489163,-3.3513905823 -0.2601679744,-3.3109764966" />
      <path d="M -0.1088373594,-3.275175624 Q 0.0001678936,-3.2598190967 0.1164453038,-3.2695288158" />
      <path d="M 0.3296500771,-3.3109765382 Q 0.4537387288,-3.3499431758 0.546207964,-3.4165236063" />
      <path d="M 0.7149061044,-3.6992191976 C 0.7155587925,-3.8054650548 0.6495960152,-3.9110541404 0.5357593536,-3.9893205834" />
      <path d="M -0.4405389033,-3.6992192693 Q -0.3752863777,-3.6341079799 -0.2601678997,-3.5936722615" />
      <path d="M -0.0594825274,-3.5522416882 Q 0.0522769952,-3.5424564972 0.1676192662,-3.5578714606" />
      <path d="M 0.5906308779,-3.7350204878 Q 0.6451872359,-3.7840680632 0.6766965733,-3.8405671851" />
      <path d="M 0.6938602367,-3.8763682818 Q 0.7148589904,-3.9283285038 0.714906021,-3.9819151089" />
      <path d="M 0.714906021,-3.9819151089 C 0.7155648008,-4.0881466464 0.6495944847,-4.1937540453 0.5357593536,-4.2720164165" />
      <path d="M 0.5357593536,-4.2720164165 C 0.3329698647,-4.4175530316 -0.02425979,-4.4548814219 -0.256750159,-4.3713336152" />
      <path d="M -0.1088373487,-3.8405673184 L -0.0594835381,-3.8349374723" />
      <path d="M 0.1164441798,-3.8349202847 L 0.1676198814,-3.8405672096" />
      <path d="M 0.590630537,-4.0177154465 Q 0.6451966487,-4.0667762353 0.6766965351,-4.1232629905" />
      <path d="M 0.6938601281,-4.1590638688 Q 0.7148576688,-4.211016899 0.7149060203,-4.2646109757" />
      <path d="M 0.7149060203,-4.2646109757 C 0.7156049907,-4.3707798702 0.6495332821,-4.4765239617 0.5357593536,-4.5547120849" />
      <path d="M 0.5357593536,-4.5547120849 C 0.3328249904,-4.7003084338 -0.0244588846,-4.7375606725 -0.2567510283,-4.6540290268" />
      <path d="M 0.1164440488,-4.1176161168 L 0.1676197673,-4.1232630362" />
      <path d="M 0.5906311484,-4.3004118356 Q 0.6451984546,-4.3494743464 0.6766965351,-4.4059587567" />
      <path d="M 0.7073213253,-4.4836428474 Q 0.7148995274,-4.5152956314 0.7149060223,-4.5473066243" />
      <path d="M 0.7149060223,-4.5473066243 C 0.715607922,-4.6534718253 0.6495278403,-4.7592261031 0.5357593536,-4.8374080109" />
      <path d="M 0.5357593536,-4.8374080109 C 0.3329359924,-4.9829809161 -0.0244248958,-5.0202570324 -0.2567479698,-4.9367255255" />
      <path d="M -0.5062051291,-4.6886584271 Q -0.5060645179,-4.6341256574 -0.4706868686,-4.5831309173" />
      <path d="M -0.1088064473,-4.4059632479 Q 0.0251883417,-4.3871195553 0.1676131525,-4.4059579748" />
      <path d="M 0.3296500005,-4.4417596361 Q 0.4537634933,-4.4807377617 0.5462079576,-4.5473066094" />
      <path d="M 0.590631173,-4.5831074728 Q 0.6451629921,-4.6321265427 0.676696525,-4.688654568" />
      <path d="M 0.7073213956,-4.7663389757 Q 0.7149008687,-4.7980028979 0.7149060732,-4.8300025589" />
      <path d="M -0.2567521575,-5.2194204545 C -0.4118648,-5.1673405312 -0.5074833661,-5.0701623789 -0.5062059968,-4.9713548234" />
      <path d="M -0.5062059968,-4.9713548234 Q -0.5060738718,-4.9167828848 -0.470703244,-4.8658033945" />
      <path d="M -0.0594837512,-4.6830247533 Q 0.0522633943,-4.6732390357 0.1676201894,-4.6886545785" />
      <path d="M 0.3296502112,-4.724455391 Q 0.4537141535,-4.7634099716 0.5462079653,-4.8300025356" />
      <path d="M 0.5906311029,-4.8658033644 Q 0.6451748702,-4.9148365772 0.6766965561,-4.9713503692" />
      <path d="M 0.6938601917,-5.0071514081 Q 0.7148588439,-5.0591109706 0.7149060297,-5.1126982209" />
      <path d="M 0.3420885059,-5.4969450463 C 0.1201679316,-5.5719425937 -0.1562525752,-5.5581461719 -0.325958922,-5.4739396691 C -0.4404518336,-5.4192440084 -0.5068738411,-5.3370027785 -0.5062013666,-5.2540383546" />
      <path d="M -0.5062013666,-5.2540383546 Q -0.5060133874,-5.1994394586 -0.4706825485,-5.1484904151" />
      <path d="M -0.1088377089,-4.9713502993 Q 0.0253156757,-4.9525151519 0.1676193351,-4.9713503731" />
      <path d="M 0.6696169849,-5.641317476 C 0.3771468091,-5.7698168657 -0.0277253707,-5.7628113151 -0.281278374,-5.6526995282" />
      <path d="M -0.281278374,-5.6526995282 C -0.2730048044,-5.653819206 -0.2759863246,-5.6533690848 -0.2334978511,-5.6606467078 C -0.2138733183,-5.6639743026 -0.1705214219,-5.67033873 -0.1249942201,-5.6726443154 C -0.0776576325,-5.675292661 -0.0282628968,-5.6743505321 0.0231899871,-5.6698179287 C 0.2084931163,-5.6539046311 0.4040268577,-5.5840112985 0.5357593536,-5.4744010692" />
      <line x1="0.5357593536" y1="-5.4744012133" x2="0.5357593536" y2="-5.4317438705" />
      <line x1="0.5357593536" y1="-5.1917054773" x2="0.5357593536" y2="-5.1201036966" />
      <line x1="0.5357593536" y1="-4.9090096472" x2="0.5357593536" y2="-4.8374080109" />
      <line x1="0.5357593536" y1="-4.6263138091" x2="0.5357593536" y2="-4.5547120849" />
      <line x1="0.5357593536" y1="-4.3436181484" x2="0.5357593536" y2="-4.2720164165" />
      <line x1="0.5357593536" y1="-4.0609222383" x2="0.5357593536" y2="-3.9893205834" />
      <line x1="0.5357593536" y1="-3.7782265309" x2="0.5357593536" y2="-3.7066247701" />
      <line x1="0.5357593536" y1="-3.4955307365" x2="0.5357593536" y2="-3.4239291412" />
      <line x1="0.5357593536" y1="-3.2128348469" x2="0.5357593536" y2="-3.1412332688" />
      <line x1="0.5357593536" y1="-2.9301391122" x2="0.5357593536" y2="-2.8585374428" />
      <line x1="0.5357593536" y1="-2.6474433732" x2="0.5357593536" y2="-2.6047859294" />
      <line x1="0.5357593536" y1="-2.3647475678" x2="0.5357593536" y2="-2.2931458714" />
      <line x1="0.5357593536" y1="-2.0820518177" x2="0.5357593536" y2="-2.0393942502" />
      <line x1="0.5357593536" y1="-1.7993560322" x2="0.5357593536" y2="-1.7566987277" />
      <line x1="0.5357593536" y1="-1.516660209" x2="0.5357593536" y2="-1.4740028101" />
      <line x1="0.5357593536" y1="-1.2339644608" x2="0.5357593536" y2="-1.226643933" />
      <line x1="0.5357593536" y1="-1.19130696" x2="0.5357593536" y2="-1.1623627914" />
      <line x1="0.5357593536" y1="-0.9512686349" x2="0.5357593536" y2="-0.9439482347" />
      <line x1="0.5357593536" y1="-0.6685727625" x2="0.5357593536" y2="-0.5969711671" />
      <line x1="0.5357593536" y1="-0.3858771335" x2="0.5357593536" y2="-0.3142753728" />
      <line x1="0.5357593536" y1="-0.1031813203" x2="0.5357593536" y2="-0.0315796653" />
      <line x1="0.5357593536" y1="0.1795145128" x2="0.5357593536" y2="0.2511162447" />
      <line x1="0.5357593536" y1="0.4622101812" x2="0.5357593536" y2="0.5338119055" />
      <line x1="0.5357593536" y1="0.7449061072" x2="0.5357593536" y2="0.8165077436" />
      <line x1="0.5357593536" y1="1.027601793" x2="0.5357593536" y2="1.0992035737" />
      <line x1="0.5357593536" y1="1.310297583" x2="0.5357593536" y2="1.3818993096" />
      <line x1="0.5357593536" y1="1.5929933908" x2="0.5357593536" y2="1.6356507337" />
      <path d="M 0.6696169849,-5.676654449 Q 0.5196811187,-5.7400725596 0.3451368916,-5.7618662442" />
      <path d="M 0.3451368916,-5.7618662442 C 0.1195036282,-5.7904648086 -0.1118550611,-5.7590877166 -0.281278374,-5.6880365013" />
      <path d="M -0.281278374,-5.6526995282 L -0.281278374,-5.6880365013" />
      <path d="M -0.281278374,-5.6880365013 C -0.2789052358,-5.6898781381 -0.2709008245,-5.6944011464 -0.2572651401,-5.7016055262 C -0.2474394571,-5.7063508837 -0.2284994973,-5.7166906854 -0.1801937184,-5.7335966776 C -0.0537826485,-5.7775895955 0.1117155009,-5.7934224367 0.257207888,-5.7731590115" />
      <path d="M -0.5062078712,-5.4665650592 A 0.610556942922154,0.3599786421430486 -1.9688905899265013e-15 0,1 0.5279846791,-5.7257923377" />
      <line x1="-0.5146513298" y1="3.2602845071" x2="-0.4757406019" y2="3.1602691067" />
      <line x1="-0.3961491303" y1="3.9203303749" x2="-0.4399037085" y2="3.8080683205" />
      <line x1="0.6057601991" y1="3.9198945092" x2="0.6493780442" y2="3.8077800237" />
      <line x1="0.722610205" y1="3.2597462549" x2="0.6836860566" y2="3.1598777373" />
      <path d="M 0.8749414327,4.0194886978 A 2.5000000000000018,2.5000000000000018 59.43979225453944 0,1 -0.6662432892,4.0194886978" />
      <line x1="-0.4047764809" y1="3.7725047421" x2="-0.2510791423" y2="3.5775130508" />
      <line x1="0.6135679767" y1="3.7716490577" x2="0.4593650716" y2="3.5760159678" />
      <line x1="-1.4956509282" y1="3.1927599948" x2="-1.4956509282" y2="2.6104573456" />
      <line x1="1.7043490718" y1="3.1927599948" x2="1.7043490718" y2="2.6104573456" />
      <path d="M 0.904348969,-5.2721783869 L 0.904348969,-5.3075153599" />
      <path d="M -0.6956509301,-5.1308303595 L -0.6956509301,-5.1661673325" />
      <path d="M 0.9043490168,-4.989482709 L 0.9043490168,-5.024819682" />
      <path d="M -0.6956508971,-4.8481346978 L -0.6956508971,-4.8834716708" />
      <path d="M 0.9043492474,-4.706787046 L 0.9043492474,-4.7421240191" />
      <path d="M -0.6956511825,-4.5654396177 L -0.6956511825,-4.6007765907" />
      <path d="M 0.9043488421,-4.424091155 L 0.9043488421,-4.459428128" />
      <path d="M -0.695651181,-4.28274269 L -0.695651181,-4.318079663" />
      <path d="M 0.9043492476,-4.1413952713 L 0.9043492476,-4.1767322443" />
      <path d="M -0.6956508974,-4.0000476146 L -0.6956508974,-4.0353845876" />
      <path d="M 0.9043490168,-3.858699603 L 0.9043490168,-3.894036576" />
      <path d="M -0.6956509308,-3.7173519558 L -0.6956509308,-3.7526889288" />
      <path d="M 0.9043489687,-3.5760039242 L 0.9043489687,-3.6113408972" />
      <path d="M -0.6956509874,-3.4346554798 L -0.6956509874,-3.4699924528" />
      <path d="M 0.9043492364,-3.293309246 L 0.9043492364,-3.328646219" />
      <path d="M -0.695650794,-3.1519605405 L -0.695650794,-3.1872975136" />
      <path d="M 0.9043490398,-3.0106128614 L 0.9043490398,-3.0459498344" />
      <path d="M -0.6956510554,-2.8692640684 L -0.6956510554,-2.9046010414" />
      <path d="M 0.9043490461,-2.7279165418 L 0.9043490461,-2.7632535148" />
      <path d="M -0.6956509028,-2.586568653 L -0.6956509028,-2.621905626" />
      <path d="M 0.9043491996,-2.4452203512 L 0.9043491996,-2.4805573242" />
      <path d="M -0.6956508977,-2.3038732887 L -0.6956508977,-2.3392102617" />
      <path d="M 0.9043489364,-2.1625253797 L 0.9043489364,-2.1978623527" />
      <path d="M -0.6956510956,-2.0211779875 L -0.6956510956,-2.0565149605" />
      <path d="M 0.9043491321,-1.8798285708 L 0.9043491321,-1.9151655439" />
      <path d="M -0.6956508255,-1.7384813355 L -0.6956508255,-1.7738183085" />
      <path d="M 0.9043490736,-1.597133633 L 0.9043490736,-1.632470606" />
      <path d="M -0.6956508733,-1.4557854138 L -0.6956508733,-1.4911223868" />
      <path d="M 0.9043490406,-1.3144376859 L 0.9043490406,-1.349774659" />
      <path d="M -0.6956511038,-1.1730895668 L -0.6956511038,-1.2084265398" />
      <path d="M 0.9043493261,-1.031741088 L 0.9043493261,-1.067078061" />
      <path d="M -0.6956506986,-0.8903938565 L -0.6956506986,-0.9257308295" />
      <path d="M 0.9043493245,-0.7490466294 L 0.9043493245,-0.7843836025" />
      <path d="M -0.695651104,-0.6076981401 L -0.695651104,-0.6430351131" />
      <path d="M 0.904349041,-0.4663500255 L 0.904349041,-0.5016869985" />
      <path d="M -0.6956508733,-0.3250022976 L -0.6956508733,-0.3603392706" />
      <path d="M 0.9043490744,-0.1836540753 L 0.9043490744,-0.2189910483" />
      <path d="M -0.6956508252,-0.0423063766 L -0.6956508252,-0.0776433496" />
      <path d="M 0.9043491309,0.0990408595 L 0.9043491309,0.0637038864" />
      <path d="M -0.6956510928,0.2403902829 L -0.6956510928,0.2050533099" />
      <path d="M 0.9043489375,0.381737672 L 0.9043489375,0.3464006989" />
      <path d="M -0.6956508962,0.5230855743 L -0.6956508962,0.4877486012" />
      <path d="M 0.9043491989,0.6644326398 L 0.9043491989,0.6290956668" />
      <path d="M -0.6956509025,0.8057809439 L -0.6956509025,0.7704439709" />
      <path d="M 0.9043490463,0.9471288313 L 0.9043490463,0.9117918583" />
      <path d="M -0.6956510561,1.0884763599 L -0.6956510561,1.0531393869" />
      <path d="M 0.9043490412,1.229825157 L 0.9043490412,1.194488184" />
      <path d="M -0.6956507928,1.3711728291 L -0.6956507928,1.3358358561" />
      <path d="M 0.9043492391,1.5125215302 L 0.9043492391,1.4771845571" />
      <path d="M -0.6956509886,1.6538677714 L -0.6956509886,1.6185307984" />
      <path d="M 0.904348969,1.793496593 L 0.904348969,1.7598792442" />
      <line x1="-0.5062078712" y1="-4.9713503394" x2="-0.5062078712" y2="-5.0429520654" />
      <line x1="-0.5062078712" y1="-4.6886546769" x2="-0.5062078712" y2="-4.7602562858" />
      <line x1="0.7149060147" y1="-4.5473066033" x2="0.7149060147" y2="-4.6189083328" />
      <line x1="0.7149060147" y1="-4.2646109537" x2="0.7149060147" y2="-4.336212684" />
      <line x1="0.7149060147" y1="-3.9819151089" x2="0.7149060147" y2="-4.0535167486" />
      <line x1="0.7149060147" y1="-3.6992192839" x2="0.7149060147" y2="-3.7708210644" />
      <line x1="-0.5062078712" y1="-3.2751756078" x2="-0.5062078712" y2="-3.3467773403" />
      <line x1="0.7149060147" y1="-3.4165236079" x2="0.7149060147" y2="-3.4881252724" />
      <line x1="0.7149060147" y1="-3.1338277624" x2="0.7149060147" y2="-3.2054294148" />
      <line x1="-0.5062078712" y1="-2.1443925893" x2="-0.5062078712" y2="-2.2159942227" />
      <line x1="-0.5062078712" y1="-1.8616967131" x2="-0.5062078712" y2="-1.9332983558" />
      <line x1="-0.5062078712" y1="-1.5790009184" x2="-0.5062078712" y2="-1.6506027043" />
      <line x1="-0.5062078712" y1="-1.2963052176" x2="-0.5062078712" y2="-1.3679068768" />
      <line x1="-0.5062078712" y1="-1.0136093007" x2="-0.5062078712" y2="-1.08521103" />
      <line x1="0.7149060147" y1="-1.1549573766" x2="0.7149060147" y2="-1.2265589821" />
      <line x1="0.7149060147" y1="-0.872261541" x2="0.7149060147" y2="-0.9438631525" />
      <line x1="0.7149060147" y1="-0.3068699205" x2="0.7149060147" y2="-0.3784716409" />
      <line x1="0.7149060147" y1="-0.024174161" x2="0.7149060147" y2="-0.0957758366" />
      <line x1="-0.5062078712" y1="0.3998695445" x2="-0.5062078712" y2="0.3282678802" />
      <line x1="0.7149060147" y1="0.2585216997" x2="0.7149060147" y2="0.1869199613" />
      <line x1="-0.5062078712" y1="0.6825653473" x2="-0.5062078712" y2="0.6109636032" />
      <line x1="0.7149060147" y1="0.5412173929" x2="0.7149060147" y2="0.4696156783" />
      <line x1="-0.5062078712" y1="1.2479569397" x2="-0.5062078712" y2="1.1763552347" />
      <line x1="-0.5062078712" y1="1.5306526547" x2="-0.5062078712" y2="1.4590509251" />
      <line x1="0.7149060147" y1="1.3893047329" x2="0.7149060147" y2="1.3177030718" />
      <line x1="0.7149060147" y1="1.6720005857" x2="0.7149060147" y2="1.6003989227" />
      <line x1="-0.5062078712" y1="-5.2540461481" x2="-0.5062078712" y2="-5.4665650592" />
      <path d="M 0.2572078859,-5.7731590119 L 0.3451368916,-5.7618662442" />
    </g>
  </g>
</svg>