<?xml version='1.0' encoding='utf-8'?>
<svg width="152.3903093815mm" height="512.9999999992mm" viewBox="-1.5152329795 -4.3777895731 3.1607412911 10.6401797392" version="1.1" xmlns="http://www.w3.org/2000/svg">
  <g transform="scale(1,-1)" stroke-linecap="round">
    <g fill="none" stroke="rgb(64,192,64)" stroke-width="0.020741091109584817" id="Visible">
      <path d="M 1.1747838641,1.5451294975 A 1.57,0.9226332620423489 0.0 0,1 1.6351376661,2.1978301554" />
      <path d="M -1.5048623339,2.1978301554 A 1.57,0.9226332620423489 0.0 0,1 1.1747838641,1.5451294975" />
      <path d="M 0.5842924791,1.3270988947 Q 0.5468776913,1.2863897917 0.4966677237,1.2516703415" />
      <path d="M 0.3094845539,1.1598746855 C 0.1753645378,1.114320198 0.0197015854,1.0987590657 -0.1200120036,1.1143278112 C -0.3332622632,1.1364232521 -0.500464064,1.2326721789 -0.5363881092,1.3456017946" />
      <path d="M 0.6756945908,1.2577313483 C 0.6763415718,1.1518045398 0.6104411947,1.0465549002 0.4966677237,0.9684836681" />
      <path d="M 0.4966677237,0.9684836681 C 0.3647016119,0.8762297912 0.1690326427,0.8236426131 -0.0168404123,0.8253111699 C -0.1618334694,0.8257946199 -0.2988165814,0.8583227364 -0.3946625199,0.9124359144 C -0.4912187987,0.9661895086 -0.5458745823,1.0409374648 -0.5454185809,1.1161371333" />
      <path d="M -0.5454185809,1.1161371333 Q -0.5452909164,1.1707965632 -0.5094894371,1.2218687632" />
      <path d="M -0.4789339816,1.2577312671 Q -0.4464702638,1.2899001301 -0.4002446974,1.3166627076" />
      <path d="M 0.6756946095,0.9745446686 C 0.6763434808,0.8686168188 0.6104345899,0.7633626142 0.4966677237,0.6852970666" />
      <path d="M 0.4966677237,0.6852970666 C 0.3719547049,0.5981965248 0.1900385021,0.5460819763 0.0135438156,0.5424156384 C -0.1631217188,0.5375791582 -0.3312147324,0.5809662439 -0.4329477853,0.6532330844 C -0.5069655613,0.7062804685 -0.5444560605,0.7661865869 -0.5454192829,0.8329514395" />
      <path d="M -0.5454192829,0.8329514395 Q -0.5452742975,0.8876544948 -0.5094891085,0.93868176" />
      <path d="M -0.4789338065,0.9745446152 Q -0.4124881467,1.0400783002 -0.2951509898,1.0802750078" />
      <path d="M -0.1353752686,1.1161380423 Q -0.048650961,1.1270819005 0.0430453582,1.1223535979" />
      <path d="M 0.6756835418,0.6913339608 C 0.6763296293,0.5854064446 0.61045908,0.4802232252 0.4966677237,0.4021103708" />
      <path d="M 0.4966677237,0.4021103708 C 0.3190226461,0.2761292673 0.0231270313,0.2286579816 -0.203967999,0.2779182988 C -0.4097552758,0.31893819 -0.5479410526,0.4325862762 -0.5454192793,0.5497647099" />
      <path d="M -0.0658166265,0.8391629801 Q -0.0120362898,0.8420448543 0.0430377637,0.839166848" />
      <path d="M 0.6756945986,0.4081713764 C 0.6763390398,0.3022273506 0.6104279395,0.19698614 0.4966677237,0.118923667" />
      <path d="M 0.4966677237,0.118923667 C 0.3619479788,0.024686381 0.1607600613,-0.0280184923 -0.0284881756,-0.0241228765 C -0.1711165652,-0.0220193374 -0.3049960524,0.011144506 -0.3985106154,0.065055466 C -0.4927059442,0.118630132 -0.5458493956,0.1923848198 -0.5454182551,0.2665767787" />
      <path d="M -0.5454182551,0.2665767787 Q -0.5453572469,0.3103551434 -0.5221508229,0.3522051055" />
      <path d="M -0.1353746236,0.5497647014 Q -0.0138259395,0.565063429 0.1144739,0.5497646516" />
      <path d="M 0.5502001797,0.3723082426 Q 0.6053071298,0.3232095916 0.6371346847,0.2665780445" />
      <path d="M 0.6544579589,0.2307150833 Q 0.6756447362,0.1786809047 0.6756946105,0.1249848108" />
      <path d="M 0.6756946105,0.1249848108 C 0.6763418033,0.0190529266 0.6104347078,-0.0861964576 0.4966677237,-0.1642628592" />
      <path d="M 0.4966677237,-0.1642628592 C 0.3783841611,-0.2467578778 0.208863849,-0.2981063489 0.0410621861,-0.3061132304 C -0.1268058637,-0.3150726267 -0.290529597,-0.2808051437 -0.3990635796,-0.2178138485 C -0.4929500928,-0.1642368802 -0.545841997,-0.0906520484 -0.5454191342,-0.0166083533" />
      <path d="M -0.5454191342,-0.0166083533 Q -0.5452749086,0.0380829678 -0.5094891059,0.0891217407" />
      <path d="M -0.1353750829,0.2665781258 Q -0.0137888427,0.2818775283 0.1144750095,0.2665780743" />
      <path d="M 0.2850269475,0.2307148259 Q 0.4112108811,0.1920166164 0.505270069,0.1249837688" />
      <path d="M 0.5501982295,0.0891197751 Q 0.6052949714,0.0400535329 0.6371268159,-0.0166227326" />
      <path d="M 0.6544403669,-0.0525050783 Q 0.6756256441,-0.1045973911 0.6756791107,-0.1582663125" />
      <path d="M 0.6756791107,-0.1582663125 C 0.6763610347,-0.2640606534 0.610448127,-0.3693016825 0.4966677237,-0.447449635" />
      <path d="M 0.4966677237,-0.447449635 C 0.279176629,-0.6042073869 -0.1156125095,-0.6328522206 -0.3442511887,-0.5283146791 C -0.4712798505,-0.4739812006 -0.5462376547,-0.3873954627 -0.5453989897,-0.2998484226" />
      <path d="M -0.1353731393,-0.0166079904 Q -0.0138153211,-0.0013094265 0.1144676734,-0.0166080012" />
      <path d="M 0.2850260125,-0.0524707212 Q 0.4112161426,-0.0911707641 0.5052713674,-0.1582018271" />
      <path d="M 0.5501905647,-0.194056096 Q 0.6052995231,-0.2431534905 0.6371258394,-0.2997792768" />
      <path d="M 0.6544576203,-0.335657259 Q 0.675646421,-0.3876990959 0.6756946068,-0.4413885635" />
      <path d="M 0.6756946068,-0.4413885635 C 0.6763800677,-0.5472495928 0.6103918849,-0.6526275902 0.4966677237,-0.730636208" />
      <path d="M 0.3096268065,-0.8223964399 C 0.1123776497,-0.8902190803 -0.1305072445,-0.8893883506 -0.3020380912,-0.8279364281" />
      <path d="M -0.1353759486,-0.2997950865 Q -0.0138104986,-0.2844954134 0.114473721,-0.2997953845" />
      <path d="M 0.5502008995,-0.4772517795 Q 0.6053079855,-0.5263503225 0.6371345588,-0.5829821911" />
      <path d="M 0.6544579396,-0.618844982 Q 0.6756469455,-0.6708867993 0.6756948624,-0.7245751729" />
      <path d="M 0.6756948624,-0.7245751729 C 0.6763765029,-0.830439931 0.6103960032,-0.9358103735 0.4966677237,-1.0138228679" />
      <path d="M 0.309610409,-1.1055872486 C 0.112474987,-1.1733923999 -0.1305826393,-1.1725781533 -0.3020376916,-1.1111231641" />
      <path d="M -0.065819029,-0.5767701747 Q 0.023408628,-0.5719948136 0.1144729617,-0.5829816244" />
      <path d="M 0.5502004213,-0.7604382101 Q 0.6053106086,-0.8095397673 0.637134584,-0.8661682391" />
      <path d="M 0.6677334739,-0.9427224948 Q 0.6756878115,-0.9750532404 0.6756946017,-1.0077618218" />
      <path d="M -0.1353763826,-0.866168758 Q -0.0486846624,-0.8552264154 0.0430451338,-0.8599527776" />
      <path d="M 0.6756946952,-1.2909482074 C 0.6763575482,-1.3968531965 0.6104167794,-1.5021521384 0.4966677237,-1.5801962236" />
      <path d="M 0.4966677237,-1.5801962236 C 0.292009409,-1.7268428889 -0.0697500266,-1.7632173795 -0.3020391788,-1.6774959652" />
      <path d="M -0.5454192772,-1.4325417254 Q -0.5453609412,-1.3887809298 -0.5221509343,-1.3469148542" />
      <path d="M 0.0430447734,-1.1431395525 L 0.1144682574,-1.1493543609" />
      <path d="M 0.5559518849,-1.3320119597 Q 0.6070215726,-1.3789380495 0.6371347384,-1.4325418645" />
      <path d="M 0.6544579326,-1.4684047293 Q 0.6756457754,-1.5204432969 0.6756945979,-1.5741352491" />
      <path d="M 0.6756945979,-1.5741352491 C 0.6763519161,-1.680044008 0.6104276673,-1.785328734 0.4966677237,-1.8633828281" />
      <path d="M 0.3096231439,-1.9551439459 C 0.1433351386,-2.0119328826 -0.0559511659,-2.0213546635 -0.2168750557,-1.9848061399 C -0.4158124882,-1.9417687138 -0.5476931347,-1.8305172575 -0.5453868018,-1.7156600735" />
      <path d="M -0.5453868018,-1.7156600735 Q -0.5452352254,-1.6609600772 -0.5094881775,-1.6099996416" />
      <path d="M 0.309623002,-2.2383307175 C 0.0355158085,-2.3348631145 -0.3191510812,-2.2880758568 -0.4641290364,-2.1542738688 C -0.5178298092,-2.1066701361 -0.5449265571,-2.0548838705 -0.54541928,-1.9989150719" />
      <path d="M 0.043043231,-1.7095128457 L 0.1144742988,-1.7157285048" />
      <path d="M 0.4966677237,-2.4297561148 C 0.3223581217,-2.553012703 0.0356537263,-2.6014397662 -0.1898077829,-2.5567452072 C -0.4030143817,-2.5180161934 -0.5480940468,-2.4021437969 -0.5454193179,-2.2821017441" />
      <path d="M -0.5454193179,-2.2821017441 Q -0.5452758649,-2.227402748 -0.5094891825,-2.1763714597" />
      <path d="M -0.4789337606,-2.1405085112 Q -0.4124256759,-2.0749388074 -0.2951508156,-2.0347781597" />
      <path d="M -0.135374937,-1.9989151546 Q -0.0137840415,-1.9836162292 0.1144749567,-1.9989150979" />
      <path d="M 0.285027666,-2.03477809 Q 0.4111658773,-2.073455441 0.5052714159,-2.1405084321" />
      <path d="M 0.5502003936,-2.1763714568 Q 0.6052960461,-2.2254553068 0.6371346175,-2.2821015795" />
      <path d="M 0.6544579976,-2.3179647938 Q 0.6756493769,-2.3700186108 0.6756946086,-2.4236950966" />
      <path d="M 0.6756946086,-2.4236950966 C 0.6763510517,-2.5296050237 0.6104288258,-2.6348874574 0.4966677237,-2.7129427659" />
      <path d="M 0.4966677237,-2.7129427659 C 0.371801133,-2.8001395524 0.1896852331,-2.852257498 0.0130070697,-2.8558372847 C -0.1638413476,-2.8605900046 -0.3320185659,-2.8170066884 -0.4335960139,-2.744551149 C -0.5072107552,-2.6915004548 -0.544484719,-2.6317461776 -0.5454179052,-2.5652883173" />
      <path d="M -0.5454179052,-2.5652883173 Q -0.5452771807,-2.5106611359 -0.509470599,-2.4595847773" />
      <path d="M -0.1353745672,-2.282101708 L -0.0658171077,-2.2758900551" />
      <path d="M 0.0430428438,-2.2758860764 L 0.1144744809,-2.282101711" />
      <path d="M 0.2850241587,-2.3179657375 Q 0.4112415862,-2.3566859361 0.505271283,-2.4236951659" />
      <path d="M 0.3096228752,-3.0878905865 C 0.1296106955,-3.1495423276 -0.0888258214,-3.1549533879 -0.2557482625,-3.1078725003 C -0.4335891568,-3.0597334137 -0.5470656891,-2.955456789 -0.5454151016,-2.8484806167" />
      <path d="M -0.5454151016,-2.8484806167 Q -0.5452975705,-2.7938299308 -0.5094890151,-2.7427444592" />
      <path d="M -0.1353537045,-2.5652857575 L -0.0658191342,-2.5590768537" />
      <path d="M 0.0430437149,-2.5590728326 L 0.1144793095,-2.5652890096" />
      <path d="M 0.6756946182,-2.990068459 C 0.6764050358,-3.0958945718 0.6103478833,-3.2013586212 0.4966677237,-3.2793160686" />
      <path d="M 0.4966677237,-3.2793160686 C 0.3653896097,-3.3711088056 0.1708320987,-3.423684869 -0.0141669468,-3.4224989455 C -0.159051022,-3.4223900056 -0.2961456326,-3.3903169397 -0.3924739326,-3.3365830556 C -0.4895019286,-3.2832139605 -0.5449395706,-3.2087271814 -0.5454068113,-3.1336664716 C -0.5454109665,-3.1329982159 -0.5454151217,-3.1323299602 -0.5454192769,-3.1316617045" />
      <path d="M -0.1353749384,-2.8484750623 Q -0.013713305,-2.8331741549 0.1144640842,-2.8484769643" />
      <path d="M 0.550166213,-3.0259483616 Q 0.6051835861,-3.0750130662 0.6370914169,-3.1317388861" />
      <path d="M 0.6544320369,-3.1675883395 Q 0.6756730948,-3.219641392 0.6756946594,-3.2732549956" />
      <path d="M 0.6756946594,-3.2732549956 C 0.6763484461,-3.3791737189 0.6104264809,-3.4844479019 0.4966677237,-3.5625027602" />
      <path d="M 0.4966677237,-3.5625027602 C 0.3618990794,-3.6567797098 0.160571406,-3.7094873399 -0.0287026911,-3.7055458488 C -0.2520809453,-3.7031045034 -0.4483511468,-3.6213603353 -0.5156830352,-3.5113347828 C -0.5354402017,-3.4800962875 -0.5453522656,-3.4479341603 -0.5454192269,-3.4148484013" />
      <path d="M -0.4789337121,-3.2732549306 Q -0.4124449571,-3.2076968618 -0.2951510313,-3.1675246059" />
      <path d="M -0.1353743848,-3.1316616327 Q -0.0486675999,-3.1207192309 0.0430429298,-3.1254460961" />
      <path d="M 0.285027835,-3.1675247571 Q 0.4111634651,-3.2062012154 0.5052714105,-3.2732550106" />
      <path d="M 0.6756936451,-3.5564368818 C 0.6763387137,-3.6624074952 0.6104016547,-3.7676489235 0.4966677237,-3.8456894983" />
      <path d="M 0.4966677237,-3.8456894983 C 0.3676776057,-3.9358680744 0.1773037802,-3.9883537909 -0.004754982,-3.9888530354 C -0.1870765336,-3.99068609 -0.3573637706,-3.9408542224 -0.4533146045,-3.8624607641 C -0.5140668042,-3.8127306315 -0.54476836,-3.7579220238 -0.5454192721,-3.698034941" />
      <path d="M -0.4789337896,-3.5564416657 Q -0.4124873943,-3.4909070252 -0.2951500584,-3.4507111549" />
      <path d="M -0.1353751319,-3.4148483965 Q -0.0136119563,-3.3995475645 0.114474919,-3.4148483634" />
      <path d="M 0.2850158385,-3.4507077074 Q 0.411179104,-3.4893944237 0.5052714017,-3.5564416979" />
      <path d="M 0.6756946656,-3.83962839 C 0.6763549404,-3.9455296551 0.6104284666,-4.0508222827 0.4966677237,-4.1288759927" />
      <path d="M 0.4966677237,-4.1288759927 C 0.2920826868,-4.2755214119 -0.0697610103,-4.3118862848 -0.3020385275,-4.2261760586" />
      <path d="M -0.4789337939,-3.8396283983 Q -0.4124206368,-3.7740563112 -0.2951510191,-3.7338980079" />
      <path d="M -0.1353746597,-3.6980349737 Q -0.0486795015,-3.6870926476 0.0430455661,-3.6918194488" />
      <path d="M 0.2850277324,-3.7338980485 Q 0.4111943822,-3.772589566 0.5052714163,-3.8396283947" />
      <path d="M 0.6756946982,-4.1228148427 C 0.6763465052,-4.2287350221 0.6104322921,-4.3340017862 0.4966677237,-4.4120626716" />
      <path d="M 0.4966677237,-4.4120626716 Q 0.415123523,-4.4681888166 0.3096224802,-4.5038240751" />
      <path d="M -0.4789337218,-4.1228149142 Q -0.4124595428,-4.057265078 -0.2951509386,-4.0170846361" />
      <path d="M -0.0658158052,-3.9750101332 Q 0.0234276067,-3.9702354881 0.1144742514,-3.9812216757" />
      <path d="M 0.5502001421,-4.1586782989 Q 0.6053051203,-4.2077714669 0.6371347422,-4.2644082666" />
      <path d="M 0.6544580797,-4.3002715161 Q 0.6756467198,-4.3523149322 0.6756946154,-4.4060016199" />
      <path d="M 0.6756946154,-4.4060016199 C 0.6763525093,-4.5119075264 0.6104307539,-4.6171925526 0.4966677237,-4.6952493704" />
      <path d="M 0.4966677237,-4.6952493704 C 0.2921229562,-4.8418626402 -0.0696829334,-4.8782754723 -0.3020382954,-4.7925494348" />
      <path d="M -0.1353745787,-4.2644083953 L -0.0658179471,-4.2581967498" />
      <path d="M 0.0430439685,-4.2581926803 L 0.1144749095,-4.2644082893" />
      <path d="M 0.5501998181,-4.441864137 Q 0.6053143344,-4.4909701663 0.6371347021,-4.5475949342" />
      <path d="M 0.6544579731,-4.5834579762 Q 0.6756453863,-4.6354941805 0.6756946146,-4.6891883523" />
      <path d="M 0.6756946146,-4.6891883523 C 0.6763926608,-4.7950318721 0.6103695414,-4.9004531517 0.4966677237,-4.9784359042" />
      <path d="M 0.4966677237,-4.9784359042 C 0.2919697886,-5.1251084683 -0.0698683786,-5.1614453821 -0.3020391151,-5.0757357191" />
      <path d="M 0.0430437139,-4.5413793493 L 0.1144747473,-4.5475949819" />
      <path d="M 0.5502004172,-4.7250513763 Q 0.6053161818,-4.7741591729 0.6371347018,-4.830781566" />
      <path d="M 0.6677334335,-4.9073354402 Q 0.6756874742,-4.9396632766 0.6756946166,-4.9723748663" />
      <path d="M 0.6756946166,-4.9723748663 C 0.6763955894,-5.0782147083 0.6103640998,-5.1836461437 0.4966677237,-5.2616226961" />
      <path d="M 0.4966677237,-5.2616226961 C 0.2920854715,-5.4082708965 -0.069837326,-5.4446328725 -0.3020318887,-5.3589240987" />
      <path d="M -0.5454165573,-5.1139720569 Q -0.5452720026,-5.0593205984 -0.5094729493,-5.0082609652" />
      <path d="M -0.1353539082,-4.8307843146 Q -0.0139059931,-4.8154807937 0.1144662349,-4.8307806337" />
      <path d="M 0.2850276408,-4.8666446095 Q 0.4112215851,-4.9053485773 0.5052713986,-4.9723748517" />
      <path d="M 0.5502004419,-5.0082378785 Q 0.6052801671,-5.0573019162 0.6371346924,-5.1139682428" />
      <path d="M 0.6677335038,-5.1905224328 Q 0.6756888859,-5.222861729 0.6756946674,-5.2555616668" />
      <path d="M -0.3020402885,-5.6421088515 C -0.4536691856,-5.5898316594 -0.5466311984,-5.4942572476 -0.5454174061,-5.3971593363" />
      <path d="M -0.5454174061,-5.3971593363 Q -0.5452819734,-5.3424692385 -0.5094892476,-5.2914246657" />
      <path d="M -0.1353745525,-5.1139682634 Q -0.0137957142,-5.0986692783 0.1144752452,-5.1139682545" />
      <path d="M 0.2850278679,-5.1498312291 Q 0.4111695561,-5.1885107225 0.5052714069,-5.2555616423" />
      <path d="M 0.5502003715,-5.2914246359 Q 0.6052925302,-5.3405032741 0.6371347231,-5.3971549094" />
      <path d="M 0.6544580356,-5.4330181075 Q 0.6756465714,-5.4850608588 0.6756946241,-5.5387481943" />
      <path d="M 0.3096222973,-5.9197574364 C 0.0866660805,-5.9969818704 -0.1936207256,-5.9841068577 -0.3650502145,-5.8993967808 C -0.4796153255,-5.8449386127 -0.5460861915,-5.762997321 -0.545412726,-5.6803337266" />
      <path d="M -0.545412726,-5.6803337266 Q -0.545220963,-5.625615848 -0.5094685673,-5.5746021832" />
      <path d="M -0.0658189986,-5.390943244 Q 0.0234322697,-5.3861687086 0.1144743377,-5.3971549133" />
      <path d="M 0.6305624804,-6.1019091443 C 0.7796226899,-6.0032935852 0.8659884938,-5.8690345436 0.8651375633,-5.7339036099" />
      <path d="M 0.8646653677,-5.7162044475 Q 0.8548931254,-5.5617941177 0.7164803397,-5.4330179044" />
      <path d="M 0.309620103,-5.2294645688 Q 0.1795486763,-5.1974149787 0.0430440018,-5.1919098958" />
      <path d="M -0.0658181159,-5.1919059408 Q -0.1900644005,-5.197055643 -0.3020361123,-5.2239261892" />
      <path d="M -0.5180447152,-5.3044696512 C -0.6563683644,-5.3790851654 -0.735587114,-5.4853421908 -0.7348623359,-5.5923101494" />
      <path d="M -0.7348623359,-5.5923101494 C -0.7359689505,-5.7117483231 -0.636362154,-5.829963777 -0.4680772793,-5.9048715681 C -0.3012676307,-5.9807491085 -0.0688798993,-6.0116903839 0.1543430801,-5.9836773037 C 0.3479432433,-5.9603288231 0.5322038542,-5.893475185 0.6615287802,-5.7969484339 C 0.791804469,-5.7009213433 0.8657752851,-5.5761212991 0.8651376111,-5.4507170658" />
      <path d="M 0.8651376111,-5.4507170658 Q 0.8650111147,-5.369265575 0.8260559887,-5.2914246222" />
      <path d="M -0.0658185186,-4.9087192504 Q -0.1900660297,-4.9138688633 -0.302038645,-4.9407398822" />
      <path d="M -0.7341684311,-5.2914244579 L -0.7348623028,-5.3091236222" />
      <path d="M -0.7348623028,-5.3091236222 C -0.73707938,-5.4527243224 -0.5906675768,-5.59332628 -0.3607999461,-5.6615889291 C -0.1204829703,-5.7362927699 0.2032594417,-5.7256787944 0.4519513779,-5.627103991 C 0.703278158,-5.5313318876 0.8678621675,-5.3513942065 0.8651378417,-5.167530536" />
      <path d="M 0.8651378417,-5.167530536 Q 0.8650113204,-5.0860788889 0.8260558798,-5.0082378995" />
      <path d="M 0.3096225317,-4.6630918723 Q 0.1795506143,-4.6310418392 0.0430450171,-4.6255365835" />
      <path d="M -0.0658185592,-4.6255325885 Q -0.1900664317,-4.6306823859 -0.302039214,-4.6575535377" />
      <path d="M -0.7341687116,-5.0082384951 L -0.7348625879,-5.0259376748" />
      <path d="M -0.7348625879,-5.0259376748 C -0.734751651,-5.0740546372 -0.7198276609,-5.1206945362 -0.6900906174,-5.1658573719 C -0.6288620043,-5.2592789218 -0.5030412266,-5.3389122522 -0.3415603534,-5.3840240723 C -0.1806359358,-5.4296896435 0.0144927113,-5.4403288578 0.1989607616,-5.4110727021 C 0.3836118067,-5.3824505372 0.5559355839,-5.3140990709 0.6763083623,-5.2193117208 C 0.7975171494,-5.1249393098 0.8656845476,-5.0048898384 0.8651374364,-4.8843437809" />
      <path d="M 0.8651374364,-4.8843437809 L 0.8646652414,-4.8666446153" />
      <path d="M -0.7341687107,-4.7250507341 L -0.734862587,-4.7427498856" />
      <path d="M -0.734862587,-4.7427498856 C -0.7357113208,-4.8542026823 -0.6494507873,-4.9647852203 -0.5005481814,-5.0397851358 C -0.3528460965,-5.11549066 -0.1445945058,-5.1543837263 0.0651375287,-5.1420854832 C 0.2748695685,-5.1307850517 0.4831205661,-5.0682931776 0.6308229467,-4.9689886191 C 0.7797259163,-4.8703896056 0.8659867852,-4.7362084281 0.8651378418,-4.6011570305" />
      <path d="M 0.8651378418,-4.6011570305 Q 0.8650113345,-4.5197055527 0.8260559881,-4.441864611" />
      <path d="M 0.3096235496,-4.0967189627 Q 0.1795506849,-4.0646686585 0.0430437856,-4.0591633063" />
      <path d="M -0.065818979,-4.0591592308 Q -0.1900660438,-4.0643088366 -0.3020376688,-4.0911797534" />
      <path d="M -0.734862303,-4.4595639411 C -0.7357112797,-4.5710161054 -0.6494508329,-4.6815985747 -0.5005477136,-4.7565987939 C -0.3528452055,-4.8323045582 -0.1445940168,-4.8711971485 0.0651376289,-4.8588986656 C 0.2748692731,-4.8475979778 0.4831205012,-4.7851065421 0.630823027,-4.6858022139 C 0.7797261675,-4.5872034582 0.8659865909,-4.4530219136 0.8651376111,-4.3179704973" />
      <path d="M 0.8651376111,-4.3179704973 L 0.864665415,-4.3002713325" />
      <path d="M -0.7348623364,-4.1763774157 C -0.7357113328,-4.2878300462 -0.6494506684,-4.398412398 -0.5005474311,-4.4734122046 C -0.3528447989,-4.5491175669 -0.144593693,-4.5880103341 0.0651379068,-4.5757121126 C 0.2748694982,-4.564411705 0.4831208086,-4.5019198983 0.6308232886,-4.4026152457 C 0.7797263947,-4.3040161144 0.8659865401,-4.1698351931 0.8651375631,-4.0347839527" />
      <path d="M 0.8651375631,-4.0347839527 L 0.8646653676,-4.0170847838" />
      <path d="M -0.734168522,-3.8754909139 L -0.7348623933,-3.8931900773" />
      <path d="M -0.7348623933,-3.8931900773 C -0.7357112924,-4.0046424219 -0.6494510323,-4.1152247712 -0.500548553,-4.1902249842 C -0.3528466834,-4.2659307491 -0.1445957049,-4.3048237502 0.0651362781,-4.2925255258 C 0.274868295,-4.2812250921 0.4831193132,-4.2187337384 0.6308216883,-4.1194296204 C 0.7797245622,-4.0208311099 0.8659868721,-3.8866494909 0.8651378312,-3.7515984042" />
      <path d="M 0.8651378312,-3.7515984042 L 0.8646656306,-3.7338992078" />
      <path d="M -0.7341683313,-3.5923051006 L -0.7348621994,-3.6100042686" />
      <path d="M -0.7348621994,-3.6100042686 C -0.7403687906,-3.7947486004 -0.4917861304,-3.9695236535 -0.1565071813,-4.0035875056 C 0.1757193975,-4.043869498 0.5620453632,-3.9379166326 0.7423209135,-3.7440242278 C 0.8233437631,-3.658945653 0.86428267,-3.5670746296 0.8651376343,-3.4684111578" />
      <path d="M 0.8651376343,-3.4684111578 L 0.8646654403,-3.4507119898" />
      <path d="M -0.7341685902,-3.3091177707 L -0.7348624612,-3.3268169339" />
      <path d="M -0.7348624612,-3.3268169339 C -0.7366490926,-3.4623580521 -0.6069328344,-3.5956319792 -0.397949859,-3.6672020471 C -0.1910354664,-3.7404845019 0.0888566453,-3.7494398232 0.3290130909,-3.6846914419 C 0.6439197114,-3.6044050776 0.8698308062,-3.3988387361 0.8651376404,-3.1852239728" />
      <path d="M 0.8651376404,-3.1852239728 L 0.8646654427,-3.1675248057" />
      <path d="M -0.7341684377,-3.0259314836 L -0.7348623084,-3.0436306515" />
      <path d="M -0.7348623084,-3.0436306515 C -0.7395426808,-3.2200113542 -0.5139977978,-3.3883728813 -0.1994333522,-3.4317031821 C 0.0407604842,-3.4679517949 0.3208418813,-3.4304409138 0.5279246769,-3.3285147327 C 0.7370785132,-3.2283046463 0.8669277093,-3.0663070767 0.8651377938,-2.9020369177" />
      <path d="M 0.8651377938,-2.9020369177 Q 0.8650597565,-2.8299829287 0.8344033082,-2.7604438417" />
      <path d="M -0.0658193792,-2.3600393454 Q -0.1900664096,-2.3651891571 -0.3020386313,-2.392060163" />
      <path d="M -0.5179913847,-2.4725742086 C -0.6563476631,-2.5471917248 -0.7355873504,-2.6534621561 -0.7348623031,-2.760444419" />
      <path d="M -0.7348623031,-2.760444419 C -0.7340128953,-2.8420964297 -0.6932046815,-2.9169889103 -0.6124376616,-2.9851218607 C -0.4323734039,-3.1404084309 -0.0459664769,-3.2077895981 0.2864284408,-3.1288030222 C 0.621874798,-3.0560434584 0.8706512464,-2.8424405713 0.8651375309,-2.6188510789" />
      <path d="M 0.8651375309,-2.6188510789 Q 0.8650110165,-2.5373993004 0.826055709,-2.4595581149" />
      <path d="M -0.0658189964,-2.0768528124 Q -0.1900666403,-2.0820025493 -0.3020391553,-2.1088736464" />
      <path d="M -0.7341686256,-2.4595590498 L -0.7348625008,-2.4772582521" />
      <path d="M -0.7348625008,-2.4772582521 C -0.7357115377,-2.5887104638 -0.649449231,-2.6992932062 -0.5005463597,-2.7742928394 C -0.3528439861,-2.8499980805 -0.1445929651,-2.8888905587 0.065139052,-2.8765921161 C 0.2748710353,-2.8652914641 0.4831220124,-2.8027995857 0.6308238829,-2.7034949441 C 0.779726363,-2.6048958542 0.8659866255,-2.4707146284 0.8651377262,-2.3356634067" />
      <path d="M 0.8651377262,-2.3356634067 Q 0.8650597004,-2.263609592 0.8344033436,-2.1940705695" />
      <path d="M -0.0658172933,-1.7936660967 Q -0.1900651767,-1.7988156397 -0.3020381105,-1.8256865647" />
      <path d="M -0.7341683638,-2.1763715662 L -0.7348622311,-2.1940707366" />
      <path d="M -0.7348622311,-2.1940707366 C -0.7357112083,-2.3055230925 -0.649451061,-2.416105132 -0.5005479545,-2.4911053805 C -0.352845474,-2.5668111502 -0.1445941646,-2.6057040724 0.0651374267,-2.5934055966 C 0.2748690263,-2.5821049347 0.4831201327,-2.5196132853 0.6308227645,-2.4203090401 C 0.7797260015,-2.3217103507 0.8659866645,-2.1875291148 0.8651376681,-2.0524776015" />
      <path d="M 0.8651376681,-2.0524776015 Q 0.8650111481,-1.9710258596 0.8260558741,-1.8931848149" />
      <path d="M -0.0658188977,-1.5104794422 Q -0.1900465895,-1.5156280554 -0.3020043073,-1.5424918079" />
      <path d="M -0.734168411,-1.8931847855 L -0.734862279,-1.9108839497" />
      <path d="M -0.734862279,-1.9108839497 C -0.7357112589,-2.022336483 -0.649450835,-2.1329191427 -0.5005476941,-2.2079190141 C -0.352845168,-2.2836244578 -0.1445939401,-2.3225170105 0.0651377036,-2.3102188149 C 0.2748693489,-2.2989184145 0.4831205376,-2.2364269393 0.6308230459,-2.1371222911 C 0.7797261654,-2.0385231877 0.8659866118,-1.9043418366 0.865137635,-1.7692907886" />
      <path d="M 0.865137635,-1.7692907886 Q 0.8650111259,-1.6878392566 0.8260558173,-1.6099981457" />
      <path d="M -0.0658179653,-1.2272928659 Q -0.1900662048,-1.2324425513 -0.3020391559,-1.2593136966" />
      <path d="M -0.5264663929,-1.34451066 C -0.6596646633,-1.4188244642 -0.7355311329,-1.5229403528 -0.7348625095,-1.6276972383" />
      <path d="M -0.7348625095,-1.6276972383 C -0.7357114527,-1.7391497375 -0.6494505854,-1.8497320175 -0.5005476179,-1.9247321339 C -0.3528452392,-2.0004377953 -0.1445942419,-2.0393307718 0.0651377984,-2.027032306 C 0.2748698334,-2.0157316517 0.483121423,-1.9532396895 0.6308235079,-1.8539352688 C 0.7797261134,-1.755336457 0.8659866536,-1.6211550192 0.8651379201,-1.4861033263" />
      <path d="M 0.8651379201,-1.4861033263 Q 0.8650113597,-1.4046519897 0.8260559329,-1.3268114952" />
      <path d="M -0.0658151102,-0.9441060393 Q -0.1900648521,-0.9492555347 -0.3020394604,-0.9761270907" />
      <path d="M -0.7341682378,-1.3268114953 L -0.7348621042,-1.3445106609" />
      <path d="M -0.7348621042,-1.3445106609 C -0.7354085161,-1.4439500336 -0.6672874986,-1.5428936281 -0.5461518931,-1.6161845719 C -0.4258513899,-1.6898898112 -0.2536246183,-1.7371846642 -0.0690486957,-1.744780697 C 0.11534397,-1.7530098605 0.3104219597,-1.7213739551 0.4713596291,-1.6547220598 C 0.6328523926,-1.5886234332 0.7587507442,-1.4880122516 0.8201225509,-1.3735878023 C 0.8500206425,-1.3181870475 0.8650257652,-1.2612971128 0.8651379191,-1.2029179983" />
      <path d="M 0.8651379191,-1.2029179983 Q 0.8650598261,-1.1308635667 0.8344030794,-1.0613239815" />
      <path d="M 0.826055817,-1.0436248432 Q 0.7751731014,-0.9430591335 0.6677334627,-0.8613405233" />
      <path d="M 0.6473460362,-0.8464244678 L 0.6054455372,-0.8188340647" />
      <path d="M 0.3096230243,-0.6984790129 Q 0.1795521514,-0.666429192 0.0430478348,-0.6609235972" />
      <path d="M -0.7348625097,-1.0613240798 C -0.737582424,-1.2130868806 -0.5731507345,-1.3609320088 -0.321998545,-1.4247116235 C -0.0734791253,-1.4912886884 0.2500962437,-1.4700098748 0.4904512861,-1.3634505494 C 0.7206655429,-1.2648965915 0.8673623645,-1.0938196765 0.8651376352,-0.9197305322" />
      <path d="M 0.8651376352,-0.9197305322 Q 0.865011136,-0.8382791009 0.826055874,-0.7604381737" />
      <path d="M 0.3096209031,-0.4152917513 Q 0.179520725,-0.3832351688 0.0429860591,-0.3777346354" />
      <path d="M -0.0657482283,-0.3777301525 Q -0.1900338593,-0.3828749751 -0.3020391903,-0.4097538091" />
      <path d="M -0.7341684109,-0.7604382041 L -0.734862279,-0.7781373711" />
      <path d="M -0.734862279,-0.7781373711 C -0.7354983897,-0.8815557945 -0.6616245708,-0.9843719163 -0.5314989788,-1.0584675069 C -0.4023222094,-1.1330612765 -0.2182578733,-1.1780367966 -0.0248000627,-1.179569577 C 0.1985216092,-1.1824285104 0.4311079797,-1.1262694773 0.5980778619,-1.0251030242 C 0.7665253186,-0.9249087646 0.8662466161,-0.7813392559 0.8651376685,-0.6365437175" />
      <path d="M 0.8651376685,-0.6365437175 C 0.8657365061,-0.5131602071 0.7942103321,-0.3903339724 0.6677329099,-0.294966764" />
      <path d="M 0.647338204,-0.2800456394 L 0.6054456844,-0.2524609143" />
      <path d="M 0.3096235851,-0.1321059607 Q 0.1795240381,-0.1000490643 0.0429898377,-0.0945479949" />
      <path d="M -0.0658191498,-0.0945461354 Q -0.1900660891,-0.0996958389 -0.3020382739,-0.1265667905" />
      <path d="M -0.7341683636,-0.4772514238 L -0.7348622309,-0.4949505847" />
      <path d="M -0.7348622309,-0.4949505847 C -0.7357093104,-0.6063372788 -0.649554775,-0.7168571271 -0.5008082495,-0.7918532282 C -0.2800042868,-0.9073166102 0.0803147254,-0.9318084363 0.3711136537,-0.8408517883 C 0.6649373805,-0.7541880874 0.8690911938,-0.556977545 0.8651377254,-0.3533579141" />
      <path d="M 0.8651377254,-0.3533579141 C 0.8657365058,-0.2299740744 0.7942099082,-0.1071473323 0.6677320781,-0.0117795961" />
      <path d="M 0.6473463108,0.0031352424 L 0.6054450196,0.0307262132" />
      <path d="M 0.3096228074,0.1510811161 Q 0.1795505188,0.18313117 0.0430446062,0.1886363965" />
      <path d="M -0.0658185938,0.1886403954 Q -0.1900664851,0.1834906406 -0.302039149,0.1566195486" />
      <path d="M -0.7341686241,-0.1940639361 L -0.734862499,-0.2117630645" />
      <path d="M -0.734862499,-0.2117630645 C -0.734861123,-0.227613568 -0.7331980478,-0.24340947 -0.7298732735,-0.2591507704 C -0.7080568566,-0.365924107 -0.6061567469,-0.4666855073 -0.4512106215,-0.5316820456 C -0.2972171374,-0.5973409627 -0.0920678607,-0.6262964458 0.1098102631,-0.6078473207 C 0.3117707383,-0.5902640618 0.5079881705,-0.5253572145 0.6464031755,-0.4273280641 C 0.7858904431,-0.3298947742 0.8658753401,-0.2003960653 0.8651375316,-0.0701702396" />
      <path d="M 0.8651375316,-0.0701702396 Q 0.8650110474,0.0112810362 0.8260560626,0.0891217351" />
      <path d="M -0.0658178469,0.471827079 Q -0.1900661411,0.4666773747 -0.3020397537,0.439806077" />
      <path d="M -0.7341684376,0.0891222594 L -0.7348623022,0.0714230962" />
      <path d="M -0.7348623022,0.0714230962 C -0.7357111892,-0.0400296783 -0.6494513964,-0.150611726 -0.5005485173,-0.2256118874 C -0.352846254,-0.3013175918 -0.1445946728,-0.3402108023 0.0651370973,-0.3279124902 C 0.2748688863,-0.3166120014 0.4831199128,-0.2541201877 0.6308225704,-0.1548158256 C 0.7797258179,-0.0562170071 0.8659867789,0.0779640968 0.8651377934,0.2130155969" />
      <path d="M 0.8651377934,0.2130155969 L 0.8646655951,0.2307147642" />
      <path d="M -0.7341684376,0.3723084954 L -0.7348623083,0.3546093322" />
      <path d="M -0.7348623083,0.3546093322 C -0.7357112745,0.2431570219 -0.6494508477,0.1325742499 -0.5005477584,0.0575741878 C -0.3528452802,-0.0181314457 -0.1445940456,-0.0570238983 0.0651376661,-0.0447255623 C 0.2748693779,-0.0334250122 0.4831206122,0.0290663273 0.6308230904,0.1283708483 C 0.7797261797,0.2269697981 0.8659866068,0.3611514564 0.8651376406,0.4962026526" />
      <path d="M 0.8651376406,0.4962026526 L 0.8646654429,0.5139018166" />
      <path d="M -0.7348624617,0.6377956149 C -0.7357114471,0.5263430087 -0.6494504853,0.4157607986 -0.5005472382,0.340760873 C -0.352844581,0.2650554039 -0.1445935546,0.2261624835 0.0651382356,0.2384608892 C 0.2748700069,0.2497614716 0.4831215891,0.3122535765 0.6308238512,0.4115581743 C 0.7797267289,0.5101572288 0.8659865216,0.6443381716 0.8651376352,0.7793898413" />
      <path d="M 0.8651376352,0.7793898413 C 0.8654746979,0.8858293422 0.8127218635,0.9920001197 0.7164805834,1.0802749316" />
      <path d="M -0.2702820852,1.2964988639 L -0.3020393569,1.2893660984" />
      <path d="M -0.5180454419,1.2088229674 C -0.6563688276,1.1342072944 -0.7355869728,1.0279504939 -0.7348621987,0.9209829477" />
      <path d="M -0.7348621987,0.9209829477 C -0.7355991379,0.8135495049 -0.6556648856,0.7068420846 -0.5162544131,0.6321720307 C -0.3779151729,0.5569069633 -0.1817966844,0.5147347851 0.0200971758,0.5198544726 C 0.2219081039,0.5241093364 0.4270262982,0.575737632 0.5810636617,0.6640662806 C 0.7360517662,0.7517329449 0.8380705577,0.8751635689 0.8600660936,1.0046449893 C 0.8634458314,1.0238997237 0.8651364112,1.0432104208 0.8651378329,1.0625770806" />
      <path d="M 0.8651378329,1.0625770806 Q 0.8633524231,1.2240657828 0.7207498155,1.3594916381" />
      <path d="M -0.6624784429,1.3802634153 Q -0.7344238926,1.2967897009 -0.734862394,1.2041687583" />
      <path d="M -0.734862394,1.2041687583 C -0.7388101625,1.0360220225 -0.5348289727,0.8742721403 -0.2411787485,0.8229526941 C 0.0494476791,0.7673473074 0.4096356215,0.8270700726 0.6305624804,0.9777571001 C 0.7796226899,1.0763726593 0.8659884938,1.2106317008 0.8651375633,1.3457626346" />
      <path d="M 0.8651375633,1.3457626346 Q 0.8651356533,1.3741030841 0.8603098363,1.4022875549" />
      <path d="M -0.716873448,1.397794789 C -0.6761381873,1.2960375624 -0.5615398199,1.2042856435 -0.4018340585,1.1483327665 C -0.2428947701,1.0917531832 -0.0405794262,1.0717042302 0.1543430801,1.0959889408 C 0.4028003492,1.1254299035 0.6337511556,1.2281708496 0.7574888058,1.3697548033" />
      <path d="M 0.6305624804,-6.1019091443 L 0.6305624804,-6.0665108131" />
      <path d="M 0.6305624804,-6.0665108131 C 0.7796226899,-5.967895254 0.8659884938,-5.8336362124 0.8651375633,-5.6985052786" />
      <path d="M 0.8651375633,-5.6985052786 Q 0.8636920487,-5.5457740459 0.7349046534,-5.4153187409" />
      <path d="M -0.4659474478,-5.2433965703 L -0.483132662,-5.2513157909" />
      <path d="M -0.5221509789,-5.2713212303 C -0.6579783214,-5.3457993375 -0.7355594368,-5.4510173517 -0.7348623359,-5.5569118182" />
      <path d="M -0.7348623359,-5.5569118182 C -0.7359689505,-5.6763499918 -0.636362154,-5.7945654457 -0.4680772793,-5.8694732368 C -0.3012676307,-5.9453507773 -0.0688798993,-5.9762920526 0.1543430801,-5.9482789725 C 0.3479432433,-5.9249304919 0.5322038542,-5.8580768538 0.6615287802,-5.7615501027 C 0.791804469,-5.6655230121 0.8657752851,-5.5407229679 0.8651376111,-5.4153187346" />
      <path d="M 0.8651376111,-5.4153187346 Q 0.8650595804,-5.3432647345 0.8344032412,-5.2737255081" />
      <path d="M -0.6889758673,-5.1321321443 Q -0.7346875517,-5.2006296481 -0.7348623028,-5.2737252909" />
      <path d="M -0.7348623028,-5.2737252909 C -0.73707938,-5.4173259912 -0.5906675768,-5.5579279488 -0.3607999461,-5.6261905978 C -0.1204829703,-5.7008944387 0.2032594417,-5.6902804632 0.4519513779,-5.5917056598 C 0.703278158,-5.4959335563 0.8678621675,-5.3159958752 0.8651378417,-5.1321322047" />
      <path d="M 0.8651378417,-5.1321322047 Q 0.8650597938,-5.0600779871 0.8344031326,-4.9905386543" />
      <path d="M -0.4659467619,-4.6770229193 L -0.4831327897,-4.6849425217" />
      <path d="M -0.5221509391,-4.7049479238 L -0.5264664559,-4.7073521499" />
      <path d="M -0.5561028968,-4.7250513043 C -0.6710968295,-4.7976449903 -0.7353519557,-4.8938766369 -0.7348625879,-4.9905393436" />
      <path d="M -0.7348625879,-4.9905393436 C -0.734751651,-5.038656306 -0.7198276609,-5.085296205 -0.6900906174,-5.1304590407 C -0.6288620043,-5.2238805906 -0.5030412266,-5.303513921 -0.3415603534,-5.3486257411 C -0.1806359358,-5.3942913123 0.0144927113,-5.4049305266 0.1989607616,-5.3756743709 C 0.3836118067,-5.347052206 0.5559355839,-5.2787007396 0.6763083623,-5.1839133896 C 0.7975171494,-5.0895409785 0.8656845476,-4.9694915072 0.8651374364,-4.8489454497" />
      <path d="M 0.8651374364,-4.8489454497 C 0.8657011005,-4.7274702617 0.7964435955,-4.6065108722 0.673518064,-4.5118038258" />
      <path d="M 0.6587288007,-4.5006471152 Q 0.6115292803,-4.4660036147 0.5559511574,-4.4366637977" />
      <path d="M -0.6889758672,-4.5657587576 Q -0.7346877303,-4.6342559167 -0.734862587,-4.7073515544" />
      <path d="M -0.734862587,-4.7073515544 C -0.7357113208,-4.8188043511 -0.6494507873,-4.9293868891 -0.5005481814,-5.0043868046 C -0.3528460965,-5.0800923288 -0.1445945058,-5.1189853951 0.0651375287,-5.106687152 C 0.2748695685,-5.0953867205 0.4831205661,-5.0328948464 0.6308229467,-4.9335902879 C 0.7797259163,-4.8349912743 0.8659867852,-4.7008100969 0.8651378418,-4.5657586992" />
      <path d="M 0.8651378418,-4.5657586992 C 0.8657015533,-4.4442838012 0.7964434815,-4.3233245303 0.6735183176,-4.22861762" />
      <path d="M 0.6587286002,-4.2174605561 Q 0.6115294314,-4.1828173027 0.5559519105,-4.1534776761" />
      <path d="M -0.4659468799,-4.1106494547 L -0.4831329423,-4.1185690502" />
      <path d="M -0.5221432835,-4.1385701212 L -0.5264666146,-4.1409786647" />
      <path d="M -0.5561030129,-4.1586778174 Q -0.6428028155,-4.2139489158 -0.6889759329,-4.2825723793" />
      <path d="M -0.7000138033,-4.3002715725 Q -0.7347618468,-4.3606995728 -0.734862303,-4.4241656099" />
      <path d="M -0.734862303,-4.4241656099 C -0.7357112797,-4.5356177742 -0.6494508329,-4.6462002435 -0.5005477136,-4.7212004627 C -0.3528452055,-4.7969062269 -0.1445940168,-4.8357988173 0.0651376289,-4.8235003344 C 0.2748692731,-4.8121996465 0.4831205012,-4.7497082109 0.630823027,-4.6504038827 C 0.7797261675,-4.551805127 0.8659865909,-4.4176235824 0.8651376111,-4.2825721661" />
      <path d="M 0.8651376111,-4.2825721661 Q 0.8650595708,-4.2105180205 0.8344031509,-4.1409788281" />
      <path d="M -0.465947389,-3.8274633067 L -0.4831328824,-3.8353826693" />
      <path d="M -0.5221509367,-3.8553880087 C -0.6579782463,-3.9298662153 -0.7355593626,-4.0350843772 -0.7348623364,-4.1409790845" />
      <path d="M -0.7348623364,-4.1409790845 C -0.7357113328,-4.2524317149 -0.6494506684,-4.3630140668 -0.5005474311,-4.4380138734 C -0.3528447989,-4.5137192357 -0.144593693,-4.5526120029 0.0651379068,-4.5403137813 C 0.2748694982,-4.5290133737 0.4831208086,-4.466521567 0.6308232886,-4.3672169145 C 0.7797263947,-4.2686177832 0.8659865401,-4.1344368619 0.8651375631,-3.9993856215" />
      <path d="M 0.8651375631,-3.9993856215 Q 0.8650595333,-3.9273316777 0.8344032877,-3.8577923692" />
      <path d="M -0.4659474099,-3.5442766147 L -0.4831328507,-3.5521959586" />
      <path d="M -0.5221509077,-3.5722013078 C -0.6579783259,-3.6466795959 -0.7355595202,-3.7518975822 -0.7348623933,-3.857791746" />
      <path d="M -0.7348623933,-3.857791746 C -0.7357112924,-3.9692440906 -0.6494510323,-4.0798264399 -0.500548553,-4.154826653 C -0.3528466834,-4.2305324178 -0.1445957049,-4.269425419 0.0651362781,-4.2571271946 C 0.274868295,-4.2458267608 0.4831193132,-4.1833354072 0.6308216883,-4.0840312892 C 0.7797245622,-3.9854327787 0.8659868721,-3.8512511596 0.8651378312,-3.7162000729" />
      <path d="M 0.8651378312,-3.7162000729 Q 0.8650597436,-3.6441454093 0.8344034558,-3.574605564" />
      <path d="M -0.465947071,-3.2610896737 L -0.4831328265,-3.2690091635" />
      <path d="M -0.5221511883,-3.2890147097 C -0.6579784372,-3.3634931834 -0.7355592216,-3.4687114702 -0.7348621994,-3.5746059374" />
      <path d="M -0.7348621994,-3.5746059374 C -0.7403687906,-3.7593502692 -0.4917861304,-3.9341253222 -0.1565071813,-3.9681891744 C 0.1757193975,-4.0084711668 0.5620453632,-3.9025183013 0.7423209135,-3.7086258966 C 0.8233437631,-3.6235473217 0.86428267,-3.5316762984 0.8651376343,-3.4330128265" />
      <path d="M 0.8651376343,-3.4330128265 Q 0.8650595872,-3.360958374 0.8344031025,-3.2914189365" />
      <path d="M -0.6889759297,-3.1498253803 Q -0.734687699,-3.2183228033 -0.7348624612,-3.2914186027" />
      <path d="M -0.7348624612,-3.2914186027 C -0.7366490926,-3.4269597209 -0.6069328344,-3.560233648 -0.397949859,-3.6318037159 C -0.1910354664,-3.7050861706 0.0888566453,-3.714041492 0.3290130909,-3.6492931107 C 0.6439197114,-3.5690067464 0.8698308062,-3.3634404049 0.8651376404,-3.1498256416" />
      <path d="M 0.8651376404,-3.1498256416 Q 0.8650923722,-3.0870423005 0.8417026904,-3.0259314498" />
      <path d="M 0.8344031367,-3.0082322547 Q 0.8055621248,-2.9431188638 0.7518198239,-2.8843381499" />
      <path d="M -0.4659469615,-2.6947162982 L -0.4831115011,-2.7026256867" />
      <path d="M -0.5221507669,-2.7226411279 C -0.6579782702,-2.7971195234 -0.7355593866,-2.9023380177 -0.7348623084,-3.0082323203" />
      <path d="M -0.7348623084,-3.0082323203 C -0.7395426808,-3.184613023 -0.5139977978,-3.3529745501 -0.1994333522,-3.3963048509 C 0.0407604842,-3.4325534637 0.3208418813,-3.3950425825 0.5279246769,-3.2931164015 C 0.7370785132,-3.1929063151 0.8669277093,-3.0309087455 0.8651377938,-2.8666385865" />
      <path d="M 0.8651377938,-2.8666385865 Q 0.8650925243,-2.8038552821 0.8417028452,-2.7427446172" />
      <path d="M 0.8344033082,-2.7250455105 Q 0.8055621575,-2.6599320158 0.75181956,-2.6011512981" />
      <path d="M -0.4659230924,-2.4115191876 L -0.4831328528,-2.4194493854" />
      <path d="M -0.5221510646,-2.4394548225 C -0.6579785845,-2.5139332577 -0.7355593115,-2.6191512277 -0.7348623031,-2.7250460877" />
      <path d="M -0.7348623031,-2.7250460877 C -0.7340128953,-2.8066980985 -0.6932046815,-2.8815905791 -0.6124376616,-2.9497235295 C -0.4323734039,-3.1050100997 -0.0459664769,-3.1723912669 0.2864284408,-3.093404691 C 0.621874798,-3.0206451272 0.8706512464,-2.8070422401 0.8651375309,-2.5834527477" />
      <path d="M 0.8651375309,-2.5834527477 C 0.8657011714,-2.4619774541 0.7964434796,-2.3410178996 0.6735180561,-2.2463107157" />
      <path d="M 0.6587285933,-2.2351538361 Q 0.6157074556,-2.203573033 0.5656601832,-2.1763714164" />
      <path d="M -0.4659472293,-2.1283433239 L -0.4831328696,-2.1362627603" />
      <path d="M -0.5221509089,-2.1562681017 C -0.6579795143,-2.2307467874 -0.7355599277,-2.3359654013 -0.7348625008,-2.4418599209" />
      <path d="M -0.7348625008,-2.4418599209 C -0.7357115377,-2.5533121326 -0.649449231,-2.663894875 -0.5005463597,-2.7388945082 C -0.3528439861,-2.8145997493 -0.1445929651,-2.8534922275 0.065139052,-2.8411937848 C 0.2748710353,-2.8298931329 0.4831220124,-2.7674012545 0.6308238829,-2.6680966129 C 0.779726363,-2.569497523 0.8659866255,-2.4353162972 0.8651377262,-2.3002650755" />
      <path d="M 0.8651377262,-2.3002650755 Q 0.8650924643,-2.2374819499 0.8417028809,-2.1763713801" />
      <path d="M -0.4659471597,-1.8451565322 L -0.4831326942,-1.8530759454" />
      <path d="M -0.5221509596,-1.8730813942 C -0.65797862,-1.947559189 -0.735559313,-2.0527780703 -0.7348622311,-2.1586724053" />
      <path d="M -0.7348622311,-2.1586724053 C -0.7357112083,-2.2701247613 -0.649451061,-2.3807068007 -0.5005479545,-2.4557070492 C -0.352845474,-2.531412819 -0.1445941646,-2.5703057412 0.0651374267,-2.5580072654 C 0.2748690263,-2.5467066034 0.4831201327,-2.4842149541 0.6308227645,-2.3849107089 C 0.7797260015,-2.2863120195 0.8659866645,-2.1521307836 0.8651376681,-2.0170792703" />
      <path d="M 0.8651376681,-2.0170792703 Q 0.8636920017,-1.8643475709 0.7349046527,-1.733892274" />
      <path d="M -0.4658841946,-1.5619418911 L -0.483132823,-1.5698894497" />
      <path d="M -0.5221509194,-1.5898948503 C -0.6579783918,-1.6643732834 -0.7355593138,-1.7695910381 -0.734862279,-1.8754856185" />
      <path d="M -0.734862279,-1.8754856185 C -0.7357112589,-1.9869381518 -0.649450835,-2.0975208115 -0.5005476941,-2.1725206828 C -0.352845168,-2.2482261266 -0.1445939401,-2.2871186793 0.0651377036,-2.2748204837 C 0.2748693489,-2.2635200833 0.4831205376,-2.2010286081 0.6308230459,-2.1017239598 C 0.7797261654,-2.0031248565 0.8659866118,-1.8689435054 0.865137635,-1.7338924574" />
      <path d="M 0.865137635,-1.7338924574 C 0.8657012943,-1.6124174804 0.7964434276,-1.4914576766 0.6735177706,-1.3967503713" />
      <path d="M 0.6587289067,-1.3855939544 Q 0.6157076266,-1.3540130592 0.5656602009,-1.326811495" />
      <path d="M -0.4659472175,-1.2787833163 L -0.4831330136,-1.2867028287" />
      <path d="M -0.5221509424,-1.3067081389 L -0.5264663929,-1.3091123287" />
      <path d="M -0.5561028563,-1.3268114943 C -0.6710969568,-1.399405247 -0.735352043,-1.4956366525 -0.7348625095,-1.5922989071" />
      <path d="M -0.7348625095,-1.5922989071 C -0.7357114527,-1.7037514063 -0.6494505854,-1.8143336863 -0.5005476179,-1.8893338027 C -0.3528452392,-1.9650394641 -0.1445942419,-2.0039324406 0.0651377984,-1.9916339748 C 0.2748698334,-1.9803333205 0.483121423,-1.9178413583 0.6308235079,-1.8185369376 C 0.7797261134,-1.7199381258 0.8659866536,-1.585756688 0.8651379201,-1.4507049951" />
      <path d="M 0.8651379201,-1.4507049951 Q 0.8650598639,-1.3786511272 0.8344032374,-1.3091123306" />
      <path d="M -0.7000137837,-1.1852183162 Q -0.7347616588,-1.2456462282 -0.7348621042,-1.3091123297" />
      <path d="M -0.7348621042,-1.3091123297 C -0.7354085161,-1.4085517024 -0.6672874986,-1.5074952969 -0.5461518931,-1.5807862407 C -0.4258513899,-1.65449148 -0.2536246183,-1.701786333 -0.0690486957,-1.7093823658 C 0.11534397,-1.7176115292 0.3104219597,-1.6859756238 0.4713596291,-1.6193237286 C 0.6328523926,-1.553225102 0.7587507442,-1.4526139204 0.8201225509,-1.338189471 C 0.8500206425,-1.2827887162 0.8650257652,-1.2258987816 0.8651379191,-1.1675196671" />
      <path d="M 0.8651379191,-1.1675196671 Q 0.865092611,-1.1047359319 0.8417026424,-1.0436247776" />
      <path d="M -0.6889758664,-0.8843323759 Q -0.7346877302,-0.9528299017 -0.7348625097,-1.0259257485" />
      <path d="M -0.7348625097,-1.0259257485 C -0.737582424,-1.1776885494 -0.5731507345,-1.3255336776 -0.321998545,-1.3893132923 C -0.0734791253,-1.4558903572 0.2500962437,-1.4346115435 0.4904512861,-1.3280522182 C 0.7206655429,-1.2294982603 0.8673623645,-1.0584213453 0.8651376352,-0.884332201" />
      <path d="M 0.8651376352,-0.884332201 C 0.8657013264,-0.7628573352 0.7964435115,-0.6418980455 0.6735180516,-0.5471908813" />
      <path d="M 0.6587287743,-0.5360341424 Q 0.6115298013,-0.5013909829 0.555952472,-0.4720513985" />
      <path d="M -0.6889759953,-0.6011457426 Q -0.7346875312,-0.6696432941 -0.734862279,-0.7427390399" />
      <path d="M -0.734862279,-0.7427390399 C -0.7354983897,-0.8461574633 -0.6616245708,-0.9489735851 -0.5314989788,-1.0230691757 C -0.4023222094,-1.0976629453 -0.2182578733,-1.1426384653 -0.0248000627,-1.1441712458 C 0.1985216092,-1.1470301791 0.4311079797,-1.0908711461 0.5980778619,-0.989704693 C 0.7665253186,-0.8895104334 0.8662466161,-0.7459409247 0.8651376685,-0.6011453862" />
      <path d="M 0.8651376685,-0.6011453862 C 0.8657013752,-0.4796701083 0.7964433718,-0.358710793 0.6735177528,-0.2640039917" />
      <path d="M 0.6587257261,-0.2528452817 Q 0.6115216729,-0.2181988904 0.5559377281,-0.188857177" />
      <path d="M -0.6889760436,-0.317959305 Q -0.7346874899,-0.3864566093 -0.7348622309,-0.4595522535" />
      <path d="M -0.7348622309,-0.4595522535 C -0.7357093104,-0.5709389476 -0.649554775,-0.6814587959 -0.5008082495,-0.756454897 C -0.2800042868,-0.871918279 0.0803147254,-0.8964101051 0.3711136537,-0.8054534571 C 0.6649373805,-0.7187897561 0.8690911938,-0.5215792138 0.8651377254,-0.3179595829" />
      <path d="M 0.8651377254,-0.3179595829 C 0.8657014079,-0.1964823426 0.7964410577,-0.0755209331 0.6735120129,0.0191869736" />
      <path d="M 0.6587287464,0.0303390669 Q 0.6115295769,0.0649824109 0.5559519466,0.0943221389" />
      <path d="M -0.465946583,0.1371502024 L -0.483132949,0.1292304349" />
      <path d="M -0.5221508048,0.1092251604 L -0.526466514,0.1068208252" />
      <path d="M -0.5561029491,0.0891216577 C -0.6710963606,0.0165282419 -0.7353521198,-0.0797030062 -0.734862499,-0.1763647332" />
      <path d="M -0.734862499,-0.1763647332 C -0.734861123,-0.1922152368 -0.7331980478,-0.2080111388 -0.7298732735,-0.2237524391 C -0.7080568566,-0.3305257758 -0.6061567469,-0.4312871761 -0.4512106215,-0.4962837144 C -0.2972171374,-0.5619426315 -0.0920678607,-0.5908981146 0.1098102631,-0.5724489895 C 0.3117707383,-0.5548657306 0.5079881705,-0.4899588833 0.6464031755,-0.3919297328 C 0.7858904431,-0.294496443 0.8658753401,-0.1649977341 0.8651375316,-0.0347719084" />
      <path d="M 0.8651375316,-0.0347719084 Q 0.8636920517,0.1179591337 0.7349048458,0.2484143041" />
      <path d="M -0.4659469007,0.4203369397 L -0.4831330286,0.4124172949" />
      <path d="M -0.5221501861,0.3924124136 L -0.5264664943,0.3900077458" />
      <path d="M -0.5561029316,0.3723085404 Q -0.6428024574,0.3170376239 -0.6889760377,0.2484145273" />
      <path d="M -0.7000139136,0.2307154131 Q -0.7347618974,0.170287582 -0.7348623022,0.1068214274" />
      <path d="M -0.7348623022,0.1068214274 C -0.7357111892,-0.0046313471 -0.6494513964,-0.1152133948 -0.5005485173,-0.1902135561 C -0.352846254,-0.2659192606 -0.1445946728,-0.3048124711 0.0651370973,-0.292514159 C 0.2748688863,-0.2812136702 0.4831199128,-0.2187218565 0.6308225704,-0.1194174944 C 0.7797258179,-0.0208186759 0.8659867789,0.113362428 0.8651377934,0.2484139281" />
      <path d="M 0.8651377934,0.2484139281 Q 0.8650597458,0.3204681732 0.8344031365,0.390007597" />
      <path d="M -0.7000138322,0.5139015311 Q -0.7347618553,0.4534737156 -0.7348623083,0.3900076634" />
      <path d="M -0.7348623083,0.3900076634 C -0.7357112745,0.2785553531 -0.6494508477,0.1679725811 -0.5005477584,0.092972519 C -0.3528452802,0.0172668855 -0.1445940456,-0.021625567 0.0651376661,-0.0093272311 C 0.2748693779,0.001973319 0.4831206122,0.0644646585 0.6308230904,0.1637691795 C 0.7797261797,0.2623681293 0.8659866068,0.3965497876 0.8651376406,0.5316009838" />
      <path d="M 0.8651376406,0.5316009838 Q 0.8636920625,0.6843320289 0.734904705,0.8147874449" />
      <path d="M -0.46594719,0.9867098917 L -0.4831329534,0.9787904037" />
      <path d="M -0.5221508042,0.9587851554 C -0.6579780583,0.8843069313 -0.7355595241,0.7790885246 -0.7348624617,0.6731939461" />
      <path d="M -0.7348624617,0.6731939461 C -0.7357114471,0.56174134 -0.6494504853,0.4511591298 -0.5005472382,0.3761592042 C -0.352844581,0.3004537352 -0.1445935546,0.2615608147 0.0651382356,0.2738592204 C 0.2748700069,0.2851598028 0.4831215891,0.3476519077 0.6308238512,0.4469565055 C 0.7797267289,0.54555556 0.8659865216,0.6797365028 0.8651376352,0.8147881725" />
      <path d="M 0.8651376352,0.8147881725 Q 0.8636921572,0.9675194263 0.734904872,1.0979740356" />
      <path d="M -0.4659470472,1.2698966425 L -0.4831331223,1.2619770179" />
      <path d="M -0.5221509259,1.2419718107 C -0.657978472,1.1674935229 -0.7355593001,1.0622755407 -0.7348621987,0.9563812789" />
      <path d="M -0.7348621987,0.9563812789 C -0.7355991379,0.8489478362 -0.6556648856,0.7422404158 -0.5162544131,0.6675703619 C -0.3779151729,0.5923052945 -0.1817966844,0.5501331164 0.0200971758,0.5552528038 C 0.2219081039,0.5595076677 0.4270262982,0.6111359632 0.5810636617,0.6994646118 C 0.7360517662,0.7871312761 0.8380705577,0.9105619001 0.8600660936,1.0400433205 C 0.8634458314,1.0592980549 0.8651364112,1.078608752 0.8651378329,1.0979754118" />
      <path d="M 0.8651378329,1.0979754118 Q 0.8639812964,1.2419958069 0.7484099239,1.3671545859" />
      <path d="M -0.684786443,1.3872548543 Q -0.7346539707,1.3160337118 -0.734862394,1.2395670895" />
      <path d="M -0.734862394,1.2395670895 C -0.7388101625,1.0714203538 -0.5348289727,0.9096704715 -0.2411787485,0.8583510253 C 0.0494476791,0.8027456386 0.4096356215,0.8624684038 0.6305624804,1.0131554313 C 0.7796226899,1.1117709905 0.8659884938,1.2460300321 0.8651375633,1.3811609658" />
      <path d="M 0.8651375633,1.3811609658 L 0.8643720551,1.4036946132" />
      <path d="M -0.6950445312,1.3905615653 C -0.6387349116,1.2989644195 -0.5209031321,1.2196795101 -0.3673179473,1.1722890835 C -0.2142656312,1.1244111376 -0.0267052891,1.1088982159 0.1543430801,1.131387272 C 0.3727966732,1.1575488591 0.5786941324,1.2396703115 0.7084739569,1.3562136675" />
      <path d="M 0.6305624804,-6.0665108131 L 0.4966677237,-5.8997219569" />
      <path d="M 0.4966677237,-5.6165353554 C 0.3830335463,-5.6956993899 0.222440916,-5.7463029553 0.0610993963,-5.757177106 C -0.1123969352,-5.7697901021 -0.2835586456,-5.7362038213 -0.3964931566,-5.6715517273 C -0.4919709347,-5.6177942968 -0.545878175,-5.5435067688 -0.5454131225,-5.4689173293" />
      <path d="M -0.5414041455,-5.43305713 Q -0.5286738569,-5.376900802 -0.4789338266,-5.3272875715" />
      <path d="M 0.5052714832,-5.3272875482 Q 0.5718842249,-5.3751255093 0.614109763,-5.4330179152" />
      <path d="M 0.6473462756,-5.488624754 Q 0.6673580595,-5.5307961505 0.6732834415,-5.574611384" />
      <path d="M 0.6054453908,-5.7994020576 Q 0.5621797373,-5.8544024227 0.4966677237,-5.8997219569" />
      <path d="M 0.4966677237,-5.3333486596 C 0.3879372979,-5.4090069512 0.2364990954,-5.4587035141 0.0822777594,-5.4722934469 C -0.1843484887,-5.4987197111 -0.4431421791,-5.4094182393 -0.5180447241,-5.2783796444" />
      <path d="M -0.541409017,-5.1498066666 Q -0.5286692933,-5.0936706016 -0.4789337384,-5.0441009311" />
      <path d="M 0.5052713902,-5.0441009098 Q 0.5718815858,-5.0919380118 0.6141094656,-5.1498316919" />
      <path d="M 0.6473463736,-5.2054382639 Q 0.6673581588,-5.2476090789 0.6732835456,-5.291423892" />
      <path d="M 0.6756948021,-5.3272872718 C 0.6763625694,-5.4331774039 0.6104190881,-5.5384909413 0.4966677237,-5.6165353554" />
      <path d="M 0.4966677237,-5.0501619558 C 0.364821892,-5.1424107747 0.1686283895,-5.1950892013 -0.0170128161,-5.1933336374 C -0.2029933081,-5.1930257667 -0.374350257,-5.1387786149 -0.465947232,-5.0562661038" />
      <path d="M -0.4361403468,-4.7250512886 C -0.36330693,-4.6726502446 -0.256314051,-4.6344162059 -0.1353745603,-4.6193209761" />
      <path d="M 0.1144752356,-4.6193209821 C 0.2361299113,-4.6339776468 0.3545616854,-4.6708566385 0.4492131224,-4.7250492904" />
      <path d="M 0.5052714035,-4.7609143779 Q 0.5719064644,-4.8087740823 0.6141097236,-4.8666446093" />
      <path d="M 0.6473462301,-4.9222513471 Q 0.6673574143,-4.9644205917 0.6732834276,-5.0082379313" />
      <path d="M 0.6054452502,-5.2330290474 Q 0.5621626387,-5.288044808 0.4966677237,-5.3333486596" />
      <path d="M 0.4966677237,-4.7669754296 C 0.369250253,-4.8560164098 0.1820595297,-4.9083669303 0.0020421711,-4.9100718675 C -0.1781991853,-4.9130469601 -0.3477640562,-4.8656353395 -0.445975347,-4.7895034286 C -0.477112293,-4.7656375767 -0.5011354112,-4.7398051953 -0.5180447016,-4.7120062844" />
      <path d="M 0.5052713754,-4.4777275708 Q 0.5719167519,-4.5255971895 0.614109775,-4.5834579505" />
      <path d="M 0.637134718,-4.619320978 Q 0.6659167272,-4.6707669366 0.6732834259,-4.725051406" />
      <path d="M 0.6756946071,-4.760914401 C 0.6763829154,-4.8667706637 0.6103877891,-4.9721583443 0.4966677237,-5.0501619558" />
      <path d="M 0.4966677237,-4.4837886538 C 0.3647919902,-4.5760464695 0.1686762702,-4.6287036127 -0.0169940553,-4.6269604432 C -0.2029981171,-4.6266671717 -0.3744264572,-4.5723623911 -0.4659474662,-4.489892654" />
      <path d="M 0.5052713996,-4.1945410334 Q 0.5719042905,-4.2423986058 0.614109854,-4.3002714436" />
      <path d="M 0.6473463017,-4.3558781618 Q 0.667357443,-4.3980473816 0.6732834428,-4.4418647169" />
      <path d="M 0.6756946102,-4.4777275937 C 0.6763786336,-4.5835917114 0.6103927472,-4.6889652831 0.4966677237,-4.7669754296" />
      <path d="M 0.4966677237,-4.2006020809 C 0.3688624946,-4.2899206123 0.1809199861,-4.3423001978 0.0004015834,-4.3437188898 C -0.1803479177,-4.3464234134 -0.3501240818,-4.2984197146 -0.4477942677,-4.2217309107 C -0.4780451487,-4.1982450025 -0.5014562779,-4.1728820847 -0.5180276555,-4.1456421573" />
      <path d="M -0.4361321132,-3.8754973019 C -0.3631660916,-3.8230330177 -0.2563504099,-3.7848643829 -0.1353311856,-3.7697665636" />
      <path d="M 0.1144749077,-3.7697610149 C 0.2361535486,-3.7844308426 0.3544787375,-3.8212608589 0.4492168188,-3.8754914024" />
      <path d="M 0.6756948736,-4.1945413669 C 0.6763699236,-4.3004204428 0.6104068407,-4.4057575797 0.4966677237,-4.4837886538" />
      <path d="M 0.4966677237,-3.9174154209 C 0.2856798272,-4.0690600688 -0.0924186839,-4.1017897755 -0.3233713317,-4.0068399779 C -0.4626181876,-3.953362732 -0.5464713999,-3.8620719995 -0.5454192747,-3.7697610137" />
      <path d="M -0.4361403646,-3.5923046805 C -0.3631939989,-3.5398455215 -0.2563300435,-3.5016874028 -0.1353736457,-3.4865742434" />
      <path d="M 0.11447561,-3.4865745641 C 0.2361238829,-3.5012392979 0.3544619552,-3.5380651424 0.4492127832,-3.5923023955" />
      <path d="M 0.6756946154,-3.9113543796 C 0.6763545812,-4.0172614134 0.6104221539,-4.1225533006 0.4966677237,-4.2006020809" />
      <path d="M 0.4966677237,-3.6342286655 C 0.3828270171,-3.7135478425 0.2217498367,-3.7642011092 0.0601880678,-3.7749339525 C -0.1013818279,-3.7864852177 -0.2614266886,-3.7581294422 -0.3733716897,-3.7015531354 C -0.4829103117,-3.647187097 -0.546040905,-3.5671330068 -0.5454192754,-3.4865744318" />
      <path d="M -0.4361403394,-3.3091180305 C -0.3631831107,-3.2566497751 -0.2562798174,-3.2184879084 -0.1353715534,-3.2033881016" />
      <path d="M 0.1144746045,-3.2033876726 C 0.236152486,-3.218054384 0.3545149154,-3.2549033421 0.4492167163,-3.3091180282" />
      <path d="M 0.6756946045,-3.6281676639 C 0.6763455399,-3.7340841342 0.6104391459,-3.8393489942 0.4966677237,-3.9174154209" />
      <path d="M 0.4966677237,-3.3510420652 C 0.3454600789,-3.4572381512 0.1100397846,-3.5095741077 -0.0973310178,-3.490596819 C -0.2948335323,-3.4745946491 -0.4591335399,-3.3960411695 -0.518045082,-3.2960728442" />
      <path d="M -0.4361361856,-3.0259284434 C -0.3632600448,-2.973511112 -0.2563524977,-2.9353098938 -0.1353748355,-2.9202011215" />
      <path d="M 0.5052708948,-3.0617942491 Q 0.5719002073,-3.1096480917 0.6141098195,-3.167524601" />
      <path d="M 0.6473464725,-3.2231314541 Q 0.6673571964,-3.2653001122 0.6732834407,-3.30911838" />
      <path d="M 0.6756946086,-3.3449810767 C 0.6763443348,-3.4509061302 0.6104286263,-3.5561720496 0.4966677237,-3.6342286655" />
      <path d="M 0.4966677237,-3.0678554607 C 0.2972117537,-3.2105298891 -0.0518629096,-3.2495214265 -0.2844162926,-3.1710579045 C -0.4460783861,-3.1201928424 -0.546897065,-3.020979285 -0.5454192698,-2.9202011018" />
      <path d="M 0.6756946085,-3.0617944063 C 0.6763630844,-3.167681857 0.610417693,-3.2730022093 0.4966677237,-3.3510420652" />
      <path d="M 0.4966677237,-2.7846687897 C 0.3067809641,-2.9199603528 -0.0185296089,-2.9631956623 -0.249984784,-2.8979799868 C -0.4309334,-2.8505829336 -0.5472229889,-2.745091599 -0.5454190899,-2.6370101817" />
      <path d="M -0.541410134,-2.6011320911 Q -0.5286721038,-2.5450022275 -0.4789338859,-2.4954212606" />
      <path d="M 0.6054085733,-2.9675582814 Q 0.5621575185,-3.0225313778 0.4966677237,-3.0678554607" />
      <path d="M 0.4966677237,-2.501482174 C 0.3514795812,-2.6032887078 0.1288368467,-2.6559734162 -0.0723463545,-2.6428555506 C -0.3429409297,-2.629204992 -0.5502809781,-2.4961776359 -0.5454182453,-2.3538290075" />
      <path d="M -0.5414139473,-2.3179673626 Q -0.5286750797,-2.2618031281 -0.4789338118,-2.2122344138" />
      <path d="M 0.5052714208,-2.2122344506 Q 0.571879265,-2.2600679195 0.6141095323,-2.317965158" />
      <path d="M 0.6587287935,-2.4007754549 Q 0.669277117,-2.4298529686 0.6732834928,-2.4595575624" />
      <path d="M 0.6054445787,-2.684349472 Q 0.5621775162,-2.7393504218 0.4966677237,-2.7846687897" />
      <path d="M 0.4966677237,-2.2182955229 C 0.3787048952,-2.3005531903 0.2098502656,-2.3518511974 0.0424922673,-2.3600724084 C -0.1249253389,-2.3692344758 -0.2884020838,-2.3354128768 -0.3972299489,-2.2728939819 C -0.4922502996,-2.2192332824 -0.5458630438,-2.1451346276 -0.5454192689,-2.0706411985" />
      <path d="M 0.5052713692,-1.9290478086 Q 0.5718828933,-1.9768847653 0.6141097708,-2.03477808" />
      <path d="M 0.6371346924,-2.0706410322 Q 0.6659169186,-2.1220876233 0.6732834516,-2.1763715908" />
      <path d="M 0.605445688,-2.4011620727 Q 0.5621770298,-2.4561653245 0.4966677237,-2.501482174" />
      <path d="M 0.4966677237,-1.935108834 C 0.4264774905,-1.9832003894 0.3443254326,-2.0197304322 0.2502115499,-2.0446989624 C 0.0783500518,-2.0907826089 -0.1177832319,-2.0884358275 -0.2684580399,-2.0432209767 C -0.4203057885,-1.9990653283 -0.5237700759,-1.9131833675 -0.5419495361,-1.8208449961 C -0.5431034428,-1.8097103252 -0.5442573496,-1.7985756543 -0.5454112563,-1.7874409833" />
      <path d="M -0.5413939974,-1.7515603426 Q -0.5286507772,-1.6953991683 -0.4789321814,-1.6458628075" />
      <path d="M 0.6054451967,-2.1179758622 Q 0.5621824623,-2.1729736749 0.4966677237,-2.2182955229" />
      <path d="M 0.4966677237,-1.6519222203 C 0.3577921125,-1.749253414 0.1473622138,-1.802115791 -0.0466800229,-1.7945063132 C -0.2412795658,-1.7886607017 -0.4141770091,-1.7229781357 -0.4929935782,-1.6309166049 C -0.5277277704,-1.5908847001 -0.5452029959,-1.5486684199 -0.5454192548,-1.5042677642" />
      <path d="M -0.541414552,-1.4684047749 Q -0.5292505352,-1.4147156075 -0.4831328484,-1.3669202386" />
      <path d="M 0.5052714386,-1.3626744383 Q 0.571905014,-1.4105327418 0.6141097163,-1.4684047591" />
      <path d="M 0.658728789,-1.5512156808 Q 0.669276959,-1.5802929461 0.673283429,-1.6099981938" />
      <path d="M 0.6756946096,-1.6458611729 Q 0.6751639207,-1.745308658 0.6054455147,-1.8347889378" />
      <path d="M 0.5258042663,-1.913608463 L 0.4966677237,-1.935108834" />
      <path d="M 0.4966677237,-1.3687355286 C 0.3078111352,-1.5032469776 -0.015048427,-1.5468911077 -0.2462754039,-1.4830307999 C -0.3389479998,-1.4582198622 -0.4121719311,-1.422156156 -0.4659471977,-1.3748396813" />
      <path d="M 0.6756944097,-1.3626742589 C 0.6763554371,-1.4685757688 0.6104265347,-1.5738708373 0.4966677237,-1.6519222203" />
      <path d="M 0.4966677237,-1.0855487905 C 0.4315219521,-1.1302563866 0.3557137425,-1.165038638 0.2692430946,-1.1898955447 C 0.0084479827,-1.2676814642 -0.3089654629,-1.2229758317 -0.4524580749,-1.1030076864 C -0.4804877249,-1.0805318512 -0.5023499472,-1.0563891815 -0.5180447418,-1.0305796772" />
      <path d="M 0.505271405,-0.7963012369 Q 0.5718977001,-0.8441522514 0.6141097784,-0.9020315228" />
      <path d="M 0.6371346996,-0.937894481 Q 0.6659134658,-0.9893306243 0.6732834284,-1.0436248133" />
      <path d="M 0.5258038812,-1.3472354026 L 0.4966677237,-1.3687355286" />
      <path d="M 0.4966677237,-0.8023622962 C 0.377693608,-0.8853043073 0.2072962818,-0.9366765502 0.0385247573,-0.9443379765 C -0.2130289412,-0.9583615545 -0.4468529345,-0.8708417844 -0.518043999,-0.747393548" />
      <path d="M 0.1144756516,-0.3715209528 C 0.2361911199,-0.3861963144 0.3544909179,-0.4230311523 0.4492162445,-0.4772516691" />
      <path d="M 0.6756946446,-0.796301371 C 0.6763432744,-0.9022390104 0.6104209751,-1.0074947662 0.4966677237,-1.0855487905" />
      <path d="M 0.4966677237,-0.5191756172 C 0.4071892439,-0.5812756282 0.2891200911,-0.6261917439 0.1640289225,-0.6474572264 C -0.081868659,-0.6914907649 -0.3457863725,-0.6355997272 -0.4659463268,-0.5252800675" />
      <path d="M -0.5180447948,-0.4642063873 Q -0.5453438161,-0.4190565363 -0.5454193804,-0.3715213119" />
      <path d="M -0.4361393449,-0.1940641898 C -0.3633052445,-0.141665868 -0.2563514905,-0.1034392521 -0.135375293,-0.0883345801" />
      <path d="M 0.1144582423,-0.0883325868 C 0.236122066,-0.1030005661 0.354448004,-0.1398175693 0.449216626,-0.1940648768" />
      <path d="M 0.5052709143,-0.2299275671 Q 0.5718993133,-0.2777835752 0.6140946163,-0.3356373241" />
      <path d="M 0.6371345434,-0.3715208663 Q 0.665916463,-0.4229662427 0.6732834288,-0.4772515749" />
      <path d="M 0.6756946088,-0.5131145679 C 0.6763814403,-0.6189747348 0.6103880902,-0.724357438 0.4966677237,-0.8023622962" />
      <path d="M 0.4966677237,-0.2359889184 C 0.3327895346,-0.3515135179 0.0696380458,-0.4022099002 -0.1488623404,-0.3697191223 C -0.3829727465,-0.3385495639 -0.5487695735,-0.2162613276 -0.5454193022,-0.08833455" />
      <path d="M -0.4361404536,0.0891216612 C -0.363267904,0.1415382905 -0.2563600617,0.1797422442 -0.1353747183,0.1948520405" />
      <path d="M 0.1144750493,0.1948520333 C 0.2361112717,0.1801746713 0.3543142958,0.1434290952 0.4492134628,0.0891242818" />
      <path d="M 0.5052715128,0.0532587529 Q 0.5719229874,0.0053817734 0.6141094839,-0.0524719761" />
      <path d="M 0.6371279946,-0.0883225595 Q 0.6659097731,-0.1397597858 0.6732811439,-0.1940436549" />
      <path d="M 0.675694771,-0.2299278843 C 0.6763907606,-0.3357677089 0.6103736804,-0.4411923779 0.4966677237,-0.5191756172" />
      <path d="M 0.4966677237,0.0471976153 C 0.3531747182,-0.0534015229 0.1340041443,-0.1061188945 -0.0653730008,-0.0945698919 C -0.3390768922,-0.0827398583 -0.5504271705,0.0511826602 -0.5454194056,0.1948520003" />
      <path d="M -0.5414141613,0.2307172392 Q -0.5292633944,0.2843814447 -0.4831327895,0.3321997789" />
      <path d="M 0.5052528038,0.3364321109 Q 0.5718692598,0.2885825204 0.6141094642,0.230714658" />
      <path d="M 0.6473326151,0.1750984021 Q 0.6673466413,0.1328719708 0.6732699989,0.0890221055" />
      <path d="M 0.6756781513,0.0531966981 C 0.6763577966,-0.0526187943 0.6104496117,-0.1578459181 0.4966677237,-0.2359889184" />
      <path d="M 0.4966677237,0.3303844072 C 0.2861731992,0.1791268485 -0.0906550447,0.1460956577 -0.321787385,0.2403459834 C -0.462043398,0.2938820816 -0.5464133828,0.3852631239 -0.5453971282,0.4779935563" />
      <path d="M 0.6756946063,0.336445442 C 0.6763350318,0.2304973262 0.610436882,0.1252698058 0.4966677237,0.0471976153" />
      <path d="M 0.4966677237,0.6135709584 C 0.2795169232,0.457086979 -0.1143650677,0.4282134325 -0.3431576195,0.5322350624 C -0.4708231677,0.586576198 -0.5462769077,0.6734700005 -0.5453981879,0.7611445375" />
      <path d="M -0.5413922085,0.7969889914 Q -0.528669997,0.853173625 -0.4789336985,0.9028186073" />
      <path d="M 0.6756946064,0.6196320121 C 0.6763829474,0.5137786585 0.6103911774,0.4083904439 0.4966677237,0.3303844072" />
      <path d="M 0.4966677237,0.8967576141 C 0.3608278549,0.8017196125 0.1573920719,0.748974358 -0.0331852244,0.7537992256 C -0.2956296181,0.757070262 -0.5140033893,0.8716929275 -0.5411474968,1.0073772794 C -0.5439940195,1.0196724665 -0.5454179443,1.0320173646 -0.5454192712,1.0444119737" />
      <path d="M -0.5414141274,1.0802769468 Q -0.5286857341,1.1364147391 -0.4789337793,1.1860053812" />
      <path d="M -0.4361402971,1.2218684406 Q -0.371344709,1.2681952429 -0.2775203745,1.2974396408" />
      <path d="M 0.6756946349,0.902818679 C 0.6763592766,0.7969256864 0.6104234071,0.6916176627 0.4966677237,0.6135709584" />
      <path d="M 0.4966677237,1.1799442876 C 0.3344323759,1.0654967386 0.073972637,1.0144928171 -0.1432217367,1.0454359392 C -0.3801590882,1.0754549215 -0.5489456471,1.198689152 -0.5454192796,1.3275986878" />
      <path d="M 0.6473448929,1.307853891 Q 0.6673509147,1.2656906096 0.6732813523,1.2218530527" />
      <path d="M 0.6756936743,1.1860071026 C 0.6763320793,1.0800385766 0.6104326298,0.97483593 0.4966677237,0.8967576141" />
      <path d="M 0.6054453791,1.2802641796 Q 0.5621951127,1.2252777251 0.4966677237,1.1799442876" />
      <line x1="0.4966677237" y1="1.1799442876" x2="0.4966677237" y2="1.2233588666" />
      <line x1="0.4966677237" y1="0.8967576141" x2="0.4966677237" y2="0.9684836681" />
      <line x1="0.4966677237" y1="0.6135709584" x2="0.4966677237" y2="0.6852970666" />
      <line x1="0.4966677237" y1="0.3303844072" x2="0.4966677237" y2="0.4021103708" />
      <line x1="0.4966677237" y1="0.0471976153" x2="0.4966677237" y2="0.118923667" />
      <line x1="0.4966677237" y1="-0.2359889184" x2="0.4966677237" y2="-0.1642628592" />
      <line x1="0.4966677237" y1="-0.5191756172" x2="0.4966677237" y2="-0.447449635" />
      <line x1="0.4966677237" y1="-0.8023622962" x2="0.4966677237" y2="-0.730636208" />
      <line x1="0.4966677237" y1="-1.0855487905" x2="0.4966677237" y2="-1.0138228679" />
      <line x1="0.4966677237" y1="-1.3687355286" x2="0.4966677237" y2="-1.3607192506" />
      <line x1="0.4966677237" y1="-1.6519222203" x2="0.4966677237" y2="-1.6439058147" />
      <line x1="0.4966677237" y1="-1.6085074835" x2="0.4966677237" y2="-1.5801962236" />
      <line x1="0.4966677237" y1="-1.935108834" x2="0.4966677237" y2="-1.8916941991" />
      <line x1="0.4966677237" y1="-2.2182955229" x2="0.4966677237" y2="-2.1748809819" />
      <line x1="0.4966677237" y1="-2.501482174" x2="0.4966677237" y2="-2.4580673708" />
      <line x1="0.4966677237" y1="-2.7846687897" x2="0.4966677237" y2="-2.7129427659" />
      <line x1="0.4966677237" y1="-3.0678554607" x2="0.4966677237" y2="-3.0244407808" />
      <line x1="0.4966677237" y1="-3.3510420652" x2="0.4966677237" y2="-3.2793160686" />
      <line x1="0.4966677237" y1="-3.6342286655" x2="0.4966677237" y2="-3.5625027602" />
      <line x1="0.4966677237" y1="-3.9174154209" x2="0.4966677237" y2="-3.8456894983" />
      <line x1="0.4966677237" y1="-4.2006020809" x2="0.4966677237" y2="-4.1288759927" />
      <line x1="0.4966677237" y1="-4.4837886538" x2="0.4966677237" y2="-4.4120626716" />
      <line x1="0.4966677237" y1="-4.7669754296" x2="0.4966677237" y2="-4.6952493704" />
      <line x1="0.4966677237" y1="-5.0501619558" x2="0.4966677237" y2="-4.9784359042" />
      <line x1="0.4966677237" y1="-5.3333486596" x2="0.4966677237" y2="-5.2616226961" />
      <line x1="0.4966677237" y1="-5.6165353554" x2="0.4966677237" y2="-5.5448092472" />
      <line x1="0.4966677237" y1="-5.8997219569" x2="0.4966677237" y2="-5.8563073779" />
      <path d="M -0.3203585175,-6.0783411199 C -0.3120832769,-6.0794436114 -0.3150648096,-6.0789933293 -0.2725682354,-6.0861904649 C -0.2529399964,-6.0894812003 -0.2095809369,-6.095773388 -0.1640487268,-6.0980222561 C -0.1167068148,-6.1006108193 -0.0673084494,-6.0996203694 -0.0158536307,-6.0950509066 C 0.1694567195,-6.079002883 0.3649721767,-6.009150778 0.4966677237,-5.8997218125" />
      <path d="M -0.3203585175,-6.0783411199 L -0.3203585175,-6.1137394511" />
      <path d="M -0.3203585175,-6.1137394511 C -0.3179847876,-6.1155776028 -0.3099786586,-6.1200888825 -0.2963401306,-6.1272732903 C -0.2865125651,-6.132005255 -0.2675683328,-6.1423144597 -0.219255334,-6.159165103 C -0.0919056704,-6.2033384577 0.0749499873,-6.2189697815 0.2212518667,-6.1981605063" />
      <path d="M -0.40677847,-5.6655586512 A 0.610556942922154,0.35880263943367585 0.0 0,1 -0.5139506147,-5.7795125663" />
      <path d="M -0.5454192768,-5.8932169812 A 0.610556942922154,0.35880263943367585 0.0 0,1 0.4908034891,-6.1504424967" />
      <path d="M 0.6305625188,-6.1019091214 Q 0.4823470204,-6.1644914702 0.3098632412,-6.1865230182" />
      <path d="M 0.3098632412,-6.1865230182 C 0.0830903247,-6.2159321628 -0.1499662661,-6.1848509695 -0.3203585175,-6.1137394511" />
      <path d="M 0.6305625188,-6.0665107901 C 0.3381441052,-6.1947303709 -0.0667417476,-6.1879242596 -0.3203585175,-6.0783411199" />
      <line x1="0.6772279825" y1="3.132362442" x2="0.9017571202" y2="3.6238926537" />
      <line x1="0.9017571202" y1="3.6238926537" x2="0.2896668038" y2="3.9839279089" />
      <line x1="0.2896668038" y1="3.9839279089" x2="-0.5469526503" y2="3.8524329525" />
      <line x1="-0.5469526503" y1="3.8524329525" x2="-0.771481788" y2="3.3609027407" />
      <line x1="-0.771481788" y1="3.3609027407" x2="-0.1593914716" y2="3.0008674855" />
      <line x1="-0.1593914716" y1="3.0008674855" x2="0.6772279825" y2="3.132362442" />
      <line x1="0.2896668038" y1="3.9839279089" x2="0.2896668038" y2="3.4175546094" />
      <line x1="0.6978325111" y1="3.1774690523" x2="0.2896668038" y2="3.4175546094" />
      <line x1="-0.5469526503" y1="3.8524329525" x2="-0.5469526503" y2="3.2860596529" />
      <line x1="0.2896668038" y1="3.4175546094" x2="-0.5469526503" y2="3.2860596529" />
      <line x1="-0.5469526503" y1="3.2860596529" x2="-0.5675571789" y2="3.2409530426" />
      <path d="M 1.1747838641,2.7426044737 A 1.57,0.9226332620423489 0.0 0,1 1.6351376661,3.3953051316" />
      <path d="M -1.5048623339,3.3953051316 A 1.57,0.9226332620423489 0.0 0,1 1.1747838641,2.7426044737" />
      <path d="M 1.089970142,2.8895849878 A 1.4500000000056719,0.8521135222717445 0.0 0,1 -0.9596948098,4.0952104067 A 1.4500000000056719,0.8521135222717445 0.0 0,1 1.089970142,2.8895849878" />
      <line x1="1.6351376661" y1="2.1978301554" x2="1.6351376661" y2="3.3953051316" />
      <line x1="-1.5048623339" y1="2.1978301554" x2="-1.5048623339" y2="3.3953051316" />
      <path d="M 0.8651375633,-5.6985052786 L 0.8651375633,-5.7339036099" />
      <path d="M -0.7348623359,-5.5569118182 L -0.7348623359,-5.5923101494" />
      <path d="M 0.8651376111,-5.4153187346 L 0.8651376111,-5.4507170658" />
      <path d="M -0.7348623028,-5.2737252909 L -0.7348623028,-5.3091236222" />
      <path d="M 0.8651378417,-5.1321322047 L 0.8651378417,-5.167530536" />
      <path d="M -0.7348625879,-4.9905393436 L -0.7348625879,-5.0259376748" />
      <path d="M 0.8651374364,-4.8489454497 L 0.8651374364,-4.8843437809" />
      <path d="M -0.734862587,-4.7073515544 L -0.734862587,-4.7427498856" />
      <path d="M 0.8651378418,-4.5657586992 L 0.8651378418,-4.6011570305" />
      <path d="M -0.734862303,-4.4241656099 L -0.734862303,-4.4595639411" />
      <path d="M 0.8651376111,-4.2825721661 L 0.8651376111,-4.3179704973" />
      <path d="M -0.7348623364,-4.1409790845 L -0.7348623364,-4.1763774157" />
      <path d="M 0.8651375631,-3.9993856215 L 0.8651375631,-4.0347839527" />
      <path d="M -0.7348623933,-3.857791746 L -0.7348623933,-3.8931900773" />
      <path d="M 0.8651378312,-3.7162000729 L 0.8651378312,-3.7515984042" />
      <path d="M -0.7348621994,-3.5746059374 L -0.7348621994,-3.6100042686" />
      <path d="M 0.8651376343,-3.4330128265 L 0.8651376343,-3.4684111578" />
      <path d="M -0.7348624612,-3.2914186027 L -0.7348624612,-3.3268169339" />
      <path d="M 0.8651376404,-3.1498256416 L 0.8651376404,-3.1852239728" />
      <path d="M -0.7348623084,-3.0082323203 L -0.7348623084,-3.0436306515" />
      <path d="M 0.8651377938,-2.8666385865 L 0.8651377938,-2.9020369177" />
      <path d="M -0.7348623031,-2.7250460877 L -0.7348623031,-2.760444419" />
      <path d="M 0.8651375309,-2.5834527477 L 0.8651375309,-2.6188510789" />
      <path d="M -0.7348625008,-2.4418599209 L -0.7348625008,-2.4772582521" />
      <path d="M 0.8651377262,-2.3002650755 L 0.8651377262,-2.3356634067" />
      <path d="M -0.7348622311,-2.1586724053 L -0.7348622311,-2.1940707366" />
      <path d="M 0.8651376681,-2.0170792703 L 0.8651376681,-2.0524776015" />
      <path d="M -0.734862279,-1.8754856185 L -0.734862279,-1.9108839497" />
      <path d="M 0.865137635,-1.7338924574 L 0.865137635,-1.7692907886" />
      <path d="M -0.7348625095,-1.5922989071 L -0.7348625095,-1.6276972383" />
      <path d="M 0.8651379201,-1.4507049951 L 0.8651379201,-1.4861033263" />
      <path d="M -0.7348621042,-1.3091123297 L -0.7348621042,-1.3445106609" />
      <path d="M 0.8651379191,-1.1675196671 L 0.8651379191,-1.2029179983" />
      <path d="M -0.7348625097,-1.0259257485 L -0.7348625097,-1.0613240798" />
      <path d="M 0.8651376352,-0.884332201 L 0.8651376352,-0.9197305322" />
      <path d="M -0.734862279,-0.7427390399 L -0.734862279,-0.7781373711" />
      <path d="M 0.8651376685,-0.6011453862 L 0.8651376685,-0.6365437175" />
      <path d="M -0.7348622309,-0.4595522535 L -0.7348622309,-0.4949505847" />
      <path d="M 0.8651377254,-0.3179595829 L 0.8651377254,-0.3533579141" />
      <path d="M -0.734862499,-0.1763647332 L -0.734862499,-0.2117630645" />
      <path d="M 0.8651375316,-0.0347719084 L 0.8651375316,-0.0701702396" />
      <path d="M -0.7348623022,0.1068214274 L -0.7348623022,0.0714230962" />
      <path d="M 0.8651377934,0.2484139281 L 0.8651377934,0.2130155969" />
      <path d="M -0.7348623083,0.3900076634 L -0.7348623083,0.3546093322" />
      <path d="M 0.8651376406,0.5316009838 L 0.8651376406,0.4962026526" />
      <path d="M -0.7348624617,0.6731939461 L -0.7348624617,0.6377956149" />
      <path d="M 0.8651376352,0.8147881725 L 0.8651376352,0.7793898413" />
      <path d="M -0.7348621987,0.9563812789 L -0.7348621987,0.9209829477" />
      <path d="M 0.8651378329,1.0979754118 L 0.8651378329,1.0625770806" />
      <path d="M -0.734862394,1.2395670895 L -0.734862394,1.2041687583" />
      <path d="M 0.8651375633,1.3811609658 L 0.8651375633,1.3457626346" />
      <path d="M 1.6351376661,3.3953051316 C 1.6353574963,3.4869113 1.6148964711,3.5778650829 1.5737545905,3.6681664802 C 1.520232082,3.7865764487 1.429097805,3.8972168361 1.3003517596,4.0000876425 C 1.1260655612,4.1377732393 0.8817285313,4.24815493 0.6045742679,4.3093610316 C 0.2556257342,4.387861015 -0.1426445452,4.3865504215 -0.4900829828,4.3057905759 C -0.7617592676,4.2437546958 -1.0007925861,4.1343394726 -1.1719254437,3.9986321638 C -1.2629861857,3.9262384988 -1.335115677,3.8491535483 -1.3883139175,3.7673773122 C -1.466702998,3.6453532198 -1.5055524702,3.5213291596 -1.5048623339,3.3953051316" />
      <line x1="-0.5454192768" y1="1.3478226247" x2="-0.5454192768" y2="1.3275986878" />
      <line x1="0.675694609" y1="1.257731387" x2="0.675694609" y2="1.1860053966" />
      <line x1="-0.5454192768" y1="1.1161380232" x2="-0.5454192768" y2="1.0444119662" />
      <line x1="0.675694609" y1="0.9745446686" x2="0.675694609" y2="0.90281868" />
      <line x1="-0.5454192768" y1="0.8329514426" x2="-0.5454192768" y2="0.7612254103" />
      <line x1="-0.5454192768" y1="0.2665781189" x2="-0.5454192768" y2="0.1948520475" />
      <line x1="0.675694609" y1="0.1249847316" x2="0.675694609" y2="0.0532586896" />
      <line x1="-0.5454192768" y1="-0.0166085495" x2="-0.5454192768" y2="-0.0883345409" />
      <line x1="0.675694609" y1="-0.158201827" x2="0.675694609" y2="-0.2299278927" />
      <line x1="0.675694609" y1="-0.4413885536" x2="0.675694609" y2="-0.5131145564" />
      <line x1="0.675694609" y1="-0.7245751785" x2="0.675694609" y2="-0.7963012263" />
      <line x1="0.675694609" y1="-1.2909485304" x2="0.675694609" y2="-1.3626744691" />
      <line x1="-0.5454192768" y1="-1.4325417226" x2="-0.5454192768" y2="-1.5042677793" />
      <line x1="0.675694609" y1="-1.5741352315" x2="0.675694609" y2="-1.6458611643" />
      <line x1="-0.5454192768" y1="-1.7157285053" x2="-0.5454192768" y2="-1.7874544918" />
      <line x1="-0.5454192768" y1="-1.9989150716" x2="-0.5454192768" y2="-2.070641185" />
      <line x1="-0.5454192768" y1="-2.282101732" x2="-0.5454192768" y2="-2.3538277019" />
      <line x1="-0.5454192768" y1="-2.565288474" x2="-0.5454192768" y2="-2.6370144347" />
      <line x1="0.675694609" y1="-3.5564416767" x2="0.675694609" y2="-3.6281676561" />
      <line x1="-0.5454192768" y1="-3.6980349546" x2="-0.5454192768" y2="-3.7697610145" />
      <line x1="0.675694609" y1="-3.8396283879" x2="0.675694609" y2="-3.9113543795" />
      <line x1="0.675694609" y1="-4.1228149292" x2="0.675694609" y2="-4.1945410371" />
      <line x1="0.675694609" y1="-4.4060016199" x2="0.675694609" y2="-4.4777275868" />
      <line x1="0.675694609" y1="-4.6891883304" x2="0.675694609" y2="-4.7609143881" />
      <line x1="0.675694609" y1="-4.9723748453" x2="0.675694609" y2="-5.0441009023" />
      <line x1="-0.5454192768" y1="-5.113968352" x2="-0.5454192768" y2="-5.1856942882" />
      <line x1="-0.5454192768" y1="-5.39715488" x2="-0.5454192768" y2="-5.4688809333" />
      <line x1="-0.5454192768" y1="-5.6803415544" x2="-0.5454192768" y2="-5.8932169812" />
      <path d="M 0.2212518641,-6.1981605067 L 0.3098632412,-6.1865230182" />
    </g>
  </g>
</svg>